<svg width="120" height="40" viewBox="0 0 120 40" fill="none" xmlns="http://www.w3.org/2000/svg">
<rect x="0.5" y="0.5" width="119" height="39" rx="6.5" fill="#0C0D10"/>
<path d="M81.5259 19.2013V21.4924H80.0898V22.9948H81.5259V28.0998C81.5259 29.8429 82.3145 30.5402 84.2983 30.5402C84.647 30.5402 84.979 30.4987 85.2695 30.4489V28.9631C85.0205 28.988 84.8628 29.0046 84.5889 29.0046C83.7007 29.0046 83.3106 28.5895 83.3106 27.6432V22.9948H85.2695V21.4924H83.3106V19.2013H81.5259Z" fill="white"/>
<path d="M90.3234 30.6647C92.963 30.6647 94.5817 28.8967 94.5817 25.9665C94.5817 23.0529 92.9547 21.2765 90.3234 21.2765C87.6837 21.2765 86.0568 23.0529 86.0568 25.9665C86.0568 28.8967 87.6754 30.6647 90.3234 30.6647ZM90.3234 29.0793C88.7711 29.0793 87.8996 27.9421 87.8996 25.9665C87.8996 24.0075 88.7711 22.862 90.3234 22.862C91.8673 22.862 92.7472 24.0075 92.7472 25.9665C92.7472 27.9338 91.8673 29.0793 90.3234 29.0793Z" fill="white"/>
<path d="M95.9666 30.4904H97.7513V25.153C97.7513 23.883 98.7058 23.028 100.059 23.028C100.374 23.028 100.906 23.0861 101.055 23.1359V21.3762C100.864 21.3263 100.524 21.3014 100.258 21.3014C99.0794 21.3014 98.075 21.9489 97.8177 22.8371H97.6848V21.4509H95.9666V30.4904Z" fill="white"/>
<path d="M105.486 22.7956C106.806 22.7956 107.669 23.717 107.711 25.1364H103.145C103.245 23.7253 104.166 22.7956 105.486 22.7956ZM107.703 28.05C107.371 28.7555 106.632 29.1457 105.553 29.1457C104.125 29.1457 103.204 28.1413 103.145 26.5558V26.4562H109.529V25.8337C109.529 22.9948 108.01 21.2765 105.495 21.2765C102.946 21.2765 101.328 23.111 101.328 25.9997C101.328 28.8884 102.913 30.6647 105.503 30.6647C107.57 30.6647 109.014 29.6686 109.421 28.05H107.703Z" fill="white"/>
<path d="M69.8223 27.1522C69.96 29.372 71.8097 30.7915 74.5628 30.7915C77.5052 30.7915 79.3464 29.3031 79.3464 26.9286C79.3464 25.0616 78.2968 24.0292 75.7501 23.4355L74.3822 23.1C72.7647 22.7214 72.1108 22.2138 72.1108 21.3277C72.1108 20.2092 73.126 19.4779 74.6489 19.4779C76.0943 19.4779 77.0923 20.192 77.2729 21.3363H79.1485C79.0367 19.2456 77.1955 17.7744 74.6747 17.7744C71.9646 17.7744 70.1578 19.2456 70.1578 21.4567C70.1578 23.2807 71.1817 24.3647 73.4272 24.8895L75.0274 25.2767C76.6707 25.6638 77.3934 26.2317 77.3934 27.1781C77.3934 28.2793 76.2577 29.0794 74.7091 29.0794C73.0486 29.0794 71.8957 28.3309 71.7323 27.1522H69.8223Z" fill="white"/>
<path d="M51.335 21.3014C50.1064 21.3014 49.0439 21.9157 48.4961 22.945H48.3633V21.4509H46.645V33.4953H48.4297V29.1208H48.5708C49.0439 30.0754 50.0649 30.6398 51.3516 30.6398C53.6343 30.6398 55.0869 28.8386 55.0869 25.9665C55.0869 23.0944 53.6343 21.3014 51.335 21.3014ZM50.8286 29.0378C49.3345 29.0378 48.3965 27.8591 48.3965 25.9748C48.3965 24.0822 49.3345 22.9035 50.8369 22.9035C52.3477 22.9035 53.2524 24.0573 53.2524 25.9665C53.2524 27.884 52.3477 29.0378 50.8286 29.0378Z" fill="white"/>
<path d="M61.3318 21.3014C60.1032 21.3014 59.0407 21.9157 58.4929 22.945H58.3601V21.4509H56.6418V33.4953H58.4265V29.1208H58.5676C59.0407 30.0754 60.0617 30.6398 61.3484 30.6398C63.6311 30.6398 65.0837 28.8386 65.0837 25.9665C65.0837 23.0944 63.6311 21.3014 61.3318 21.3014ZM60.8254 29.0378C59.3313 29.0378 58.3933 27.8591 58.3933 25.9748C58.3933 24.0822 59.3313 22.9035 60.8337 22.9035C62.3445 22.9035 63.2492 24.0573 63.2492 25.9665C63.2492 27.884 62.3445 29.0378 60.8254 29.0378Z" fill="white"/>
<path d="M43.443 30.4904H45.4907L41.0082 18.0755H38.9348L34.4523 30.4904H36.4312L37.5754 27.1953H42.3074L43.443 30.4904ZM39.8726 20.3297H40.0188L41.817 25.5778H38.0658L39.8726 20.3297Z" fill="white"/>
<path d="M24.769 20.3011C24.7907 18.6201 25.6934 17.0295 27.1256 16.149C26.2221 14.8587 24.7088 14.0406 23.1344 13.9913C21.4552 13.8151 19.8272 14.9962 18.9715 14.9962C18.0992 14.9962 16.7817 14.0088 15.363 14.038C13.5137 14.0978 11.7898 15.1491 10.8901 16.7659C8.95607 20.1143 10.3987 25.0354 12.2513 27.742C13.1782 29.0673 14.2615 30.5478 15.6789 30.4953C17.066 30.4377 17.584 29.6108 19.2583 29.6108C20.9171 29.6108 21.4031 30.4953 22.8493 30.4619C24.3377 30.4377 25.2754 29.1306 26.1698 27.7927C26.8358 26.8484 27.3483 25.8047 27.6882 24.7002C25.9391 23.9604 24.771 22.2002 24.769 20.3011Z" fill="white"/>
<path d="M22.0373 12.2113C22.8489 11.2371 23.2487 9.98494 23.1518 8.7207C21.912 8.85092 20.7668 9.44348 19.9443 10.3803C19.14 11.2956 18.7214 12.5258 18.8006 13.7417C20.0408 13.7545 21.2601 13.178 22.0373 12.2113Z" fill="white"/>
<path d="M36.6228 12.1003H37.4653C38.3286 12.1003 38.8433 12.5071 38.8433 13.1919C38.8433 13.8518 38.2954 14.3042 37.4944 14.3042C36.6726 14.3042 36.0999 13.8975 36.0334 13.2666H35.3113C35.3652 14.2876 36.241 14.9683 37.5027 14.9683C38.6855 14.9683 39.6111 14.2004 39.6111 13.2126C39.6111 12.3992 39.1213 11.8264 38.3245 11.7227V11.6895C38.9844 11.5276 39.4368 10.9631 39.4368 10.2991C39.4368 9.36523 38.6357 8.69702 37.5151 8.69702C36.324 8.69702 35.5479 9.33618 35.4731 10.3738H36.1995C36.2617 9.74292 36.7432 9.36108 37.4861 9.36108C38.2207 9.36108 38.6772 9.74707 38.6772 10.3655C38.6772 10.9922 38.1626 11.4363 37.4321 11.4363H36.6228V12.1003ZM41.9146 14.2419C41.3501 14.2419 40.989 13.9722 40.989 13.5571C40.989 13.1255 41.3376 12.8806 42.01 12.8391L43.1804 12.7644V13.1255C43.1804 13.7688 42.645 14.2419 41.9146 14.2419ZM41.761 14.8687C42.3877 14.8687 42.948 14.5491 43.2012 14.051H43.2178V14.8271H43.9026V11.7559C43.9026 10.876 43.2219 10.3115 42.1636 10.3115C41.2256 10.3115 40.491 10.8884 40.4702 11.6438H41.1633C41.2505 11.2205 41.6365 10.9548 42.1553 10.9548C42.8152 10.9548 43.1804 11.262 43.1804 11.8181V12.1917L41.927 12.2664C40.8396 12.3328 40.2502 12.7852 40.2502 13.553C40.2502 14.3457 40.8521 14.8687 41.761 14.8687ZM47.7832 10.9507V10.353H44.9194V14.8271H45.6333V10.9507H47.7832ZM50.7549 10.3115C50.1365 10.3115 49.5679 10.6145 49.3064 11.0793H49.2898V10.353H48.605V16.3213H49.3271V14.1008H49.3438C49.626 14.5906 50.1365 14.8687 50.7715 14.8687C51.9004 14.8687 52.6724 13.9556 52.6724 12.5901C52.6724 11.2246 51.8962 10.3115 50.7549 10.3115ZM50.6221 14.2253C49.8501 14.2253 49.323 13.5654 49.323 12.5901C49.323 11.6189 49.8501 10.9548 50.6221 10.9548C51.4106 10.9548 51.9336 11.6023 51.9336 12.5901C51.9336 13.582 51.4106 14.2253 50.6221 14.2253ZM53.9009 16.45C54.6936 16.45 55.0505 16.1387 55.4324 15.1011L57.1838 10.353H56.4243L55.1709 14.0925H55.1543L53.9009 10.353H53.1331L54.7891 14.8313L54.7019 15.0969C54.5193 15.6365 54.2952 15.8357 53.8801 15.8357C53.7847 15.8357 53.6685 15.8274 53.5854 15.8108V16.4209C53.6726 16.4375 53.8096 16.45 53.9009 16.45ZM59.3337 14.9019C60.3755 14.9019 61.0686 14.3374 61.0686 13.5073C61.0686 12.9885 60.7615 12.6108 60.168 12.4822V12.449C60.6204 12.3452 60.915 11.9385 60.915 11.4819C60.915 10.7681 60.363 10.2742 59.3545 10.2742C58.4165 10.2742 57.7732 10.739 57.6777 11.4736H58.3833C58.4414 11.1125 58.8191 10.8801 59.3545 10.8801C59.9397 10.8801 60.2095 11.1582 60.2095 11.5359C60.2095 11.9841 59.9106 12.2041 59.3337 12.2041H58.6572V12.8018H59.3337C60.0186 12.8018 60.3589 13.0342 60.3589 13.5447C60.3589 13.9888 59.9937 14.3 59.3337 14.3C58.7734 14.3 58.3999 14.0718 58.3127 13.6816H57.5781C57.657 14.4246 58.3625 14.9019 59.3337 14.9019ZM62.6499 14.8271L64.9534 11.4695H64.9866V14.8271H65.7004V10.353H64.9866L62.6831 13.7107H62.6499V10.353H61.936V14.8271H62.6499ZM70.021 10.353H66.4019V10.9507H67.8545V14.8271H68.5684V10.9507H70.021V10.353ZM72.4199 10.9465C73.1255 10.9465 73.6069 11.4529 73.6235 12.2124H71.1624C71.2122 11.457 71.7185 10.9465 72.4199 10.9465ZM73.6069 13.5488C73.4783 13.968 73.0425 14.2336 72.4822 14.2336C71.6853 14.2336 71.1624 13.6816 71.1624 12.8308V12.7893H74.3748V12.5071C74.3748 11.1541 73.6277 10.3115 72.4324 10.3115C71.2122 10.3115 70.4153 11.2205 70.4153 12.6067C70.4153 13.9929 71.208 14.8687 72.4656 14.8687C73.4202 14.8687 74.1963 14.3167 74.3208 13.5488H73.6069ZM79.0771 10.9507C79.5461 10.9507 79.8035 11.1707 79.8035 11.5732C79.8035 12.0049 79.5295 12.2124 78.9609 12.2124H77.9648V10.9507H79.0771ZM79.0232 12.8101C79.6831 12.8101 79.9985 13.0425 79.9985 13.5281C79.9985 13.9846 79.7039 14.2295 79.1602 14.2295H77.9648V12.8101H79.0232ZM77.251 14.8271H79.1768C80.123 14.8271 80.7083 14.3333 80.7083 13.5405C80.7083 12.9844 80.3389 12.5735 79.7786 12.4946V12.4614C80.1895 12.3743 80.509 11.9551 80.509 11.4985C80.509 10.7888 79.9985 10.353 79.1685 10.353H77.251V14.8271Z" fill="white"/>
<rect x="0.5" y="0.5" width="119" height="39" rx="6.5" stroke="#A6A6A6"/>
</svg>
