<svg width="120" height="40" viewBox="0 0 120 40" fill="none" xmlns="http://www.w3.org/2000/svg">
<g clip-path="url(#clip0)">
<path d="M110.135 0.00013H9.53468C9.16798 0.00013 8.80568 0.00013 8.43995 0.00213C8.1338 0.00413 7.83009 0.00994 7.521 0.01483C6.84951 0.0227318 6.17961 0.0818063 5.5171 0.19154C4.85552 0.303663 4.21467 0.515046 3.61622 0.81854C3.0185 1.1246 2.47235 1.5223 1.99757 1.9972C1.5203 2.47077 1.12246 3.01815 0.81935 3.61829C0.5154 4.21724 0.304641 4.85907 0.19435 5.52161C0.0830109 6.18332 0.0230984 6.85265 0.01515 7.52361C0.00587 7.83021 0.00489 8.13783 0 8.44447V31.5587C0.00489 31.8692 0.00587 32.17 0.01515 32.4806C0.0231008 33.1516 0.0830134 33.8209 0.19435 34.4825C0.304336 35.1455 0.515108 35.7877 0.81935 36.3868C1.12233 36.985 1.52022 37.5302 1.99757 38.0011C2.47054 38.4781 3.01705 38.8761 3.61622 39.1798C4.21467 39.4841 4.85545 39.6968 5.5171 39.8106C6.17972 39.9195 6.84956 39.9786 7.521 39.9874C7.83009 39.9942 8.1338 39.9981 8.43995 39.9981C8.80567 40.0001 9.168 40.0001 9.53468 40.0001H110.135C110.494 40.0001 110.859 40.0001 111.219 39.9981C111.523 39.9981 111.836 39.9942 112.141 39.9874C112.811 39.9791 113.479 39.92 114.141 39.8106C114.804 39.696 115.448 39.4834 116.049 39.1798C116.647 38.8759 117.193 38.478 117.666 38.0011C118.142 37.5284 118.541 36.9836 118.848 36.3868C119.15 35.7872 119.358 35.1451 119.467 34.4825C119.578 33.8208 119.64 33.1516 119.652 32.4806C119.656 32.17 119.656 31.8692 119.656 31.5587C119.664 31.1954 119.664 30.8341 119.664 30.4649V9.53626C119.664 9.17005 119.664 8.80677 119.656 8.44447C119.656 8.13783 119.656 7.83021 119.652 7.52357C119.64 6.85255 119.578 6.18337 119.467 5.52157C119.358 4.85941 119.149 4.21763 118.848 3.61825C118.23 2.41533 117.252 1.43616 116.049 0.81845C115.448 0.515697 114.804 0.30437 114.141 0.19145C113.48 0.0812328 112.811 0.0221378 112.141 0.01469C111.836 0.00981 111.523 0.00395 111.219 0.002C110.859 0 110.494 0 110.135 0V0.00013Z" fill="black"/>
<path d="M8.44487 39.125C8.14019 39.125 7.84287 39.1211 7.54058 39.1143C6.91436 39.1061 6.2896 39.0516 5.67144 38.9512C5.09503 38.8519 4.53664 38.6673 4.0147 38.4033C3.49754 38.1415 3.02585 37.7983 2.6177 37.3867C2.20364 36.98 1.85891 36.5082 1.59719 35.9902C1.33258 35.4688 1.14945 34.9099 1.05419 34.333C0.951311 33.7131 0.895651 33.0863 0.887687 32.458C0.881347 32.2471 0.873047 31.5449 0.873047 31.5449V8.44434C0.873047 8.44434 0.881887 7.75293 0.887737 7.5498C0.895363 6.92248 0.950699 6.29665 1.05327 5.67773C1.14871 5.09925 1.33197 4.53875 1.59673 4.01563C1.85749 3.49794 2.2003 3.02586 2.61187 2.61768C3.02297 2.20562 3.49617 1.8606 4.01421 1.59521C4.53495 1.33209 5.09228 1.14873 5.66753 1.05127C6.28772 0.949836 6.91465 0.894996 7.54304 0.88721L8.44536 0.875H111.214L112.127 0.8877C112.75 0.895099 113.371 0.94945 113.985 1.05029C114.566 1.14898 115.13 1.33362 115.656 1.59814C116.694 2.13299 117.539 2.97916 118.071 4.01807C118.332 4.53758 118.512 5.09351 118.607 5.66699C118.71 6.29099 118.768 6.92174 118.78 7.5542C118.783 7.8374 118.783 8.1416 118.783 8.44434C118.791 8.81934 118.791 9.17627 118.791 9.53613V30.4648C118.791 30.8281 118.791 31.1826 118.783 31.54C118.783 31.8652 118.783 32.1631 118.779 32.4697C118.768 33.0909 118.711 33.7104 118.608 34.3232C118.515 34.9043 118.333 35.4675 118.068 35.9932C117.805 36.5056 117.462 36.9733 117.053 37.3789C116.644 37.7927 116.172 38.1379 115.653 38.4014C115.128 38.6674 114.566 38.8527 113.985 38.9512C113.367 39.0522 112.742 39.1067 112.116 39.1143C111.823 39.1211 111.517 39.125 111.219 39.125L110.135 39.127L8.44487 39.125Z" fill="white"/>
<path d="M24.9967 19.8907C25.0078 19.0227 25.2384 18.1717 25.6669 17.4168C26.0953 16.6618 26.7078 16.0276 27.4472 15.573C26.9775 14.9021 26.3578 14.3499 25.6373 13.9604C24.9168 13.5709 24.1155 13.3548 23.2969 13.3292C21.5506 13.1459 19.8577 14.3741 18.9679 14.3741C18.0608 14.3741 16.6907 13.3474 15.2154 13.3777C14.2611 13.4086 13.3311 13.6861 12.5159 14.1832C11.7008 14.6803 11.0283 15.3801 10.564 16.2144C8.55291 19.6964 10.053 24.8138 11.9795 27.6284C12.9434 29.0067 14.0699 30.5462 15.5439 30.4916C16.9863 30.4318 17.525 29.5718 19.2661 29.5718C20.991 29.5718 21.4965 30.4916 23.0004 30.4569C24.5481 30.4318 25.5233 29.0725 26.4534 27.6813C27.1459 26.6992 27.6788 25.6139 28.0324 24.4654C27.1332 24.085 26.3658 23.4484 25.826 22.6349C25.2861 21.8214 24.9977 20.867 24.9967 19.8907Z" fill="black"/>
<path d="M22.1561 11.4775C23 10.4645 23.4158 9.16233 23.3151 7.84766C22.0258 7.98307 20.8349 8.59927 19.9795 9.57348C19.5614 10.0494 19.2411 10.6031 19.037 11.2029C18.8329 11.8026 18.7491 12.4368 18.7902 13.069C19.4351 13.0756 20.0731 12.9358 20.6561 12.6602C21.2391 12.3845 21.752 11.9802 22.1561 11.4775Z" fill="black"/>
<path d="M42.3018 27.1397H37.5684L36.4316 30.4961H34.4268L38.9102 18.0781H40.9932L45.4766 30.4961H43.4375L42.3018 27.1397ZM38.0586 25.5908H41.8106L39.961 20.1436H39.9092L38.0586 25.5908Z" fill="black"/>
<path d="M55.1592 25.9695C55.1592 28.7829 53.6533 30.5905 51.3809 30.5905C50.8052 30.6207 50.2327 30.4881 49.7289 30.2079C49.2251 29.9278 48.8104 29.5114 48.5323 29.0065H48.4893V33.4909H46.6309V21.4421H48.4297V22.948H48.4639C48.7548 22.4455 49.1766 22.0313 49.6842 21.7495C50.1918 21.4676 50.7664 21.3287 51.3467 21.3474C53.6446 21.3474 55.1592 23.1638 55.1592 25.9695ZM53.249 25.9695C53.249 24.1365 52.3018 22.9314 50.8565 22.9314C49.4365 22.9314 48.4815 24.1618 48.4815 25.9695C48.4815 27.7937 49.4365 29.0154 50.8565 29.0154C52.3018 29.0154 53.249 27.8191 53.249 25.9695H53.249Z" fill="black"/>
<path d="M65.1245 25.9695C65.1245 28.7829 63.6182 30.5905 61.3457 30.5905C60.7701 30.6207 60.1976 30.4881 59.6938 30.2079C59.19 29.9278 58.7753 29.5114 58.4971 29.0065H58.4541V33.4909H56.5957V21.4421H58.3945V22.948H58.4287C58.7197 22.4455 59.1414 22.0313 59.649 21.7495C60.1567 21.4676 60.7312 21.3287 61.3115 21.3474C63.6094 21.3474 65.1245 23.1638 65.1245 25.9695ZM63.2139 25.9695C63.2139 24.1365 62.2666 22.9314 60.8213 22.9314C59.4014 22.9314 58.4463 24.1618 58.4463 25.9695C58.4463 27.7937 59.4014 29.0154 60.8213 29.0154C62.2666 29.0154 63.2139 27.8191 63.2139 25.9695Z" fill="black"/>
<path d="M71.7095 27.0362C71.8472 28.2676 73.0435 29.0762 74.6783 29.0762C76.2447 29.0762 77.3716 28.2676 77.3716 27.1572C77.3716 26.1934 76.6919 25.6162 75.0826 25.2207L73.4732 24.833C71.1929 24.2822 70.1343 23.2158 70.1343 21.4854C70.1343 19.3428 72.0015 17.8711 74.6519 17.8711C77.2769 17.8711 79.0757 19.3428 79.1363 21.4854H77.2603C77.148 20.2461 76.1236 19.4981 74.6265 19.4981C73.1294 19.4981 72.105 20.2549 72.105 21.3565C72.105 22.2344 72.7593 22.751 74.3599 23.1465L75.7281 23.4824C78.2759 24.0849 79.3335 25.1084 79.3335 26.9248C79.3335 29.248 77.4839 30.7031 74.5405 30.7031C71.7866 30.7031 69.9272 29.2822 69.8071 27.0361L71.7095 27.0362Z" fill="black"/>
<path d="M83.3462 19.3008V21.4434H85.0679V22.915H83.3462V27.9062C83.3462 28.6816 83.6909 29.043 84.4477 29.043C84.6521 29.0394 84.8562 29.0251 85.0591 29V30.4629C84.7188 30.5264 84.3729 30.5552 84.0268 30.5488C82.1938 30.5488 81.479 29.8603 81.479 28.1045V22.915H80.1626V21.4434H81.479V19.3008H83.3462Z" fill="black"/>
<path d="M86.064 25.9707C86.064 23.1221 87.7417 21.332 90.3579 21.332C92.9829 21.332 94.6528 23.122 94.6528 25.9707C94.6528 28.8272 92.9917 30.6094 90.3579 30.6094C87.7251 30.6094 86.064 28.8271 86.064 25.9707ZM92.7593 25.9707C92.7593 24.0166 91.8638 22.8633 90.3579 22.8633C88.852 22.8633 87.9565 24.0254 87.9565 25.9707C87.9565 27.9326 88.852 29.0772 90.3579 29.0772C91.8638 29.0772 92.7593 27.9326 92.7593 25.9707H92.7593Z" fill="black"/>
<path d="M96.1851 21.442H97.9575V22.983H98.0005C98.1205 22.5017 98.4024 22.0764 98.799 21.7785C99.1956 21.4806 99.6826 21.3284 100.178 21.3473C100.392 21.3465 100.606 21.3698 100.815 21.4166V23.1549C100.545 23.0723 100.263 23.0343 99.98 23.0426C99.71 23.0316 99.4409 23.0792 99.191 23.1821C98.9412 23.285 98.7166 23.4408 98.5326 23.6386C98.3486 23.8365 98.2096 24.0719 98.1252 24.3286C98.0408 24.5852 98.0129 24.8571 98.0435 25.1256V30.4957H96.1851L96.1851 21.442Z" fill="black"/>
<path d="M109.383 27.8379C109.133 29.4814 107.533 30.6094 105.485 30.6094C102.851 30.6094 101.216 28.8447 101.216 26.0137C101.216 23.1738 102.86 21.332 105.407 21.332C107.912 21.332 109.487 23.0527 109.487 25.7978V26.4346H103.092V26.5469C103.063 26.8801 103.104 27.2157 103.215 27.5316C103.325 27.8474 103.501 28.1362 103.731 28.3787C103.962 28.6213 104.241 28.8121 104.551 28.9384C104.86 29.0647 105.194 29.1236 105.528 29.1113C105.967 29.1525 106.408 29.0508 106.784 28.8213C107.161 28.5919 107.454 28.247 107.619 27.8379L109.383 27.8379ZM103.101 25.1357H107.627C107.644 24.8361 107.599 24.5363 107.494 24.2551C107.389 23.9739 107.228 23.7174 107.019 23.5016C106.811 23.2858 106.56 23.1155 106.282 23.0013C106.005 22.8871 105.707 22.8314 105.407 22.8379C105.104 22.8361 104.804 22.8942 104.524 23.009C104.244 23.1237 103.989 23.2928 103.775 23.5064C103.561 23.72 103.391 23.974 103.275 24.2537C103.159 24.5333 103.1 24.8331 103.101 25.1357V25.1357Z" fill="black"/>
<path d="M36.7383 11.2534H37.5361C37.6735 11.2705 37.8129 11.259 37.9455 11.2195C38.0782 11.1801 38.2013 11.1136 38.307 11.0242C38.4127 10.9349 38.4987 10.8246 38.5596 10.7003C38.6206 10.576 38.6552 10.4405 38.6611 10.3022C38.6611 9.75193 38.2471 9.39646 37.5449 9.39646C37.4042 9.3768 37.261 9.38553 37.1237 9.42214C36.9864 9.45875 36.8579 9.52249 36.7456 9.60961C36.6334 9.69672 36.5397 9.80544 36.4702 9.92935C36.4007 10.0533 36.3567 10.1898 36.3408 10.331H35.4648C35.4799 10.0747 35.5476 9.82428 35.6636 9.59527C35.7797 9.36626 35.9417 9.16359 36.1394 8.99989C36.3372 8.83618 36.5666 8.71494 36.8133 8.64372C37.0599 8.5725 37.3186 8.55282 37.5732 8.58591C38.748 8.58591 39.5752 9.24362 39.5752 10.1904C39.578 10.5076 39.4719 10.8161 39.2746 11.0645C39.0773 11.3129 38.8008 11.486 38.4912 11.5551V11.6255C38.8582 11.6417 39.2038 11.8027 39.4525 12.073C39.7012 12.3434 39.8328 12.7013 39.8184 13.0683C39.7912 13.3322 39.7116 13.588 39.5843 13.8208C39.457 14.0535 39.2845 14.2585 39.077 14.4237C38.8694 14.5889 38.631 14.7111 38.3756 14.7829C38.1202 14.8548 37.8531 14.875 37.5898 14.8423C37.326 14.8782 37.0577 14.8607 36.8008 14.7907C36.5439 14.7208 36.3037 14.5998 36.0946 14.4351C35.8854 14.2703 35.7116 14.0651 35.5834 13.8317C35.4553 13.5983 35.3754 13.3415 35.3486 13.0766H36.2383C36.292 13.6474 36.8164 14.0156 37.5898 14.0156C38.3633 14.0156 38.8682 13.6021 38.8682 13.0191C38.8682 12.4277 38.3926 12.0635 37.5615 12.0635H36.7383V11.2534Z" fill="black"/>
<path d="M40.8291 13.4238C40.8291 12.6133 41.4336 12.146 42.5039 12.0796L43.7236 12.0093V11.6206C43.7236 11.145 43.4102 10.8765 42.8018 10.8765C42.3057 10.8765 41.9629 11.0586 41.8633 11.377H41.0029C41.0937 10.6035 41.8223 10.1074 42.8438 10.1074C43.9727 10.1074 44.6094 10.6694 44.6094 11.6206V14.6973H43.7529V14.0645H43.6826C43.5399 14.2914 43.3395 14.4765 43.1019 14.6007C42.8643 14.7249 42.5979 14.7838 42.3301 14.7715C42.141 14.7911 41.95 14.7709 41.7692 14.7122C41.5885 14.6536 41.422 14.5576 41.2806 14.4307C41.1392 14.3037 41.0259 14.1485 40.9482 13.9751C40.8704 13.8017 40.8298 13.6139 40.8291 13.4238ZM43.7236 13.0391V12.6626L42.624 12.7329C42.0039 12.7744 41.7226 12.9853 41.7226 13.3823C41.7226 13.7876 42.0742 14.0234 42.5576 14.0234C42.6993 14.0378 42.8423 14.0235 42.9784 13.9814C43.1144 13.9393 43.2405 13.8703 43.3493 13.7784C43.4581 13.6866 43.5473 13.5738 43.6116 13.4468C43.6759 13.3198 43.714 13.1811 43.7236 13.0391Z" fill="black"/>
<path d="M46.9678 10.9434V14.6982H46.0791V10.1953H49.044V10.9433L46.9678 10.9434Z" fill="black"/>
<path d="M54.4297 12.4438C54.4297 13.8745 53.7061 14.7714 52.5693 14.7714C52.2903 14.7905 52.0116 14.7294 51.7661 14.5954C51.5206 14.4614 51.3185 14.2601 51.1836 14.0151H51.1133V16.1943H50.2246V10.1943H51.0801V10.9385H51.1465C51.2838 10.6849 51.4886 10.4742 51.7381 10.3297C51.9877 10.1852 52.2723 10.1125 52.5606 10.1196C53.7061 10.1196 54.4297 11.0126 54.4297 12.4438ZM53.5156 12.4438C53.5156 11.4926 53.0654 10.9179 52.3125 10.9179C51.5645 10.9179 51.0967 11.5048 51.0967 12.4477C51.0967 13.3862 51.5645 13.9736 52.3086 13.9736C53.0654 13.9736 53.5156 13.3989 53.5156 12.4438Z" fill="black"/>
<path d="M55.6133 16.311V15.5459C55.7095 15.5581 55.8064 15.5637 55.9033 15.5625C56.0927 15.5765 56.2805 15.5201 56.4308 15.4042C56.5811 15.2882 56.6833 15.1208 56.7178 14.9341L56.7842 14.7148L55.1543 10.1953H56.1221L57.251 13.772H57.3213L58.4463 10.1953H59.3887L57.71 14.8843C57.3252 15.98 56.8995 16.3316 55.9815 16.3316C55.9073 16.3315 55.6963 16.3232 55.6133 16.311Z" fill="black"/>
<path d="M60.0811 13.4205H60.9658C61.0527 13.8175 61.4248 14.0245 61.9453 14.0245C62.5371 14.0245 62.9004 13.7638 62.9004 13.3585C62.9004 12.9244 62.5742 12.7174 61.9453 12.7174H61.2715V12.027H61.9336C62.4707 12.027 62.7441 11.8204 62.7441 11.444C62.7441 11.1134 62.4795 10.861 61.9336 10.861C61.4365 10.861 61.0732 11.0719 61.0156 11.4274H60.1592C60.2232 11.0189 60.445 10.6519 60.7768 10.4053C61.1086 10.1586 61.524 10.0521 61.9336 10.1085C63.0039 10.1085 63.6162 10.5924 63.6162 11.3532C63.6212 11.565 63.5533 11.7721 63.4239 11.9399C63.2945 12.1077 63.1114 12.226 62.9053 12.275V12.3454C63.1507 12.377 63.376 12.4977 63.5384 12.6844C63.7007 12.8712 63.7889 13.1111 63.7861 13.3585C63.7861 14.2145 63.0576 14.7809 61.9453 14.7809C60.9619 14.7809 60.1631 14.3302 60.0811 13.4205Z" fill="black"/>
<path d="M65.0659 14.6982V10.1953H65.9468V13.2925H66.0171L68.0923 10.1953H68.9731V14.6983H68.0923V11.5845H68.0259L65.9468 14.6983L65.0659 14.6982Z" fill="black"/>
<path d="M73.8256 10.9433H72.4076V14.6982H71.518V10.9433H70.1V10.1953H73.8256V10.9433Z" fill="black"/>
<path d="M78.6128 13.4815C78.4917 13.893 78.2299 14.2489 77.8731 14.4871C77.5163 14.7252 77.0872 14.8304 76.6607 14.7843C76.364 14.7921 76.0692 14.7353 75.7967 14.6177C75.5242 14.5002 75.2805 14.3248 75.0826 14.1036C74.8847 13.8825 74.7373 13.621 74.6506 13.3371C74.5639 13.0533 74.54 12.754 74.5806 12.46C74.5411 12.1652 74.5654 11.8652 74.6519 11.5805C74.7384 11.2959 74.885 11.0331 75.0819 10.81C75.2788 10.587 75.5213 10.4088 75.793 10.2876C76.0647 10.1664 76.3593 10.105 76.6568 10.1075C77.9097 10.1075 78.6665 10.9635 78.6665 12.3775V12.6876H75.4869V12.7374C75.4728 12.9027 75.4934 13.0691 75.5475 13.2259C75.6016 13.3827 75.6878 13.5265 75.8008 13.648C75.9137 13.7695 76.0508 13.866 76.2033 13.9313C76.3558 13.9967 76.5202 14.0294 76.6861 14.0274C76.8985 14.0528 77.1137 14.0145 77.3043 13.9173C77.4949 13.8201 77.6522 13.6684 77.7564 13.4815L78.6128 13.4815ZM75.4868 12.0304H77.7603C77.7715 11.8793 77.751 11.7276 77.7001 11.5849C77.6492 11.4422 77.5691 11.3118 77.4648 11.202C77.3605 11.0921 77.2344 11.0053 77.0946 10.9471C76.9547 10.8888 76.8043 10.8605 76.6529 10.8639C76.4991 10.8618 76.3465 10.8905 76.2041 10.9484C76.0616 11.0063 75.9322 11.0921 75.8235 11.2009C75.7148 11.3096 75.629 11.4391 75.5712 11.5815C75.5134 11.724 75.4847 11.8766 75.4869 12.0304H75.4868Z" fill="black"/>
<path d="M82.3804 10.1953H84.4106C85.2915 10.1953 85.8081 10.6416 85.8081 11.3403C85.8095 11.562 85.7347 11.7775 85.5962 11.9506C85.4577 12.1238 85.264 12.2441 85.0474 12.2915V12.3618C85.3103 12.3784 85.5569 12.4954 85.7361 12.6886C85.9153 12.8818 86.0134 13.1364 86.0103 13.3999C86.0103 14.1855 85.4194 14.6982 84.4312 14.6982H82.3804V10.1953ZM83.2612 10.8774V12.0434H84.1421C84.6792 12.0434 84.936 11.8369 84.936 11.456C84.936 11.105 84.7124 10.8774 84.2407 10.8774L83.2612 10.8774ZM83.2612 12.6968V14.0161H84.315C84.8404 14.0161 85.1216 13.7842 85.1216 13.3584C85.1216 12.9077 84.8033 12.6968 84.2036 12.6968L83.2612 12.6968Z" fill="black"/>
</g>
<defs>
<clipPath id="clip0">
<rect width="119.664" height="40" fill="white"/>
</clipPath>
</defs>
</svg>
