<svg width="209" height="188" viewBox="0 0 209 188" fill="none" xmlns="http://www.w3.org/2000/svg">
<ellipse cx="60.5" cy="116" rx="60.5" ry="38" fill="#EDF1FC"/>
<path d="M194.743 154H17.2566C17.1149 154 17 154.45 17 155.006V155.994C17 156.55 17.1149 157 17.2566 157H194.743C194.885 157 195 156.55 195 155.994V155.006C195 154.45 194.885 154 194.743 154Z" fill="#90B1FC"/>
<path d="M168.754 134.977C168.153 141.836 164.28 143.955 162.577 143.784C160.874 143.613 150.912 139.801 150.696 141.195C150.479 142.589 156.483 147.15 160.672 147.364C160.672 147.364 152.744 156.108 147.478 153.584C142.211 151.061 141.758 147.06 138.472 145.56C135.186 144.061 132.386 144.066 133.742 145.595C135.098 147.125 141.039 148.615 142.918 151.934C143.364 152.719 143.796 153.443 144.126 154.08L133.032 154.057C129.51 152.311 126.551 149.898 126.329 147.301C126.314 147.103 126.297 146.911 126.284 146.73L125.942 142.732C125.942 142.732 120.245 136.087 123.207 130.574C123.772 129.553 124.543 128.661 125.471 127.955C125.471 127.955 130.78 124.739 135.111 125.003C135.111 125.003 131.754 130.627 130.811 133.971C130.476 135.151 130.443 136.044 130.959 136.311C131.525 136.603 132.257 135.755 133.015 134.393C134.912 130.987 136.968 124.357 136.968 124.357C136.968 124.357 140.161 124.047 143.794 123.999C145.424 123.979 147.143 123.999 148.7 124.148C150.421 124.299 151.946 124.578 152.938 125.054L152.356 125.537C151.815 125.989 150.947 126.727 149.981 127.58C147.115 130.113 143.394 133.689 144.785 134.008C145.91 134.26 149.448 132.169 152.585 130.083C155.514 128.143 158.106 126.216 158.106 126.216C158.106 126.216 169.353 128.118 168.754 134.977Z" fill="#BCCBF7"/>
<path d="M163.229 135.164C163.229 135.164 132.685 133.986 125.942 142.712C125.942 142.712 124.45 147.181 119.86 151.249L119.143 153.199C119.143 153.199 124.427 147.619 126.329 147.281C126.329 147.289 123.38 136.467 163.229 135.164Z" fill="#8DAAEC"/>
<path d="M121.435 151.214C121.184 151.501 120.781 151.891 120.22 152.409C120.021 152.593 119.831 152.787 119.652 152.99C119.361 153.315 119.09 153.656 118.839 154.012H117.41C118.218 152.987 119.142 152.058 120.162 151.244C120.265 151.186 122.897 149.596 121.435 151.214Z" fill="#8DAAEC"/>
<path d="M92.6003 131.352C92.6003 131.352 104.929 124.453 99.1725 115.088C99.1725 115.088 94.5704 109.336 89.6413 107.859C89.6413 107.859 92.2706 121.824 89.6413 122.153C87.0119 122.483 87.8346 106.38 87.8346 106.38C87.8346 106.38 74.8538 100.134 69.7611 100.638C69.7611 100.638 77.8128 114.273 75.1834 113.946C72.554 113.619 63.5185 99.8149 63.5185 99.8149C63.5185 99.8149 50.2105 97.3516 48.0743 105.237C45.9381 113.123 49.3878 117.063 51.3604 117.566C53.3331 118.07 65.9818 117.896 65.6547 119.539C65.3276 121.182 56.7828 123.817 52.0172 122.332C52.0172 122.332 57.2759 135.31 64.1752 134.661C71.0745 134.012 73.2132 129.732 77.4832 129.405C81.7531 129.078 84.8782 130.225 82.7419 131.375C80.6057 132.525 73.3768 131.752 69.9272 134.686C66.4775 137.62 63.682 139.427 70.0907 140.74C76.4993 142.054 87.9982 141.243 90.298 136.304L92.6003 131.352Z" fill="#D7E0F5"/>
<path d="M54.4453 107.684C54.4453 107.684 88.9494 118.858 92.8922 131.336C92.8922 131.336 92.7261 136.922 96.1783 143.33V145.796C96.1783 145.796 92.5626 137.415 90.5899 136.265C90.5899 136.283 98.312 125.441 54.4453 107.684Z" fill="#8DAAEC"/>
<ellipse cx="82" cy="70" rx="51" ry="33" fill="#EDF1FC"/>
<ellipse cx="152" cy="46.5" rx="29" ry="24.5" fill="#EDF1FC"/>
<path fill-rule="evenodd" clip-rule="evenodd" d="M157.287 56.9988C172.358 56.9988 184.574 44.7819 184.574 29.7115C184.574 14.6412 172.358 2.42432 157.287 2.42432C142.217 2.42432 130 14.6412 130 29.7115C130 44.7819 142.217 56.9988 157.287 56.9988Z" fill="#4D43D8"/>
<path fill-rule="evenodd" clip-rule="evenodd" d="M159.713 54.5745C174.783 54.5745 187 42.3576 187 27.2872C187 12.2169 174.783 0 159.713 0C144.642 0 132.425 12.2169 132.425 27.2872C132.425 42.3576 144.642 54.5745 159.713 54.5745Z" fill="#144BCA"/>
<path d="M148.798 32.0255L156.524 40.0221L169.415 26.6816" stroke="#4576E6" stroke-width="3.82979" stroke-linecap="round" stroke-linejoin="round"/>
<path d="M150.011 28.3864L157.737 36.3829L170.628 23.0425" stroke="white" stroke-width="3.82979" stroke-linecap="round" stroke-linejoin="round"/>
<path d="M99.3737 153.982H97.401C97.3406 151.129 97.011 147.928 96.0373 145.49C95.914 145.183 95.7856 144.891 95.6397 144.612C95.2296 143.812 94.9528 143.221 94.7792 142.793C93.7727 140.319 96.1832 143.356 96.1832 143.356C98.0923 146.587 99.1872 150.234 99.3737 153.982Z" fill="#BCCBF7"/>
<path d="M112.204 121.837C112.204 121.837 95.9544 112.741 103.541 100.387C103.541 100.387 109.605 92.8057 116.101 90.8557C116.101 90.8557 112.636 109.266 116.101 109.699C119.566 110.132 118.484 88.9082 118.484 88.9082C118.484 88.9082 135.594 80.6778 142.307 81.327C142.307 81.327 131.696 99.3024 135.161 98.8696C138.626 98.4369 150.537 80.2501 150.537 80.2501C150.537 80.2501 168.08 77.0017 170.896 87.396C173.711 97.7902 169.164 102.996 166.565 103.64C163.966 104.284 147.289 104.073 147.722 106.239C148.155 108.406 159.417 111.871 165.697 109.921C165.697 109.921 158.768 127.03 149.672 126.162C140.576 125.294 137.76 119.666 132.129 119.233C126.498 118.8 122.382 120.315 125.197 121.832C128.013 123.349 137.544 122.335 142.091 126.195C146.637 130.055 150.321 132.445 141.874 134.176C133.428 135.907 118.268 134.826 115.236 128.329L112.204 121.837Z" fill="#D7E0F5"/>
<path d="M162.884 90.6504C162.884 90.6504 117.404 105.377 112.206 121.851C112.206 121.851 112.422 129.216 107.873 137.66V140.898C107.873 140.898 112.639 129.852 115.238 128.335C115.235 128.335 105.055 114.041 162.884 90.6504Z" fill="#BCCBF7"/>
<circle cx="89" cy="184" r="4" fill="#D7E0F5"/>
<circle cx="109" cy="184" r="4" fill="#D7E0F5"/>
<circle cx="129" cy="184" r="4" fill="#D7E0F5"/>
<path d="M110.012 136.899C109.783 137.463 109.418 138.246 108.877 139.302C108.691 139.67 108.518 140.055 108.359 140.457C106.802 144.357 106.495 149.744 106.552 153.987H103.943C103.631 144.533 108.173 137.632 108.173 137.632C108.233 137.561 111.326 133.684 110.012 136.899Z" fill="#8DAAEC"/>
<path d="M56.8356 55.1129C56.8356 55.1129 46.2199 60.5402 53.9546 72.1976C53.9546 72.1976 44.836 73.2519 42.5413 70.63C42.7196 71.2284 42.9733 71.8016 43.2961 72.336C43.2961 72.336 34.4594 71.1786 31.2941 67.8296C28.1287 64.4806 37.9996 19.9395 61.5332 29.0556C61.5332 29.0556 82.4551 30.9628 76.517 54.5468C70.5788 78.1307 78.3814 79.4391 78.3814 79.4391C78.3814 79.4391 76.0313 80.1436 74.9846 79.9675C74.9846 79.9675 73.5504 79.1271 73.3919 78.2313C73.3919 78.2313 73.4699 79.6102 73.792 80.1009C73.792 80.1009 65.237 79.4844 61.5659 75.5995C57.8949 71.7145 54.8076 59.8433 56.8356 55.1129Z" fill="#144BCA"/>
<path d="M71.9853 66.7649L71.1374 66.8832C69.3135 67.1307 67.4657 66.6465 65.9977 65.5363C64.5296 64.4261 63.5605 62.78 63.3021 60.9576L62.6856 56.5141C62.438 54.6902 62.9222 52.8425 64.0325 51.3744C65.1427 49.9063 66.7888 48.9373 68.6111 48.6788L69.4616 48.5605C71.2858 48.3137 73.1335 48.7985 74.6015 49.9091C76.0694 51.0198 77.0384 52.666 77.2969 54.4886L77.9134 58.9296C78.1602 60.7538 77.6754 62.6015 76.5648 64.0695C75.4541 65.5374 73.8079 66.5064 71.9853 66.7649Z" fill="#FF718F"/>
<path d="M74.411 102.375C71.2431 104.82 69.2403 113.647 64.1325 115.104C44.9896 120.569 34.7136 97.8355 31.352 86.7393C33.3183 85.5156 35.5181 84.7153 37.811 84.3892C39.2024 84.1376 40.6693 83.9665 41.8871 83.8432C43.9781 82.0668 46.8716 75.0819 47.0478 64.4688L47.9712 64.6675L63.4506 68.0669C63.4506 68.0669 63.0002 72.9558 62.892 77.5603C62.809 81.1635 62.6932 82.024 62.97 82.4542C64.1753 82.6505 65.5944 85.7252 65.5944 85.7252C69.0574 90.9812 72.0097 96.5564 74.411 102.375Z" fill="#F2D0B2"/>
<path d="M63.453 68.058C63.453 68.058 62.9976 72.9419 62.8919 77.5515C54.1986 77.1262 49.7652 69.0947 47.9711 64.6587L63.453 68.058Z" fill="#F2D0B2"/>
<path d="M142.189 148.343C142.189 148.343 133.085 148.677 123.199 148.712C122.032 148.712 120.847 148.712 119.677 148.712C111.625 148.677 103.712 148.395 100.348 147.527C97.0591 146.682 84.4054 138.104 74.2803 127.718C73.4953 129.59 72.9015 131.019 72.8864 131.132C72.5762 133.465 72.1097 135.776 71.4899 138.046C69.9589 143.577 67.8637 148.936 65.2373 154.039H59.8175L17.4882 153.976C17.4882 153.976 25.4845 141.662 23.3357 110.112C23.2804 109.314 30.7055 83.8585 30.7055 83.8585C30.7055 83.8585 36.4751 82.852 43.1404 82.311C43.7694 82.8847 45.0652 99.6322 53.4038 100.601C54.76 100.757 63.4684 114.047 63.4684 114.047L66.1054 100.46L62.9878 82.4469C66.9885 83.6169 69.1826 84.0396 72.509 85.3682C74.7627 86.277 76.6318 87.9389 77.7979 90.0709C83.6254 100.717 102.534 135.057 104.469 135.865C106.276 136.62 113.087 137.976 120.293 139.292C129.935 141.053 140.287 142.724 140.287 142.724L142.189 148.343Z" fill="#E3E9F8"/>
<path d="M66.0323 72.7096C66.0323 72.7096 45.4476 72.307 45.903 59.4922C46.3584 46.6775 43.9983 37.9942 57.1603 37.7099C70.3223 37.4256 72.7026 42.405 73.5933 46.7177C74.484 51.0304 71.3992 72.4882 66.0323 72.7096Z" fill="#FFE7CE"/>
<path d="M123.199 148.711C122.032 148.711 120.847 148.711 119.677 148.711C111.625 148.676 103.712 148.394 100.348 147.526C97.059 146.681 84.4052 138.103 74.2802 127.716C74.2802 127.716 76.4139 119.541 77.3348 118.172C78.2557 116.804 81.8891 130.104 90.3761 135.516C98.8631 140.929 112.143 144.72 118.592 143.186C122.928 142.154 123.373 146.051 123.199 148.711Z" fill="#D7E0F5"/>
<path d="M61.994 65.5798C61.994 65.5798 62.1249 67.1121 65.5015 67.3562C65.5015 67.3562 68.3347 67.56 68.453 65.9094C68.448 65.9145 65.8689 64.3595 61.994 65.5798Z" fill="#F2D0B2"/>
<path d="M63.1035 70.7627C51.4084 67.069 48.54 55.9979 48.5098 55.8847L49.7553 55.5752L49.1338 55.7312L49.7553 55.5752C49.7829 55.6809 52.4979 66.0651 63.4885 69.5373L63.7099 69.6078L63.3375 70.8357L63.1035 70.7627Z" fill="black"/>
<path d="M64.4294 71.6294L63.3248 71.2797C63.0545 71.1935 62.8293 71.0038 62.6986 70.7519C62.568 70.5 62.5425 70.2066 62.6279 69.936C62.714 69.6657 62.9037 69.4405 63.1556 69.3099C63.4075 69.1792 63.7009 69.1537 63.9715 69.2391L65.0736 69.5863C65.344 69.6724 65.5693 69.8621 65.7004 70.1139C65.8314 70.3656 65.8576 70.659 65.7731 70.9299C65.6863 71.2 65.4966 71.4249 65.245 71.5558C64.9934 71.6868 64.7004 71.7132 64.4294 71.6294Z" fill="#FF718F"/>
<path d="M67.2023 36.0102C67.2023 36.0102 61.9184 51.6104 54.0252 54.27C46.132 56.9295 43.5001 53.7818 43.5001 53.7818C43.5001 53.7818 49.325 48.4325 49.9943 39.7744C49.9943 39.7744 62.7663 29.6267 67.2023 36.0102Z" fill="#144BCA"/>
<path d="M57.3591 40.6039C57.3591 40.6039 68.093 40.0026 71.2986 43.0597C73.6134 45.2613 73.5631 46.4137 73.7367 49.3501C73.7367 49.3501 78.4319 42.1111 73.6034 37.0436C68.4805 31.6716 57.3591 40.6039 57.3591 40.6039Z" fill="#144BCA"/>
<path d="M66.7444 37.6635C66.7444 37.6635 64.0571 52.5995 54.2315 58.0243C54.2315 58.0243 63.7476 48.2843 63.9162 38.5392C64.0848 28.7941 66.7444 37.6635 66.7444 37.6635Z" fill="#144BCA"/>
<path d="M31.2967 67.8295C34.462 71.1785 43.2963 72.3385 43.2963 72.3385C42.9739 71.8029 42.7203 71.2289 42.5414 70.63C47.0831 74.3111 58.2347 71.6364 58.2347 71.6364C49.3375 69.6738 52.2185 56.8364 55.2455 56.2879C57.0068 46.6057 60.5043 34.5533 62.1423 29.1386C61.7498 29.0757 61.5258 29.0555 61.5258 29.0555C37.9972 19.9395 28.1238 64.483 31.2967 67.8295Z" fill="#144BCA"/>
<path d="M50.6133 65.4518L49.7628 65.5701C47.9386 65.8169 46.0909 65.3321 44.6229 64.2214C43.155 63.1108 42.186 61.4646 41.9275 59.642L41.311 55.201C41.0635 53.3771 41.5477 51.5294 42.6579 50.0613C43.7681 48.5932 45.4142 47.6241 47.2366 47.3657L48.087 47.2474C49.9109 46.9999 51.7587 47.4841 53.2267 48.5943C54.6948 49.7045 55.6639 51.3506 55.9223 53.173L56.5388 57.6165C56.7864 59.4404 56.3022 61.2881 55.1919 62.7562C54.0817 64.2242 52.4356 65.1933 50.6133 65.4518Z" fill="#FF718F"/>
<path d="M45.0525 49.2451C44.5492 48.2965 46.3105 40.9418 48.9248 35.2326C50.1829 32.4648 53.3608 28.7812 55.6304 27.8301C56.4507 27.4854 57.5376 27.6263 58.4258 27.8301C59.07 27.976 60.8791 28.8189 60.8791 28.8189C53.4237 31.1439 46.9471 46.7641 47.4151 48.382C47.4034 48.3427 47.3873 48.3047 47.3673 48.2688L45.0525 49.2451Z" fill="#FF718F"/>
<path d="M48.9097 61.0315L48.487 61.0894C47.5785 61.2128 46.6581 60.9717 45.9269 60.4186C45.1957 59.8656 44.713 59.0457 44.5844 58.1379L44.2774 55.9237C44.154 55.0153 44.3952 54.0949 44.9482 53.3636C45.5012 52.6324 46.3212 52.1498 47.2289 52.0212L47.6516 51.9608C48.5607 51.8374 49.4818 52.0788 50.2135 52.6323C50.9452 53.1857 51.4281 54.0063 51.5567 54.9147L51.8637 57.1289C51.987 58.0378 51.7456 58.9585 51.192 59.6898C50.6385 60.4211 49.8179 60.9035 48.9097 61.0315Z" fill="#F2D0B2"/>
<path d="M98.8504 140.921C98.8504 140.921 107.677 140.418 108.535 140.876C109.929 141.631 114.669 144.68 115.414 145.569C116.159 146.457 118.104 150.015 118.104 150.015C118.104 150.015 117.264 150.249 116.881 149.907C116.499 149.564 113.61 146.505 113.61 146.505L116.569 150.999C116.569 150.999 115.545 150.953 115.14 150.495C114.735 150.037 111.97 147.224 111.97 147.224L111.026 147.041C111.569 147.476 112.066 147.967 112.508 148.505C112.839 148.959 113.128 149.443 113.371 149.949C112.996 149.891 112.627 149.802 112.267 149.683C112.002 149.557 109.524 147.385 109.524 147.385L110.837 149.179C110.837 149.179 109.952 149.137 109.662 148.928C109.373 148.719 107.441 146.953 107.096 146.958C106.751 146.963 104.29 146.859 103.231 146.298C102.172 145.737 98.8504 144.451 98.8504 144.451V140.921Z" fill="#F2D0B2"/>
<path d="M44.348 79.8384C44.348 79.8384 38.4451 81.5594 37.099 82.9156C37.099 82.9156 43.2686 98.6894 52.1657 106.064L54.546 104.376V108.213L63.4532 114.041C63.4532 114.041 43.8901 84.609 44.348 79.8384Z" fill="#D7E0F5"/>
<path d="M71.4797 138.037C69.9487 143.568 67.8535 148.927 65.227 154.03H68.2464H65.227H37.0989C37.0989 154.03 40.3699 154.03 40.3548 154.01C40.2768 153.723 45.1104 140.624 37.0989 135.255C29.0875 129.885 26.1612 116.653 26.1612 116.653L51.7002 110.413C51.7002 110.413 62.2228 125.761 65.2195 128.695C67.5193 130.942 72.8762 131.111 72.8762 131.111L71.4797 138.037Z" fill="#D7E0F5"/>
<path d="M62.9703 82.4426C62.9703 82.4426 65.6878 103.905 63.4534 114.03C63.4534 114.03 67.0993 107.332 67.6101 106.105L66.9962 102.423L69.3488 103.241C69.3488 103.241 67.273 86.1313 65.3959 83.1295C63.5189 80.1278 62.8269 79.8384 62.8269 79.8384L62.9703 82.4426Z" fill="#D7E0F5"/>
<path d="M142.189 148.341C142.189 148.341 130.8 148.764 119.669 148.711C116.901 144.434 120.288 139.296 120.288 139.296C129.93 141.057 140.281 142.728 140.281 142.728L142.189 148.341Z" fill="#F2D0B2"/>
<path d="M143.265 154.043H101.178C101.178 153.603 101.265 153.166 101.433 152.759C101.602 152.352 101.849 151.982 102.161 151.671C102.473 151.359 102.843 151.112 103.25 150.944C103.657 150.776 104.094 150.689 104.534 150.689H143.265V154.043Z" fill="#90B1FC"/>
<path d="M208.22 108.204L192.613 154.043H127.117L143.148 108.204H208.22Z" fill="#86AAFC"/>
<path d="M208.22 108.204L192.756 153.621L192.613 154.043H128.073L144.106 108.204H208.22Z" fill="#8DAAEC"/>
<path d="M174.096 130.701C173.691 132.462 171.945 133.871 170.194 133.871C168.442 133.871 167.348 132.452 167.753 130.701C168.158 128.949 169.904 127.528 171.658 127.528C173.412 127.528 174.501 128.947 174.096 130.701Z" fill="#D7E0F5"/>
<path d="M208.22 108.204L192.756 153.621H163.103L199.26 108.204H208.22Z" fill="#90B1FC"/>
<path d="M98.8606 144.487C98.8606 144.487 77.1939 146.379 65.2195 145.846V134.08C73.0649 136.246 98.8505 140.921 98.8505 140.921L98.8606 144.487Z" fill="#F2D0B2"/>
<path d="M37.099 82.9175C37.099 82.9175 24.7069 83.1993 20.8723 87.3409C17.0377 91.4825 24.6767 114.893 24.6767 114.893C24.6767 114.893 47.7751 143.179 59.3293 145.175C59.3293 145.175 64.3767 145.864 66.7343 145.902C66.7343 145.902 64.4245 139.174 68.7221 134.952C68.7221 134.952 63.7753 133.568 63.569 132.954C63.3627 132.34 37.099 82.9175 37.099 82.9175Z" fill="#E3E9F8"/>
</svg>
