<svg width="209" height="188" viewBox="0 0 209 188" fill="none" xmlns="http://www.w3.org/2000/svg">
<ellipse cx="60.5" cy="116" rx="60.5" ry="38" fill="#EDFCFA"/>
<path d="M194.743 154H17.2566C17.1149 154 17 154.45 17 155.006V155.994C17 156.55 17.1149 157 17.2566 157H194.743C194.885 157 195 156.55 195 155.994V155.006C195 154.45 194.885 154 194.743 154Z" fill="#28909B"/>
<path d="M168.754 134.977C168.153 141.836 164.28 143.954 162.577 143.783C160.874 143.612 150.912 139.8 150.696 141.194C150.479 142.588 156.483 147.15 160.672 147.364C160.672 147.364 152.744 156.107 147.478 153.584C142.211 151.06 141.758 147.059 138.472 145.56C135.186 144.06 132.386 144.065 133.742 145.595C135.098 147.125 141.039 148.614 142.918 151.933C143.364 152.718 143.796 153.443 144.126 154.079L133.032 154.057C129.51 152.311 126.551 149.898 126.329 147.301C126.314 147.102 126.297 146.911 126.284 146.73L125.942 142.732C125.942 142.732 120.245 136.086 123.207 130.573C123.772 129.553 124.543 128.661 125.471 127.954C125.471 127.954 130.78 124.738 135.111 125.003C135.111 125.003 131.754 130.626 130.811 133.97C130.476 135.15 130.443 136.044 130.959 136.31C131.525 136.602 132.257 135.754 133.015 134.393C134.912 130.986 136.968 124.356 136.968 124.356C136.968 124.356 140.161 124.047 143.794 123.999C145.424 123.979 147.143 123.999 148.7 124.147C150.421 124.298 151.946 124.577 152.938 125.053L152.356 125.536C151.815 125.989 150.947 126.726 149.981 127.579C147.115 130.113 143.394 133.688 144.785 134.008C145.91 134.26 149.448 132.169 152.585 130.083C155.514 128.143 158.106 126.215 158.106 126.215C158.106 126.215 169.353 128.118 168.754 134.977Z" fill="#ADDECC"/>
<path d="M163.229 135.163C163.229 135.163 132.685 133.985 125.942 142.711C125.942 142.711 124.45 147.18 119.86 151.248L119.143 153.198C119.143 153.198 124.427 147.618 126.329 147.28C126.329 147.288 123.38 136.466 163.229 135.163Z" fill="#ACEDD4"/>
<path d="M121.436 151.214C121.184 151.501 120.781 151.891 120.22 152.41C120.021 152.593 119.831 152.787 119.652 152.991C119.361 153.315 119.09 153.656 118.839 154.012H117.41C118.219 152.988 119.142 152.059 120.162 151.245C120.266 151.187 122.897 149.596 121.436 151.214Z" fill="#ACEDD4"/>
<path d="M92.6002 131.353C92.6002 131.353 104.929 124.454 99.1724 115.088C99.1724 115.088 94.5703 109.337 89.6412 107.86C89.6412 107.86 92.2706 121.824 89.6412 122.154C87.0118 122.483 87.8346 106.38 87.8346 106.38C87.8346 106.38 74.8537 100.135 69.761 100.638C69.761 100.638 77.8127 114.273 75.1833 113.946C72.554 113.619 63.5184 99.8154 63.5184 99.8154C63.5184 99.8154 50.2105 97.3521 48.0743 105.238C45.938 113.123 49.3877 117.064 51.3604 117.567C53.333 118.07 65.9818 117.896 65.6546 119.54C65.3275 121.183 56.7827 123.817 52.0171 122.332C52.0171 122.332 57.2758 135.311 64.1751 134.662C71.0745 134.012 73.2132 129.732 77.4831 129.405C81.753 129.078 84.8781 130.226 82.7419 131.376C80.6057 132.525 73.3768 131.753 69.9271 134.687C66.4775 137.621 63.682 139.427 70.0906 140.741C76.4993 142.054 87.9981 141.244 90.2979 136.305L92.6002 131.353Z" fill="#A6CCBE"/>
<path d="M54.4453 107.684C54.4453 107.684 88.9494 118.858 92.8922 131.335C92.8922 131.335 92.7261 136.921 96.1783 143.33V145.796C96.1783 145.796 92.5626 137.414 90.5899 136.265C90.5899 136.282 98.312 125.44 54.4453 107.684Z" fill="#ACEDD4"/>
<ellipse cx="82" cy="70" rx="51" ry="33" fill="#EDFCFA"/>
<ellipse cx="152" cy="46.5" rx="29" ry="24.5" fill="#EDFCFA"/>
<path fill-rule="evenodd" clip-rule="evenodd" d="M157.287 56.9983C172.358 56.9983 184.574 44.7814 184.574 29.7111C184.574 14.6407 172.358 2.42383 157.287 2.42383C142.217 2.42383 130 14.6407 130 29.7111C130 44.7814 142.217 56.9983 157.287 56.9983Z" fill="#114662"/>
<path fill-rule="evenodd" clip-rule="evenodd" d="M159.713 54.5745C174.783 54.5745 187 42.3576 187 27.2872C187 12.2169 174.783 0 159.713 0C144.642 0 132.425 12.2169 132.425 27.2872C132.425 42.3576 144.642 54.5745 159.713 54.5745Z" fill="#2AB6CA"/>
<path d="M148.798 32.0255L156.525 40.0221L169.415 26.6816" stroke="#114662" stroke-width="3.82979" stroke-linecap="round" stroke-linejoin="round"/>
<path d="M150.01 28.3869L157.737 36.3834L170.628 23.043" stroke="white" stroke-width="3.82979" stroke-linecap="round" stroke-linejoin="round"/>
<path d="M99.3737 153.982H97.401C97.3406 151.128 97.011 147.928 96.0373 145.49C95.914 145.183 95.7856 144.891 95.6397 144.611C95.2296 143.811 94.9528 143.22 94.7792 142.792C93.7727 140.319 96.1832 143.356 96.1832 143.356C98.0923 146.587 99.1872 150.233 99.3737 153.982Z" fill="#ADDECC"/>
<path d="M112.204 121.837C112.204 121.837 95.9545 112.741 103.541 100.387C103.541 100.387 109.605 92.8057 116.101 90.8557C116.101 90.8557 112.637 109.266 116.101 109.699C119.566 110.132 118.484 88.9082 118.484 88.9082C118.484 88.9082 135.594 80.6778 142.307 81.327C142.307 81.327 131.696 99.3024 135.161 98.8696C138.626 98.4369 150.537 80.2501 150.537 80.2501C150.537 80.2501 168.08 77.0017 170.896 87.396C173.711 97.7902 169.165 102.996 166.565 103.64C163.966 104.284 147.289 104.073 147.722 106.239C148.155 108.406 159.417 111.871 165.697 109.921C165.697 109.921 158.768 127.03 149.672 126.162C140.576 125.294 137.76 119.666 132.129 119.233C126.498 118.8 122.382 120.315 125.197 121.832C128.013 123.349 137.544 122.335 142.091 126.195C146.637 130.055 150.321 132.445 141.874 134.176C133.428 135.907 118.268 134.826 115.236 128.329L112.204 121.837Z" fill="#A6CCBE"/>
<path d="M162.884 90.6504C162.884 90.6504 117.404 105.377 112.206 121.851C112.206 121.851 112.423 129.216 107.873 137.66V140.898C107.873 140.898 112.639 129.852 115.238 128.335C115.236 128.335 105.055 114.041 162.884 90.6504Z" fill="#ADDECC"/>
<circle cx="89" cy="184" r="4" fill="#A6CCBE"/>
<circle cx="109" cy="184" r="4" fill="#A6CCBE"/>
<circle cx="129" cy="184" r="4" fill="#A6CCBE"/>
<path d="M110.012 136.899C109.783 137.463 109.418 138.245 108.877 139.302C108.691 139.669 108.518 140.054 108.359 140.457C106.801 144.357 106.494 149.744 106.552 153.986H103.943C103.631 144.533 108.173 137.631 108.173 137.631C108.233 137.561 111.326 133.683 110.012 136.899Z" fill="#ACEDD4"/>
<path d="M56.8356 55.1129C56.8356 55.1129 46.2199 60.5402 53.9546 72.1976C53.9546 72.1976 44.836 73.2519 42.5413 70.63C42.7196 71.2284 42.9733 71.8016 43.2961 72.336C43.2961 72.336 34.4594 71.1786 31.2941 67.8296C28.1287 64.4806 37.9996 19.9395 61.5332 29.0556C61.5332 29.0556 82.4551 30.9628 76.517 54.5468C70.5788 78.1307 78.3814 79.4391 78.3814 79.4391C78.3814 79.4391 76.0313 80.1436 74.9846 79.9675C74.9846 79.9675 73.5504 79.1271 73.3919 78.2313C73.3919 78.2313 73.4699 79.6102 73.792 80.1009C73.792 80.1009 65.237 79.4844 61.5659 75.5995C57.8949 71.7145 54.8076 59.8433 56.8356 55.1129Z" fill="#2AB6CA"/>
<path d="M71.9854 66.7654L71.1374 66.8837C69.3135 67.1312 67.4658 66.647 65.9977 65.5368C64.5297 64.4266 63.5606 62.7805 63.3021 60.9581L62.6857 56.5146C62.4381 54.6907 62.9223 52.843 64.0325 51.3749C65.1428 49.9068 66.7888 48.9377 68.6112 48.6793L69.4617 48.561C71.2858 48.3142 73.1336 48.799 74.6015 49.9096C76.0695 51.0203 77.0385 52.6665 77.297 54.4891L77.9134 58.9301C78.1603 60.7543 77.6755 62.602 76.5648 64.0699C75.4542 65.5379 73.8079 66.5069 71.9854 66.7654Z" fill="#FF9690"/>
<path d="M74.411 102.375C71.2432 104.82 69.2403 113.647 64.1325 115.104C44.9896 120.569 34.7136 97.8355 31.3521 86.7393C33.3184 85.5156 35.5181 84.7153 37.811 84.3892C39.2025 84.1376 40.6694 83.9665 41.8872 83.8432C43.9781 82.0668 46.8717 75.0819 47.0478 64.4688L47.9713 64.6675L63.4507 68.0669C63.4507 68.0669 63.0003 72.9558 62.8921 77.5603C62.809 81.1635 62.6933 82.024 62.9701 82.4542C64.1753 82.6505 65.5944 85.7252 65.5944 85.7252C69.0575 90.9812 72.0098 96.5564 74.411 102.375Z" fill="#FAD7B9"/>
<path d="M63.4531 68.0575C63.4531 68.0575 62.9977 72.9414 62.892 77.551C54.1987 77.1258 49.7652 69.0942 47.9712 64.6582L63.4531 68.0575Z" fill="#F2D0B2"/>
<path d="M142.189 148.342C142.189 148.342 133.085 148.677 123.199 148.712C122.032 148.712 120.847 148.712 119.677 148.712C111.625 148.677 103.712 148.395 100.348 147.527C97.059 146.681 84.4052 138.104 74.2802 127.717C73.4952 129.589 72.9014 131.018 72.8863 131.132C72.5761 133.465 72.1096 135.775 71.4898 138.046C69.9588 143.577 67.8636 148.936 65.2372 154.039H59.8173L17.488 153.976C17.488 153.976 25.4844 141.662 23.3356 110.112C23.2802 109.314 30.7054 83.858 30.7054 83.858C30.7054 83.858 36.475 82.8515 43.1403 82.3105C43.7693 82.8842 45.0651 99.6318 53.4037 100.6C54.7599 100.756 63.4683 114.047 63.4683 114.047L66.1052 100.46L62.9877 82.4464C66.9884 83.6164 69.1825 84.0392 72.5088 85.3677C74.7626 86.2765 76.6317 87.9384 77.7978 90.0704C83.6252 100.716 102.534 135.057 104.469 135.864C106.276 136.619 113.087 137.975 120.293 139.291C129.935 141.053 140.287 142.723 140.287 142.723L142.189 148.342Z" fill="#D9DCDB"/>
<path d="M66.0322 72.7106C66.0322 72.7106 45.4475 72.308 45.903 59.4932C46.3584 46.6784 43.9982 37.9952 57.1602 37.7109C70.3223 37.4265 72.7025 42.406 73.5933 46.7187C74.484 51.0314 71.3992 72.4892 66.0322 72.7106Z" fill="#FFE7CE"/>
<path d="M123.199 148.711C122.032 148.711 120.847 148.711 119.677 148.711C111.625 148.676 103.712 148.394 100.348 147.526C97.059 146.681 84.4053 138.103 74.2803 127.716C74.2803 127.716 76.414 119.541 77.3349 118.172C78.2558 116.804 81.8891 130.104 90.3761 135.516C98.8631 140.929 112.143 144.72 118.592 143.186C122.928 142.154 123.373 146.051 123.199 148.711Z" fill="#A6CCBE"/>
<path d="M61.9939 65.5788C61.9939 65.5788 62.1247 67.1112 65.5014 67.3552C65.5014 67.3552 68.3346 67.559 68.4529 65.9084C68.4478 65.9135 65.8688 64.3585 61.9939 65.5788Z" fill="#F2D0B2"/>
<path d="M63.1035 70.7617C51.4084 67.068 48.54 55.9969 48.5098 55.8837L49.7553 55.5742L49.1338 55.7302L49.7553 55.5742C49.7829 55.6799 52.4979 66.0641 63.4885 69.5364L63.7099 69.6068L63.3375 70.8347L63.1035 70.7617Z" fill="black"/>
<path d="M64.4293 71.6294L63.3247 71.2797C63.0543 71.1935 62.8292 71.0038 62.6985 70.7519C62.5679 70.5 62.5424 70.2066 62.6277 69.936C62.7138 69.6657 62.9036 69.4405 63.1555 69.3099C63.4074 69.1792 63.7007 69.1537 63.9714 69.2391L65.0734 69.5863C65.3439 69.6724 65.5692 69.8621 65.7003 70.1139C65.8313 70.3656 65.8574 70.659 65.7729 70.9299C65.6862 71.2 65.4964 71.4249 65.2449 71.5558C64.9933 71.6868 64.7002 71.7132 64.4293 71.6294Z" fill="#FF9690"/>
<path d="M67.2024 36.0107C67.2024 36.0107 61.9185 51.6109 54.0253 54.2704C46.1321 56.93 43.5002 53.7823 43.5002 53.7823C43.5002 53.7823 49.3251 48.433 49.9944 39.7749C49.9944 39.7749 62.7665 29.6272 67.2024 36.0107Z" fill="#2AB6CA"/>
<path d="M57.3591 40.6039C57.3591 40.6039 68.0931 40.0026 71.2986 43.0597C73.6135 45.2613 73.5632 46.4137 73.7368 49.3501C73.7368 49.3501 78.432 42.1111 73.6034 37.0436C68.4806 31.6716 57.3591 40.6039 57.3591 40.6039Z" fill="#2AB6CA"/>
<path d="M66.7443 37.6635C66.7443 37.6635 64.057 52.5995 54.2314 58.0243C54.2314 58.0243 63.7476 48.2843 63.9161 38.5392C64.0847 28.7941 66.7443 37.6635 66.7443 37.6635Z" fill="#2AB6CA"/>
<path d="M31.2966 67.8295C34.462 71.1785 43.2962 72.3385 43.2962 72.3385C42.9738 71.8029 42.7202 71.2289 42.5413 70.63C47.083 74.3111 58.2346 71.6364 58.2346 71.6364C49.3375 69.6738 52.2185 56.8364 55.2454 56.2879C57.0067 46.6057 60.5042 34.5533 62.1422 29.1386C61.7497 29.0757 61.5258 29.0555 61.5258 29.0555C37.9972 19.9395 28.1238 64.483 31.2966 67.8295Z" fill="#2AB6CA"/>
<path d="M50.6134 65.4513L49.7629 65.5696C47.9388 65.8164 46.091 65.3316 44.6231 64.2209C43.1551 63.1103 42.1861 61.4641 41.9276 59.6415L41.3111 55.2005C41.0636 53.3766 41.5478 51.5289 42.658 50.0608C43.7683 48.5927 45.4143 47.6237 47.2367 47.3652L48.0872 47.2469C49.911 46.9994 51.7588 47.4836 53.2268 48.5938C54.6949 49.704 55.664 51.3501 55.9225 53.1725L56.5389 57.616C56.7865 59.4399 56.3023 61.2876 55.192 62.7557C54.0818 64.2238 52.4357 65.1929 50.6134 65.4513Z" fill="#FF9690"/>
<path d="M45.0525 49.2451C44.5492 48.2965 46.3105 40.9418 48.9248 35.2326C50.1829 32.4648 53.3608 28.7812 55.6304 27.8301C56.4507 27.4854 57.5376 27.6263 58.4258 27.8301C59.07 27.976 60.8791 28.8189 60.8791 28.8189C53.4237 31.1439 46.9471 46.7641 47.4151 48.382C47.4034 48.3427 47.3873 48.3047 47.3673 48.2688L45.0525 49.2451Z" fill="#FF9690"/>
<path d="M48.9097 61.032L48.487 61.0899C47.5785 61.2133 46.6581 60.9722 45.9269 60.4191C45.1957 59.8661 44.713 59.0461 44.5844 58.1384L44.2774 55.9242C44.154 55.0157 44.3952 54.0954 44.9482 53.3641C45.5012 52.6329 46.3212 52.1503 47.2289 52.0216L47.6516 51.9613C48.5607 51.8378 49.4818 52.0793 50.2135 52.6327C50.9452 53.1862 51.4281 54.0068 51.5567 54.9152L51.8637 57.1294C51.987 58.0383 51.7456 58.959 51.192 59.6903C50.6385 60.4216 49.8179 60.904 48.9097 61.032Z" fill="#F2D0B2"/>
<path d="M98.8503 140.921C98.8503 140.921 107.677 140.418 108.535 140.876C109.929 141.631 114.669 144.68 115.414 145.569C116.159 146.457 118.104 150.015 118.104 150.015C118.104 150.015 117.264 150.249 116.881 149.907C116.499 149.564 113.61 146.505 113.61 146.505L116.569 150.999C116.569 150.999 115.545 150.953 115.14 150.495C114.735 150.037 111.97 147.224 111.97 147.224L111.026 147.041C111.569 147.476 112.066 147.967 112.508 148.505C112.839 148.959 113.128 149.443 113.371 149.949C112.996 149.891 112.627 149.802 112.266 149.683C112.002 149.557 109.524 147.385 109.524 147.385L110.837 149.179C110.837 149.179 109.952 149.137 109.662 148.928C109.373 148.719 107.441 146.953 107.096 146.958C106.751 146.963 104.29 146.859 103.231 146.298C102.172 145.737 98.8503 144.451 98.8503 144.451V140.921Z" fill="#F2D0B2"/>
<path d="M44.3479 79.8379C44.3479 79.8379 38.445 81.5589 37.0989 82.9151C37.0989 82.9151 43.2685 98.6889 52.1656 106.064L54.5459 104.375V108.213L63.4531 114.04C63.4531 114.04 43.89 84.6085 44.3479 79.8379Z" fill="#A6CCBE"/>
<path d="M71.4796 138.037C69.9486 143.568 67.8534 148.927 65.227 154.03H68.2464H65.227H37.0989C37.0989 154.03 40.3699 154.03 40.3548 154.01C40.2768 153.723 45.1103 140.624 37.0989 135.254C29.0874 129.885 26.1611 116.652 26.1611 116.652L51.7001 110.412C51.7001 110.412 62.2227 125.761 65.2194 128.695C67.5192 130.941 72.8761 131.11 72.8761 131.11L71.4796 138.037Z" fill="#A6CCBE"/>
<path d="M62.9703 82.4421C62.9703 82.4421 65.6878 103.905 63.4534 114.03C63.4534 114.03 67.0993 107.332 67.6101 106.104L66.9962 102.423L69.3488 103.241C69.3488 103.241 67.273 86.1308 65.3959 83.129C63.5189 80.1273 62.8269 79.8379 62.8269 79.8379L62.9703 82.4421Z" fill="#A6CCBE"/>
<path d="M142.189 148.342C142.189 148.342 130.8 148.765 119.669 148.712C116.901 144.435 120.288 139.297 120.288 139.297C129.93 141.058 140.281 142.729 140.281 142.729L142.189 148.342Z" fill="#F2D0B2"/>
<path d="M143.265 154.043H101.178C101.178 153.603 101.265 153.166 101.433 152.759C101.602 152.352 101.849 151.982 102.161 151.671C102.473 151.359 102.843 151.112 103.25 150.944C103.657 150.776 104.094 150.689 104.534 150.689H143.265V154.043Z" fill="#28909B"/>
<path d="M208.22 108.203L192.613 154.042H127.117L143.147 108.203H208.22Z" fill="#3AAEEC"/>
<path d="M208.22 108.203L192.756 153.62L192.613 154.042H128.073L144.106 108.203H208.22Z" fill="#ACEDD4"/>
<path d="M174.096 130.7C173.691 132.462 171.945 133.871 170.194 133.871C168.442 133.871 167.348 132.451 167.753 130.7C168.158 128.949 169.904 127.527 171.658 127.527C173.412 127.527 174.501 128.946 174.096 130.7Z" fill="#A6CCBE"/>
<path d="M208.22 108.203L192.756 153.62H163.103L199.26 108.203H208.22Z" fill="#28909B"/>
<path d="M98.8605 144.487C98.8605 144.487 77.1939 146.379 65.2195 145.846V134.08C73.0649 136.246 98.8504 140.921 98.8504 140.921L98.8605 144.487Z" fill="#F2D0B2"/>
<path d="M37.0989 82.918C37.0989 82.918 24.7069 83.1998 20.8723 87.3414C17.0376 91.483 24.6767 114.893 24.6767 114.893C24.6767 114.893 47.775 143.18 59.3292 145.175C59.3292 145.175 64.3766 145.865 66.7343 145.902C66.7343 145.902 64.4244 139.174 68.722 134.952C68.722 134.952 63.7752 133.568 63.5689 132.954C63.3626 132.34 37.0989 82.918 37.0989 82.918Z" fill="#D9DCDB"/>
</svg>
