<svg width="136" height="96" viewBox="0 0 136 96" fill="none" xmlns="http://www.w3.org/2000/svg">
<ellipse cx="70.1306" cy="26.9476" rx="9.763" ry="9.76299" fill="#FAD7B9"/>
<path d="M72.9204 36.3062C68.8874 35.1061 65.9465 31.3702 65.9465 26.9474C65.9465 22.5248 68.8871 18.7891 72.9197 17.5888C72.036 17.3258 71.0998 17.1846 70.1306 17.1846C64.7387 17.1846 60.3676 21.5556 60.3676 26.9476C60.3676 32.3395 64.7387 36.7106 70.1306 36.7106C71.1 36.7106 72.0364 36.5693 72.9204 36.3062Z" fill="#F2D0B2"/>
<path d="M61.414 37.8354C55.7862 41.091 52 47.1758 52 54.1449V66C52 66 55.6572 71.5 70.8286 71.5C86 71.5 89.6572 66 89.6572 66V54.1449C89.6572 46.8312 85.4873 40.4915 79.3953 37.3735C76.9319 39.564 73.6869 40.8946 70.1312 40.8946C66.8327 40.8946 63.8017 39.7496 61.414 37.8354Z" fill="#F7BFBC"/>
<path d="M60.3676 17C60.3676 14.7909 62.1585 13 64.3676 13H75.8936C78.1028 13 79.8936 14.7909 79.8936 17V24.1577C79.8936 24.1577 77.8016 21.3683 70.1306 21.3683C62.4597 21.3683 60.3676 24.1577 60.3676 24.1577V17Z" fill="#F7BFBC"/>
<path d="M41 18C48.1797 18 54 24.0756 54 31.5703C54 34.0767 53.53 36.6654 52.1814 38.5312L41 54L29.8186 38.5312C28.5 36 28 33.8406 28 31.5703C28 24.0756 33.8203 18 41 18ZM41 25.8596C37.979 25.8596 35.5293 28.4168 35.5293 31.5703C35.5293 34.7238 37.979 37.281 41 37.281C44.0209 37.281 46.4707 34.7238 46.4707 31.5703C46.4707 28.4168 44.0209 25.8596 41 25.8596Z" fill="#484848"/>
<path d="M77 49C77 47.3431 78.3431 46 80 46H104C105.657 46 107 47.3431 107 49V82C107 83.6569 105.657 85 104 85H80C78.3431 85 77 83.6569 77 82V49Z" fill="#EFEFEF"/>
<rect x="91" y="55" width="11" height="2" rx="1" fill="#F5D7D7"/>
<rect x="91" y="60" width="8" height="2" rx="1" fill="#F5D7D7"/>
<rect x="81" y="70" width="16" height="2" rx="1" fill="#F5D7D7"/>
<rect x="81" y="75" width="14" height="2" rx="1" fill="#F5D7D7"/>
<rect x="81" y="65" width="21" height="2" rx="1" fill="#F5D7D7"/>
<circle cx="41" cy="31" r="8" fill="#F7BFBC" stroke="#EFEFEF" stroke-width="2"/>
<rect x="81" y="55" width="8" height="7" rx="1" fill="#E87780"/>
</svg>
