<svg width="136" height="96" viewBox="0 0 136 96" fill="none" xmlns="http://www.w3.org/2000/svg">
<path fill-rule="evenodd" clip-rule="evenodd" d="M69.9975 77.6176C54.577 84.6543 53.7143 97.5418 30.6099 92.8497C7.50552 88.1577 -12.3053 18.5094 58.0379 10.7759C128.381 3.04233 138.756 68.7456 119.007 82.8233C99.2589 96.9011 85.4181 70.5808 69.9975 77.6176Z" fill="#F1F4FC"/>
<path fill-rule="evenodd" clip-rule="evenodd" d="M27.6499 45.3391C27.6499 52.218 33.258 57.7945 40.1759 57.7945C47.0939 57.7945 52.702 52.218 52.702 45.3391C52.702 38.4602 47.0939 32.8838 40.1759 32.8838C33.258 32.8838 27.6499 38.4602 27.6499 45.3391ZM45.0774 45.3391C45.0774 48.0309 42.8829 50.2129 40.1759 50.2129C37.4689 50.2129 35.2744 48.0309 35.2744 45.3391C35.2744 42.6474 37.4689 40.4653 40.1759 40.4653C42.8829 40.4653 45.0774 42.6474 45.0774 45.3391Z" fill="#6157FF"/>
<mask id="mask0" mask-type="alpha" maskUnits="userSpaceOnUse" x="27" y="32" width="26" height="26">
<path fill-rule="evenodd" clip-rule="evenodd" d="M27.6499 45.3391C27.6499 52.218 33.258 57.7945 40.1759 57.7945C47.0939 57.7945 52.702 52.218 52.702 45.3391C52.702 38.4602 47.0939 32.8838 40.1759 32.8838C33.258 32.8838 27.6499 38.4602 27.6499 45.3391ZM45.0774 45.3391C45.0774 48.0309 42.8829 50.2129 40.1759 50.2129C37.4689 50.2129 35.2744 48.0309 35.2744 45.3391C35.2744 42.6474 37.4689 40.4653 40.1759 40.4653C42.8829 40.4653 45.0774 42.6474 45.0774 45.3391Z" fill="white"/>
</mask>
<g mask="url(#mask0)">
<path fill-rule="evenodd" clip-rule="evenodd" d="M36.9083 26.9269H45.6221V68.0836H36.9083V26.9269Z" fill="#4A41DB"/>
</g>
<path d="M40.1759 27.8438C40.1759 26.7392 41.0713 25.8438 42.1759 25.8438H81.7447C82.8493 25.8438 83.7447 26.7392 83.7447 27.8438V74.9974C83.7447 77.7588 81.5061 79.9974 78.7447 79.9974H45.1759C42.4145 79.9974 40.1759 77.7589 40.1759 74.9974V27.8438Z" fill="#6157FF"/>
<mask id="mask1" mask-type="alpha" maskUnits="userSpaceOnUse" x="40" y="25" width="44" height="55">
<path d="M40.1759 27.8438C40.1759 26.7392 41.0713 25.8438 42.1759 25.8438H81.7447C82.8493 25.8438 83.7447 26.7392 83.7447 27.8438V74.9974C83.7447 77.7588 81.5061 79.9974 78.7447 79.9974H45.1759C42.4145 79.9974 40.1759 77.7589 40.1759 74.9974V27.8438Z" fill="white"/>
</mask>
<g mask="url(#mask1)">
<path fill-rule="evenodd" clip-rule="evenodd" d="M61.3943 25.8438L83.7447 25.8438V81.0805H61.3943V25.8438Z" fill="#564CEF"/>
<path fill-rule="evenodd" clip-rule="evenodd" d="M67.4323 23.6954L88.1847 11.7461L105.56 41.7611L84.808 53.7104L67.4323 23.6954Z" fill="#4A41DB"/>
</g>
<path d="M62.2393 18.881C57.2839 13.5043 67.8094 10.714 62.2393 5.26543" stroke="#6157FF" stroke-width="4" stroke-linecap="round"/>
<path d="M73.1315 18.881C68.1761 13.5043 78.7017 10.714 73.1315 5.26543" stroke="#6157FF" stroke-width="4" stroke-linecap="round"/>
<path d="M51.3471 18.881C46.3917 13.5043 56.9172 10.714 51.3471 5.26543" stroke="#6157FF" stroke-width="4" stroke-linecap="round"/>
<path fill-rule="evenodd" clip-rule="evenodd" d="M71.3576 6.64935C68.0072 8.57814 66.8615 12.8539 68.7987 16.1995L97.0914 65.0615C98.5771 67.6273 101.445 68.9009 104.212 68.4852L109.653 77.8832C110.679 79.6548 112.949 80.2629 114.723 79.2416C116.497 78.2202 117.103 75.9561 116.078 74.1846L110.637 64.7884C112.385 62.6065 112.714 59.4913 111.227 56.9239L82.9345 8.06187C80.9973 4.71626 76.7108 3.56769 73.3603 5.49648L71.3576 6.64935Z" fill="white"/>
<path fill-rule="evenodd" clip-rule="evenodd" d="M98.7999 61.5171C98.65 61.2581 98.7387 60.9271 98.9981 60.7777L106.548 56.4302C106.808 56.2808 107.14 56.3698 107.29 56.6288C107.44 56.8878 107.351 57.2188 107.091 57.3682L99.541 61.7157C99.2817 61.865 98.9499 61.7761 98.7999 61.5171Z" fill="#E0E4F1"/>
<path fill-rule="evenodd" clip-rule="evenodd" d="M90.655 47.4476C90.5051 47.1886 90.5938 46.8575 90.8532 46.7082L98.4036 42.3607C98.6629 42.2113 98.9947 42.3002 99.1447 42.5592C99.2946 42.8182 99.2059 43.1493 98.9466 43.2986L91.3962 47.6462C91.1368 47.7955 90.805 47.7066 90.655 47.4476Z" fill="#E0E4F1"/>
<path fill-rule="evenodd" clip-rule="evenodd" d="M82.5103 33.3781C82.3603 33.1191 82.449 32.788 82.7084 32.6387L90.2588 28.2911C90.5181 28.1418 90.8499 28.2307 90.9999 28.4897C91.1498 28.7487 91.0611 29.0798 90.8018 29.2291L83.2514 33.5766C82.992 33.726 82.6602 33.6371 82.5103 33.3781Z" fill="#E0E4F1"/>
<path fill-rule="evenodd" clip-rule="evenodd" d="M96.085 56.8273C95.935 56.5683 96.0237 56.2372 96.2831 56.0879L103.833 51.7403C104.093 51.591 104.425 51.6799 104.575 51.9389C104.725 52.1979 104.636 52.529 104.376 52.6783L96.8261 57.0259C96.5667 57.1752 96.2349 57.0863 96.085 56.8273Z" fill="#E0E4F1"/>
<path fill-rule="evenodd" clip-rule="evenodd" d="M87.9401 42.7577C87.7901 42.4987 87.8788 42.1677 88.1382 42.0184L95.6886 37.6708C95.948 37.5215 96.2798 37.6104 96.4297 37.8694C96.5796 38.1284 96.4909 38.4594 96.2316 38.6088L88.6812 42.9563C88.4218 43.1057 88.09 43.0168 87.9401 42.7577Z" fill="#E0E4F1"/>
<path fill-rule="evenodd" clip-rule="evenodd" d="M79.7953 28.6882C79.6454 28.4292 79.7341 28.0982 79.9934 27.9488L87.5438 23.6013C87.8032 23.452 88.135 23.5409 88.2849 23.7999C88.4349 24.0589 88.3462 24.3899 88.0868 24.5393L80.5364 28.8868C80.277 29.0361 79.9452 28.9472 79.7953 28.6882Z" fill="#E0E4F1"/>
<path fill-rule="evenodd" clip-rule="evenodd" d="M93.37 52.1374C93.2201 51.8784 93.3088 51.5474 93.5681 51.398L101.119 47.0505C101.378 46.9012 101.71 46.9901 101.86 47.2491C102.01 47.5081 101.921 47.8391 101.662 47.9885L94.1111 52.336C93.8518 52.4854 93.5199 52.3964 93.37 52.1374Z" fill="#E0E4F1"/>
<path fill-rule="evenodd" clip-rule="evenodd" d="M85.2252 38.0679C85.0753 37.8089 85.164 37.4779 85.4233 37.3285L92.9737 32.981C93.2331 32.8316 93.5649 32.9205 93.7149 33.1796C93.8648 33.4386 93.7761 33.7696 93.5167 33.9189L85.9663 38.2665C85.707 38.4158 85.3752 38.3269 85.2252 38.0679Z" fill="#E0E4F1"/>
<path fill-rule="evenodd" clip-rule="evenodd" d="M77.8699 17.0669C77.6645 16.7122 77.786 16.2588 78.1412 16.0543C78.4964 15.8498 78.9508 15.9715 79.1562 16.3263L113.707 76.0096C113.912 76.3644 113.791 76.8177 113.436 77.0222C113.08 77.2268 112.626 77.105 112.421 76.7503L77.8699 17.0669Z" fill="#FF9690"/>
<path fill-rule="evenodd" clip-rule="evenodd" d="M107.766 71.6719C107.351 70.9549 107.596 70.0386 108.314 69.6252L109.573 68.9002C110.291 68.4868 111.21 68.7329 111.625 69.4499L114.614 74.6131C115.029 75.3301 114.783 76.2464 114.065 76.6598L112.806 77.3848C112.088 77.7981 111.17 77.552 110.755 76.8351L107.766 71.6719Z" fill="#FF9690"/>
<path d="M70.3811 51.4435C70.1208 48.7119 68.093 46.7301 65.5553 46.7301C63.8646 46.7301 62.3166 47.5975 61.4455 48.9878C60.5824 47.5795 59.0978 46.7297 57.4342 46.7297C54.8968 46.7297 52.8687 48.7115 52.6087 51.4431C52.5882 51.5638 52.5038 52.1988 52.7603 53.2343C53.13 54.728 53.9839 56.0866 55.2291 57.1623L61.4414 62.5375L67.7604 57.1627C69.0056 56.0866 69.8595 54.7283 70.2292 53.2343C70.4857 52.1991 70.4013 51.5641 70.3811 51.4435Z" fill="#FFE7CE"/>
<mask id="mask2" mask-type="alpha" maskUnits="userSpaceOnUse" x="52" y="46" width="19" height="17">
<path d="M70.3811 51.4435C70.1208 48.7119 68.093 46.7301 65.5553 46.7301C63.8646 46.7301 62.3166 47.5975 61.4455 48.9878C60.5824 47.5795 59.0978 46.7297 57.4342 46.7297C54.8968 46.7297 52.8687 48.7115 52.6087 51.4431C52.5882 51.5638 52.5038 52.1988 52.7603 53.2343C53.13 54.728 53.9839 56.0866 55.2291 57.1623L61.4414 62.5375L67.7604 57.1627C69.0056 56.0866 69.8595 54.7283 70.2292 53.2343C70.4857 52.1991 70.4013 51.5641 70.3811 51.4435Z" fill="white"/>
</mask>
<g mask="url(#mask2)">
<rect x="61.4948" y="44.1892" width="10.1895" height="21.5946" fill="#F2D0B2"/>
</g>
</svg>
