<svg width="136" height="96" viewBox="0 0 136 96" fill="none" xmlns="http://www.w3.org/2000/svg">
<path d="M112.573 35.5271C112.573 55.0411 92.9231 84.8605 64.5725 84.8605C15.2391 87.5272 -2.15734 54.8602 9.90603 29.5269C21.9694 4.19362 46.8884 26.1939 75.239 26.1939C103.59 26.1939 112.573 16.013 112.573 35.5271Z" fill="#EDF1FC"/>
<g clip-path="url(#clip0)">
<path d="M123.529 43.9886C123.88 48.5255 120.688 52.5532 116.403 52.9832C113.122 53.312 110.154 51.4358 108.783 48.5057L104.894 48.8484L101.958 50.265C101.287 50.5879 100.835 51.2298 100.732 51.9668C100.454 53.9539 99.9512 55.8678 99.2518 57.6865C99.0141 58.3026 99.0557 58.9901 99.3786 59.5646L100.425 61.4349L103.333 63.3863C104.867 62.7999 106.652 62.9406 108.12 63.9252C110.608 65.5954 111.204 69.0327 109.354 71.4517C107.761 73.5359 104.799 74.1085 102.545 72.7692C101.108 71.9173 100.24 70.5028 100.028 68.9911L96.8051 66.8296L94.7764 66.582C94.079 66.4968 93.3856 66.7365 92.8784 67.2219C91.1666 68.8524 89.233 70.2531 87.131 71.3745C86.4237 71.7509 85.97 72.474 85.9205 73.2724L85.6629 77.3814L86.9388 82.4433C89.1102 83.0496 90.9051 84.7712 91.4955 87.113C92.387 90.6534 90.1879 94.2452 86.602 95.0437C83.3667 95.7648 80.0482 93.8787 79.02 90.7267C78.2196 88.266 78.9546 85.7222 80.6466 84.06L79.3647 78.9683L77.3855 75.7866C76.8546 74.9327 75.9155 74.4275 74.9091 74.4295C74.9031 74.4295 74.8991 74.4295 74.8932 74.4295C73.1597 74.4295 71.4638 74.2571 69.8234 73.9342C68.8466 73.74 67.8382 74.0491 67.1527 74.7722L64.5376 77.532L61.6094 83.6063C62.2949 84.9991 62.3563 86.6811 61.6312 88.1888C60.3275 90.8911 57.0031 91.9649 54.3464 90.4711C52.072 89.1893 51.0873 86.3601 52.0779 83.9431C52.7535 82.2948 54.1542 81.1932 55.7391 80.8247L58.6851 74.7108L59.2637 70.6078C59.3687 69.8509 59.0794 69.0882 58.485 68.6087C56.1413 66.7068 54.1324 64.4106 52.5613 61.8192C52.171 61.1753 51.4697 60.785 50.7168 60.7791L46.6197 60.7395L42.1343 62.1501C41.8193 64.9396 39.9095 67.418 37.0605 68.3135C33.2329 69.5181 29.1556 67.4141 27.9134 63.6102C26.6712 59.8083 28.7693 55.6498 32.5672 54.3938C35.226 53.5141 38.0194 54.2452 39.9095 56.0421L44.6703 54.5443L48.1472 52.0659C48.6643 51.6993 48.9397 51.0852 48.8882 50.4552C48.8307 49.7558 48.801 49.0505 48.801 48.3373C48.801 44.4621 49.6529 40.783 51.1745 37.4745C51.3964 36.9891 51.3904 36.4304 51.1567 35.9509L50.1264 33.8449L47.331 31.735C45.7659 32.2362 43.9927 31.9965 42.5821 30.9326C40.1888 29.1257 39.7847 25.6607 41.7658 23.3486C43.4716 21.3575 46.4612 20.9494 48.6386 22.4115C50.0254 23.3427 50.8139 24.8008 50.9407 26.3224L54.0393 28.6602L57.1616 29.2169C59.434 27.1069 62.0829 25.3972 64.9932 24.1985L65.7263 19.7449L64.8011 15.1445C62.0631 14.4392 59.8402 12.3412 59.2419 9.54374C58.3979 5.59128 61.1141 1.74184 65.3102 0.947386C69.5044 0.152932 73.5896 2.71064 74.4336 6.6631C75.0656 9.621 73.7045 12.5195 71.2201 14.1242L72.0938 18.463L74.2394 21.8865C74.3801 22.1104 74.6257 22.2451 74.8892 22.2451H74.8932C79.8065 22.2451 84.4068 23.6121 88.3355 25.9856C88.5515 26.1144 88.817 26.1322 89.0448 26.0252L92.4049 24.468L96.3276 20.2243C96.0919 18.7027 96.5257 17.0901 97.653 15.8716C99.6897 13.6705 103.177 13.6151 105.281 15.8162C107.125 17.7478 107.196 20.8286 105.445 22.8454C104.312 24.151 102.685 24.7533 101.096 24.6344L97.1736 28.8781L95.8997 32.3055C95.8105 32.5433 95.8502 32.8088 95.9987 33.0148C97.546 35.1386 98.7803 37.5042 99.6322 40.044C99.868 40.7414 100.423 41.2843 101.132 41.4844L104.322 42.3779L108.466 42.0114C109.483 39.0812 112.021 36.8643 115.137 36.5512C119.422 36.1213 123.181 39.4517 123.529 43.9886Z" fill="#4D43D8"/>
<path d="M74.8931 67.6581C85.5635 67.6581 94.2136 59.008 94.2136 48.3376C94.2136 37.6672 85.5635 29.0171 74.8931 29.0171C64.2227 29.0171 55.5726 37.6672 55.5726 48.3376C55.5726 59.008 64.2227 67.6581 74.8931 67.6581Z" fill="#828EFA"/>
<path d="M61.4614 48.3376C61.4614 38.668 68.5644 30.6579 77.8375 29.24C76.8774 29.0932 75.8942 29.0171 74.8931 29.0171C64.2224 29.0171 55.5726 37.6669 55.5726 48.3376C55.5726 59.0082 64.2224 67.6581 74.8931 67.6581C75.8942 67.6581 76.8774 67.582 77.8375 67.4352C68.5646 66.0171 61.4614 58.007 61.4614 48.3376Z" fill="#6157FF"/>
<path d="M42.3854 13.2129C45.4241 13.2129 47.8874 10.7496 47.8874 7.71093C47.8874 4.67229 45.4241 2.20898 42.3854 2.20898C39.3468 2.20898 36.8835 4.67229 36.8835 7.71093C36.8835 10.7496 39.3468 13.2129 42.3854 13.2129Z" fill="#FF9690"/>
<path d="M40.8814 83.8693C42.8884 83.8693 44.5155 82.2422 44.5155 80.2352C44.5155 78.2281 42.8884 76.6011 40.8814 76.6011C38.8743 76.6011 37.2473 78.2281 37.2473 80.2352C37.2473 82.2422 38.8743 83.8693 40.8814 83.8693Z" fill="#FF9690"/>
<path d="M107.605 91.5576C110.561 91.5576 112.958 89.1611 112.958 86.2048C112.958 83.2486 110.561 80.8521 107.605 80.8521C104.649 80.8521 102.252 83.2486 102.252 86.2048C102.252 89.1611 104.649 91.5576 107.605 91.5576Z" fill="#FF9690"/>
<path d="M68.9627 47.9998C71.7188 47.9998 73.9531 45.7656 73.9531 43.0094C73.9531 40.2533 71.7188 38.019 68.9627 38.019C66.2066 38.019 63.9723 40.2533 63.9723 43.0094C63.9723 45.7656 66.2066 47.9998 68.9627 47.9998Z" fill="#6157FF"/>
<path d="M72.9687 61.9067C74.8447 61.9067 76.3654 60.386 76.3654 58.51C76.3654 56.634 74.8447 55.1133 72.9687 55.1133C71.0927 55.1133 69.572 56.634 69.572 58.51C69.572 60.386 71.0927 61.9067 72.9687 61.9067Z" fill="#6157FF"/>
<path d="M83.6348 51.19C85.2101 51.19 86.4871 49.913 86.4871 48.3377C86.4871 46.7624 85.2101 45.4854 83.6348 45.4854C82.0595 45.4854 80.7825 46.7624 80.7825 48.3377C80.7825 49.913 82.0595 51.19 83.6348 51.19Z" fill="#6157FF"/>
</g>
<defs>
<clipPath id="clip0">
<rect width="96" height="96" fill="white" transform="translate(27.5556)"/>
</clipPath>
</defs>
</svg>
