<svg width="136" height="96" viewBox="0 0 136 96" fill="none" xmlns="http://www.w3.org/2000/svg">
    <path
        d="M55.3745 62.2776V86.2404C57.4691 86.9107 59.7314 87.3296 61.9098 87.6648C63.5855 87.9161 65.345 87.9999 67.1045 87.9999C73.8074 87.9999 80.0914 86.408 85.7051 83.5592V60.4343C85.4537 58.2558 78.1643 50.9664 75.9859 50.7151L61.9936 49.2069C57.6367 51.2178 55.3745 60.0153 55.3745 62.2776Z"
        fill="#BCCBF7" />
    <path
        d="M73.8077 49.8766C73.8077 49.8766 79.1111 57.048 79.1111 67.2594C79.1111 77.4708 77.6296 86.5187 77.6296 86.5187C81.8189 85.8484 82.1025 85.4019 85.7053 83.4748C90.2297 81.2126 94.2515 78.0287 97.5191 74.3422C97.9381 73.8394 98.357 73.3367 98.7759 72.834C98.8597 72.7502 98.9435 72.5826 99.1111 72.4989C95.7596 62.8634 90.5649 57.4173 86.5432 54.4848C80.343 49.8766 73.8077 49.8766 73.8077 49.8766Z"
        fill="#6157FF" />
    <path
        d="M62.058 41.9648L61.8672 50.14C61.8672 50.14 63.9852 53.4078 69.8044 53.8706C74.1926 54.2562 74.5667 52.2992 74.5667 52.2992L74.3642 47.9909V44.3557L63.7751 42.3505L62.058 41.9648Z"
        fill="#F2D0B2" />
    <path
        d="M71.0992 53.9255C71.6476 53.9255 76.1563 53.4307 75.2996 52.5328C75.2095 52.4383 75.2996 52.1901 75.1194 52.2373C71.0992 55.0824 63.0589 51.0807 63.0589 51.0335C62.9688 50.9391 62.3895 50.9387 62.2093 51.0332C62.0291 51.0804 62.0291 51.4465 62.2093 51.5409C62.2994 51.4937 65.6939 53.9255 71.0992 53.9255Z"
        fill="#4D43D8" />
    <path
        d="M61.955 42.0763C61.955 42.3107 60.6264 43.0141 60.7827 43.3267C62.5802 47.4687 69.223 49.5787 71.2549 49.8132L70.6297 44.1864L61.955 42.0763Z"
        fill="black" />
    <path
        d="M75.5537 15.2545C75.5537 15.2545 80.822 21.1953 77.9076 27.8086C74.9933 34.422 71.8547 15.815 71.8547 15.815L75.5537 15.2545Z"
        fill="#4D43D8" />
    <path
        d="M73.3121 15.9262C74.9934 17.2713 76.1143 19.0648 76.7869 21.0824C78.3561 25.6781 81.4947 36.3267 79.3649 42.94C76.6748 51.4589 69.0526 49.8896 64.4569 48.0962C59.8612 46.3027 57.8436 43.3884 57.8436 43.3884C57.8436 43.3884 53.4721 44.7335 50.7819 40.5861C48.0917 36.4388 49.9973 31.8431 52.4633 30.8343C54.9292 29.8255 57.8436 31.731 57.8436 31.731L55.7139 27.2474C55.7139 27.0232 64.3448 8.52828 73.3121 15.9262Z"
        fill="#FFE7CE" />
    <path
        d="M58.3683 32.4761C58.3683 32.4761 59.7453 38.2317 60.7469 37.5777C61.7484 36.9236 62.7499 28.5518 61.9988 24.8892C61.2476 21.2265 60.6217 19.2644 60.6217 19.2644C60.6217 19.2644 75.1438 17.9563 78.8995 14.2936C82.6552 10.7618 74.643 8.4072 66.3804 9.97691C58.1179 11.5466 54.8629 14.8169 54.8629 14.8169C54.8629 14.8169 49.7301 14.032 47.7271 17.3022C45.8492 20.5725 50.2309 33.1302 50.2309 33.1302C50.2309 33.1302 51.608 29.9907 58.3683 32.4761Z"
        fill="#4D43D8" />
    <path
        d="M81.71 36.4085C81.71 36.4085 78.5527 31.8396 76.4538 32.5159C74.4783 33.0796 73.7375 35.7851 73.7375 35.7851C73.7375 35.7851 71.3917 32.7414 68.6754 33.6433C65.9591 34.5451 60.2797 34.7706 60.2797 35.6724C60.2797 36.4615 61.8847 36.7997 61.8847 36.7997C61.8847 36.7997 74.4254 38.6631 81.71 36.4085Z"
        fill="#F2D0B2" />
    <path
        d="M82.5034 36.6643C82.5034 36.6643 78.9165 32.629 77.011 33.3016C75.2175 33.862 74.545 36.5522 74.545 36.5522C74.545 36.5522 72.4153 33.5257 69.9493 34.4225C67.4833 35.3192 62.3271 35.5434 62.3271 36.4401C62.3271 37.2247 63.7843 37.561 63.7843 37.561C63.7843 37.561 75.8901 38.9061 82.5034 36.6643Z"
        fill="#4D43D8" />
    <path
        d="M57.8437 31.5068C57.8437 31.5068 58.0679 39.4652 57.9558 43.1642C57.8437 46.8632 68.0439 52.5798 74.9935 49.4413C82.0552 46.3028 80.1497 36.9993 80.1497 36.9993L73.8726 37.5597C73.8726 37.5597 72.4154 36.7751 70.7341 36.4388C69.0527 36.1025 66.923 36.9993 66.923 36.9993L57.8437 31.5068Z"
        fill="#4D43D8" />
    <path
        d="M56.1481 40.5925C56.1481 40.5925 55.3579 34.1149 53.6176 33.4537C51.8774 32.7925 55.938 33.5753 56.1482 33.4538L56.1481 40.5925Z"
        fill="#F2D0B2" />
    <path
        d="M36.4681 73.8587C37.9334 75.6056 39.4801 77.2693 41.1896 78.7666C44.9344 82.0108 49.3303 84.5895 54.1333 86.2532C56.5755 87.085 59.1805 87.7505 61.7855 88C61.7855 88 59.852 81.3333 59.852 71.7037C59.852 62.074 61.8669 49.9017 61.8669 49.9017C61.8669 49.9017 53.8891 51.1495 49.4117 54.4769C43.7947 58.6361 39.1545 63.8767 36.4681 73.8587Z"
        fill="#6157FF" />
    <path
        d="M56.0014 69.5028L46.7015 69.3465C45.8419 69.3465 45.1385 68.6432 45.1385 67.7835L45.2167 65.7516C45.2167 64.892 45.92 64.1886 46.7797 64.1886L56.0796 64.3449C56.9392 64.3449 57.6426 65.0483 57.6426 65.9079L57.5644 67.9398C57.6426 68.7995 56.9392 69.5028 56.0014 69.5028Z"
        fill="#828EFA" />
    <path fill-rule="evenodd" clip-rule="evenodd"
        d="M59.1111 43.8533C60.1958 44.7397 61.8515 45.8301 64.1474 46.6621C68.7663 48.3358 76.4269 49.8003 79.1306 41.85C79.5724 40.5761 79.7887 39.1417 79.8397 37.6296C79.9045 39.6831 79.7146 41.6475 79.1306 43.3315C76.4269 51.2818 68.7663 49.8173 64.1474 48.1435C61.8515 47.3116 60.1958 46.2212 59.1111 45.3348V43.8533Z"
        fill="#6157FF" fill-opacity="0.1" />
    <path
        d="M72.2463 65.0404L72.2462 65.0406C70.6215 69.3986 72.8083 73.399 75.7357 76.5423C78.6717 79.6947 82.5449 82.2021 84.8179 83.6736L84.8379 83.6865L84.838 83.6866C85.2065 83.925 85.5923 84.1747 85.906 84.3855C86.0631 84.4911 86.1968 84.5833 86.2986 84.6572C86.3774 84.7143 86.4175 84.7466 86.4324 84.7586C86.4338 84.7598 86.435 84.7607 86.436 84.7615L87.0506 85.456L87.5557 86.0268L88.1182 85.5126L88.8139 84.8768C88.8147 84.8763 88.8158 84.8755 88.8172 84.8744C88.8272 84.867 88.8545 84.847 88.9072 84.8109C88.9757 84.764 89.0655 84.7047 89.1719 84.6356C89.3845 84.4977 89.6485 84.3307 89.9131 84.1633C89.9131 84.1632 89.9131 84.1632 89.9132 84.1632L89.9288 84.1533C92.1112 82.7728 96.1714 80.2045 99.301 76.9389C102.411 73.6935 104.823 69.5189 103.121 65.0268C101.716 61.3173 98.7221 59.1244 94.9287 59.1244C92.1517 59.1244 89.3772 60.2901 87.6536 62.0326C85.9084 60.2713 83.1676 59.1018 80.431 59.1018H80.43C76.6273 59.1018 73.638 61.3098 72.2463 65.0404Z"
        fill="#FF4D75" stroke="white" stroke-width="1.5" />
    <path
        d="M100.626 70.0867C98.8968 73.6078 90.8266 78.638 86.7915 81.1531C86.7915 81.1531 87.7522 81.6014 87.9444 82.1591C88.1365 82.7168 88.5849 83.1652 88.5849 83.1652C92.6708 80.9367 98.503 77.1414 101.203 73.6078C102.355 72.0987 102.932 70.0867 102.932 68.5776C102.932 67.0686 102.932 65.5595 100.626 62.5414C101.203 65.0565 102.355 66.5655 100.626 70.0867Z"
        fill="#C8316C" />
</svg>