<svg width="112" height="92" viewBox="0 0 112 92" fill="none" xmlns="http://www.w3.org/2000/svg">
    <rect x="44.3999" y="20.861" width="58.6667" height="60.1744" fill="#F1F4FC" />
    <rect x="8.3999" y="6.15088" width="61.3333" height="82.907" rx="4" fill="#4D43D8" />
    <rect x="12.3997" y="10.163" width="53.3333" height="74.8837" rx="3" fill="#F1F4FC" />
    <path d="M65.733 73.0112V84.0461C65.733 84.5984 65.2853 85.0461 64.733 85.0461H52.3997L65.733 73.0112Z"
        fill="#ECECEC" />
    <rect x="17.3999" y="21.3619" width="15" height="15.0436" fill="white" />
    <rect x="35.3999" y="25.875" width="22.5" height="3.00872" fill="#6157FF" />
    <rect x="26.3999" y="45.4318" width="31.5" height="3.00871" fill="#828EFA" />
    <rect x="26.3999" y="63.484" width="27" height="3.00872" fill="#828EFA" />
    <rect x="35.3999" y="31.8925" width="16.5" height="3.00873" fill="#6157FF" />
    <rect x="26.3999" y="54.4579" width="22.5" height="3.00872" fill="#828EFA" />
    <rect x="26.3999" y="72.5103" width="19.5" height="3.00872" fill="#828EFA" />
    <path d="M18.1499 46.9361L19.6499 48.4405L22.6499 45.4318" stroke="#FF9690" />
    <path d="M18.1499 55.9622L19.6499 57.4666L22.6499 54.4579" stroke="#FF9690" />
    <path d="M18.1499 64.9884L19.6499 66.4927L22.6499 63.484" stroke="#FF9690" />
    <path d="M18.1499 72.5102L19.6499 74.0146L22.6499 71.0059" stroke="#FF9690" />
    <rect x="82" y="31.8923" width="5.99999" height="49.6439" fill="#FF9690" />
    <path
        d="M82 25.3707C82 24.8184 82.4477 24.3707 83 24.3707H87C87.5523 24.3707 88 24.8184 88 25.3707V30.3882H82V25.3707Z"
        fill="#828EFA" />
    <path d="M82 81.5363H88L85 89.0581L82 81.5363Z" fill="#F2D0B2" />
    <rect x="24.3999" y="4.81396" width="29.3333" height="12.0349" fill="#6157FF" />
</svg>