<svg width="135" height="40" viewBox="0 0 135 40" fill="none" xmlns="http://www.w3.org/2000/svg">
<path d="M5 0.5H130C132.485 0.5 134.5 2.51472 134.5 5V35C134.5 37.4853 132.485 39.5 130 39.5H5C2.51472 39.5 0.5 37.4853 0.5 35V5C0.5 2.51472 2.51472 0.5 5 0.5Z" stroke="black"/>
<path d="M130 0.8C131.114 0.8 132.182 1.2425 132.97 2.03015C133.758 2.8178 134.2 3.88609 134.2 5V35C134.2 36.1139 133.758 37.1822 132.97 37.9698C132.182 38.7575 131.114 39.2 130 39.2H5C3.88609 39.2 2.8178 38.7575 2.03015 37.9698C1.2425 37.1822 0.8 36.1139 0.8 35V5C0.8 3.88609 1.2425 2.8178 2.03015 2.03015C2.8178 1.2425 3.88609 0.8 5 0.8H130ZM130 0H5C3.67392 0 2.40215 0.526784 1.46447 1.46447C0.526784 2.40215 0 3.67392 0 5V35C0 36.3261 0.526784 37.5979 1.46447 38.5355C2.40215 39.4732 3.67392 40 5 40H130C131.326 40 132.598 39.4732 133.536 38.5355C134.473 37.5979 135 36.3261 135 35V5C135 3.67392 134.473 2.40215 133.536 1.46447C132.598 0.526784 131.326 0 130 0Z" fill="black"/>
<path d="M68.14 21.7499C67.2974 21.7519 66.4744 22.0037 65.7749 22.4734C65.0755 22.9432 64.531 23.6098 64.2104 24.3889C63.8898 25.1681 63.8075 26.0248 63.9738 26.8508C64.1401 27.6768 64.5476 28.4349 65.1448 29.0293C65.742 29.6236 66.502 30.0276 67.3287 30.19C68.1555 30.3524 69.0118 30.2661 69.7895 29.9418C70.5671 29.6175 71.2311 29.07 71.6976 28.3683C72.164 27.6667 72.412 26.8425 72.41 25.9999C72.4181 25.4379 72.3131 24.8799 72.1012 24.3593C71.8892 23.8386 71.5746 23.366 71.1762 22.9694C70.7778 22.5729 70.3037 22.2606 69.7821 22.051C69.2604 21.8415 68.702 21.7391 68.14 21.7499ZM68.14 28.5799C67.6236 28.616 67.1082 28.496 66.6609 28.2353C66.2137 27.9747 65.8552 27.5855 65.632 27.1184C65.4088 26.6512 65.3314 26.1278 65.4097 25.6161C65.4879 25.1043 65.7184 24.628 66.0709 24.249C66.4235 23.8699 66.882 23.6057 67.3867 23.4907C67.8915 23.3757 68.4192 23.4152 68.9012 23.604C69.3832 23.7929 69.7972 24.1223 70.0895 24.5496C70.3818 24.9769 70.5387 25.4822 70.54 25.9999C70.5561 26.3279 70.5063 26.6559 70.3937 26.9643C70.2811 27.2728 70.1078 27.5556 69.8841 27.7961C69.6604 28.0366 69.3909 28.2298 69.0913 28.3644C68.7918 28.499 68.4683 28.5723 68.14 28.5799ZM58.82 21.7499C57.9774 21.7519 57.1544 22.0037 56.4549 22.4734C55.7555 22.9432 55.211 23.6098 54.8904 24.3889C54.5698 25.1681 54.4875 26.0248 54.6538 26.8508C54.8201 27.6768 55.2276 28.4349 55.8248 29.0293C56.422 29.6236 57.182 30.0276 58.0087 30.19C58.8355 30.3524 59.6918 30.2661 60.4695 29.9418C61.2471 29.6175 61.9111 29.07 62.3776 28.3683C62.844 27.6667 63.0919 26.8425 63.09 25.9999C63.0981 25.4379 62.9931 24.8799 62.7812 24.3593C62.5692 23.8386 62.2546 23.366 61.8562 22.9694C61.4578 22.5729 60.9837 22.2606 60.4621 22.051C59.9404 21.8415 59.382 21.7391 58.82 21.7499ZM58.82 28.5799C58.3036 28.616 57.7882 28.496 57.3409 28.2353C56.8937 27.9747 56.5352 27.5855 56.312 27.1184C56.0888 26.6512 56.0114 26.1278 56.0897 25.6161C56.1679 25.1043 56.3984 24.628 56.7509 24.249C57.1035 23.8699 57.562 23.6057 58.0667 23.4907C58.5715 23.3757 59.0992 23.4152 59.5812 23.604C60.0632 23.7929 60.4772 24.1223 60.7695 24.5496C61.0618 24.9769 61.2187 25.4822 61.22 25.9999C61.2361 26.3279 61.1863 26.6559 61.0737 26.9643C60.9611 27.2728 60.7878 27.5556 60.5641 27.7961C60.3404 28.0366 60.0709 28.2298 59.7713 28.3644C59.4718 28.499 59.1483 28.5723 58.82 28.5799ZM47.74 23.0599V24.8599H52.06C51.9922 25.7077 51.6398 26.5077 51.06 27.1299C50.6266 27.5714 50.1054 27.9171 49.5301 28.1444C48.9547 28.3718 48.3381 28.4759 47.72 28.4499C46.4469 28.4499 45.226 27.9442 44.3259 27.044C43.4257 26.1439 42.92 24.923 42.92 23.6499C42.92 22.3769 43.4257 21.156 44.3259 20.2558C45.226 19.3556 46.4469 18.8499 47.72 18.8499C48.9404 18.8318 50.1189 19.2952 51 20.1399L52.27 18.8699C51.674 18.2804 50.9663 17.8158 50.1884 17.5033C49.4106 17.1908 48.5782 17.0366 47.74 17.0499C46.851 17.0153 45.9641 17.1605 45.1326 17.4769C44.3011 17.7932 43.5419 18.2742 42.9007 18.8909C42.2595 19.5077 41.7494 20.2475 41.401 21.0661C41.0525 21.8847 40.8729 22.7652 40.8729 23.6549C40.8729 24.5446 41.0525 25.4251 41.401 26.2437C41.7494 27.0623 42.2595 27.8022 42.9007 28.4189C43.5419 29.0357 44.3011 29.5166 45.1326 29.833C45.9641 30.1493 46.851 30.2945 47.74 30.2599C48.5954 30.2941 49.4484 30.1469 50.2429 29.8281C51.0374 29.5092 51.7555 29.0259 52.35 28.4099C53.4001 27.2563 53.9596 25.7391 53.91 24.1799C53.9136 23.8046 53.8834 23.4298 53.82 23.0599H47.74ZM93.05 24.4599C92.7892 23.6927 92.3015 23.0227 91.6515 22.5388C91.0015 22.0548 90.2198 21.7797 89.41 21.7499C88.863 21.7489 88.3216 21.86 87.8192 22.0765C87.3169 22.2929 86.8643 22.6101 86.4894 23.0085C86.1145 23.4068 85.8252 23.8778 85.6396 24.3923C85.4539 24.9068 85.3758 25.454 85.41 25.9999C85.4014 26.9128 85.6884 27.8039 86.2281 28.5402C86.7678 29.2765 87.5312 29.8184 88.4042 30.0851C89.2773 30.3517 90.2132 30.3288 91.0722 30.0196C91.9311 29.7105 92.667 29.1318 93.17 28.3699L91.72 27.3699C91.5038 27.7302 91.1972 28.0277 90.8306 28.2329C90.464 28.4382 90.0501 28.544 89.63 28.5399C89.1965 28.5578 88.7678 28.4442 88.4002 28.214C88.0325 27.9837 87.7431 27.6477 87.57 27.2499L93.26 24.8999L93.05 24.4599ZM87.25 25.8799C87.2297 25.5693 87.2716 25.2578 87.3733 24.9635C87.4749 24.6693 87.6342 24.3983 87.8419 24.1664C88.0495 23.9346 88.3014 23.7464 88.5827 23.6131C88.8639 23.4798 89.169 23.4039 89.48 23.3899C89.8022 23.3703 90.123 23.4461 90.4023 23.608C90.6816 23.7699 90.9069 24.0106 91.05 24.2999L87.25 25.8799ZM82.63 29.9999H84.5V17.4999H82.63V29.9999ZM79.57 22.6999H79.5C79.2206 22.3818 78.8759 22.1277 78.4893 21.9551C78.1027 21.7825 77.6833 21.6955 77.26 21.6999C76.1672 21.7529 75.1366 22.2243 74.382 23.0165C73.6273 23.8087 73.2063 24.8608 73.2063 25.9549C73.2063 27.049 73.6273 28.1012 74.382 28.8933C75.1366 29.6855 76.1672 30.1569 77.26 30.2099C77.6839 30.2184 78.1046 30.1332 78.4918 29.9603C78.879 29.7875 79.2233 29.5312 79.5 29.2099H79.57V29.8199C79.57 31.4499 78.7 32.3199 77.3 32.3199C76.8323 32.3096 76.3782 32.1606 75.9954 31.8918C75.6126 31.6229 75.3183 31.2464 75.15 30.8099L73.53 31.4799C73.8295 32.2322 74.3502 32.8758 75.0234 33.3258C75.6965 33.7757 76.4904 34.0108 77.3 33.9999C79.49 33.9999 81.3 32.7099 81.3 29.5699V21.9999H79.57V22.6999ZM77.42 28.5799C76.7648 28.5391 76.1498 28.25 75.7003 27.7716C75.2508 27.2932 75.0005 26.6614 75.0005 26.0049C75.0005 25.3485 75.2508 24.7167 75.7003 24.2383C76.1498 23.7598 76.7648 23.4708 77.42 23.4299C77.7402 23.4437 78.0544 23.5218 78.3438 23.6596C78.6333 23.7973 78.8921 23.9918 79.1048 24.2316C79.3175 24.4714 79.4798 24.7515 79.5821 25.0553C79.6843 25.3591 79.7244 25.6803 79.7 25.9999C79.7273 26.3206 79.6892 26.6435 79.5881 26.9491C79.4871 27.2546 79.3251 27.5365 79.1119 27.7777C78.8988 28.0189 78.639 28.2143 78.3482 28.3522C78.0574 28.4901 77.7416 28.5676 77.42 28.5799ZM101.81 17.4999H97.33V29.9999H99.2V25.2599H101.81C102.343 25.2982 102.878 25.2263 103.382 25.0487C103.886 24.871 104.348 24.5915 104.739 24.2274C105.13 23.8634 105.442 23.4227 105.655 22.9328C105.869 22.4428 105.979 21.9142 105.979 21.3799C105.979 20.8456 105.869 20.317 105.655 19.8271C105.442 19.3372 105.13 18.8965 104.739 18.5324C104.348 18.1684 103.886 17.8888 103.382 17.7112C102.878 17.5336 102.343 17.4616 101.81 17.4999ZM101.81 23.4999H99.2V19.2399H101.85C102.131 19.2399 102.409 19.2953 102.669 19.4028C102.929 19.5104 103.164 19.668 103.363 19.8667C103.562 20.0654 103.72 20.3013 103.827 20.561C103.935 20.8206 103.99 21.0989 103.99 21.3799C103.99 21.661 103.935 21.9392 103.827 22.1989C103.72 22.4585 103.562 22.6944 103.363 22.8931C103.164 23.0918 102.929 23.2495 102.669 23.357C102.409 23.4646 102.131 23.5199 101.85 23.5199L101.81 23.4999ZM113.35 21.7099C112.669 21.6679 111.991 21.8265 111.399 22.1659C110.807 22.5054 110.328 23.0109 110.02 23.6199L111.67 24.3099C111.837 24.0093 112.087 23.7634 112.39 23.602C112.694 23.4405 113.038 23.3703 113.38 23.3999C113.617 23.3722 113.858 23.392 114.088 23.4582C114.317 23.5245 114.531 23.6358 114.718 23.7856C114.904 23.9355 115.058 24.1209 115.172 24.3311C115.286 24.5413 115.356 24.7721 115.38 25.0099V25.1299C114.779 24.8138 114.109 24.6491 113.43 24.6499C111.65 24.6499 109.83 25.6499 109.83 27.4699C109.848 27.8568 109.943 28.2361 110.11 28.5855C110.277 28.9348 110.513 29.247 110.803 29.5035C111.093 29.7601 111.431 29.9557 111.799 30.0787C112.166 30.2018 112.554 30.2498 112.94 30.2199C113.409 30.2459 113.877 30.1466 114.295 29.9322C114.713 29.7178 115.067 29.3961 115.32 28.9999H115.38V29.9999H117.18V25.1899C117.18 22.9999 115.52 21.7299 113.39 21.7299L113.35 21.7099ZM113.12 28.5599C112.51 28.5599 111.66 28.2499 111.66 27.4999C111.66 26.4999 112.72 26.1599 113.66 26.1599C114.254 26.1453 114.841 26.2903 115.36 26.5799C115.297 27.123 115.04 27.6249 114.635 27.9926C114.231 28.3604 113.707 28.569 113.16 28.5799L113.12 28.5599ZM123.74 21.9999L121.6 27.4199H121.54L119.32 21.9999H117.32L120.65 29.5799L118.75 33.7899H120.7L125.82 21.9999H123.74ZM106.94 29.9999H108.8V17.4999H106.94V29.9999Z" fill="black"/>
<path d="M10.44 7.53875C10.1105 7.92837 9.94233 8.42921 9.97 8.93875V31.0588C9.93597 31.5691 10.1049 32.0723 10.44 32.4587L10.51 32.5388L22.9 20.1488V19.8488L10.51 7.46875L10.44 7.53875Z" fill="url(#paint0_linear)"/>
<path d="M27 24.2787L22.9 20.1488V19.8488L27 15.7188L27.09 15.7788L32 18.5588C33.4 19.3488 33.4 20.6488 32 21.4488L27.11 24.2288L27 24.2787Z" fill="url(#paint1_linear)"/>
<path d="M27.1199 24.22L22.8999 20L10.4399 32.46C10.7225 32.7115 11.0842 32.8562 11.4623 32.869C11.8404 32.8818 12.211 32.7619 12.5099 32.53L27.1199 24.22Z" fill="url(#paint2_linear)"/>
<path d="M27.1199 15.7805L12.5099 7.48046C12.213 7.24537 11.8426 7.12251 11.464 7.13349C11.0854 7.14446 10.7228 7.28857 10.4399 7.54046L22.8999 20.0005L27.1199 15.7805Z" fill="url(#paint3_linear)"/>
<path opacity="0.2" d="M26.9999 24.1289L12.5099 32.3789C12.2219 32.5963 11.8708 32.7139 11.5099 32.7139C11.1491 32.7139 10.798 32.5963 10.5099 32.3789L10.4399 32.4489L10.5099 32.5289C10.798 32.7463 11.1491 32.8639 11.5099 32.8639C11.8708 32.8639 12.2219 32.7463 12.5099 32.5289L27.1199 24.2189L26.9999 24.1289Z" fill="black"/>
<path opacity="0.12" d="M10.44 32.3202C10.1188 31.9235 9.96138 31.4191 10 30.9102V31.0602C9.96597 31.5705 10.1349 32.0737 10.47 32.4602L10.54 32.3902L10.44 32.3202Z" fill="black"/>
<path opacity="0.12" d="M32 21.3L27 24.13L27.09 24.22L32 21.44C32.2898 21.3174 32.5413 21.119 32.7278 20.8656C32.9143 20.6122 33.0291 20.3132 33.06 20C32.9975 20.2846 32.869 20.5505 32.6849 20.7763C32.5007 21.0021 32.2662 21.1815 32 21.3Z" fill="black"/>
<path opacity="0.25" d="M12.51 7.62096L32 18.701C32.2661 18.8195 32.5007 18.9989 32.6848 19.2247C32.869 19.4505 32.9975 19.7164 33.06 20.001C33.0291 19.6878 32.9143 19.3888 32.7278 19.1354C32.5412 18.8819 32.2898 18.6835 32 18.561L12.51 7.48095C11.12 6.68095 9.96997 7.34096 9.96997 8.94096V9.09096C9.99997 7.49096 11.12 6.83096 12.51 7.62096Z" fill="white"/>
<path d="M42.11 14.27H41.38V12.27H42C42.279 11.9672 42.4887 11.6073 42.6148 11.2153C42.7408 10.8234 42.7801 10.4087 42.73 10V7H46.73V12.26H47.4V14.26H46.66V13H42.11V14.27ZM43.5 10C43.5446 10.8033 43.346 11.6014 42.93 12.29H45.93V7.74H43.5V10Z" fill="black"/>
<path d="M53.41 12.2201C53.122 12.5088 52.7799 12.7379 52.4032 12.8942C52.0266 13.0506 51.6228 13.131 51.215 13.131C50.8072 13.131 50.4034 13.0506 50.0267 12.8942C49.6501 12.7379 49.308 12.5088 49.02 12.2201C48.4479 11.6226 48.1285 10.8273 48.1285 10.0001C48.1285 9.17286 48.4479 8.37758 49.02 7.78008C49.308 7.49133 49.6501 7.26223 50.0267 7.10592C50.4034 6.9496 50.8072 6.86914 51.215 6.86914C51.6228 6.86914 52.0266 6.9496 52.4032 7.10592C52.7799 7.26223 53.122 7.49133 53.41 7.78008C53.6989 8.07208 53.9264 8.41891 54.0793 8.80016C54.2321 9.18142 54.3072 9.58939 54.3 10.0001C54.3118 10.4114 54.2389 10.8207 54.0858 11.2026C53.9327 11.5845 53.7026 11.9309 53.41 12.2201ZM49.58 11.7201C49.7907 11.9389 50.0441 12.1122 50.3245 12.2292C50.6048 12.3461 50.9062 12.4043 51.21 12.4001C51.514 12.4061 51.8159 12.3488 52.0966 12.2317C52.3772 12.1146 52.6304 11.9404 52.84 11.7201C53.2715 11.2512 53.511 10.6373 53.511 10.0001C53.511 9.36288 53.2715 8.74896 52.84 8.28008C52.6304 8.05979 52.3772 7.88555 52.0966 7.76848C51.8159 7.65141 51.514 7.59406 51.21 7.60008C50.9062 7.59587 50.6048 7.65404 50.3245 7.77101C50.0441 7.88797 49.7907 8.06124 49.58 8.28008C49.1548 8.75209 48.9196 9.36483 48.9196 10.0001C48.9196 10.6353 49.1548 11.2481 49.58 11.7201Z" fill="black"/>
<path d="M58.18 13.1304C57.7754 13.1367 57.3737 13.0612 56.999 12.9082C56.6244 12.7552 56.2846 12.5281 56 12.2404C55.423 11.6374 55.101 10.835 55.101 10.0004C55.101 9.16579 55.423 8.36338 56 7.76038C56.2892 7.46772 56.6356 7.23769 57.0175 7.08458C57.3994 6.93147 57.8087 6.85856 58.22 6.87038C58.6387 6.85853 59.0545 6.94247 59.4357 7.11577C59.817 7.28908 60.1537 7.54718 60.42 7.87038L59.89 8.39038C59.6936 8.1378 59.4394 7.93604 59.1488 7.80206C58.8582 7.66807 58.5397 7.60577 58.22 7.62038C57.9122 7.61253 57.6061 7.66794 57.3205 7.78318C57.035 7.89843 56.7761 8.07106 56.56 8.29038C56.1293 8.76359 55.8905 9.38048 55.8905 10.0204C55.8905 10.6603 56.1293 11.2772 56.56 11.7504C56.7761 11.9697 57.035 12.1423 57.3205 12.2576C57.6061 12.3728 57.9122 12.4282 58.22 12.4204C58.5636 12.4106 58.901 12.3259 59.2084 12.1722C59.5159 12.0184 59.786 11.7994 60 11.5304L60.54 12.0604C60.2661 12.3887 59.9251 12.6546 59.54 12.8404C59.1146 13.0391 58.6495 13.1383 58.18 13.1304Z" fill="black"/>
<path d="M63.68 13H62.91V7.74H61.23V7H65.35V7.74H63.68V13Z" fill="black"/>
<path d="M70.65 7L68.38 12.06C68.325 12.2629 68.2265 12.4514 68.0913 12.6124C67.9562 12.7734 67.7877 12.9031 67.5974 12.9925C67.4072 13.0819 67.1997 13.1289 66.9895 13.1302C66.7793 13.1315 66.5713 13.0871 66.38 13L66.58 12.29C66.7024 12.3588 66.8397 12.3965 66.98 12.4C67.128 12.4074 67.2747 12.369 67.4 12.29C67.5215 12.1889 67.6145 12.058 67.67 11.91L67.89 11.43L65.89 7H66.8L68.28 10.44L69.74 7H70.65Z" fill="black"/>
<path d="M71.52 13V7H75.86V13H75.09V7.74H72.29V13H71.52Z" fill="black"/>
<path d="M77.23 13V7H78V9.57H81V7H81.78V13H81V10.29H78V13H77.23Z" fill="black"/>
<path d="M88.06 12.2201C87.7712 12.5091 87.4282 12.7385 87.0507 12.8949C86.6732 13.0514 86.2686 13.1319 85.86 13.1319C85.4514 13.1319 85.0468 13.0514 84.6693 12.8949C84.2918 12.7385 83.9488 12.5091 83.66 12.2201C83.0879 11.6226 82.7686 10.8273 82.7686 10.0001C82.7686 9.17286 83.0879 8.37758 83.66 7.78008C83.948 7.49133 84.2901 7.26223 84.6667 7.10592C85.0434 6.9496 85.4472 6.86914 85.855 6.86914C86.2628 6.86914 86.6666 6.9496 87.0433 7.10592C87.4199 7.26223 87.762 7.49133 88.05 7.78008C88.6176 8.3799 88.9338 9.17431 88.9338 10.0001C88.9338 10.8259 88.6176 11.6203 88.05 12.2201H88.06ZM84.23 11.7201C84.4396 11.9404 84.6928 12.1146 84.9734 12.2317C85.254 12.3488 85.556 12.4061 85.86 12.4001C86.1638 12.4043 86.4652 12.3461 86.7455 12.2292C87.0259 12.1122 87.2793 11.9389 87.49 11.7201C87.9151 11.2481 88.1504 10.6353 88.1504 10.0001C88.1504 9.36483 87.9151 8.75209 87.49 8.28008C87.2793 8.06124 87.0259 7.88797 86.7455 7.77101C86.4652 7.65404 86.1638 7.59587 85.86 7.60008C85.556 7.59406 85.254 7.65141 84.9734 7.76848C84.6928 7.88555 84.4396 8.05979 84.23 8.28008C83.7985 8.74896 83.559 9.36288 83.559 10.0001C83.559 10.6373 83.7985 11.2512 84.23 11.7201Z" fill="black"/>
<path d="M92.09 13.0001V7.00009H94.26C94.7098 6.99558 95.1451 7.15968 95.48 7.46009C95.6471 7.6051 95.7803 7.78507 95.8701 7.98725C95.96 8.18943 96.0043 8.40888 96 8.63009C96.0024 8.89947 95.9259 9.16366 95.78 9.39009C95.6324 9.6048 95.4281 9.77441 95.19 9.88009C95.4787 9.97881 95.7323 10.1595 95.92 10.4001C96.1038 10.6452 96.2021 10.9438 96.2 11.2501C96.2051 11.4806 96.1593 11.7094 96.066 11.9203C95.9727 12.1312 95.8341 12.3189 95.66 12.4701C95.3129 12.7931 94.854 12.9687 94.38 12.9601L92.09 13.0001ZM92.86 9.57009H94.26C94.391 9.57767 94.522 9.55552 94.6432 9.5053C94.7644 9.45508 94.8727 9.37809 94.96 9.28009C95.1295 9.11392 95.2266 8.88748 95.23 8.65009C95.2394 8.41196 95.1571 8.17928 95 8.00009C94.9159 7.90683 94.8122 7.83336 94.6964 7.78494C94.5805 7.73653 94.4554 7.71438 94.33 7.72009H92.89L92.86 9.57009ZM92.86 12.2601H94.42C94.5554 12.2646 94.6902 12.2392 94.8146 12.1856C94.9391 12.132 95.0502 12.0516 95.14 11.9501C95.3126 11.7657 95.4091 11.5227 95.41 11.2701C95.4039 11.0196 95.304 10.7805 95.13 10.6001C95.0336 10.4989 94.917 10.419 94.7878 10.3656C94.6586 10.3122 94.5197 10.2865 94.38 10.2901H92.86V12.2601Z" fill="black"/>
<defs>
<linearGradient id="paint0_linear" x1="21.8" y1="8.70875" x2="5.02" y2="25.4888" gradientUnits="userSpaceOnUse">
<stop stop-color="#00A0FF"/>
<stop offset="0.01" stop-color="#00A1FF"/>
<stop offset="0.26" stop-color="#00BEFF"/>
<stop offset="0.51" stop-color="#00D2FF"/>
<stop offset="0.76" stop-color="#00DFFF"/>
<stop offset="1" stop-color="#00E3FF"/>
</linearGradient>
<linearGradient id="paint1_linear" x1="33.83" y1="19.9987" x2="9.64003" y2="19.9987" gradientUnits="userSpaceOnUse">
<stop stop-color="#FFE000"/>
<stop offset="0.41" stop-color="#FFBD00"/>
<stop offset="0.78" stop-color="#FFA500"/>
<stop offset="1" stop-color="#FF9C00"/>
</linearGradient>
<linearGradient id="paint2_linear" x1="24.8299" y1="22.3" x2="2.06994" y2="45.05" gradientUnits="userSpaceOnUse">
<stop stop-color="#FF3A44"/>
<stop offset="1" stop-color="#C31162"/>
</linearGradient>
<linearGradient id="paint3_linear" x1="7.29994" y1="0.180458" x2="17.4599" y2="10.3405" gradientUnits="userSpaceOnUse">
<stop stop-color="#32A071"/>
<stop offset="0.07" stop-color="#2DA771"/>
<stop offset="0.48" stop-color="#15CF74"/>
<stop offset="0.8" stop-color="#06E775"/>
<stop offset="1" stop-color="#00F076"/>
</linearGradient>
</defs>
</svg>
