<svg width="136" height="96" viewBox="0 0 136 96" fill="none" xmlns="http://www.w3.org/2000/svg">
<path fill-rule="evenodd" clip-rule="evenodd" d="M73.2244 77.5317C48.8568 72.645 34.8709 88.3395 23.7282 79.0728C12.5856 69.806 5.67831 31.1853 60.2873 22.7212C114.896 14.2572 130.957 82.9082 112.931 91.6402C94.9047 100.372 97.5919 82.4184 73.2244 77.5317Z" fill="#F1F4FC"/>
<path fill-rule="evenodd" clip-rule="evenodd" d="M88.4283 30.6533C89.1368 30.392 89.9027 30.2493 90.702 30.2493C94.1864 30.2493 97.0374 32.9611 97.2598 36.3892C97.5944 36.3407 97.9367 36.3156 98.2848 36.3156C102.194 36.3156 105.362 39.4842 105.362 43.3928C105.362 47.3015 102.194 50.4701 98.2848 50.4701H73.0088H73.0087C67.9832 50.4701 63.9093 46.3962 63.9093 41.3708C63.9093 36.9744 67.0271 33.3062 71.1723 32.4568C72.0219 28.3118 75.69 25.1941 80.0862 25.1941C83.8174 25.1941 87.024 27.4398 88.4283 30.6533Z" fill="#4D43D8"/>
<path fill-rule="evenodd" clip-rule="evenodd" d="M38.5785 52.0004C43.604 52.0004 47.6779 47.9264 47.6779 42.901C47.6779 37.8755 43.604 33.8016 38.5785 33.8016C33.5531 33.8016 29.4791 37.8755 29.4791 42.901C29.4791 47.9264 33.5531 52.0004 38.5785 52.0004Z" fill="#564CEF"/>
<path fill-rule="evenodd" clip-rule="evenodd" d="M49.1533 46.0981C58.6609 46.0981 66.3684 38.3906 66.3684 28.883C66.3684 19.3754 58.6609 11.668 49.1533 11.668C39.6457 11.668 31.9383 19.3754 31.9383 28.883C31.9383 38.3906 39.6457 46.0981 49.1533 46.0981Z" fill="#F1F4FC"/>
<path fill-rule="evenodd" clip-rule="evenodd" d="M53.6601 24.2506C30.0536 33.3122 41.9157 53.3303 41.9157 53.3303C41.9157 53.3303 39.8493 63.2578 39.9198 64.3639C39.9904 65.4701 45.2161 64.8801 45.2161 64.8801L45.5367 68.2977L47.1308 69.3141L46.9203 71.1653C46.9203 71.1653 48.8514 72.6899 49.2441 74.4512C51.2185 81.6236 62.8508 75.9551 62.8508 75.9551C62.8508 75.9551 65.6703 83.9559 71.7863 84.6258C77.9022 85.2958 83.807 82.9804 85.5636 75.9551C87.3201 68.9298 79.9731 56.2146 81.6173 50.9638C82.8511 47.0246 82.6241 40.029 81.2894 36.5519C77.0567 25.5253 64.6867 20.0178 53.6601 24.2506Z" fill="#FFE7CE"/>
<path fill-rule="evenodd" clip-rule="evenodd" d="M62.6795 49.787C68.1124 49.787 72.5166 45.3828 72.5166 39.9498C72.5166 34.5169 68.1124 30.1127 62.6795 30.1127C57.2465 30.1127 52.8423 34.5169 52.8423 39.9498C52.8423 45.3828 57.2465 49.787 62.6795 49.787Z" fill="#FF9690"/>
<path fill-rule="evenodd" clip-rule="evenodd" d="M65.2879 7.38833C64.407 7.06345 63.4547 6.88604 62.4609 6.88604C58.129 6.88604 54.5844 10.2574 54.308 14.5195C53.8919 14.4591 53.4664 14.4279 53.0337 14.4279C48.1742 14.4279 44.2349 18.3672 44.2349 23.2267C44.2349 28.0861 48.1742 32.0255 53.0337 32.0255L53.0438 32.0255H84.4579L84.4582 32.0255C90.706 32.0255 95.7709 26.9606 95.7709 20.7127C95.7709 15.247 91.8947 10.6866 86.7413 9.63046C85.6851 4.4772 81.1247 0.601173 75.6591 0.601173C71.0204 0.601173 67.0337 3.39315 65.2879 7.38833Z" fill="#6157FF"/>
<path fill-rule="evenodd" clip-rule="evenodd" d="M71.9732 19.0708C70.9747 20.011 64.4181 39.1553 65.256 40.3356C66.0939 41.516 71.6361 38.0592 71.9732 38.8034C72.3102 39.5477 65.4712 56.1628 66.0939 56.5362C66.7166 56.9097 82.7445 33.2862 81.5099 30.5041C80.2753 27.722 74.4721 33.218 74.0924 32.3208C73.7127 31.4235 80.8692 16.3925 80.185 15.5751C79.5007 14.7576 78.6638 17.4278 76.6002 18.2695C74.0849 19.2953 72.9716 18.1307 71.9732 19.0708Z" fill="white"/>
</svg>
