<svg width="600" height="480" viewBox="0 0 600 480" fill="none" xmlns="http://www.w3.org/2000/svg">
<path fill-rule="evenodd" clip-rule="evenodd" d="M150.809 125.041C252.995 171.345 272.198 85.2577 354.253 73.0432C436.308 60.8287 547.71 102.164 531.393 229.942C515.076 357.72 332.324 427.814 176.269 356.517C73.3895 309.514 47.2642 271.489 32.4838 234.338C17.7035 197.188 48.6234 78.7378 150.809 125.041Z" fill="#F1F4FC"/>
<path fill-rule="evenodd" clip-rule="evenodd" d="M59.6742 104.226C69.0886 101.08 83.6992 89.1952 71.9743 81.8666C60.2494 74.538 57.5096 87.1585 49.2656 84.6854C41.0215 82.2122 31.3505 85.3038 32.5809 95.5304C33.8112 105.757 50.2598 107.372 59.6742 104.226Z" fill="#F1F4FC"/>
<path d="M373 53.707L364.979 43.3149C358.31 48.4658 349.837 52.4419 341.095 55.5143L248.533 28.3143C243.666 20.814 239.61 12.8618 237.447 5L224.739 8.43389C231.138 32.3807 251.958 55.7854 264.395 68.0751C239.79 72.6837 206.082 84.7023 192.382 115.788C176.069 152.838 207.164 188.623 226.812 206.515C186.434 209.949 157.232 228.835 146.597 258.565C137.224 284.862 145.065 314.953 166.606 335.105C169.67 337.906 172.464 340.798 175.258 343.69C143.172 351.642 122.262 361.944 121 362.486L126.859 374.324C127.039 374.233 132.447 371.613 141.82 367.998L210.949 387.427C221.134 402.427 226.361 412.819 226.451 413L238.258 407.126C237.897 406.403 233.752 398.09 225.73 385.71L226 384.716L224.829 384.354C218.79 375.137 210.588 363.751 200.404 351.732C207.164 350.557 214.194 349.563 221.584 348.75C230.958 347.756 239.88 345.226 247.902 341.25C264.936 332.755 278.095 318.116 283.773 300.043C292.425 272.662 283.503 243.113 259.258 217.449C286.026 213.563 322.528 201.997 330.73 167.477C334.155 152.928 332.352 139.012 327.846 126.451L328.387 124.553L326.945 124.102C319.284 104.492 305.314 88.2266 294.949 78.0153C305.134 77.3827 348.035 72.9548 373 53.707ZM221.314 99.9741L313.876 127.264C317.752 136.391 320.005 146.151 319.284 156.272L204.099 121.752C204.189 121.571 204.279 121.3 204.37 121.12C208.245 112.354 214.284 105.486 221.314 99.9741ZM205 378.842L152.546 364.112C161.649 361.04 172.915 357.696 185.623 354.805C193.104 363.209 199.503 371.341 205 378.842ZM220.322 335.738C209.687 336.822 199.683 338.358 190.309 340.256C185.713 335.376 180.846 330.406 175.619 325.526C166.335 316.851 160.206 305.917 157.503 294.441L252.949 322.544C243.936 329.773 232.67 334.472 220.322 335.738ZM271.245 296.157C268.722 304.2 264.305 311.429 258.537 317.393L156.151 287.211C155.34 279.078 156.151 270.855 158.945 262.993C161.919 254.589 166.876 247.179 173.455 240.944L273.138 270.313C274.49 279.078 273.949 287.753 271.245 296.157ZM271.516 262.993L179.494 235.884C192.292 226.486 209.597 220.702 230.327 219.347C231.679 219.347 236.005 219.437 242.134 219.166C257.365 232.902 267.37 247.902 271.516 262.993ZM246.37 205.702C238.979 200.009 216.086 181.122 205.902 158.35L303.061 187.448C286.928 200.28 262.322 204.437 246.37 205.702ZM308.649 182.207L203.018 150.579C200.855 143.259 200.224 135.668 202.026 127.987L318.292 162.778C318.202 163.32 318.202 163.953 318.022 164.495C316.4 171.544 313.065 177.327 308.649 182.207ZM228.254 95.0944C244.297 85.2445 263.674 81.1781 277.013 79.4611C283.683 85.1542 299.726 100.064 310.091 119.222L228.254 95.0944ZM281.069 65.7256C277.644 62.6532 265.477 51.3575 254.571 36.9894L329.558 58.9482C310.181 64.0086 292.606 65.093 292.516 65.093C291.794 65.093 287.558 65.1834 281.069 65.7256Z" fill="#E3E9F8"/>
<path d="M196.011 288.866L193.916 296.003L319.924 332.997L322.019 325.861L196.011 288.866Z" fill="#E3E9F8"/>
<path opacity="0.25" d="M328.597 154.065C330.362 153.191 331.085 151.052 330.211 149.287C329.338 147.522 327.199 146.799 325.434 147.673C323.669 148.547 322.946 150.686 323.82 152.451C324.693 154.216 326.832 154.938 328.597 154.065Z" fill="white"/>
<path opacity="0.25" d="M242.35 176.704C246.435 174.682 248.107 169.732 246.086 165.647C244.064 161.563 239.113 159.89 235.029 161.912C230.944 163.934 229.272 168.884 231.294 172.969C233.316 177.054 238.266 178.726 242.35 176.704Z" fill="white"/>
<path opacity="0.25" d="M524.03 297.832C528.115 295.81 529.787 290.86 527.766 286.775C525.744 282.691 520.794 281.018 516.709 283.04C512.624 285.062 510.952 290.012 512.974 294.097C514.996 298.181 519.946 299.854 524.03 297.832Z" fill="white"/>
<path opacity="0.25" d="M231.526 113.155C235.056 111.407 236.501 107.129 234.754 103.599C233.006 100.069 228.728 98.6243 225.198 100.371C221.668 102.119 220.223 106.397 221.971 109.927C223.718 113.457 227.996 114.902 231.526 113.155Z" fill="white"/>
<path opacity="0.25" d="M464.315 393.563C466.685 392.39 467.656 389.517 466.482 387.147C465.309 384.777 462.437 383.807 460.067 384.98C457.697 386.153 456.726 389.025 457.9 391.395C459.073 393.766 461.945 394.736 464.315 393.563Z" fill="white"/>
<path opacity="0.25" d="M562.788 149.174C567.478 146.853 569.398 141.169 567.077 136.48C564.755 131.79 559.072 129.87 554.382 132.191C549.692 134.512 547.772 140.196 550.093 144.886C552.415 149.576 558.098 151.496 562.788 149.174Z" fill="white"/>
<path opacity="0.25" d="M313.213 89.7524C315.583 88.5793 316.553 85.7069 315.38 83.3368C314.207 80.9667 311.335 79.9964 308.965 81.1695C306.594 82.3427 305.624 85.215 306.797 87.5851C307.97 89.9552 310.843 90.9256 313.213 89.7524Z" fill="white"/>
<path d="M353.481 436.374C355.852 435.2 356.822 432.328 355.649 429.958C354.476 427.588 351.603 426.617 349.233 427.791C346.863 428.964 345.893 431.836 347.066 434.206C348.239 436.576 351.111 437.547 353.481 436.374Z" fill="white"/>
<path opacity="0.25" d="M336.042 337.336C337.807 336.462 338.529 334.323 337.656 332.558C336.782 330.793 334.643 330.071 332.878 330.944C331.113 331.818 330.391 333.957 331.264 335.722C332.138 337.487 334.277 338.209 336.042 337.336Z" fill="white"/>
<path opacity="0.25" d="M520.061 228.54C522.431 227.367 523.401 224.494 522.228 222.124C521.055 219.754 518.183 218.784 515.813 219.957C513.443 221.13 512.472 224.002 513.645 226.372C514.819 228.743 517.691 229.713 520.061 228.54Z" fill="white"/>
<path opacity="0.25" d="M487.788 344.943C491.318 343.195 492.763 338.917 491.016 335.387C489.269 331.857 484.991 330.412 481.461 332.16C477.931 333.907 476.486 338.185 478.233 341.715C479.98 345.245 484.258 346.69 487.788 344.943Z" fill="white"/>
<path opacity="0.25" d="M570.462 351.583C572.832 350.409 573.802 347.537 572.629 345.167C571.456 342.797 568.583 341.826 566.213 343C563.843 344.173 562.873 347.045 564.046 349.415C565.219 351.785 568.092 352.756 570.462 351.583Z" fill="white"/>
<path d="M165.537 421.337C166.188 417.967 163.985 414.707 160.615 414.055C157.245 413.404 153.985 415.607 153.333 418.977C152.682 422.347 154.886 425.607 158.256 426.259C161.625 426.91 164.885 424.706 165.537 421.337Z" fill="white"/>
<path opacity="0.25" d="M231.696 265.831C232.348 262.462 230.144 259.202 226.774 258.55C223.404 257.899 220.144 260.102 219.493 263.472C218.841 266.842 221.045 270.102 224.415 270.754C227.785 271.405 231.045 269.201 231.696 265.831Z" fill="white"/>
<path opacity="0.25" d="M94.9152 360.546C95.4706 357.674 93.592 354.895 90.7193 354.339C87.8466 353.784 85.0676 355.663 84.5123 358.535C83.9569 361.408 85.8355 364.187 88.7082 364.742C91.5809 365.298 94.3599 363.419 94.9152 360.546Z" fill="white"/>
<path opacity="0.25" d="M261.408 344.299C261.782 342.365 260.518 340.495 258.584 340.121C256.65 339.747 254.78 341.012 254.406 342.945C254.032 344.879 255.297 346.749 257.23 347.123C259.164 347.497 261.034 346.232 261.408 344.299Z" fill="white"/>
<path opacity="0.25" d="M161.101 175.86C161.837 172.048 159.345 168.361 155.533 167.624C151.721 166.887 148.034 169.38 147.297 173.192C146.56 177.003 149.053 180.691 152.864 181.428C156.676 182.165 160.364 179.672 161.101 175.86Z" fill="white"/>
<path opacity="0.25" d="M114.532 342.821C114.905 340.887 113.641 339.017 111.707 338.643C109.774 338.269 107.903 339.533 107.53 341.467C107.156 343.401 108.42 345.271 110.354 345.645C112.287 346.019 114.158 344.754 114.532 342.821Z" fill="white"/>
<path d="M236.835 429.125C237.209 427.191 235.944 425.321 234.011 424.947C232.077 424.573 230.207 425.837 229.833 427.771C229.459 429.705 230.723 431.575 232.657 431.949C234.591 432.323 236.461 431.058 236.835 429.125Z" fill="white"/>
<path opacity="0.25" d="M170.342 394.847C170.62 393.411 169.681 392.021 168.244 391.744C166.808 391.466 165.419 392.405 165.141 393.842C164.863 395.278 165.802 396.667 167.239 396.945C168.675 397.223 170.065 396.284 170.342 394.847Z" fill="white"/>
<path opacity="0.25" d="M188.827 236.858C189.201 234.924 187.936 233.053 186.003 232.68C184.069 232.306 182.199 233.57 181.825 235.504C181.451 237.437 182.716 239.308 184.649 239.682C186.583 240.055 188.453 238.791 188.827 236.858Z" fill="white"/>
<path opacity="0.25" d="M243.187 308.392C243.742 305.519 241.864 302.74 238.991 302.185C236.118 301.629 233.339 303.508 232.784 306.381C232.229 309.253 234.107 312.032 236.98 312.588C239.852 313.143 242.631 311.264 243.187 308.392Z" fill="white"/>
<path opacity="0.25" d="M284.419 262.529C284.793 260.595 283.528 258.725 281.595 258.351C279.661 257.977 277.791 259.241 277.417 261.175C277.043 263.109 278.307 264.979 280.241 265.353C282.175 265.727 284.045 264.462 284.419 262.529Z" fill="white"/>
<path opacity="0.2" d="M238.679 118.803C260.68 118.803 278.515 100.967 278.515 78.9665C278.515 56.9656 260.68 39.1304 238.679 39.1304C216.678 39.1304 198.843 56.9656 198.843 78.9665C198.843 100.967 216.678 118.803 238.679 118.803Z" fill="white"/>
<path d="M198.679 142.75C225.069 142.75 246.462 121.357 246.462 94.9668C246.462 68.577 225.069 47.1838 198.679 47.1838C172.29 47.1838 150.896 68.577 150.896 94.9668C150.896 121.357 172.29 142.75 198.679 142.75Z" fill="white"/>
<path opacity="0.2" d="M506.019 260.827C528.02 260.827 545.856 242.992 545.856 220.991C545.856 198.99 528.02 181.155 506.019 181.155C484.019 181.155 466.183 198.99 466.183 220.991C466.183 242.992 484.019 260.827 506.019 260.827Z" fill="white"/>
<path d="M506.019 268.672C532.353 268.672 553.7 247.325 553.7 220.991C553.7 194.658 532.353 173.31 506.019 173.31C479.686 173.31 458.338 194.658 458.338 220.991C458.338 247.325 479.686 268.672 506.019 268.672Z" fill="white"/>
<path opacity="0.2" d="M418.808 136.327C442.384 136.327 461.496 117.214 461.496 93.6378C461.496 70.0614 442.384 50.949 418.808 50.949C395.231 50.949 376.119 70.0614 376.119 93.6378C376.119 117.214 395.231 136.327 418.808 136.327Z" fill="white"/>
<path d="M418.808 144.783C447.055 144.783 469.953 121.884 469.953 93.6377C469.953 65.3911 447.055 42.4927 418.808 42.4927C390.562 42.4927 367.663 65.3911 367.663 93.6377C367.663 121.884 390.562 144.783 418.808 144.783Z" fill="white"/>
<path d="M206.525 108.924C210.702 111.675 216.407 110.555 219.158 106.377C221.909 102.2 220.788 96.4948 216.611 93.7439L204.181 85.4915L194.095 100.774L206.525 108.924Z" fill="#828EFA"/>
<path d="M202.347 84.2689L190.019 76.0164C185.842 73.2656 180.136 74.3863 177.386 78.5635C174.635 82.7406 175.755 88.4461 179.933 91.1969L192.362 99.4494L202.347 84.2689ZM184.925 77.4427C185.434 76.6277 186.555 76.4239 187.268 76.9333C188.083 77.4427 188.287 78.5635 187.778 79.2766C187.268 80.0917 186.147 80.2955 185.434 79.786C184.619 79.2766 184.415 78.2578 184.925 77.4427ZM194.807 85.3896C195.317 84.5745 196.438 84.3708 197.151 84.8802C197.966 85.3896 198.17 86.5103 197.66 87.2235C197.151 88.0385 196.03 88.2423 195.317 87.7329C194.502 87.2235 194.196 86.1028 194.807 85.3896ZM187.166 84.4726C187.676 83.6576 188.796 83.4538 189.51 83.9632C190.325 84.4726 190.528 85.5934 190.019 86.3065C189.51 87.1216 188.389 87.3254 187.676 86.8159C186.861 86.3065 186.657 85.1858 187.166 84.4726ZM178.914 84.4726C179.423 83.6576 180.544 83.4538 181.257 83.9632C182.072 84.4726 182.276 85.5934 181.766 86.3065C181.257 87.1216 180.136 87.3254 179.423 86.8159C178.608 86.3065 178.404 85.2877 178.914 84.4726ZM188.389 90.7894C188.898 89.9743 190.019 89.7705 190.732 90.28C191.547 90.7894 191.751 91.9101 191.242 92.6233C190.732 93.4383 189.611 93.6421 188.898 93.1327C188.083 92.6233 187.879 91.6044 188.389 90.7894Z" fill="#ABB3FF"/>
<path opacity="0.2" d="M215.042 364.544C235.243 364.544 251.618 348.168 251.618 327.968C251.618 307.768 235.243 291.392 215.042 291.392C194.842 291.392 178.467 307.768 178.467 327.968C178.467 348.168 194.842 364.544 215.042 364.544Z" fill="white"/>
<path d="M215.043 371.777C239.238 371.777 258.852 352.163 258.852 327.968C258.852 303.773 239.238 284.158 215.043 284.158C190.847 284.158 171.233 303.773 171.233 327.968C171.233 352.163 190.847 371.777 215.043 371.777Z" fill="white"/>
<path d="M193.952 346.002L199.963 340.806L200.371 341.417L193.952 346.002Z" fill="#ABB3FF"/>
<path d="M217.589 333.572L215.959 334.794L210.355 327.357L211.272 326.644L220.034 320.021L225.638 327.459L217.996 333.164L218.913 334.081L227.472 327.561L220.544 318.391L200.575 333.47L198.843 341.926L207.401 342.639L218.71 334.081C218.608 334.081 218.098 333.878 217.589 333.572Z" fill="#828EFA"/>
<path d="M214.839 330.006L211.375 326.644L210.458 327.357L216.061 334.795L217.691 333.572C216.571 332.859 215.348 331.738 214.839 330.006Z" fill="#ABB3FF"/>
<path d="M217.589 333.572C218.099 333.877 218.506 334.081 218.914 334.183L219.016 334.081L218.099 333.164L217.589 333.572Z" fill="#ABB3FF"/>
<path d="M214.735 329.496C214.124 326.338 211.373 326.644 211.373 326.644L214.837 330.006C214.837 329.802 214.735 329.598 214.735 329.496Z" fill="#ABB3FF"/>
<path d="M227.471 328.579L219.728 318.289C219.524 317.984 219.524 317.474 219.83 317.27C220.135 317.067 220.645 317.067 220.849 317.372L228.592 327.662C228.795 327.968 228.795 328.478 228.49 328.681C228.184 328.885 227.777 328.885 227.471 328.579Z" fill="#ABB3FF"/>
<path d="M235.52 322.466L227.777 312.176C227.573 311.871 227.573 311.361 227.879 311.157C228.185 310.954 228.694 310.954 228.898 311.259L236.641 321.549C236.845 321.855 236.845 322.364 236.539 322.568C236.233 322.874 235.724 322.874 235.52 322.466Z" fill="#ABB3FF"/>
<path d="M233.679 318.936L230.671 314.952L223.84 320.109L226.849 324.093L233.679 318.936Z" fill="#ABB3FF"/>
<path opacity="0.2" d="M130.786 232.198C152.787 232.198 170.622 214.363 170.622 192.362C170.622 170.361 152.787 152.526 130.786 152.526C108.785 152.526 90.9498 170.361 90.9498 192.362C90.9498 214.363 108.785 232.198 130.786 232.198Z" fill="white"/>
<path d="M130.786 240.043C157.119 240.043 178.467 218.695 178.467 192.362C178.467 166.028 157.119 144.681 130.786 144.681C104.452 144.681 83.1049 166.028 83.1049 192.362C83.1049 218.695 104.452 240.043 130.786 240.043Z" fill="white"/>
<path d="M133.741 191.445H130.786V188.593H127.832V191.445H124.877V194.4H127.832V197.355H130.786V194.4H133.741V191.445Z" fill="#ABB3FF"/>
<path d="M146.578 179.729H113.771C111.937 179.729 110.409 181.257 110.409 183.091V203.671C110.409 205.505 111.937 207.034 113.771 207.034H146.578C148.411 207.034 149.94 205.505 149.94 203.671V183.193C150.042 181.257 148.513 179.729 146.578 179.729ZM129.767 200.004C125.895 200.004 122.737 196.845 122.737 192.974C122.737 189.102 125.895 185.944 129.767 185.944C133.638 185.944 136.797 189.102 136.797 192.974C136.797 196.845 133.638 200.004 129.767 200.004Z" fill="#828EFA"/>
<path d="M139.242 181.461H137.51V179.831C137.51 178.099 136.797 177.08 136.593 177.08H123.857C123.654 177.08 122.94 178.099 122.94 179.831V181.461H121.208V179.831C121.208 177.284 122.329 175.348 123.857 175.348H136.593C138.121 175.348 139.242 177.284 139.242 179.831V181.461Z" fill="#ABB3FF"/>
<path d="M411.575 87.1171L418.095 104.03L424.616 78.1514L430.423 97.1016H440.815C441.936 94.5545 442.649 91.8037 442.649 88.9509C442.649 80.5966 436.536 73.8723 428.895 73.8723C424.921 73.8723 421.457 75.7062 418.91 78.5589C416.363 75.6043 412.899 73.8723 408.926 73.8723C401.386 73.8723 394.866 80.5966 395.172 88.9509C395.273 91.5999 395.987 94.147 397.005 96.5921H406.073L411.575 87.1171Z" fill="#ABB3FF"/>
<path d="M424.819 85.6909L418.605 110.652L411.269 91.702L407.398 98.4262H398.126C404.443 109.939 418.91 118.497 418.91 118.497C418.91 118.497 433.479 110.448 439.796 99.0375H428.895L424.819 85.6909Z" fill="#828EFA"/>
<path d="M533.221 209.478L532.814 207.543C531.591 207.746 530.165 207.746 528.738 207.543L518.041 197.66C517.837 196.335 517.837 195.011 518.142 193.788L516.207 193.381C515.494 197.049 516.716 201.531 517.531 204.079C513.863 203.06 508.566 202.448 504.592 205.709C499.905 209.58 501.739 216.508 503.166 220.278C497.46 218.036 492.264 218.648 488.902 221.908C485.846 224.863 484.929 229.447 486.457 233.523C486.661 234.134 486.865 234.643 487.068 235.255C482.178 234.236 478.714 234.134 478.51 234.134V236.07C478.51 236.07 479.427 236.07 480.955 236.172L489.004 243.405C489.412 246.156 489.412 247.888 489.412 247.888H491.347C491.347 247.786 491.347 246.36 491.042 244.22L491.144 244.118L491.042 244.017C490.838 242.386 490.532 240.247 489.921 238.005C490.94 238.311 491.959 238.617 492.977 239.024C494.302 239.534 495.728 239.737 497.053 239.737C499.905 239.737 502.656 238.617 504.694 236.579C507.649 233.421 508.464 228.938 506.935 223.844C510.807 225.066 516.512 225.983 519.976 221.908C521.403 220.176 522.116 218.138 522.32 216.203L522.523 215.999L522.32 215.897C522.625 212.739 521.81 209.58 521.097 207.543C522.422 208.154 528.534 210.395 533.221 209.478ZM509.584 205.505L520.282 215.388C520.18 216.916 519.874 218.342 519.059 219.667L505.815 207.339C505.815 207.339 505.815 207.339 505.917 207.237C507.037 206.32 508.26 205.811 509.584 205.505ZM488.8 242.081L482.687 236.579C484.114 236.783 485.846 237.089 487.781 237.496C488.291 239.126 488.597 240.654 488.8 242.081ZM493.793 237.292C492.264 236.681 490.838 236.273 489.412 235.866C489.106 234.949 488.8 233.93 488.393 232.911C487.68 231.077 487.578 229.244 487.985 227.512L498.989 237.7C497.358 238.005 495.525 237.904 493.793 237.292ZM503.268 235.357C502.351 236.273 501.332 236.987 500.109 237.394L488.291 226.493C488.698 225.372 489.412 224.251 490.329 223.436C491.347 222.519 492.468 221.806 493.793 221.399L505.305 231.994C504.898 233.217 504.185 234.338 503.268 235.357ZM505.509 230.874L494.913 221.093C497.257 220.685 500.007 221.093 502.86 222.214C503.064 222.316 503.573 222.621 504.49 223.029C505.611 225.881 505.917 228.53 505.509 230.874ZM505.917 221.5C505.305 220.278 503.471 216.203 503.573 212.433L514.78 222.825C511.826 223.436 508.158 222.316 505.917 221.5ZM515.901 222.417L503.777 211.108C503.981 209.988 504.388 208.867 505.101 208.052L518.448 220.482C518.346 220.584 518.346 220.584 518.346 220.685C517.633 221.5 516.818 222.112 515.901 222.417ZM510.909 205.403C513.762 205.199 516.614 205.912 518.55 206.524C519.059 207.746 520.282 210.803 520.384 214.063L510.909 205.403ZM519.976 204.894C519.671 204.282 518.856 201.939 518.346 199.29L527.006 207.237C524.052 206.626 521.606 205.607 521.606 205.607C521.505 205.607 520.893 205.301 519.976 204.894Z" fill="#828EFA"/>
<path d="M490.759 222.97L490.068 223.719L502.947 235.603L503.638 234.855L490.759 222.97Z" fill="#ABB3FF"/>
<path opacity="0.2" d="M446.413 393.722C468.414 393.722 486.249 375.887 486.249 353.886C486.249 331.885 468.414 314.05 446.413 314.05C424.412 314.05 406.577 331.885 406.577 353.886C406.577 375.887 424.412 393.722 446.413 393.722Z" fill="white"/>
<path d="M446.413 401.567C472.747 401.567 494.095 380.219 494.095 353.886C494.095 327.552 472.747 306.205 446.413 306.205C420.08 306.205 398.732 327.552 398.732 353.886C398.732 380.219 420.08 401.567 446.413 401.567Z" fill="white"/>
<path d="M464.854 354.09C464.854 350.829 462.205 348.079 458.843 348.079C460.066 345.939 460.881 343.29 460.881 340.234C460.881 333.306 456.602 330.453 454.157 329.434C454.157 329.332 454.157 329.23 454.157 329.128C454.157 327.804 453.138 326.785 451.813 326.785C450.489 326.785 449.47 327.804 449.47 329.128C449.47 330.453 450.489 331.472 451.813 331.472C452.527 331.472 453.138 331.166 453.545 330.759C455.685 331.574 459.455 334.019 459.455 340.336C459.455 342.883 458.64 345.837 457.009 348.486C454.768 349.199 453.138 351.033 452.832 353.377C450.591 355.312 447.738 356.841 444.478 357.656C434.697 355.109 429.399 346.856 429.399 340.336C429.399 333.204 434.29 331.064 436.022 330.555C436.429 331.166 437.142 331.574 437.957 331.574C439.282 331.574 440.301 330.555 440.301 329.23C440.301 327.906 439.282 326.887 437.957 326.887C436.633 326.887 435.614 327.906 435.614 329.23C433.475 329.944 427.973 332.389 427.973 340.336C427.973 345.939 430.826 350.116 433.271 352.663C436.123 355.618 439.893 357.859 443.765 358.98V371.512C443.765 375.791 447.229 379.255 451.508 379.255C455.787 379.255 459.251 375.791 459.251 371.512V360.305C462.409 359.897 464.854 357.35 464.854 354.09ZM451.61 377.726C448.146 377.726 445.293 374.874 445.293 371.41V358.878C447.942 358.165 450.693 356.739 453.036 355.007C453.444 357.656 455.481 359.693 458.028 360.101V371.41C457.926 374.874 455.074 377.726 451.61 377.726ZM458.843 356.433C457.519 356.433 456.5 355.414 456.5 354.09C456.5 352.765 457.519 351.746 458.843 351.746C460.168 351.746 461.187 352.765 461.187 354.09C461.187 355.414 460.168 356.433 458.843 356.433Z" fill="#828EFA"/>
<path d="M377.24 383.84H253.554C246.932 383.84 241.532 378.44 241.532 371.817V132.699C241.532 126.077 246.932 120.677 253.554 120.677H377.24C383.862 120.677 389.262 126.077 389.262 132.699V371.817C389.16 378.44 383.862 383.84 377.24 383.84Z" fill="#4E44DB"/>
<path d="M386.205 203.202V164.588C388.345 164.588 390.178 166.32 390.178 168.562V199.228C390.178 201.47 388.446 203.202 386.205 203.202Z" fill="#2A229E"/>
<path d="M244.487 187.919V226.533C242.347 226.533 240.513 224.801 240.513 222.56V191.893C240.615 189.651 242.347 187.919 244.487 187.919Z" fill="#2A229E"/>
<path d="M387.326 248.845H386.205V228.57H387.326C388.956 228.57 390.178 229.895 390.178 231.423V245.992C390.178 247.52 388.854 248.845 387.326 248.845Z" fill="#2A229E"/>
<path d="M373.572 361.731H257.222C251.21 361.731 246.218 356.84 246.218 350.728V137.487C246.218 131.476 251.109 126.484 257.222 126.484H373.47C379.481 126.484 384.473 131.374 384.473 137.487V350.829C384.473 356.84 379.583 361.731 373.572 361.731Z" fill="#BCCBF7"/>
<path d="M315.396 378.337C318.378 378.337 320.796 375.92 320.796 372.938C320.796 369.955 318.378 367.538 315.396 367.538C312.414 367.538 309.996 369.955 309.996 372.938C309.996 375.92 312.414 378.337 315.396 378.337Z" stroke="white" stroke-width="0.4862" stroke-miterlimit="10"/>
<path opacity="0.11" d="M328.03 306.307H215.042C213.004 306.307 211.272 307.937 211.272 310.076V327.906C211.272 329.943 212.902 331.675 215.042 331.675H294.816L300.012 338.094L306.125 331.675H327.928C329.965 331.675 331.697 330.045 331.697 327.906V310.076C331.697 307.937 330.067 306.307 328.03 306.307Z" fill="#2A229E"/>
<path d="M328.03 302.843H215.042C213.004 302.843 211.272 304.473 211.272 306.612V324.442C211.272 326.479 212.902 328.211 215.042 328.211H294.816L300.012 334.63L306.125 328.211H327.928C329.965 328.211 331.697 326.581 331.697 324.442V306.612C331.697 304.473 330.067 302.843 328.03 302.843Z" fill="white"/>
<path d="M288.601 248.335L291.555 278.594H337.097L342.497 237.943L310.302 232.951C310.404 232.951 283.201 230.506 288.601 248.335Z" fill="#828EFA"/>
<path opacity="0.5" d="M283.201 235.906C282.59 237.841 341.172 244.362 350.546 233.46C366.134 215.427 287.175 222.559 283.201 235.906Z" fill="#3EA1DE"/>
<path d="M316.415 117.518C316.415 117.518 293.084 124.446 292.167 131.374C291.148 138.302 292.167 234.377 292.167 234.377C292.167 234.377 337.709 238.351 342.701 234.377C347.693 230.404 353.603 124.854 349.12 121.39C344.637 117.926 328.336 115.48 328.336 115.48L316.415 117.518Z" fill="#828EFA"/>
<path d="M337.711 116.499C337.711 116.499 327.013 137.08 328.032 160.309C329.05 183.64 329.967 281.651 329.967 281.651L354.725 275.742V139.117C354.725 139.117 350.853 125.567 337.711 116.499Z" fill="#F8FDFF"/>
<path opacity="0.47" d="M327.725 200.756L359.92 197.802L351.973 149.713C351.973 149.713 362.875 177.935 325.688 181.908C288.195 185.881 328.744 197.598 328.744 197.598" fill="#ABB3FF"/>
<path d="M310.608 119.454C310.608 119.454 304.699 133.616 303.782 172.229C302.763 210.843 301.337 281.753 301.337 281.753L278.006 279.817C278.006 279.817 286.462 141.562 291.862 131.17C297.262 120.778 310.608 119.454 310.608 119.454Z" fill="#F8FDFF"/>
<path d="M310.709 119.25C310.709 119.25 292.37 123.223 285.952 128.216C279.533 133.208 266.186 167.339 263.639 166.829C261.194 166.32 240.308 140.543 236.844 139.117C236.844 139.117 228.388 151.954 225.943 152.464C225.943 152.464 251.21 187.613 260.175 193.115C269.141 198.515 290.434 168.867 290.434 168.867L310.709 119.25Z" fill="#F8FDFF"/>
<path d="M303.374 68.8179C303.374 69.7348 298.993 82.8777 303.374 97.8544C307.755 112.831 315.702 110.997 315.702 110.997C315.702 110.997 314.785 117.11 312.238 119.759L316.619 129.438L336.282 117.008C336.282 117.008 328.946 101.318 335.059 87.2586C341.172 73.1988 317.434 51.1922 304.291 68.8179" fill="#FAD7B9"/>
<path d="M332.411 82.8779C332.411 82.8779 333.226 95.6133 326.909 97.1415C320.592 98.7716 314.174 92.353 308.672 94.7982C303.171 97.1415 302.355 92.4549 302.355 92.4549C302.355 92.4549 300.725 102.745 300.725 105.19C300.725 107.534 305.514 113.952 311.015 113.952C316.517 113.952 332.411 105.19 334.754 100.504C337.097 95.7151 334.754 83.0817 334.754 83.0817H332.411V82.8779Z" fill="#4D43D8"/>
<path d="M321.816 71.4672C321.816 71.4672 305.209 76.6632 300.726 70.5502C294.103 61.5845 306.839 56.4904 313.054 59.1394C319.167 61.7883 339.441 55.5735 335.875 68.8182C335.875 68.8182 346.471 71.4672 341.173 81.9611C335.875 92.455 334.143 97.7529 334.143 97.7529V86.342C334.143 86.342 327.928 69.6333 321.816 71.4672Z" fill="#4D43D8"/>
<path d="M229.713 139.117C229.713 139.117 226.351 135.551 225.74 132.698C225.638 132.291 225.128 132.189 224.823 132.596C223.906 134.125 222.887 136.977 225.638 139.321C229.713 142.785 229.713 139.117 229.713 139.117Z" fill="#FAD7B9"/>
<path d="M234.094 145.739C233.585 145.739 231.649 139.321 228.185 138.811C224.721 138.302 217.793 138.811 216.774 138.811C215.756 138.811 207.401 133.411 203.428 136.366C203.428 136.366 213.82 139.83 215.348 141.766C216.876 143.702 223.804 148.694 230.732 149.713" fill="#FAD7B9"/>
<path opacity="0.47" d="M340.154 119.25L344.331 135.653H338.931L341.376 146.555L328.335 171.516L344.331 147.981L341.376 136.57H346.369L340.154 119.25Z" fill="#ABB3FF"/>
<path opacity="0.47" d="M308.978 120.167L294.613 132.902H298.077L293.594 142.785L302.458 163.569L295.53 142.785L300.012 132.393L297.567 131.374L308.978 120.167Z" fill="#ABB3FF"/>
<path d="M260.38 158.373H302.05L317.332 209.416H275.764L260.38 158.373Z" fill="#564CEF"/>
<path d="M318.555 188.327C318.555 188.327 314.989 182.927 309.079 182.112L310.404 186.595C310.404 186.595 300.114 184.353 297.669 182.315C295.223 180.38 296.14 189.753 298.687 191.689C301.133 193.624 305.106 196.171 306.634 197.088C308.163 198.107 319.064 196.579 319.064 196.579L318.555 188.327Z" fill="#FFC6BA"/>
<path d="M337.913 117.314C337.913 117.314 359.716 122.714 366.644 129.235C373.572 135.653 378.564 180.787 375.609 186.187C372.655 191.587 323.343 200.756 319.37 200.756C319.37 200.756 319.37 187.41 315.906 185.372C315.906 185.372 351.871 179.157 353.297 175.693C354.723 172.229 352.788 127.706 337.913 117.314Z" fill="#F8FDFF"/>
<path d="M339.013 90.8122C340.181 88.4392 339.899 85.9114 338.384 85.1663C336.87 84.4212 334.695 85.7409 333.528 88.1139C332.361 90.4869 332.642 93.0147 334.157 93.7598C335.672 94.5049 337.846 93.1852 339.013 90.8122Z" fill="#FFC6BA"/>
<path d="M359.919 353.376H268.225C264.353 353.376 261.297 350.32 261.297 346.448C261.297 342.577 264.353 339.52 268.225 339.52H359.919C363.79 339.52 366.847 342.577 366.847 346.448C366.847 350.218 363.79 353.376 359.919 353.376Z" fill="white"/>
<path d="M269.753 351.848C272.735 351.848 275.153 349.431 275.153 346.448C275.153 343.466 272.735 341.049 269.753 341.049C266.771 341.049 264.353 343.466 264.353 346.448C264.353 349.431 266.771 351.848 269.753 351.848Z" fill="#ABB3FF"/>
<path d="M235.112 312.318C235.112 310.076 233.278 307.835 231.037 307.835C228.898 307.835 227.166 309.567 226.962 311.604C226.86 309.465 225.128 307.835 222.886 307.835C220.645 307.835 218.811 310.076 218.811 312.318C218.811 312.623 218.811 312.827 218.913 313.133C218.913 313.133 219.83 319.246 226.962 322.098C234.094 319.246 235.011 313.133 235.011 313.133C235.112 312.827 235.112 312.623 235.112 312.318Z" fill="#FF4D75"/>
<path d="M317.333 309.771H241.532V311.299H317.333V309.771Z" fill="#ABB3FF"/>
<path d="M317.333 312.521H241.532V314.05H317.333V312.521Z" fill="#ABB3FF"/>
<path d="M317.333 315.374H241.532V316.902H317.333V315.374Z" fill="#ABB3FF"/>
<path d="M268.735 318.125H241.532V319.653H268.735V318.125Z" fill="#ABB3FF"/>
<path opacity="0.11" d="M253.248 262.701H366.134C368.172 262.701 369.904 264.331 369.904 266.471V284.3C369.904 286.338 368.274 288.07 366.134 288.07H286.36L281.164 294.488L275.051 288.07H253.248C251.21 288.07 249.478 286.44 249.478 284.3V266.471C249.478 264.331 251.21 262.701 253.248 262.701Z" fill="#2A229E"/>
<path d="M253.248 259.237H366.134C368.172 259.237 369.904 260.867 369.904 263.006V280.836C369.904 282.873 368.274 284.605 366.134 284.605H286.36L281.164 291.024L275.051 284.605H253.248C251.21 284.605 249.478 282.975 249.478 280.836V263.006C249.478 260.867 251.21 259.237 253.248 259.237Z" fill="white"/>
<path d="M263.864 267.619H339.664V266.09H263.864V267.619Z" fill="#ABB3FF"/>
<path d="M263.864 270.482H339.664V268.954H263.864V270.482Z" fill="#ABB3FF"/>
<path d="M263.864 273.244H339.664V271.716H263.864V273.244Z" fill="#ABB3FF"/>
<path d="M312.412 276.006H339.615V274.477H312.412V276.006Z" fill="#ABB3FF"/>
<path d="M354.826 269.527C356.514 269.527 357.882 268.159 357.882 266.471C357.882 264.783 356.514 263.414 354.826 263.414C353.138 263.414 351.769 264.783 351.769 266.471C351.769 268.159 353.138 269.527 354.826 269.527Z" fill="#FF59C1"/>
<path d="M357.882 263.414H351.871V269.425H357.882V263.414Z" fill="#FF4D75"/>
<path d="M354.826 269.527C356.514 269.527 357.882 268.159 357.882 266.471C357.882 264.783 356.514 263.414 354.826 263.414C353.138 263.414 351.769 264.783 351.769 266.471C351.769 268.159 353.138 269.527 354.826 269.527Z" fill="#FF59C1"/>
<path d="M354.825 269.426C356.457 269.426 357.78 268.103 357.78 266.471C357.78 264.839 356.457 263.516 354.825 263.516C353.193 263.516 351.871 264.839 351.871 266.471C351.871 268.103 353.193 269.426 354.825 269.426Z" fill="#FF59C1"/>
<path d="M354.827 269.323C356.402 269.323 357.679 268.046 357.679 266.471C357.679 264.895 356.402 263.618 354.827 263.618C353.251 263.618 351.974 264.895 351.974 266.471C351.974 268.046 353.251 269.323 354.827 269.323Z" fill="#FF59C1"/>
<path d="M354.827 269.323C356.402 269.323 357.679 268.046 357.679 266.471C357.679 264.895 356.402 263.618 354.827 263.618C353.251 263.618 351.974 264.895 351.974 266.471C351.974 268.046 353.251 269.323 354.827 269.323Z" fill="#FF59C1"/>
<path d="M354.826 269.222C356.345 269.222 357.577 267.99 357.577 266.471C357.577 264.952 356.345 263.72 354.826 263.72C353.307 263.72 352.075 264.952 352.075 266.471C352.075 267.99 353.307 269.222 354.826 269.222Z" fill="#FF59C1"/>
<path d="M354.826 269.222C356.345 269.222 357.577 267.99 357.577 266.471C357.577 264.952 356.345 263.72 354.826 263.72C353.307 263.72 352.075 264.952 352.075 266.471C352.075 267.99 353.307 269.222 354.826 269.222Z" fill="#FF59C1"/>
<path d="M354.827 269.12C356.29 269.12 357.475 267.934 357.475 266.471C357.475 265.008 356.29 263.822 354.827 263.822C353.364 263.822 352.178 265.008 352.178 266.471C352.178 267.934 353.364 269.12 354.827 269.12Z" fill="#FF59C1"/>
<path d="M354.826 269.018C356.233 269.018 357.373 267.878 357.373 266.471C357.373 265.064 356.233 263.924 354.826 263.924C353.419 263.924 352.279 265.064 352.279 266.471C352.279 267.878 353.419 269.018 354.826 269.018Z" fill="#FF59C1"/>
<path d="M354.826 269.018C356.233 269.018 357.373 267.878 357.373 266.471C357.373 265.064 356.233 263.924 354.826 263.924C353.419 263.924 352.279 265.064 352.279 266.471C352.279 267.878 353.419 269.018 354.826 269.018Z" fill="#FF59C1"/>
<path d="M354.826 268.916C356.176 268.916 357.271 267.821 357.271 266.471C357.271 265.12 356.176 264.026 354.826 264.026C353.475 264.026 352.38 265.12 352.38 266.471C352.38 267.821 353.475 268.916 354.826 268.916Z" fill="#FF59C1"/>
<path d="M354.826 268.916C356.176 268.916 357.271 267.821 357.271 266.471C357.271 265.12 356.176 264.026 354.826 264.026C353.475 264.026 352.38 265.12 352.38 266.471C352.38 267.821 353.475 268.916 354.826 268.916Z" fill="#FF59C1"/>
<path d="M354.826 268.814C356.12 268.814 357.169 267.765 357.169 266.471C357.169 265.177 356.12 264.127 354.826 264.127C353.532 264.127 352.483 265.177 352.483 266.471C352.483 267.765 353.532 268.814 354.826 268.814Z" fill="#FF59C1"/>
<path d="M354.826 268.712C356.064 268.712 357.067 267.709 357.067 266.471C357.067 265.233 356.064 264.229 354.826 264.229C353.588 264.229 352.584 265.233 352.584 266.471C352.584 267.709 353.588 268.712 354.826 268.712Z" fill="#FF59C1"/>
<path d="M354.826 268.712C356.064 268.712 357.067 267.709 357.067 266.471C357.067 265.233 356.064 264.229 354.826 264.229C353.588 264.229 352.584 265.233 352.584 266.471C352.584 267.709 353.588 268.712 354.826 268.712Z" fill="#FF59C1"/>
<path d="M354.826 268.61C356.008 268.61 356.966 267.652 356.966 266.471C356.966 265.289 356.008 264.331 354.826 264.331C353.645 264.331 352.687 265.289 352.687 266.471C352.687 267.652 353.645 268.61 354.826 268.61Z" fill="#FF59C1"/>
<path d="M354.826 268.61C356.008 268.61 356.966 267.652 356.966 266.471C356.966 265.289 356.008 264.331 354.826 264.331C353.645 264.331 352.687 265.289 352.687 266.471C352.687 267.652 353.645 268.61 354.826 268.61Z" fill="#FF59C1"/>
<path d="M354.826 268.508C355.951 268.508 356.863 267.596 356.863 266.471C356.863 265.345 355.951 264.433 354.826 264.433C353.7 264.433 352.788 265.345 352.788 266.471C352.788 267.596 353.7 268.508 354.826 268.508Z" fill="#FF59C1"/>
<path d="M354.826 268.407C355.895 268.407 356.762 267.54 356.762 266.471C356.762 265.402 355.895 264.535 354.826 264.535C353.757 264.535 352.89 265.402 352.89 266.471C352.89 267.54 353.757 268.407 354.826 268.407Z" fill="#FF59C1"/>
<path d="M354.826 268.407C355.895 268.407 356.762 267.54 356.762 266.471C356.762 265.402 355.895 264.535 354.826 264.535C353.757 264.535 352.89 265.402 352.89 266.471C352.89 267.54 353.757 268.407 354.826 268.407Z" fill="#FF59C1"/>
<path d="M354.827 268.305C355.839 268.305 356.66 267.484 356.66 266.471C356.66 265.458 355.839 264.637 354.827 264.637C353.814 264.637 352.993 265.458 352.993 266.471C352.993 267.484 353.814 268.305 354.827 268.305Z" fill="#FF59C1"/>
<path d="M354.827 268.305C355.839 268.305 356.66 267.484 356.66 266.471C356.66 265.458 355.839 264.637 354.827 264.637C353.814 264.637 352.993 265.458 352.993 266.471C352.993 267.484 353.814 268.305 354.827 268.305Z" fill="#FF59C1"/>
<path d="M354.826 268.203C355.783 268.203 356.558 267.427 356.558 266.471C356.558 265.514 355.783 264.739 354.826 264.739C353.87 264.739 353.094 265.514 353.094 266.471C353.094 267.427 353.87 268.203 354.826 268.203Z" fill="#FF4D75"/>
<path d="M354.827 268.101C355.727 268.101 356.457 267.371 356.457 266.471C356.457 265.57 355.727 264.841 354.827 264.841C353.926 264.841 353.196 265.57 353.196 266.471C353.196 267.371 353.926 268.101 354.827 268.101Z" fill="#FF59C1"/>
<path d="M354.827 268.101C355.727 268.101 356.457 267.371 356.457 266.471C356.457 265.57 355.727 264.841 354.827 264.841C353.926 264.841 353.196 265.57 353.196 266.471C353.196 267.371 353.926 268.101 354.827 268.101Z" fill="#FF59C1"/>
<path d="M354.826 267.999C355.67 267.999 356.354 267.315 356.354 266.471C356.354 265.627 355.67 264.943 354.826 264.943C353.982 264.943 353.298 265.627 353.298 266.471C353.298 267.315 353.982 267.999 354.826 267.999Z" fill="#FF59C1"/>
<path d="M354.826 267.999C355.67 267.999 356.354 267.315 356.354 266.471C356.354 265.627 355.67 264.943 354.826 264.943C353.982 264.943 353.298 265.627 353.298 266.471C353.298 267.315 353.982 267.999 354.826 267.999Z" fill="#FF59C1"/>
<path d="M354.826 267.897C355.613 267.897 356.252 267.259 356.252 266.471C356.252 265.683 355.613 265.044 354.826 265.044C354.038 265.044 353.399 265.683 353.399 266.471C353.399 267.259 354.038 267.897 354.826 267.897Z" fill="#FF59C1"/>
<path d="M354.826 267.795C355.558 267.795 356.151 267.202 356.151 266.471C356.151 265.739 355.558 265.146 354.826 265.146C354.095 265.146 353.502 265.739 353.502 266.471C353.502 267.202 354.095 267.795 354.826 267.795Z" fill="#FF59C1"/>
<path d="M354.826 267.795C355.558 267.795 356.151 267.202 356.151 266.471C356.151 265.739 355.558 265.146 354.826 265.146C354.095 265.146 353.502 265.739 353.502 266.471C353.502 267.202 354.095 267.795 354.826 267.795Z" fill="#FF59C1"/>
<path d="M354.826 267.693C355.501 267.693 356.048 267.146 356.048 266.471C356.048 265.796 355.501 265.248 354.826 265.248C354.15 265.248 353.603 265.796 353.603 266.471C353.603 267.146 354.15 267.693 354.826 267.693Z" fill="#FF59C1"/>
<path d="M354.826 267.693C355.501 267.693 356.048 267.146 356.048 266.471C356.048 265.796 355.501 265.248 354.826 265.248C354.15 265.248 353.603 265.796 353.603 266.471C353.603 267.146 354.15 267.693 354.826 267.693Z" fill="#FF59C1"/>
<path d="M354.826 267.591C355.445 267.591 355.947 267.09 355.947 266.471C355.947 265.852 355.445 265.35 354.826 265.35C354.207 265.35 353.705 265.852 353.705 266.471C353.705 267.09 354.207 267.591 354.826 267.591Z" fill="#FF59C1"/>
<path d="M354.826 267.49C355.388 267.49 355.844 267.033 355.844 266.471C355.844 265.908 355.388 265.452 354.826 265.452C354.263 265.452 353.807 265.908 353.807 266.471C353.807 267.033 354.263 267.49 354.826 267.49Z" fill="#FF59C1"/>
<path d="M354.826 267.49C355.388 267.49 355.844 267.033 355.844 266.471C355.844 265.908 355.388 265.452 354.826 265.452C354.263 265.452 353.807 265.908 353.807 266.471C353.807 267.033 354.263 267.49 354.826 267.49Z" fill="#FF59C1"/>
<path d="M354.826 267.388C355.333 267.388 355.743 266.977 355.743 266.471C355.743 265.964 355.333 265.554 354.826 265.554C354.32 265.554 353.909 265.964 353.909 266.471C353.909 266.977 354.32 267.388 354.826 267.388Z" fill="#FF59C1"/>
<path d="M354.827 267.286C355.277 267.286 355.642 266.921 355.642 266.471C355.642 266.021 355.277 265.656 354.827 265.656C354.376 265.656 354.011 266.021 354.011 266.471C354.011 266.921 354.376 267.286 354.827 267.286Z" fill="#FF59C1"/>
<path d="M354.827 267.286C355.277 267.286 355.642 266.921 355.642 266.471C355.642 266.021 355.277 265.656 354.827 265.656C354.376 265.656 354.011 266.021 354.011 266.471C354.011 266.921 354.376 267.286 354.827 267.286Z" fill="#FF59C1"/>
<path d="M354.826 267.184C355.22 267.184 355.539 266.865 355.539 266.471C355.539 266.077 355.22 265.758 354.826 265.758C354.432 265.758 354.113 266.077 354.113 266.471C354.113 266.865 354.432 267.184 354.826 267.184Z" fill="#FF59C1"/>
<path d="M354.826 267.184C355.22 267.184 355.539 266.865 355.539 266.471C355.539 266.077 355.22 265.758 354.826 265.758C354.432 265.758 354.113 266.077 354.113 266.471C354.113 266.865 354.432 267.184 354.826 267.184Z" fill="#FF59C1"/>
<path d="M354.827 267.082C355.164 267.082 355.438 266.808 355.438 266.471C355.438 266.133 355.164 265.859 354.827 265.859C354.489 265.859 354.215 266.133 354.215 266.471C354.215 266.808 354.489 267.082 354.827 267.082Z" fill="#FF59C1"/>
<path d="M354.826 266.98C355.107 266.98 355.335 266.752 355.335 266.471C355.335 266.189 355.107 265.961 354.826 265.961C354.545 265.961 354.317 266.189 354.317 266.471C354.317 266.752 354.545 266.98 354.826 266.98Z" fill="#FF59C1"/>
<path d="M354.826 266.98C355.107 266.98 355.335 266.752 355.335 266.471C355.335 266.189 355.107 265.961 354.826 265.961C354.545 265.961 354.317 266.189 354.317 266.471C354.317 266.752 354.545 266.98 354.826 266.98Z" fill="#FF59C1"/>
<path d="M354.826 266.878C355.051 266.878 355.233 266.696 355.233 266.471C355.233 266.246 355.051 266.063 354.826 266.063C354.601 266.063 354.418 266.246 354.418 266.471C354.418 266.696 354.601 266.878 354.826 266.878Z" fill="#FF59C1"/>
<path d="M354.826 266.878C355.051 266.878 355.233 266.696 355.233 266.471C355.233 266.246 355.051 266.063 354.826 266.063C354.601 266.063 354.418 266.246 354.418 266.471C354.418 266.696 354.601 266.878 354.826 266.878Z" fill="#FF59C1"/>
<path d="M354.826 266.777C354.995 266.777 355.132 266.64 355.132 266.471C355.132 266.302 354.995 266.165 354.826 266.165C354.657 266.165 354.52 266.302 354.52 266.471C354.52 266.64 354.657 266.777 354.826 266.777Z" fill="#FF59C1"/>
<path d="M354.826 266.675C354.938 266.675 355.029 266.583 355.029 266.471C355.029 266.358 354.938 266.267 354.826 266.267C354.713 266.267 354.622 266.358 354.622 266.471C354.622 266.583 354.713 266.675 354.826 266.675Z" fill="#FF59C1"/>
<path d="M354.826 266.675C354.938 266.675 355.029 266.583 355.029 266.471C355.029 266.358 354.938 266.267 354.826 266.267C354.713 266.267 354.622 266.358 354.622 266.471C354.622 266.583 354.713 266.675 354.826 266.675Z" fill="#FF59C1"/>
<path d="M354.826 266.573C354.882 266.573 354.928 266.527 354.928 266.471C354.928 266.415 354.882 266.369 354.826 266.369C354.77 266.369 354.724 266.415 354.724 266.471C354.724 266.527 354.77 266.573 354.826 266.573Z" fill="#FF59C1"/>
<path d="M354.826 266.573C354.882 266.573 354.928 266.527 354.928 266.471C354.928 266.415 354.882 266.369 354.826 266.369C354.77 266.369 354.724 266.415 354.724 266.471C354.724 266.527 354.77 266.573 354.826 266.573Z" fill="#FF59C1"/>
<path d="M360.429 276.761C360.429 273.704 357.984 271.259 354.927 271.259C351.871 271.259 349.426 273.704 349.426 276.761H360.429Z" fill="#FF4D75"/>
<path d="M360.429 271.361H349.426V276.863H360.429V271.361Z" fill="#FF4D75"/>
<path d="M354.927 278.391C357.346 278.391 359.308 276.43 359.308 274.01C359.308 271.591 357.346 269.629 354.927 269.629C352.507 269.629 350.546 271.591 350.546 274.01C350.546 276.43 352.507 278.391 354.927 278.391Z" fill="#FF4D75"/>
<path d="M354.927 278.289C357.29 278.289 359.206 276.373 359.206 274.01C359.206 271.647 357.29 269.731 354.927 269.731C352.564 269.731 350.648 271.647 350.648 274.01C350.648 276.373 352.564 278.289 354.927 278.289Z" fill="#FF4D75"/>
<path d="M354.927 278.187C357.234 278.187 359.104 276.317 359.104 274.01C359.104 271.703 357.234 269.833 354.927 269.833C352.62 269.833 350.75 271.703 350.75 274.01C350.75 276.317 352.62 278.187 354.927 278.187Z" fill="#FF4D75"/>
<path d="M354.928 278.085C357.179 278.085 359.003 276.261 359.003 274.01C359.003 271.759 357.179 269.935 354.928 269.935C352.677 269.935 350.853 271.759 350.853 274.01C350.853 276.261 352.677 278.085 354.928 278.085Z" fill="#FF4D75"/>
<path d="M354.928 277.983C357.122 277.983 358.901 276.204 358.901 274.01C358.901 271.815 357.122 270.036 354.928 270.036C352.733 270.036 350.954 271.815 350.954 274.01C350.954 276.204 352.733 277.983 354.928 277.983Z" fill="#FF4D75"/>
<path d="M354.927 277.882C357.065 277.882 358.799 276.148 358.799 274.01C358.799 271.872 357.065 270.138 354.927 270.138C352.789 270.138 351.056 271.872 351.056 274.01C351.056 276.148 352.789 277.882 354.927 277.882Z" fill="#FF4D75"/>
<path d="M354.928 277.78C357.01 277.78 358.697 276.092 358.697 274.01C358.697 271.928 357.01 270.24 354.928 270.24C352.846 270.24 351.158 271.928 351.158 274.01C351.158 276.092 352.846 277.78 354.928 277.78Z" fill="#FF4D75"/>
<path d="M354.928 277.78C357.01 277.78 358.697 276.092 358.697 274.01C358.697 271.928 357.01 270.24 354.928 270.24C352.846 270.24 351.158 271.928 351.158 274.01C351.158 276.092 352.846 277.78 354.928 277.78Z" fill="#FF4D75"/>
<path d="M354.927 277.678C356.953 277.678 358.595 276.036 358.595 274.01C358.595 271.984 356.953 270.342 354.927 270.342C352.901 270.342 351.259 271.984 351.259 274.01C351.259 276.036 352.901 277.678 354.927 277.678Z" fill="#FF4D75"/>
<path d="M354.928 277.576C356.897 277.576 358.493 275.979 358.493 274.01C358.493 272.041 356.897 270.444 354.928 270.444C352.958 270.444 351.362 272.041 351.362 274.01C351.362 275.979 352.958 277.576 354.928 277.576Z" fill="#FF4D75"/>
<path d="M354.927 277.474C356.84 277.474 358.391 275.923 358.391 274.01C358.391 272.097 356.84 270.546 354.927 270.546C353.014 270.546 351.463 272.097 351.463 274.01C351.463 275.923 353.014 277.474 354.927 277.474Z" fill="#FF4D75"/>
<path d="M354.927 277.372C356.784 277.372 358.289 275.867 358.289 274.01C358.289 272.153 356.784 270.648 354.927 270.648C353.07 270.648 351.565 272.153 351.565 274.01C351.565 275.867 353.07 277.372 354.927 277.372Z" fill="#FF4D75"/>
<path d="M354.927 277.27C356.728 277.27 358.187 275.811 358.187 274.01C358.187 272.209 356.728 270.75 354.927 270.75C353.127 270.75 351.667 272.209 351.667 274.01C351.667 275.811 353.127 277.27 354.927 277.27Z" fill="#FF4D75"/>
<path d="M354.927 277.169C356.671 277.169 358.085 275.754 358.085 274.01C358.085 272.266 356.671 270.852 354.927 270.852C353.182 270.852 351.768 272.266 351.768 274.01C351.768 275.754 353.182 277.169 354.927 277.169Z" fill="#FF4D75"/>
<path d="M354.928 277.067C356.616 277.067 357.985 275.698 357.985 274.01C357.985 272.322 356.616 270.954 354.928 270.954C353.24 270.954 351.872 272.322 351.872 274.01C351.872 275.698 353.24 277.067 354.928 277.067Z" fill="#FF4D75"/>
<path d="M354.928 277.067C356.616 277.067 357.985 275.698 357.985 274.01C357.985 272.322 356.616 270.954 354.928 270.954C353.24 270.954 351.872 272.322 351.872 274.01C351.872 275.698 353.24 277.067 354.928 277.067Z" fill="#FF4D75"/>
<path d="M354.928 276.965C356.559 276.965 357.882 275.642 357.882 274.01C357.882 272.378 356.559 271.055 354.928 271.055C353.296 271.055 351.973 272.378 351.973 274.01C351.973 275.642 353.296 276.965 354.928 276.965Z" fill="#FF4D75"/>
<path d="M354.927 276.863C356.503 276.863 357.78 275.585 357.78 274.01C357.78 272.434 356.503 271.157 354.927 271.157C353.352 271.157 352.074 272.434 352.074 274.01C352.074 275.585 353.352 276.863 354.927 276.863Z" fill="#FF4D75"/>
<path d="M354.928 276.761C356.447 276.761 357.678 275.529 357.678 274.01C357.678 272.491 356.447 271.259 354.928 271.259C353.408 271.259 352.177 272.491 352.177 274.01C352.177 275.529 353.408 276.761 354.928 276.761Z" fill="#FF4D75"/>
<path d="M354.927 276.659C356.39 276.659 357.576 275.473 357.576 274.01C357.576 272.547 356.39 271.361 354.927 271.361C353.464 271.361 352.278 272.547 352.278 274.01C352.278 275.473 353.464 276.659 354.927 276.659Z" fill="#FF4D75"/>
<path d="M354.928 276.557C356.334 276.557 357.475 275.417 357.475 274.01C357.475 272.603 356.334 271.463 354.928 271.463C353.521 271.463 352.38 272.603 352.38 274.01C352.38 275.417 353.521 276.557 354.928 276.557Z" fill="#FF4D75"/>
<path d="M354.927 276.455C356.278 276.455 357.372 275.361 357.372 274.01C357.372 272.66 356.278 271.565 354.927 271.565C353.577 271.565 352.482 272.66 352.482 274.01C352.482 275.361 353.577 276.455 354.927 276.455Z" fill="#FF4D75"/>
<path d="M354.927 276.455C356.278 276.455 357.372 275.361 357.372 274.01C357.372 272.66 356.278 271.565 354.927 271.565C353.577 271.565 352.482 272.66 352.482 274.01C352.482 275.361 353.577 276.455 354.927 276.455Z" fill="#FF4D75"/>
<path d="M354.927 276.353C356.221 276.353 357.27 275.304 357.27 274.01C357.27 272.716 356.221 271.667 354.927 271.667C353.632 271.667 352.583 272.716 352.583 274.01C352.583 275.304 353.632 276.353 354.927 276.353Z" fill="#FF4D75"/>
<path d="M354.927 276.251C356.165 276.251 357.168 275.248 357.168 274.01C357.168 272.772 356.165 271.769 354.927 271.769C353.689 271.769 352.686 272.772 352.686 274.01C352.686 275.248 353.689 276.251 354.927 276.251Z" fill="#FF4D75"/>
<path d="M354.927 276.15C356.108 276.15 357.066 275.192 357.066 274.01C357.066 272.828 356.108 271.871 354.927 271.871C353.745 271.871 352.787 272.828 352.787 274.01C352.787 275.192 353.745 276.15 354.927 276.15Z" fill="#FF4D75"/>
<path d="M354.928 276.048C356.053 276.048 356.966 275.135 356.966 274.01C356.966 272.885 356.053 271.972 354.928 271.972C353.803 271.972 352.89 272.885 352.89 274.01C352.89 275.135 353.803 276.048 354.928 276.048Z" fill="#FF4D75"/>
<path d="M354.928 275.946C355.997 275.946 356.863 275.079 356.863 274.01C356.863 272.941 355.997 272.074 354.928 272.074C353.858 272.074 352.992 272.941 352.992 274.01C352.992 275.079 353.858 275.946 354.928 275.946Z" fill="#FF4D75"/>
<path d="M354.927 275.844C355.94 275.844 356.761 275.023 356.761 274.01C356.761 272.997 355.94 272.176 354.927 272.176C353.914 272.176 353.093 272.997 353.093 274.01C353.093 275.023 353.914 275.844 354.927 275.844Z" fill="#FF4D75"/>
<path d="M354.928 275.742C355.884 275.742 356.66 274.967 356.66 274.01C356.66 273.054 355.884 272.278 354.928 272.278C353.971 272.278 353.196 273.054 353.196 274.01C353.196 274.967 353.971 275.742 354.928 275.742Z" fill="#FF4D75"/>
<path d="M354.928 275.742C355.884 275.742 356.66 274.967 356.66 274.01C356.66 273.054 355.884 272.278 354.928 272.278C353.971 272.278 353.196 273.054 353.196 274.01C353.196 274.967 353.971 275.742 354.928 275.742Z" fill="#FF4D75"/>
<path d="M354.927 275.64C355.827 275.64 356.557 274.91 356.557 274.01C356.557 273.11 355.827 272.38 354.927 272.38C354.027 272.38 353.297 273.11 353.297 274.01C353.297 274.91 354.027 275.64 354.927 275.64Z" fill="#FF4D75"/>
<path d="M354.928 275.538C355.772 275.538 356.456 274.854 356.456 274.01C356.456 273.166 355.772 272.482 354.928 272.482C354.084 272.482 353.399 273.166 353.399 274.01C353.399 274.854 354.084 275.538 354.928 275.538Z" fill="#FF4D75"/>
<path d="M354.927 275.436C355.715 275.436 356.353 274.798 356.353 274.01C356.353 273.222 355.715 272.584 354.927 272.584C354.139 272.584 353.501 273.222 353.501 274.01C353.501 274.798 354.139 275.436 354.927 275.436Z" fill="#FF4D75"/>
<path d="M354.927 275.335C355.658 275.335 356.251 274.741 356.251 274.01C356.251 273.279 355.658 272.686 354.927 272.686C354.195 272.686 353.602 273.279 353.602 274.01C353.602 274.741 354.195 275.335 354.927 275.335Z" fill="#FF4D75"/>
<path d="M354.927 275.233C355.602 275.233 356.15 274.685 356.15 274.01C356.15 273.335 355.602 272.788 354.927 272.788C354.252 272.788 353.704 273.335 353.704 274.01C353.704 274.685 354.252 275.233 354.927 275.233Z" fill="#FF4D75"/>
<path d="M354.927 275.131C355.546 275.131 356.047 274.629 356.047 274.01C356.047 273.391 355.546 272.889 354.927 272.889C354.308 272.889 353.806 273.391 353.806 274.01C353.806 274.629 354.308 275.131 354.927 275.131Z" fill="#FF4D75"/>
<path d="M354.928 275.029C355.491 275.029 355.947 274.573 355.947 274.01C355.947 273.447 355.491 272.991 354.928 272.991C354.365 272.991 353.909 273.447 353.909 274.01C353.909 274.573 354.365 275.029 354.928 275.029Z" fill="#FF4D75"/>
<path d="M354.928 275.029C355.491 275.029 355.947 274.573 355.947 274.01C355.947 273.447 355.491 272.991 354.928 272.991C354.365 272.991 353.909 273.447 353.909 274.01C353.909 274.573 354.365 275.029 354.928 275.029Z" fill="#FF4D75"/>
<path d="M354.928 274.927C355.434 274.927 355.845 274.516 355.845 274.01C355.845 273.504 355.434 273.093 354.928 273.093C354.421 273.093 354.011 273.504 354.011 274.01C354.011 274.516 354.421 274.927 354.928 274.927Z" fill="#FF4D75"/>
<path d="M354.927 274.825C355.377 274.825 355.742 274.46 355.742 274.01C355.742 273.56 355.377 273.195 354.927 273.195C354.477 273.195 354.112 273.56 354.112 274.01C354.112 274.46 354.477 274.825 354.927 274.825Z" fill="#FF4D75"/>
<path d="M354.928 274.723C355.321 274.723 355.641 274.404 355.641 274.01C355.641 273.616 355.321 273.297 354.928 273.297C354.534 273.297 354.214 273.616 354.214 274.01C354.214 274.404 354.534 274.723 354.928 274.723Z" fill="#FF4D75"/>
<path d="M354.927 274.621C355.265 274.621 355.538 274.348 355.538 274.01C355.538 273.672 355.265 273.399 354.927 273.399C354.589 273.399 354.316 273.672 354.316 274.01C354.316 274.348 354.589 274.621 354.927 274.621Z" fill="#FF4D75"/>
<path d="M354.928 274.519C355.209 274.519 355.437 274.291 355.437 274.01C355.437 273.729 355.209 273.5 354.928 273.5C354.646 273.5 354.418 273.729 354.418 274.01C354.418 274.291 354.646 274.519 354.928 274.519Z" fill="#FF4D75"/>
<path d="M354.927 274.418C355.152 274.418 355.335 274.235 355.335 274.01C355.335 273.785 355.152 273.603 354.927 273.603C354.702 273.603 354.52 273.785 354.52 274.01C354.52 274.235 354.702 274.418 354.927 274.418Z" fill="#FF4D75"/>
<path d="M354.927 274.418C355.152 274.418 355.335 274.235 355.335 274.01C355.335 273.785 355.152 273.603 354.927 273.603C354.702 273.603 354.52 273.785 354.52 274.01C354.52 274.235 354.702 274.418 354.927 274.418Z" fill="#FF4D75"/>
<path d="M354.927 274.316C355.095 274.316 355.232 274.179 355.232 274.01C355.232 273.841 355.095 273.704 354.927 273.704C354.758 273.704 354.621 273.841 354.621 274.01C354.621 274.179 354.758 274.316 354.927 274.316Z" fill="#FF4D75"/>
<path d="M354.927 274.214C355.04 274.214 355.131 274.123 355.131 274.01C355.131 273.898 355.04 273.806 354.927 273.806C354.814 273.806 354.723 273.898 354.723 274.01C354.723 274.123 354.814 274.214 354.927 274.214Z" fill="#FF4D75"/>
<path d="M354.927 274.112C354.983 274.112 355.028 274.066 355.028 274.01C355.028 273.954 354.983 273.908 354.927 273.908C354.87 273.908 354.825 273.954 354.825 274.01C354.825 274.066 354.87 274.112 354.927 274.112Z" fill="#FF4D75"/>
</svg>
