<svg width="136" height="96" viewBox="0 0 136 96" fill="none" xmlns="http://www.w3.org/2000/svg">
<g clip-path="url(#clip0)">
<path fill-rule="evenodd" clip-rule="evenodd" d="M81.406 76.8674C98.9629 73.323 126.871 77.5473 127.909 49.2041C128.947 20.8609 96.4215 -1.39313 49.385 9.18595C2.34842 19.765 -1.48059 72.3622 22.6033 87.8905C46.6871 103.419 63.849 80.4119 81.406 76.8674Z" fill="#F1F4FC"/>
<path fill-rule="evenodd" clip-rule="evenodd" d="M55.588 22.3375C53.3256 19.4429 49.9396 16.6518 50.7615 12.3876C51.5856 8.12415 50.2645 4.57066 46.1391 4.57042C42.0136 4.56813 40.6896 8.12058 41.5077 12.3848C42.3256 16.6481 38.9352 19.4379 36.6697 22.331C34.2055 25.4774 35.8451 28.9288 35.8451 28.9288L46.125 27.7152L56.4042 28.9364C56.4042 28.9364 58.0481 25.4859 55.588 22.3375Z" fill="#FFE7CE"/>
<mask id="mask0" mask-type="alpha" maskUnits="userSpaceOnUse" x="35" y="4" width="22" height="25">
<path fill-rule="evenodd" clip-rule="evenodd" d="M55.588 22.3375C53.3256 19.4429 49.9396 16.6518 50.7615 12.3876C51.5856 8.12415 50.2645 4.57066 46.1391 4.57042C42.0136 4.56813 40.6896 8.12058 41.5077 12.3848C42.3256 16.6481 38.9352 19.4379 36.6697 22.331C34.2055 25.4774 35.8451 28.9288 35.8451 28.9288L46.125 27.7152L56.4042 28.9364C56.4042 28.9364 58.0481 25.4859 55.588 22.3375Z" fill="white"/>
</mask>
<g mask="url(#mask0)">
<path fill-rule="evenodd" clip-rule="evenodd" d="M47.3226 4.20179C44.2364 4.20179 42.6933 7.17928 44.2364 11.0585C45.7795 14.9378 45.1714 17.4921 43.4012 21.4576C41.631 25.423 44.2364 30.1511 44.2364 30.1511L32.9171 27.3996L34.07 16.6129L39.4299 3.73833L45.8361 2.26364C45.8361 2.26364 50.4089 4.20179 47.3226 4.20179Z" fill="#F2D0B2"/>
</g>
<path fill-rule="evenodd" clip-rule="evenodd" d="M46.7347 6.57431C46.136 7.36422 46.3745 8.68445 47.2651 9.52292C48.159 10.3602 49.3669 10.3984 49.9661 9.60818C50.5652 8.81799 50.326 7.49883 49.4334 6.6615C48.5407 5.8229 47.333 5.7839 46.7347 6.57431Z" fill="white"/>
<path fill-rule="evenodd" clip-rule="evenodd" d="M62.2688 27.8938C62.2678 26.8955 61.4529 26.0787 60.4539 26.0773L31.8381 26.0647C30.839 26.0646 30.023 26.8806 30.0226 27.8788L30.0183 34.9575C30.0185 35.956 30.8351 36.7731 31.8337 36.773L60.4485 36.7863C61.4475 36.7864 62.2649 35.9705 62.2655 34.9718L62.2688 27.8938Z" fill="#6157FF"/>
<path fill-rule="evenodd" clip-rule="evenodd" d="M33.9514 34.2328C33.9519 34.6839 33.5854 35.0491 33.1338 35.0492C32.6838 35.0489 32.3183 34.683 32.3189 34.2324L32.3206 28.1527C32.3215 27.7016 32.6877 27.3357 33.1372 27.3357C33.5886 27.3361 33.9548 27.7018 33.9549 28.1534L33.9514 34.2328Z" fill="#4D43D8"/>
<path fill-rule="evenodd" clip-rule="evenodd" d="M37.5816 34.2349C37.5815 34.6858 37.2156 35.0512 36.7645 35.0503C36.3142 35.0505 35.9475 34.6845 35.9479 34.2332L35.9513 28.1538C35.9508 27.704 36.3168 27.3373 36.7682 27.3376C37.2193 27.3372 37.5846 27.7044 37.5848 28.1548L37.5816 34.2349Z" fill="#4D43D8"/>
<path fill-rule="evenodd" clip-rule="evenodd" d="M41.2124 34.2361C41.212 34.6875 40.8461 35.0529 40.3952 35.0528C39.9436 35.0529 39.5783 34.6857 39.5789 34.2352L39.581 28.1557C39.5816 27.7052 39.9473 27.339 40.3977 27.3388C40.8495 27.3394 41.2154 27.7056 41.2143 28.1559L41.2124 34.2361Z" fill="#4D43D8"/>
<path fill-rule="evenodd" clip-rule="evenodd" d="M44.8417 34.2377C44.8411 34.6883 44.4751 35.055 44.024 35.0541C43.5735 35.0535 43.2078 34.6881 43.2074 34.237L43.2103 28.1573C43.2107 27.706 43.5766 27.3406 44.0277 27.3415C44.4783 27.3408 44.8447 27.7072 44.8439 28.157L44.8417 34.2377Z" fill="#4D43D8"/>
<path fill-rule="evenodd" clip-rule="evenodd" d="M48.4717 34.2401C48.4719 34.6904 48.1057 35.0564 47.6546 35.0568C47.2025 35.0553 46.8381 34.69 46.8379 34.2396L46.8406 28.1592C46.8402 27.7081 47.2064 27.3421 47.6576 27.3417C48.1094 27.3424 48.475 27.7091 48.4749 28.1599L48.4717 34.2401Z" fill="#4D43D8"/>
<path fill-rule="evenodd" clip-rule="evenodd" d="M52.1016 34.2407C52.1014 34.6929 51.7358 35.0578 51.284 35.0571C50.8328 35.0575 50.468 34.6906 50.4686 34.2401L50.4707 28.1606C50.4721 27.7099 50.8363 27.3441 51.2874 27.3437C51.7387 27.344 52.1044 27.7107 52.1041 28.1608L52.1016 34.2407Z" fill="#4D43D8"/>
<path fill-rule="evenodd" clip-rule="evenodd" d="M55.7316 34.2429C55.7315 34.6937 55.3653 35.0596 54.9135 35.059C54.4634 35.0587 54.0972 34.693 54.0986 34.2422L54.1005 28.162C54.1006 27.7111 54.4668 27.3452 54.9181 27.3456C55.3687 27.3462 55.7343 27.7129 55.7335 28.1626L55.7316 34.2429Z" fill="#4D43D8"/>
<path fill-rule="evenodd" clip-rule="evenodd" d="M59.3621 34.2448C59.362 34.6956 58.9956 35.0608 58.545 35.0614C58.0936 35.0611 57.728 34.6944 57.7286 34.2438L57.731 28.1639C57.7316 27.7133 58.0965 27.3473 58.5484 27.348C58.999 27.3473 59.3651 27.7143 59.3653 28.1646L59.3621 34.2448Z" fill="#4D43D8"/>
<path fill-rule="evenodd" clip-rule="evenodd" d="M64.2679 75.3458C64.2604 80.1317 61.1906 84.0071 57.4103 84.0009L34.6627 83.9665C30.8834 83.9595 27.8253 80.0752 27.8328 75.2892L27.8793 45.4025C27.8858 40.616 30.9563 36.7404 34.7359 36.7468L57.4843 36.781C61.2641 36.787 64.322 40.6718 64.3142 45.4583L64.2679 75.3458Z" fill="white"/>
<rect x="41.9861" y="50.3925" width="8.07162" height="18.8338" rx="1" fill="#FF9690"/>
<rect x="55.4387" y="55.7736" width="8.07162" height="18.8338" rx="1" transform="rotate(90 55.4387 55.7736)" fill="#FF9690"/>
<path fill-rule="evenodd" clip-rule="evenodd" d="M80.849 33.2973C77.9968 33.2973 75.8478 32.3522 73.5819 31.3556C70.7122 30.0934 67.6549 28.7488 62.7444 29.137C53.9565 29.8318 47.4725 35.3611 47.4725 46.2525C47.4725 57.1439 57.1209 72.4823 80.9744 72.3385C104.828 72.1946 114.476 55.6661 114.476 46.2525C114.476 36.8389 109.69 29.7972 100.36 29.137C95.0795 28.7634 91.5969 30.1454 88.3966 31.4154C85.9426 32.3893 83.6545 33.2973 80.849 33.2973ZM59.9255 46.5768C62.3171 46.5768 64.2559 44.638 64.2559 42.2464C64.2559 39.8547 62.3171 37.9159 59.9255 37.9159C57.5338 37.9159 55.595 39.8547 55.595 42.2464C55.595 44.638 57.5338 46.5768 59.9255 46.5768ZM106.694 42.2464C106.694 44.638 104.755 46.5768 102.364 46.5768C99.9719 46.5768 98.0331 44.638 98.0331 42.2464C98.0331 39.8547 99.9719 37.9159 102.364 37.9159C104.755 37.9159 106.694 39.8547 106.694 42.2464Z" fill="#4D43D8"/>
<path fill-rule="evenodd" clip-rule="evenodd" d="M81.1445 88.1489C90.711 88.1489 98.4662 80.3937 98.4662 70.8272C98.4662 61.2607 90.711 53.5055 81.1445 53.5055C71.578 53.5055 63.8228 61.2607 63.8228 70.8272C63.8228 80.3937 71.578 88.1489 81.1445 88.1489Z" stroke="#6157FF" stroke-width="4"/>
<path fill-rule="evenodd" clip-rule="evenodd" d="M81.1444 62.1663C88.7976 62.1663 95.0017 57.1255 95.0017 50.9072C95.0017 44.689 88.7976 39.6481 81.1444 39.6481C73.4911 39.6481 67.287 44.689 67.287 50.9072C67.287 57.1255 73.4911 62.1663 81.1444 62.1663Z" fill="#828EFA"/>
<mask id="mask1" mask-type="alpha" maskUnits="userSpaceOnUse" x="67" y="39" width="29" height="24">
<path fill-rule="evenodd" clip-rule="evenodd" d="M81.1444 62.1663C88.7976 62.1663 95.0017 57.1255 95.0017 50.9072C95.0017 44.689 88.7976 39.6481 81.1444 39.6481C73.4911 39.6481 67.287 44.689 67.287 50.9072C67.287 57.1255 73.4911 62.1663 81.1444 62.1663Z" fill="white"/>
</mask>
<g mask="url(#mask1)">
<path fill-rule="evenodd" clip-rule="evenodd" d="M64.7923 43.8788C67.5224 40.7297 72.2892 33.5345 70.5789 44.3451C68.8686 55.1557 95.0052 57.8577 95.1091 47.9971C95.2129 38.1364 99.821 66.3048 99.821 66.3048H73.464L66.3332 56.9037C66.3332 56.9037 62.0622 47.0279 64.7923 43.8788Z" fill="#6157FF"/>
</g>
</g>
<defs>
<clipPath id="clip0">
<path d="M0 0H136V96H0V0Z" fill="white"/>
</clipPath>
</defs>
</svg>
