<svg width="133" height="35" viewBox="0 0 133 35" fill="none" xmlns="http://www.w3.org/2000/svg">
<g clip-path="url(#clip0_5542_717)">
<path d="M60.5023 28.519C60.5023 28.519 59.9384 28.7607 58.8911 28.7607C57.6826 28.7607 57.1993 28.519 57.1993 28.519V8.37851H47.9346V28.519C47.9346 28.519 47.3707 28.7607 46.3234 28.7607C45.115 28.7607 44.6719 28.519 44.6719 28.519V5.55884H60.5023V28.519ZM81.8916 5.51855C83.2208 5.51855 83.7445 5.76024 83.7445 5.76024V28.519C83.7445 28.519 83.2208 28.7607 82.1332 28.7607C80.9248 28.7607 80.4817 28.519 80.4817 28.519V17.9251C80.4817 12.4872 80.7234 10.1106 80.7234 10.1106H80.6428C80.6428 10.1106 80.0789 11.8024 77.662 16.5153L71.1365 28.519C71.0962 28.519 70.4115 28.7607 69.1225 28.7607C67.7126 28.7607 67.189 28.519 67.189 28.519V5.76024C67.189 5.76024 67.7529 5.51855 68.8002 5.51855C69.9281 5.51855 70.492 5.76024 70.492 5.76024V16.3944C70.492 21.2282 70.2503 24.5312 70.2503 24.5312H70.3309C70.7337 23.0811 72.063 20.342 73.4728 17.6431L79.9581 5.76024C79.9581 5.76024 80.5623 5.51855 81.8916 5.51855ZM108.396 5.51855C109.685 5.51855 110.531 5.76024 110.531 5.76024V28.519C110.531 28.519 109.967 28.7607 108.92 28.7607C107.873 28.7607 107.269 28.519 107.269 28.519V18.2071C107.269 15.0652 107.188 11.5204 107.47 9.58694H107.309C106.906 11.0371 105.617 13.6956 104.449 16.0722L100.663 23.1616C100.663 23.1616 100.26 23.3228 99.6555 23.3228C99.0513 23.3228 98.7693 23.1616 98.7693 23.1616L95.0634 16.193C93.855 13.8164 92.5257 11.0371 92.1229 9.58694H92.0021C92.3243 11.1982 92.3243 14.5415 92.3243 17.7237V28.519C92.3243 28.519 91.8007 28.7607 90.7937 28.7607C89.9075 28.7607 89.3435 28.519 89.3435 28.519V5.76024C89.3435 5.76024 90.1089 5.51855 91.3173 5.51855C92.3243 5.51855 93.2911 5.76024 93.2911 5.76024L97.5609 13.8164C98.4873 15.6694 99.4138 17.6029 99.7763 18.8113H99.8972C100.139 18.1265 100.461 17.1598 101.106 15.9513C102.918 12.5677 104.65 9.18413 106.342 5.76024C106.906 5.6394 107.712 5.51855 108.396 5.51855ZM131.236 5.51855C132.203 5.51855 132.847 5.76024 132.847 5.76024L126.483 22.5171C124.388 27.9954 121.729 28.7204 119.514 28.7204C118.306 28.7204 117.54 28.4385 117.54 28.4385C117.54 28.3982 117.299 27.8745 117.299 27.1092C117.299 26.4244 117.419 25.8605 117.46 25.7799C117.46 25.7799 118.265 25.8605 118.95 25.8605C120.4 25.8605 121.729 25.4577 123.059 22.4769H122.334L114.398 5.76024C114.398 5.76024 114.962 5.51855 116.171 5.51855C117.5 5.51855 118.024 5.76024 118.024 5.76024L123.22 16.757C123.945 18.2876 124.267 19.4558 124.307 19.5766H124.388C124.428 19.4558 124.791 18.2071 125.355 16.6361L129.625 5.76024C129.625 5.76024 130.148 5.51855 131.236 5.51855Z" fill="white"/>
<path d="M29.9287 19.6171C28.5995 18.2878 28.5995 16.1529 29.9287 14.8639L32.6679 12.1248C34.8027 9.98992 34.8027 6.56603 32.6679 4.43113L29.9287 1.69202C27.7939 -0.442871 24.4908 -0.563714 22.5573 1.36978L20.8655 3.06158L19.0126 4.91451H20.3016L19.4154 5.80069H18.7306V6.04238H19.3348V6.68687H19.5765V6.00209L20.4627 5.11591V6.4049L22.3156 4.55198L24.0074 2.81989C25.1353 1.69202 27.1494 1.81287 28.4786 3.14214L31.2177 5.88125C32.547 7.21053 32.547 9.34542 31.2177 10.6344L28.4786 13.3735C26.3437 15.5084 26.3437 18.9323 28.4786 21.0672L31.2177 23.8063C32.547 25.1356 32.547 27.2705 31.2177 28.5595L28.4786 31.2986C27.1494 32.6279 25.095 32.6681 23.8463 31.4194L18.6098 26.1829L23.7255 21.0672C25.8604 18.9323 25.9812 15.6293 24.0477 13.6958L21.9531 11.6012L20.503 10.151L19.0529 11.6012L17.1597 13.4944L15.2664 11.6012L13.8163 10.151L10.2313 13.6958C8.29783 15.6293 8.41867 18.9323 10.5536 21.0672L15.6693 26.1829L10.4327 31.4194C9.18401 32.6681 7.0894 32.6279 5.80041 31.2986L3.0613 28.5595C1.73202 27.2302 1.73202 25.0953 3.0613 23.8063L5.80041 21.0672C7.9353 18.9323 7.9353 15.5084 5.80041 13.3735L3.0613 10.6344C1.73202 9.30514 1.73202 7.17024 3.0613 5.88125L5.80041 3.14214C7.12968 1.81287 9.10345 1.69202 10.2716 2.81989L11.9634 4.5117L13.8163 6.36462V5.07563L14.7025 5.96181V6.64659H14.9039V6.04238H15.5484V5.80069H14.8636L13.9775 4.91451H15.2664L13.4135 3.06158L11.6814 1.36978C9.74795 -0.563714 6.4449 -0.442871 4.31001 1.69202L1.5709 4.43113C-0.563997 6.56603 -0.563997 9.98992 1.5709 12.1248L4.31001 14.8639C5.63928 16.1932 5.63928 18.3281 4.31001 19.6171L1.5709 22.3562C-0.563997 24.4911 -0.563997 27.915 1.5709 30.0499L4.31001 32.789C6.4449 34.9239 9.82851 34.9642 11.8426 32.9098L17.0791 27.6733L22.3156 32.9098C24.37 34.9642 27.7536 34.8836 29.8482 32.789L32.5873 30.0499C34.7222 27.915 34.7222 24.4911 32.5873 22.3562L29.9287 19.6171ZM21.0669 4.39085C20.9461 4.5117 20.7447 4.5117 20.6238 4.39085C20.503 4.27001 20.503 4.06861 20.6238 3.94776C20.7447 3.82692 20.9461 3.82692 21.0669 3.94776C21.1878 4.06861 21.1878 4.27001 21.0669 4.39085ZM13.2121 3.90748C13.333 3.78664 13.5344 3.78664 13.6552 3.90748C13.7761 4.02832 13.7761 4.22973 13.6552 4.35057C13.5344 4.47142 13.333 4.47142 13.2121 4.35057C13.0913 4.27001 13.0913 4.06861 13.2121 3.90748ZM12.0037 19.6171C10.6744 18.2878 10.5536 16.314 11.6814 15.1459L13.7761 13.0513L16.7568 16.0321L17.1194 16.3946L20.4627 13.0513L22.5573 15.1459C23.6852 16.2738 23.5643 18.2878 22.2351 19.6171L17.1194 24.7328L12.0037 19.6171Z" fill="white"/>
</g>
<defs>
<clipPath id="clip0_5542_717">
<rect width="132.847" height="34.4" fill="white"/>
</clipPath>
</defs>
</svg>
