<svg width="155" height="40" viewBox="0 0 155 40" fill="none" xmlns="http://www.w3.org/2000/svg">
<g clip-path="url(#clip0_5418_288444)">
<path d="M70.3513 33.1616C70.3513 33.1616 69.6956 33.4426 68.4778 33.4426C67.0727 33.4426 66.5106 33.1616 66.5106 33.1616V9.74238H55.7378V33.1616C55.7378 33.1616 55.082 33.4426 53.8642 33.4426C52.4591 33.4426 51.9438 33.1616 51.9438 33.1616V6.46369H70.3513V33.1616ZM95.2225 6.41685C96.7682 6.41685 97.3771 6.69789 97.3771 6.69789V33.1616C97.3771 33.1616 96.7682 33.4426 95.5036 33.4426C94.0984 33.4426 93.5832 33.1616 93.5832 33.1616V20.8431C93.5832 14.5199 93.8642 11.7564 93.8642 11.7564H93.7705C93.7705 11.7564 93.1148 13.7236 90.3045 19.2037L82.7167 33.1616C82.6698 33.1616 81.8736 33.4426 80.3748 33.4426C78.7354 33.4426 78.1265 33.1616 78.1265 33.1616V6.69789C78.1265 6.69789 78.7823 6.41685 80.0001 6.41685C81.3115 6.41685 81.9673 6.69789 81.9673 6.69789V19.0632C81.9673 24.6838 81.6862 28.5246 81.6862 28.5246H81.7799C82.2483 26.8384 83.794 23.6534 85.4333 20.5152L92.9743 6.69789C92.9743 6.69789 93.6769 6.41685 95.2225 6.41685ZM126.042 6.41685C127.541 6.41685 128.525 6.69789 128.525 6.69789V33.1616C128.525 33.1616 127.869 33.4426 126.651 33.4426C125.433 33.4426 124.731 33.1616 124.731 33.1616V21.171C124.731 17.5176 124.637 13.3958 124.965 11.1475H124.778C124.309 12.8337 122.81 15.9251 121.452 18.6885L117.049 26.9321C117.049 26.9321 116.581 27.1194 115.878 27.1194C115.176 27.1194 114.848 26.9321 114.848 26.9321L110.539 18.829C109.134 16.0656 107.588 12.8337 107.119 11.1475H106.979C107.354 13.0211 107.354 16.9087 107.354 20.6089V33.1616C107.354 33.1616 106.745 33.4426 105.574 33.4426C104.543 33.4426 103.888 33.1616 103.888 33.1616V6.69789C103.888 6.69789 104.778 6.41685 106.183 6.41685C107.354 6.41685 108.478 6.69789 108.478 6.69789L113.443 16.0656C114.52 18.2201 115.597 20.4684 116.019 21.8735H116.159C116.44 21.0773 116.815 19.9532 117.564 18.548C119.672 14.6136 121.686 10.6791 123.653 6.69789C124.309 6.55737 125.246 6.41685 126.042 6.41685ZM152.6 6.41685C153.724 6.41685 154.473 6.69789 154.473 6.69789L147.073 26.1827C144.637 32.5527 141.546 33.3958 138.97 33.3958C137.564 33.3958 136.675 33.0679 136.675 33.0679C136.675 33.0211 136.394 32.4122 136.394 31.5222C136.394 30.726 136.534 30.0702 136.581 29.9766C136.581 29.9766 137.518 30.0702 138.314 30.0702C140 30.0702 141.546 29.6019 143.091 26.1358H142.248L133.021 6.69789C133.021 6.69789 133.677 6.41685 135.082 6.41685C136.628 6.41685 137.237 6.69789 137.237 6.69789L143.279 19.4848C144.122 21.2646 144.497 22.6229 144.543 22.7635H144.637C144.684 22.6229 145.105 21.171 145.761 19.3443L150.726 6.69789C150.726 6.69789 151.335 6.41685 152.6 6.41685Z" fill="black"/>
<path d="M22.4824 7.72833H22.7634V6.93208L23.7938 5.90163V5.71428H23.6065L22.576 6.74472H21.7798V7.02575H22.4824V7.72833Z" fill="#EF3340"/>
<path d="M16.253 5.71428H16.0188V5.90163L17.0492 6.93208V7.72833H17.3303V7.02575H18.0797V6.74472H17.2834L16.253 5.71428Z" fill="#B00C2F"/>
<path d="M19.9062 15.7377L18.22 17.4239L16.0186 15.2225L13.583 17.6112C12.2715 18.9227 12.4121 21.2646 13.9577 22.8103L19.9062 28.7588L18.22 30.445L12.2715 24.4965C9.78911 22.0141 9.6486 18.1733 11.8968 15.9251L16.0186 11.8033L17.7048 13.4895L19.9062 15.7377ZM37.9858 25.9953C40.4683 28.4778 40.4683 32.459 37.9858 34.9414L34.8008 38.1265C32.3184 40.6089 28.384 40.6557 26.042 38.267L19.953 32.178L21.6392 30.4918L27.7282 36.5808C29.1802 38.0328 31.6158 37.9859 33.1146 36.4403L36.2997 33.2553C37.8453 31.7096 37.8453 29.2272 36.2997 27.7283L33.1146 24.5433C30.6322 22.0609 30.6322 18.0796 33.1146 15.5972L36.2997 12.4122C37.8453 10.8665 37.8453 8.38407 36.2997 6.88525L33.1146 3.70023C31.569 2.10773 29.2739 1.96721 27.9156 3.27869L25.9484 5.2459L23.7938 7.40047V5.71429H22.1076L24.2622 3.55972L26.2294 1.59251C28.4776 -0.655738 32.3184 -0.515223 34.8008 1.96721L37.9858 5.15222C40.4683 7.63466 40.4683 11.6159 37.9858 14.0984L34.8008 17.2834C33.2552 18.829 33.2552 21.3115 34.8008 22.8103L37.9858 25.9953ZM24.4964 4.54333C24.3559 4.40281 24.1217 4.40281 23.9812 4.54333C23.8406 4.68384 23.8406 4.91803 23.9812 5.05855C24.1217 5.19906 24.3559 5.19906 24.4964 5.05855C24.6369 4.91803 24.6369 4.73068 24.4964 4.54333Z" fill="#B00C2F"/>
<path d="M27.9157 15.9251L25.4801 13.4895L23.7939 11.8033L22.1077 13.4895L18.2201 17.377L19.9063 19.0632L23.7939 15.1756L26.2295 17.6112C27.541 18.9227 27.4004 21.2646 25.8548 22.8103L12.1311 36.534C10.6791 37.9859 8.24353 37.9391 6.7447 36.3934L3.55969 33.2084C2.01402 31.6628 2.01402 29.1803 3.55969 27.6815L6.7447 24.4965C9.22714 22.0141 9.22714 18.0328 6.7447 15.5504L3.55969 12.3653C2.01402 10.8197 2.01402 8.33724 3.55969 6.83841L6.7447 3.6534C8.29037 2.10773 10.5855 1.96721 11.9438 3.27869L13.911 5.2459L16.0655 7.40047V5.71429H17.7517L15.5972 3.55972L13.5831 1.59251C11.3349 -0.655738 7.49412 -0.515223 5.01168 1.96721L1.82667 5.15222C-0.655765 7.63466 -0.655765 11.6159 1.82667 14.0984L5.01168 17.2834C6.55735 18.829 6.55735 21.3115 5.01168 22.8103L1.82667 25.9953C-0.655765 28.4778 -0.655765 32.459 1.82667 34.9414L5.01168 38.1265C7.49412 40.6089 11.4285 40.6557 13.7705 38.267L19.8595 32.178L21.5456 30.4918L27.4941 24.5433C30.0234 22.0141 30.1639 18.1733 27.9157 15.9251ZM15.363 4.54333C15.5035 4.40281 15.7377 4.40281 15.8782 4.54333C16.0187 4.68384 16.0187 4.91803 15.8782 5.05855C15.7377 5.19906 15.5035 5.19906 15.363 5.05855C15.2225 4.96487 15.2225 4.73068 15.363 4.54333Z" fill="#EF3340"/>
</g>
<defs>
<clipPath id="clip0_5418_288444">
<rect width="154.473" height="40" fill="white"/>
</clipPath>
</defs>
</svg>
