<svg width="147" height="50" viewBox="0 0 98 25" fill="none" xmlns="http://www.w3.org/2000/svg">
<circle cx="12.5" cy="12.5" r="12.5" fill="white"/>
<path d="M22.2453 12.8862C21.216 10.6584 19.3218 7.83131 19.0286 7.63187C18.3269 6.94558 17.4002 6.53707 16.4202 6.48211H16.3504C15.2125 6.44974 14.1135 6.89736 13.322 7.71551L11.903 9.05184L10.5152 10.4231C9.7624 11.2477 8.48782 11.3172 7.6498 10.5794C6.81178 9.84165 6.71926 8.56854 7.44179 7.71735C7.28473 7.86556 7.13534 8.0217 6.99421 8.18515L3.4815 11.6951C2.70561 12.4496 2.28283 13.4956 2.31657 14.5774C2.35032 15.6591 2.83747 16.6767 3.65888 17.3814C3.68703 17.4049 3.71788 17.425 3.75079 17.4411C3.15188 17.0039 2.85371 16.2642 2.98201 15.5339C3.11031 14.8036 3.64275 14.2098 4.35481 14.0029C5.06687 13.796 5.83462 14.012 6.33431 14.5598L7.63848 15.8778C7.74233 15.9798 8.89393 17.0469 9.00238 17.1415C9.63498 17.6972 10.3807 18.1089 11.1879 18.3483C11.9799 18.5921 12.8269 18.5921 13.6189 18.3483C14.6694 18.0119 15.4699 17.3851 16.2842 16.67C16.5906 16.4023 16.8914 16.1309 17.1867 15.8557L18.4679 14.5617C19.0089 13.9678 19.8593 13.7675 20.6085 14.0574C21.3577 14.3474 21.8517 15.068 21.852 15.8714C21.8523 15.9823 21.8425 16.0931 21.8226 16.2022C21.7287 16.7133 21.4358 17.1662 21.0083 17.4614C21.0574 17.4431 21.103 17.4167 21.1434 17.3832C22.4549 16.2537 22.9356 14.3788 22.2453 12.8862Z" fill="url(#paint0_linear)"/>
<path d="M10.4353 7.58457C9.83902 6.99803 8.94617 6.83266 8.17939 7.16674C7.41261 7.50082 6.92576 8.26732 6.9493 9.10338C6.97285 9.93945 7.50207 10.6773 8.28644 10.9677C9.07081 11.2581 9.95294 11.0428 10.5153 10.4236L11.9031 9.05233L10.4353 7.58457Z" fill="url(#paint1_linear)"/>
<path d="M19.9082 13.9258C19.3605 13.9252 18.8381 14.1563 18.4699 14.5618L17.1887 15.8558L17.1648 15.8797L17.7365 16.4514C17.994 16.7311 18.2655 16.9977 18.5498 17.2501C18.6031 17.2942 18.6583 17.3356 18.7144 17.3751C18.8063 17.4367 18.8917 17.4936 18.9836 17.5479C19.0933 17.6153 19.2087 17.6731 19.3283 17.7206C19.4906 17.7778 19.6609 17.8088 19.8329 17.8126C20.2534 17.8261 20.6668 17.7018 21.0102 17.4587C21.4378 17.1635 21.7307 16.7106 21.8245 16.1996C21.8444 16.0904 21.8543 15.9797 21.8539 15.8687C21.8524 14.7952 20.9817 13.9258 19.9082 13.9258Z" fill="#4C45D0"/>
<path d="M6.33803 14.562C5.80372 13.9748 4.96631 13.7712 4.22207 14.0474C3.47782 14.3236 2.97602 15.0243 2.95411 15.8178C2.93221 16.6114 3.39459 17.3387 4.12246 17.6555C4.85032 17.9724 5.6977 17.8153 6.26359 17.2585L7.6422 15.8799L6.33803 14.562Z" fill="url(#paint2_linear)"/>
<path d="M12.9884 13.7281V12.6813C12.9932 12.5506 12.946 12.4233 12.857 12.3275C12.7694 12.2368 12.6245 12.1914 12.4223 12.1914C12.3176 12.1907 12.2135 12.2074 12.1144 12.2411C12.0358 12.2659 11.96 12.2989 11.8883 12.3394V13.7318H10.8405C10.7102 13.7274 10.5834 13.7747 10.4876 13.8632C10.3951 13.9502 10.3485 14.0954 10.3479 14.2989C10.3472 14.4035 10.364 14.5076 10.3976 14.6068C10.4228 14.6852 10.4557 14.7609 10.4959 14.8329H11.3093C11.4637 14.8071 11.7569 14.7198 11.8322 14.4193C11.8637 14.2626 11.8824 14.1037 11.8883 13.9441V15.8742C11.8829 16.0072 11.9301 16.1369 12.0197 16.2354C12.107 16.3273 12.2522 16.3751 12.4544 16.3751C12.56 16.3757 12.6648 16.3564 12.7632 16.3181C12.8552 16.2795 12.9342 16.2464 12.9884 16.2188V13.7373V13.7281Z" fill="white"/>
<path d="M14.4674 13.9527C14.4297 13.8607 14.3966 13.7808 14.369 13.7266H14.0308C13.7489 13.7638 13.505 13.9412 13.3829 14.198C13.2788 14.3943 13.2103 14.6074 13.1807 14.8276H14.0253C14.1583 14.833 14.288 14.7858 14.3865 14.6962C14.4796 14.6079 14.5262 14.4627 14.5262 14.2605C14.5267 14.1551 14.5067 14.0505 14.4674 13.9527Z" fill="white"/>
<g opacity="0.25">
<path d="M12.1979 12.3355C12.2698 12.2953 12.3456 12.2624 12.424 12.2372C12.474 12.2203 12.5254 12.2077 12.5775 12.1995C12.5261 12.1915 12.4742 12.1875 12.4222 12.1875C12.3175 12.1867 12.2134 12.2035 12.1143 12.2372C12.0357 12.262 11.9599 12.295 11.8882 12.3355V13.7279C11.9705 13.7279 12.0494 13.6951 12.1075 13.6368C12.1656 13.5786 12.1982 13.4995 12.1979 13.4172V12.3355Z" fill="url(#paint3_linear)"/>
<path d="M10.6586 14.2939C10.6586 14.0911 10.7048 13.9459 10.7973 13.8583C10.8935 13.7698 11.0206 13.7226 11.1512 13.7268H10.8405C10.7102 13.7225 10.5834 13.7697 10.4876 13.8583C10.3951 13.9453 10.3485 14.0905 10.3479 14.2939C10.3472 14.3986 10.364 14.5026 10.3976 14.6018C10.4228 14.6802 10.4557 14.756 10.4959 14.8279H10.8056C10.7658 14.7558 10.7329 14.6801 10.7073 14.6018C10.674 14.5026 10.6576 14.3985 10.6586 14.2939Z" fill="url(#paint4_linear)"/>
<path d="M12.3293 16.2299C12.2397 16.1315 12.1925 16.0017 12.1978 15.8687V15.2437C12.1978 15.2437 12.2052 14.9331 12.1978 14.8302C12.1418 14.0499 11.8881 13.9414 11.8881 13.9414V15.8715C11.8827 16.0045 11.93 16.1342 12.0195 16.2327C12.1068 16.3246 12.2521 16.3724 12.4543 16.3724C12.5045 16.3723 12.5546 16.368 12.6041 16.3595C12.5006 16.3479 12.404 16.3024 12.3293 16.2299Z" fill="url(#paint5_linear)"/>
</g>
<path opacity="0.25" d="M14.3451 13.7266H14.0345C13.7526 13.7638 13.5087 13.9412 13.3865 14.198C13.2811 14.394 13.2114 14.6072 13.1807 14.8276H13.4904C13.5211 14.6074 13.5901 14.3944 13.6944 14.198C13.8171 13.9405 14.0622 13.7629 14.3451 13.7266V13.7266Z" fill="url(#paint6_linear)"/>
<path d="M37.1759 14.6117C37.0719 14.6949 36.9367 14.7625 36.7703 14.8145C36.6039 14.8665 36.4115 14.8925 36.1931 14.8925C35.9227 14.8925 35.6939 14.8613 35.5067 14.7989C35.3299 14.7261 35.2051 14.6013 35.1323 14.4245C34.7059 13.3637 34.3471 12.4589 34.0559 11.7101C33.7647 10.9613 33.5307 10.3217 33.3539 9.7913H33.2759C33.2447 10.4881 33.2135 11.1277 33.1823 11.7101C33.1615 12.2925 33.1407 12.8645 33.1199 13.4261C33.0991 13.9773 33.0731 14.5389 33.0419 15.1109C33.0211 15.6829 32.9899 16.3017 32.9483 16.9673C32.8443 16.9985 32.7143 17.0297 32.5583 17.0609C32.4023 17.0921 32.2359 17.1077 32.0591 17.1077C31.3623 17.1077 31.0139 16.8477 31.0139 16.3277C31.0139 16.1613 31.0191 15.9065 31.0295 15.5633C31.0503 15.2097 31.0711 14.8041 31.0919 14.3465C31.1231 13.8785 31.1543 13.3689 31.1855 12.8177C31.2271 12.2665 31.2635 11.7101 31.2947 11.1485C31.3363 10.5869 31.3779 10.0357 31.4195 9.4949C31.4611 8.9437 31.4975 8.4341 31.5287 7.9661C31.6119 7.8621 31.7627 7.7581 31.9811 7.6541C32.2099 7.5397 32.5011 7.4825 32.8547 7.4825C33.2499 7.4825 33.5671 7.5501 33.8063 7.6853C34.0559 7.8101 34.2431 8.0233 34.3679 8.3249C34.5031 8.6473 34.6435 9.0009 34.7891 9.3857C34.9451 9.7705 35.1011 10.1657 35.2571 10.5713C35.4131 10.9769 35.5639 11.3773 35.7095 11.7725C35.8655 12.1573 36.0111 12.5213 36.1463 12.8645H36.2087C36.5623 11.8869 36.9107 10.9405 37.2539 10.0253C37.6075 9.1101 37.9143 8.3353 38.1743 7.7009C38.2991 7.6385 38.4603 7.5865 38.6579 7.5449C38.8555 7.5033 39.0583 7.4825 39.2663 7.4825C39.6511 7.4825 39.9579 7.5397 40.1867 7.6541C40.4155 7.7685 40.5559 7.9401 40.6079 8.1689C40.6495 8.3665 40.6963 8.6837 40.7483 9.1205C40.8003 9.5469 40.8523 10.0357 40.9043 10.5869C40.9563 11.1381 41.0083 11.7257 41.0603 12.3497C41.1123 12.9737 41.1591 13.5769 41.2007 14.1593C41.2423 14.7313 41.2787 15.2565 41.3099 15.7349C41.3411 16.2133 41.3619 16.5877 41.3723 16.8581C41.2371 16.9413 41.0915 17.0037 40.9355 17.0453C40.7899 17.0869 40.6079 17.1077 40.3895 17.1077C40.1191 17.1077 39.8799 17.0557 39.6719 16.9517C39.4743 16.8373 39.3651 16.6293 39.3443 16.3277C39.3027 15.6725 39.2663 15.0329 39.2351 14.4089C39.2039 13.7745 39.1779 13.1765 39.1571 12.6149C39.1363 12.0533 39.1155 11.5385 39.0947 11.0705C39.0739 10.5921 39.0583 10.1813 39.0479 9.8381H38.9699C38.8035 10.3269 38.5747 10.9509 38.2835 11.7101C37.9923 12.4589 37.6231 13.4261 37.1759 14.6117Z" fill="white"/>
<path d="M44.838 14.1905C44.9836 14.7209 45.254 15.1057 45.6492 15.3449C46.0444 15.5841 46.5332 15.7037 47.1156 15.7037C47.5524 15.7037 47.9528 15.6413 48.3168 15.5165C48.6912 15.3813 48.9928 15.2409 49.2216 15.0953C49.3672 15.1785 49.4868 15.2929 49.5804 15.4385C49.674 15.5841 49.7208 15.7401 49.7208 15.9065C49.7208 16.1145 49.648 16.3017 49.5024 16.4681C49.3672 16.6241 49.1748 16.7593 48.9252 16.8737C48.686 16.9881 48.4 17.0765 48.0672 17.1389C47.7344 17.2013 47.3756 17.2325 46.9908 17.2325C46.3772 17.2325 45.8156 17.1493 45.306 16.9829C44.8068 16.8165 44.3752 16.5669 44.0112 16.2341C43.6576 15.8909 43.3768 15.4697 43.1688 14.9705C42.9712 14.4713 42.8724 13.8889 42.8724 13.2233C42.8724 12.5785 42.9712 12.0169 43.1688 11.5385C43.3664 11.0601 43.6316 10.6597 43.9644 10.3373C44.3076 10.0149 44.7028 9.7757 45.15 9.6197C45.5972 9.4637 46.0704 9.3857 46.5696 9.3857C47.0792 9.3857 47.5472 9.4689 47.9736 9.6353C48.4 9.7913 48.764 10.0149 49.0656 10.3061C49.3672 10.5869 49.6012 10.9301 49.7676 11.3357C49.9444 11.7309 50.0328 12.1625 50.0328 12.6305C50.0328 12.9217 49.9548 13.1401 49.7988 13.2857C49.6532 13.4313 49.4452 13.5249 49.1748 13.5665L44.838 14.1905ZM46.5696 10.8677C46.06 10.8677 45.6336 11.0393 45.2904 11.3825C44.9472 11.7153 44.7548 12.1937 44.7132 12.8177L48.1764 12.3029C48.1348 11.9181 47.984 11.5853 47.724 11.3045C47.464 11.0133 47.0792 10.8677 46.5696 10.8677Z" fill="white"/>
<path d="M58.4128 15.5633C58.4128 15.8025 58.3608 15.9949 58.2568 16.1405C58.1528 16.2861 57.9968 16.4265 57.7888 16.5617C57.5288 16.7281 57.1856 16.8789 56.7592 17.0141C56.3328 17.1597 55.8388 17.2325 55.2772 17.2325C54.0292 17.2325 53.036 16.9153 52.2976 16.2809C51.5696 15.6361 51.2056 14.6533 51.2056 13.3325C51.2056 12.6461 51.3044 12.0585 51.502 11.5697C51.6996 11.0705 51.9648 10.6597 52.2976 10.3373C52.6408 10.0149 53.0412 9.7757 53.4988 9.6197C53.9564 9.4637 54.4504 9.3857 54.9808 9.3857C55.2616 9.3857 55.5268 9.4169 55.7764 9.4793C56.026 9.5313 56.2496 9.5989 56.4472 9.6821V6.8585C56.5304 6.8273 56.65 6.8013 56.806 6.7805C56.9724 6.7493 57.1492 6.7337 57.3364 6.7337C57.7108 6.7337 57.9812 6.8013 58.1476 6.9365C58.3244 7.0717 58.4128 7.3109 58.4128 7.6541V15.5633ZM56.4472 11.2733C56.2912 11.1797 56.1092 11.1017 55.9012 11.0393C55.6932 10.9769 55.4696 10.9457 55.2304 10.9457C54.648 10.9457 54.1644 11.1329 53.7796 11.5073C53.3948 11.8817 53.2024 12.4953 53.2024 13.3481C53.2024 14.1489 53.3844 14.7365 53.7484 15.1109C54.1228 15.4749 54.6272 15.6569 55.2616 15.6569C55.532 15.6569 55.7608 15.6257 55.948 15.5633C56.1456 15.5009 56.312 15.4281 56.4472 15.3449V11.2733Z" fill="white"/>
<path d="M60.4935 9.6665C60.5767 9.6457 60.6963 9.6197 60.8523 9.5885C61.0187 9.5573 61.1955 9.5417 61.3827 9.5417C61.7571 9.5417 62.0275 9.6093 62.1939 9.7445C62.3707 9.8797 62.4591 10.1189 62.4591 10.4621V16.9829C62.3759 17.0037 62.2511 17.0297 62.0847 17.0609C61.9287 17.0921 61.7571 17.1077 61.5699 17.1077C61.1955 17.1077 60.9199 17.0401 60.7431 16.9049C60.5767 16.7697 60.4935 16.5305 60.4935 16.1873V9.6665ZM60.3375 7.4045C60.3375 7.1029 60.4415 6.8481 60.6495 6.6401C60.8679 6.4217 61.1435 6.3125 61.4763 6.3125C61.8091 6.3125 62.0795 6.4217 62.2875 6.6401C62.4955 6.8481 62.5995 7.1029 62.5995 7.4045C62.5995 7.7165 62.4955 7.9817 62.2875 8.2001C62.0795 8.4081 61.8091 8.5121 61.4763 8.5121C61.1435 8.5121 60.8679 8.4081 60.6495 8.2001C60.4415 7.9817 60.3375 7.7165 60.3375 7.4045Z" fill="white"/>
<path d="M67.4155 15.7349C67.7171 15.7349 67.9927 15.7089 68.2423 15.6569C68.4919 15.5945 68.6739 15.5217 68.7883 15.4385V13.7069L67.2751 13.8473C66.8591 13.8889 66.5419 13.9825 66.3235 14.1281C66.1051 14.2633 65.9959 14.4817 65.9959 14.7833C65.9959 15.0849 66.1051 15.3189 66.3235 15.4853C66.5523 15.6517 66.9163 15.7349 67.4155 15.7349ZM67.3531 9.3857C68.3723 9.3857 69.1835 9.6041 69.7867 10.0409C70.4003 10.4777 70.7071 11.1537 70.7071 12.0689V15.6725C70.7071 15.9221 70.6447 16.1197 70.5199 16.2653C70.3951 16.4109 70.2391 16.5409 70.0519 16.6553C69.7607 16.8321 69.3915 16.9725 68.9443 17.0765C68.4971 17.1805 67.9875 17.2325 67.4155 17.2325C66.3755 17.2325 65.5539 17.0349 64.9507 16.6397C64.3579 16.2341 64.0615 15.6309 64.0615 14.8301C64.0615 14.1333 64.2799 13.6029 64.7167 13.2389C65.1639 12.8645 65.8087 12.6357 66.6511 12.5525L68.7883 12.3341V12.0533C68.7883 11.6581 68.6427 11.3669 68.3515 11.1797C68.0707 10.9925 67.6703 10.8989 67.1503 10.8989C66.7447 10.8989 66.3495 10.9509 65.9647 11.0549C65.5799 11.1485 65.2367 11.2681 64.9351 11.4137C64.8207 11.3305 64.7219 11.2213 64.6387 11.0861C64.5659 10.9405 64.5295 10.7845 64.5295 10.6181C64.5295 10.4101 64.5763 10.2437 64.6699 10.1189C64.7739 9.9837 64.9351 9.8641 65.1535 9.7601C65.4551 9.6353 65.7983 9.5417 66.1831 9.4793C66.5679 9.4169 66.9579 9.3857 67.3531 9.3857Z" fill="white"/>
<path d="M79.1851 12.2249C79.1851 11.6633 79.1071 11.1797 78.9511 10.7741C78.7951 10.3581 78.5767 10.0201 78.2959 9.7601C78.0255 9.4897 77.6979 9.2921 77.3131 9.1673C76.9387 9.0321 76.5279 8.9645 76.0807 8.9645C75.8415 8.9645 75.6231 8.9749 75.4255 8.9957C75.2383 9.0061 75.0563 9.0217 74.8795 9.0425V15.4541C75.0563 15.4957 75.2539 15.5269 75.4723 15.5477C75.7011 15.5581 75.9247 15.5633 76.1431 15.5633C77.1103 15.5633 77.8591 15.2825 78.3895 14.7209C78.9199 14.1593 79.1851 13.3273 79.1851 12.2249ZM81.2599 12.2093C81.2599 13.0517 81.1351 13.7901 80.8855 14.4245C80.6463 15.0485 80.3031 15.5685 79.8559 15.9845C79.4087 16.3901 78.8679 16.6969 78.2335 16.9049C77.6095 17.1129 76.9127 17.2169 76.1431 17.2169C75.9663 17.2169 75.7739 17.2117 75.5659 17.2013C75.3579 17.2013 75.1395 17.1857 74.9107 17.1545C74.6923 17.1337 74.4687 17.1025 74.2399 17.0609C74.0215 17.0193 73.8135 16.9621 73.6159 16.8893C73.1167 16.7021 72.8671 16.3901 72.8671 15.9533V8.3093C72.8671 8.1221 72.9191 7.9765 73.0231 7.8725C73.1271 7.7685 73.2727 7.6853 73.4599 7.6229C73.8447 7.4877 74.2607 7.4045 74.7079 7.3733C75.1655 7.3317 75.5971 7.3109 76.0027 7.3109C76.7827 7.3109 77.4951 7.4149 78.1399 7.6229C78.7951 7.8205 79.3515 8.1221 79.8091 8.5277C80.2667 8.9333 80.6203 9.4429 80.8699 10.0565C81.1299 10.6701 81.2599 11.3877 81.2599 12.2093Z" fill="white"/>
<path d="M90.2324 13.3013C90.2324 13.9045 90.1388 14.4505 89.9516 14.9393C89.7748 15.4177 89.52 15.8285 89.1872 16.1717C88.8544 16.5149 88.454 16.7801 87.986 16.9673C87.518 17.1441 86.9928 17.2325 86.4104 17.2325C85.828 17.2325 85.3028 17.1441 84.8348 16.9673C84.3668 16.7801 83.9664 16.5201 83.6336 16.1873C83.3008 15.8441 83.0408 15.4333 82.8536 14.9549C82.6768 14.4661 82.5884 13.9149 82.5884 13.3013C82.5884 12.6981 82.6768 12.1573 82.8536 11.6789C83.0408 11.1901 83.3008 10.7793 83.6336 10.4465C83.9768 10.1033 84.3824 9.8433 84.8504 9.6665C85.3184 9.4793 85.8384 9.3857 86.4104 9.3857C86.9824 9.3857 87.5024 9.4793 87.9704 9.6665C88.4384 9.8433 88.8388 10.1033 89.1716 10.4465C89.5148 10.7897 89.7748 11.2057 89.9516 11.6945C90.1388 12.1729 90.2324 12.7085 90.2324 13.3013ZM86.4104 10.9457C85.8488 10.9457 85.4068 11.1537 85.0844 11.5697C84.762 11.9753 84.6008 12.5525 84.6008 13.3013C84.6008 14.0605 84.7568 14.6429 85.0688 15.0485C85.3912 15.4541 85.8384 15.6569 86.4104 15.6569C86.9824 15.6569 87.4244 15.4541 87.7364 15.0485C88.0588 14.6325 88.22 14.0501 88.22 13.3013C88.22 12.5525 88.0588 11.9753 87.7364 11.5697C87.414 11.1537 86.972 10.9457 86.4104 10.9457Z" fill="white"/>
<path d="M95.666 10.9613C95.354 10.9613 95.0628 11.0133 94.7924 11.1173C94.5324 11.2213 94.3036 11.3721 94.106 11.5697C93.9188 11.7673 93.768 12.0117 93.6536 12.3029C93.5392 12.5941 93.482 12.9321 93.482 13.3169C93.482 14.0865 93.6848 14.6689 94.0904 15.0641C94.496 15.4489 95.0212 15.6413 95.666 15.6413C96.03 15.6413 96.342 15.5945 96.6021 15.5009C96.8725 15.3969 97.1116 15.2877 97.3196 15.1733C97.4652 15.2773 97.5797 15.3969 97.6628 15.5321C97.7564 15.6673 97.8032 15.8233 97.8032 16.0001C97.8032 16.3537 97.5952 16.6449 97.1792 16.8737C96.7632 17.1025 96.2016 17.2169 95.4944 17.2169C94.9016 17.2169 94.3556 17.1389 93.8564 16.9829C93.3676 16.8165 92.9464 16.5721 92.5928 16.2497C92.2393 15.9169 91.9636 15.5061 91.766 15.0173C91.5788 14.5285 91.4852 13.9617 91.4852 13.3169C91.4852 12.6617 91.5892 12.0897 91.7972 11.6009C92.0052 11.1017 92.286 10.6909 92.6396 10.3685C93.0036 10.0357 93.4248 9.7913 93.9032 9.6353C94.3816 9.4689 94.8912 9.3857 95.432 9.3857C96.1288 9.3857 96.6852 9.5105 97.1012 9.7601C97.5173 9.9993 97.7253 10.2957 97.7253 10.6493C97.7253 10.8157 97.6784 10.9665 97.5848 11.1017C97.5016 11.2369 97.4029 11.3461 97.2885 11.4293C97.0805 11.3149 96.8465 11.2109 96.5864 11.1173C96.3368 11.0133 96.03 10.9613 95.666 10.9613Z" fill="white"/>
<defs>
<linearGradient id="paint0_linear" x1="-2.83404" y1="11.6416" x2="2.15274" y2="25.7162" gradientUnits="userSpaceOnUse">
<stop stop-color="#6ABBFC"/>
<stop offset="1" stop-color="#614AFA"/>
</linearGradient>
<linearGradient id="paint1_linear" x1="11.9206" y1="11.0936" x2="11.9206" y2="6.96603" gradientUnits="userSpaceOnUse">
<stop stop-color="#6120F9"/>
<stop offset="1" stop-color="#5677FA"/>
</linearGradient>
<linearGradient id="paint2_linear" x1="7.65084" y1="17.832" x2="7.65084" y2="13.926" gradientUnits="userSpaceOnUse">
<stop stop-color="#5677FA"/>
<stop offset="1" stop-color="#6120F9"/>
</linearGradient>
<linearGradient id="paint3_linear" x1="11.8882" y1="13.7279" x2="12.5775" y2="13.7279" gradientUnits="userSpaceOnUse">
<stop stop-color="#614FFA"/>
<stop offset="1" stop-color="#6ABBFC"/>
</linearGradient>
<linearGradient id="paint4_linear" x1="10.3479" y1="14.828" x2="11.1512" y2="14.828" gradientUnits="userSpaceOnUse">
<stop stop-color="#614FFA"/>
<stop offset="1" stop-color="#6ABBFC"/>
</linearGradient>
<linearGradient id="paint5_linear" x1="11.8881" y1="16.3703" x2="12.6041" y2="16.3703" gradientUnits="userSpaceOnUse">
<stop stop-color="#614FFA"/>
<stop offset="1" stop-color="#6ABBFC"/>
</linearGradient>
<linearGradient id="paint6_linear" x1="13.1834" y1="14.8263" x2="14.3451" y2="14.8263" gradientUnits="userSpaceOnUse">
<stop stop-color="#614FFA"/>
<stop offset="1" stop-color="#6ABBFC"/>
</linearGradient>
</defs>
</svg>
