<svg width="40" height="41" viewBox="0 0 40 41" fill="none" xmlns="http://www.w3.org/2000/svg">
<path d="M18.9956 0.0813806C18.6158 0.0881623 18.2428 0.0542537 17.9241 0.128853C17.6392 0.19667 17.2934 0.257705 16.9814 0.257705C16.9679 0.298396 16.9746 0.264487 16.9814 0.305177C16.7712 0.345868 16.561 0.379776 16.3439 0.420466C16.3982 0.454375 16.5474 0.43403 16.6356 0.43403H20.1214V0C19.728 0 19.355 0.0203451 18.9956 0.0339086V0.0813806V0.0813806ZM39.0763 23.0443C39.0491 23.0036 38.8864 22.834 38.8796 22.8137C38.8592 22.7527 38.9338 22.4339 38.9474 22.3729C39.0084 22.1152 39.0423 21.5659 38.9813 21.281C38.9271 21.0437 38.8796 20.8063 38.7846 20.5961C38.7372 20.4876 38.6287 20.3791 38.588 20.2706C38.7372 19.4703 38.5676 18.6022 38.3913 17.9783C38.3506 17.8224 38.3642 17.6392 38.3235 17.4765V17.1849C38.3303 16.9068 38.337 16.6288 38.337 16.3575C38.3303 15.4691 38.2421 14.6349 37.8962 14.0788C37.8013 13.9229 37.686 13.6923 37.5029 13.6245C37.4893 13.1701 37.3673 12.7089 37.2588 12.3224C37.0485 11.5628 36.8654 10.8914 36.4585 10.3353C36.3432 10.22 36.2279 10.1048 36.1194 9.99625C36.0516 9.94878 35.9499 9.92843 35.8888 9.8674C35.8007 9.73855 35.821 9.37233 35.7736 9.20279C35.6108 8.606 35.3056 7.83966 34.6207 7.78541C34.6274 7.6023 34.6342 7.4192 34.6342 7.22931C34.5732 6.9377 34.5596 6.65965 34.4715 6.40194C34.268 5.77802 33.9628 5.31687 33.6102 4.85571C33.522 4.74042 33.2711 4.5641 33.1355 4.48271C33.0744 4.44881 32.9659 4.43524 32.9252 4.38777C32.8032 4.23857 32.7218 3.96052 32.6133 3.7842C32.3149 3.29591 31.9351 2.60418 31.4875 2.27188C31.3383 2.15659 31.162 2.0413 30.9653 1.98026C30.8839 1.95313 30.789 1.98704 30.7076 1.94635C30.6669 1.90566 30.633 1.85819 30.5923 1.8175C30.5109 1.73612 30.4024 1.65474 30.3143 1.58692C29.7785 1.21393 29.1885 0.942659 28.49 0.725644C28.3001 0.664608 27.9814 0.562882 27.7101 0.6307C27.5677 0.664608 27.4524 0.718862 27.3371 0.759552C27.2489 0.793461 26.9845 0.637481 26.8827 0.596791C26.5233 0.447593 26.1232 0.359431 25.7434 0.257705C24.8482 0.00678171 23.2342 -0.0135635 22.5356 0.420466C22.1898 0.637481 21.9321 0.983349 21.7218 1.32922C21.2946 2.02773 21.1454 2.92292 20.9419 3.83845V37.7742C21.1793 38.7304 21.7829 39.707 22.4882 40.202C22.8001 40.419 23.1663 40.5886 23.58 40.7039C23.7835 40.7649 24.0073 40.7242 24.2311 40.7852C24.3938 40.8259 24.5091 40.9344 24.6855 40.9819C24.8482 41.0226 24.9974 40.9819 25.1263 40.9819C25.4586 40.9887 25.8655 41.0158 26.1842 40.948C26.2995 40.9412 26.4148 40.9344 26.5233 40.9344C26.7674 40.8802 27.0387 40.887 27.2896 40.8192C28.178 40.5954 29.0122 40.3783 29.6971 39.9579C30.0837 39.7205 30.4228 39.4425 30.7687 39.178C30.8975 39.0763 31.0264 38.9203 31.1281 38.7846C31.1688 38.7439 31.2162 38.71 31.2569 38.6693C31.2841 38.6354 31.2908 38.5947 31.3248 38.5744C31.4468 38.493 31.6299 38.5066 31.7791 38.4591C32.0368 38.3777 32.2945 38.276 32.498 38.1336C32.776 37.9369 32.9863 37.6453 33.1626 37.3537C33.3186 37.1028 33.2711 36.8654 33.5695 36.7366C33.7797 36.6416 33.9967 36.5941 34.1866 36.4789C34.6071 36.2212 34.9055 35.8753 35.1632 35.4548C35.2853 35.2581 35.3599 34.9937 35.4413 34.7699C35.4548 34.702 35.4752 34.6274 35.4887 34.5596C35.5362 34.4782 35.7193 34.3426 35.8007 34.2816C35.9431 34.1731 36.1262 33.9561 36.2415 33.8069C36.3025 33.7526 36.3636 33.6984 36.4178 33.6441C36.5738 33.4339 36.7298 33.2575 36.8586 33.0066C36.8925 32.932 37.0078 32.7218 36.94 32.6133C36.9468 32.4234 37.1299 32.342 37.2316 32.2403C37.4554 32.0165 37.6792 31.7452 37.8691 31.4943C37.998 31.318 38.0319 31.0467 38.0997 30.7958C38.1133 30.728 38.12 30.6534 38.1336 30.5855C38.1811 30.4703 38.2828 30.3617 38.3438 30.26C38.4456 30.0905 38.5134 29.9209 38.6219 29.7582C38.6626 29.6971 38.7372 29.6158 38.7711 29.5479C38.8592 29.3241 38.8253 29.08 38.8864 28.8291C39.0152 28.2798 39.0559 27.2354 38.9203 26.6657C38.8592 26.4216 38.8525 26.0486 38.71 25.8994C38.7304 25.7909 38.805 25.7366 38.8592 25.6552C38.9474 25.5128 39.0356 25.3501 39.1034 25.2009C39.239 24.8957 39.2797 24.5837 39.3611 24.2107C39.4493 23.8377 39.1983 23.2342 39.0763 23.0443ZM21.5184 22.7866C21.5523 22.7255 21.8236 22.5763 21.8914 22.5289C22.183 22.3186 22.4475 22.0202 22.773 21.8643C22.7323 21.6811 22.5356 21.593 22.4814 21.4234C22.2779 21.498 22.0541 21.7557 21.8778 21.8778C21.7693 21.9524 21.6269 22.0135 21.5523 22.122H21.5184V18.6226C21.532 18.6022 21.871 18.5005 21.9253 18.4734C22.244 18.331 22.5492 18.1207 22.8205 17.9173C22.9765 17.802 23.1053 17.6257 23.2613 17.5104C23.458 17.3612 23.6207 17.1849 23.7631 16.9882C23.9191 16.778 24.1294 16.5949 24.2853 16.3846C24.4277 16.188 24.5566 15.9099 24.7261 15.7336C24.6244 15.6251 24.4142 15.5233 24.2718 15.4555C23.797 16.2693 23.1392 17.0153 22.3864 17.5579C22.1694 17.7138 21.8303 17.9987 21.5252 18.0461V3.80454C21.6744 3.18063 21.8032 2.57027 22.027 2.04808C22.2101 1.62761 22.4 1.19358 22.7459 0.942659C23.4987 0.39334 25.4247 0.637481 26.2588 0.942659C26.5572 1.05117 26.8759 1.17324 27.1676 1.28174C27.2422 1.30887 27.4117 1.36991 27.4795 1.32922C27.6423 1.32243 27.6626 1.1868 27.8389 1.15289C28.0763 1.09864 28.4629 1.25462 28.6188 1.31565C29.0597 1.47841 29.453 1.64796 29.826 1.88532C29.9888 1.98704 30.1312 2.14302 30.3007 2.24475C30.2939 2.32613 30.2939 2.47533 30.2532 2.53636V2.54993C30.4499 2.53636 30.6398 2.42107 30.8365 2.48211C31.1145 2.57027 31.3248 2.82119 31.4875 3.03821C31.7249 3.35695 31.9555 3.69604 32.1725 4.04868C32.3217 4.28604 32.3963 4.57088 32.5658 4.79467C32.5997 4.84215 32.9727 4.99813 33.0541 5.05238C33.3525 5.26939 33.5763 5.63561 33.7526 5.98147C33.9357 6.33412 34.0103 6.72746 34.112 7.16827C34.1324 7.26322 34.1324 7.6023 34.0985 7.65656C34.0849 7.8261 33.895 7.88714 33.7865 7.96852C33.4542 8.20588 33.1558 8.52462 32.7964 8.73485C32.7693 8.91118 32.7421 9.08072 32.715 9.25704V9.569C32.6811 9.6436 32.5794 9.67073 32.5387 9.73176C32.498 9.78602 32.4573 9.92165 32.4437 9.97591C32.403 10.1387 32.5048 10.4167 32.4573 10.6134C32.3827 10.9389 32.2945 11.2712 32.064 11.4408C31.8537 11.5967 31.6164 11.6917 31.318 11.7663C31.1349 11.8138 30.9314 11.7731 30.7822 11.8341C30.0498 12.1325 29.1343 12.6343 28.7477 13.265H28.7341C28.7545 13.2786 28.7748 13.2786 28.8155 13.2786C28.768 13.4549 28.7206 13.6245 28.6663 13.8008C28.6731 13.8076 28.6799 13.8144 28.6799 13.8144C29.0393 13.8076 29.1614 13.5973 29.3174 13.3939C29.4327 13.2447 29.6836 13.0345 29.8396 12.9192C30.1515 12.7022 30.6127 12.4241 31.0128 12.3156H31.1416C31.3315 12.2749 31.535 12.2749 31.7113 12.2207C32.2403 12.0511 32.5658 11.7595 32.8032 11.2916C32.9117 11.0745 32.9931 10.7829 32.9998 10.4642C32.9998 10.3692 33.027 10.1861 32.9863 10.1251C33.0066 9.96234 33.1897 9.8674 33.244 9.7182C33.2915 9.58935 33.2236 9.39946 33.2575 9.24348C33.2711 9.18923 33.2847 9.10106 33.2915 9.03325C33.5017 8.92474 33.6577 8.74163 33.8476 8.61278C33.9764 8.52462 34.1459 8.44324 34.2409 8.32117C35.109 8.24657 35.1836 8.97899 35.3463 9.65716C35.3938 9.84705 35.3327 10.1251 35.4277 10.2743C35.4548 10.3218 35.7803 10.4032 35.8482 10.4506C36.1533 10.6744 36.3432 11.1356 36.4992 11.5086C36.6891 11.9765 36.7705 12.5055 36.9061 13.0209C36.9468 13.3125 36.9943 13.6041 37.035 13.9025C37.0621 13.9703 37.157 14.0178 37.2113 14.0517V14.0653C37.1231 14.0449 36.9807 13.9907 36.9197 13.9364C36.7908 13.9568 36.7908 14.1128 36.7433 14.2145C36.6213 14.4451 36.4856 14.6892 36.3364 14.8994C36.2415 15.0418 36.072 15.2317 35.9295 15.3199C35.7329 15.442 35.5362 15.3945 35.4073 15.5979C35.2514 15.8285 35.2717 16.1812 35.1768 16.4796C35.0615 16.839 34.9055 17.1374 34.702 17.4087C34.4104 17.802 33.739 18.175 33.2508 18.3852C32.9863 18.4802 32.7218 18.5683 32.4505 18.6633C32.3759 18.704 32.3691 18.8396 32.3352 18.921C32.2606 19.1109 32.1928 19.3143 32.1046 19.5042C31.8741 20.04 31.6096 20.5622 31.2908 21.003C31.1756 21.1657 31.0467 21.3624 30.85 21.4438C30.6669 21.5184 30.4296 21.5116 30.2126 21.5591H29.9548C29.7378 21.6065 29.4327 21.5726 29.1885 21.5726C28.6324 21.5591 28.0695 21.5523 27.5134 21.5387C27.1947 21.5387 26.8285 21.498 26.5504 21.5726C26.1096 21.6879 25.8112 22.0881 25.5264 22.3729C25.3229 22.5763 25.1127 22.773 24.9092 22.9765C24.76 23.1257 24.6244 23.2884 24.4549 23.4173C24.4006 23.4783 24.3464 23.5393 24.2921 23.5936C24.0819 23.7564 23.8852 23.9395 23.6546 24.0819C23.4241 24.2243 23.1053 24.2107 22.8069 24.3125C22.3661 24.4549 21.7761 24.794 21.5387 25.1398H21.5252V22.7866H21.5184ZM38.4116 28.273V28.4357C38.3642 28.646 38.3506 28.9037 38.2964 29.1003C38.2828 29.1749 38.276 29.2495 38.2625 29.3309C38.2353 29.392 38.1675 29.453 38.1336 29.5072C38.0115 29.7039 37.9301 29.9006 37.8081 30.0905C37.7606 30.1719 37.6657 30.2668 37.6318 30.3482C37.5368 30.5516 37.5978 30.9178 37.4826 31.0942C37.4419 31.162 37.3537 31.223 37.3062 31.2908C37.1502 31.5011 37.0011 31.6977 36.8179 31.8741C36.7027 31.9894 36.5467 32.1046 36.4585 32.2471C36.3703 32.3963 36.4653 32.5455 36.4246 32.6879C36.3975 32.7964 36.2958 32.9252 36.2279 33.0134C36.1398 33.1287 36.0041 33.2236 35.916 33.3389C35.7532 33.5559 35.543 33.7662 35.3463 33.9425C35.2921 33.99 35.0479 34.1731 35.0208 34.2205C35.014 34.2612 35.0072 34.3087 35.0072 34.3494C34.9733 34.4647 34.9394 34.6003 34.8919 34.7224C34.7495 35.0683 34.58 35.3599 34.3697 35.6311C34.2138 35.8414 33.8747 36.0109 33.6238 36.1194C33.4 36.2144 33.1423 36.2686 33.0066 36.4449C32.6947 36.3703 32.3624 36.2822 32.0436 36.2008C31.813 36.1669 31.5892 36.133 31.3587 36.1059C31.1891 36.0652 30.9924 36.1262 30.8704 36.1533C30.6941 36.194 30.3482 36.133 30.2193 36.0855C30.0498 36.0313 29.8463 35.977 29.6971 35.8888C29.453 35.7396 29.3648 35.5091 28.9308 35.6311C28.8426 35.6583 28.7748 35.6311 28.7002 35.665C28.3205 35.821 28.1645 36.1872 27.9339 36.4924C27.805 36.662 27.527 36.8044 27.3303 36.8993C26.7674 37.1774 25.9808 37.2045 25.5535 37.6182L25.5399 37.6317C25.6552 37.747 25.6891 37.9505 25.818 38.0522C25.8316 38.0658 25.9536 37.998 25.9943 37.9708C26.1571 37.8691 26.2995 37.7742 26.5165 37.7131C27.2015 37.5097 27.6694 37.374 28.178 36.9943C28.5239 36.7298 28.5578 36.1465 29.141 36.1126C29.4733 36.4789 30.0091 36.5535 30.5923 36.6823C30.8839 36.7501 31.101 36.567 31.4061 36.6348C31.6571 36.6755 31.908 36.723 32.1521 36.7637C32.3284 36.8112 32.5455 36.8993 32.7354 36.9129C32.6675 37.3537 32.0843 37.7538 31.6774 37.8895C31.3926 37.9844 31.067 37.9776 30.9111 38.2014C30.2058 38.059 29.4394 38.0861 28.7477 37.9234C28.5442 37.8759 28.1306 37.9234 28.0017 37.8081C27.9203 37.8827 27.9 38.0115 27.8389 38.0997C27.7304 38.2692 27.6016 38.432 27.4795 38.588C27.3778 38.7168 27.2218 38.8457 27.0862 38.9474C26.4826 39.4018 25.9265 39.7341 24.8414 39.7137C24.8346 39.8968 24.794 40.0596 24.7736 40.2359C25.0652 40.2359 25.3772 40.2698 25.6552 40.202C26.8556 39.9104 27.7033 39.3407 28.2594 38.4116C28.5171 38.4184 28.7952 38.4591 29.0258 38.5066C29.2495 38.5608 29.4869 38.5405 29.6904 38.588C29.8735 38.6287 30.2193 38.588 30.355 38.6693H30.4499V38.6829C30.3617 38.7439 30.3007 38.8321 30.2193 38.8931C30.0159 39.0491 29.7989 39.2119 29.5819 39.3475C29.0664 39.673 28.4629 39.8901 27.8254 40.0935C27.3846 40.2359 26.8963 40.2427 26.408 40.3512C26.2046 40.3648 25.9943 40.3716 25.7909 40.3851C25.601 40.4258 24.9635 40.4462 24.7804 40.3987C24.6176 40.358 24.5023 40.2495 24.326 40.202C24.1904 40.1885 24.0548 40.1817 23.9191 40.1681C23.6546 40.1071 23.3698 40.046 23.1528 39.924C22.495 39.5442 21.9999 38.9542 21.6879 38.2285C21.6201 38.0454 21.5591 37.8623 21.4913 37.6724V31.4739C22.0135 31.5146 22.5017 31.6367 23.1053 31.6367C23.2952 31.6367 23.675 31.6638 23.7903 31.5892H23.8377C23.7767 31.813 23.6207 32.0097 23.5122 32.1928C23.2681 32.5861 23.0443 33.149 22.5492 33.2847V33.8204C22.8612 33.8069 23.0307 33.617 23.2138 33.4813C23.6478 33.1558 23.9937 32.4709 24.2582 31.969C24.3667 31.7656 24.6515 31.1959 24.3531 30.9924C24.1565 30.8636 23.797 31.0603 23.5868 31.1077C23.2003 31.1959 22.3797 31.101 22.0541 31.0264C21.8914 30.9857 21.6744 31.0264 21.5523 30.945C21.5048 30.9721 21.5048 31.006 21.5048 31.0738C21.4574 30.9924 21.4913 30.6127 21.4913 30.4906V26.0621C21.6608 25.5332 22.3322 25.0178 22.8408 24.8075C23.0646 24.7126 23.3834 24.7397 23.6072 24.6448C24.0005 24.482 24.2989 24.1836 24.6176 23.9462C25.0652 23.4986 25.5196 23.0578 25.9672 22.6102C26.13 22.4475 26.3944 22.1287 26.6182 22.0541H26.7335C27.0184 21.9863 27.3507 22.0406 27.6626 22.0406C28.056 22.0474 28.4425 22.0541 28.8359 22.0541C29.0732 22.1084 29.5276 22.1084 29.765 22.0541C29.8802 22.027 30.043 22.0609 30.138 22.0406H30.3346C30.633 21.9728 30.945 21.966 31.162 21.8303C31.7452 21.4709 32.1928 20.535 32.4776 19.8772C32.559 19.6941 32.6336 19.5042 32.7082 19.3211C32.7489 19.2262 32.7489 19.1312 32.8032 19.0634C32.8981 18.9888 33.0541 18.982 33.1762 18.9346C33.4135 18.8396 33.6916 18.7447 33.9086 18.609C34.9258 17.9919 35.6176 17.3341 35.7939 15.876C36.3703 15.8082 36.7094 15.1639 36.9671 14.7502C37.0756 14.5807 37.2248 14.3772 37.2791 14.167H37.313C37.4758 14.4383 37.5978 14.7163 37.686 15.0758C37.7538 15.3335 37.7064 15.6386 37.7674 15.9031V17.6257C37.8623 18.0529 37.9301 18.4598 38.0251 18.86C38.059 19.0024 38.0454 19.1583 38.0726 19.3008C38.1268 19.5585 38.0454 19.8365 38.0387 20.0807C37.6521 20.4401 37.1231 20.7656 36.5738 20.9419C36.3297 21.0233 35.9431 21.0369 35.7464 20.908C35.6311 20.8334 35.7329 20.691 35.6786 20.5486C35.6583 20.4808 35.5837 20.4401 35.5498 20.3858C35.0615 20.2706 34.9462 20.7724 34.7699 21.0708C34.6071 21.3353 34.4511 21.6337 34.3494 21.9524C34.2409 22.2779 34.2205 22.5899 34.0578 22.8476C33.8611 23.1596 33.5424 23.4308 33.2101 23.6139C32.8099 23.831 32.3759 24.0005 31.9555 24.1836C31.691 24.2989 31.4333 24.4752 31.1756 24.5905C30.8229 24.7465 30.477 24.8957 30.1176 25.0449C29.9006 25.133 29.6565 25.1534 29.3987 25.2076C29.1546 25.2619 28.8969 25.1263 28.7477 25.0584C28.3069 24.8753 27.9678 24.5837 27.527 24.421C27.3235 24.3464 27.0387 24.3735 26.8624 24.4549C26.503 24.6176 26.3538 25.0924 26.1978 25.4653C25.9197 26.13 25.6959 26.9641 25.1534 27.371C24.4752 27.8796 23.5597 28.3069 23.0511 28.9851C22.8747 29.2156 22.6509 29.4733 22.6306 29.8463C22.7391 29.8531 23.0443 29.8802 23.1189 29.9277C23.2003 29.8735 23.2003 29.6904 23.2477 29.6022C23.3698 29.392 23.5597 29.1478 23.7496 28.9986C24.048 28.768 24.3599 28.5442 24.6787 28.334C25.1941 27.9949 25.6959 27.6897 26.0282 27.1608C26.2995 26.7267 26.469 26.1706 26.6793 25.6824C26.781 25.445 26.8488 25.2212 26.9912 25.0313C27.0319 24.9771 27.1065 24.9635 27.154 24.916C27.4185 24.916 27.5473 25.0313 27.7101 25.1263C27.9949 25.3026 28.6053 25.6756 28.9986 25.6959C28.9715 25.7163 28.9172 25.7163 28.8698 25.7095C28.8698 26.7878 28.7274 28.4357 29.7989 28.4629C29.8802 28.7816 29.8124 29.3174 29.9142 29.6361C29.5276 29.7853 28.8698 29.67 28.4968 29.5683C28.3476 29.5276 28.1645 29.5479 28.056 29.4733C28.0424 29.4666 28.0221 29.4598 28.0085 29.4598C28.0085 29.1682 28.0085 28.8969 27.9746 28.6799C27.8593 28.6934 27.744 28.7138 27.6355 28.7274H27.5066C27.4795 28.8765 27.466 29.0868 27.3914 29.2021C27.3032 29.3445 27.1133 29.4055 26.9709 29.4937C26.6386 29.6971 26.2724 29.8192 25.879 29.9684C25.7773 30.0091 25.6756 30.0701 25.5535 30.0837C25.5603 30.199 25.6417 30.4906 25.7027 30.572V30.6059C26.2249 30.3889 26.7674 30.2465 27.215 29.9684C27.31 29.9074 27.4117 29.8802 27.4931 29.8056H27.527V29.9006C27.7169 29.9209 27.9068 29.9955 28.0831 30.0498C28.429 30.1447 28.8766 30.2125 29.2699 30.2261C29.514 30.2329 29.9481 30.2465 30.0837 30.1447H30.0973C30.0905 30.477 30.0159 30.7958 29.9345 31.0535C29.5886 32.1182 29.1343 32.7353 28.2594 33.2643C27.9542 33.4474 27.5745 33.5085 27.2354 33.6577C26.9234 33.7933 26.625 33.99 26.2927 34.0781C26.096 34.0917 25.8994 34.0985 25.7095 34.112C25.445 34.1866 25.1805 34.2612 24.9092 34.3426C24.7397 34.3697 24.5702 34.3969 24.4074 34.424C24.0954 34.4172 23.7767 34.4104 23.4647 34.4104C22.8544 34.5461 22.5899 34.797 22.3119 35.2581C22.2373 35.3802 22.1423 35.5226 22.1355 35.7125C22.2508 35.7193 22.5492 35.7736 22.6238 35.8278C22.6984 35.7396 22.712 35.5837 22.773 35.4887C22.9154 35.2581 23.1121 35.0547 23.3901 34.9665C23.5393 34.9191 23.797 34.953 23.9462 34.9665C24.3057 35.0004 24.6651 34.9394 24.9364 34.8716C25.072 34.8377 25.2416 34.8445 25.3433 34.7766H25.4111V34.7902C25.2212 34.8987 25.0856 35.1089 24.9567 35.2785C24.6244 35.7261 24.2853 36.2144 24.048 36.7569C23.9598 36.9536 23.8852 37.3062 23.7564 37.4554V37.5029C23.9191 37.5639 24.0819 37.625 24.2446 37.6792C24.4956 37.1367 24.6855 36.5874 24.9906 36.0991C25.1195 35.8888 25.2822 35.6922 25.4314 35.4955C25.4925 35.4413 25.5535 35.387 25.6078 35.3327C25.7027 35.2039 25.8383 35.0683 25.9672 34.9733C26.1774 34.8173 26.4148 34.6207 26.6657 34.5189C26.8285 34.4511 27.0455 34.4376 27.1676 34.3223C27.2896 34.3697 27.371 34.5257 27.4592 34.6139C27.6423 34.797 27.8932 35.0004 28.1577 35.0886C28.3815 35.1632 28.6663 35.0683 28.924 35.1225C29.1478 35.17 29.5073 35.1496 29.7243 35.1089C29.8192 35.1022 29.9074 35.0954 30.0023 35.0954C30.2939 35.0276 30.5788 34.9733 30.8026 34.8377C30.9314 34.7563 31.0264 34.6207 31.1416 34.5257C31.5146 34.2477 31.7927 33.8611 32.1657 33.5831C32.2878 33.4881 32.3963 33.3525 32.5387 33.2711C32.7353 33.1626 32.9931 33.149 33.2236 33.0744C33.6034 32.9524 33.99 32.8235 34.3494 32.6675C35.6515 32.0979 36.2483 31.1145 36.8247 29.8192C36.6891 29.765 36.4721 29.7175 36.3703 29.6225C36.2686 29.6497 36.1669 30.0227 36.1126 30.1244C35.8753 30.5855 35.6108 30.9721 35.3124 31.3587C35.2717 31.4129 35.2039 31.4468 35.1496 31.4875C34.9733 31.6164 34.8173 31.7927 34.6274 31.908C34.207 32.1725 33.6712 32.3556 33.1626 32.5251C32.8506 32.6268 32.4912 32.6607 32.2335 32.8167C31.7045 33.149 31.3383 33.6848 30.85 34.051C30.789 34.1188 30.728 34.1799 30.6737 34.2477C30.5449 34.3494 30.3889 34.4376 30.2193 34.4918C29.9413 34.5868 29.1139 34.6478 28.7545 34.5732H28.3476C28.1441 34.5189 27.8118 34.2341 27.7101 34.0713H27.6965C27.7847 33.99 27.9407 33.99 28.056 33.9425C28.3137 33.834 28.5782 33.7119 28.802 33.5695C29.5954 33.0677 30.104 32.2945 30.4296 31.3247C30.5245 31.0399 30.6059 30.7076 30.6398 30.3617C30.6601 30.1651 30.6805 29.9684 30.572 29.8735C30.6059 29.7446 30.8229 29.7243 30.945 29.6768C31.2366 29.5683 31.5757 29.5276 31.908 29.4462C32.0436 29.4327 32.1792 29.4259 32.3149 29.4123C32.8642 29.2902 33.1287 29.4733 33.5017 29.5886C33.9018 29.7175 34.5868 29.7921 35.0004 29.6225C35.2107 29.5344 35.4277 29.3784 35.5565 29.2021C35.6244 29.1071 35.6583 29.0054 35.7329 28.924C35.7397 28.9172 35.7464 28.9105 35.7464 28.9105C35.9974 29.4598 36.5467 29.4937 37.0824 29.2224C37.6657 28.924 38.0251 28.5103 38.2896 27.8864C38.3506 27.744 38.432 27.5812 38.4523 27.3981C38.5066 27.5473 38.4388 28.1509 38.4116 28.273ZM38.7711 24.4277C38.6626 24.8279 38.5337 25.0924 38.3506 25.3907C38.2692 25.5196 38.2082 25.6891 38.0929 25.7841C38.12 25.9808 38.1133 26.3198 38.059 26.5504C38.0454 26.6725 38.0387 26.8013 38.0251 26.9234C37.8555 27.6084 37.6928 28.1238 37.2452 28.5171C37.0282 28.707 36.6077 29.0257 36.2686 28.8291C36.2144 28.6188 36.1872 28.3408 36.2347 28.0967C36.2551 28.0153 36.2144 27.8932 36.2483 27.8389V27.6694C36.133 27.7304 36.072 27.8389 35.9702 27.9135C35.7803 28.056 35.5837 28.2119 35.448 28.4018C35.2107 28.7409 35.1022 29.1003 34.6342 29.2156C34.3155 29.297 33.7933 29.1885 33.5627 29.1003C33.4339 29.0529 33.3186 28.9579 33.1694 28.924C32.9659 28.8698 32.559 28.8833 32.3556 28.924C32.2064 28.9376 32.0504 28.9444 31.9012 28.9579C31.6231 29.019 31.3112 29.0597 31.0535 29.1343C30.8433 29.2021 30.5923 29.2224 30.4363 29.3445H30.4228C30.4228 28.8833 30.4228 28.4222 30.2261 28.1577C30.1312 28.0288 29.982 28.0492 29.8531 27.961C29.5615 27.961 29.5751 27.7304 29.514 27.5066C29.3784 27.0319 29.4191 26.3538 29.4327 25.7841H29.3377C29.4259 25.7298 29.7446 25.7502 29.8599 25.7163C30.1515 25.6349 30.4431 25.5535 30.7076 25.4382C31.4333 25.1263 32.1114 24.7261 32.8235 24.4142C33.1355 24.2785 33.4406 24.1633 33.7187 23.9937C33.8204 23.9327 33.9018 23.831 33.9967 23.7631C34.0646 23.7157 34.1527 23.6614 34.207 23.6004C34.4172 23.3495 34.6071 23.085 34.7427 22.7527C34.8106 22.5085 34.8716 22.2644 34.9394 22.0202C35.0411 21.7761 35.2514 21.5048 35.3124 21.2539C35.4073 21.2878 35.4752 21.3828 35.5565 21.4302C35.6583 21.4913 35.821 21.5319 35.9499 21.5591C36.1262 21.5998 36.4585 21.5726 36.6145 21.5252C37.0824 21.3895 37.4554 21.1861 37.8216 20.9555C37.9573 20.8673 38.1065 20.8063 38.215 20.6978C38.4659 20.9623 38.5134 21.7829 38.4116 22.2576C38.3845 22.3729 38.4184 22.5424 38.3642 22.6306C38.3574 22.8137 37.8895 22.9629 37.747 23.0511C37.3266 23.3088 36.8519 23.5258 36.4314 23.7835C36.2754 23.8784 36.0652 23.892 35.9092 23.9937C35.6379 24.17 35.7397 24.4345 35.6311 24.76C35.5226 25.0856 35.3124 25.3704 35.0479 25.5399C34.797 25.6959 34.4986 25.7095 34.1527 25.7841H33.7119C33.2508 25.8858 32.8371 25.9265 32.4573 26.096C31.7791 26.3877 31.2637 26.8081 30.7144 27.2218C30.5652 27.371 30.4228 27.5134 30.2736 27.6626C30.2058 27.7508 30.1515 27.8593 30.0634 27.9203C30.0566 27.9339 30.0498 27.9542 30.0498 27.9678C30.2058 28.0492 30.3211 28.1713 30.4703 28.2458L30.4838 28.2594C30.6534 27.9746 30.9382 27.7237 31.2027 27.527C31.3315 27.432 31.4468 27.2964 31.5757 27.2015C32.0436 26.8759 32.5522 26.6115 33.1558 26.4216C33.3932 26.347 33.6577 26.3673 33.9222 26.3063C34.1459 26.2588 34.3697 26.3266 34.5732 26.2724C35.3192 26.0825 35.7803 25.757 36.0516 25.0991C36.1262 24.916 36.2076 24.7058 36.2144 24.4481C36.7637 24.2175 37.2723 23.9462 37.7606 23.6478C37.9573 23.5326 38.3981 23.3766 38.5269 23.2274H38.5608C38.6694 23.4376 38.7711 23.6139 38.8389 23.892C38.8592 24.0819 38.805 24.3125 38.7711 24.4277ZM15.6115 0.637481C15.6793 0.678172 15.8557 0.651045 15.9506 0.651045H20.1146V0.454375H16.2761C16.0659 0.508629 15.8421 0.617136 15.6115 0.637481ZM14.8452 0.895187V0.929095H20.1214V0.718862H15.3877C15.2046 0.759552 15.0351 0.86806 14.8452 0.895187ZM14.0788 1.22071H14.0653V1.23427H20.1214V1.0376H15.8217C15.225 1.04438 14.4179 0.94944 14.0788 1.22071ZM22.7527 4.95065C22.9222 5.22192 23.0917 5.49997 23.2545 5.76446C23.3834 5.96791 23.5054 6.17136 23.6275 6.36803C23.675 6.44263 23.6953 6.52401 23.7564 6.57827C23.7699 6.59183 24.1158 6.32734 24.1972 6.26631C24.5091 6.05607 24.8346 5.86618 25.2551 5.76446C25.6145 5.6763 25.9943 5.87297 26.0689 6.12389C26.1978 6.08998 26.3877 5.98147 26.4758 5.89331H26.5097C26.469 6.13745 26.3198 6.3409 26.252 6.55792C26.0621 7.12758 26.0486 8.09059 26.4826 8.39577C26.625 8.49749 26.8285 8.49749 27.0184 8.55853C27.2828 8.64669 27.5134 8.74163 27.7169 8.87049C27.7576 9.10785 27.6965 9.27061 27.8322 9.45371C28.0424 9.74533 28.429 9.88096 28.646 10.1726C28.7206 10.2743 28.8698 10.4235 28.8223 10.6269C28.8087 10.6948 28.7816 10.7829 28.7748 10.8575C28.9376 10.905 29.1004 11.0067 29.2767 11.0203C29.2902 10.9253 29.3241 10.844 29.3445 10.7626C29.4598 10.2811 29.08 9.77245 28.8562 9.60969C28.707 9.4944 28.3137 9.27739 28.2526 9.10785C28.2323 9.06037 28.2798 8.97221 28.2662 8.89761C28.2391 8.77554 28.1984 8.64669 28.1373 8.55853C27.961 8.3076 27.5609 8.19231 27.2422 8.08381C27.0997 8.03633 26.9166 8.0499 26.8013 7.96852C26.6454 7.85323 26.6047 7.35138 26.6725 7.07333C26.7742 6.67999 26.9302 6.37481 27.0455 6.01538C27.1065 5.83228 27.0794 5.6763 27.1269 5.45928C27.154 5.35077 27.154 5.17445 27.1269 5.05238C27.0591 4.75398 27.0591 4.32674 26.9166 4.08938C26.7064 3.75707 26.252 3.54684 25.8723 3.39086C25.7231 3.32982 25.5264 3.31626 25.3975 3.2281C25.3501 3.18741 25.3229 3.05855 25.3501 2.95005C25.3975 2.71947 25.3772 2.4482 25.2822 2.26509C25.0991 1.91244 24.7736 1.61405 24.4684 1.38347C24.3531 1.29531 24.1904 1.21393 24.109 1.09186C23.953 1.14611 23.8988 1.36313 23.7699 1.45129C23.7631 1.46485 23.7564 1.4852 23.7564 1.49876C23.8852 1.58014 23.9802 1.70221 24.0954 1.79037C24.3599 1.98704 24.699 2.21762 24.8279 2.53636C24.8753 2.65165 24.8346 2.8551 24.8143 2.95683C24.7668 3.18062 24.8618 3.4112 24.9432 3.52649C25.133 3.7842 25.8383 3.90627 26.1503 4.09616C26.2452 4.15719 26.3944 4.2657 26.4623 4.35386C26.5233 4.44881 26.4962 4.598 26.5301 4.72686C26.5776 4.92353 26.6725 5.24227 26.6115 5.50675C26.5911 5.60848 26.5708 5.71021 26.5436 5.81871C26.4623 5.77802 26.4351 5.6763 26.3809 5.60848C26.2792 5.47285 26.0689 5.35077 25.9062 5.28296C25.3433 5.05238 24.6855 5.37112 24.326 5.56101C24.1836 5.63561 24.0276 5.69664 23.9191 5.80515C23.8038 5.7509 23.6682 5.41859 23.5936 5.3033C23.4987 5.14732 23.4037 4.99134 23.302 4.82858C23.2613 4.76076 23.1663 4.67938 23.1392 4.598C23.1053 4.2657 23.0714 3.9334 23.0443 3.60787C22.868 3.62144 22.6984 3.64178 22.5221 3.65535C22.5628 4.03512 22.5967 4.4149 22.6374 4.79467C22.6645 4.84893 22.7255 4.90318 22.7527 4.95065ZM13.2786 1.5937H13.265V1.60727H20.1146V1.39703H15.1639C14.5468 1.39703 13.6109 1.28174 13.2786 1.5937ZM27.7372 3.62822C27.6965 3.7842 27.7779 3.95374 27.8322 4.03512C27.9746 4.25214 28.2119 4.44881 28.4154 4.60479C28.5375 4.72686 28.6663 4.85571 28.7884 4.97778C29.0461 5.17445 29.3038 5.44572 29.4869 5.71021C29.6564 5.95435 29.7989 6.22562 29.8802 6.55792C29.9074 6.67999 29.9006 6.99873 29.8463 7.08011C29.8599 7.20218 29.9345 7.21575 29.9955 7.29035C30.138 7.48023 30.3414 7.69725 30.5652 7.79219C30.6466 7.8261 30.8365 7.85323 30.9043 7.79219C30.9653 7.77185 30.9857 7.73116 31.0331 7.69725C31.0738 7.52092 31.067 7.36494 30.9518 7.25644V7.24287C30.8636 7.27678 30.6127 7.50736 30.5584 7.58196H30.5245C30.5245 7.38529 30.6127 7.37173 30.7212 7.29035C30.7483 7.27678 30.7347 7.29035 30.7551 7.27678C30.6059 7.22931 30.5313 7.08011 30.416 6.99873C30.416 6.77493 30.4363 6.54436 30.3821 6.36125C30.1786 5.62883 29.6361 4.94387 29.0936 4.53697C29.0325 4.46915 28.9715 4.40812 28.9172 4.3403C28.768 4.22501 28.6324 4.10294 28.4968 3.98087C28.4222 3.91305 28.3679 3.81132 28.2865 3.75029C28.3069 3.66213 28.3611 3.59431 28.3815 3.50615C28.4764 3.11959 28.178 2.67878 28.056 2.48211C28.0017 2.39395 27.9746 2.299 27.8932 2.23797C27.9271 2.10233 28.3476 1.99382 28.4629 1.89888C28.4697 1.8921 28.2662 1.46485 28.2187 1.42416C28.1102 1.52589 27.9271 1.55301 27.7983 1.63439C27.5745 1.77003 27.31 1.91244 27.0658 2.02773C27.3235 2.42107 27.6965 2.72625 27.8457 3.23488C27.9068 3.43833 27.7711 3.49258 27.7372 3.62822ZM12.4987 2.02095H12.4851V2.03451H20.1214V1.82428H14.4722C13.8957 1.82428 12.7496 1.70899 12.4987 2.02095ZM11.7188 2.48889H11.7052V2.50924H20.1214V2.31257H12.5462C12.1528 2.31257 11.9155 2.28544 11.7188 2.48889ZM10.9389 3.01108V3.04499H20.1214V2.83476H11.1966C11.1017 2.86188 11.0406 2.97717 10.9389 3.01108ZM10.2065 3.59431H10.1929V3.60787H20.1214V3.4112H10.4235C10.3557 3.4858 10.2607 3.52649 10.2065 3.59431ZM9.47406 4.23179H9.4605V4.24535H20.1214V4.04868H10.254C9.88096 4.05547 9.63004 4.00121 9.47406 4.23179ZM8.7552 4.93031H8.74163V4.95065H20.1214V4.74042H9.60969C9.18923 4.73364 8.92474 4.6726 8.7552 4.93031ZM8.07024 5.66273H8.05668V5.6763H20.1146V5.47963H8.9044C8.51106 5.48641 8.233 5.41181 8.07024 5.66273ZM7.40564 6.44263V6.47654H20.1146V6.26631H7.55483C7.4938 6.29343 7.45989 6.40194 7.40564 6.44263ZM6.76815 7.29035V7.32425H20.1146V7.11402H6.90379C6.84953 7.14115 6.82241 7.25644 6.76815 7.29035ZM23.519 20.7656C24.0548 20.6368 24.4752 20.2977 24.8686 20.0196C25.4518 19.6127 25.9875 19.1651 26.564 18.7514C26.781 18.5955 26.9912 18.4056 27.215 18.2632C27.3303 18.1886 27.4592 18.1004 27.588 18.0529C28.0492 17.8834 28.8291 18.0055 29.1343 18.2157C29.2767 18.3106 29.3852 18.6362 29.4937 18.7854C29.6429 18.982 29.8938 19.1651 30.0973 19.3075C30.1583 19.3482 30.2329 19.3618 30.2736 19.4228C30.3346 19.3957 30.5177 19.0634 30.5313 18.982C30.5449 18.9685 30.5381 18.9752 30.5449 18.9481C30.2939 18.826 30.0023 18.6022 29.8463 18.3785C29.7039 18.175 29.67 17.9512 29.4733 17.8088C29.2835 17.6732 29.0393 17.585 28.7884 17.5172C28.6392 17.4968 28.4968 17.4765 28.3476 17.4494H28.0221C28.0492 17.368 28.1102 16.8661 28.056 16.7847C28.0763 16.6016 28.4493 16.3914 28.5917 16.2965C28.9444 16.0659 29.3513 15.9438 29.826 15.8217C29.9752 15.7878 30.1447 15.8014 30.2804 15.7743H30.6737C31.1552 15.7743 31.7384 15.8489 32.1046 15.6929C32.3895 15.5708 32.7625 15.3809 32.9998 15.2046C33.0473 15.1707 33.0744 15.1097 33.1151 15.0554C33.1558 15.0147 33.2033 14.9672 33.244 14.9266C33.5356 14.5061 33.7526 13.9907 33.9628 13.4956C34.0781 13.1565 34.1934 12.8242 34.3019 12.4851V12.4716C34.1595 12.4377 33.9222 12.4038 33.8136 12.3224C33.7458 12.3631 33.7594 12.4512 33.7323 12.5326C33.6712 12.7157 33.6102 12.9124 33.5356 13.1023C33.3254 13.6177 32.9931 14.5536 32.5929 14.8452C32.5116 14.9062 32.4098 14.9266 32.3149 14.974C32.0843 15.0961 31.8944 15.2046 31.596 15.2656C31.5079 15.286 31.3519 15.2656 31.2841 15.2521H30.8907C30.7415 15.2182 30.2736 15.2182 30.1108 15.2521C29.8938 15.286 29.6768 15.3199 29.4598 15.347C28.9444 15.4894 28.5239 15.6793 28.1441 15.9506C28.0288 16.032 27.9 16.093 27.8186 16.2083C27.6965 16.1812 27.4931 15.937 27.3303 15.8692C27.1201 15.7811 26.8081 15.7946 26.5979 15.7065C26.5504 15.5844 26.5708 15.4216 26.5301 15.2656C26.469 15.0147 26.4284 14.7502 26.3334 14.5197C26.2249 14.2552 26.1232 13.9636 25.974 13.7194C25.9197 13.6313 25.8248 13.5295 25.7977 13.4278C25.7231 13.1701 25.9401 12.9192 25.9943 12.7428C26.0893 12.4309 26.0825 11.9562 25.9943 11.6374C25.7909 10.8982 25.4789 10.2675 25.1127 9.68429C25.0042 9.51475 24.9025 9.34521 24.8007 9.1621C24.7668 9.10106 24.6855 9.02646 24.7058 8.91796C24.76 8.63991 24.8686 8.35507 24.9974 8.13806C25.0584 8.03633 25.1534 7.92105 25.1941 7.79897C25.2076 7.78541 25.2009 7.79219 25.2076 7.76507C25.0584 7.67012 24.916 7.58196 24.7668 7.48702C24.5905 7.8261 24.2175 8.33473 24.1972 8.78911C23.7699 8.78232 23.3359 8.70772 22.9765 8.61278C22.8205 8.57209 22.6306 8.57887 22.5221 8.48393C22.3864 8.55174 22.3729 8.8298 22.2779 8.9383C22.339 9.06037 22.5899 9.06037 22.7323 9.10106C23.0578 9.19601 23.4512 9.21635 23.8038 9.29773C23.9395 9.33164 24.1294 9.28417 24.2446 9.34521C24.3464 9.37233 24.3599 9.50797 24.4074 9.58935C24.5023 9.74533 24.5973 9.91487 24.699 10.0776C25.0042 10.5659 25.2416 11.0474 25.4314 11.6713C25.4925 11.8748 25.5671 12.2342 25.4993 12.4987C25.4518 12.6886 25.3636 12.8378 25.289 12.987C24.5363 12.9531 23.9734 12.4851 23.6275 12.024C23.5122 11.8748 23.3291 11.7188 23.2681 11.5221C23.085 11.556 22.9629 11.7052 22.7798 11.7527C22.9697 12.1461 23.3834 12.6682 23.7428 12.892C23.7089 13.0006 23.6207 13.0684 23.5665 13.1497C23.4037 13.3871 23.2409 13.6177 23.0782 13.8483C22.9629 14.011 22.8747 14.2484 22.7188 14.3705C22.7594 14.4518 23.0511 14.6349 23.1392 14.6824V14.696C23.2138 14.6282 23.2409 14.5332 23.302 14.4518C23.4851 14.1941 23.6885 13.9296 23.8716 13.6719C23.9802 13.5227 24.0548 13.3464 24.1836 13.2176C24.2311 13.1972 24.3192 13.2718 24.3803 13.2989C24.543 13.3803 24.7329 13.4278 24.916 13.4753C25.0313 13.4888 25.1466 13.5092 25.2551 13.5227C25.2958 13.5499 25.4111 13.8483 25.4518 13.9161C25.6688 14.2619 25.8316 14.6824 25.9536 15.1232C26.035 15.4216 25.9943 15.7946 26.1503 16.0184C26.4284 16.4253 27.3032 16.188 27.4863 16.7034C27.588 16.8458 27.4931 17.3408 27.4727 17.5036C26.4012 18.019 25.5942 18.8803 24.6583 19.5381C24.4006 19.7212 24.1293 19.8908 23.8581 20.0603C23.7089 20.1485 23.5054 20.1688 23.3698 20.2706C23.3562 20.2909 23.4647 20.6978 23.4987 20.7453V20.7656H23.519ZM6.17136 8.18553V8.21944H20.1214V8.02277H6.28665C6.23918 8.0499 6.21205 8.15162 6.17136 8.18553ZM12.0782 8.233C11.9697 8.30082 11.9969 8.80267 11.9155 8.93152V8.96543H5.71021C5.65595 8.99256 5.64239 9.10785 5.59492 9.14175V9.17566H11.8748C11.8273 9.44015 11.7798 9.70464 11.7256 9.97591H5.14732C5.11342 10.003 5.09985 10.1183 5.06594 10.1522V10.1861H11.6713C11.6239 10.471 11.5764 10.749 11.5221 11.0339H4.6726C4.63191 11.061 4.62513 11.1763 4.59122 11.2102V11.2441H11.5086C11.4679 11.3594 11.4747 11.4882 11.4408 11.6171C11.4001 11.7731 11.3458 11.9629 11.3458 12.1393H4.90318C4.69295 12.1393 4.39455 12.0986 4.21823 12.1528C4.20466 12.2139 4.18432 12.2885 4.15041 12.3292V12.3427H11.2983C11.2441 12.6615 11.1898 12.9802 11.1356 13.3057H3.82489C3.80454 13.3735 3.7842 13.4142 3.77742 13.5024H11.0881C11.0271 13.8415 10.966 14.1874 10.9118 14.5264H3.4858C3.47224 14.5739 3.46546 14.6485 3.43833 14.6892V14.7231H10.8779C10.8236 15.0012 10.7694 15.2792 10.7151 15.5505C10.6948 15.6386 10.7083 15.7404 10.6676 15.8082V15.8421H3.18741C3.17384 15.9099 3.16706 15.9709 3.1535 16.0388H10.627C10.5591 16.4321 10.4845 16.8187 10.4167 17.212H2.96361C2.95683 17.2798 2.95005 17.3544 2.95005 17.4222H10.3692C10.3489 17.9309 10.159 18.4056 10.1115 18.9006H2.81441C2.80763 18.9685 2.80085 19.0431 2.80085 19.1109H10.0776C9.92843 19.9111 9.78602 20.7046 9.63682 21.5048H6.80206C6.75459 21.4709 6.65965 21.159 6.62574 21.0844C6.51045 20.8267 6.38838 20.5689 6.26631 20.3045C6.21205 20.1824 6.10355 20.0603 6.08998 19.9111H0V20.4672H5.71021C5.79837 20.6775 5.91366 20.8809 6.00182 21.0844C6.06286 21.2132 6.08998 21.376 6.17814 21.4777V21.5116H2.80085V21.7083H6.28665C6.33412 21.7422 6.4155 22.027 6.44941 22.1016C6.5647 22.3661 6.70034 22.6374 6.82241 22.9154C6.87666 23.0375 6.98517 23.1596 6.99873 23.3088H2.94327C2.95005 23.3495 2.94327 23.3562 2.95683 23.3766C2.95683 23.4376 2.96361 23.4851 2.97039 23.5258H7.10724C7.14793 23.6207 7.18184 23.7089 7.22253 23.8038C7.33782 24.0208 7.42598 24.2514 7.53449 24.4888C7.5684 24.5566 7.62265 24.6041 7.62943 24.699H3.1535C3.16706 24.7668 3.17384 24.8279 3.18741 24.8957H7.73116C7.79219 24.9296 7.81254 25.0924 7.84645 25.1534C7.92783 25.3094 8.02277 25.4857 8.09059 25.6417C8.14484 25.7637 8.17197 25.9062 8.25335 26.0011V26.0147H3.45189C3.46546 26.0825 3.47224 26.1435 3.4858 26.2113C3.49258 26.2181 3.49937 26.2249 3.49937 26.2249H8.34829C8.39577 26.252 8.42289 26.408 8.44324 26.469C8.49071 26.5775 8.57209 26.6996 8.61956 26.8081C8.67382 26.937 8.70772 27.0997 8.79589 27.2015V27.2354H3.77742C3.79098 27.3032 3.81811 27.3574 3.82489 27.432H8.9044C8.95187 27.466 8.99934 27.683 9.05359 27.744C9.06716 27.7711 9.05359 27.7576 9.06716 27.7779C9.0875 27.6897 9.0875 27.5406 9.13497 27.466V27.432H20.1214V27.2354H9.1621C9.22314 26.8963 9.28417 26.564 9.33842 26.2249H20.1146V26.0147H9.39268C9.4605 25.6417 9.52153 25.2687 9.58935 24.8889H20.1214V24.6922H9.63682C9.70464 24.2989 9.76567 23.9123 9.83349 23.519H20.1214V23.3088H9.88096C9.91487 23.0511 9.96912 22.7798 10.0302 22.5424C10.0437 22.4475 10.0505 22.3593 10.0641 22.2644C10.1048 22.1016 10.159 21.9117 10.159 21.7286C10.1658 21.7218 10.1726 21.7151 10.1726 21.7151H20.1146V21.5184H10.2065C10.3489 20.7249 10.4913 19.9315 10.627 19.1448C10.6337 19.138 10.6405 19.1312 10.6405 19.1312H13.8957C13.9975 19.6059 14.0992 20.0874 14.2077 20.5622H20.0807V19.9925H15.069C14.9605 19.9925 14.7367 20.0264 14.6621 19.9789C14.5468 19.8162 14.5807 19.3415 14.4654 19.1651V19.1244H20.1146V18.9142H14.4179C14.3772 18.609 14.2891 18.2767 14.2077 17.9851C14.1602 17.8156 14.1806 17.5986 14.0924 17.4629V17.429H20.1146V17.2188H14.0449C14.011 16.9543 13.9364 16.683 13.8686 16.4389C13.8347 16.3168 13.8483 16.1608 13.7872 16.0659V16.0523H20.1214V15.8557H14.2416C14.1128 15.8557 13.8483 15.8963 13.7533 15.8421C13.6991 15.7675 13.7194 15.6522 13.6855 15.5505C13.6177 15.3063 13.5092 15.0079 13.5092 14.7367H20.1146V14.54H13.9636C13.8279 14.54 13.5567 14.5807 13.4617 14.5264C13.3939 14.4315 13.4142 14.2755 13.3803 14.1534C13.3261 13.9568 13.2515 13.7262 13.2311 13.516H20.1146V13.3193H13.1837C13.1497 13.0751 13.0819 12.8242 13.0209 12.6004C13.0006 12.519 13.0141 12.4377 12.9734 12.3699V12.3563H20.1214V12.1393H12.926C12.9124 11.9901 12.7903 11.3594 12.7293 11.2576V11.2441H20.1214V11.0339H12.6818C12.6208 10.749 12.5597 10.471 12.5055 10.1861H20.1214V9.97591H12.458C12.4241 9.80636 12.3563 9.3113 12.2817 9.19601V9.18244H20.1281V8.97221H12.2207C12.2003 8.71451 12.085 8.49749 12.0782 8.233ZM8.83658 25.9265H8.82301C8.76876 25.6959 8.61956 25.4925 8.5314 25.289C8.47037 25.1602 8.44324 24.9974 8.35508 24.8957V24.8889H9.01968C8.95865 25.2348 8.89761 25.5806 8.83658 25.9265ZM9.06716 24.6922H8.26691C8.22622 24.6719 8.16519 24.4549 8.13806 24.4006C8.05668 24.2446 7.96174 24.0683 7.89392 23.9123C7.83967 23.7903 7.81254 23.6478 7.73116 23.5529V23.519H9.26383C9.19601 23.9123 9.12819 24.2989 9.06716 24.6922ZM9.3113 23.3088H7.63621C7.58874 23.2816 7.47345 22.9493 7.43954 22.8679C7.33104 22.6306 7.18862 22.3729 7.08011 22.1355C7.01908 21.9999 6.99195 21.8439 6.90379 21.7422V21.7083H9.60291C9.50797 22.244 9.40624 22.773 9.3113 23.3088ZM13.5227 17.429C13.5702 17.7681 13.6652 18.1207 13.7533 18.4395C13.794 18.5887 13.7737 18.7786 13.8483 18.8939V18.9074H10.6744C10.7151 18.6158 10.7626 18.2564 10.8372 17.9648C10.8779 17.802 10.9321 17.6121 10.9321 17.429H13.5227ZM13.2176 16.0455C13.2786 16.3236 13.3396 16.622 13.4142 16.8933C13.4414 16.995 13.4278 17.1103 13.4821 17.1849V17.2188H10.9864C11.0542 16.8254 11.1288 16.4389 11.1966 16.0455H13.2176ZM13.1023 15.5776C13.1226 15.659 13.1633 15.7539 13.1701 15.8557H11.2305C11.2848 15.6115 11.2983 15.3606 11.3594 15.1097C11.3865 15.0012 11.4204 14.8859 11.4272 14.7502C11.434 14.7435 11.4408 14.7367 11.4408 14.7367H12.9192C12.987 15.0079 13.0209 15.286 13.1023 15.5776ZM12.8717 14.5332H11.4747C11.5357 14.1941 11.5967 13.8483 11.651 13.5092H12.6615C12.7361 13.8483 12.8039 14.1941 12.8717 14.5332ZM12.5665 13.0548C12.5869 13.1362 12.5733 13.2176 12.614 13.2854V13.3193H11.7052C11.7595 13.0006 11.8138 12.6818 11.868 12.3563H12.4038C12.4377 12.5869 12.5055 12.8378 12.5665 13.0548ZM12.3563 12.1393H11.9155C11.9629 11.8477 12.0104 11.556 12.0647 11.2576C12.0715 11.2509 12.0782 11.2441 12.0782 11.2441H12.1596C12.2207 11.5425 12.2885 11.8409 12.3563 12.1393ZM4.23179 28.5985H20.1146V28.3883H4.16397C4.1911 28.4561 4.21145 28.5239 4.23179 28.5985ZM4.68617 29.7039H20.1146V29.5072H4.60479C4.63191 29.5751 4.65904 29.6361 4.68617 29.7039ZM5.17445 30.7619H20.1146V30.5652H5.09307C5.11341 30.6398 5.15411 30.6873 5.17445 30.7619ZM5.73055 31.7723H20.1214V31.5621H5.61526C5.63561 31.6435 5.68986 31.7045 5.73055 31.7723ZM6.30022 32.715H20.1214V32.5183H6.18493C6.22562 32.5861 6.25953 32.6472 6.30022 32.715ZM6.91735 33.6238H20.1146V33.4135H6.7885C6.81563 33.5017 6.89022 33.5424 6.91735 33.6238ZM7.5684 34.4715H20.1146V34.2612H7.4192C7.45311 34.3494 7.52771 34.3901 7.5684 34.4715ZM8.23301 35.2514H20.1146V35.0615H8.09059C8.11772 35.1429 8.19231 35.1768 8.23301 35.2514ZM8.95187 36.0041H20.1146V35.7939H8.77554C8.80945 35.8821 8.89761 35.9228 8.95187 36.0041ZM9.68429 36.6891H20.1146V36.4924H9.48762L9.68429 36.6891ZM10.4506 37.3062C10.5388 37.3605 11.0203 37.3198 11.1695 37.3198H20.1214V37.1231H10.22C10.2607 37.1909 10.376 37.2791 10.4506 37.3062ZM11.2305 37.9098H20.1146V37.6996H10.9864C11.0271 37.8013 11.1627 37.8284 11.2305 37.9098ZM12.0443 38.4456H20.1146V38.2353H11.7527C11.7866 38.2828 11.9901 38.4252 12.0443 38.4456ZM14.4044 38.9135H20.1146V38.7033H12.5326C12.6954 39.022 13.889 38.9135 14.4044 38.9135ZM15.0215 39.3407H20.1146V39.1305H13.3329C13.4821 39.4221 14.5332 39.3407 15.0215 39.3407ZM15.7404 39.7137H20.1214V39.5035H14.1331C14.3569 39.7815 15.2114 39.7137 15.7404 39.7137ZM15.1707 39.9104C15.2589 39.9443 15.3742 39.9986 15.4623 40.0257H20.1146V39.8087H14.9198C14.9673 39.8833 15.0825 39.8765 15.1707 39.9104ZM15.9506 40.1545C16.31 40.2698 16.6016 40.2834 17.1035 40.2834H20.1146V40.0867H15.7065C15.7675 40.1342 15.8624 40.1274 15.9506 40.1545ZM17.1035 40.4326C17.0831 40.4462 17.0764 40.4462 17.0357 40.4462C17.1171 40.5343 17.5579 40.5072 17.7206 40.5411C18.4056 40.6971 19.2872 40.6632 20.1146 40.6564V40.297H16.4524C16.5338 40.358 16.9814 40.4258 17.1035 40.4326Z" fill="#15639A"/>
</svg>
