<svg width="128" height="37" viewBox="0 0 128 37" fill="none" xmlns="http://www.w3.org/2000/svg">
<path d="M32.0341 18.6969C30.5518 15.4889 27.8241 11.4179 27.402 11.1307C26.3916 10.1424 25.0571 9.55416 23.646 9.47502H23.5454C21.9068 9.42841 20.3243 10.073 19.1845 11.2511L17.1411 13.1754L15.1427 15.15C14.0587 16.3374 12.2233 16.4376 11.0165 15.3752C9.80979 14.3128 9.67655 12.4795 10.717 11.2538C10.4908 11.4672 10.2757 11.692 10.0725 11.9274L5.01419 16.9817C3.8969 18.0682 3.28809 19.5745 3.33669 21.1322C3.38528 22.6899 4.08678 24.1553 5.26961 25.17C5.31014 25.2039 5.35457 25.2327 5.40196 25.256C4.53953 24.6265 4.11017 23.5613 4.29492 22.5096C4.47967 21.4579 5.24639 20.6028 6.27175 20.3049C7.29712 20.007 8.40268 20.3181 9.12223 21.107L11.0002 23.0048C11.1498 23.1517 12.8081 24.6883 12.9643 24.8246C13.8752 25.6248 14.949 26.2177 16.1115 26.5623C17.2519 26.9135 18.4716 26.9135 19.612 26.5623C21.1248 26.0779 22.2775 25.1753 23.4501 24.1456C23.8912 23.7601 24.3245 23.3692 24.7497 22.9731L26.5946 21.1096C27.3737 20.2544 28.5982 19.966 29.6771 20.3835C30.756 20.801 31.4673 21.8387 31.4676 22.9956C31.4682 23.1553 31.454 23.3148 31.4253 23.472C31.2902 24.2079 30.8684 24.86 30.2527 25.2852C30.3234 25.2589 30.3892 25.2208 30.4473 25.1727C32.3358 23.5461 33.028 20.8462 32.0341 18.6969Z" fill="url(#paint0_linear)"/>
<path d="M15.0269 11.0681C14.1682 10.2235 12.8825 9.98536 11.7784 10.4664C10.6742 10.9475 9.97313 12.0513 10.007 13.2552C10.0409 14.4591 10.803 15.5217 11.9325 15.9399C13.062 16.358 14.3323 16.0479 15.142 15.1563L17.1404 13.1817L15.0269 11.0681Z" fill="url(#paint1_linear)"/>
<path d="M28.6693 20.2014C27.8806 20.2006 27.1283 20.5333 26.5981 21.1173L24.7532 22.9807L24.7188 23.0151L25.5419 23.8383C25.9128 24.2411 26.3037 24.625 26.7132 24.9884C26.79 25.0519 26.8694 25.1115 26.9501 25.1684C27.0825 25.2571 27.2055 25.3391 27.3379 25.4172C27.4959 25.5143 27.6619 25.5975 27.8342 25.666C28.0678 25.7483 28.3131 25.793 28.5608 25.7984C29.1663 25.8178 29.7617 25.6389 30.2561 25.2888C30.8718 24.8637 31.2936 24.2116 31.4287 23.4757C31.4574 23.3185 31.4716 23.159 31.4711 22.9992C31.4689 21.4534 30.2151 20.2014 28.6693 20.2014Z" fill="#4C45D0"/>
<path d="M9.12782 21.1175C8.35841 20.2721 7.15254 19.9788 6.08083 20.3766C5.00912 20.7743 4.28653 21.7833 4.25498 22.926C4.22343 24.0687 4.88926 25.116 5.93739 25.5722C6.98552 26.0285 8.20574 25.8023 9.02062 25.0006L11.0058 23.0154L9.12782 21.1175Z" fill="url(#paint2_linear)"/>
<path d="M18.7047 19.9067V18.3993C18.7116 18.2111 18.6435 18.0278 18.5154 17.8898C18.3893 17.7592 18.1806 17.6939 17.8894 17.6939C17.7387 17.6928 17.5888 17.7169 17.4461 17.7654C17.3329 17.8011 17.2238 17.8486 17.1205 17.907V19.912H15.6118C15.424 19.9057 15.2414 19.9737 15.1035 20.1013C14.9703 20.2266 14.9033 20.4357 14.9024 20.7286C14.9014 20.8793 14.9255 21.0292 14.9738 21.172C15.0101 21.2849 15.0576 21.394 15.1155 21.4975H16.2867C16.5091 21.4605 16.9312 21.3347 17.0398 20.902C17.0851 20.6764 17.1121 20.4476 17.1205 20.2177V22.997C17.1128 23.1885 17.1808 23.3754 17.3098 23.5171C17.4355 23.6495 17.6446 23.7183 17.9358 23.7183C18.0878 23.7192 18.2387 23.6914 18.3804 23.6363C18.5128 23.5807 18.6266 23.533 18.7047 23.4933V19.92V19.9067Z" fill="white"/>
<path d="M20.8333 20.2445C20.7791 20.1122 20.7314 19.997 20.6917 19.9189H20.2047C19.7987 19.9725 19.4475 20.2281 19.2716 20.5979C19.1217 20.8805 19.0231 21.1874 18.9805 21.5045H20.1967C20.3882 21.5122 20.5751 21.4442 20.7169 21.3152C20.851 21.1882 20.918 20.979 20.918 20.6879C20.9187 20.536 20.89 20.3854 20.8333 20.2445Z" fill="white"/>
<g opacity="0.25">
<path d="M17.5651 17.9018C17.6687 17.844 17.7778 17.7965 17.8907 17.7602C17.9627 17.7359 18.0367 17.7178 18.1117 17.706C18.0377 17.6945 17.963 17.6888 17.8881 17.6888C17.7373 17.6876 17.5875 17.7118 17.4447 17.7602C17.3316 17.796 17.2225 17.8435 17.1191 17.9018V19.9069C17.2377 19.9069 17.3513 19.8597 17.435 19.7758C17.5187 19.6919 17.5655 19.5781 17.5651 19.4596V17.9018Z" fill="url(#paint3_linear)"/>
<path d="M15.3478 20.7157C15.3478 20.4236 15.4144 20.2145 15.5476 20.0883C15.6861 19.961 15.8691 19.893 16.0571 19.8991H15.6098C15.4221 19.8928 15.2395 19.9608 15.1016 20.0883C14.9684 20.2136 14.9013 20.4227 14.9004 20.7157C14.8994 20.8664 14.9236 21.0162 14.9719 21.159C15.0082 21.272 15.0556 21.381 15.1135 21.4846H15.5595C15.5022 21.3808 15.4548 21.2718 15.4179 21.159C15.37 21.0162 15.3463 20.8663 15.3478 20.7157Z" fill="url(#paint4_linear)"/>
<path d="M17.753 23.5108C17.6241 23.369 17.5561 23.1822 17.5638 22.9906V22.0907C17.5638 22.0907 17.5744 21.6434 17.5638 21.4951C17.4831 20.3715 17.1178 20.2153 17.1178 20.2153V22.9946C17.1101 23.1861 17.178 23.373 17.307 23.5147C17.4328 23.6471 17.6419 23.7159 17.933 23.7159C18.0053 23.7158 18.0775 23.7096 18.1488 23.6974C17.9998 23.6807 17.8606 23.6151 17.753 23.5108Z" fill="url(#paint5_linear)"/>
</g>
<path opacity="0.25" d="M20.6573 19.9189H20.21C19.804 19.9725 19.4528 20.2281 19.2769 20.5979C19.1252 20.8801 19.0248 21.1871 18.9805 21.5045H19.4265C19.4707 21.1874 19.5701 20.8806 19.7203 20.5979C19.8969 20.227 20.2499 19.9713 20.6573 19.9189V19.9189Z" fill="url(#paint6_linear)"/>
<path d="M57.7584 21.0755C57.6923 20.2987 57.6235 19.4895 57.5519 18.6479C57.4803 17.8063 57.4115 17.0088 57.3454 16.2554C57.271 15.5006 57.2022 14.823 57.1389 14.2224C57.0748 13.6315 57.0129 13.1894 56.9571 12.9105C56.8841 12.5989 56.6577 12.3459 56.3562 12.239C55.8484 12.0309 55.302 11.9337 54.7536 11.9539C54.394 11.95 54.035 11.9875 53.6839 12.0655C53.4608 12.1129 53.2429 12.1821 53.0334 12.2721C52.7587 13.0076 52.4551 13.9249 52.1268 14.9951C51.7798 16.1335 51.4288 17.3236 51.0942 18.5281C51.0537 18.6689 50.9248 18.7659 50.7783 18.7657H50.6709C50.5268 18.7658 50.3995 18.6719 50.357 18.5343L49.9646 17.2616C49.82 16.7905 49.672 16.3153 49.5206 15.836C49.3692 15.3567 49.2094 14.8946 49.0415 14.4497C48.8887 14.0014 48.7482 13.6026 48.6285 13.2617C48.4907 12.8423 48.2022 12.4889 47.8189 12.27C47.4348 12.0634 46.8814 11.9498 46.1668 11.9498C45.6518 11.9216 45.1377 12.0202 44.6696 12.2369C44.4462 12.3463 44.2435 12.4938 44.0707 12.6729L43.4512 23.687C43.4512 24.2841 43.7279 24.4432 43.8208 24.4948C44.2344 24.6924 44.6911 24.7827 45.1487 24.7572C45.4373 24.7567 45.7253 24.7325 46.0099 24.6849C46.1937 24.6539 46.3527 24.6188 46.489 24.5816C46.5262 23.844 46.5551 23.1602 46.5737 22.5465C46.5964 21.8813 46.6108 21.2015 46.617 20.528C46.6232 19.8545 46.6397 19.1706 46.6625 18.462C46.6852 17.7533 46.7161 16.9641 46.7595 16.1129C46.7684 15.9383 46.9131 15.8016 47.0879 15.803H47.1953C47.3463 15.8026 47.4779 15.906 47.5133 16.0529C47.6558 16.6335 47.8582 17.3236 48.1163 18.1066C48.3744 18.8896 48.7028 19.9082 49.12 21.2057C49.1852 21.43 49.3567 21.6078 49.5784 21.6809C49.9572 21.8092 50.3558 21.8687 50.7555 21.8565C51.0721 21.8621 51.3876 21.8189 51.691 21.7284C51.8846 21.6734 52.0679 21.5876 52.2342 21.4743C52.6142 20.185 52.9405 19.1107 53.2089 18.276C53.4774 17.4413 53.6942 16.7161 53.8285 16.1604C53.8661 16.0155 53.9969 15.9144 54.1465 15.9145H54.2559C54.4306 15.9143 54.5745 16.0519 54.5822 16.2265C54.6256 17.0798 54.6586 18.1541 54.6814 19.4185C54.7041 20.683 54.7578 22.1044 54.8445 23.6746C54.8775 24.313 55.1749 24.4618 55.272 24.501C55.6604 24.6782 56.0844 24.7637 56.5111 24.751C56.8328 24.7576 57.1542 24.7278 57.4693 24.6622C57.6464 24.6187 57.8182 24.5556 57.9814 24.4742C57.967 24.1477 57.9401 23.718 57.905 23.1953C57.8761 22.5631 57.8204 21.8462 57.7584 21.0755Z" fill="#6157FF"/>
<path d="M105.819 21.0755C105.753 20.2987 105.684 19.4895 105.612 18.6479C105.541 17.8063 105.472 17.0088 105.406 16.2554C105.332 15.5006 105.263 14.823 105.199 14.2224C105.135 13.6315 105.073 13.1894 105.018 12.9105C104.945 12.5989 104.718 12.3459 104.417 12.239C103.909 12.0309 103.363 11.9337 102.814 11.9539C102.455 11.95 102.096 11.9875 101.744 12.0655C101.521 12.1129 101.303 12.1821 101.094 12.2721C100.819 13.0076 100.516 13.9249 100.187 14.9951C99.8404 16.1335 99.4893 17.3236 99.1548 18.5281C99.1142 18.6689 98.9853 18.7659 98.8388 18.7657H98.7314C98.5874 18.7658 98.4601 18.6719 98.4175 18.5343L98.0251 17.2616C97.8806 16.7905 97.7326 16.3153 97.5811 15.836C97.4297 15.3567 97.27 14.8946 97.102 14.4497C96.9492 14.0014 96.8088 13.6026 96.689 13.2617C96.5512 12.8423 96.2627 12.4889 95.8795 12.27C95.4954 12.0634 94.9419 11.9498 94.2274 11.9498C93.7123 11.9216 93.1983 12.0202 92.7301 12.2369C92.5067 12.3463 92.304 12.4938 92.1313 12.6729L91.5117 23.687C91.5117 24.2841 91.7884 24.4432 91.8814 24.4948C92.295 24.6924 92.7516 24.7827 93.2093 24.7572C93.4978 24.7567 93.7858 24.7325 94.0704 24.6849C94.2542 24.6539 94.4132 24.6188 94.5495 24.5816C94.5867 23.844 94.6156 23.1602 94.6342 22.5465C94.6569 21.8813 94.6714 21.2015 94.6776 20.528C94.6838 19.8545 94.7003 19.1706 94.723 18.462C94.7457 17.7533 94.7767 16.9641 94.8201 16.1129C94.8289 15.9383 94.9737 15.8016 95.1484 15.803H95.2558C95.4069 15.8026 95.5385 15.906 95.5738 16.0529C95.7163 16.6335 95.9187 17.3236 96.1769 18.1066C96.435 18.8896 96.7633 19.9082 97.1805 21.2057C97.2457 21.43 97.4172 21.6078 97.639 21.6809C98.0177 21.8092 98.4164 21.8687 98.8161 21.8565C99.1326 21.8621 99.4482 21.8189 99.7516 21.7284C99.9451 21.6734 100.128 21.5876 100.295 21.4743C100.675 20.185 101.001 19.1107 101.269 18.276C101.538 17.4413 101.755 16.7161 101.889 16.1604C101.927 16.0155 102.057 15.9144 102.207 15.9145H102.316C102.491 15.9143 102.635 16.0519 102.643 16.2265C102.686 17.0798 102.719 18.1541 102.742 19.4185C102.765 20.683 102.818 22.1044 102.905 23.6746C102.938 24.313 103.235 24.4618 103.333 24.501C103.721 24.6782 104.145 24.7637 104.572 24.751C104.893 24.7576 105.215 24.7278 105.53 24.6622C105.707 24.6187 105.879 24.5556 106.042 24.4742C106.028 24.1477 106.001 23.718 105.966 23.1953C105.937 22.5631 105.881 21.8462 105.819 21.0755Z" fill="#6157FF"/>
<path fill-rule="evenodd" clip-rule="evenodd" d="M69.0722 15.3332C69.5323 15.7927 69.8914 16.346 70.1255 16.9566C70.3815 17.6406 70.5076 18.3677 70.4973 19.0994C70.5111 19.8643 70.385 20.6253 70.1255 21.3436C69.8949 21.9556 69.5362 22.5094 69.0742 22.9669C68.6086 23.4132 68.0546 23.7536 67.4492 23.9653C66.7574 24.2032 66.0308 24.3198 65.3005 24.3102C64.5698 24.3207 63.8432 24.1969 63.1558 23.945C62.5484 23.7195 61.9937 23.3685 61.5268 22.9142C61.0666 22.4547 60.7076 21.9014 60.4734 21.2908C59.9698 19.8816 59.9698 18.3374 60.4734 16.9282C60.7067 16.3171 61.0658 15.7636 61.5268 15.3048C61.9931 14.8492 62.5479 14.4975 63.1558 14.272C63.8436 14.0217 64.57 13.8987 65.3005 13.9088C66.0311 13.9017 66.7567 14.031 67.4412 14.2903C68.0483 14.5232 68.6031 14.8779 69.0722 15.3332ZM65.3202 22.1135C65.9694 22.1398 66.5847 21.8186 66.9413 21.2673C67.299 20.7438 67.4709 20.0153 67.4709 19.0961C67.4709 18.1769 67.289 17.4484 66.9273 16.931C66.545 16.4076 65.9411 16.099 65.2993 16.099C64.6574 16.099 64.0535 16.4076 63.6713 16.931C63.3095 17.4484 63.1276 18.1607 63.1276 19.0961C63.1276 20.0315 63.3155 20.7681 63.6832 21.2856C64.0552 21.8256 64.6716 22.1373 65.3202 22.1135Z" fill="#6157FF"/>
<path fill-rule="evenodd" clip-rule="evenodd" d="M81.5089 15.7919C81.9742 16.2747 82.3363 16.8521 82.572 17.4871L82.5886 17.4807C83.115 19.0362 83.1113 20.7295 82.5782 22.2825C82.337 22.9246 81.9572 23.5021 81.4674 23.9713C80.9617 24.4365 80.3647 24.7845 79.7169 24.9919C78.9598 25.2358 78.1701 25.3554 77.3768 25.3463C76.5825 25.3653 75.7904 25.2536 75.0304 25.0153C74.4532 24.8254 73.9067 24.5484 73.4087 24.1934C72.8923 23.8688 72.5776 23.2912 72.5781 22.6689V10.9368C72.684 10.9133 72.8252 10.8856 72.9934 10.8599C73.5701 10.7641 74.1576 10.7598 74.7355 10.8471C74.9173 10.8759 75.0896 10.9491 75.238 11.0606C75.3691 11.1638 75.4679 11.304 75.5225 11.4642C75.6046 11.7179 75.6419 11.9847 75.6326 12.252V14.4596C75.6333 14.5715 75.6875 14.6758 75.7775 14.7385C75.8676 14.8012 75.9819 14.8143 76.0832 14.7735C76.398 14.6413 76.7249 14.5419 77.0591 14.4767C77.3981 14.4189 77.7412 14.391 78.0848 14.3935C78.7243 14.3901 79.3585 14.5118 79.9536 14.7521C80.5347 14.9877 81.0637 15.3414 81.5089 15.7919ZM77.3606 23.0176C78.0623 23.0501 78.7378 22.7407 79.1837 22.1828V22.1785C79.6011 21.6448 79.815 20.8825 79.815 19.8599C79.815 18.8372 79.5969 18.0515 79.1692 17.5262C78.7292 16.9838 78.07 16.6811 77.3835 16.7064C77.0993 16.7029 76.8159 16.7373 76.5404 16.8089C76.2857 16.8857 76.0372 16.9828 75.7971 17.0992C75.6815 17.1555 75.6079 17.2752 75.6081 17.4067V22.3173C75.6084 22.4334 75.6663 22.5413 75.7618 22.6034C75.9684 22.7347 76.1921 22.8354 76.4262 22.9023C76.7309 22.9854 77.0455 23.0242 77.3606 23.0176Z" fill="#6157FF"/>
<path d="M87.9099 14.8723C87.7615 14.7643 87.5894 14.6935 87.4081 14.6657C86.8451 14.5811 86.2723 14.5853 85.7105 14.678L85.2769 14.7483V23.3389C85.267 23.5961 85.3063 23.8527 85.3925 24.0951C85.4536 24.252 85.5564 24.3892 85.6899 24.4918C85.838 24.6002 86.0102 24.6711 86.1917 24.6984C86.7554 24.7827 87.3287 24.7792 87.8913 24.6881L88.3229 24.6158V16.0251C88.3326 15.7687 88.2934 15.5127 88.2073 15.271C88.1469 15.1132 88.0439 14.9752 87.9099 14.8723Z" fill="#6157FF"/>
<path d="M86.7937 13.0175C87.2544 13.0435 87.7046 12.8731 88.0328 12.5485C88.6473 11.8941 88.6473 10.8745 88.0328 10.2201C87.3272 9.58875 86.2602 9.58875 85.5546 10.2201C84.9401 10.8745 84.9401 11.8941 85.5546 12.5485C85.883 12.8727 86.333 13.043 86.7937 13.0175Z" fill="#6157FF"/>
<path fill-rule="evenodd" clip-rule="evenodd" d="M110.614 20.6485C110.681 21.146 113.992 20.8051 115.131 20.4781C116.269 20.151 117.219 19.7537 117.219 17.538C117.219 15.3223 114.985 14.2571 112.958 14.2571C111.31 14.1151 108.025 14.9862 107.955 18.4991C107.891 21.6651 108.257 22.1639 108.685 22.747C108.703 22.7716 108.721 22.7964 108.739 22.8216C109.19 23.4418 110.042 24.2514 111.789 24.5922C113.536 24.9331 115.99 24.5922 116.79 23.792C116.53 22.9198 115.688 22.2488 114.792 22.4093C114.421 22.4759 114.055 22.5233 113.767 22.5233C112.805 22.5233 111.602 22.4237 111.083 21.799C110.564 21.1742 110.548 20.151 110.614 20.6485ZM112.828 16.1014C114.773 16.1014 115.282 17.9564 114.449 18.3636C113.782 18.6893 111.701 18.6803 110.743 18.635C110.747 18.5698 110.749 18.4894 110.751 18.3991C110.758 18.042 110.769 17.5295 110.913 17.1881C111.204 16.4959 111.866 16.1014 112.828 16.1014Z" fill="#6157FF"/>
<path fill-rule="evenodd" clip-rule="evenodd" d="M118.91 22.8933C118.059 21.1328 118.38 18.2953 118.57 17.5207C118.994 15.7922 120.918 14.263 122.998 14.4202C123.624 14.4675 124.401 14.7211 125.059 14.9404L125.059 12.3306C125.059 11.3085 125.839 10.8542 126.35 10.7973C126.861 10.7405 127.997 10.8361 127.997 10.8361C127.997 12.5864 127.989 14.4922 127.982 16.4622C127.974 18.5202 127.966 20.6483 127.966 22.7423C127.966 22.8729 127.943 22.936 127.873 23.0477C125.681 26.5592 120.252 25.6652 118.91 22.8933ZM125.043 17.257C124.829 17.0477 124.161 16.8027 123.205 16.8027C122.01 16.8027 120.841 17.981 120.841 19.5059C120.841 20.6704 120.841 22.2434 122.524 22.7908C123.843 23.2199 124.768 22.5941 125.043 22.2434L125.043 17.257Z" fill="#6157FF"/>
<defs>
<linearGradient id="paint0_linear" x1="-4.0802" y1="16.9047" x2="3.10077" y2="37.1721" gradientUnits="userSpaceOnUse">
<stop stop-color="#6ABBFC"/>
<stop offset="1" stop-color="#614AFA"/>
</linearGradient>
<linearGradient id="paint1_linear" x1="17.1657" y1="16.1211" x2="17.1657" y2="10.1774" gradientUnits="userSpaceOnUse">
<stop stop-color="#6120F9"/>
<stop offset="1" stop-color="#5677FA"/>
</linearGradient>
<linearGradient id="paint2_linear" x1="11.0183" y1="25.8264" x2="11.0183" y2="20.2017" gradientUnits="userSpaceOnUse">
<stop stop-color="#5677FA"/>
<stop offset="1" stop-color="#6120F9"/>
</linearGradient>
<linearGradient id="paint3_linear" x1="17.1191" y1="19.9069" x2="18.1117" y2="19.9069" gradientUnits="userSpaceOnUse">
<stop stop-color="#614FFA"/>
<stop offset="1" stop-color="#6ABBFC"/>
</linearGradient>
<linearGradient id="paint4_linear" x1="14.9004" y1="21.4848" x2="16.0571" y2="21.4848" gradientUnits="userSpaceOnUse">
<stop stop-color="#614FFA"/>
<stop offset="1" stop-color="#6ABBFC"/>
</linearGradient>
<linearGradient id="paint5_linear" x1="17.1178" y1="23.7129" x2="18.1488" y2="23.7129" gradientUnits="userSpaceOnUse">
<stop stop-color="#614FFA"/>
<stop offset="1" stop-color="#6ABBFC"/>
</linearGradient>
<linearGradient id="paint6_linear" x1="18.9844" y1="21.5026" x2="20.6573" y2="21.5026" gradientUnits="userSpaceOnUse">
<stop stop-color="#614FFA"/>
<stop offset="1" stop-color="#6ABBFC"/>
</linearGradient>
</defs>
</svg>
