<svg width="40" height="40" viewBox="0 0 40 40" fill="none" xmlns="http://www.w3.org/2000/svg">
<path d="M19.9062 15.7377L18.22 17.4239L16.0186 15.2225L13.583 17.6112C12.2715 18.9227 12.4121 21.2646 13.9577 22.8103L19.9062 28.7588L18.22 30.445L12.2715 24.4965C9.78911 22.0141 9.6486 18.1733 11.8968 15.9251L16.0186 11.8033L17.7048 13.4895L19.9062 15.7377ZM37.9858 25.9953C40.4683 28.4778 40.4683 32.459 37.9858 34.9414L34.8008 38.1265C32.3184 40.6089 28.384 40.6557 26.042 38.267L19.953 32.178L21.6392 30.4918L27.7282 36.5808C29.1802 38.0328 31.6158 37.9859 33.1146 36.4403L36.2997 33.2553C37.8453 31.7096 37.8453 29.2272 36.2997 27.7283L33.1146 24.5433C30.6322 22.0609 30.6322 18.0796 33.1146 15.5972L36.2997 12.4122C37.8453 10.8665 37.8453 8.38407 36.2997 6.88525L33.1146 3.70023C31.569 2.10773 29.2739 1.96721 27.9156 3.27869L25.9484 5.2459L23.7938 7.40047V5.71429H22.1076L24.2622 3.55972L26.2294 1.59251C28.4776 -0.655738 32.3184 -0.515223 34.8008 1.96721L37.9858 5.15222C40.4683 7.63466 40.4683 11.6159 37.9858 14.0984L34.8008 17.2834C33.2552 18.829 33.2552 21.3115 34.8008 22.8103L37.9858 25.9953ZM24.4964 4.54333C24.3559 4.40281 24.1217 4.40281 23.9812 4.54333C23.8406 4.68384 23.8406 4.91803 23.9812 5.05855C24.1217 5.19906 24.3559 5.19906 24.4964 5.05855C24.6369 4.91803 24.6369 4.73068 24.4964 4.54333Z" fill="#B00C2F"/>
<path d="M27.9157 15.9251L25.4801 13.4895L23.7939 11.8033L22.1077 13.4895L18.2201 17.377L19.9063 19.0632L23.7939 15.1756L26.2295 17.6112C27.541 18.9227 27.4004 21.2646 25.8548 22.8103L12.1311 36.534C10.6791 37.9859 8.24353 37.9391 6.7447 36.3934L3.55969 33.2084C2.01402 31.6628 2.01402 29.1803 3.55969 27.6815L6.7447 24.4965C9.22714 22.0141 9.22714 18.0328 6.7447 15.5504L3.55969 12.3653C2.01402 10.8197 2.01402 8.33724 3.55969 6.83841L6.7447 3.6534C8.29037 2.10773 10.5855 1.96721 11.9438 3.27869L13.911 5.2459L16.0655 7.40047V5.71429H17.7517L15.5972 3.55972L13.5831 1.59251C11.3349 -0.655738 7.49412 -0.515223 5.01168 1.96721L1.82667 5.15222C-0.655765 7.63466 -0.655765 11.6159 1.82667 14.0984L5.01168 17.2834C6.55735 18.829 6.55735 21.3115 5.01168 22.8103L1.82667 25.9953C-0.655765 28.4778 -0.655765 32.459 1.82667 34.9414L5.01168 38.1265C7.49412 40.6089 11.4285 40.6557 13.7705 38.267L19.8595 32.178L21.5456 30.4918L27.4941 24.5433C30.0234 22.0141 30.1639 18.1733 27.9157 15.9251ZM15.363 4.54333C15.5035 4.40281 15.7377 4.40281 15.8782 4.54333C16.0187 4.68384 16.0187 4.91803 15.8782 5.05855C15.7377 5.19906 15.5035 5.19906 15.363 5.05855C15.2225 4.96487 15.2225 4.73068 15.363 4.54333Z" fill="#EF3340"/>
</svg>
