<svg width="157" height="44" viewBox="0 0 157 44" fill="none" xmlns="http://www.w3.org/2000/svg">
<path fill-rule="evenodd" clip-rule="evenodd" d="M14.7184 8.68704H17.1276V0.380615H26.4185V8.68704H34.7859V17.7748H26.4185V23.3823C20.7507 28.6164 17.1341 35.0271 15.0801 43.418H8.79918V35.1354H0.380737V25.9543H8.79918V8.68704H14.7184Z" fill="#4576E6"/>
<path fill-rule="evenodd" clip-rule="evenodd" d="M14.719 8.3067H16.7464V0.38081V0H17.1272H26.419H26.7999V0.38081V8.3067H34.7864H35.1672V8.68751V17.7756V18.1564H34.7864H26.7999V23.3821V23.5477L26.6765 23.6615C23.8716 26.2518 21.5737 29.1336 19.7243 32.4039C17.8728 35.678 16.4673 39.347 15.449 43.5076L15.3779 43.7992H15.0801H8.79871H8.41789V43.4185V35.5169H0.380816H0V35.1361V25.9544V25.5736H0.380816H8.41789V8.68751V8.3067H8.79871H14.719ZM17.1272 9.06832H14.719H9.17951V25.9544V26.3352H8.79871H0.76162V34.7553H8.79871H9.17951V35.1361V43.0377H14.7834C15.8127 38.9274 17.2209 35.2889 19.064 32.0293C20.9261 28.7372 23.2318 25.831 26.0384 23.2172V17.7756V17.3948H26.419H34.4056V9.06832H26.419H26.0384V8.68751V0.76162H17.508V8.68751V9.06832H17.1272Z" fill="#4576E6"/>
<path fill-rule="evenodd" clip-rule="evenodd" d="M17.8821 0.989014H25.6523V9.39254H34.0558V17.1626H25.6523L25.6376 23.5976C25.185 24.0465 24.1597 25.0947 23.7336 25.5613L17.8821 25.5662V17.1626H9.47852V9.39254H17.8821V0.989014Z" fill="#F54268"/>
<path fill-rule="evenodd" clip-rule="evenodd" d="M42.7601 17.6577C29.3799 23.53 21.9217 30.9587 18.9236 43.7247H30.4971C33.1336 39.4652 35.2545 36.8611 38.8042 35.0333L38.7197 43.5961C41.0193 40.0816 44.0315 37.1534 47.1326 34.8566V43.7774L53.9743 43.8197L54.1433 17.7105C50.2158 19.1888 46.4991 20.963 42.783 23.6238L42.7601 17.6577Z" fill="#4576E6"/>
<path fill-rule="evenodd" clip-rule="evenodd" d="M64.4891 33.4458L61.1875 33.4473L61.195 31.4476H64.4881V26.4573H55.4816V43.8357C61.6899 43.8367 67.5076 43.9157 73.7159 43.9167C77.8225 43.0051 80.0515 40.6528 80.4856 38.2174C80.6028 35.4066 80.6028 34.7446 80.6028 31.9339C79.6938 27.871 75.334 26.564 72.7933 26.448H66.5035V37.1327H71.2697V31.0383C73.3208 31.0382 74.8638 31.9175 74.9809 34.3199C74.9615 36.1039 75.1569 38.0443 72.5785 38.6174H61.2052V37.1523H64.4891V33.4458Z" fill="#4576E6"/>
<path fill-rule="evenodd" clip-rule="evenodd" d="M127.546 43.8327L127.577 28.2H116.638C116.547 31.7866 116.446 33.3762 114.848 33.3881C113.226 33.4 112.584 32.2208 112.639 28.1659L110.529 28.1611H108.825C108.817 31.7817 108.645 33.4128 106.546 33.3101C105.12 33.2405 104.541 31.8438 104.654 28.1793H96.1638C95.8276 27.97 95.4059 27.7822 95.1316 27.5779C90.271 23.9603 95.1649 21.3462 97.544 24.7825C97.7883 25.1354 98.2251 25.7738 98.4495 26.2261H100.383V18.6471L89.8369 18.6152C85.861 18.6825 83.0599 20.8051 81.3387 23.5158C79.4047 26.5616 79.0609 30.516 81.1817 32.34L87.8466 37.2855C88.9666 38.4836 87.7041 40.6469 85.6597 39.6178L80.1855 36.9302L80.155 43.9203H90.4687C94.9587 43.9145 98.0253 41.3462 100.09 38.5903C100.132 38.5341 100.188 38.5711 100.226 38.6702C100.515 39.437 101.35 43.5574 105.17 43.8326C108.259 44.0552 110.381 40.1897 110.466 40.1426C110.499 40.1245 110.518 40.1199 110.564 40.1797C111.353 41.1807 115.589 48.2095 121.666 39.8478L121.686 43.7936L127.546 43.8327Z" fill="#4576E6"/>
<circle cx="124.313" cy="23.4813" r="2.7625" fill="#6678B7"/>
<path fill-rule="evenodd" clip-rule="evenodd" d="M135.613 43.8431L137.176 43.7286C137.793 43.6835 139.652 43.0991 140.504 42.3282C141.792 41.163 142.537 39.6911 142.468 38.6827C142.269 35.7953 137.534 35.7739 136.122 34.2132C135.899 33.9668 135.729 33.7682 135.704 33.4281C135.568 31.5823 139.097 31.9286 139.987 33.6649L141.698 33.6933L141.709 28.3294C139.924 28.1712 134.457 28.1019 132.708 28.3944C128.481 29.1022 125.768 34.0621 128.752 36.0865C130.279 37.1227 131.7 37.9568 133.174 39.127C133.363 39.3488 133.445 39.6182 133.44 39.8806C133.043 41.0833 130.28 39.6679 128.297 38.7291L128.316 43.8356L135.613 43.8431Z" fill="#4576E6"/>
<path fill-rule="evenodd" clip-rule="evenodd" d="M149.755 43.8431L151.318 43.7286C151.935 43.6835 153.794 43.0991 154.646 42.3282C155.934 41.163 156.679 39.6911 156.61 38.6827C156.411 35.7953 151.676 35.7739 150.265 34.2132C150.041 33.9668 149.871 33.7682 149.846 33.4281C149.71 31.5823 153.239 31.9286 154.129 33.6649L155.84 33.6933L155.851 28.3294C154.066 28.1712 148.599 28.1019 146.85 28.3944C142.623 29.1022 139.911 34.0621 142.894 36.0865C144.421 37.1227 145.842 37.9568 147.316 39.127C147.505 39.3488 147.587 39.6182 147.582 39.8806C147.186 41.0833 144.422 39.6679 142.439 38.7291L142.459 43.8356L149.755 43.8431Z" fill="#4576E6"/>
</svg>
