<svg width="92" height="32" viewBox="0 0 92 32" fill="none" xmlns="http://www.w3.org/2000/svg">
<path fill-rule="evenodd" clip-rule="evenodd" d="M27.3417 15.9799C27.3611 17.4349 27.0894 18.8791 26.5422 20.2286C25.995 21.5782 25.1833 22.806 24.1544 23.8406C23.1256 24.8753 21.9 25.6962 20.5491 26.2554C19.1981 26.8147 17.7488 27.1012 16.2855 27.0983C14.8222 27.0954 13.374 26.8031 12.0254 26.2384C10.6767 25.6738 9.45449 24.848 8.42979 23.8093C7.40509 22.7705 6.5984 21.5394 6.05667 20.1878C5.51493 18.8361 5.24898 17.3907 5.27428 15.9359C5.25562 14.4827 5.52612 13.0402 6.07019 11.6914C6.61427 10.3425 7.4212 9.11396 8.44455 8.07636C9.46791 7.03876 10.6875 6.2126 12.0331 5.64541C13.3788 5.07822 14.8239 4.78119 16.2854 4.77142V0C14.1917 0.0140911 12.1214 0.439003 10.1931 1.25037C8.26491 2.06174 6.51672 3.2436 5.0488 4.72819C3.58088 6.21278 2.42212 7.9709 1.63895 9.90172C0.855785 11.8325 0.463625 13.8981 0.484957 15.9799C0.449372 20.1824 2.094 24.2269 5.0571 27.2237C8.0202 30.2206 12.0591 31.9244 16.2854 31.9604C18.3816 31.9471 20.4545 31.5231 22.3857 30.7126C24.3168 29.902 26.0684 28.7209 27.54 27.2366C29.0117 25.7524 30.1747 23.9943 30.9625 22.0627C31.7502 20.1312 32.1473 18.0642 32.131 15.9799H27.3417Z" fill="#EA9D00"/>
<path fill-rule="evenodd" clip-rule="evenodd" d="M13.1973 14.8505L30.5213 8.57339L32.0416 12.8016L14.7192 19.034L13.1973 14.8505Z" fill="#D82819"/>
<path fill-rule="evenodd" clip-rule="evenodd" d="M34.3694 31.9606V0.0463964L41.3527 0.00163269L51.2898 25.6395L61.3162 0.00163269L68.031 0.0463964V31.9606L63.7338 31.8263L63.6453 4.89659L52.946 31.9606H49.4109L38.5766 4.89659V31.9606H34.3694Z" fill="#EA9D00"/>
<path d="M86.5412 8.59142C85.1105 5.76988 83.7608 3.69504 80.182 3.69504C78.287 3.69504 75.4656 4.77408 75.4656 7.72057C75.4656 10.46 77.8235 11.6223 78.8338 12.0794L84.9809 14.8177C86.8818 15.6706 88.4917 17.0556 89.614 18.8034C90.3439 20.0484 90.7086 21.4717 90.6668 22.9122C90.7141 24.2133 90.4662 25.5082 89.9413 26.701C89.4164 27.8937 88.6281 28.9535 87.6349 29.8018C85.7725 31.3633 83.3697 32.1382 80.9402 31.9607C78.3817 31.9449 75.8983 31.0996 73.8668 29.5529C72.3613 28.3145 71.177 26.7346 70.4138 24.946L74.1197 22.6622C75.0029 25.1117 77.0661 28.1415 81.234 28.1415C83.8456 28.1415 86.667 26.5647 86.667 23.2435C86.667 21.8331 86.1201 20.0481 82.8761 18.596L77.4031 16.1456C75.508 15.317 73.2775 13.7804 72.3088 12.0794C71.6445 10.7689 71.3257 9.31209 71.3825 7.84559C71.3825 3.2387 75.34 0 80.182 0C84.8976 0 88.2673 2.3245 90.1616 6.47589L86.5412 8.59142Z" fill="#EA9D00"/>
</svg>
