<svg width="148" height="54" viewBox="0 0 148 54" fill="none" xmlns="http://www.w3.org/2000/svg">
<circle cx="27" cy="27" r="27" fill="white"/>
<path d="M48.0502 27.8364C45.8267 23.0243 41.7352 16.9178 41.102 16.487C39.5864 15.0046 37.5846 14.1223 35.468 14.0035H35.3171C32.8593 13.9336 30.4854 14.9005 28.7758 16.6677L25.7107 19.5542L22.713 22.5161C21.087 24.2972 18.334 24.4474 16.5238 22.8538C14.7137 21.2602 14.5138 18.5102 16.0745 16.6717C15.7353 16.9918 15.4126 17.3291 15.1077 17.6821L7.5203 25.2636C5.84437 26.8933 4.93117 29.1528 5.00405 31.4893C5.07694 33.8258 6.1292 36.024 7.90345 37.546C7.96423 37.5968 8.03088 37.6401 8.10197 37.6751C6.80832 36.7307 6.16428 35.1329 6.4414 33.5554C6.71853 31.9779 7.8686 30.6953 9.40665 30.2484C10.9447 29.8015 12.603 30.2681 13.6824 31.4515L16.4994 34.2983C16.7237 34.5186 19.2111 36.8234 19.4454 37.0279C20.8118 38.2282 22.4225 39.1175 24.1662 39.6345C25.8769 40.1612 27.7064 40.1612 29.4171 39.6345C31.6861 38.9079 33.4153 37.554 35.1741 36.0095C35.8359 35.4311 36.4857 34.8448 37.1236 34.2506L39.891 31.4554C41.0596 30.1726 42.8964 29.7399 44.5147 30.3663C46.133 30.9926 47.2 32.5491 47.2005 34.2844C47.2013 34.524 47.18 34.7633 47.137 34.999C46.9343 36.1029 46.3016 37.0811 45.3781 37.7188C45.4842 37.6793 45.5828 37.6223 45.6699 37.55C48.5028 35.1102 49.541 31.0604 48.0502 27.8364Z" fill="url(#paint0_linear)"/>
<path d="M22.5403 16.3839C21.2524 15.117 19.3238 14.7598 17.6675 15.4814C16.0113 16.203 14.9597 17.8586 15.0106 19.6645C15.0614 21.4705 16.2045 23.0643 17.8988 23.6915C19.593 24.3188 21.4984 23.8536 22.713 22.5162L25.7107 19.5543L22.5403 16.3839Z" fill="url(#paint1_linear)"/>
<path d="M43.0018 30.0837C41.8187 30.0826 40.6902 30.5816 39.8949 31.4575L37.1275 34.2527L37.0759 34.3043L38.3107 35.5391C38.867 36.1433 39.4534 36.7191 40.0676 37.2642C40.1828 37.3595 40.3019 37.4488 40.423 37.5342C40.6215 37.6672 40.8061 37.7903 41.0046 37.9074C41.2416 38.053 41.4907 38.1779 41.7491 38.2806C42.0996 38.4041 42.4675 38.4711 42.839 38.4792C43.7473 38.5084 44.6403 38.24 45.382 37.7149C46.3056 37.0772 46.9382 36.099 47.1409 34.9951C47.184 34.7594 47.2052 34.5201 47.2044 34.2805C47.2011 31.9617 45.3205 30.0837 43.0018 30.0837Z" fill="#4C45D0"/>
<path d="M13.6903 31.4574C12.5362 30.1892 10.7273 29.7494 9.11978 30.346C7.51222 30.9426 6.42833 32.4561 6.38101 34.1701C6.33369 35.8842 7.33243 37.4551 8.90462 38.1395C10.4768 38.8239 12.3071 38.4845 13.5295 37.282L16.5073 34.3042L13.6903 31.4574Z" fill="url(#paint2_linear)"/>
<path d="M28.0552 29.6528V27.3917C28.0656 27.1093 27.9635 26.8345 27.7713 26.6274C27.5821 26.4315 27.2691 26.3336 26.8323 26.3336C26.6062 26.3319 26.3814 26.3681 26.1673 26.4408C25.9976 26.4944 25.8339 26.5656 25.6789 26.6532V29.6607H23.4158C23.1342 29.6513 22.8603 29.7533 22.6535 29.9446C22.4536 30.1326 22.3531 30.4462 22.3517 30.8856C22.3502 31.1117 22.3864 31.3365 22.4589 31.5507C22.5134 31.7201 22.5845 31.8837 22.6713 32.039H24.4283C24.7618 31.9834 25.395 31.7948 25.5578 31.1457C25.6258 30.8074 25.6663 30.4641 25.6789 30.1193V34.2883C25.6674 34.5755 25.7693 34.8558 25.9628 35.0684C26.1514 35.267 26.4651 35.3702 26.9018 35.3702C27.1299 35.3715 27.3562 35.3298 27.5688 35.2471C27.7674 35.1637 27.9381 35.0923 28.0552 35.0327V29.6727V29.6528Z" fill="white"/>
<path d="M31.2494 30.1412C31.168 29.9427 31.0965 29.77 31.037 29.6528H30.3064C29.6975 29.7332 29.1707 30.1166 28.9068 30.6712C28.682 31.0951 28.5341 31.5555 28.4701 32.0311H30.2945C30.5818 32.0427 30.862 31.9407 31.0747 31.7472C31.2758 31.5566 31.3764 31.243 31.3764 30.8062C31.3775 30.5784 31.3343 30.3526 31.2494 30.1412Z" fill="white"/>
<g opacity="0.25">
<path d="M26.348 26.6454C26.5033 26.5585 26.6669 26.4874 26.8363 26.4329C26.9443 26.3965 27.0553 26.3693 27.1679 26.3515C27.0568 26.3344 26.9447 26.3257 26.8324 26.3257C26.6062 26.3241 26.3814 26.3603 26.1673 26.4329C25.9976 26.4866 25.8339 26.5578 25.679 26.6454V29.6529C25.8567 29.6529 26.0272 29.5822 26.1527 29.4563C26.2782 29.3304 26.3485 29.1597 26.348 28.9819V26.6454Z" fill="url(#paint3_linear)"/>
<path d="M23.0227 30.8778C23.0227 30.4397 23.1227 30.1261 23.3225 29.9368C23.5303 29.7458 23.8047 29.6439 24.0868 29.6529H23.4158C23.1342 29.6435 22.8603 29.7455 22.6535 29.9368C22.4536 30.1248 22.3531 30.4384 22.3517 30.8778C22.3502 31.1039 22.3864 31.3287 22.4589 31.5429C22.5134 31.7123 22.5845 31.8759 22.6713 32.0312H23.3404C23.2544 31.8755 23.1833 31.7119 23.1279 31.5429C23.0561 31.3286 23.0206 31.1038 23.0227 30.8778Z" fill="url(#paint4_linear)"/>
<path d="M26.6318 35.0547C26.4383 34.8421 26.3363 34.5618 26.3479 34.2745V32.9246C26.3479 32.9246 26.3638 32.2536 26.3479 32.0313C26.2268 30.3458 25.6789 30.1116 25.6789 30.1116V34.2805C25.6673 34.5678 25.7693 34.848 25.9628 35.0607C26.1513 35.2592 26.465 35.3624 26.9018 35.3624C27.0102 35.3623 27.1185 35.353 27.2253 35.3346C27.0019 35.3097 26.7931 35.2112 26.6318 35.0547Z" fill="url(#paint5_linear)"/>
</g>
<path opacity="0.25" d="M30.9853 29.6528H30.3143C29.7054 29.7332 29.1786 30.1166 28.9148 30.6712C28.6871 31.0946 28.5366 31.555 28.4701 32.0311H29.1391C29.2054 31.5555 29.3546 31.0953 29.5798 30.6712C29.8448 30.1149 30.3742 29.7313 30.9853 29.6528V29.6528Z" fill="url(#paint6_linear)"/>
<path d="M79.7535 28.8864C79.6899 28.1397 79.6238 27.3618 79.5549 26.5528C79.4861 25.7438 79.42 24.9772 79.3564 24.2529C79.285 23.5273 79.2188 22.8759 79.1579 22.2986C79.0964 21.7306 79.0368 21.3055 78.9832 21.0374C78.913 20.7379 78.6954 20.4947 78.4055 20.3919C77.9174 20.1919 77.3922 20.0984 76.865 20.1179C76.5193 20.1141 76.1742 20.1501 75.8367 20.2251C75.6222 20.2707 75.4128 20.3372 75.2113 20.4237C74.9473 21.1308 74.6555 22.0126 74.3398 23.0414C74.0063 24.1357 73.6688 25.2797 73.3472 26.4376C73.3083 26.573 73.1843 26.6662 73.0435 26.666H72.9403C72.8018 26.6661 72.6794 26.5759 72.6385 26.4435L72.2613 25.2201C72.1224 24.7673 71.9801 24.3105 71.8345 23.8497C71.6889 23.3889 71.5354 22.9447 71.3739 22.5171C71.227 22.0861 71.092 21.7028 70.9769 21.3751C70.8444 20.9718 70.5671 20.6322 70.1987 20.4217C69.8295 20.2231 69.2974 20.1139 68.6105 20.1139C68.1154 20.0868 67.6213 20.1816 67.1713 20.39C66.9565 20.4951 66.7617 20.6369 66.5956 20.809L66 31.3968C66 31.9708 66.266 32.1238 66.3554 32.1734C66.7529 32.3633 67.1919 32.4501 67.6318 32.4256C67.9092 32.4251 68.1861 32.4019 68.4597 32.3561C68.6363 32.3263 68.7892 32.2926 68.9202 32.2568C68.956 31.5478 68.9838 30.8904 69.0016 30.3005C69.0235 29.661 69.0374 29.0076 69.0433 28.3601C69.0493 27.7127 69.0651 27.0553 69.087 26.374C69.1088 25.6928 69.1386 24.9341 69.1803 24.1159C69.1888 23.948 69.328 23.8167 69.4959 23.8179H69.5992C69.7444 23.8176 69.8709 23.917 69.9049 24.0583C70.0419 24.6163 70.2364 25.2797 70.4846 26.0324C70.7327 26.7852 71.0484 27.7643 71.4494 29.0116C71.512 29.2272 71.6769 29.3981 71.8901 29.4684C72.2542 29.5917 72.6374 29.6489 73.0217 29.6372C73.326 29.6425 73.6293 29.601 73.921 29.514C74.107 29.4612 74.2833 29.3787 74.4431 29.2697C74.8083 28.0304 75.122 26.9977 75.3801 26.1953C75.6381 25.3929 75.8466 24.6958 75.9756 24.1615C76.0118 24.0223 76.1375 23.9251 76.2814 23.9252H76.3866C76.5545 23.925 76.6928 24.0572 76.7002 24.2251C76.7419 25.0453 76.7737 26.0781 76.7955 27.2936C76.8174 28.5091 76.869 29.8755 76.9524 31.3849C76.9841 31.9986 77.27 32.1416 77.3633 32.1794C77.7367 32.3496 78.1442 32.4319 78.5544 32.4197C78.8637 32.426 79.1727 32.3973 79.4755 32.3343C79.6458 32.2924 79.811 32.2318 79.9679 32.1535C79.954 31.8397 79.9282 31.4266 79.8944 30.9242C79.8666 30.3164 79.813 29.6272 79.7535 28.8864Z" fill="#6157FF"/>
<path d="M125.953 28.8864C125.89 28.1397 125.824 27.3618 125.755 26.5528C125.686 25.7438 125.62 24.9772 125.556 24.2529C125.485 23.5273 125.419 22.8759 125.358 22.2986C125.296 21.7306 125.237 21.3055 125.183 21.0374C125.113 20.7379 124.895 20.4947 124.605 20.3919C124.117 20.1919 123.592 20.0984 123.065 20.1179C122.719 20.1141 122.374 20.1501 122.037 20.2251C121.822 20.2707 121.613 20.3372 121.411 20.4237C121.147 21.1308 120.855 22.0126 120.54 23.0414C120.206 24.1357 119.869 25.2797 119.547 26.4376C119.508 26.573 119.384 26.6662 119.243 26.666H119.14C119.002 26.6661 118.879 26.5759 118.838 26.4435L118.461 25.2201C118.322 24.7673 118.18 24.3105 118.034 23.8497C117.889 23.3889 117.735 22.9447 117.574 22.5171C117.427 22.0861 117.292 21.7028 117.177 21.3751C117.044 20.9718 116.767 20.6322 116.399 20.4217C116.029 20.2231 115.497 20.1139 114.81 20.1139C114.315 20.0868 113.821 20.1816 113.371 20.39C113.156 20.4951 112.962 20.6369 112.796 20.809L112.2 31.3968C112.2 31.9708 112.466 32.1238 112.555 32.1734C112.953 32.3633 113.392 32.4501 113.832 32.4256C114.109 32.4251 114.386 32.4019 114.66 32.3561C114.836 32.3263 114.989 32.2926 115.12 32.2568C115.156 31.5478 115.184 30.8904 115.202 30.3005C115.223 29.661 115.237 29.0076 115.243 28.3601C115.249 27.7127 115.265 27.0553 115.287 26.374C115.309 25.6928 115.339 24.9341 115.38 24.1159C115.389 23.948 115.528 23.8167 115.696 23.8179H115.799C115.944 23.8176 116.071 23.917 116.105 24.0583C116.242 24.6163 116.436 25.2797 116.685 26.0324C116.933 26.7852 117.248 27.7643 117.649 29.0116C117.712 29.2272 117.877 29.3981 118.09 29.4684C118.454 29.5917 118.837 29.6489 119.222 29.6372C119.526 29.6425 119.829 29.601 120.121 29.514C120.307 29.4612 120.483 29.3787 120.643 29.2697C121.008 28.0304 121.322 26.9977 121.58 26.1953C121.838 25.3929 122.047 24.6958 122.176 24.1615C122.212 24.0223 122.337 23.9251 122.481 23.9252H122.587C122.754 23.925 122.893 24.0572 122.9 24.2251C122.942 25.0453 122.974 26.0781 122.995 27.2936C123.017 28.5091 123.069 29.8755 123.152 31.3849C123.184 31.9986 123.47 32.1416 123.563 32.1794C123.937 32.3496 124.344 32.4319 124.754 32.4197C125.064 32.426 125.373 32.3973 125.675 32.3343C125.846 32.2924 126.011 32.2318 126.168 32.1535C126.154 31.8397 126.128 31.4266 126.094 30.9242C126.067 30.3164 126.013 29.6272 125.953 28.8864Z" fill="#6157FF"/>
<path fill-rule="evenodd" clip-rule="evenodd" d="M90.629 23.3699C91.0714 23.8116 91.4165 24.3434 91.6416 24.9304C91.8877 25.588 92.0089 26.2869 91.999 26.9902C92.0123 27.7256 91.8911 28.4571 91.6416 29.1476C91.42 29.7359 91.0751 30.2683 90.631 30.7081C90.1834 31.1371 89.6509 31.4643 89.0689 31.6678C88.4039 31.8965 87.7054 32.0087 87.0033 31.9994C86.3009 32.0094 85.6024 31.8905 84.9417 31.6483C84.3578 31.4315 83.8246 31.0941 83.3757 30.6574C82.9333 30.2157 82.5882 29.6839 82.3631 29.0969C81.879 27.7422 81.879 26.2578 82.3631 24.9031C82.5873 24.3156 82.9326 23.7836 83.3757 23.3426C83.824 22.9046 84.3573 22.5665 84.9417 22.3497C85.6028 22.1091 86.3011 21.9909 87.0033 22.0005C87.7056 21.9937 88.4032 22.118 89.0612 22.3673C89.6448 22.5912 90.1781 22.9321 90.629 23.3699ZM87.0227 29.8957C87.6468 29.921 88.2382 29.6123 88.581 29.0823C88.9249 28.579 89.0902 27.8788 89.0902 26.9951C89.0902 26.1115 88.9153 25.4112 88.5676 24.9138C88.2001 24.4107 87.6195 24.114 87.0026 24.114C86.3856 24.114 85.8051 24.4107 85.4376 24.9138C85.0898 25.4112 84.9149 26.0959 84.9149 26.9951C84.9149 27.8944 85.0956 28.6025 85.4491 29.0999C85.8067 29.619 86.3992 29.9187 87.0227 29.8957Z" fill="#6157FF"/>
<path fill-rule="evenodd" clip-rule="evenodd" d="M102.585 23.8134C103.032 24.2776 103.38 24.8326 103.607 25.4431L103.623 25.4369C104.129 26.9321 104.126 28.5599 103.613 30.0528C103.381 30.6701 103.016 31.2252 102.545 31.6762C102.059 32.1234 101.485 32.458 100.862 32.6573C100.135 32.8918 99.3755 33.0067 98.6129 32.998C97.8494 33.0163 97.0879 32.9089 96.3574 32.6799C95.8025 32.4973 95.2772 32.231 94.7984 31.8897C94.302 31.5777 93.9995 31.0225 94 30.4243V19.1462C94.1018 19.1237 94.2375 19.097 94.3992 19.0724C94.9535 18.9802 95.5184 18.976 96.0739 19.06C96.2486 19.0877 96.4142 19.1581 96.557 19.2653C96.6829 19.3644 96.778 19.4993 96.8304 19.6532C96.9094 19.8971 96.9452 20.1536 96.9362 20.4105V22.5327C96.9369 22.6402 96.989 22.7405 97.0756 22.8008C97.1621 22.8611 97.272 22.8737 97.3694 22.8344C97.672 22.7074 97.9863 22.6118 98.3075 22.5492C98.6334 22.4935 98.9633 22.4668 99.2936 22.4691C99.9082 22.4659 100.518 22.5829 101.09 22.8139C101.649 23.0404 102.157 23.3803 102.585 23.8134ZM98.597 30.7614C99.2715 30.7925 99.9208 30.4952 100.35 29.9589V29.9548C100.751 29.4416 100.956 28.7089 100.956 27.7258C100.956 26.7427 100.747 25.9874 100.336 25.4825C99.9126 24.9611 99.2788 24.6701 98.6189 24.6944C98.3458 24.691 98.0734 24.7242 97.8085 24.7929C97.5636 24.8668 97.3247 24.9601 97.0939 25.0721C96.9828 25.1261 96.9121 25.2412 96.9123 25.3676V30.0882C96.9125 30.1998 96.9683 30.3035 97.06 30.3632C97.2587 30.4894 97.4737 30.5862 97.6987 30.6505C97.9916 30.7304 98.294 30.7677 98.597 30.7614Z" fill="#6157FF"/>
<path d="M108.737 22.9259C108.595 22.8221 108.429 22.754 108.255 22.7273C107.714 22.646 107.163 22.65 106.623 22.7392L106.206 22.8067V31.0649C106.197 31.312 106.235 31.5587 106.317 31.7918C106.376 31.9426 106.475 32.0745 106.603 32.1731C106.746 32.2773 106.911 32.3455 107.086 32.3717C107.628 32.4527 108.179 32.4494 108.72 32.3618L109.134 32.2923V24.0341C109.144 23.7876 109.106 23.5416 109.023 23.3092C108.965 23.1575 108.866 23.0248 108.737 22.9259Z" fill="#6157FF"/>
<path d="M107.665 21.1443C108.108 21.1693 108.541 21.0055 108.857 20.6935C109.447 20.0644 109.447 19.0843 108.857 18.4552C108.178 17.8483 107.153 17.8483 106.474 18.4552C105.884 19.0843 105.884 20.0644 106.474 20.6935C106.79 21.0051 107.223 21.1688 107.665 21.1443Z" fill="#6157FF"/>
<path fill-rule="evenodd" clip-rule="evenodd" d="M130.564 28.4782C130.627 28.9564 133.811 28.6287 134.906 28.3144C136 28 136.913 27.618 136.913 25.4881C136.913 23.3582 134.765 22.3342 132.817 22.3342C131.233 22.1976 128.075 23.035 128.007 26.412C127.946 29.4554 128.298 29.935 128.709 30.4954C128.726 30.5191 128.744 30.543 128.761 30.5672C129.195 31.1634 130.014 31.9416 131.693 32.2693C133.373 32.597 135.732 32.2693 136.5 31.5C136.251 30.6616 135.441 30.0166 134.58 30.1709C134.223 30.2348 133.871 30.2805 133.595 30.2805C132.67 30.2805 131.513 30.1847 131.014 29.5841C130.516 28.9836 130.5 28 130.564 28.4782ZM132.691 24.122C134.561 24.122 135.051 25.9051 134.249 26.2966C133.608 26.6097 131.608 26.601 130.687 26.5575C130.691 26.4949 130.692 26.4176 130.694 26.3307C130.701 25.9875 130.712 25.4948 130.85 25.1666C131.131 24.5012 131.766 24.122 132.691 24.122Z" fill="#6157FF"/>
<path fill-rule="evenodd" clip-rule="evenodd" d="M138.539 30.6451C137.72 28.9528 138.03 26.2251 138.212 25.4805C138.62 23.8189 140.469 22.3489 142.469 22.5C143.07 22.5454 143.818 22.7893 144.45 23L144.45 20.4913C144.45 19.5087 145.199 19.072 145.69 19.0173C146.182 18.9627 147.274 19.0546 147.274 19.0546C147.274 20.7372 147.267 22.5692 147.26 24.463C147.252 26.4413 147.244 28.487 147.244 30.5C147.244 30.6255 147.222 30.6862 147.155 30.7936C145.048 34.1691 139.828 33.3097 138.539 30.6451ZM144.435 25.2414C144.229 25.0402 143.587 24.8047 142.668 24.8047C141.519 24.8047 140.395 25.9374 140.395 27.4033C140.395 28.5227 140.395 30.0348 142.013 30.5611C143.281 30.9735 144.17 30.3719 144.435 30.0348L144.435 25.2414Z" fill="#6157FF"/>
<defs>
<linearGradient id="paint0_linear" x1="-6.12128" y1="25.1481" x2="4.65017" y2="55.5492" gradientUnits="userSpaceOnUse">
<stop stop-color="#6ABBFC"/>
<stop offset="1" stop-color="#614AFA"/>
</linearGradient>
<linearGradient id="paint1_linear" x1="25.7485" y1="23.9634" x2="25.7485" y2="15.0479" gradientUnits="userSpaceOnUse">
<stop stop-color="#6120F9"/>
<stop offset="1" stop-color="#5677FA"/>
</linearGradient>
<linearGradient id="paint2_linear" x1="16.5259" y1="38.5207" x2="16.5259" y2="30.0836" gradientUnits="userSpaceOnUse">
<stop stop-color="#5677FA"/>
<stop offset="1" stop-color="#6120F9"/>
</linearGradient>
<linearGradient id="paint3_linear" x1="25.679" y1="29.653" x2="27.1679" y2="29.653" gradientUnits="userSpaceOnUse">
<stop stop-color="#614FFA"/>
<stop offset="1" stop-color="#6ABBFC"/>
</linearGradient>
<linearGradient id="paint4_linear" x1="22.3517" y1="32.0315" x2="24.0868" y2="32.0315" gradientUnits="userSpaceOnUse">
<stop stop-color="#614FFA"/>
<stop offset="1" stop-color="#6ABBFC"/>
</linearGradient>
<linearGradient id="paint5_linear" x1="25.6789" y1="35.3579" x2="27.2253" y2="35.3579" gradientUnits="userSpaceOnUse">
<stop stop-color="#614FFA"/>
<stop offset="1" stop-color="#6ABBFC"/>
</linearGradient>
<linearGradient id="paint6_linear" x1="28.476" y1="32.0283" x2="30.9853" y2="32.0283" gradientUnits="userSpaceOnUse">
<stop stop-color="#614FFA"/>
<stop offset="1" stop-color="#6ABBFC"/>
</linearGradient>
</defs>
</svg>
