<svg width="52" height="56" viewBox="0 0 52 56" fill="none" xmlns="http://www.w3.org/2000/svg">
<path fill-rule="evenodd" clip-rule="evenodd" d="M51.4883 0.352173H0.65625V32.7522H51.4883V0.352173ZM32.0484 5.53617V23.6392C33.2724 24.1842 35.8644 25.0482 38.3124 25.0482C40.7604 25.0482 42.6372 24.4696 43.7871 23.141C44.7933 21.9784 45.1524 21.1919 45.1524 17.7042C45.1524 14.2164 43.7871 11.8473 41.7748 11.3491C39.7624 10.8508 38.0854 11.0169 35.9054 12.1795V5.53617H32.0484ZM36.0804 14.8242C37.4161 14.1568 39.2484 13.6612 40.2776 14.5427C41.4463 15.5437 41.6654 18.6862 40.8324 20.8002C40.4173 21.8535 39.4285 22.3122 38.3124 22.3122C37.0679 22.3122 36.4948 22.0195 36.1522 21.8446C36.1271 21.8318 36.1032 21.8196 36.0804 21.8082V14.8242ZM20.5155 7.24885L19.3763 10.1442C17.8787 9.47657 14.8355 9.20815 14.3363 9.20817C13.8371 9.20818 11.7923 9.4135 11.6003 10.7922C11.4083 12.1708 12.6947 12.8121 13.5267 13.0903C13.8901 13.2042 14.2628 13.3088 14.7249 13.4384L14.7249 13.4385C15.3911 13.6254 16.243 13.8644 17.5203 14.2586C20.0459 15.038 21.5363 16.9472 21.5363 19.5994C21.5363 21.4352 21.0899 22.7966 19.5923 23.7522C16.1509 25.9481 10.2635 25.3931 6.70426 23.6082L7.71226 20.8002L7.83415 20.8384C10.2483 21.5956 13.3933 22.582 15.8563 21.6021C16.4243 21.3762 17.1875 20.6305 17.1875 19.5994C17.1875 18.5682 16.7843 17.9922 15.8563 17.5966C15.3106 17.4026 14.7192 17.2833 14.0883 17.1562L14.0882 17.1562C12.9618 16.9291 11.7092 16.6766 10.3651 15.9276C7.42202 14.2877 7.42329 12.482 7.42423 11.1505L7.42426 11.0802C7.42426 9.13618 8.28826 7.48018 10.0323 6.58125C11.3971 5.87777 13.9283 5.39545 16.4243 5.89614C17.2075 6.05326 19.7389 6.80379 20.5155 7.24885ZM24.5615 11.4402H28.4483V24.8322H24.5603L24.5615 11.4402ZM26.2884 5.82416C25.0954 5.82416 24.1284 6.79123 24.1284 7.98416C24.1284 9.1771 25.0954 10.1442 26.2884 10.1442H26.7204C27.9133 10.1442 28.8804 9.1771 28.8804 7.98416C28.8804 6.79123 27.9133 5.82416 26.7204 5.82416H26.2884Z" fill="#7A232E"/>
<path fill-rule="evenodd" clip-rule="evenodd" d="M47.6459 42.6956V36.2081H51.4883V55.3378H47.813V54.1734C47.6474 54.2503 47.4687 54.349 47.2717 54.4579C46.4747 54.8981 45.3778 55.5041 43.6365 55.5041C41.7988 55.5041 38.5687 55.1629 38.3842 49.1681C38.2402 44.4881 40.0868 43.207 40.9635 42.6956C41.8402 42.1841 44.572 41.0987 47.6459 42.6956ZM0.368164 55.3378V36.8735H5.37994L10.5588 49.5157L15.7376 36.8735H20.5823V55.3378H16.5729V43.0283L12.0623 53.6743H8.72112L4.37758 43.1946V55.3378H0.368164ZM47.6001 51.6627V45.4476C45.9749 44.4957 42.6237 43.4991 42.2202 47.1274C41.8167 50.7556 42.8367 52.2226 43.3971 52.5026C44.2377 52.9505 46.2551 53.4097 47.6001 51.6627Z" fill="#7A232E"/>
<path fill-rule="evenodd" clip-rule="evenodd" d="M27.4718 49.6887H36.1974C36.3083 48.1871 36.0975 44.8836 35.0326 43.6823C33.5351 41.993 31.5385 41.6802 30.041 41.6802C29.2886 41.6802 27.4878 41.837 26.0476 42.8481C24.6213 43.8494 23.5518 45.6921 23.5518 48.3539C23.5517 51.7262 24.7421 54.7992 28.3771 55.3613C30.7552 55.7291 33.9253 55.3837 35.8646 54.3603C35.563 53.4532 35.3753 52.8543 35.2551 52.4706C35.1099 52.0073 35.063 51.8576 35.0326 51.8576C33.3687 52.525 31.4911 52.7485 29.7082 52.525C28.664 52.3941 27.4718 51.3571 27.4718 49.6887ZM27.5836 47.2962C27.5836 45.9623 28.0853 44.1282 30.092 44.1282C32.3741 44.1282 32.5906 45.8709 32.7549 47.1943C32.7592 47.2286 32.7634 47.2625 32.7676 47.2962H27.5836Z" fill="#7A232E"/>
</svg>
