<svg width="204" height="44" viewBox="0 0 184 40" fill="none" xmlns="http://www.w3.org/2000/svg">
<g clip-path="url(#clip0)">
<path d="M19.9439 0C15.6793 0 12.2227 3.46354 12.2227 7.74089C12.2227 9.87956 13.0861 11.8131 14.4849 13.2161L16.0817 14.8177V7.74089H23.7996V14.8177L25.3997 13.2161C26.7953 11.8164 27.6618 9.87956 27.6618 7.74089C27.6618 3.46354 24.2053 0 19.9439 0ZM34.4158 0C34.0458 0 33.7245 0.205078 33.5655 0.511068L29.3008 8.56771C29.2814 8.61003 29.2684 8.65885 29.2684 8.71094C29.2684 8.88997 29.4112 9.0332 29.5897 9.0332C29.687 9.0332 29.7779 8.98763 29.8363 8.91276L29.8493 8.89648C29.8493 8.88997 29.8526 8.88997 29.8558 8.88672L35.198 1.52669C35.3083 1.36719 35.3765 1.17839 35.3765 0.966797C35.3797 0.432943 34.9513 0 34.4158 0ZM14.777 16.1296L13.1802 14.5247C11.7846 13.125 9.85349 12.2591 7.72116 12.2591C3.45651 12.2591 0 15.7259 0 19.9967C0 24.2708 3.45651 27.7376 7.71792 27.7376C9.85025 27.7376 11.7813 26.8717 13.1769 25.472L14.7737 23.8704H7.71792V16.1296H14.777Z" fill="#E61565"/>
<path d="M31.1994 10.6413C31.2513 10.6413 31.3 10.6315 31.3422 10.6087L39.3717 6.33464C39.6768 6.17187 39.8845 5.85286 39.8845 5.48177C39.8845 4.94466 39.4528 4.51172 38.9173 4.51172C38.7128 4.51172 38.5181 4.57682 38.3623 4.69076L31.0274 10.0521C31.0241 10.0521 31.0209 10.0521 31.0176 10.0553L30.9982 10.0684C30.9268 10.1302 30.8813 10.2181 30.8813 10.3158C30.8781 10.5013 31.0241 10.6413 31.1994 10.6413ZM32.1633 12.2591C30.0342 12.2591 28.1031 13.125 26.7076 14.5247L25.1107 16.1296H32.1633V23.8672H25.1075L26.7043 25.4688C28.0999 26.8685 30.031 27.7344 32.1601 27.7344C36.4247 27.7344 39.8812 24.2708 39.8812 19.9935C39.8845 15.7259 36.428 12.2591 32.1633 12.2591ZM23.7995 25.1758V32.2559H16.0816V25.1758L14.4848 26.7806C13.086 28.1803 12.2227 30.1172 12.2227 32.2559C12.2227 36.5299 15.6792 40 19.9406 40C24.202 40 27.6585 36.5332 27.6585 32.2559C27.6585 30.1204 26.7919 28.1836 25.3963 26.7806L23.7995 25.1758Z" fill="#28B7C6"/>
<path d="M56.4174 12.8301C56.9367 12.5111 57.3976 12.0033 57.7838 11.3034L57.6085 11.1862C57.1477 11.8372 56.7257 12.2637 56.3363 12.4753C55.9468 12.6999 55.4989 12.8073 55.0023 12.8073C54.4117 12.8073 53.9053 12.6641 53.4445 12.3939C52.9966 12.1107 52.6558 11.7201 52.4319 11.1992C52.2079 10.6784 52.0911 10.0632 52.0911 9.35352C52.0911 8.49089 52.2079 7.76823 52.4448 7.1888C52.6915 6.60938 53.0226 6.19596 53.4347 5.92253C53.8469 5.66211 54.3175 5.5319 54.8368 5.5319C55.4502 5.5319 55.9793 5.70768 56.4174 6.05273C56.8523 6.40755 57.1963 6.98698 57.43 7.778H57.6053L57.43 5.11849H57.2191C57.1834 5.30729 57.1119 5.45052 57.0081 5.55469C56.9367 5.6263 56.8426 5.66211 56.7355 5.66211C56.6641 5.66211 56.5602 5.61328 56.3947 5.5319C55.8527 5.25846 55.2977 5.11849 54.733 5.11849C54.0124 5.11849 53.3406 5.29753 52.7272 5.66211C52.1268 6.01693 51.6432 6.52474 51.2894 7.17578C50.9486 7.83659 50.7701 8.55925 50.7701 9.3405C50.7701 10.3105 51.0428 11.1504 51.5588 11.8698C52.2663 12.8268 53.2692 13.3118 54.5642 13.3118C55.275 13.3151 55.9014 13.1491 56.4174 12.8301ZM64.6968 12.2507C64.5215 12.4395 64.3203 12.5566 64.1191 12.6185C63.9179 12.6771 63.5998 12.7129 63.1649 12.7129H61.844C61.633 12.7129 61.4772 12.6901 61.4091 12.6413C61.3279 12.6055 61.2792 12.5339 61.2435 12.4622C61.2078 12.3906 61.1949 12.179 61.1949 11.834V9.24609H62.915C63.246 9.24609 63.4797 9.2819 63.6452 9.36328C63.7978 9.4349 63.9179 9.54232 63.9763 9.68229C64.0347 9.78971 64.0931 10.0371 64.1418 10.4147H64.3528V7.68359H64.1418C64.1191 8.13281 64.012 8.44206 63.8108 8.61784C63.6582 8.74805 63.3629 8.81966 62.915 8.81966H61.1949V5.7207H63.3402C63.7296 5.7207 63.999 5.74349 64.1548 5.80208C64.343 5.88346 64.4858 6.00391 64.58 6.1569C64.6871 6.32292 64.7682 6.60612 64.8526 7.01953H65.0765L64.9954 5.29427H58.9717V5.50586H59.254C59.5721 5.50586 59.809 5.57747 59.9388 5.73047C60.0459 5.84766 60.0914 6.1569 60.0914 6.65169V11.7493C60.0914 12.127 60.0686 12.3874 60.02 12.5078C59.9843 12.638 59.9031 12.7194 59.7733 12.791C59.6078 12.8724 59.4325 12.9212 59.254 12.9212H58.9717V13.1328H64.9954L65.6672 11.1699H65.4303C65.1804 11.6615 64.9337 12.0163 64.6968 12.2507ZM71.6975 11.4238L68.8803 5.29753H66.6409V5.50911C66.959 5.50911 67.1959 5.54492 67.3484 5.61654C67.4912 5.69792 67.5951 5.79557 67.6438 5.89974C67.7249 6.05274 67.7606 6.31315 67.7606 6.6582V11.7786C67.7606 12.2148 67.7119 12.5013 67.6308 12.6185C67.488 12.8203 67.2543 12.9245 66.9233 12.9245H66.6409V13.1361H69.3899V12.9245H69.1075C68.8024 12.9245 68.5785 12.8431 68.4227 12.6771C68.3286 12.5599 68.2702 12.2637 68.2702 11.7786V6.53776L71.2885 13.1361H71.4768L74.4821 6.53776V11.7754C74.4821 12.2116 74.4335 12.498 74.3523 12.6152C74.2225 12.8171 73.9856 12.9212 73.6448 12.9212H73.3624V13.1328H76.7118V12.9245H76.4392C76.1211 12.9245 75.8972 12.8431 75.7544 12.6771C75.6473 12.5599 75.5889 12.2637 75.5889 11.7786V6.6582C75.5889 6.22201 75.6376 5.93555 75.7187 5.80534C75.8615 5.60352 76.0952 5.50911 76.4392 5.50911H76.7118V5.29753H74.4951L71.6975 11.4238ZM84.4103 11.1764H84.1734C83.9267 11.6615 83.6768 12.0163 83.4431 12.2539C83.2679 12.4427 83.0666 12.5599 82.8654 12.6217C82.6642 12.6803 82.3461 12.7161 81.9112 12.7161H80.5903C80.3793 12.7161 80.2235 12.6934 80.1554 12.6445C80.0742 12.6087 80.0255 12.5371 79.9898 12.4655C79.9541 12.3939 79.9412 12.1823 79.9412 11.8372V9.24609H81.6613C81.9923 9.24609 82.226 9.2819 82.3916 9.36328C82.5441 9.4349 82.6642 9.54232 82.7226 9.68229C82.781 9.78971 82.8394 10.0371 82.8881 10.4147H83.0991V7.68359H82.8881C82.8654 8.13281 82.7583 8.44206 82.5571 8.61784C82.4045 8.74805 82.1092 8.81966 81.6613 8.81966H79.9412V5.7207H82.0865C82.4759 5.7207 82.7453 5.74349 82.9011 5.80208C83.0893 5.88346 83.2321 6.00391 83.3263 6.1569C83.4334 6.32292 83.5145 6.60612 83.5989 7.01953H83.8228L83.7417 5.29427H77.718V5.50586H78.0003C78.3184 5.50586 78.5553 5.57747 78.6851 5.73047C78.7922 5.84766 78.8377 6.1569 78.8377 6.65169V11.7493C78.8377 12.127 78.815 12.3874 78.7663 12.5078C78.7306 12.638 78.6494 12.7194 78.5196 12.791C78.3541 12.8724 78.1788 12.9212 78.0003 12.9212H77.718V13.1328H83.7417L84.4103 11.1764ZM88.795 12.9245C88.4185 12.9115 88.1589 12.8757 88.0161 12.8171C87.8636 12.7454 87.7694 12.651 87.7337 12.5436C87.6851 12.4264 87.6623 12.2018 87.6623 11.8698L91.2714 7.19857V11.7038C91.2714 12.2116 91.2 12.5436 91.0702 12.6869C90.9403 12.8301 90.6223 12.9115 90.1257 12.9245V13.1361H93.4978V12.9245C93.0142 12.9115 92.7092 12.8301 92.5793 12.6869C92.4495 12.5566 92.3781 12.2246 92.3781 11.7038V6.72331C92.3781 6.20247 92.4495 5.87044 92.5793 5.74023C92.7092 5.59701 93.0142 5.51563 93.4978 5.5026V5.29102H90.129V5.5026C90.5898 5.5026 90.8949 5.5612 91.0474 5.69141C91.2 5.80859 91.2714 6.10482 91.2714 6.57682L87.6623 11.2448V6.72982C87.6623 6.20898 87.7337 5.87695 87.8636 5.74675C88.0064 5.60352 88.3114 5.52214 88.795 5.50911V5.29753H85.4359V5.50911C85.9195 5.52214 86.2246 5.60352 86.3544 5.74675C86.4842 5.87695 86.5556 6.20898 86.5556 6.72982V11.7103C86.5556 12.2311 86.4842 12.5632 86.3544 12.6934C86.2246 12.8366 85.9195 12.918 85.4359 12.931V13.1426H88.795V12.9245ZM87.7922 4.11589C88.1329 4.36328 88.7009 4.48372 89.4669 4.48372C90.2328 4.48372 90.7878 4.36654 91.1416 4.11589C91.4953 3.86849 91.6706 3.57227 91.6706 3.23047C91.6706 3.10026 91.6219 2.97005 91.5408 2.87565C91.4596 2.76823 91.3525 2.72266 91.2357 2.72266C91.0929 2.72266 90.989 2.77148 90.8949 2.86589C90.8138 2.96029 90.6839 3.1849 90.5281 3.51693C90.2912 4.00195 89.9375 4.23958 89.4669 4.23958C88.9963 4.23958 88.6425 4.00195 88.4056 3.51693C88.253 3.1849 88.1232 2.97331 88.0291 2.86589C87.935 2.77148 87.8279 2.72266 87.711 2.72266C87.5812 2.72266 87.4741 2.77148 87.3929 2.87565C87.3118 2.98307 87.2631 3.10026 87.2631 3.23047C87.2631 3.56901 87.4384 3.86523 87.7922 4.11589ZM97.8047 12.9245H97.5223C97.3438 12.9245 97.1686 12.8757 97.003 12.7813C96.8732 12.7096 96.8018 12.6283 96.7564 12.5339C96.7077 12.4167 96.685 12.1432 96.685 11.7526V9.36328H100.304V11.7526C100.304 12.2246 100.255 12.5208 100.161 12.638C100.008 12.8268 99.7845 12.9212 99.4664 12.9212H99.184V13.1328H102.533V12.9245H102.261C102.073 12.9245 101.894 12.8757 101.732 12.7813C101.602 12.7096 101.531 12.6283 101.485 12.5339C101.436 12.4167 101.414 12.1432 101.414 11.7526V6.68099C101.414 6.30339 101.436 6.04297 101.485 5.92253C101.521 5.79232 101.615 5.69792 101.732 5.63932C101.897 5.55794 102.073 5.50911 102.261 5.50911H102.533V5.29753H99.184V5.50911H99.4664C99.6417 5.50911 99.8202 5.55794 99.9857 5.65234C100.116 5.71094 100.187 5.79557 100.232 5.88997C100.281 6.02018 100.304 6.2806 100.304 6.68099V8.9401H96.685V6.68099C96.685 6.30339 96.7077 6.04297 96.7564 5.92253C96.805 5.79232 96.8862 5.69792 97.003 5.63932C97.1686 5.55794 97.3438 5.50911 97.5223 5.50911H97.8047V5.29753H94.4553V5.50911H94.7376C94.9129 5.50911 95.0914 5.55794 95.2667 5.65234C95.3835 5.71094 95.4549 5.79557 95.5036 5.88997C95.5523 6.02018 95.575 6.2806 95.575 6.68099V11.7559C95.575 12.2279 95.5263 12.5241 95.4322 12.6413C95.2894 12.8301 95.0557 12.9245 94.7376 12.9245H94.4553V13.1361H97.8047V12.9245ZM104.955 12.4297C104.955 12.2865 105.026 12.0521 105.156 11.7559L105.675 10.5254H108.706L109.167 11.6354C109.32 12.0033 109.404 12.2734 109.404 12.4395C109.404 12.5697 109.346 12.6771 109.239 12.7715C109.132 12.8529 108.921 12.9147 108.612 12.9245V13.1361H111.689V12.9245C111.371 12.9017 111.124 12.8171 110.946 12.6641C110.758 12.498 110.569 12.166 110.345 11.6354L107.632 5.11849H107.431L104.685 11.5768C104.448 12.1335 104.224 12.5111 104.036 12.6999C103.942 12.7943 103.731 12.8659 103.4 12.9245V13.1361H105.863V12.9245C105.487 12.9017 105.237 12.8431 105.133 12.7487C105.013 12.6543 104.955 12.5469 104.955 12.4297ZM107.217 6.92839L108.525 10.099H105.86L107.217 6.92839ZM126.732 12.9245C126.249 12.9115 125.944 12.8301 125.814 12.6869C125.684 12.5566 125.613 12.2246 125.613 11.7038V9.36328C125.918 9.36328 126.155 9.42188 126.307 9.5293C126.46 9.63672 126.885 10.1803 127.592 11.1504C128.287 12.1204 128.748 12.7813 128.972 13.1361H130.977V12.9245C130.507 12.9115 130.117 12.7487 129.809 12.4264C129.504 12.1074 129.03 11.4694 128.371 10.5091C127.758 9.6237 127.274 9.13867 126.921 9.07682C127.498 8.80339 127.959 8.17839 128.336 7.19531C128.524 6.66471 128.667 6.33268 128.748 6.20247C128.842 6.07227 128.949 6.01367 129.066 6.01367C129.16 6.01367 129.312 6.07227 129.536 6.17969C129.783 6.3099 129.962 6.36849 130.065 6.36849C130.218 6.36849 130.348 6.3099 130.468 6.20247C130.585 6.09505 130.643 5.96484 130.643 5.82487C130.643 5.41146 130.348 5.19661 129.76 5.19661C129.429 5.19661 129.134 5.25521 128.9 5.38542C128.654 5.51563 128.488 5.66862 128.371 5.85742C128.264 6.0332 128.125 6.35547 127.946 6.81445C127.771 7.29948 127.615 7.6543 127.498 7.86589C127.381 8.07747 127.226 8.2793 127.028 8.4681C126.826 8.64388 126.638 8.76432 126.486 8.82292C126.32 8.87175 126.038 8.9043 125.613 8.9043V6.7168C125.613 6.19596 125.684 5.86393 125.814 5.73372C125.944 5.5905 126.249 5.50911 126.732 5.49609V5.28451H123.383V5.49609C123.866 5.50911 124.172 5.5905 124.301 5.73372C124.431 5.86393 124.503 6.19596 124.503 6.7168V11.6973C124.503 12.2181 124.431 12.5501 124.301 12.6901C124.159 12.8203 123.853 12.9017 123.383 12.9147V13.1263H126.732V12.9245ZM115.331 5.47331C114.941 5.60352 114.6 5.82813 114.328 6.14714C114.055 6.47917 113.916 6.85677 113.916 7.31901C113.916 7.79102 114.068 8.21745 114.386 8.57227C114.704 8.92708 115.188 9.17448 115.837 9.31771L114.221 11.5638C113.854 12.0846 113.536 12.4264 113.276 12.5924C113.004 12.7715 112.663 12.8757 112.238 12.9245V13.1361H114.325L116.976 9.4707C117.177 9.48372 117.33 9.48373 117.447 9.48373H117.599C117.658 9.4707 117.716 9.4707 117.775 9.4707V11.7526C117.775 12.2507 117.726 12.5436 117.609 12.6641C117.466 12.8431 117.255 12.9245 116.96 12.9245H116.655V13.1361H120.004V12.9245H119.709C119.378 12.9245 119.144 12.8171 119.001 12.6055C118.92 12.4883 118.885 12.2018 118.885 11.7526V6.68099C118.885 6.18294 118.943 5.87695 119.05 5.75977C119.193 5.59375 119.417 5.51237 119.709 5.51237H120.004V5.30078H117.161C116.334 5.29753 115.72 5.35612 115.331 5.47331ZM117.784 9.10612H117.466C116.736 9.10612 116.168 8.95313 115.805 8.62109C115.428 8.30208 115.24 7.88867 115.24 7.39063C115.24 6.89258 115.392 6.50521 115.688 6.19596C115.993 5.88997 116.395 5.73372 116.892 5.73372C117.116 5.73372 117.411 5.76953 117.788 5.84115V9.10612H117.784ZM132.535 13.2337C133.207 13.2337 133.726 12.9017 134.116 12.2409C134.492 11.5801 134.681 10.1348 134.681 7.92448V5.72396H137.099V11.707C137.099 12.2279 137.027 12.5599 136.897 12.6901C136.768 12.8333 136.462 12.9147 135.979 12.9277V13.1393H139.328V12.9245C138.845 12.9115 138.54 12.8301 138.41 12.6869C138.28 12.5566 138.209 12.2246 138.209 11.7038V6.72331C138.209 6.20247 138.28 5.87044 138.41 5.74023C138.54 5.59701 138.845 5.51563 139.328 5.5026V5.29102H133.045V5.5026C133.528 5.51563 133.847 5.59701 133.976 5.72721C134.106 5.87044 134.178 6.19922 134.178 6.72005V8.35091C134.178 9.91341 134.07 10.9648 133.86 11.5215C133.649 12.0781 133.376 12.3613 133.045 12.3613C132.902 12.3613 132.75 12.3027 132.574 12.1725C132.422 12.0553 132.292 11.9967 132.172 11.9967C132.029 11.9967 131.899 12.0456 131.805 12.1497C131.698 12.2572 131.653 12.3743 131.653 12.5273C131.653 12.7031 131.734 12.8691 131.889 13.0124C132.039 13.1621 132.253 13.2337 132.535 13.2337ZM143.668 12.9245C143.291 12.9115 143.031 12.8757 142.889 12.8171C142.736 12.7454 142.642 12.651 142.606 12.5436C142.558 12.4264 142.535 12.2018 142.535 11.8698L146.144 7.19857V11.7038C146.144 12.2116 146.073 12.5436 145.943 12.6869C145.813 12.8301 145.495 12.9115 144.998 12.9245V13.1361H148.37V12.9245C147.887 12.9115 147.582 12.8301 147.452 12.6869C147.322 12.5566 147.251 12.2246 147.251 11.7038V6.72331C147.251 6.20247 147.322 5.87044 147.452 5.74023C147.582 5.59701 147.887 5.51563 148.37 5.5026V5.29102H144.998V5.5026C145.459 5.5026 145.764 5.5612 145.917 5.69141C146.069 5.80859 146.141 6.10482 146.141 6.57682L142.532 11.235V6.72982C142.532 6.20898 142.603 5.87695 142.733 5.74675C142.876 5.60352 143.181 5.52214 143.664 5.50911V5.29753H140.305V5.50911C140.789 5.52214 141.094 5.60352 141.224 5.74675C141.353 5.87695 141.425 6.20898 141.425 6.72982V11.7103C141.425 12.2311 141.353 12.5632 141.224 12.6934C141.094 12.8366 140.789 12.918 140.305 12.931V13.1426H143.664V12.9245H143.668ZM151.876 12.7845C151.746 12.7129 151.674 12.6315 151.629 12.5371C151.58 12.4199 151.558 12.1465 151.558 11.7559V9.36654H155.176V11.7559C155.176 12.2279 155.128 12.5241 155.033 12.6413C154.881 12.8301 154.657 12.9245 154.339 12.9245H154.057V13.1361H157.406V12.9245H157.133C156.945 12.9245 156.767 12.8757 156.604 12.7813C156.475 12.7096 156.403 12.6283 156.358 12.5339C156.309 12.4167 156.286 12.1432 156.286 11.7526V6.68099C156.286 6.30339 156.309 6.04297 156.358 5.92253C156.393 5.79232 156.487 5.69792 156.604 5.63932C156.77 5.55794 156.945 5.50911 157.133 5.50911H157.406V5.29753H154.057V5.50911H154.339C154.514 5.50911 154.693 5.55794 154.858 5.65234C154.988 5.71094 155.059 5.79557 155.105 5.88997C155.154 6.02018 155.176 6.2806 155.176 6.68099V8.9401H151.558V6.68099C151.558 6.30339 151.58 6.04297 151.629 5.92253C151.678 5.79232 151.759 5.69792 151.876 5.63932C152.041 5.55794 152.216 5.50911 152.395 5.50911H152.677V5.29753H149.328V5.50911H149.61C149.785 5.50911 149.964 5.55794 150.139 5.65234C150.256 5.71094 150.327 5.79557 150.376 5.88997C150.425 6.02018 150.448 6.2806 150.448 6.68099V11.7559C150.448 12.2279 150.399 12.5241 150.305 12.6413C150.162 12.8301 149.928 12.9245 149.61 12.9245H149.328V13.1361H152.677V12.9245H152.395C152.22 12.9245 152.041 12.8789 151.876 12.7845ZM161.758 12.9245C161.382 12.9115 161.122 12.8757 160.979 12.8171C160.827 12.7454 160.733 12.651 160.697 12.5436C160.648 12.4264 160.626 12.2018 160.626 11.8698L164.235 7.19857V11.7038C164.235 12.2116 164.163 12.5436 164.033 12.6869C163.904 12.8301 163.586 12.9115 163.089 12.9245V13.1361H166.461V12.9245C165.977 12.9115 165.672 12.8301 165.543 12.6869C165.413 12.5566 165.341 12.2246 165.341 11.7038V6.72331C165.341 6.20247 165.413 5.87044 165.543 5.74023C165.672 5.59701 165.977 5.51563 166.461 5.5026V5.29102H163.089V5.5026C163.55 5.5026 163.855 5.5612 164.007 5.69141C164.16 5.80859 164.231 6.10482 164.231 6.57682L160.622 11.235V6.72982C160.622 6.20898 160.694 5.87695 160.824 5.74675C160.966 5.60352 161.271 5.52214 161.755 5.50911V5.29753H158.396V5.50911C158.879 5.52214 159.185 5.60352 159.314 5.74675C159.444 5.87695 159.516 6.20898 159.516 6.72982V11.7103C159.516 12.2311 159.444 12.5632 159.314 12.6934C159.185 12.8366 158.879 12.918 158.396 12.931V13.1426H161.755V12.9245H161.758ZM170.794 12.9245C170.31 12.9115 170.005 12.8301 169.875 12.6869C169.746 12.5566 169.674 12.2246 169.674 11.7038V9.36328C169.979 9.36328 170.216 9.42188 170.369 9.5293C170.521 9.63672 170.946 10.1803 171.654 11.1504C172.349 12.1204 172.809 12.7813 173.033 13.1361H175.039V12.9245C174.568 12.9115 174.179 12.7487 173.871 12.4264C173.566 12.1074 173.092 11.4694 172.433 10.5091C171.819 9.6237 171.336 9.13867 170.982 9.07682C171.56 8.80339 172.021 8.17839 172.397 7.19531C172.585 6.66471 172.728 6.33268 172.809 6.20247C172.904 6.07227 173.011 6.01367 173.127 6.01367C173.222 6.01367 173.374 6.07227 173.598 6.17969C173.845 6.3099 174.023 6.36849 174.127 6.36849C174.28 6.36849 174.409 6.3099 174.53 6.20247C174.646 6.09505 174.705 5.96484 174.705 5.82487C174.705 5.41146 174.409 5.19661 173.822 5.19661C173.491 5.19661 173.196 5.25521 172.962 5.38542C172.715 5.51563 172.55 5.66862 172.433 5.85742C172.326 6.0332 172.186 6.35547 172.008 6.81445C171.832 7.29948 171.677 7.6543 171.56 7.86589C171.443 8.07747 171.287 8.2793 171.089 8.4681C170.888 8.64388 170.7 8.76432 170.547 8.82292C170.382 8.87175 170.099 8.9043 169.674 8.9043V6.7168C169.674 6.19596 169.746 5.86393 169.875 5.73372C170.005 5.5905 170.31 5.50911 170.794 5.49609V5.28451H167.444V5.49609C167.928 5.50911 168.233 5.5905 168.363 5.73372C168.493 5.86393 168.564 6.19596 168.564 6.7168V11.6973C168.564 12.2181 168.493 12.5501 168.363 12.6901C168.22 12.8203 167.915 12.9017 167.444 12.9147V13.1263H170.794V12.9245ZM183.257 12.6641C183.069 12.498 182.88 12.166 182.656 11.6354L179.943 5.11849H179.742L176.996 11.5768C176.759 12.1335 176.535 12.5111 176.347 12.6999C176.253 12.7943 176.042 12.8659 175.711 12.9245V13.1361H178.174V12.9245C177.798 12.9017 177.548 12.8431 177.444 12.7487C177.327 12.6543 177.269 12.5469 177.269 12.4297C177.269 12.2865 177.34 12.0521 177.47 11.7559L177.989 10.5254H181.021L181.481 11.6354C181.634 12.0033 181.718 12.2734 181.718 12.4395C181.718 12.5697 181.66 12.6771 181.553 12.7715C181.446 12.8529 181.235 12.9147 180.927 12.9245V13.1361H184.003V12.9245C183.682 12.9017 183.435 12.8203 183.257 12.6641ZM178.174 10.099L179.531 6.92839L180.839 10.099H178.174ZM54.0287 18.888C54.7524 18.9076 55.2263 18.9694 55.4535 19.054C55.6807 19.1354 55.8884 19.3242 56.0507 19.653C56.2162 19.9622 56.2973 20.4603 56.2973 21.1211C56.2973 22.2604 56.174 23.709 55.9046 25.4668C55.6579 27.2246 55.1808 28.696 54.5025 29.9167C53.8437 31.1178 52.9544 31.7591 51.8834 31.8633V36.1667H52.2339C52.3767 35.1934 52.8116 34.3047 53.5126 33.4779C54.2364 32.651 55.3496 32.2376 56.875 32.2376H60.3607C61.1462 32.2376 61.8245 32.3418 62.3827 32.5469C62.9604 32.7552 63.457 33.1458 63.9081 33.7676C64.3625 34.3665 64.6708 35.1738 64.8786 36.1699H65.2356V31.8633C64.3268 31.8633 63.7718 31.6973 63.6063 31.3457C63.4408 30.9941 63.3596 30.0827 63.3596 28.6146V21.0202C63.3596 20.1087 63.483 19.5293 63.7102 19.2819C63.9568 19.054 64.4956 18.9108 65.3394 18.888V18.5169H54.0319V18.888H54.0287ZM57.3326 19.2819H61.4188V29.7116C61.4188 30.5807 61.3377 31.0983 61.1494 31.2448C60.9839 31.4108 60.4257 31.4922 59.5396 31.4922H54.4831C55.2685 30.5612 55.9079 29.2982 56.3817 27.6836C56.8556 26.069 57.1671 23.276 57.3326 19.2819ZM71.3177 22.6966C70.5323 22.6966 69.8118 22.9049 69.1302 23.2956C68.4487 23.6862 67.8937 24.3112 67.4782 25.1576C67.0433 25.9844 66.8389 26.834 66.8389 27.6836C66.8389 28.8425 67.1894 29.8971 67.871 30.8281C68.6953 31.9447 69.8118 32.5046 71.1944 32.5046C72.061 32.5046 72.8237 32.2962 73.5247 31.8633C74.2257 31.4271 74.7613 30.7858 75.154 29.9395C75.5467 29.0898 75.7512 28.2435 75.7512 27.4134C75.7512 26.235 75.4006 25.1999 74.6769 24.2884C73.8363 23.2337 72.7003 22.6966 71.3177 22.6966ZM73.2391 30.9746C72.8269 31.5117 72.2914 31.7819 71.6293 31.7819C70.7627 31.7819 70.0617 31.2839 69.5229 30.3138C68.9874 29.3405 68.718 28.1816 68.718 26.8372C68.718 26.0104 68.8219 25.3268 69.0491 24.7897C69.2763 24.2526 69.5651 23.901 69.9157 23.6732C70.2856 23.4648 70.6394 23.3639 70.9899 23.3639C71.7332 23.3639 72.3531 23.696 72.8269 24.3372C73.528 25.2682 73.8785 26.5736 73.8785 28.2077C73.8785 29.5065 73.6708 30.4375 73.2391 30.9746ZM84.2091 29.6921C83.5502 28.5137 83.0958 27.7878 82.8459 27.5404C82.5993 27.293 82.3721 27.127 82.1644 27.0651C82.4727 26.7754 82.6804 26.5475 82.7843 26.362C82.8881 26.196 83.0536 25.8021 83.2808 25.1836C83.4886 24.6465 83.7547 24.3763 84.0663 24.3763C84.2123 24.3763 84.4168 24.4382 84.7056 24.5423C84.9328 24.6237 85.0983 24.666 85.2639 24.666C85.5332 24.666 85.7377 24.5846 85.9032 24.4186C86.0493 24.2526 86.1304 24.0475 86.1304 23.8197C86.1304 23.5299 86.0266 23.3021 85.7994 23.1361C85.5917 22.9505 85.3028 22.8659 84.9328 22.8659C84.6018 22.8659 84.2934 22.9473 83.9851 23.0938C83.6768 23.2598 83.4496 23.4648 83.2614 23.7155C83.0958 23.9629 82.8687 24.4414 82.622 25.1641C82.3331 25.9095 82.0248 26.4043 81.6516 26.6322C81.301 26.86 80.9083 26.9837 80.4962 26.9837C80.454 26.9837 80.3533 26.9837 80.1878 26.9642V25.1413C80.1878 24.334 80.2495 23.8783 80.3533 23.7546C80.4572 23.6504 80.5805 23.5462 80.7039 23.4648C80.8272 23.3835 81.1777 23.3411 81.736 23.3411V22.9701H77.1143V23.3411C77.5881 23.3411 77.9192 23.3835 78.062 23.5072C78.2275 23.6113 78.3314 23.7155 78.4125 23.8587C78.4742 23.9824 78.5164 24.4186 78.5164 25.1413V30.0664C78.5164 30.8314 78.4352 31.3066 78.2697 31.5345C78.1042 31.7624 77.7115 31.8665 77.1143 31.8665V32.2376H81.736V31.8665C81.2621 31.8665 80.9311 31.8242 80.7233 31.7428C80.5156 31.6615 80.3728 31.5345 80.3112 31.349C80.23 31.1634 80.1878 30.7272 80.1878 30.0664V27.5827C80.3728 27.5632 80.4962 27.5632 80.5805 27.5632C80.8077 27.5632 80.9732 27.625 81.116 27.7715C81.2394 27.918 81.3854 28.1426 81.551 28.4551C82.2325 29.7376 82.9952 31.0007 83.8423 32.2409H86.5653V31.8893C86.0688 31.8698 85.6793 31.7428 85.4099 31.4759C85.1373 31.222 84.7446 30.6231 84.2091 29.6921ZM87.354 22.9635L86.9613 25.4668H87.4157C87.5617 24.9069 87.7045 24.4935 87.9122 24.2266C88.0972 23.9792 88.3049 23.7936 88.5094 23.7285C88.7171 23.6667 89.1066 23.6244 89.6843 23.6244H90.5087V30.0599C90.5087 30.8477 90.4275 31.3425 90.2393 31.5508C90.0543 31.7363 89.6194 31.8405 88.98 31.86V32.2311H93.9944V31.86C93.3355 31.8405 92.9007 31.7982 92.7157 31.7363C92.5307 31.6745 92.3846 31.5508 92.3035 31.3652C92.2223 31.1797 92.1801 30.7435 92.1801 30.0599V23.6276H92.985C93.5822 23.6276 93.9976 23.6699 94.2216 23.7513C94.4683 23.8327 94.676 24.0215 94.8804 24.3112C95.0654 24.5814 95.1888 24.972 95.2731 25.4701H95.7275L95.3348 22.9668H87.354V22.9635ZM101.209 22.6966C100.424 22.6966 99.7033 22.9049 99.0218 23.2956C98.3402 23.6895 97.7852 24.3112 97.3698 25.1576C96.9349 25.9844 96.7304 26.834 96.7304 27.6836C96.7304 28.8425 97.0809 29.8971 97.7625 30.8281C98.5869 31.9447 99.7033 32.5046 101.086 32.5046C101.952 32.5046 102.715 32.2962 103.416 31.8633C104.117 31.4271 104.653 30.7858 105.046 29.9395C105.438 29.0931 105.643 28.2435 105.643 27.4134C105.643 26.235 105.292 25.1999 104.568 24.2884C103.728 23.2337 102.592 22.6966 101.209 22.6966ZM103.131 30.9746C102.718 31.5117 102.183 31.7819 101.521 31.7819C100.654 31.7819 99.9532 31.2839 99.4145 30.3138C98.879 29.3405 98.6096 28.1816 98.6096 26.8372C98.6096 26.0104 98.7134 25.3268 98.9406 24.7897C99.1678 24.2526 99.4567 23.901 99.8072 23.6732C100.177 23.4648 100.531 23.3639 100.881 23.3639C101.625 23.3639 102.245 23.696 102.718 24.3372C103.419 25.2682 103.77 26.5736 103.77 28.2077C103.77 29.5065 103.562 30.4375 103.131 30.9746ZM134.551 29.6074L129.806 18.2044H129.455L124.649 29.5033C124.236 30.4766 123.844 31.1374 123.513 31.4694C123.347 31.6354 122.977 31.7591 122.399 31.8633V32.2344H126.713V31.8633C126.054 31.821 125.619 31.7168 125.434 31.554C125.226 31.388 125.126 31.2025 125.126 30.9941C125.126 30.7467 125.249 30.3333 125.476 29.8158L126.385 27.6641H131.688L132.493 29.6107C132.763 30.252 132.905 30.7272 132.905 31.0169C132.905 31.2448 132.801 31.4303 132.616 31.5964C132.431 31.7396 132.058 31.8438 131.523 31.8665V32.2376H136.907V31.8665C136.349 31.8242 135.917 31.681 135.606 31.4108C135.271 31.1178 134.94 30.5384 134.551 29.6074ZM126.71 26.9186L129.082 21.3717L131.373 26.9186H126.71ZM112.903 22.6966C112.387 22.6966 111.871 22.8626 111.397 23.1719C110.9 23.5039 110.427 24.0833 109.953 24.8906V22.7389H109.583L106.736 23.8783L106.86 24.2103C107.106 24.1061 107.314 24.0638 107.48 24.0638C107.665 24.0638 107.83 24.1061 107.954 24.1875C108.057 24.2689 108.161 24.3958 108.2 24.5391C108.262 24.7051 108.281 25.0762 108.281 25.6784V34.474C108.281 35.1348 108.239 35.571 108.177 35.737C108.116 35.903 108.012 36.0072 107.869 36.0885C107.622 36.235 107.291 36.2969 106.921 36.2969H106.675V36.668H111.524V36.2969C111.027 36.2969 110.677 36.2546 110.472 36.1504C110.287 36.0462 110.141 35.903 110.079 35.737C109.998 35.5514 109.956 35.1576 109.956 34.5163V31.7005C110.287 31.9902 110.595 32.1986 110.865 32.2995C111.235 32.4427 111.67 32.5078 112.166 32.5078C113.302 32.5078 114.25 32.0749 115.013 31.2253C115.921 30.1706 116.376 28.8652 116.376 27.2734C116.376 25.8444 116.006 24.6855 115.24 23.7969C114.617 23.0482 113.831 22.6966 112.903 22.6966ZM113.75 31.1178C113.338 31.6354 112.802 31.9056 112.121 31.9056C111.563 31.9056 111.108 31.7624 110.738 31.4499C110.368 31.1602 110.141 30.8086 110.037 30.4147C109.995 30.1869 109.956 29.6888 109.956 28.9466V25.4896C110.514 24.8678 110.926 24.5163 111.154 24.3926C111.485 24.2266 111.793 24.1452 112.124 24.1452C112.702 24.1452 113.218 24.4154 113.649 24.9329C114.269 25.6979 114.578 26.7949 114.578 28.2044C114.574 29.4642 114.308 30.4147 113.75 31.1178ZM146.186 18.888H146.683C146.991 18.888 147.303 18.9694 147.591 19.1354C147.819 19.2396 147.942 19.3828 148.026 19.5488C148.107 19.7767 148.15 20.2324 148.15 20.9355V24.8874H141.814V20.9355C141.814 20.2747 141.857 19.819 141.938 19.6107C142.019 19.3828 142.165 19.2168 142.373 19.1126C142.661 18.9661 142.97 18.8848 143.281 18.8848H143.778V18.5137H137.916V18.8848H138.413C138.721 18.8848 139.033 18.9661 139.341 19.1322C139.549 19.2363 139.672 19.3796 139.753 19.5456C139.835 19.7734 139.877 20.2292 139.877 20.9323V29.8125C139.877 30.6393 139.796 31.1569 139.63 31.3652C139.383 31.6973 138.971 31.8633 138.413 31.8633H137.916V32.2344H143.778V31.8633H143.281C142.973 31.8633 142.661 31.7819 142.373 31.6159C142.145 31.4922 142.022 31.3457 141.938 31.1797C141.857 30.9714 141.814 30.4961 141.814 29.8125V25.6361H148.15V29.8158C148.15 30.6426 148.069 31.1602 147.903 31.3685C147.634 31.7005 147.244 31.8665 146.686 31.8665H146.189V32.2376H152.051V31.8665H151.577C151.246 31.8665 150.938 31.7852 150.649 31.6191C150.422 31.4954 150.298 31.349 150.214 31.1829C150.133 30.9746 150.091 30.4994 150.091 29.8158V20.9355C150.091 20.2747 150.133 19.819 150.214 19.6107C150.276 19.3828 150.441 19.2168 150.649 19.1126C150.938 18.9661 151.246 18.8848 151.577 18.8848H152.051V18.5137H146.189V18.888H146.186ZM161.515 18.888H162.011C162.32 18.888 162.631 18.9694 162.92 19.1354C163.147 19.2396 163.271 19.3828 163.355 19.5488C163.436 19.7767 163.478 20.2324 163.478 20.9355V24.8874H157.143V20.9355C157.143 20.2747 157.185 19.819 157.266 19.6107C157.348 19.3828 157.494 19.2168 157.701 19.1126C157.99 18.9661 158.299 18.8848 158.61 18.8848H159.107V18.5137H153.245V18.8848H153.742C154.05 18.8848 154.362 18.9661 154.67 19.1322C154.878 19.2363 155.001 19.3796 155.082 19.5456C155.163 19.7734 155.205 20.2292 155.205 20.9323V29.8125C155.205 30.6393 155.124 31.1569 154.959 31.3652C154.712 31.6973 154.3 31.8633 153.742 31.8633H153.245V32.2344H159.107V31.8633H158.61C158.302 31.8633 157.99 31.7819 157.701 31.6159C157.474 31.4922 157.351 31.3457 157.266 31.1797C157.185 30.9714 157.143 30.4961 157.143 29.8125V25.6361H163.478V29.8158C163.478 30.6426 163.397 31.1602 163.232 31.3685C162.962 31.7005 162.573 31.8665 162.015 31.8665H161.518V32.2376H167.38V31.8665H166.906C166.575 31.8665 166.266 31.7852 165.977 31.6191C165.75 31.4954 165.627 31.349 165.543 31.1829C165.461 30.9746 165.419 30.4994 165.419 29.8158V20.9355C165.419 20.2747 165.461 19.819 165.543 19.6107C165.604 19.3828 165.77 19.2168 165.977 19.1126C166.266 18.9661 166.575 18.8848 166.906 18.8848H167.38V18.5137H161.518V18.888H161.515ZM180.537 29.6074L175.792 18.2044H175.442L170.635 29.5033C170.223 30.4766 169.83 31.1374 169.499 31.4694C169.333 31.6354 168.963 31.7591 168.386 31.8633V32.2344H172.699V31.8633C172.04 31.821 171.605 31.7168 171.42 31.554C171.213 31.388 171.112 31.2025 171.112 30.9941C171.112 30.7467 171.235 30.3333 171.462 29.8158L172.371 27.6641H177.674L178.479 29.6107C178.749 30.252 178.892 30.7272 178.892 31.0169C178.892 31.2448 178.788 31.4303 178.603 31.5964C178.418 31.7396 178.044 31.8438 177.509 31.8665V32.2376H182.893V31.8665C182.335 31.8242 181.903 31.681 181.592 31.4108C181.258 31.1178 180.926 30.5384 180.537 29.6074ZM172.696 26.9186L175.068 21.3717L177.36 26.9186H172.696Z" fill="#3F4A52"/>
</g>
<rect x="16" y="7" width="8" height="26" fill="white"/>
<rect x="33" y="16" width="8" height="26" transform="rotate(90 33 16)" fill="white"/>
<defs>
<clipPath id="clip0">
<rect width="184" height="40" fill="#FF9690"/>
</clipPath>
</defs>
</svg>
