<svg width="154" height="54" viewBox="0 0 154 54" fill="none" xmlns="http://www.w3.org/2000/svg">
<circle cx="27" cy="27" r="27" fill="white"/>
<path d="M48.0502 27.8364C45.8267 23.0243 41.7352 16.9178 41.102 16.487C39.5864 15.0046 37.5846 14.1223 35.468 14.0035H35.3171C32.8593 13.9336 30.4854 14.9005 28.7758 16.6677L25.7107 19.5542L22.713 22.5161C21.087 24.2972 18.334 24.4474 16.5238 22.8538C14.7137 21.2602 14.5138 18.5102 16.0745 16.6717C15.7353 16.9918 15.4126 17.3291 15.1077 17.6821L7.5203 25.2636C5.84437 26.8933 4.93117 29.1528 5.00405 31.4893C5.07694 33.8258 6.1292 36.024 7.90345 37.546C7.96423 37.5968 8.03088 37.6401 8.10197 37.6751C6.80832 36.7307 6.16428 35.1329 6.4414 33.5554C6.71853 31.9779 7.8686 30.6953 9.40665 30.2484C10.9447 29.8015 12.603 30.2681 13.6824 31.4515L16.4994 34.2983C16.7237 34.5186 19.2111 36.8234 19.4454 37.0279C20.8118 38.2282 22.4225 39.1175 24.1662 39.6345C25.8769 40.1612 27.7064 40.1612 29.4171 39.6345C31.6861 38.9079 33.4153 37.554 35.1741 36.0095C35.8359 35.4311 36.4857 34.8448 37.1236 34.2506L39.891 31.4554C41.0596 30.1726 42.8964 29.7399 44.5147 30.3663C46.133 30.9926 47.2 32.5491 47.2005 34.2844C47.2013 34.524 47.18 34.7633 47.137 34.999C46.9343 36.1029 46.3016 37.0811 45.3781 37.7188C45.4842 37.6793 45.5828 37.6223 45.6699 37.55C48.5028 35.1102 49.541 31.0604 48.0502 27.8364Z" fill="url(#paint0_linear)"/>
<path d="M22.5403 16.3839C21.2524 15.117 19.3238 14.7598 17.6675 15.4814C16.0113 16.203 14.9597 17.8586 15.0106 19.6645C15.0614 21.4705 16.2045 23.0643 17.8988 23.6915C19.593 24.3188 21.4984 23.8536 22.713 22.5162L25.7107 19.5543L22.5403 16.3839Z" fill="url(#paint1_linear)"/>
<path d="M43.0018 30.0835C41.8187 30.0823 40.6902 30.5813 39.8949 31.4573L37.1275 34.2524L37.0759 34.304L38.3107 35.5388C38.867 36.1431 39.4534 36.7188 40.0676 37.264C40.1828 37.3593 40.3019 37.4486 40.423 37.534C40.6215 37.667 40.8061 37.79 41.0046 37.9072C41.2416 38.0528 41.4907 38.1776 41.7491 38.2804C42.0996 38.4039 42.4675 38.4709 42.839 38.4789C43.7473 38.5081 44.6403 38.2397 45.382 37.7146C46.3056 37.0769 46.9382 36.0987 47.1409 34.9949C47.184 34.7591 47.2052 34.5199 47.2044 34.2802C47.2011 31.9615 45.3205 30.0835 43.0018 30.0835Z" fill="#4C45D0"/>
<path d="M13.6903 31.4576C12.5362 30.1895 10.7273 29.7496 9.11978 30.3463C7.51222 30.9429 6.42833 32.4563 6.38101 34.1704C6.33369 35.8844 7.33243 37.4553 8.90462 38.1397C10.4768 38.8241 12.3071 38.4848 13.5295 37.2822L16.5073 34.3044L13.6903 31.4576Z" fill="url(#paint2_linear)"/>
<path d="M28.0552 29.6528V27.3917C28.0656 27.1093 27.9635 26.8345 27.7713 26.6274C27.5821 26.4315 27.2691 26.3336 26.8323 26.3336C26.6062 26.3319 26.3814 26.3681 26.1673 26.4408C25.9976 26.4944 25.8339 26.5656 25.6789 26.6532V29.6607H23.4158C23.1342 29.6513 22.8603 29.7533 22.6535 29.9446C22.4536 30.1326 22.3531 30.4462 22.3517 30.8856C22.3502 31.1117 22.3864 31.3365 22.4589 31.5507C22.5134 31.7201 22.5845 31.8837 22.6713 32.039H24.4283C24.7618 31.9834 25.395 31.7948 25.5578 31.1457C25.6258 30.8074 25.6663 30.4641 25.6789 30.1193V34.2883C25.6674 34.5755 25.7693 34.8558 25.9628 35.0684C26.1514 35.267 26.4651 35.3702 26.9018 35.3702C27.1299 35.3715 27.3562 35.3298 27.5688 35.2471C27.7674 35.1637 27.9381 35.0923 28.0552 35.0327V29.6727V29.6528Z" fill="white"/>
<path d="M31.2494 30.1412C31.168 29.9427 31.0965 29.77 31.037 29.6528H30.3064C29.6975 29.7332 29.1707 30.1166 28.9068 30.6712C28.682 31.0951 28.5341 31.5555 28.4701 32.0311H30.2945C30.5818 32.0427 30.862 31.9407 31.0747 31.7472C31.2758 31.5566 31.3764 31.243 31.3764 30.8062C31.3775 30.5784 31.3343 30.3526 31.2494 30.1412Z" fill="white"/>
<g opacity="0.25">
<path d="M26.348 26.6454C26.5033 26.5585 26.6669 26.4874 26.8363 26.4329C26.9443 26.3965 27.0553 26.3693 27.1679 26.3515C27.0568 26.3344 26.9447 26.3257 26.8324 26.3257C26.6062 26.3241 26.3814 26.3603 26.1673 26.4329C25.9976 26.4866 25.8339 26.5578 25.679 26.6454V29.6529C25.8567 29.6529 26.0272 29.5822 26.1527 29.4563C26.2782 29.3304 26.3485 29.1597 26.348 28.9819V26.6454Z" fill="url(#paint3_linear)"/>
<path d="M23.0227 30.8778C23.0227 30.4397 23.1227 30.1261 23.3225 29.9368C23.5303 29.7458 23.8047 29.6439 24.0868 29.6529H23.4158C23.1342 29.6435 22.8603 29.7455 22.6535 29.9368C22.4536 30.1248 22.3531 30.4384 22.3517 30.8778C22.3502 31.1039 22.3864 31.3287 22.4589 31.5429C22.5134 31.7123 22.5845 31.8759 22.6713 32.0312H23.3404C23.2544 31.8755 23.1833 31.7119 23.1279 31.5429C23.0561 31.3286 23.0206 31.1038 23.0227 30.8778Z" fill="url(#paint4_linear)"/>
<path d="M26.6318 35.0545C26.4383 34.8418 26.3363 34.5616 26.3479 34.2743V32.9244C26.3479 32.9244 26.3638 32.2534 26.3479 32.031C26.2268 30.3456 25.6789 30.1113 25.6789 30.1113V34.2802C25.6673 34.5675 25.7693 34.8478 25.9628 35.0604C26.1513 35.259 26.465 35.3622 26.9018 35.3622C27.0102 35.3621 27.1185 35.3528 27.2253 35.3344C27.0019 35.3094 26.7931 35.211 26.6318 35.0545Z" fill="url(#paint5_linear)"/>
</g>
<path opacity="0.25" d="M30.9853 29.6528H30.3143C29.7054 29.7332 29.1786 30.1166 28.9148 30.6712C28.6871 31.0946 28.5366 31.555 28.4701 32.0311H29.1391C29.2054 31.5555 29.3546 31.0953 29.5798 30.6712C29.8448 30.1149 30.3742 29.7313 30.9853 29.6528V29.6528Z" fill="url(#paint6_linear)"/>
<path d="M70.4643 30.4C70.3214 30.5143 70.1357 30.6071 69.9071 30.6786C69.6786 30.75 69.4143 30.7857 69.1143 30.7857C68.7429 30.7857 68.4286 30.7429 68.1714 30.6571C67.9286 30.5571 67.7571 30.3857 67.6571 30.1429C67.0714 28.6857 66.5786 27.4429 66.1786 26.4143C65.7786 25.3857 65.4571 24.5071 65.2143 23.7786H65.1071C65.0643 24.7357 65.0214 25.6143 64.9786 26.4143C64.95 27.2143 64.9214 28 64.8929 28.7714C64.8643 29.5286 64.8286 30.3 64.7857 31.0857C64.7571 31.8714 64.7143 32.7214 64.6571 33.6357C64.5143 33.6786 64.3357 33.7214 64.1214 33.7643C63.9071 33.8071 63.6786 33.8286 63.4357 33.8286C62.4786 33.8286 62 33.4714 62 32.7571C62 32.5286 62.0071 32.1786 62.0214 31.7071C62.05 31.2214 62.0786 30.6643 62.1071 30.0357C62.15 29.3929 62.1929 28.6929 62.2357 27.9357C62.2929 27.1786 62.3429 26.4143 62.3857 25.6429C62.4429 24.8714 62.5 24.1143 62.5571 23.3714C62.6143 22.6143 62.6643 21.9143 62.7071 21.2714C62.8214 21.1286 63.0286 20.9857 63.3286 20.8429C63.6429 20.6857 64.0429 20.6071 64.5286 20.6071C65.0714 20.6071 65.5071 20.7 65.8357 20.8857C66.1786 21.0571 66.4357 21.35 66.6071 21.7643C66.7929 22.2071 66.9857 22.6929 67.1857 23.2214C67.4 23.75 67.6143 24.2929 67.8286 24.85C68.0429 25.4071 68.25 25.9571 68.45 26.5C68.6643 27.0286 68.8643 27.5286 69.05 28H69.1357C69.6214 26.6571 70.1 25.3571 70.5714 24.1C71.0571 22.8429 71.4786 21.7786 71.8357 20.9071C72.0071 20.8214 72.2286 20.75 72.5 20.6929C72.7714 20.6357 73.05 20.6071 73.3357 20.6071C73.8643 20.6071 74.2857 20.6857 74.6 20.8429C74.9143 21 75.1071 21.2357 75.1786 21.55C75.2357 21.8214 75.3 22.2571 75.3714 22.8571C75.4429 23.4429 75.5143 24.1143 75.5857 24.8714C75.6571 25.6286 75.7286 26.4357 75.8 27.2929C75.8714 28.15 75.9357 28.9786 75.9929 29.7786C76.05 30.5643 76.1 31.2857 76.1429 31.9429C76.1857 32.6 76.2143 33.1143 76.2286 33.4857C76.0429 33.6 75.8429 33.6857 75.6286 33.7429C75.4286 33.8 75.1786 33.8286 74.8786 33.8286C74.5071 33.8286 74.1786 33.7571 73.8929 33.6143C73.6214 33.4571 73.4714 33.1714 73.4429 32.7571C73.3857 31.8571 73.3357 30.9786 73.2929 30.1214C73.25 29.25 73.2143 28.4286 73.1857 27.6571C73.1571 26.8857 73.1286 26.1786 73.1 25.5357C73.0714 24.8786 73.05 24.3143 73.0357 23.8429H72.9286C72.7 24.5143 72.3857 25.3714 71.9857 26.4143C71.5857 27.4429 71.0786 28.7714 70.4643 30.4Z" fill="#6157FF"/>
<path d="M80.9891 29.8214C81.1891 30.55 81.5605 31.0786 82.1033 31.4071C82.6462 31.7357 83.3176 31.9 84.1176 31.9C84.7176 31.9 85.2676 31.8143 85.7676 31.6429C86.2819 31.4571 86.6962 31.2643 87.0105 31.0643C87.2105 31.1786 87.3748 31.3357 87.5033 31.5357C87.6319 31.7357 87.6962 31.95 87.6962 32.1786C87.6962 32.4643 87.5962 32.7214 87.3962 32.95C87.2105 33.1643 86.9462 33.35 86.6033 33.5071C86.2748 33.6643 85.8819 33.7857 85.4248 33.8714C84.9676 33.9571 84.4748 34 83.9462 34C83.1033 34 82.3319 33.8857 81.6319 33.6571C80.9462 33.4286 80.3533 33.0857 79.8533 32.6286C79.3676 32.1571 78.9819 31.5786 78.6962 30.8929C78.4248 30.2071 78.2891 29.4071 78.2891 28.4929C78.2891 27.6071 78.4248 26.8357 78.6962 26.1786C78.9676 25.5214 79.3319 24.9714 79.7891 24.5286C80.2605 24.0857 80.8033 23.7571 81.4176 23.5429C82.0319 23.3286 82.6819 23.2214 83.3676 23.2214C84.0676 23.2214 84.7105 23.3357 85.2962 23.5643C85.8819 23.7786 86.3819 24.0857 86.7962 24.4857C87.2105 24.8714 87.5319 25.3429 87.7605 25.9C88.0033 26.4429 88.1248 27.0357 88.1248 27.6786C88.1248 28.0786 88.0176 28.3786 87.8033 28.5786C87.6033 28.7786 87.3176 28.9071 86.9462 28.9643L80.9891 29.8214ZM83.3676 25.2571C82.6676 25.2571 82.0819 25.4929 81.6105 25.9643C81.1391 26.4214 80.8748 27.0786 80.8176 27.9357L85.5748 27.2286C85.5176 26.7 85.3105 26.2429 84.9533 25.8571C84.5962 25.4571 84.0676 25.2571 83.3676 25.2571Z" fill="#6157FF"/>
<path d="M99.6358 31.7071C99.6358 32.0357 99.5643 32.3 99.4215 32.5C99.2786 32.7 99.0643 32.8929 98.7786 33.0786C98.4215 33.3071 97.9501 33.5143 97.3643 33.7C96.7786 33.9 96.1001 34 95.3286 34C93.6143 34 92.2501 33.5643 91.2358 32.6929C90.2358 31.8071 89.7358 30.4571 89.7358 28.6429C89.7358 27.7 89.8715 26.8929 90.1429 26.2214C90.4143 25.5357 90.7786 24.9714 91.2358 24.5286C91.7072 24.0857 92.2572 23.7571 92.8858 23.5429C93.5143 23.3286 94.1929 23.2214 94.9215 23.2214C95.3072 23.2214 95.6715 23.2643 96.0143 23.35C96.3572 23.4214 96.6643 23.5143 96.9358 23.6286V19.75C97.0501 19.7071 97.2143 19.6714 97.4286 19.6429C97.6572 19.6 97.9001 19.5786 98.1572 19.5786C98.6715 19.5786 99.0429 19.6714 99.2715 19.8571C99.5143 20.0429 99.6358 20.3714 99.6358 20.8429V31.7071ZM96.9358 25.8143C96.7215 25.6857 96.4715 25.5786 96.1858 25.4929C95.9001 25.4071 95.5929 25.3643 95.2643 25.3643C94.4643 25.3643 93.8001 25.6214 93.2715 26.1357C92.7429 26.65 92.4786 27.4929 92.4786 28.6643C92.4786 29.7643 92.7286 30.5714 93.2286 31.0857C93.7429 31.5857 94.4358 31.8357 95.3072 31.8357C95.6786 31.8357 95.9929 31.7929 96.2501 31.7071C96.5215 31.6214 96.7501 31.5214 96.9358 31.4071V25.8143Z" fill="#6157FF"/>
<path d="M102.494 23.6071C102.608 23.5786 102.773 23.5429 102.987 23.5C103.215 23.4571 103.458 23.4357 103.715 23.4357C104.23 23.4357 104.601 23.5286 104.83 23.7143C105.073 23.9 105.194 24.2286 105.194 24.7V33.6571C105.08 33.6857 104.908 33.7214 104.68 33.7643C104.465 33.8071 104.23 33.8286 103.973 33.8286C103.458 33.8286 103.08 33.7357 102.837 33.55C102.608 33.3643 102.494 33.0357 102.494 32.5643V23.6071ZM102.28 20.5C102.28 20.0857 102.423 19.7357 102.708 19.45C103.008 19.15 103.387 19 103.844 19C104.301 19 104.673 19.15 104.958 19.45C105.244 19.7357 105.387 20.0857 105.387 20.5C105.387 20.9286 105.244 21.2929 104.958 21.5929C104.673 21.8786 104.301 22.0214 103.844 22.0214C103.387 22.0214 103.008 21.8786 102.708 21.5929C102.423 21.2929 102.28 20.9286 102.28 20.5Z" fill="#6157FF"/>
<path d="M112.002 31.9429C112.417 31.9429 112.795 31.9071 113.138 31.8357C113.481 31.75 113.731 31.65 113.888 31.5357V29.1571L111.809 29.35C111.238 29.4071 110.802 29.5357 110.502 29.7357C110.202 29.9214 110.052 30.2214 110.052 30.6357C110.052 31.05 110.202 31.3714 110.502 31.6C110.817 31.8286 111.317 31.9429 112.002 31.9429ZM111.917 23.2214C113.317 23.2214 114.431 23.5214 115.259 24.1214C116.102 24.7214 116.524 25.65 116.524 26.9071V31.8571C116.524 32.2 116.438 32.4714 116.267 32.6714C116.095 32.8714 115.881 33.05 115.624 33.2071C115.224 33.45 114.717 33.6429 114.102 33.7857C113.488 33.9286 112.788 34 112.002 34C110.574 34 109.445 33.7286 108.617 33.1857C107.802 32.6286 107.395 31.8 107.395 30.7C107.395 29.7429 107.695 29.0143 108.295 28.5143C108.909 28 109.795 27.6857 110.952 27.5714L113.888 27.2714V26.8857C113.888 26.3429 113.688 25.9429 113.288 25.6857C112.902 25.4286 112.352 25.3 111.638 25.3C111.081 25.3 110.538 25.3714 110.009 25.5143C109.481 25.6429 109.009 25.8071 108.595 26.0071C108.438 25.8929 108.302 25.7429 108.188 25.5571C108.088 25.3571 108.038 25.1429 108.038 24.9143C108.038 24.6286 108.102 24.4 108.231 24.2286C108.374 24.0429 108.595 23.8786 108.895 23.7357C109.309 23.5643 109.781 23.4357 110.309 23.35C110.838 23.2643 111.374 23.2214 111.917 23.2214Z" fill="#6157FF"/>
<path d="M128.169 27.1214C128.169 26.35 128.062 25.6857 127.848 25.1286C127.634 24.5571 127.334 24.0929 126.948 23.7357C126.576 23.3643 126.126 23.0929 125.598 22.9214C125.084 22.7357 124.519 22.6429 123.905 22.6429C123.576 22.6429 123.276 22.6571 123.005 22.6857C122.748 22.7 122.498 22.7214 122.255 22.75V31.5571C122.498 31.6143 122.769 31.6571 123.069 31.6857C123.384 31.7 123.691 31.7071 123.991 31.7071C125.319 31.7071 126.348 31.3214 127.076 30.55C127.805 29.7786 128.169 28.6357 128.169 27.1214ZM131.019 27.1C131.019 28.2571 130.848 29.2714 130.505 30.1429C130.176 31 129.705 31.7143 129.091 32.2857C128.476 32.8429 127.734 33.2643 126.862 33.55C126.005 33.8357 125.048 33.9786 123.991 33.9786C123.748 33.9786 123.484 33.9714 123.198 33.9571C122.912 33.9571 122.612 33.9357 122.298 33.8929C121.998 33.8643 121.691 33.8214 121.376 33.7643C121.076 33.7071 120.791 33.6286 120.519 33.5286C119.834 33.2714 119.491 32.8429 119.491 32.2429V21.7429C119.491 21.4857 119.562 21.2857 119.705 21.1429C119.848 21 120.048 20.8857 120.305 20.8C120.834 20.6143 121.405 20.5 122.019 20.4571C122.648 20.4 123.241 20.3714 123.798 20.3714C124.869 20.3714 125.848 20.5143 126.734 20.8C127.634 21.0714 128.398 21.4857 129.026 22.0429C129.655 22.6 130.141 23.3 130.484 24.1429C130.841 24.9857 131.019 25.9714 131.019 27.1Z" fill="#6157FF"/>
<path d="M143.344 28.6C143.344 29.4286 143.215 30.1786 142.958 30.85C142.715 31.5071 142.365 32.0714 141.908 32.5429C141.451 33.0143 140.901 33.3786 140.258 33.6357C139.615 33.8786 138.894 34 138.094 34C137.294 34 136.573 33.8786 135.93 33.6357C135.287 33.3786 134.737 33.0214 134.28 32.5643C133.823 32.0929 133.465 31.5286 133.208 30.8714C132.965 30.2 132.844 29.4429 132.844 28.6C132.844 27.7714 132.965 27.0286 133.208 26.3714C133.465 25.7 133.823 25.1357 134.28 24.6786C134.751 24.2071 135.308 23.85 135.951 23.6071C136.594 23.35 137.308 23.2214 138.094 23.2214C138.88 23.2214 139.594 23.35 140.237 23.6071C140.88 23.85 141.43 24.2071 141.887 24.6786C142.358 25.15 142.715 25.7214 142.958 26.3929C143.215 27.05 143.344 27.7857 143.344 28.6ZM138.094 25.3643C137.323 25.3643 136.715 25.65 136.273 26.2214C135.83 26.7786 135.608 27.5714 135.608 28.6C135.608 29.6429 135.823 30.4429 136.251 31C136.694 31.5571 137.308 31.8357 138.094 31.8357C138.88 31.8357 139.487 31.5571 139.915 31C140.358 30.4286 140.58 29.6286 140.58 28.6C140.58 27.5714 140.358 26.7786 139.915 26.2214C139.473 25.65 138.865 25.3643 138.094 25.3643Z" fill="#6157FF"/>
<path d="M150.808 25.3857C150.379 25.3857 149.979 25.4571 149.608 25.6C149.251 25.7429 148.936 25.95 148.665 26.2214C148.408 26.4929 148.201 26.8286 148.044 27.2286C147.886 27.6286 147.808 28.0929 147.808 28.6214C147.808 29.6786 148.086 30.4786 148.644 31.0214C149.201 31.55 149.922 31.8143 150.808 31.8143C151.308 31.8143 151.736 31.75 152.094 31.6214C152.465 31.4786 152.794 31.3286 153.079 31.1714C153.279 31.3143 153.436 31.4786 153.551 31.6643C153.679 31.85 153.744 32.0643 153.744 32.3071C153.744 32.7929 153.458 33.1929 152.886 33.5071C152.315 33.8214 151.544 33.9786 150.572 33.9786C149.758 33.9786 149.008 33.8714 148.322 33.6571C147.651 33.4286 147.072 33.0929 146.586 32.65C146.101 32.1929 145.722 31.6286 145.451 30.9571C145.194 30.2857 145.065 29.5071 145.065 28.6214C145.065 27.7214 145.208 26.9357 145.494 26.2643C145.779 25.5786 146.165 25.0143 146.651 24.5714C147.151 24.1143 147.729 23.7786 148.386 23.5643C149.044 23.3357 149.744 23.2214 150.486 23.2214C151.444 23.2214 152.208 23.3929 152.779 23.7357C153.351 24.0643 153.636 24.4714 153.636 24.9571C153.636 25.1857 153.572 25.3929 153.444 25.5786C153.329 25.7643 153.194 25.9143 153.036 26.0286C152.751 25.8714 152.429 25.7286 152.072 25.6C151.729 25.4571 151.308 25.3857 150.808 25.3857Z" fill="#6157FF"/>
<defs>
<linearGradient id="paint0_linear" x1="-6.12128" y1="25.1481" x2="4.65017" y2="55.5492" gradientUnits="userSpaceOnUse">
<stop stop-color="#6ABBFC"/>
<stop offset="1" stop-color="#614AFA"/>
</linearGradient>
<linearGradient id="paint1_linear" x1="25.7485" y1="23.9634" x2="25.7485" y2="15.0479" gradientUnits="userSpaceOnUse">
<stop stop-color="#6120F9"/>
<stop offset="1" stop-color="#5677FA"/>
</linearGradient>
<linearGradient id="paint2_linear" x1="16.5259" y1="38.521" x2="16.5259" y2="30.0839" gradientUnits="userSpaceOnUse">
<stop stop-color="#5677FA"/>
<stop offset="1" stop-color="#6120F9"/>
</linearGradient>
<linearGradient id="paint3_linear" x1="25.679" y1="29.653" x2="27.1679" y2="29.653" gradientUnits="userSpaceOnUse">
<stop stop-color="#614FFA"/>
<stop offset="1" stop-color="#6ABBFC"/>
</linearGradient>
<linearGradient id="paint4_linear" x1="22.3517" y1="32.0315" x2="24.0868" y2="32.0315" gradientUnits="userSpaceOnUse">
<stop stop-color="#614FFA"/>
<stop offset="1" stop-color="#6ABBFC"/>
</linearGradient>
<linearGradient id="paint5_linear" x1="25.6789" y1="35.3577" x2="27.2253" y2="35.3577" gradientUnits="userSpaceOnUse">
<stop stop-color="#614FFA"/>
<stop offset="1" stop-color="#6ABBFC"/>
</linearGradient>
<linearGradient id="paint6_linear" x1="28.476" y1="32.0283" x2="30.9853" y2="32.0283" gradientUnits="userSpaceOnUse">
<stop stop-color="#614FFA"/>
<stop offset="1" stop-color="#6ABBFC"/>
</linearGradient>
</defs>
</svg>
