<svg width="54" height="54" viewBox="0 0 54 54" fill="none" xmlns="http://www.w3.org/2000/svg">
<rect width="53.0842" height="53.0842" transform="translate(0.458008 0.458008)" fill="white"/>
<path fill-rule="evenodd" clip-rule="evenodd" d="M45.3515 7.09351H8.75244V30.4215H45.3515V7.09351ZM31.355 10.826V23.8602C32.2363 24.2526 34.1025 24.8746 35.8651 24.8746C37.6276 24.8746 38.979 24.4581 39.8069 23.5014C40.5313 22.6644 40.7899 22.0981 40.7899 19.5869C40.7899 17.0758 39.8069 15.37 38.358 15.0113C36.9091 14.6525 35.7017 14.7721 34.1321 15.6092V10.826H31.355ZM34.258 17.5133C35.2198 17.0328 36.539 16.676 37.28 17.3106C38.1215 18.0314 38.2793 20.294 37.6795 21.8161C37.3806 22.5744 36.6687 22.9047 35.8651 22.9047C34.9691 22.9047 34.5564 22.694 34.3098 22.5681C34.2917 22.5588 34.2745 22.55 34.258 22.5418V17.5133ZM23.0511 12.0591L22.2308 14.1437C21.1526 13.6631 18.9615 13.4698 18.602 13.4698C18.2426 13.4698 16.7704 13.6177 16.6321 14.6103C16.4939 15.6029 17.4201 16.0647 18.0191 16.2649C18.2808 16.347 18.5492 16.4223 18.8818 16.5156L18.8818 16.5156L18.8819 16.5156C19.3615 16.6502 19.9749 16.8223 20.8945 17.1061C22.713 17.6673 23.786 19.0419 23.786 20.9515C23.786 22.2733 23.4646 23.2535 22.3864 23.9415C19.9086 25.5226 15.6697 25.123 13.107 23.8378L13.8328 21.8161L13.9205 21.8436L13.9205 21.8436L13.9205 21.8436C15.6587 22.3888 17.9231 23.0989 19.6964 22.3935C20.1054 22.2308 20.6549 21.6939 20.6549 20.9515C20.6549 20.209 20.3646 19.7943 19.6964 19.5095C19.3035 19.3698 18.8777 19.2839 18.4235 19.1924C17.6124 19.0289 16.7106 18.8471 15.7428 18.3078C13.6238 17.1271 13.6247 15.8269 13.6254 14.8683L13.6254 14.8177C13.6254 13.418 14.2475 12.2257 15.5032 11.5784C16.4858 11.0719 18.3083 10.7247 20.1054 11.0852C20.6693 11.1983 22.492 11.7387 23.0511 12.0591ZM25.9642 15.0769H28.7627V24.7191H25.9633L25.9642 15.0769ZM27.2079 11.0333C26.3489 11.0333 25.6527 11.7296 25.6527 12.5885C25.6527 13.4474 26.3489 14.1437 27.2079 14.1437H27.5189C28.3778 14.1437 29.0741 13.4474 29.0741 12.5885C29.0741 11.7296 28.3778 11.0333 27.5189 11.0333H27.2079Z" fill="#7A232E"/>
<path fill-rule="evenodd" clip-rule="evenodd" d="M42.5848 37.5808V32.9098H45.3513V46.6831H42.7051V45.8448C42.5859 45.9002 42.4573 45.9712 42.3155 46.0496L42.3154 46.0496C41.7416 46.3666 40.9518 46.8029 39.6981 46.8029C38.375 46.8029 36.0493 46.5573 35.9165 42.241C35.8128 38.8714 37.1423 37.949 37.7735 37.5808C38.4048 37.2125 40.3716 36.431 42.5848 37.5808ZM8.54492 46.6831V33.3889H12.1534L15.8821 42.4913L19.6109 33.3889H23.0991V46.6831H20.2123V37.8203L16.9647 45.4855H14.559L11.4317 37.9401V46.6831H8.54492ZM42.5519 44.0371V39.5622C41.3818 38.8769 38.9689 38.1593 38.6784 40.7716C38.3878 43.384 39.1222 44.4402 39.5257 44.6418C40.1309 44.9643 41.5835 45.2949 42.5519 44.0371Z" fill="#7A232E"/>
<path fill-rule="evenodd" clip-rule="evenodd" d="M28.0597 42.6158H34.3421C34.422 41.5347 34.2702 39.1562 33.5035 38.2913C32.4253 37.075 30.9877 36.8497 29.9095 36.8497C29.3678 36.8497 28.0713 36.9626 27.0343 37.6906C26.0073 38.4116 25.2373 39.7383 25.2373 41.6548C25.2373 44.0829 26.0944 46.2954 28.7115 46.7002C30.4238 46.965 32.7062 46.7163 34.1025 45.9794C33.8854 45.3263 33.7503 44.8951 33.6637 44.6188C33.5592 44.2853 33.5254 44.1775 33.5035 44.1775C32.3055 44.658 30.9536 44.8189 29.6699 44.658C28.9181 44.5638 28.0597 43.8171 28.0597 42.6158ZM28.1405 40.8932C28.1405 39.9328 28.5017 38.6122 29.9465 38.6122C31.5896 38.6122 31.7455 39.867 31.8638 40.8199C31.8669 40.8445 31.8699 40.869 31.8729 40.8932H28.1405Z" fill="#7A232E"/>
</svg>
