<svg width="156" height="39" viewBox="0 0 156 39" fill="none" xmlns="http://www.w3.org/2000/svg">
<path d="M17.8821 0.0766102C17.5246 0.0829944 17.1734 0.0510735 16.8734 0.121299C16.6053 0.185141 16.2797 0.242599 15.986 0.242599C15.9732 0.280904 15.9796 0.248983 15.986 0.287288C15.7881 0.325593 15.5902 0.357514 15.3859 0.395819C15.437 0.42774 15.5774 0.408588 15.6604 0.408588H18.9419V0C18.5716 0 18.2205 0.0191525 17.8821 0.0319209V0.0766102ZM36.7857 21.6934C36.7601 21.6551 36.6069 21.4955 36.6005 21.4764C36.5814 21.4189 36.6516 21.1189 36.6644 21.0614C36.7218 20.8188 36.7537 20.3017 36.6963 20.0336C36.6452 19.8101 36.6005 19.5867 36.5111 19.3888C36.4664 19.2866 36.3643 19.1845 36.326 19.0823C36.4664 18.329 36.3068 17.5118 36.1409 16.9245C36.1025 16.7776 36.1153 16.6053 36.077 16.452V16.1775C36.0834 15.9158 36.0898 15.654 36.0898 15.3986C36.0834 14.5623 36.0004 13.7771 35.6748 13.2536C35.5854 13.1067 35.4769 12.8897 35.3045 12.8258C35.2918 12.3981 35.1768 11.964 35.0747 11.6001C34.8768 10.885 34.7044 10.253 34.3214 9.72949C34.2128 9.62096 34.1043 9.51243 34.0022 9.41028C33.9383 9.36559 33.8425 9.34644 33.7851 9.28898C33.7021 9.16769 33.7212 8.82294 33.6766 8.66333C33.5233 8.10153 33.236 7.38011 32.5912 7.32904C32.5976 7.15667 32.604 6.98429 32.604 6.80554C32.5466 6.53102 32.5338 6.26927 32.4508 6.02667C32.2593 5.43932 31.972 5.0052 31.64 4.57107C31.557 4.46254 31.3208 4.29655 31.1931 4.21994C31.1357 4.18802 31.0335 4.17525 30.9952 4.13057C30.8803 3.99011 30.8037 3.72836 30.7015 3.56237C30.4206 3.10271 30.0631 2.45153 29.6418 2.1387C29.5013 2.03017 29.3353 1.92164 29.1502 1.86418C29.0736 1.83864 28.9842 1.87057 28.9076 1.83226C28.8693 1.79396 28.8374 1.74927 28.799 1.71096C28.7224 1.63435 28.6203 1.55774 28.5373 1.4939C28.0329 1.14277 27.4775 0.887401 26.8199 0.683107C26.6412 0.62565 26.3411 0.529887 26.0858 0.593729C25.9517 0.62565 25.8432 0.676723 25.7346 0.715028C25.6516 0.746949 25.4027 0.600113 25.3069 0.561808C24.9685 0.421356 24.5919 0.338362 24.2344 0.242599C23.3916 0.00638418 21.8722 -0.0127684 21.2146 0.395819C20.889 0.600113 20.6464 0.925706 20.4485 1.2513C20.0463 1.90887 19.9059 2.75158 19.7144 3.61345V35.5599C19.9378 36.4601 20.506 37.3794 21.1699 37.8454C21.4636 38.0497 21.8084 38.2093 22.1978 38.3179C22.3893 38.3753 22.6 38.337 22.8107 38.3945C22.9639 38.4328 23.0724 38.5349 23.2384 38.5796C23.3916 38.6179 23.5321 38.5796 23.6534 38.5796C23.9662 38.586 24.3493 38.6115 24.6493 38.5477C24.7579 38.5413 24.8664 38.5349 24.9685 38.5349C25.1984 38.4838 25.4537 38.4902 25.6899 38.4264C26.5263 38.2157 27.3115 38.0114 27.9563 37.6156C28.3202 37.3922 28.6394 37.1304 28.965 36.8814C29.0863 36.7857 29.2076 36.6388 29.3034 36.5111C29.3417 36.4728 29.3864 36.4409 29.4247 36.4026C29.4502 36.3707 29.4566 36.3324 29.4885 36.3132C29.6035 36.2366 29.7758 36.2494 29.9163 36.2047C30.1589 36.1281 30.4015 36.0323 30.593 35.8983C30.8548 35.7131 31.0527 35.4386 31.2187 35.1641C31.3655 34.9279 31.3208 34.7044 31.6017 34.5831C31.7996 34.4937 32.0039 34.449 32.1827 34.3405C32.5785 34.0979 32.8594 33.7723 33.102 33.3765C33.2169 33.1914 33.2871 32.9424 33.3637 32.7317C33.3765 32.6679 33.3957 32.5976 33.4084 32.5338C33.4531 32.4572 33.6255 32.3295 33.7021 32.272C33.8362 32.1699 34.0085 31.9656 34.1171 31.8251C34.1745 31.7741 34.232 31.723 34.2831 31.6719C34.4299 31.474 34.5767 31.308 34.698 31.0718C34.7299 31.0016 34.8385 30.8037 34.7746 30.7015C34.781 30.5228 34.9534 30.4462 35.0492 30.3504C35.2598 30.1397 35.4705 29.8844 35.6493 29.6481C35.7706 29.4822 35.8025 29.2268 35.8663 28.9906C35.8791 28.9267 35.8855 28.8565 35.8983 28.7927C35.9429 28.6841 36.0387 28.582 36.0962 28.4862C36.1919 28.3266 36.2558 28.167 36.3579 28.0138C36.3962 27.9563 36.4664 27.8797 36.4984 27.8159C36.5814 27.6052 36.5494 27.3754 36.6069 27.1392C36.7282 26.622 36.7665 25.6389 36.6388 25.1026C36.5814 24.8728 36.575 24.5216 36.4409 24.3812C36.4601 24.279 36.5303 24.228 36.5814 24.1514C36.6644 24.0173 36.7473 23.8641 36.8112 23.7236C36.9389 23.4363 36.9772 23.1427 37.0538 22.7915C37.1368 22.4404 36.9006 21.8722 36.7857 21.6934ZM20.257 21.4509C20.2889 21.3934 20.5443 21.2529 20.6081 21.2083C20.8827 21.0103 21.1316 20.7294 21.4381 20.5826C21.3998 20.4102 21.2146 20.3272 21.1636 20.1676C20.972 20.2379 20.7614 20.4805 20.5954 20.5954C20.4932 20.6656 20.3592 20.7231 20.2889 20.8252H20.257V17.531C20.2698 17.5118 20.589 17.416 20.6401 17.3905C20.9401 17.2564 21.2274 17.0585 21.4828 16.867C21.6296 16.7585 21.7509 16.5925 21.8977 16.484C22.0829 16.3435 22.2361 16.1775 22.3702 15.9924C22.517 15.7945 22.7149 15.6221 22.8618 15.4242C22.9958 15.239 23.1171 14.9773 23.2767 14.8113C23.181 14.7092 22.9831 14.6134 22.849 14.5496C22.4021 15.3157 21.7828 16.0179 21.0742 16.5286C20.8699 16.6755 20.5507 16.9436 20.2634 16.9883V3.58153C20.4038 2.99418 20.5251 2.41961 20.7358 1.92802C20.9082 1.5322 21.087 1.12362 21.4125 0.887401C22.1212 0.370283 23.9343 0.600113 24.7196 0.887401C25.0005 0.989548 25.3005 1.10446 25.575 1.20661C25.6453 1.23215 25.8049 1.2896 25.8687 1.2513C26.0219 1.24492 26.0411 1.11723 26.2071 1.08531C26.4305 1.03424 26.7944 1.18107 26.9412 1.23853C27.3562 1.39175 27.7265 1.55136 28.0776 1.7748C28.2309 1.87057 28.3649 2.0174 28.5245 2.11316C28.5181 2.18977 28.5181 2.33023 28.4798 2.38768V2.40045C28.665 2.38768 28.8437 2.27915 29.0289 2.33661C29.2906 2.4196 29.4885 2.65582 29.6418 2.86011C29.8652 3.16017 30.0823 3.47938 30.2866 3.81136C30.427 4.0348 30.4972 4.30294 30.6568 4.51362C30.6888 4.55831 31.0399 4.70514 31.1165 4.75622C31.3974 4.96051 31.6081 5.30525 31.7741 5.63085C31.9464 5.96283 32.0167 6.33311 32.1124 6.74808C32.1316 6.83746 32.1316 7.15667 32.0997 7.20774C32.0869 7.36735 31.9081 7.4248 31.806 7.50141C31.4932 7.72486 31.2123 8.02492 30.8739 8.22283C30.8484 8.38881 30.8228 8.54842 30.7973 8.71441V9.00808C30.7654 9.07831 30.6696 9.10384 30.6313 9.1613C30.593 9.21237 30.5547 9.34006 30.5419 9.39113C30.5036 9.54435 30.5994 9.8061 30.5547 9.99125C30.4845 10.2977 30.4015 10.6105 30.1844 10.7701C29.9865 10.917 29.7631 11.0063 29.4822 11.0766C29.3098 11.1212 29.1183 11.0829 28.9778 11.1404C28.2883 11.4213 27.4264 11.8937 27.0625 12.4875H27.0498C27.0689 12.5002 27.0881 12.5002 27.1264 12.5002C27.0817 12.6662 27.037 12.8258 26.9859 12.9918C26.9923 12.9982 26.9987 13.0046 26.9987 13.0046C27.3371 12.9982 27.452 12.8003 27.5988 12.6088C27.7073 12.4683 27.9436 12.2704 28.0904 12.1619C28.3841 11.9576 28.8182 11.6958 29.1949 11.5937H29.3162C29.4949 11.5554 29.6864 11.5554 29.8524 11.5043C30.3504 11.3447 30.6568 11.0702 30.8803 10.6297C30.9824 10.4254 31.059 10.1508 31.0654 9.85079C31.0654 9.76141 31.091 9.58904 31.0527 9.53158C31.0718 9.37836 31.2442 9.28899 31.2953 9.14853C31.34 9.02723 31.2761 8.84848 31.308 8.70164C31.3208 8.65057 31.3336 8.56757 31.3399 8.50373C31.5379 8.40158 31.6847 8.22921 31.8635 8.10791C31.9848 8.02492 32.1444 7.94831 32.2337 7.83339C33.0509 7.76316 33.1211 8.45266 33.2744 9.09107C33.319 9.26983 33.2616 9.53158 33.351 9.67204C33.3765 9.71673 33.6829 9.79334 33.7468 9.83803C34.0341 10.0487 34.2128 10.4828 34.3597 10.834C34.5384 11.2745 34.615 11.7724 34.7427 12.2576C34.781 12.5321 34.8257 12.8067 34.864 13.0876C34.8896 13.1514 34.9789 13.1961 35.03 13.228V13.2408C34.947 13.2216 34.8129 13.1706 34.7555 13.1195C34.6342 13.1386 34.6342 13.2855 34.5895 13.3812C34.4746 13.5983 34.3469 13.8281 34.2064 14.026C34.1171 14.1601 33.9575 14.3389 33.8234 14.4219C33.6383 14.5368 33.4531 14.4921 33.3318 14.6836C33.185 14.9007 33.2041 15.2327 33.1148 15.5136C33.0062 15.8519 32.8594 16.1328 32.6679 16.3882C32.3933 16.7585 31.7613 17.1096 31.3016 17.3075C31.0527 17.3969 30.8037 17.4799 30.5483 17.5693C30.4781 17.6076 30.4717 17.7353 30.4398 17.8119C30.3696 17.9906 30.3057 18.1821 30.2227 18.3609C30.0057 18.8653 29.7567 19.3568 29.4566 19.7718C29.3481 19.925 29.2268 20.1102 29.0416 20.1868C28.8693 20.257 28.6458 20.2506 28.4415 20.2953H28.1989C27.9946 20.34 27.7073 20.3081 27.4775 20.3081C26.954 20.2953 26.4241 20.2889 25.9006 20.2762C25.6006 20.2762 25.2558 20.2379 24.9941 20.3081C24.5791 20.4166 24.2982 20.7933 24.0301 21.0614C23.8385 21.2529 23.6406 21.4381 23.4491 21.6296C23.3086 21.7701 23.181 21.9233 23.0214 22.0446C22.9703 22.102 22.9192 22.1595 22.8681 22.2106C22.6702 22.3638 22.4851 22.5362 22.268 22.6702C22.051 22.8043 21.7509 22.7915 21.47 22.8873C21.055 23.0214 20.4996 23.3406 20.2762 23.6662H20.2634V21.4509H20.257ZM36.16 26.6157V26.7689C36.1153 26.9668 36.1026 27.2094 36.0515 27.3945C36.0387 27.4648 36.0323 27.535 36.0196 27.6116C35.994 27.669 35.9302 27.7265 35.8983 27.7776C35.7833 27.9627 35.7067 28.1479 35.5918 28.3266C35.5471 28.4032 35.4577 28.4926 35.4258 28.5692C35.3364 28.7607 35.3939 29.1055 35.2854 29.2715C35.2471 29.3353 35.1641 29.3928 35.1194 29.4566C34.9725 29.6545 34.8321 29.8397 34.6597 30.0057C34.5512 30.1142 34.4044 30.2227 34.3214 30.3568C34.2384 30.4972 34.3277 30.6377 34.2894 30.7718C34.2639 30.8739 34.1681 30.9952 34.1043 31.0782C34.0213 31.1867 33.8936 31.2761 33.8106 31.3846C33.6574 31.5889 33.4595 31.7868 33.2744 31.9528C33.2233 31.9975 32.9935 32.1699 32.9679 32.2146C32.9615 32.2529 32.9551 32.2976 32.9551 32.3359C32.9232 32.4444 32.8913 32.5721 32.8466 32.687C32.7125 33.0126 32.5529 33.2871 32.355 33.5425C32.2082 33.7404 31.889 33.9 31.6528 34.0022C31.4421 34.0915 31.1995 34.1426 31.0718 34.3086C30.7781 34.2384 30.4653 34.1554 30.1653 34.0788C29.9482 34.0468 29.7375 34.0149 29.5205 33.9894C29.3609 33.9511 29.1757 34.0085 29.0608 34.0341C28.8948 34.0724 28.5692 34.0149 28.4479 33.9702C28.2883 33.9192 28.0968 33.8681 27.9563 33.7851C27.7265 33.6446 27.6435 33.4276 27.2349 33.5425C27.1519 33.568 27.0881 33.5425 27.0179 33.5744C26.6603 33.7213 26.5135 34.066 26.2964 34.3533C26.1751 34.5129 25.9134 34.647 25.7283 34.7363C25.1984 34.9981 24.4578 35.0236 24.0556 35.4131L24.0428 35.4258C24.1514 35.5344 24.1833 35.7259 24.3046 35.8216C24.3174 35.8344 24.4323 35.7706 24.4706 35.745C24.6238 35.6493 24.7579 35.5599 24.9622 35.5024C25.607 35.3109 26.0475 35.1832 26.5263 34.8257C26.8519 34.5767 26.8838 34.0277 27.4328 33.9958C27.7457 34.3405 28.25 34.4107 28.799 34.532C29.0736 34.5959 29.2779 34.4235 29.5651 34.4874C29.8014 34.5257 30.0376 34.5703 30.2674 34.6087C30.4334 34.6533 30.6377 34.7363 30.8164 34.7491C30.7526 35.1641 30.2036 35.5407 29.8205 35.6684C29.5524 35.7578 29.2459 35.7514 29.0991 35.9621C28.4351 35.828 27.7137 35.8536 27.0625 35.7003C26.871 35.6557 26.4816 35.7003 26.3603 35.5918C26.2837 35.662 26.2645 35.7833 26.2071 35.8663C26.1049 36.0259 25.9836 36.1792 25.8687 36.326C25.7729 36.4473 25.6261 36.5686 25.4984 36.6644C24.9302 37.0921 24.4067 37.4049 23.3853 37.3858C23.3789 37.5581 23.3406 37.7114 23.3214 37.8773C23.5959 37.8773 23.8896 37.9093 24.1514 37.8454C25.2814 37.5709 26.0794 37.0346 26.6029 36.16C26.8455 36.1664 27.1072 36.2047 27.3243 36.2494C27.535 36.3005 27.7584 36.2813 27.9499 36.326C28.1223 36.3643 28.4479 36.326 28.5756 36.4026H28.665V36.4154C28.582 36.4728 28.5245 36.5558 28.4479 36.6133C28.2564 36.7601 28.0521 36.9133 27.8478 37.041C27.3626 37.3475 26.7944 37.5518 26.1943 37.7433C25.7793 37.8774 25.3197 37.8837 24.86 37.9859C24.6685 37.9986 24.4706 38.005 24.279 38.0178C24.1003 38.0561 23.5002 38.0753 23.3278 38.0306C23.1746 37.9923 23.066 37.8901 22.9001 37.8454C22.7724 37.8327 22.6447 37.8263 22.517 37.8135C22.268 37.7561 21.9999 37.6986 21.7956 37.5837C21.1763 37.2262 20.7103 36.6707 20.4166 35.9876C20.3528 35.8153 20.2953 35.6429 20.2315 35.4641V29.629C20.7231 29.6673 21.1827 29.7822 21.7509 29.7822C21.9297 29.7822 22.2872 29.8077 22.3957 29.7375H22.4404C22.3829 29.9482 22.2361 30.1333 22.134 30.3057C21.9041 30.676 21.6935 31.2059 21.2274 31.3336V31.8379C21.5211 31.8251 21.6807 31.6464 21.8531 31.5187C22.2616 31.2123 22.5872 30.5675 22.8362 30.095C22.9384 29.9035 23.2065 29.3672 22.9256 29.1757C22.7405 29.0544 22.4021 29.2396 22.2042 29.2842C21.8403 29.3672 21.0678 29.2779 20.7614 29.2076C20.6081 29.1693 20.4038 29.2076 20.2889 29.131C20.2442 29.1566 20.2442 29.1885 20.2442 29.2523C20.1996 29.1757 20.2315 28.8182 20.2315 28.7033V24.5344C20.3911 24.0364 21.0231 23.5512 21.5019 23.3533C21.7126 23.264 22.0127 23.2895 22.2233 23.2001C22.5936 23.0469 22.8745 22.766 23.1746 22.5425C23.5959 22.1212 24.0237 21.7062 24.445 21.2849C24.5983 21.1316 24.8472 20.8316 25.0579 20.7614H25.1664C25.4346 20.6975 25.7474 20.7486 26.0411 20.7486C26.4114 20.755 26.7753 20.7614 27.1455 20.7614C27.369 20.8124 27.7967 20.8124 28.0202 20.7614C28.1287 20.7358 28.2819 20.7677 28.3713 20.7486H28.5564C28.8373 20.6847 29.131 20.6784 29.3353 20.5507C29.8844 20.2123 30.3057 19.3313 30.5738 18.712C30.6505 18.5397 30.7207 18.3609 30.7909 18.1885C30.8292 18.0992 30.8292 18.0098 30.8803 17.9459C30.9697 17.8757 31.1165 17.8693 31.2314 17.8246C31.4549 17.7353 31.7166 17.6459 31.9209 17.5182C32.8785 16.9372 33.5297 16.318 33.6957 14.9454C34.2384 14.8815 34.5576 14.275 34.8002 13.8856C34.9023 13.726 35.0428 13.5345 35.0938 13.3366H35.1258C35.279 13.5919 35.3939 13.8537 35.4769 14.192C35.5407 14.4346 35.4961 14.7219 35.5535 14.9709V16.5925C35.6429 16.9947 35.7067 17.3777 35.7961 17.7544C35.828 17.8885 35.8153 18.0353 35.8408 18.1694C35.8919 18.412 35.8153 18.6737 35.8089 18.9036C35.445 19.2419 34.947 19.5484 34.4299 19.7144C34.2001 19.791 33.8362 19.8037 33.651 19.6824C33.5425 19.6122 33.6383 19.4781 33.5872 19.3441C33.568 19.2802 33.4978 19.2419 33.4659 19.1909C33.0062 19.0823 32.8977 19.5548 32.7317 19.8357C32.5785 20.0846 32.4316 20.3655 32.3359 20.6656C32.2337 20.972 32.2146 21.2657 32.0614 21.5083C31.8762 21.802 31.5762 22.0574 31.2633 22.2297C30.8867 22.434 30.4781 22.5936 30.0823 22.766C29.8333 22.8745 29.5907 23.0405 29.3481 23.149C29.0161 23.2959 28.6905 23.4363 28.3522 23.5768C28.1479 23.6598 27.918 23.6789 27.6754 23.73C27.4456 23.7811 27.203 23.6534 27.0625 23.5896C26.6476 23.4172 26.3284 23.1427 25.9134 22.9894C25.7219 22.9192 25.4537 22.9447 25.2877 23.0214C24.9494 23.1746 24.8089 23.6215 24.6621 23.9726C24.4003 24.5983 24.1897 25.3835 23.6789 25.7666C23.0405 26.2454 22.1786 26.6476 21.6998 27.286C21.5338 27.5031 21.3232 27.7457 21.304 28.0968C21.4062 28.1032 21.6934 28.1287 21.7637 28.1734C21.8403 28.1223 21.8403 27.9499 21.885 27.867C21.9999 27.669 22.1786 27.4392 22.3574 27.2988C22.6383 27.0817 22.932 26.871 23.232 26.6731C23.7172 26.3539 24.1897 26.0666 24.5025 25.5686C24.7579 25.1601 24.9175 24.6366 25.1154 24.1769C25.2111 23.9535 25.275 23.7428 25.409 23.564C25.4473 23.5129 25.5176 23.5002 25.5623 23.4555C25.8112 23.4555 25.9325 23.564 26.0858 23.6534C26.3539 23.8194 26.9285 24.1705 27.2988 24.1897C27.2732 24.2088 27.2222 24.2088 27.1775 24.2024C27.1775 25.2175 27.0434 26.7689 28.0521 26.7944C28.1287 27.0945 28.0649 27.5988 28.1606 27.8989C27.7967 28.0393 27.1775 27.9308 26.8263 27.835C26.6859 27.7967 26.5135 27.8159 26.4114 27.7457C26.3986 27.7393 26.3794 27.7329 26.3667 27.7329C26.3667 27.4584 26.3667 27.203 26.3348 26.9987C26.2262 27.0115 26.1177 27.0306 26.0155 27.0434H25.8942C25.8687 27.1838 25.8559 27.3818 25.7857 27.4903C25.7027 27.6244 25.524 27.6818 25.3899 27.7648C25.0771 27.9563 24.7323 28.0712 24.362 28.2117C24.2663 28.25 24.1705 28.3075 24.0556 28.3202C24.062 28.4288 24.1386 28.7033 24.196 28.7799V28.8118C24.6876 28.6075 25.1984 28.4735 25.6197 28.2117C25.7091 28.1542 25.8049 28.1287 25.8815 28.0585H25.9134V28.1479C26.0922 28.167 26.2709 28.2372 26.4369 28.2883C26.7625 28.3777 27.1838 28.4415 27.5541 28.4543C27.784 28.4607 28.1925 28.4735 28.3202 28.3777H28.333C28.3266 28.6905 28.2564 28.9906 28.1798 29.2332C27.8542 30.2355 27.4264 30.8164 26.6029 31.3144C26.3156 31.4868 25.9581 31.5442 25.6389 31.6847C25.3452 31.8124 25.0643 31.9975 24.7515 32.0805C24.5663 32.0933 24.3812 32.0997 24.2024 32.1124C23.9535 32.1827 23.7045 32.2529 23.4491 32.3295C23.2895 32.355 23.1299 32.3806 22.9767 32.4061C22.683 32.3997 22.3829 32.3933 22.0893 32.3933C21.5147 32.521 21.2657 32.7572 21.004 33.1914C20.9337 33.3063 20.8444 33.4403 20.838 33.6191C20.9465 33.6255 21.2274 33.6766 21.2976 33.7276C21.3679 33.6446 21.3806 33.4978 21.4381 33.4084C21.5721 33.1914 21.7573 32.9998 22.019 32.9168C22.1595 32.8722 22.4021 32.9041 22.5425 32.9168C22.8809 32.9488 23.2193 32.8913 23.4746 32.8275C23.6023 32.7955 23.7619 32.8019 23.8577 32.7381H23.9215V32.7509C23.7428 32.853 23.6151 33.0509 23.4938 33.2105C23.181 33.6319 22.8618 34.0915 22.6383 34.6023C22.5553 34.7874 22.4851 35.1194 22.3638 35.2598V35.3045C22.517 35.362 22.6702 35.4194 22.8235 35.4705C23.0597 34.9598 23.2384 34.4427 23.5257 33.983C23.647 33.7851 23.8002 33.6 23.9407 33.4148C23.9981 33.3637 24.0556 33.3127 24.1067 33.2616C24.1961 33.1403 24.3237 33.0126 24.445 32.9232C24.6429 32.7764 24.8664 32.5912 25.1026 32.4955C25.2558 32.4316 25.4601 32.4189 25.575 32.3103C25.6899 32.355 25.7666 32.5019 25.8496 32.5849C26.0219 32.7572 26.2581 32.9488 26.5071 33.0318C26.7178 33.102 26.9859 33.0126 27.2285 33.0637C27.4392 33.1084 27.7776 33.0892 27.9819 33.0509C28.0712 33.0445 28.1542 33.0381 28.2436 33.0381C28.5181 32.9743 28.7863 32.9232 28.997 32.7955C29.1183 32.7189 29.2076 32.5912 29.3162 32.5019C29.6673 32.2401 29.929 31.8762 30.2802 31.6145C30.3951 31.5251 30.4972 31.3974 30.6313 31.3208C30.8164 31.2187 31.059 31.2059 31.2761 31.1357C31.6336 31.0207 31.9975 30.8994 32.3359 30.7526C33.5616 30.2163 34.1235 29.2906 34.6661 28.0712C34.5384 28.0202 34.3341 27.9755 34.2384 27.8861C34.1426 27.9116 34.0468 28.2628 33.9958 28.3585C33.7723 28.7927 33.5233 29.1566 33.2424 29.5205C33.2041 29.5715 33.1403 29.6035 33.0892 29.6418C32.9232 29.7631 32.7764 29.929 32.5976 30.0376C32.2018 30.2866 31.6975 30.4589 31.2187 30.6185C30.925 30.7143 30.5866 30.7462 30.344 30.8931C29.8461 31.2059 29.5013 31.7102 29.0416 32.055C28.9842 32.1188 28.9267 32.1763 28.8757 32.2401C28.7544 32.3359 28.6075 32.4189 28.4479 32.47C28.1862 32.5593 27.4073 32.6168 27.0689 32.5466H26.6859C26.4944 32.4955 26.1815 32.2273 26.0858 32.0741H26.073C26.156 31.9975 26.3028 31.9975 26.4114 31.9528C26.654 31.8507 26.9029 31.7358 27.1136 31.6017C27.8606 31.1293 28.3394 30.4015 28.6458 29.4885C28.7352 29.2204 28.8118 28.9076 28.8437 28.582C28.8629 28.3968 28.882 28.2117 28.7799 28.1223C28.8118 28.001 29.0161 27.9819 29.131 27.9372C29.4055 27.835 29.7248 27.7967 30.0376 27.7201C30.1653 27.7073 30.2929 27.701 30.4206 27.6882C30.9377 27.5733 31.1867 27.7457 31.5379 27.8542C31.9145 27.9755 32.5593 28.0457 32.9488 27.8861C33.1467 27.8031 33.351 27.6563 33.4723 27.4903C33.5361 27.4009 33.568 27.3051 33.6383 27.2285C33.6446 27.2222 33.651 27.2158 33.651 27.2158C33.8872 27.7329 34.4044 27.7648 34.9087 27.5094C35.4577 27.2285 35.7961 26.8391 36.0451 26.2518C36.1025 26.1177 36.1792 25.9645 36.1983 25.7921C36.2494 25.9325 36.1855 26.5007 36.16 26.6157ZM36.4984 22.9958C36.3962 23.3725 36.2749 23.6215 36.1026 23.9024C36.0259 24.0237 35.9685 24.1833 35.86 24.2727C35.8855 24.4578 35.8791 24.777 35.828 24.9941C35.8153 25.109 35.8089 25.2303 35.7961 25.3452C35.6365 25.99 35.4833 26.4752 35.0619 26.8455C34.8576 27.0242 34.4618 27.3243 34.1426 27.1392C34.0915 26.9412 34.066 26.6795 34.1107 26.4497C34.1298 26.3731 34.0915 26.2581 34.1235 26.2071V26.0475C34.0149 26.1049 33.9575 26.2071 33.8617 26.2773C33.6829 26.4114 33.4978 26.5582 33.3701 26.737C33.1467 27.0562 33.0445 27.3945 32.604 27.5031C32.304 27.5797 31.8124 27.4775 31.5953 27.3945C31.474 27.3498 31.3655 27.2605 31.225 27.2285C31.0335 27.1775 30.6505 27.1902 30.4589 27.2285C30.3185 27.2413 30.1716 27.2477 30.0312 27.2605C29.7694 27.3179 29.4758 27.3562 29.2332 27.4264C29.0353 27.4903 28.799 27.5094 28.6522 27.6244H28.6394C28.6394 27.1902 28.6394 26.7561 28.4543 26.5071C28.3649 26.3858 28.2245 26.405 28.1032 26.322C27.8286 26.322 27.8414 26.1049 27.784 25.8942C27.6563 25.4473 27.6946 24.8089 27.7073 24.2727H27.618C27.701 24.2216 28.001 24.2407 28.1096 24.2088C28.3841 24.1322 28.6586 24.0556 28.9076 23.9471C29.5907 23.6534 30.2291 23.2767 30.8994 22.9831C31.1931 22.8554 31.4804 22.7468 31.7422 22.5872C31.8379 22.5298 31.9145 22.434 32.0039 22.3702C32.0677 22.3255 32.1507 22.2744 32.2018 22.217C32.3997 21.9807 32.5785 21.7318 32.7062 21.4189C32.77 21.1891 32.8275 20.9593 32.8913 20.7294C32.9871 20.4996 33.185 20.2442 33.2424 20.008C33.3318 20.0399 33.3957 20.1293 33.4723 20.174C33.568 20.2315 33.7212 20.2698 33.8425 20.2953C34.0085 20.3336 34.3214 20.3081 34.4682 20.2634C34.9087 20.1357 35.2598 19.9442 35.6046 19.7271C35.7323 19.6441 35.8727 19.5867 35.9749 19.4845C36.2111 19.7335 36.2558 20.506 36.16 20.9529C36.1345 21.0614 36.1664 21.221 36.1153 21.304C36.1089 21.4764 35.6684 21.6168 35.5344 21.6998C35.1385 21.9424 34.6916 22.1467 34.2958 22.3893C34.149 22.4787 33.9511 22.4915 33.8042 22.5872C33.5489 22.7532 33.6446 23.0022 33.5425 23.3086C33.4403 23.6151 33.2424 23.8832 32.9935 24.0428C32.7572 24.1897 32.4763 24.2024 32.1507 24.2727H31.7358C31.3016 24.3684 30.9122 24.4067 30.5547 24.5663C29.9163 24.8409 29.4311 25.2367 28.914 25.6261C28.7735 25.7666 28.6394 25.9006 28.499 26.0411C28.4351 26.1241 28.3841 26.2262 28.3011 26.2837C28.2947 26.2964 28.2883 26.3156 28.2883 26.3284C28.4351 26.405 28.5437 26.5199 28.6841 26.5901L28.6969 26.6029C28.8565 26.3348 29.1246 26.0985 29.3736 25.9134C29.4949 25.824 29.6035 25.6963 29.7248 25.607C30.1653 25.3005 30.6441 25.0515 31.2123 24.8728C31.4357 24.8025 31.6847 24.8217 31.9337 24.7642C32.1444 24.7196 32.355 24.7834 32.5466 24.7323C33.2488 24.5536 33.6829 24.2471 33.9383 23.6279C34.0085 23.4555 34.0851 23.2576 34.0915 23.015C34.6087 22.7979 35.0875 22.5425 35.5471 22.2616C35.7323 22.1531 36.1472 22.0063 36.2685 21.8658H36.3005C36.4026 22.0637 36.4984 22.2297 36.5622 22.4915C36.5814 22.6702 36.5303 22.8873 36.4984 22.9958ZM14.6964 0.600113C14.7602 0.638418 14.9262 0.612881 15.0156 0.612881H18.9355V0.42774H15.322C15.1241 0.478814 14.9134 0.580961 14.6964 0.600113ZM13.975 0.842712V0.874633H18.9419V0.676723H14.4857C14.3133 0.715028 14.1537 0.817175 13.975 0.842712ZM13.2536 1.14915H13.2408V1.16192H18.9419V0.97678H14.8943C14.3325 0.983164 13.5728 0.893785 13.2536 1.14915ZM21.4189 4.66045C21.5785 4.91582 21.7381 5.17757 21.8914 5.42655C22.0127 5.61808 22.1276 5.80961 22.2425 5.99475C22.2872 6.06497 22.3063 6.14158 22.3638 6.19266C22.3766 6.20542 22.7022 5.95644 22.7788 5.89898C23.0724 5.70107 23.3789 5.52232 23.7747 5.42655C24.1131 5.34356 24.4706 5.5287 24.5408 5.76492C24.6621 5.733 24.8409 5.63085 24.9238 5.54785H24.9558C24.9175 5.77768 24.777 5.96921 24.7132 6.1735C24.5344 6.70977 24.5216 7.61633 24.9302 7.90362C25.0643 7.99938 25.2558 7.99938 25.4346 8.05684C25.6836 8.13983 25.9006 8.22921 26.0922 8.35051C26.1305 8.57396 26.073 8.72718 26.2007 8.89955C26.3986 9.17407 26.7625 9.30175 26.9668 9.57627C27.037 9.67204 27.1775 9.81249 27.1328 10.004C27.12 10.0679 27.0945 10.1508 27.0881 10.2211C27.2413 10.2658 27.3945 10.3615 27.5605 10.3743C27.5733 10.2849 27.6052 10.2083 27.6244 10.1317C27.7329 9.67842 27.3754 9.19961 27.1647 9.04639C27.0242 8.93785 26.654 8.73356 26.5965 8.57396C26.5774 8.52927 26.622 8.44627 26.6093 8.37605C26.5837 8.26113 26.5454 8.13983 26.488 8.05684C26.322 7.82062 25.9453 7.71209 25.6453 7.60994C25.5112 7.56526 25.3388 7.57802 25.2303 7.50141C25.0835 7.39288 25.0451 6.92045 25.109 6.6587C25.2048 6.28842 25.3516 6.00113 25.4601 5.66277C25.5176 5.4904 25.492 5.34356 25.5367 5.13927C25.5623 5.03712 25.5623 4.87113 25.5367 4.75622C25.4729 4.47531 25.4729 4.07311 25.3388 3.84966C25.1409 3.53684 24.7132 3.33893 24.3557 3.19209C24.2152 3.13463 24.0301 3.12186 23.9088 3.03887C23.8641 3.00057 23.8385 2.87927 23.8641 2.77712C23.9088 2.56006 23.8896 2.30469 23.8002 2.13232C23.6279 1.80034 23.3214 1.51944 23.0341 1.30237C22.9256 1.21938 22.7724 1.14277 22.6958 1.02785C22.5489 1.07893 22.4979 1.28322 22.3766 1.36621C22.3702 1.37898 22.3638 1.39814 22.3638 1.4109C22.4851 1.48751 22.5745 1.60243 22.683 1.68542C22.932 1.87057 23.2512 2.08763 23.3725 2.38768C23.4172 2.49622 23.3789 2.68774 23.3597 2.7835C23.315 2.99418 23.4044 3.21124 23.481 3.31977C23.6598 3.56237 24.3237 3.67729 24.6174 3.85605C24.7068 3.9135 24.8472 4.01565 24.9111 4.09864C24.9685 4.18802 24.943 4.32847 24.9749 4.44977C25.0196 4.63492 25.109 4.93497 25.0515 5.18396C25.0324 5.27972 25.0132 5.37548 24.9877 5.47763C24.9111 5.43932 24.8855 5.34356 24.8345 5.27972C24.7387 5.15203 24.5408 5.03712 24.3876 4.97328C23.8577 4.75622 23.2384 5.05627 22.9001 5.23503C22.766 5.30526 22.6192 5.36271 22.517 5.46486C22.4085 5.41379 22.2808 5.10096 22.2106 4.99243C22.1212 4.84559 22.0318 4.69876 21.9361 4.54554C21.8977 4.4817 21.8084 4.40509 21.7828 4.32848C21.7509 4.01565 21.719 3.70283 21.6934 3.39638C21.5275 3.40915 21.3679 3.42831 21.2019 3.44107C21.2402 3.79859 21.2721 4.1561 21.3104 4.51362C21.3359 4.56469 21.3934 4.61576 21.4189 4.66045ZM12.5002 1.50028H12.4875V1.51305H18.9355V1.31514H14.275C13.6941 1.31514 12.8131 1.20661 12.5002 1.50028ZM26.1113 3.41554C26.073 3.56237 26.1496 3.72198 26.2007 3.79859C26.3348 4.00288 26.5582 4.18802 26.7497 4.33486C26.8646 4.44977 26.9859 4.57107 27.1009 4.68599C27.3435 4.87113 27.5861 5.1265 27.7584 5.37548C27.918 5.60531 28.0521 5.86068 28.1287 6.1735C28.1542 6.28842 28.1479 6.58848 28.0968 6.66509C28.1096 6.78 28.1798 6.79277 28.2372 6.863C28.3713 7.04175 28.5628 7.24605 28.7735 7.33543C28.8501 7.36735 29.0289 7.39288 29.0927 7.33543C29.1502 7.31627 29.1693 7.27797 29.214 7.24605C29.2523 7.08006 29.2459 6.93322 29.1374 6.83107V6.81831C29.0544 6.85023 28.8182 7.06729 28.7671 7.13752H28.7352C28.7352 6.95237 28.8182 6.93961 28.9203 6.863C28.9459 6.85023 28.9331 6.863 28.9523 6.85023C28.8118 6.80554 28.7416 6.66509 28.6331 6.58848C28.6331 6.3778 28.6522 6.16074 28.6011 5.98836C28.4096 5.29887 27.8989 4.65407 27.3881 4.27102C27.3307 4.20718 27.2732 4.14972 27.2222 4.08588C27.0817 3.97735 26.954 3.86243 26.8263 3.74751C26.7561 3.68367 26.705 3.58791 26.6284 3.53045C26.6476 3.44746 26.6986 3.38362 26.7178 3.30062C26.8072 2.93672 26.5263 2.52175 26.4114 2.33661C26.3603 2.25362 26.3347 2.16424 26.2581 2.10678C26.2901 1.9791 26.6859 1.87695 26.7944 1.78757C26.8008 1.78119 26.6093 1.37898 26.5646 1.34068C26.4624 1.43644 26.2901 1.46198 26.1688 1.53859C25.9581 1.66627 25.7091 1.80034 25.4793 1.90887C25.7219 2.27915 26.073 2.56644 26.2135 3.04525C26.2709 3.23678 26.1432 3.28785 26.1113 3.41554ZM11.766 1.90249H11.7533V1.91525H18.9419V1.71734H13.6238C13.0812 1.71734 12.0023 1.60881 11.766 1.90249ZM11.0319 2.34299H11.0191V2.36215H18.9419V2.17701H11.8107C11.4405 2.17701 11.217 2.15147 11.0319 2.34299ZM10.2977 2.83458V2.8665H18.9419V2.66859H10.5403C10.4509 2.69412 10.3934 2.80266 10.2977 2.83458ZM9.60819 3.38362H9.59543V3.39638H18.9419V3.21124H9.81249C9.74865 3.28147 9.65927 3.31977 9.60819 3.38362ZM8.9187 3.98373H8.90593V3.9965H18.9419V3.81136H9.65288C9.30175 3.81774 9.06554 3.76667 8.9187 3.98373ZM8.24198 4.6413H8.22921V4.66045H18.9419V4.46254H9.04639C8.65057 4.45616 8.40158 4.3987 8.24198 4.6413ZM7.59718 5.33079H7.58441V5.34356H18.9355V5.15842H8.38243C8.01215 5.1648 7.7504 5.09458 7.59718 5.33079ZM6.97153 6.06497V6.09689H18.9355V5.89898H7.11198C7.05452 5.92452 7.0226 6.02667 6.97153 6.06497ZM6.37141 6.863V6.89492H18.9355V6.69701H6.4991C6.44802 6.72254 6.42249 6.83107 6.37141 6.863ZM22.1403 19.5484C22.6447 19.4271 23.0405 19.1079 23.4108 18.8461C23.9598 18.4631 24.4642 18.0417 25.0068 17.6523C25.2111 17.5054 25.409 17.3267 25.6197 17.1926C25.7283 17.1224 25.8496 17.0394 25.9709 16.9947C26.405 16.8351 27.1392 16.95 27.4264 17.1479C27.5605 17.2373 27.6627 17.5437 27.7648 17.6842C27.9053 17.8693 28.1415 18.0417 28.333 18.1758C28.3905 18.2141 28.4607 18.2268 28.499 18.2843C28.5564 18.2588 28.7288 17.9459 28.7416 17.8693C28.7544 17.8566 28.748 17.8629 28.7544 17.8374C28.5181 17.7225 28.2436 17.5118 28.0968 17.3011C27.9627 17.1096 27.9308 16.8989 27.7457 16.7649C27.5669 16.6372 27.3371 16.5542 27.1009 16.4903C26.9604 16.4712 26.8263 16.452 26.6859 16.4265H26.3794C26.405 16.3499 26.4624 15.8775 26.4114 15.8008C26.4305 15.6285 26.7816 15.4306 26.9157 15.3412C27.2477 15.1241 27.6307 15.0092 28.0776 14.8943C28.2181 14.8624 28.3777 14.8751 28.5054 14.8496H28.8757C29.3289 14.8496 29.878 14.9198 30.2227 14.773C30.4909 14.6581 30.842 14.4793 31.0654 14.3133C31.1101 14.2814 31.1357 14.224 31.174 14.1729C31.2123 14.1346 31.257 14.0899 31.2953 14.0516C31.5698 13.6558 31.7741 13.1706 31.972 12.7045C32.0805 12.3853 32.189 12.0725 32.2912 11.7533V11.7405C32.1571 11.7086 31.9337 11.6767 31.8315 11.6001C31.7677 11.6384 31.7805 11.7214 31.7549 11.798C31.6975 11.9703 31.64 12.1555 31.5698 12.3342C31.3719 12.8194 31.059 13.7005 30.6824 13.975C30.6058 14.0324 30.51 14.0516 30.4206 14.0963C30.2036 14.2112 30.0248 14.3133 29.7439 14.3708C29.6609 14.3899 29.5141 14.3708 29.4502 14.358H29.0799C28.9395 14.3261 28.499 14.3261 28.3458 14.358C28.1415 14.3899 27.9372 14.4219 27.7329 14.4474C27.2477 14.5815 26.8519 14.7602 26.4944 15.0156C26.3858 15.0922 26.2645 15.1497 26.1879 15.2582C26.073 15.2327 25.8815 15.0028 25.7283 14.939C25.5303 14.856 25.2367 14.8688 25.0388 14.7858C24.9941 14.6709 25.0132 14.5176 24.9749 14.3708C24.9175 14.1346 24.8792 13.8856 24.7898 13.6685C24.6876 13.4196 24.5919 13.145 24.4514 12.9152C24.4003 12.8322 24.311 12.7364 24.2854 12.6407C24.2152 12.3981 24.4195 12.1619 24.4706 11.9959C24.5599 11.7022 24.5536 11.2553 24.4706 10.9553C24.279 10.2594 23.9854 9.66565 23.6406 9.11661C23.5385 8.95701 23.4427 8.7974 23.347 8.62503C23.315 8.56757 23.2384 8.49735 23.2576 8.3952C23.3086 8.13345 23.4108 7.86531 23.5321 7.66102C23.5896 7.56526 23.6789 7.45672 23.7172 7.34181C23.73 7.32904 23.7236 7.33542 23.73 7.30989C23.5896 7.22051 23.4555 7.13752 23.315 7.04814C23.149 7.36735 22.7979 7.84616 22.7788 8.2739C22.3766 8.26752 21.968 8.19729 21.6296 8.10791C21.4828 8.06961 21.304 8.07599 21.2019 7.98661C21.0742 8.05045 21.0614 8.31221 20.972 8.41435C21.0295 8.52927 21.2657 8.52927 21.3998 8.56757C21.7062 8.65695 22.0765 8.6761 22.4085 8.75271C22.5362 8.78463 22.7149 8.73995 22.8235 8.7974C22.9192 8.82294 22.932 8.95062 22.9767 9.02723C23.066 9.17407 23.1554 9.33367 23.2512 9.48689C23.5385 9.94656 23.7619 10.3998 23.9407 10.9872C23.9981 11.1787 24.0684 11.5171 24.0045 11.766C23.9598 11.9448 23.8768 12.0853 23.8066 12.2257C23.098 12.1938 22.5681 11.7533 22.2425 11.3192C22.134 11.1787 21.9616 11.0319 21.9041 10.8467C21.7318 10.8786 21.6168 11.0191 21.4445 11.0638C21.6232 11.4341 22.0127 11.9257 22.351 12.1363C22.3191 12.2385 22.2361 12.3023 22.185 12.3789C22.0318 12.6024 21.8786 12.8194 21.7254 13.0365C21.6168 13.1897 21.5338 13.4132 21.387 13.5281C21.4253 13.6047 21.6998 13.7771 21.7828 13.8218V13.8345C21.8531 13.7707 21.8786 13.6813 21.9361 13.6047C22.1084 13.3621 22.2999 13.1131 22.4723 12.8705C22.5745 12.7301 22.6447 12.5641 22.766 12.4428C22.8107 12.4236 22.8937 12.4938 22.9511 12.5194C23.1044 12.596 23.2831 12.6407 23.4555 12.6854C23.564 12.6981 23.6725 12.7173 23.7747 12.7301C23.813 12.7556 23.9215 13.0365 23.9598 13.1003C24.1641 13.4259 24.3174 13.8218 24.4323 14.2367C24.5089 14.5176 24.4706 14.8688 24.6174 15.0794C24.8792 15.4625 25.7027 15.239 25.8751 15.7242C25.9709 15.8583 25.8815 16.3244 25.8623 16.4776C24.8536 16.9628 24.0939 17.7736 23.2129 18.3928C22.9703 18.5652 22.7149 18.7248 22.4596 18.8844C22.3191 18.9674 22.1276 18.9866 21.9999 19.0823C21.9871 19.1015 22.0893 19.4845 22.1212 19.5292V19.5484H22.1403ZM5.80961 7.70571V7.73763H18.9419V7.55249H5.91814C5.87345 7.57802 5.84791 7.67379 5.80961 7.70571ZM11.3702 7.7504C11.2681 7.81424 11.2936 8.28667 11.217 8.40797V8.43989H5.37548C5.32441 8.46543 5.31164 8.57396 5.26695 8.60588V8.6378H11.1787C11.134 8.88678 11.0893 9.13577 11.0382 9.39113H4.84559C4.81367 9.41667 4.8009 9.5252 4.76898 9.55712V9.58904H10.9872C10.9425 9.85718 10.8978 10.1189 10.8467 10.3871H4.3987C4.3604 10.4126 4.35401 10.5211 4.32209 10.5531V10.585H10.834C10.7957 10.6935 10.802 10.8148 10.7701 10.9361C10.7318 11.0829 10.6807 11.2617 10.6807 11.4277H4.61576C4.41785 11.4277 4.13695 11.3894 3.97096 11.4405C3.95819 11.4979 3.93904 11.5681 3.90712 11.6064V11.6192H10.636C10.585 11.9193 10.5339 12.2193 10.4828 12.5258H3.60068C3.58153 12.5896 3.56237 12.6279 3.55599 12.7109H10.4381C10.3807 13.0301 10.3232 13.3557 10.2721 13.6749H3.28147C3.2687 13.7196 3.26232 13.7898 3.23678 13.8281V13.8601H10.2402C10.1892 14.1218 10.1381 14.3836 10.087 14.6389C10.0679 14.7219 10.0806 14.8177 10.0423 14.8815V14.9134H3.00057C2.9878 14.9773 2.98141 15.0347 2.96864 15.0986H10.004C9.94017 15.4689 9.86995 15.8328 9.8061 16.2031H2.78989C2.7835 16.2669 2.77712 16.3371 2.77712 16.401H9.76141C9.74226 16.8798 9.56351 17.3267 9.51882 17.7927H2.64944C2.64305 17.8566 2.63667 17.9268 2.63667 17.9906H9.48689C9.34644 18.744 9.21237 19.4909 9.07192 20.2442H6.40333C6.35865 20.2123 6.26927 19.9186 6.23735 19.8484C6.12881 19.6058 6.0139 19.3632 5.89898 19.1142C5.84791 18.9993 5.74576 18.8844 5.733 18.744H0V19.2675H5.37548C5.45848 19.4654 5.56701 19.6569 5.65 19.8484C5.70746 19.9697 5.733 20.1229 5.81599 20.2187V20.2506H2.63667V20.4358H5.91814C5.96283 20.4677 6.03944 20.7358 6.07136 20.806C6.17989 21.055 6.30757 21.3104 6.42249 21.5722C6.47356 21.6871 6.57571 21.802 6.58848 21.9424H2.77074C2.77712 21.9807 2.77073 21.9871 2.7835 22.0063C2.7835 22.0637 2.78989 22.1084 2.79627 22.1467H6.69062C6.72893 22.2361 6.76085 22.3191 6.79915 22.4085C6.90768 22.6128 6.99068 22.8298 7.09283 23.0533C7.12475 23.1171 7.17582 23.1618 7.1822 23.2512H2.96864C2.98141 23.315 2.9878 23.3725 3.00057 23.4363H7.27797C7.33542 23.4683 7.35458 23.6215 7.3865 23.6789C7.46311 23.8258 7.55249 23.9918 7.61633 24.1386C7.6674 24.2535 7.69294 24.3876 7.76955 24.477V24.4897H3.24955C3.26232 24.5536 3.2687 24.611 3.28147 24.6749C3.28785 24.6812 3.29424 24.6876 3.29424 24.6876H7.85893C7.90362 24.7132 7.92915 24.86 7.94831 24.9175C7.993 25.0196 8.06961 25.1345 8.1143 25.2367C8.16537 25.358 8.19729 25.5112 8.28028 25.607V25.6389H3.55599C3.56876 25.7027 3.59429 25.7538 3.60068 25.824H8.38243C8.42712 25.8559 8.47181 26.0602 8.52288 26.1177C8.53565 26.1432 8.52288 26.1305 8.53565 26.1496C8.5548 26.0666 8.5548 25.9262 8.59949 25.8559V25.824H18.9419V25.6389H8.62503C8.68249 25.3197 8.73994 25.0068 8.79102 24.6876H18.9355V24.4897H8.84209C8.90593 24.1386 8.96339 23.7875 9.02723 23.4299H18.9419V23.2448H9.07192C9.13577 22.8745 9.19322 22.5106 9.25706 22.1403H18.9419V21.9424H9.30175C9.33367 21.6998 9.38475 21.4445 9.4422 21.221C9.45497 21.1316 9.46136 21.0486 9.47413 20.9593C9.51243 20.806 9.56351 20.6273 9.56351 20.4549C9.56989 20.4485 9.57627 20.4422 9.57627 20.4422H18.9355V20.257H9.60819C9.74226 19.5101 9.87633 18.7631 10.004 18.0225C10.0104 18.0162 10.0168 18.0098 10.0168 18.0098H13.0812C13.177 18.4567 13.2727 18.9099 13.3749 19.3568H18.9036V18.8206H14.1857C14.0835 18.8206 13.8728 18.8525 13.8026 18.8078C13.6941 18.6546 13.726 18.2077 13.6175 18.0417V18.0034H18.9355V17.8055H13.5728C13.5345 17.5182 13.4515 17.2054 13.3749 16.9309C13.3302 16.7712 13.3493 16.567 13.2663 16.4393V16.4073H18.9355V16.2094H13.2216C13.1897 15.9605 13.1195 15.7051 13.0557 15.4753C13.0237 15.3603 13.0365 15.2135 12.979 15.1241V15.1114H18.9419V14.9262H13.4068C13.2855 14.9262 13.0365 14.9645 12.9471 14.9134C12.896 14.8432 12.9152 14.7347 12.8833 14.6389C12.8194 14.4091 12.7173 14.1282 12.7173 13.8728H18.9355V13.6877H13.145C13.0173 13.6877 12.762 13.726 12.6726 13.6749C12.6088 13.5855 12.6279 13.4387 12.596 13.3238C12.5449 13.1386 12.4747 12.9216 12.4555 12.7237H18.9355V12.5385H12.4108C12.3789 12.3087 12.3151 12.0725 12.2576 11.8618C12.2385 11.7852 12.2512 11.7086 12.2129 11.6447V11.632H18.9419V11.4277H12.1683C12.1555 11.2872 12.0406 10.6935 11.9831 10.5977V10.585H18.9419V10.3871H11.9384C11.881 10.1189 11.8235 9.85718 11.7724 9.58904H18.9419V9.39113H11.7277C11.6958 9.23153 11.632 8.76548 11.5618 8.65695V8.64418H18.9483V8.44627H11.5043C11.4851 8.20367 11.3766 7.99938 11.3702 7.7504ZM8.31859 24.4067H8.30582C8.25475 24.1897 8.1143 23.9981 8.0313 23.8066C7.97384 23.6853 7.94831 23.5321 7.86531 23.4363V23.4299H8.49096C8.4335 23.7555 8.37605 24.0811 8.31859 24.4067ZM8.53565 23.2448H7.78232C7.74401 23.2257 7.68655 23.0214 7.66102 22.9703C7.58441 22.8235 7.49503 22.6575 7.43119 22.5106C7.38011 22.3957 7.35458 22.2616 7.27797 22.1723V22.1403H8.72079C8.65695 22.5106 8.59311 22.8745 8.53565 23.2448ZM8.76548 21.9424H7.18859C7.1439 21.9169 7.03537 21.6041 7.00345 21.5275C6.9013 21.304 6.76723 21.0614 6.66509 20.838C6.60763 20.7103 6.58209 20.5634 6.4991 20.4677V20.4358H9.04C8.95062 20.9401 8.85486 21.4381 8.76548 21.9424ZM12.7301 16.4073C12.7747 16.7266 12.8641 17.0585 12.9471 17.3586C12.9854 17.499 12.9663 17.6778 13.0365 17.7863V17.7991H10.0487C10.087 17.5246 10.1317 17.1862 10.2019 16.9117C10.2402 16.7585 10.2913 16.5797 10.2913 16.4073H12.7301ZM12.4428 15.105C12.5002 15.3667 12.5577 15.6476 12.6279 15.903C12.6534 15.9988 12.6407 16.1073 12.6918 16.1775V16.2094H10.3424C10.4062 15.8392 10.4764 15.4753 10.5403 15.105H12.4428ZM12.3342 14.6645C12.3534 14.7411 12.3917 14.8305 12.3981 14.9262H10.5722C10.6233 14.6964 10.636 14.4602 10.6935 14.224C10.719 14.1218 10.751 14.0133 10.7573 13.8856C10.7637 13.8792 10.7701 13.8728 10.7701 13.8728H12.1619C12.2257 14.1282 12.2576 14.3899 12.3342 14.6645ZM12.1172 13.6813H10.802C10.8595 13.3621 10.917 13.0365 10.968 12.7173H11.9193C11.9895 13.0365 12.0533 13.3621 12.1172 13.6813ZM11.8299 12.2896C11.849 12.3662 11.8363 12.4428 11.8746 12.5066V12.5385H11.0191C11.0702 12.2385 11.1212 11.9384 11.1723 11.632H11.6767C11.7086 11.849 11.7724 12.0853 11.8299 12.2896ZM11.632 11.4277H11.217C11.2617 11.1532 11.3064 10.8786 11.3575 10.5977C11.3638 10.5914 11.3702 10.585 11.3702 10.585H11.4468C11.5043 10.8659 11.5681 11.1468 11.632 11.4277ZM3.98373 26.9221H18.9355V26.7242H3.91989C3.94542 26.788 3.96458 26.8519 3.98373 26.9221ZM4.41147 27.9627H18.9355V27.7776H4.33486C4.3604 27.8414 4.38593 27.8989 4.41147 27.9627ZM4.87113 28.9587H18.9355V28.7735H4.79452C4.81367 28.8437 4.85198 28.8884 4.87113 28.9587ZM5.39463 29.9099H18.9419V29.712H5.2861C5.30526 29.7886 5.35633 29.8461 5.39463 29.9099ZM5.93091 30.7973H18.9419V30.6122H5.82237C5.86068 30.676 5.8926 30.7335 5.93091 30.7973ZM6.51187 31.6528H18.9355V31.4549H6.39057C6.4161 31.5379 6.48633 31.5762 6.51187 31.6528ZM7.12475 32.4508H18.9355V32.2529H6.9843C7.01622 32.3359 7.08644 32.3742 7.12475 32.4508ZM7.7504 33.185H18.9355V33.0062H7.61633C7.64187 33.0828 7.71209 33.1147 7.7504 33.185ZM8.42712 33.8936H18.9355V33.6957H8.26113C8.29305 33.7787 8.37605 33.817 8.42712 33.8936ZM9.11661 34.5384H18.9355V34.3533H8.93147L9.11661 34.5384ZM9.83803 35.1194C9.92102 35.1705 10.3743 35.1322 10.5147 35.1322H18.9419V34.947H9.62096C9.65927 35.0109 9.7678 35.0938 9.83803 35.1194ZM10.5722 35.6876H18.9355V35.4897H10.3424C10.3807 35.5854 10.5084 35.611 10.5722 35.6876ZM11.3383 36.1919H18.9355V35.994H11.0638C11.0957 36.0387 11.2872 36.1728 11.3383 36.1919ZM13.56 36.6324H18.9355V36.4345H11.798C11.9512 36.7346 13.0748 36.6324 13.56 36.6324ZM14.141 37.0346H18.9355V36.8367H12.5513C12.6918 37.1112 13.6813 37.0346 14.141 37.0346ZM14.8177 37.3858H18.9419V37.1879H13.3046C13.5153 37.4496 14.3197 37.3858 14.8177 37.3858ZM14.2814 37.5709C14.3644 37.6028 14.4729 37.6539 14.5559 37.6794H18.9355V37.4751H14.0452C14.0899 37.5454 14.1984 37.539 14.2814 37.5709ZM15.0156 37.8007C15.354 37.9093 15.6285 37.922 16.1009 37.922H18.9355V37.7369H14.7858C14.8432 37.7816 14.9326 37.7752 15.0156 37.8007ZM16.1009 38.0625C16.0818 38.0753 16.0754 38.0753 16.0371 38.0753C16.1137 38.1583 16.5286 38.1327 16.6819 38.1646C17.3267 38.3115 18.1566 38.2796 18.9355 38.2732V37.9348H15.488C15.5646 37.9923 15.986 38.0561 16.1009 38.0625Z" fill="white"/>
<path d="M55.2222 27.708L55.1225 30.6888H53.7791V28.8468H53.1231V27.708H55.2222ZM48.1062 28.8468V21.206H49.5493V27.7133H52.782V21.206H54.2304V28.8468H48.1062Z" fill="white"/>
<path d="M61.3149 27.7133V28.8468H57.2531V27.7133H61.3149ZM57.6939 21.206V28.8468H56.2508V21.206H57.6939ZM60.7849 24.3599V25.4672H57.2531V24.3599H60.7849ZM61.2992 21.206V22.3448H57.2531V21.206H61.2992Z" fill="white"/>
<path d="M67.3866 24.3599V25.4935H63.3668V24.3599H67.3866ZM63.7604 21.206V28.8468H62.3173V21.206H63.7604ZM68.4572 21.206V28.8468H67.014V21.206H68.4572Z" fill="white"/>
<path d="M73.049 21.206V28.8468H71.6111V21.206H73.049ZM75.421 21.206V22.3448H69.2654V21.206H75.421Z" fill="white"/>
<path d="M79.3202 26.0602H77.3522V24.9267H79.3202C79.642 24.9267 79.9027 24.8742 80.1021 24.7693C80.305 24.6608 80.4537 24.5139 80.5481 24.3284C80.6426 24.1395 80.6898 23.9244 80.6898 23.683C80.6898 23.4486 80.6426 23.2299 80.5481 23.027C80.4537 22.8241 80.305 22.6596 80.1021 22.5337C79.9027 22.4078 79.642 22.3448 79.3202 22.3448H77.8245V28.8468H76.3814V21.206H79.3202C79.9149 21.206 80.4222 21.3127 80.842 21.5261C81.2653 21.736 81.5872 22.0282 81.8076 22.4025C82.0315 22.7733 82.1435 23.1967 82.1435 23.6725C82.1435 24.1658 82.0315 24.5908 81.8076 24.9477C81.5872 25.3045 81.2653 25.5792 80.842 25.7716C80.4222 25.964 79.9149 26.0602 79.3202 26.0602Z" fill="white"/>
<path d="M91.0228 24.3599V25.4935H87.0029V24.3599H91.0228ZM87.3965 21.206V28.8468H85.9534V21.206H87.3965ZM92.0933 21.206V28.8468H90.6502V21.206H92.0933Z" fill="white"/>
<path d="M98.6268 27.7133V28.8468H94.565V27.7133H98.6268ZM95.0058 21.206V28.8468H93.5627V21.206H95.0058ZM98.0968 24.3599V25.4672H94.565V24.3599H98.0968ZM98.6111 21.206V22.3448H94.565V21.206H98.6111Z" fill="white"/>
<path d="M102.557 25.441H100.605L100.595 24.4229H102.269C102.556 24.4229 102.795 24.3827 102.988 24.3022C103.18 24.2217 103.325 24.1045 103.423 23.9506C103.525 23.7967 103.576 23.6095 103.576 23.3891C103.576 23.1442 103.528 22.9448 103.434 22.7908C103.343 22.6369 103.199 22.525 103.003 22.455C102.808 22.3815 102.559 22.3448 102.258 22.3448H101.072V28.8468H99.6292V21.206H102.258C102.692 21.206 103.079 21.248 103.418 21.332C103.761 21.4124 104.051 21.5384 104.289 21.7098C104.527 21.8812 104.707 22.0964 104.83 22.3553C104.956 22.6142 105.019 22.922 105.019 23.2789C105.019 23.5938 104.945 23.8841 104.798 24.15C104.655 24.4124 104.433 24.6258 104.132 24.7903C103.834 24.9547 103.457 25.0491 102.998 25.0736L102.557 25.441ZM102.494 28.8468H100.18L100.784 27.7133H102.494C102.781 27.7133 103.017 27.6661 103.203 27.5716C103.392 27.4771 103.532 27.3477 103.623 27.1833C103.717 27.0153 103.764 26.8229 103.764 26.606C103.764 26.3681 103.722 26.1617 103.638 25.9868C103.558 25.8118 103.429 25.6771 103.25 25.5827C103.075 25.4882 102.844 25.441 102.557 25.441H101.057L101.067 24.4229H102.977L103.308 24.8165C103.749 24.82 104.107 24.9075 104.384 25.0789C104.664 25.2503 104.87 25.4707 105.003 25.7401C105.136 26.0095 105.202 26.2999 105.202 26.6112C105.202 27.101 105.096 27.5121 104.882 27.8445C104.672 28.1768 104.364 28.427 103.959 28.5949C103.556 28.7628 103.068 28.8468 102.494 28.8468Z" fill="white"/>
<path d="M109.39 26.0602H107.422V24.9267H109.39C109.712 24.9267 109.973 24.8742 110.172 24.7693C110.375 24.6608 110.524 24.5139 110.618 24.3284C110.713 24.1395 110.76 23.9244 110.76 23.683C110.76 23.4486 110.713 23.2299 110.618 23.027C110.524 22.8241 110.375 22.6596 110.172 22.5337C109.973 22.4078 109.712 22.3448 109.39 22.3448H107.894V28.8468H106.451V21.206H109.39C109.985 21.206 110.492 21.3127 110.912 21.5261C111.335 21.736 111.657 22.0282 111.878 22.4025C112.101 22.7733 112.213 23.1967 112.213 23.6725C112.213 24.1658 112.101 24.5908 111.878 24.9477C111.657 25.3045 111.335 25.5792 110.912 25.7716C110.492 25.964 109.985 26.0602 109.39 26.0602Z" fill="white"/>
<path d="M119.534 24.8322V25.2258C119.534 25.8031 119.457 26.3226 119.303 26.7844C119.149 27.2427 118.931 27.6328 118.647 27.9547C118.364 28.2765 118.026 28.5232 117.634 28.6946C117.243 28.8661 116.807 28.9518 116.328 28.9518C115.855 28.9518 115.422 28.8661 115.026 28.6946C114.634 28.5232 114.295 28.2765 114.008 27.9547C113.721 27.6328 113.499 27.2427 113.342 26.7844C113.184 26.3226 113.106 25.8031 113.106 25.2258V24.8322C113.106 24.2515 113.184 23.7319 113.342 23.2736C113.499 22.8153 113.72 22.4252 114.003 22.1034C114.286 21.778 114.624 21.5296 115.016 21.3582C115.411 21.1868 115.845 21.101 116.317 21.101C116.796 21.101 117.232 21.1868 117.624 21.3582C118.016 21.5296 118.353 21.778 118.637 22.1034C118.924 22.4252 119.144 22.8153 119.298 23.2736C119.455 23.7319 119.534 24.2515 119.534 24.8322ZM118.075 25.2258V24.8217C118.075 24.4054 118.037 24.0398 117.96 23.7249C117.883 23.4066 117.769 23.1389 117.619 22.922C117.468 22.7051 117.283 22.5424 117.062 22.434C116.842 22.322 116.594 22.2661 116.317 22.2661C116.037 22.2661 115.789 22.322 115.572 22.434C115.359 22.5424 115.177 22.7051 115.026 22.922C114.876 23.1389 114.76 23.4066 114.68 23.7249C114.603 24.0398 114.564 24.4054 114.564 24.8217V25.2258C114.564 25.6386 114.603 26.0042 114.68 26.3226C114.76 26.641 114.876 26.9104 115.026 27.1308C115.18 27.3477 115.366 27.5121 115.582 27.6241C115.799 27.736 116.048 27.792 116.328 27.792C116.608 27.792 116.856 27.736 117.073 27.6241C117.29 27.5121 117.472 27.3477 117.619 27.1308C117.769 26.9104 117.883 26.641 117.96 26.3226C118.037 26.0042 118.075 25.6386 118.075 25.2258Z" fill="white"/>
<path d="M125.643 21.206V22.3448H121.911V21.206H125.643ZM126.708 21.206V28.8468H125.259V21.206H126.708ZM121.68 21.206H123.118L122.929 25.0212C122.901 25.5844 122.851 26.0777 122.777 26.501C122.704 26.9244 122.604 27.2865 122.478 27.5873C122.352 27.8847 122.195 28.1261 122.006 28.3115C121.817 28.497 121.593 28.6334 121.334 28.7209C121.079 28.8048 120.781 28.8468 120.442 28.8468H120.08V27.7133L120.285 27.6923C120.463 27.6783 120.617 27.6346 120.746 27.5611C120.879 27.4876 120.993 27.3774 121.087 27.2305C121.182 27.08 121.259 26.8876 121.318 26.6532C121.381 26.4188 121.43 26.1337 121.465 25.7978C121.504 25.462 121.532 25.0684 121.549 24.6171L121.68 21.206Z" fill="white"/>
<path d="M134.375 24.8322V25.2258C134.375 25.8031 134.298 26.3226 134.144 26.7844C133.99 27.2427 133.771 27.6328 133.488 27.9547C133.205 28.2765 132.867 28.5232 132.475 28.6946C132.083 28.8661 131.648 28.9518 131.168 28.9518C130.696 28.9518 130.262 28.8661 129.867 28.6946C129.475 28.5232 129.136 28.2765 128.849 27.9547C128.562 27.6328 128.34 27.2427 128.182 26.7844C128.025 26.3226 127.946 25.8031 127.946 25.2258V24.8322C127.946 24.2515 128.025 23.7319 128.182 23.2736C128.34 22.8153 128.56 22.4252 128.844 22.1034C129.127 21.778 129.465 21.5296 129.857 21.3582C130.252 21.1868 130.686 21.101 131.158 21.101C131.637 21.101 132.073 21.1868 132.465 21.3582C132.857 21.5296 133.194 21.778 133.478 22.1034C133.764 22.4252 133.985 22.8153 134.139 23.2736C134.296 23.7319 134.375 24.2515 134.375 24.8322ZM132.916 25.2258V24.8217C132.916 24.4054 132.878 24.0398 132.801 23.7249C132.724 23.4066 132.61 23.1389 132.459 22.922C132.309 22.7051 132.124 22.5424 131.903 22.434C131.683 22.322 131.434 22.2661 131.158 22.2661C130.878 22.2661 130.63 22.322 130.413 22.434C130.199 22.5424 130.017 22.7051 129.867 22.922C129.717 23.1389 129.601 23.4066 129.521 23.7249C129.444 24.0398 129.405 24.4054 129.405 24.8217V25.2258C129.405 25.6386 129.444 26.0042 129.521 26.3226C129.601 26.641 129.717 26.9104 129.867 27.1308C130.021 27.3477 130.206 27.5121 130.423 27.6241C130.64 27.736 130.889 27.792 131.168 27.792C131.448 27.792 131.697 27.736 131.914 27.6241C132.131 27.5121 132.312 27.3477 132.459 27.1308C132.61 26.9104 132.724 26.641 132.801 26.3226C132.878 26.0042 132.916 25.6386 132.916 25.2258Z" fill="white"/>
<path d="M140.546 21.206V22.3448H137.051V28.8468H135.613V21.206H140.546Z" fill="white"/>
<path d="M143.002 26.5378L146.23 21.206H147.678V28.8468H146.23V23.515L143.002 28.8468H141.559V21.206H143.002V26.5378Z" fill="white"/>
<path d="M150.559 26.5378L153.787 21.206H155.235V28.8468H153.787V23.515L150.559 28.8468H149.116V21.206H150.559V26.5378Z" fill="white"/>
<path d="M88.3827 10.8549L88.9648 8.78334C88.9862 8.70695 88.9969 8.65348 88.9969 8.62293C88.9969 8.38766 88.7952 8.26544 88.3919 8.25628V8.0867H90.5551V8.25628H90.5139C90.3856 8.25628 90.2832 8.27156 90.2068 8.30211C90.0541 8.36322 89.9349 8.54807 89.8493 8.85667L88.534 13.5865C88.5156 13.6537 88.5065 13.7072 88.5065 13.7469C88.5065 13.9822 88.7066 14.1044 89.1069 14.1135V14.2831H86.9482V14.1135H87.0032C87.2049 14.1135 87.3531 14.0616 87.4478 13.9577C87.5242 13.8752 87.5929 13.727 87.654 13.5132L88.3002 11.1849H85.6053L84.9316 13.5865C84.9133 13.6506 84.9041 13.7041 84.9041 13.7469C84.9041 13.9822 85.1043 14.1044 85.5045 14.1135V14.2831H83.3458V14.1135H83.4008C83.6025 14.1135 83.7507 14.0616 83.8454 13.9577C83.9187 13.8783 83.986 13.7301 84.0471 13.5132L85.3808 8.78334C85.3991 8.71918 85.4083 8.66571 85.4083 8.62293C85.4083 8.38766 85.2081 8.26544 84.8079 8.25628V8.0867H86.9665V8.25628H86.9299C86.7985 8.25628 86.6946 8.27156 86.6182 8.30211C86.4716 8.36016 86.3539 8.54502 86.2653 8.85667L85.6924 10.8549H88.3827Z" fill="white"/>
<path d="M94.6433 10.0987L93.7404 13.2611C93.6396 13.6155 93.5892 13.7973 93.5892 13.8065C93.5892 13.8737 93.6304 13.9073 93.7129 13.9073C93.7771 13.9073 93.8672 13.8508 93.9833 13.7377C94.0903 13.6308 94.2507 13.4719 94.4646 13.2611L94.5746 13.3527C94.269 13.7347 94.0353 13.9944 93.8733 14.1319C93.6717 14.303 93.4777 14.3885 93.2913 14.3885C93.0102 14.3885 92.8696 14.2373 92.8696 13.9348C92.8696 13.8309 92.8941 13.7087 92.943 13.5681L93.1217 13.0548C92.7887 13.4979 92.5076 13.8141 92.2784 14.0035C91.979 14.251 91.6398 14.3748 91.2609 14.3748C90.9799 14.3748 90.7522 14.2587 90.5781 14.0265C90.4161 13.8156 90.3352 13.5666 90.3352 13.2794C90.3352 12.705 90.5475 12.1229 90.9722 11.5332C91.2319 11.1727 91.542 10.8595 91.9026 10.5937C92.3365 10.2698 92.7367 10.1079 93.1034 10.1079C93.3875 10.1079 93.606 10.279 93.7588 10.6212C93.7649 10.6395 93.7771 10.6685 93.7954 10.7083L93.9192 10.2087L94.6433 10.0987ZM93.5892 10.9878C93.5892 10.5448 93.4334 10.3233 93.1217 10.3233C92.4678 10.3233 91.8995 10.8717 91.4168 11.9686C91.2151 12.4269 91.1143 12.8425 91.1143 13.2152C91.1143 13.6705 91.3022 13.8981 91.678 13.8981C91.9194 13.8981 92.1333 13.8202 92.3197 13.6644C92.4419 13.5575 92.5901 13.3757 92.7642 13.119C93.3142 12.3001 93.5892 11.5898 93.5892 10.9878Z" fill="white"/>
<path d="M95.7204 15.6993C96.1084 15.3968 96.4689 14.9721 96.802 14.4252C96.7531 13.7958 96.6874 13.2886 96.6049 12.9036C96.4705 12.2711 96.2795 11.6448 96.032 11.0245C95.8792 10.6426 95.673 10.4516 95.4133 10.4516C95.3736 10.4516 95.2911 10.4623 95.1658 10.4837L95.0558 10.502L95.0466 10.3599L96.2383 10.1445C96.2994 10.1323 96.3467 10.1262 96.3803 10.1262C96.4292 10.1231 96.4659 10.1568 96.4903 10.227C96.7042 10.8076 96.8646 11.2903 96.9716 11.6753C97.0846 12.0817 97.216 12.6989 97.3657 13.5269C98.0898 12.4086 98.4519 11.6127 98.4519 11.1391C98.4519 11.0291 98.4122 10.9451 98.3328 10.887C98.07 10.6945 97.9386 10.5433 97.9386 10.4333C97.9386 10.3386 97.9798 10.2591 98.0623 10.195C98.1448 10.1308 98.235 10.0987 98.3328 10.0987C98.6627 10.0987 98.8277 10.3172 98.8277 10.7541C98.8277 10.9863 98.7407 11.3117 98.5665 11.7303C98.2915 12.3933 97.9004 13.1312 97.3932 13.944C96.7638 14.9523 96.2062 15.6321 95.7204 15.9835C95.5126 16.1332 95.3247 16.208 95.1566 16.208C94.8389 16.208 94.68 16.0797 94.68 15.8231C94.68 15.5664 94.8022 15.4381 95.0466 15.4381C95.1383 15.4381 95.2437 15.4671 95.3629 15.5252L95.7204 15.6993Z" fill="white"/>
<path d="M103.365 13.2886C103.056 13.7347 102.824 14.0249 102.668 14.1594C102.494 14.3121 102.291 14.3885 102.059 14.3885C101.772 14.3885 101.628 14.222 101.628 13.889C101.628 13.782 101.643 13.672 101.674 13.559L102.068 12.097H102.041C101.604 12.5156 101.087 12.7248 100.491 12.7248C99.9842 12.7248 99.7306 12.54 99.7306 12.1703C99.7306 12.0847 99.7474 11.9763 99.781 11.8449L100.006 10.9603C100.036 10.8412 100.051 10.751 100.051 10.6899C100.051 10.5891 99.998 10.5265 99.891 10.502C99.8635 10.4959 99.7703 10.4929 99.6115 10.4929H99.506V10.3233L100.867 10.0895C100.873 10.1415 100.876 10.1751 100.876 10.1904C100.876 10.2606 100.855 10.3767 100.812 10.5387L100.519 11.657C100.476 11.8189 100.455 11.9396 100.455 12.019C100.455 12.2451 100.612 12.3582 100.927 12.3582C101.465 12.3582 101.862 12.1306 102.118 11.6753C102.195 11.5378 102.267 11.3652 102.334 11.1574C102.389 10.9802 102.47 10.664 102.577 10.2087H103.241L102.444 13.2611C102.371 13.5422 102.334 13.7072 102.334 13.7561C102.334 13.8813 102.377 13.944 102.462 13.944C102.584 13.944 102.841 13.6965 103.232 13.2015L103.365 13.2886Z" fill="white"/>
<path d="M108.145 13.2702C107.62 14.0066 107.18 14.3748 106.825 14.3748C106.498 14.3748 106.335 14.2098 106.335 13.8798C106.335 13.7545 106.367 13.5788 106.431 13.3527L106.72 12.3307H105.052L104.488 14.2831H103.782L104.758 10.9695C104.795 10.8442 104.813 10.7541 104.813 10.6991C104.813 10.5677 104.691 10.502 104.447 10.502H104.263V10.3324L105.62 10.0987C105.629 10.1568 105.634 10.1934 105.634 10.2087C105.634 10.2759 105.611 10.389 105.565 10.5479L105.134 12.0282H106.793L107.293 10.2087H107.999L107.142 13.2794C107.087 13.475 107.059 13.6063 107.059 13.6736C107.059 13.8111 107.113 13.8798 107.219 13.8798C107.296 13.8798 107.371 13.8477 107.444 13.7836C107.542 13.698 107.721 13.4826 107.98 13.1373L108.145 13.2702Z" fill="white"/>
<path d="M114.475 13.2702C113.946 14.0066 113.505 14.3748 113.15 14.3748C112.823 14.3748 112.66 14.2098 112.66 13.8798C112.66 13.7606 112.692 13.585 112.756 13.3527L113.627 10.2087H114.333L113.471 13.2794C113.413 13.4872 113.384 13.6186 113.384 13.6736C113.384 13.8111 113.437 13.8798 113.544 13.8798C113.621 13.8798 113.695 13.8477 113.769 13.7836C113.876 13.6888 114.054 13.4734 114.305 13.1373L114.475 13.2702ZM112.307 12.5369C112.307 13.0961 112.041 13.5529 111.509 13.9073C111.042 14.219 110.515 14.3748 109.928 14.3748C109.146 14.3748 108.755 14.0815 108.755 13.4948C108.755 13.3818 108.793 13.1847 108.869 12.9036L109.396 10.9603C109.427 10.8473 109.442 10.7572 109.442 10.6899C109.442 10.586 109.389 10.5234 109.282 10.502C109.254 10.4959 109.161 10.4929 109.002 10.4929H108.897V10.3233L110.258 10.0895C110.264 10.1415 110.267 10.1751 110.267 10.1904C110.267 10.2606 110.246 10.3767 110.203 10.5387L109.772 12.1703H109.791C110.234 11.77 110.715 11.5699 111.234 11.5699C111.949 11.5699 112.307 11.8922 112.307 12.5369ZM111.573 12.5553C111.573 12.1367 111.347 11.9274 110.895 11.9274C110.464 11.9274 110.108 12.1107 109.827 12.4774C109.571 12.8135 109.442 13.203 109.442 13.6461C109.442 13.9822 109.645 14.1502 110.052 14.1502C110.446 14.1502 110.8 13.9822 111.115 13.6461C111.421 13.3161 111.573 12.9525 111.573 12.5553Z" fill="white"/>
<path d="M117.023 7.90796C117.182 7.90796 117.261 7.97671 117.261 8.1142C117.261 8.21197 117.205 8.27767 117.092 8.31128C116.908 8.36627 116.817 8.43655 116.817 8.5221C116.817 8.64737 116.928 8.74056 117.151 8.80167C117.301 8.84445 117.46 8.86584 117.628 8.86584C117.814 8.86584 117.99 8.84292 118.155 8.79709C118.396 8.72987 118.517 8.62751 118.517 8.49002C118.517 8.42891 118.486 8.38613 118.425 8.36169C118.266 8.30058 118.187 8.22878 118.187 8.14628C118.187 7.9874 118.266 7.90796 118.425 7.90796C118.636 7.90796 118.742 8.06226 118.742 8.37086C118.742 8.6489 118.619 8.87959 118.375 9.06291C118.152 9.23402 117.898 9.31957 117.614 9.31957C117.342 9.31957 117.108 9.24624 116.913 9.09958C116.699 8.93764 116.592 8.72529 116.592 8.46252C116.592 8.32808 116.629 8.20586 116.702 8.09587C116.788 7.9706 116.895 7.90796 117.023 7.90796ZM119.081 13.2886C118.772 13.7347 118.54 14.0249 118.384 14.1594C118.21 14.3121 118.007 14.3885 117.774 14.3885C117.487 14.3885 117.344 14.222 117.344 13.889C117.344 13.7851 117.359 13.6751 117.389 13.559L117.747 12.2161C117.545 12.54 117.417 12.7417 117.362 12.8211C116.962 13.4016 116.558 13.8477 116.152 14.1594C115.953 14.3121 115.729 14.3885 115.478 14.3885C115.151 14.3885 114.988 14.2281 114.988 13.9073C114.988 13.8034 115.003 13.6934 115.034 13.5773L115.721 10.9603C115.752 10.8442 115.767 10.7541 115.767 10.6899C115.767 10.586 115.714 10.5234 115.607 10.502C115.579 10.4959 115.486 10.4929 115.327 10.4929H115.222V10.3233L116.583 10.0895C116.589 10.1415 116.592 10.1751 116.592 10.1904C116.592 10.2606 116.571 10.3767 116.528 10.5387L115.776 13.3894C115.752 13.4811 115.74 13.5636 115.74 13.6369C115.74 13.7988 115.814 13.8798 115.964 13.8798C116.138 13.8798 116.329 13.7606 116.537 13.5223C117.014 12.9785 117.386 12.4224 117.655 11.8541C117.823 11.4966 118.036 10.9481 118.292 10.2087H118.957L118.159 13.2611C118.086 13.5422 118.049 13.7072 118.049 13.7561C118.049 13.8813 118.092 13.944 118.178 13.944C118.3 13.944 118.557 13.6965 118.948 13.2015L119.081 13.2886Z" fill="white"/>
<line x1="47.4292" y1="11.577" x2="78.5035" y2="11.577" stroke="white" stroke-width="0.739236"/>
<line x1="124.297" y1="11.577" x2="155.372" y2="11.577" stroke="white" stroke-width="0.739236"/>
</svg>
