<svg width="54" height="55" viewBox="0 0 54 55" fill="none" xmlns="http://www.w3.org/2000/svg">
<path d="M7.81624 46.1158C13.0474 51.1171 19.9803 53.9488 27.217 54.04L25.1327 51.5299V41.8899C21.6346 41.2863 18.4445 39.5143 16.0836 36.8634C13.838 34.3762 12.5305 31.1834 12.3867 27.8355C12.2428 24.4876 13.2716 21.1945 15.2957 18.5239C17.2241 15.9649 19.8828 14.0506 22.9213 13.0334V3.2981C16.7171 4.10155 10.9881 7.04583 6.72324 11.6227C2.42134 16.2038 0.0204175 22.2481 0.00636586 28.5324C0.00343425 30.9139 0.354663 33.2826 1.04853 35.5607C2.42758 39.5698 4.74845 43.1895 7.81624 46.1158Z" fill="#1F3E9A"/>
<path d="M46.1349 7.73363C41.2235 2.96228 34.7033 0.203209 27.8589 0H27.6682C27.1408 0 26.6134 8.14586e-06 26.0859 0.0381361V51.2312C29.7569 51.4018 33.4245 50.8301 36.8693 49.5505C40.3142 48.2708 43.4656 46.3094 46.1349 43.7836C48.6108 41.4792 50.5854 38.6894 51.9355 35.5882C53.2857 32.487 53.9825 29.141 53.9825 25.7586C53.9825 22.3763 53.2857 19.0302 51.9355 15.929C50.5854 12.8278 48.6108 10.038 46.1349 7.73363ZM40.619 30.8963C39.9043 32.541 38.8496 34.0158 37.5243 35.2239L36.9333 35.764V15.7468L37.5243 16.287C38.8434 17.5005 39.8971 18.9739 40.619 20.6145C41.3358 22.2338 41.708 23.9846 41.712 25.7554C41.7135 27.5269 41.341 29.2787 40.619 30.8963Z" fill="#1F3E9A"/>
<path d="M1.35352 17.5833C1.35352 17.6151 1.39799 17.6723 1.39799 17.6723L1.49331 17.6405C2.64604 15.1977 4.16541 12.9454 5.99877 10.9618C10.4194 6.21674 16.3569 3.1626 22.7878 2.3258L23.4614 2.26861L24.7768 0.165222C14.0056 1.2201 5.03286 8.16574 1.35352 17.5833Z" fill="#1F3E9A"/>
<path d="M14.279 31.6525L14.1773 31.608C14.1623 31.6345 14.1496 31.6621 14.1392 31.6906C14.7326 33.3564 15.6408 34.8925 16.8145 36.2152C18.9898 38.6571 21.9166 40.305 25.1327 40.8985V38.9921C22.8528 38.7784 20.6635 37.994 18.7666 36.7112C16.8697 35.4285 15.3264 33.6888 14.279 31.6525Z" fill="#1F3E9A"/>
<path d="M21.4786 34.2707C22.6422 33.7758 23.8743 33.4608 25.1326 33.3365V32.5104C23.7234 32.6438 22.3431 32.9932 21.0402 33.5462C20.161 32.0722 19.5419 30.4578 19.21 28.7739C21.1669 28.4088 23.1491 28.1964 25.1389 28.1384V27.3123C23.1035 27.3893 21.0769 27.6209 19.0766 28.005C18.9919 27.324 18.9473 26.6386 18.9431 25.9524C18.9403 25.1924 19.0019 24.4334 19.1274 23.6838C21.1087 24.076 23.1198 24.2992 25.1389 24.351V23.5567C23.1683 23.4951 21.2053 23.2827 19.2672 22.9212C19.608 21.3166 20.2068 19.7779 21.0402 18.365C22.3411 18.924 23.7223 19.2736 25.1326 19.4008V18.6001C23.8764 18.464 22.646 18.1495 21.4786 17.6659C22.4673 16.1773 23.7031 14.8684 25.1326 13.796V13.1923C24.8727 13.2228 24.6155 13.2738 24.3636 13.3448C22.9472 14.4631 21.7199 15.8019 20.7288 17.3101C20.1105 17.0151 19.5194 16.6664 18.9622 16.2679C18.7249 16.4374 18.4962 16.6153 18.2759 16.8017C18.9106 17.2591 19.5823 17.663 20.284 18.0091C19.4349 19.4893 18.8157 21.0898 18.4475 22.756C17.1417 22.4772 15.8554 22.1142 14.5965 21.6694C14.4822 21.9172 14.3805 22.165 14.2788 22.4129C15.5923 22.8894 16.9389 23.2696 18.3077 23.5504C18.1809 24.3532 18.1193 25.165 18.1234 25.9778C18.1265 26.719 18.171 27.4594 18.2568 28.1956C16.9258 28.4869 15.6125 28.854 14.3233 29.295C14.3868 29.5619 14.4567 29.8288 14.5394 30.0893C15.7919 29.6263 17.0742 29.2484 18.3776 28.9582C18.7335 30.7067 19.3778 32.3839 20.284 33.9211C19.5045 34.303 18.7657 34.7629 18.0789 35.2938C18.2949 35.4717 18.5174 35.6369 18.7144 35.7958C19.3416 35.3581 19.9976 34.9632 20.6779 34.6138C21.422 35.74 22.3013 36.7708 23.2961 37.6831C23.7732 37.762 24.2551 37.8087 24.7386 37.8229C23.4768 36.8123 22.3774 35.6143 21.4786 34.2707Z" fill="#1F3E9A"/>
</svg>
