<svg width="188" height="38" viewBox="0 0 188 38" fill="none" xmlns="http://www.w3.org/2000/svg">
<g clip-path="url(#clip0_4817_237807)">
<path d="M5.49618 32.4278C9.17464 35.9446 14.0498 37.9359 19.1385 38L17.6728 36.2349V29.4563C15.213 29.0318 12.9698 27.7858 11.3097 25.9217C9.73056 24.1727 8.81117 21.9276 8.71002 19.5734C8.60887 17.2193 9.3323 14.9036 10.7556 13.0256C12.1116 11.2262 13.9812 9.88014 16.1178 9.16486V2.31914C11.7551 2.88411 7.7266 4.95448 4.7276 8.17286C1.70257 11.3942 0.0142882 15.6445 0.00440733 20.0635C0.00234587 21.7381 0.249324 23.4037 0.737239 25.0056C1.70696 27.8248 3.33896 30.3701 5.49618 32.4278V32.4278Z" fill="#1F3E9A"/>
<path d="M32.4413 5.43815C28.9877 2.08302 24.4028 0.142893 19.59 0H19.4559C19.085 0 18.7141 5.72803e-06 18.3433 0.0268166V36.0249C20.9246 36.1449 23.5036 35.7429 25.926 34.843C28.3483 33.9432 30.5643 32.5639 32.4413 30.7879C34.1823 29.1674 35.5708 27.2057 36.5203 25.025C37.4697 22.8443 37.9597 20.4914 37.9597 18.113C37.9597 15.7346 37.4697 13.3817 36.5203 11.201C35.5708 9.02029 34.1823 7.05858 32.4413 5.43815V5.43815ZM28.5627 21.7258C28.0601 22.8823 27.3185 23.9194 26.3865 24.7688L25.971 25.1486V11.0729L26.3865 11.4527C27.3141 12.3061 28.055 13.3421 28.5627 14.4958C29.0667 15.6345 29.3284 16.8655 29.3313 18.1108C29.3323 19.3564 29.0704 20.5883 28.5627 21.7258V21.7258Z" fill="#1F3E9A"/>
<path d="M0.95166 12.3643C0.95166 12.3866 0.982936 12.4269 0.982936 12.4269L1.04996 12.4045C1.86054 10.6868 2.92894 9.10302 4.21812 7.70813C7.3266 4.37151 11.5018 2.22388 16.0239 1.63546L16.4975 1.59525L17.4225 0.11618C9.84842 0.857949 3.53891 5.74201 0.95166 12.3643Z" fill="#1F3E9A"/>
<path d="M10.0407 22.2575L9.96919 22.2262C9.95867 22.2448 9.94971 22.2643 9.94238 22.2843C10.3597 23.4557 10.9983 24.5358 11.8236 25.4659C13.3533 27.1831 15.4114 28.3418 17.6729 28.7592V27.4186C16.0697 27.2683 14.5302 26.7167 13.1963 25.8147C11.8625 24.9127 10.7772 23.6894 10.0407 22.2575V22.2575Z" fill="#1F3E9A"/>
<path d="M15.1033 24.0985C15.9215 23.7506 16.7879 23.5291 17.6727 23.4417V22.8608C16.6818 22.9546 15.7112 23.2002 14.795 23.5891C14.1768 22.5526 13.7414 21.4174 13.5081 20.2333C14.8841 19.9766 16.278 19.8272 17.6772 19.7865V19.2056C16.2459 19.2597 14.8208 19.4226 13.4142 19.6926C13.3547 19.2138 13.3233 18.7318 13.3204 18.2493C13.3184 17.7148 13.3618 17.1812 13.45 16.654C14.8432 16.9298 16.2574 17.0868 17.6772 17.1232V17.1232V16.5647C16.2915 16.5214 14.9111 16.372 13.5483 16.1178C13.788 14.9895 14.209 13.9075 14.795 12.9139C15.7098 13.3071 16.681 13.5529 17.6727 13.6423V13.6423V13.0793C16.7894 12.9836 15.9242 12.7624 15.1033 12.4224C15.7986 11.3756 16.6675 10.4552 17.6727 9.70109V9.27658C17.4899 9.29807 17.3091 9.33393 17.132 9.38382C16.136 10.1702 15.273 11.1117 14.576 12.1722C14.1413 11.9647 13.7256 11.7195 13.3338 11.4393C13.167 11.5585 13.0061 11.6836 12.8512 11.8147C13.2975 12.1363 13.7698 12.4203 14.2632 12.6637C13.6662 13.7045 13.2308 14.83 12.9719 16.0017C12.0537 15.8056 11.1492 15.5503 10.264 15.2375C10.1835 15.4118 10.112 15.5861 10.0405 15.7604C10.9642 16.0954 11.911 16.3628 12.8735 16.5602C12.7844 17.1248 12.7411 17.6956 12.744 18.2672C12.7462 18.7883 12.7775 19.309 12.8378 19.8267C11.9018 20.0315 10.9783 20.2896 10.0718 20.5997C10.1165 20.7874 10.1656 20.9751 10.2237 21.1583C11.1045 20.8327 12.0062 20.567 12.9227 20.3629C13.173 21.5925 13.626 22.7718 14.2632 23.8528C13.7151 24.1213 13.1956 24.4447 12.7127 24.818C12.8646 24.9431 13.021 25.0593 13.1595 25.171C13.6006 24.8632 14.0619 24.5855 14.5403 24.3398C15.0635 25.1318 15.6818 25.8566 16.3813 26.4981C16.7168 26.5536 17.0557 26.5864 17.3957 26.5964C16.5084 25.8858 15.7353 25.0434 15.1033 24.0985V24.0985Z" fill="#1F3E9A"/>
<path d="M46.7446 9.16486H46.5659C44.1261 9.16486 43.5586 7.66792 43.5586 6.60889C43.5586 5.54986 44.1261 4.05292 46.5659 4.05292H46.7446V3.26646H47.4685V4.05292H47.6473C50.087 4.05292 50.6546 5.54539 50.6546 6.60889C50.6546 7.67239 50.087 9.16486 47.6473 9.16486H47.4685V10.0854H46.7446V9.16486ZM46.7446 4.74106H46.548C44.7606 4.74106 44.3138 5.77328 44.3138 6.60889C44.3138 7.4445 44.7606 8.47671 46.548 8.47671H46.7446V4.74106ZM47.4685 8.47671H47.6651C49.4525 8.47671 49.8994 7.4445 49.8994 6.60889C49.8994 5.77328 49.4525 4.74106 47.6651 4.74106H47.4685V8.47671Z" fill="#1F3E9A"/>
<path d="M52.545 6.00566V8.68675L55.3333 5.67946V10.0854H54.6273V7.35961L51.8345 10.3669V6.00119L52.545 6.00566Z" fill="#1F3E9A"/>
<path d="M59.7795 10.0854H59.069V6.65358H57.6078V8.49012C57.6491 8.90885 57.5363 9.32827 57.2906 9.66981C57.172 9.81475 57.0217 9.93044 56.8512 10.0079C56.6807 10.0854 56.4947 10.1226 56.3075 10.1167C56.2361 10.1211 56.1644 10.1211 56.093 10.1167V9.46425C56.1449 9.47075 56.1975 9.47075 56.2494 9.46425C56.351 9.46802 56.4518 9.44528 56.5419 9.39827C56.632 9.35126 56.7083 9.28159 56.7633 9.19614C56.872 8.98079 56.9184 8.73937 56.8974 8.49906V6.01012H59.7706L59.7795 10.0854Z" fill="#1F3E9A"/>
<path d="M61.8438 6.00566V8.68675L64.6366 5.67946V10.0854H63.9261V7.35961L61.1333 10.3669V6.00119L61.8438 6.00566Z" fill="#1F3E9A"/>
<path d="M69.1185 6.00562H69.8245V10.0854H69.1185V9.51339C68.9555 9.72957 68.744 9.90446 68.5011 10.024C68.2582 10.1435 67.9906 10.2043 67.7198 10.2015C66.6876 10.2015 65.7358 9.47317 65.7358 8.03879C65.7358 6.6044 66.6787 5.90285 67.7198 5.90285C67.9903 5.89613 68.2584 5.95429 68.5017 6.07246C68.745 6.19063 68.9565 6.36538 69.1185 6.58206V6.00562ZM66.4642 8.04325C66.4642 8.93695 66.9557 9.57595 67.8048 9.57595C68.1793 9.53526 68.5256 9.35767 68.7772 9.07726C69.0288 8.79686 69.1679 8.4334 69.1679 8.05666C69.1679 7.67993 69.0288 7.31646 68.7772 7.03606C68.5256 6.75565 68.1793 6.57806 67.8048 6.53738C67.6139 6.53592 67.4249 6.57523 67.2505 6.65269C67.076 6.73015 66.9201 6.84397 66.7932 6.98654C66.6663 7.1291 66.5713 7.29712 66.5146 7.47935C66.4578 7.66159 66.4407 7.85384 66.4642 8.04325Z" fill="#1F3E9A"/>
<path d="M74.2706 10.0854H73.5601V6.65358H72.1034V8.49012C72.1443 8.90816 72.0332 9.32696 71.7906 9.66981C71.6713 9.81398 71.5209 9.92912 71.3506 10.0065C71.1802 10.084 70.9945 10.1216 70.8075 10.1167C70.7361 10.1211 70.6644 10.1211 70.593 10.1167V9.46425C70.6449 9.47075 70.6975 9.47075 70.7494 9.46425C70.8504 9.46813 70.9506 9.4454 71.04 9.39834C71.1294 9.35129 71.2049 9.28155 71.2588 9.19614C71.3712 8.98197 71.4193 8.73991 71.3973 8.49906V6.01012H74.2706V10.0854Z" fill="#1F3E9A"/>
<path d="M78.1135 3.53011H81.1029V4.21825H78.8374V10.0854H78.1135V3.53011Z" fill="#1F3E9A"/>
<path d="M84.2265 10.0854H83.5249V6.65358H82.0727V8.49012C82.114 8.90885 82.0012 9.32827 81.7554 9.66981C81.6369 9.81475 81.4865 9.93044 81.316 10.0079C81.1455 10.0854 80.9595 10.1226 80.7724 10.1167C80.7009 10.1211 80.6293 10.1211 80.5579 10.1167V9.46425C80.6098 9.47075 80.6623 9.47075 80.7143 9.46425C80.8158 9.46802 80.9166 9.44528 81.0067 9.39827C81.0968 9.35126 81.1731 9.28159 81.2281 9.19614C81.3368 8.98079 81.3833 8.73937 81.3622 8.49906V6.01012H84.2354L84.2265 10.0854Z" fill="#1F3E9A"/>
<path d="M88.7086 6.00563H89.4191V10.0854H88.7086V9.51339C88.5463 9.72922 88.3356 9.90394 88.0934 10.0235C87.8513 10.143 87.5844 10.204 87.3144 10.2015C86.2822 10.2015 85.3259 9.47317 85.3259 8.03879C85.3259 6.60441 86.2688 5.90285 87.3144 5.90285C87.5842 5.89611 87.8517 5.95429 88.0943 6.0725C88.3369 6.1907 88.5476 6.36546 88.7086 6.58207V6.00563ZM86.0543 8.04326C86.0543 8.93695 86.5458 9.57595 87.3948 9.57595C87.7694 9.53527 88.1157 9.35768 88.3673 9.07727C88.6189 8.79686 88.758 8.4334 88.758 8.05667C88.758 7.67993 88.6189 7.31647 88.3673 7.03606C88.1157 6.75565 87.7694 6.57806 87.3948 6.53738C87.204 6.53592 87.015 6.57524 86.8406 6.6527C86.6661 6.73016 86.5102 6.84398 86.3833 6.98654C86.2564 7.1291 86.1614 7.29712 86.1047 7.47936C86.0479 7.66159 86.0307 7.85385 86.0543 8.04326Z" fill="#1F3E9A"/>
<path d="M92.3144 6.00565C92.619 5.98458 92.9217 6.06813 93.1724 6.24248C93.2862 6.33494 93.3772 6.45235 93.4385 6.58562C93.4997 6.7189 93.5294 6.86446 93.5254 7.01106C93.5295 7.17464 93.4903 7.33639 93.4118 7.47997C93.3334 7.62356 93.2184 7.74389 93.0785 7.8288C93.2704 7.87046 93.4468 7.96487 93.5879 8.10137C93.6953 8.20154 93.78 8.32357 93.8363 8.45924C93.8926 8.5949 93.9191 8.74105 93.9141 8.88783C93.9192 9.06426 93.8836 9.23949 93.8099 9.39991C93.7363 9.56033 93.6267 9.70162 93.4896 9.8128C93.2046 9.99974 92.8697 10.0963 92.5289 10.0898H90.7683V6.00565H92.3144ZM92.2295 7.66793C92.3861 7.66901 92.5402 7.62895 92.6764 7.55175C92.7446 7.50025 92.7984 7.43214 92.8328 7.35392C92.8673 7.2757 92.8811 7.18998 92.873 7.1049C92.8769 7.02797 92.8608 6.95133 92.8264 6.88243C92.7919 6.81353 92.7402 6.75471 92.6764 6.71167C92.4995 6.6234 92.3006 6.5892 92.1044 6.61337H91.4788V7.64559L92.2295 7.66793ZM92.3546 9.45532C92.5767 9.47447 92.7994 9.42619 92.9936 9.3168C93.0642 9.26499 93.1222 9.19788 93.1632 9.1205C93.2042 9.04312 93.2272 8.95747 93.2305 8.86995C93.2313 8.78492 93.2133 8.70076 93.1777 8.6235C93.1422 8.54625 93.09 8.47781 93.0249 8.42311C92.8321 8.30954 92.609 8.25806 92.3859 8.27564H91.4922V9.47767L92.3546 9.45532Z" fill="#1F3E9A"/>
<path d="M95.3127 3.53012L97.3772 7.40429L99.0886 3.53905H99.8751L96.8991 10.0854H96.1126L96.9482 8.2533L94.428 3.52565L95.3127 3.53012Z" fill="#1F3E9A"/>
<path d="M103.445 6.00564V10.0854H102.739V6.65358H100.872V10.0854H100.166V6.00117L103.445 6.00564Z" fill="#1F3E9A"/>
<path d="M109.54 3.5301V9.40169H110.287V11.4661H109.598V10.0854H104.974V11.4617H104.285V9.39722C104.53 9.37191 104.761 9.27287 104.947 9.11324C105.134 8.95362 105.268 8.74097 105.331 8.50352C105.514 7.94921 105.592 7.36602 105.563 6.78315V3.51669L109.54 3.5301ZM106.274 6.79656C106.31 7.41521 106.229 8.03511 106.037 8.62417C105.93 8.9173 105.759 9.18291 105.537 9.40169H108.812V4.21824H106.274V6.79656Z" fill="#1F3E9A"/>
<path d="M112.016 6.34078L114.809 3.53011H115.792L112.722 6.58655L115.89 10.0898H114.885L112.204 7.07808L112.016 7.26576V10.0854H111.288V3.53011H112.016V6.34078Z" fill="#1F3E9A"/>
<path d="M122.307 6.00564V10.0854H121.601V6.65358H119.72V10.0854H119.009V6.00117L122.307 6.00564Z" fill="#1F3E9A"/>
<path d="M124.372 12.3866H123.666V6.00563H124.372V6.57759C124.539 6.36799 124.752 6.19889 124.994 6.08285C125.237 5.96681 125.502 5.90682 125.77 5.90732C127.048 5.90732 127.754 6.97082 127.754 8.07454C127.754 9.17826 127.039 10.206 125.797 10.206C125.522 10.2127 125.249 10.1538 125.001 10.0341C124.753 9.91443 124.537 9.73747 124.372 9.51786V12.3866ZM127.026 8.07454C127.044 7.88449 127.024 7.69269 126.965 7.51087C126.907 7.32906 126.812 7.16105 126.687 7.01715C126.561 6.87325 126.408 6.75648 126.235 6.67399C126.063 6.59149 125.876 6.545 125.685 6.53738C125.496 6.54696 125.311 6.59429 125.141 6.67656C124.971 6.75884 124.818 6.8744 124.694 7.01642C124.569 7.15845 124.473 7.32407 124.413 7.50349C124.354 7.68292 124.33 7.87253 124.345 8.06113C124.329 8.25173 124.352 8.44356 124.413 8.62478C124.474 8.806 124.572 8.97275 124.7 9.11472C124.828 9.2567 124.984 9.37088 125.158 9.45021C125.332 9.52954 125.521 9.57234 125.712 9.57595C125.899 9.56889 126.082 9.52378 126.251 9.44339C126.419 9.36301 126.57 9.24903 126.693 9.10846C126.816 8.96788 126.909 8.80367 126.966 8.62589C127.023 8.4481 127.044 8.26048 127.026 8.07454V8.07454Z" fill="#1F3E9A"/>
<path d="M129.55 6.00566V8.68675L132.343 5.67946V10.0854H131.633V7.35961L128.84 10.3669V6.00119L129.55 6.00566Z" fill="#1F3E9A"/>
<path d="M135.972 10.0854L137.062 3.16369L139.582 8.69568L142.147 3.15028L143.17 10.0854H142.42L141.803 5.52305L139.569 10.358L137.37 5.52752L136.7 10.0854H135.972Z" fill="#1F3E9A"/>
<path d="M149.265 5.08514L144.703 10.3848V3.53011H145.431V8.55269L149.989 3.25307V10.0854H149.265V5.08514Z" fill="#1F3E9A"/>
<path d="M156.263 3.5301V9.40169H157.009V11.4661H156.321V10.0854H151.683V11.4617H150.999V9.39722C151.243 9.37227 151.474 9.27327 151.66 9.11352C151.846 8.95377 151.979 8.74092 152.04 8.50352C152.225 7.94964 152.305 7.36632 152.277 6.78315V3.51669L156.263 3.5301ZM152.996 6.79656C153.031 7.41483 152.952 8.03422 152.764 8.62417C152.654 8.91673 152.482 9.18197 152.259 9.40169H155.535V4.21824H152.996V6.79656Z" fill="#1F3E9A"/>
<path d="M161.513 3.53009C162.099 3.47002 162.687 3.62922 163.162 3.97694C163.358 4.15434 163.514 4.37193 163.618 4.61486C163.722 4.85778 163.772 5.1203 163.766 5.38451C163.766 6.30949 163.185 7.22553 161.688 7.22553H161.049V10.0854H160.32V3.53009H161.513ZM161.067 6.54632H161.665C162.532 6.54632 163.055 6.09947 163.055 5.3577C163.055 4.31655 162.081 4.21824 161.607 4.21824H161.067V6.54632Z" fill="#1F3E9A"/>
<path d="M164.405 8.06115C164.401 7.63265 164.525 7.21276 164.76 6.85476C164.996 6.49675 165.332 6.21676 165.727 6.05033C166.122 5.88389 166.558 5.83851 166.978 5.91993C167.399 6.00135 167.786 6.20591 168.09 6.50765C168.395 6.80939 168.602 7.19471 168.687 7.61472C168.772 8.03473 168.73 8.4705 168.567 8.86674C168.404 9.26297 168.127 9.6018 167.771 9.84025C167.415 10.0787 166.996 10.206 166.567 10.206C166.282 10.2152 165.999 10.1662 165.733 10.0619C165.468 9.95756 165.226 9.80021 165.024 9.59942C164.822 9.39864 164.662 9.15865 164.556 8.89415C164.449 8.62965 164.398 8.3462 164.405 8.06115ZM165.133 8.06115C165.15 8.3417 165.248 8.61126 165.416 8.83654C165.584 9.06181 165.814 9.23295 166.079 9.32881C166.343 9.42467 166.629 9.44106 166.903 9.37596C167.176 9.31086 167.424 9.16712 167.617 8.96248C167.81 8.75784 167.938 8.50126 167.987 8.22443C168.035 7.9476 168.001 7.66263 167.89 7.40471C167.778 7.14679 167.593 6.92721 167.358 6.77307C167.123 6.61894 166.848 6.53701 166.567 6.53739C166.369 6.53174 166.172 6.5679 165.989 6.64351C165.805 6.71912 165.64 6.8325 165.504 6.97624C165.367 7.11999 165.262 7.29088 165.196 7.47781C165.13 7.66473 165.104 7.86349 165.12 8.06115H165.133Z" fill="#1F3E9A"/>
<path d="M173.015 7.14956C172.861 6.95894 172.666 6.80509 172.445 6.69919C172.224 6.59329 171.982 6.53801 171.737 6.53738C171.334 6.53738 170.948 6.69745 170.663 6.98237C170.378 7.26729 170.218 7.65373 170.218 8.05667C170.218 8.45961 170.378 8.84604 170.663 9.13097C170.948 9.41589 171.334 9.57595 171.737 9.57595C171.994 9.57507 172.247 9.51731 172.479 9.40682C172.711 9.29634 172.915 9.13587 173.078 8.93696V9.78151C172.706 10.067 172.251 10.2239 171.782 10.2284C171.496 10.2413 171.211 10.1954 170.943 10.0935C170.676 9.99165 170.432 9.83602 170.227 9.63622C170.023 9.43643 169.861 9.19672 169.752 8.93194C169.644 8.66717 169.591 8.38296 169.597 8.09689C169.589 7.80855 169.64 7.52161 169.747 7.25381C169.854 6.98601 170.015 6.74303 170.22 6.5399C170.425 6.33678 170.669 6.17782 170.938 6.07286C171.206 5.9679 171.494 5.91916 171.782 5.92967C172.235 5.92644 172.679 6.06382 173.051 6.3229L173.015 7.14956Z" fill="#1F3E9A"/>
<path d="M177.363 7.14956C177.209 6.95894 177.014 6.80509 176.793 6.69919C176.572 6.59329 176.33 6.53801 176.085 6.53738C175.682 6.53738 175.296 6.69745 175.011 6.98237C174.726 7.26729 174.566 7.65373 174.566 8.05667C174.566 8.45961 174.726 8.84604 175.011 9.13097C175.296 9.41589 175.682 9.57595 176.085 9.57595C176.342 9.57507 176.595 9.51731 176.827 9.40682C177.059 9.29634 177.263 9.13587 177.426 8.93696V9.78151C177.054 10.067 176.599 10.2239 176.13 10.2284C175.844 10.2413 175.559 10.1954 175.291 10.0935C175.024 9.99165 174.78 9.83602 174.575 9.63622C174.37 9.43643 174.209 9.19672 174.1 8.93194C173.992 8.66717 173.939 8.38296 173.945 8.09689C173.937 7.80855 173.988 7.52161 174.095 7.25381C174.202 6.98601 174.363 6.74303 174.568 6.5399C174.773 6.33678 175.017 6.17782 175.286 6.07286C175.554 5.9679 175.842 5.91916 176.13 5.92967C176.583 5.92644 177.027 6.06382 177.399 6.3229L177.363 7.14956Z" fill="#1F3E9A"/>
<path d="M179.177 6.00566V8.68675L181.97 5.67946V10.0854H181.26V7.35961L178.467 10.3669V6.00119L179.177 6.00566Z" fill="#1F3E9A"/>
<path d="M184.034 6.00566V8.68675L186.827 5.67946V10.0854H186.117V7.35961L183.324 10.3669V6.00119L184.034 6.00566Z" fill="#1F3E9A"/>
<path d="M46.6287 17.0562H48.5591L52.4422 26.4087L56.4951 17.0562H58.4255L60.8296 31.619H57.9965L56.7141 22.8071L52.7863 31.8156H52.0177L48.2597 22.8071L46.803 31.619H43.97L46.6287 17.0562Z" fill="#1F3E9A"/>
<path d="M72.3535 19.715H67.2193V22.9144H72.1346V25.314H67.2193V29.2194H72.3535V31.619H64.4309V17.3199H72.3535V19.715Z" fill="#1F3E9A"/>
<path d="M87.1667 17.3154V29.2194H88.6681V34.8408H86.0942V31.619H77.3002V34.8408H74.7219V29.2194C75.7541 29.2597 76.5674 28.3615 76.9964 27.289C77.2779 26.5786 77.5147 25.5017 77.5147 23.5355V17.3154H87.1667ZM80.2137 23.5355C80.2137 25.743 79.9813 26.8377 79.7222 27.5259C79.4876 28.1701 79.105 28.7503 78.605 29.2194H84.3783V19.715H80.2137V23.5355Z" fill="#1F3E9A"/>
<path d="M94.3701 17.3154V26.9226L102.266 16.9937H104.196V31.619H101.399V21.9671L93.5032 31.9005H91.5684V17.3154H94.3701Z" fill="#1F3E9A"/>
<path d="M111.314 22.8474H117.365V17.3154H120.166V31.6145H117.378V25.2514H111.314V31.619H108.548V17.3199H111.337L111.314 22.8474Z" fill="#1F3E9A"/>
<path d="M124.483 17.3154H127.271V29.2194H132.938V17.3154H135.726V29.2194H137.442V34.8408H134.868V31.619H124.483V17.3154Z" fill="#1F3E9A"/>
<path d="M148.291 19.715H143.144V22.9144H148.059V25.314H143.144V29.2194H148.291V31.619H140.355V17.3199H148.291V19.715Z" fill="#1F3E9A"/>
<path d="M154.855 22.8474H160.906V17.3154H163.694V31.6145H160.906V25.2514H154.855V31.619H152.067V17.3199H154.855V22.8474Z" fill="#1F3E9A"/>
<path d="M172.528 19.715V31.619H169.74V19.715H166.523V17.3154H175.746V19.715H172.528Z" fill="#1F3E9A"/>
<path d="M182.725 17.3154C184.334 17.3154 185.451 17.4852 186.501 18.4057C187.384 19.2723 187.903 20.4421 187.954 21.6777C188.006 22.9134 187.585 24.1223 186.778 25.0593C185.987 25.8502 184.808 26.3239 183.154 26.3239H181.367V31.619H178.579V17.3199L182.725 17.3154ZM181.385 23.9377H182.52C183.161 23.9992 183.803 23.8416 184.343 23.4908C184.588 23.2876 184.785 23.032 184.919 22.7428C185.053 22.4536 185.12 22.1382 185.116 21.8196C185.125 21.5038 185.057 21.1906 184.918 20.9066C184.78 20.6227 184.575 20.3763 184.321 20.1886C183.725 19.8405 183.037 19.6844 182.35 19.7418H181.385V23.9377Z" fill="#1F3E9A"/>
</g>
<defs>
<clipPath id="clip0_4817_237807">
<rect width="187.971" height="38" fill="white"/>
</clipPath>
</defs>
</svg>