<svg width="188" height="38" viewBox="0 0 188 38" fill="none" xmlns="http://www.w3.org/2000/svg">
<g clip-path="url(#clip0_4849_6159)">
<path d="M5.4963 32.4276C9.17476 35.9444 14.0499 37.9357 19.1386 37.9998L17.6729 36.2348V29.4561C15.2131 29.0317 12.9699 27.7856 11.3098 25.9215C9.73068 24.1726 8.81129 21.9275 8.71014 19.5733C8.60899 17.2191 9.33242 14.9034 10.7557 13.0255C12.1117 11.2261 13.9813 9.87998 16.1179 9.16469V2.31897C11.7552 2.88395 7.72672 4.95431 4.72772 8.17269C1.7027 11.394 0.0144102 15.6443 0.0045294 20.0633C0.00246794 21.7379 0.249446 23.4035 0.737361 25.0055C1.70708 27.8246 3.33908 30.3699 5.4963 32.4276Z" fill="white"/>
<path d="M32.4412 5.43815C28.9876 2.08302 24.4027 0.142893 19.5898 0H19.4558C19.0849 0 18.714 5.72803e-06 18.3431 0.0268166V36.0249C20.9245 36.1449 23.5035 35.7429 25.9258 34.843C28.3482 33.9432 30.5642 32.5639 32.4412 30.7879C34.1822 29.1674 35.5707 27.2057 36.5201 25.025C37.4696 22.8443 37.9595 20.4914 37.9595 18.113C37.9595 15.7346 37.4696 13.3817 36.5201 11.201C35.5707 9.02029 34.1822 7.05858 32.4412 5.43815ZM28.5626 21.7258C28.06 22.8823 27.3184 23.9194 26.3864 24.7688L25.9708 25.1486V11.0729L26.3864 11.4527C27.314 12.3061 28.0549 13.3421 28.5626 14.4958C29.0666 15.6345 29.3283 16.8655 29.3311 18.1108C29.3322 19.3564 29.0703 20.5883 28.5626 21.7258Z" fill="white"/>
<path d="M0.951782 12.3642C0.951782 12.3866 0.983058 12.4268 0.983058 12.4268L1.05008 12.4044C1.86066 10.6867 2.92906 9.10292 4.21824 7.70804C7.32672 4.37142 11.5019 2.22379 16.024 1.63537L16.4976 1.59516L17.4226 0.116089C9.84854 0.857857 3.53904 5.74191 0.951782 12.3642Z" fill="white"/>
<path d="M10.0407 22.2575L9.96919 22.2262C9.95867 22.2448 9.94971 22.2642 9.94238 22.2843C10.3597 23.4556 10.9983 24.5358 11.8236 25.4658C13.3533 27.183 15.4114 28.3418 17.6729 28.7591V27.4186C16.0697 27.2683 14.5302 26.7167 13.1963 25.8147C11.8625 24.9127 10.7772 23.6893 10.0407 22.2575Z" fill="white"/>
<path d="M15.1034 24.0986C15.9216 23.7506 16.788 23.5291 17.6728 23.4417V22.8608C16.6819 22.9546 15.7113 23.2003 14.7951 23.5892C14.1769 22.5526 13.7416 21.4175 13.5082 20.2333C14.8842 19.9766 16.2781 19.8272 17.6773 19.7865V19.2056C16.246 19.2598 14.821 19.4226 13.4144 19.6926C13.3548 19.2138 13.3235 18.7319 13.3205 18.2493C13.3185 17.7149 13.3619 17.1812 13.4501 16.6541C14.8433 16.9299 16.2575 17.0868 17.6773 17.1233V16.5647C16.2916 16.5214 14.9113 16.372 13.5484 16.1179C13.7881 14.9895 14.2091 13.9075 14.7951 12.914C15.7099 13.3071 16.6812 13.5529 17.6728 13.6423V13.0793C16.7895 12.9836 15.9243 12.7624 15.1034 12.4224C15.7987 11.3756 16.6676 10.4553 17.6728 9.70112V9.27661C17.4901 9.2981 17.3093 9.33396 17.1321 9.38385C16.1361 10.1702 15.2731 11.1117 14.5762 12.1722C14.1414 11.9648 13.7257 11.7196 13.3339 11.4394C13.1671 11.5585 13.0062 11.6836 12.8513 11.8147C13.2977 12.1364 13.77 12.4203 14.2634 12.6637C13.6663 13.7046 13.2309 14.83 12.972 16.0017C12.0538 15.8056 11.1493 15.5503 10.2641 15.2376C10.1836 15.4118 10.1121 15.5861 10.0406 15.7604C10.9643 16.0955 11.9112 16.3628 12.8737 16.5602C12.7846 17.1248 12.7412 17.6957 12.7441 18.2672C12.7463 18.7884 12.7776 19.309 12.8379 19.8267C11.902 20.0315 10.9785 20.2896 10.0719 20.5998C10.1166 20.7874 10.1658 20.9751 10.2239 21.1583C11.1046 20.8328 12.0063 20.567 12.9228 20.3629C13.1731 21.5925 13.6262 22.7719 14.2634 23.8528C13.7152 24.1213 13.1957 24.4447 12.7128 24.818C12.8647 24.9431 13.0211 25.0593 13.1597 25.171C13.6007 24.8632 14.062 24.5856 14.5404 24.3399C15.0636 25.1318 15.6819 25.8566 16.3814 26.4982C16.717 26.5536 17.0558 26.5864 17.3958 26.5965C16.5085 25.8858 15.7355 25.0434 15.1034 24.0986Z" fill="white"/>
<path d="M46.7449 9.16476H46.5661C44.1263 9.16476 43.5588 7.66781 43.5588 6.60878C43.5588 5.54975 44.1263 4.05281 46.5661 4.05281H46.7449V3.26636H47.4688V4.05281H47.6475C50.0873 4.05281 50.6548 5.54528 50.6548 6.60878C50.6548 7.67228 50.0873 9.16476 47.6475 9.16476H47.4688V10.0853H46.7449V9.16476ZM46.7449 4.74095H46.5483C44.7609 4.74095 44.314 5.77318 44.314 6.60878C44.314 7.44439 44.7609 8.47661 46.5483 8.47661H46.7449V4.74095ZM47.4688 8.47661H47.6654C49.4528 8.47661 49.8996 7.44439 49.8996 6.60878C49.8996 5.77318 49.4528 4.74095 47.6654 4.74095H47.4688V8.47661Z" fill="white"/>
<path d="M52.545 6.00552V8.68661L55.3333 5.67932V10.0852H54.6273V7.35947L51.8345 10.3668V6.00105L52.545 6.00552Z" fill="white"/>
<path d="M59.7794 10.0853H59.0689V6.65347H57.6077V8.49001C57.649 8.90874 57.5362 9.32817 57.2905 9.6697C57.1719 9.81464 57.0215 9.93033 56.8511 10.0078C56.6806 10.0853 56.4946 10.1225 56.3074 10.1165C56.236 10.121 56.1643 10.121 56.0929 10.1165V9.46415C56.1448 9.47064 56.1974 9.47064 56.2493 9.46415C56.3509 9.46791 56.4516 9.44517 56.5417 9.39816C56.6319 9.35115 56.7082 9.28149 56.7632 9.19604C56.8719 8.98068 56.9183 8.73926 56.8972 8.49895V6.01001H59.7705L59.7794 10.0853Z" fill="white"/>
<path d="M61.8438 6.00552V8.68661L64.6366 5.67932V10.0852H63.9261V7.35947L61.1333 10.3668V6.00105L61.8438 6.00552Z" fill="white"/>
<path d="M69.1185 6.00552H69.8245V10.0852H69.1185V9.51328C68.9555 9.72946 68.744 9.90435 68.5011 10.0239C68.2582 10.1434 67.9906 10.2042 67.7198 10.2014C66.6876 10.2014 65.7358 9.47306 65.7358 8.03868C65.7358 6.6043 66.6787 5.90274 67.7198 5.90274C67.9903 5.89603 68.2584 5.95419 68.5017 6.07236C68.745 6.19053 68.9565 6.36527 69.1185 6.58196V6.00552ZM66.4642 8.04315C66.4642 8.93684 66.9557 9.57584 67.8048 9.57584C68.1793 9.53516 68.5256 9.35757 68.7772 9.07716C69.0288 8.79675 69.1679 8.43329 69.1679 8.05656C69.1679 7.67982 69.0288 7.31636 68.7772 7.03595C68.5256 6.75554 68.1793 6.57795 67.8048 6.53727C67.6139 6.53581 67.4249 6.57513 67.2505 6.65259C67.076 6.73005 66.9201 6.84387 66.7932 6.98643C66.6663 7.12899 66.5713 7.29701 66.5146 7.47925C66.4578 7.66148 66.4407 7.85374 66.4642 8.04315Z" fill="white"/>
<path d="M74.2707 10.0853H73.5602V6.65347H72.1035V8.49001C72.1444 8.90806 72.0334 9.32686 71.7907 9.6697C71.6715 9.81387 71.521 9.92902 71.3507 10.0064C71.1804 10.0838 70.9947 10.1215 70.8076 10.1165C70.7362 10.121 70.6646 10.121 70.5931 10.1165V9.46415C70.6451 9.47064 70.6976 9.47064 70.7495 9.46415C70.8505 9.46802 70.9507 9.44529 71.0401 9.39823C71.1295 9.35118 71.205 9.28145 71.2589 9.19604C71.3713 8.98186 71.4194 8.73981 71.3975 8.49895V6.01001H74.2707V10.0853Z" fill="white"/>
<path d="M78.1136 3.53003H81.1031V4.21817H78.8375V10.0853H78.1136V3.53003Z" fill="white"/>
<path d="M84.2265 10.0853H83.5249V6.65347H82.0727V8.49001C82.114 8.90874 82.0012 9.32817 81.7554 9.6697C81.6369 9.81464 81.4865 9.93033 81.316 10.0078C81.1455 10.0853 80.9595 10.1225 80.7724 10.1165C80.7009 10.121 80.6293 10.121 80.5579 10.1165V9.46415C80.6098 9.47064 80.6623 9.47064 80.7143 9.46415C80.8158 9.46791 80.9166 9.44517 81.0067 9.39816C81.0968 9.35115 81.1731 9.28149 81.2281 9.19604C81.3368 8.98068 81.3833 8.73926 81.3622 8.49895V6.01001H84.2354L84.2265 10.0853Z" fill="white"/>
<path d="M88.7083 6.00552H89.4188V10.0852H88.7083V9.51328C88.546 9.72912 88.3353 9.90383 88.0932 10.0234C87.851 10.1429 87.5842 10.2039 87.3142 10.2014C86.2819 10.2014 85.3257 9.47307 85.3257 8.03868C85.3257 6.6043 86.2685 5.90275 87.3142 5.90275C87.584 5.89601 87.8514 5.95419 88.094 6.07239C88.3367 6.19059 88.5473 6.36535 88.7083 6.58196V6.00552ZM86.054 8.04315C86.054 8.93685 86.5456 9.57584 87.3946 9.57584C87.7691 9.53516 88.1154 9.35757 88.367 9.07716C88.6186 8.79675 88.7578 8.4333 88.7578 8.05656C88.7578 7.67983 88.6186 7.31636 88.367 7.03595C88.1154 6.75555 87.7691 6.57795 87.3946 6.53727C87.2037 6.53581 87.0148 6.57513 86.8403 6.65259C86.6659 6.73005 86.51 6.84387 86.3831 6.98643C86.2562 7.12899 86.1612 7.29701 86.1044 7.47925C86.0477 7.66149 86.0305 7.85374 86.054 8.04315Z" fill="white"/>
<path d="M92.3144 6.00564C92.619 5.98457 92.9217 6.06812 93.1724 6.24247C93.2862 6.33493 93.3772 6.45234 93.4385 6.58561C93.4997 6.71888 93.5294 6.86445 93.5254 7.01105C93.5295 7.17462 93.4903 7.33637 93.4118 7.47996C93.3334 7.62354 93.2184 7.74387 93.0785 7.82878C93.2704 7.87045 93.4468 7.96485 93.5879 8.10136C93.6953 8.20153 93.78 8.32356 93.8363 8.45922C93.8926 8.59488 93.9191 8.74103 93.9141 8.88782C93.9192 9.06425 93.8836 9.23948 93.8099 9.3999C93.7363 9.56031 93.6267 9.7016 93.4896 9.81279C93.2046 9.99972 92.8697 10.0963 92.5289 10.0898H90.7683V6.00564H92.3144ZM92.2295 7.66791C92.3861 7.669 92.5402 7.62893 92.6764 7.55174C92.7446 7.50024 92.7984 7.43213 92.8328 7.35391C92.8673 7.27569 92.8811 7.18996 92.873 7.10489C92.8769 7.02796 92.8608 6.95132 92.8264 6.88242C92.7919 6.81352 92.7402 6.7547 92.6764 6.71166C92.4995 6.62338 92.3006 6.58919 92.1044 6.61335H91.4788V7.64557L92.2295 7.66791ZM92.3546 9.45531C92.5767 9.47445 92.7994 9.42618 92.9936 9.31679C93.0642 9.26497 93.1222 9.19787 93.1632 9.12049C93.2042 9.04311 93.2272 8.95746 93.2305 8.86994C93.2313 8.78491 93.2133 8.70074 93.1777 8.62349C93.1422 8.54623 93.09 8.4778 93.0249 8.42309C92.8321 8.30953 92.609 8.25804 92.3859 8.27563H91.4922V9.47765L92.3546 9.45531Z" fill="white"/>
<path d="M95.3129 3.52998L97.3773 7.40415L99.0887 3.53892H99.8752L96.8992 10.0852H96.1127L96.9483 8.25316L94.4281 3.52551L95.3129 3.52998Z" fill="white"/>
<path d="M103.445 6.00556V10.0853H102.739V6.6535H100.872V10.0853H100.166V6.0011L103.445 6.00556Z" fill="white"/>
<path d="M109.54 3.53001V9.4016H110.287V11.466H109.599V10.0853H104.974V11.4616H104.286V9.39713C104.53 9.37182 104.761 9.27277 104.948 9.11315C105.134 8.95353 105.268 8.74088 105.331 8.50343C105.514 7.94912 105.592 7.36592 105.564 6.78306V3.5166L109.54 3.53001ZM106.274 6.79647C106.31 7.41512 106.23 8.03502 106.037 8.62408C105.93 8.91721 105.759 9.18282 105.537 9.4016H108.812V4.21815H106.274V6.79647Z" fill="white"/>
<path d="M112.016 6.3407L114.809 3.53003H115.792L112.722 6.58647L115.89 10.0898H114.885L112.204 7.07801L112.016 7.26568V10.0853H111.288V3.53003H112.016V6.3407Z" fill="white"/>
<path d="M122.307 6.00556V10.0853H121.601V6.6535H119.72V10.0853H119.009V6.0011L122.307 6.00556Z" fill="white"/>
<path d="M124.371 12.3867H123.665V6.00566H124.371V6.57762C124.539 6.36802 124.752 6.19892 124.994 6.08288C125.236 5.96684 125.501 5.90685 125.77 5.90735C127.048 5.90735 127.754 6.97085 127.754 8.07457C127.754 9.17829 127.039 10.206 125.797 10.206C125.522 10.2127 125.249 10.1538 125.001 10.0341C124.753 9.91447 124.537 9.7375 124.371 9.51789V12.3867ZM127.026 8.07457C127.044 7.88452 127.023 7.69272 126.965 7.5109C126.907 7.32909 126.812 7.16109 126.686 7.01718C126.561 6.87328 126.407 6.75651 126.235 6.67402C126.063 6.59152 125.876 6.54503 125.685 6.53741C125.496 6.54699 125.311 6.59432 125.141 6.67659C124.97 6.75887 124.818 6.87443 124.693 7.01645C124.568 7.15848 124.473 7.3241 124.413 7.50352C124.353 7.68295 124.33 7.87256 124.345 8.06117C124.329 8.25176 124.352 8.44359 124.413 8.62481C124.474 8.80603 124.572 8.97278 124.7 9.11475C124.828 9.25673 124.984 9.37091 125.158 9.45024C125.332 9.52958 125.521 9.57237 125.712 9.57598C125.899 9.56892 126.082 9.52381 126.25 9.44343C126.419 9.36304 126.569 9.24906 126.692 9.10849C126.815 8.96791 126.908 8.8037 126.966 8.62592C127.023 8.44813 127.043 8.26051 127.026 8.07457Z" fill="white"/>
<path d="M129.55 6.00552V8.68661L132.343 5.67932V10.0852H131.633V7.35947L128.84 10.3668V6.00105L129.55 6.00552Z" fill="white"/>
<path d="M135.972 10.0854L137.062 3.16367L139.582 8.69566L142.147 3.15027L143.17 10.0854H142.42L141.803 5.52303L139.569 10.3579L137.37 5.52751L136.7 10.0854H135.972Z" fill="white"/>
<path d="M149.265 5.085L144.703 10.3846V3.52997H145.431V8.55255L149.989 3.25293V10.0852H149.265V5.085Z" fill="white"/>
<path d="M156.263 3.53001V9.4016H157.009V11.466H156.321V10.0853H151.683V11.4616H150.999V9.39713C151.243 9.37218 151.474 9.27318 151.66 9.11343C151.846 8.95368 151.979 8.74083 152.04 8.50343C152.225 7.94954 152.305 7.36623 152.277 6.78306V3.5166L156.263 3.53001ZM152.996 6.79647C153.031 7.41474 152.952 8.03412 152.764 8.62408C152.654 8.91664 152.482 9.18188 152.259 9.4016H155.535V4.21815H152.996V6.79647Z" fill="white"/>
<path d="M161.513 3.53C162.099 3.46993 162.687 3.62913 163.162 3.97685C163.358 4.15425 163.514 4.37184 163.618 4.61476C163.722 4.85769 163.772 5.12021 163.766 5.38442C163.766 6.3094 163.185 7.22544 161.688 7.22544H161.049V10.0853H160.32V3.53H161.513ZM161.067 6.54623H161.665C162.532 6.54623 163.055 6.09938 163.055 5.35761C163.055 4.31645 162.081 4.21815 161.607 4.21815H161.067V6.54623Z" fill="white"/>
<path d="M164.405 8.06124C164.401 7.63274 164.525 7.21286 164.76 6.85485C164.996 6.49684 165.332 6.21686 165.727 6.05042C166.122 5.88398 166.557 5.8386 166.978 5.92002C167.399 6.00144 167.786 6.206 168.09 6.50774C168.394 6.80948 168.602 7.1948 168.687 7.61481C168.772 8.03482 168.73 8.47059 168.567 8.86683C168.404 9.26306 168.127 9.60189 167.771 9.84034C167.415 10.0788 166.996 10.2061 166.567 10.2061C166.282 10.2153 165.998 10.1663 165.733 10.062C165.468 9.95766 165.226 9.8003 165.024 9.59952C164.821 9.39873 164.662 9.15875 164.556 8.89424C164.449 8.62974 164.398 8.34629 164.405 8.06124ZM165.133 8.06124C165.149 8.34179 165.248 8.61135 165.416 8.83663C165.584 9.06191 165.814 9.23304 166.078 9.3289C166.343 9.42476 166.629 9.44115 166.903 9.37605C167.176 9.31095 167.424 9.16721 167.617 8.96257C167.81 8.75793 167.938 8.50136 167.987 8.22452C168.035 7.94769 168.001 7.66272 167.89 7.4048C167.778 7.14688 167.593 6.9273 167.358 6.77317C167.123 6.61903 166.848 6.5371 166.567 6.53748C166.369 6.53183 166.172 6.56799 165.989 6.6436C165.805 6.71921 165.64 6.83259 165.503 6.97633C165.367 7.12008 165.262 7.29097 165.196 7.4779C165.13 7.66482 165.104 7.86358 165.119 8.06124H165.133Z" fill="white"/>
<path d="M173.015 7.14964C172.861 6.95902 172.667 6.80516 172.445 6.69926C172.224 6.59337 171.982 6.53809 171.737 6.53746C171.334 6.53746 170.948 6.69752 170.663 6.98245C170.378 7.26737 170.218 7.65381 170.218 8.05675C170.218 8.45969 170.378 8.84612 170.663 9.13104C170.948 9.41596 171.334 9.57603 171.737 9.57603C171.994 9.57514 172.247 9.51739 172.479 9.4069C172.711 9.29641 172.915 9.13594 173.078 8.93703V9.78158C172.706 10.0671 172.251 10.2239 171.782 10.2284C171.496 10.2413 171.211 10.1954 170.943 10.0936C170.676 9.99173 170.432 9.83609 170.227 9.6363C170.023 9.4365 169.861 9.1968 169.753 8.93202C169.644 8.66725 169.591 8.38303 169.597 8.09696C169.589 7.80863 169.64 7.52169 169.747 7.25388C169.854 6.98608 170.015 6.74311 170.22 6.53998C170.425 6.33686 170.669 6.1779 170.938 6.07294C171.206 5.96797 171.494 5.91924 171.782 5.92974C172.235 5.92651 172.679 6.06389 173.051 6.32297L173.015 7.14964Z" fill="white"/>
<path d="M177.363 7.14964C177.209 6.95902 177.014 6.80516 176.793 6.69926C176.572 6.59337 176.33 6.53809 176.085 6.53746C175.682 6.53746 175.296 6.69752 175.011 6.98245C174.726 7.26737 174.566 7.65381 174.566 8.05675C174.566 8.45969 174.726 8.84612 175.011 9.13104C175.296 9.41596 175.682 9.57603 176.085 9.57603C176.342 9.57514 176.595 9.51739 176.827 9.4069C177.059 9.29641 177.263 9.13594 177.426 8.93703V9.78158C177.054 10.0671 176.599 10.2239 176.13 10.2284C175.844 10.2413 175.559 10.1954 175.291 10.0936C175.024 9.99173 174.78 9.83609 174.575 9.6363C174.37 9.4365 174.209 9.1968 174.1 8.93202C173.992 8.66725 173.939 8.38303 173.945 8.09696C173.937 7.80863 173.988 7.52169 174.095 7.25388C174.202 6.98608 174.363 6.74311 174.568 6.53998C174.773 6.33686 175.017 6.1779 175.286 6.07294C175.554 5.96797 175.842 5.91924 176.13 5.92974C176.583 5.92651 177.027 6.06389 177.399 6.32297L177.363 7.14964Z" fill="white"/>
<path d="M179.177 6.00552V8.68661L181.97 5.67932V10.0852H181.26V7.35947L178.467 10.3668V6.00105L179.177 6.00552Z" fill="white"/>
<path d="M184.035 6.00552V8.68661L186.827 5.67932V10.0852H186.117V7.35947L183.324 10.3668V6.00105L184.035 6.00552Z" fill="white"/>
<path d="M46.6287 17.0563H48.5591L52.4422 26.4088L56.4951 17.0563H58.4255L60.8296 31.6191H57.9965L56.7141 22.8072L52.7863 31.8157H52.0177L48.2597 22.8072L46.803 31.6191H43.97L46.6287 17.0563Z" fill="white"/>
<path d="M72.3538 19.7151H67.2195V22.9145H72.1348V25.3141H67.2195V29.2195H72.3538V31.6191H64.4312V17.3199H72.3538V19.7151Z" fill="white"/>
<path d="M87.1668 17.3156V29.2196H88.6682V34.841H86.0943V31.6192H77.3004V34.841H74.722V29.2196C75.7543 29.2598 76.5675 28.3617 76.9965 27.2892C77.278 26.5787 77.5148 25.5018 77.5148 23.5357V17.3156H87.1668ZM80.2138 23.5357C80.2138 25.7431 79.9815 26.8379 79.7223 27.526C79.4878 28.1703 79.1051 28.7504 78.6052 29.2196H84.3785V19.7151H80.2138V23.5357Z" fill="white"/>
<path d="M94.37 17.3155V26.9227L102.266 16.9938H104.196V31.6191H101.399V21.9672L93.5031 31.9006H91.5682V17.3155H94.37Z" fill="white"/>
<path d="M111.314 22.8475H117.365V17.3156H120.167V31.6147H117.378V25.2516H111.314V31.6192H108.548V17.32H111.337L111.314 22.8475Z" fill="white"/>
<path d="M124.483 17.3156H127.271V29.2196H132.937V17.3156H135.726V29.2196H137.442V34.841H134.868V31.6192H124.483V17.3156Z" fill="white"/>
<path d="M148.291 19.7151H143.143V22.9145H148.059V25.3141H143.143V29.2195H148.291V31.6191H140.355V17.3199H148.291V19.7151Z" fill="white"/>
<path d="M154.855 22.8475H160.906V17.3156H163.694V31.6147H160.906V25.2516H154.855V31.6192H152.067V17.32H154.855V22.8475Z" fill="white"/>
<path d="M172.528 19.7151V31.6192H169.74V19.7151H166.523V17.3156H175.746V19.7151H172.528Z" fill="white"/>
<path d="M182.725 17.3156C184.334 17.3156 185.451 17.4854 186.501 18.4059C187.384 19.2725 187.903 20.4423 187.954 21.6779C188.006 22.9135 187.585 24.1225 186.778 25.0594C185.987 25.8504 184.808 26.324 183.154 26.324H181.367V31.6192H178.579V17.32L182.725 17.3156ZM181.385 23.9379H182.52C183.161 23.9993 183.803 23.8418 184.343 23.491C184.588 23.2877 184.785 23.0321 184.919 22.743C185.053 22.4538 185.12 22.1384 185.116 21.8198C185.125 21.504 185.057 21.1908 184.918 20.9068C184.78 20.6228 184.575 20.3765 184.321 20.1888C183.725 19.8407 183.037 19.6846 182.35 19.7419H181.385V23.9379Z" fill="white"/>
</g>
<defs>
<clipPath id="clip0_4849_6159">
<rect width="187.971" height="38" fill="white"/>
</clipPath>
</defs>
</svg>
