<svg width="156" height="44" viewBox="0 0 156 44" fill="none" xmlns="http://www.w3.org/2000/svg">
<path fill-rule="evenodd" clip-rule="evenodd" d="M14.6607 8.70335H17.0604V0.381836H26.315V8.70335H34.6495V17.8076H26.315V23.4253C20.6694 28.6689 17.0669 35.0912 15.021 43.4974H8.7647V35.1997H0.379272V26.002H8.7647V8.70335H14.6607Z" fill="white"/>
<path fill-rule="evenodd" clip-rule="evenodd" d="M14.6613 8.32179H16.6807V0.381502V0H17.0601H26.3154H26.6948V0.381502V8.32179H34.65H35.0293V8.70329V17.8079V18.1894H34.65H26.6948V23.4245V23.5905L26.5719 23.7045C23.778 26.2994 21.4891 29.1865 19.6469 32.4627C17.8027 35.7428 16.4027 39.4184 15.3884 43.5866L15.3176 43.8787H15.0209H8.7642H8.38488V43.4974V35.5814H0.379322H0V35.1999V26.0015V25.62H0.379322H8.38488V8.70329V8.32179H8.7642H14.6613ZM17.0601 9.08479H14.6613H9.14351V26.0015V26.383H8.7642H0.758634V34.8184H8.7642H9.14351V35.1999V43.1159H14.7254C15.7507 38.9981 17.1533 35.353 18.9893 32.0874C20.844 28.7894 23.1407 25.878 25.9363 23.2593V17.8079V17.4264H26.3154H34.2706V9.08479H26.3154H25.9363V8.70329V0.763004H17.4394V8.70329V9.08479H17.0601Z" fill="white"/>
<path fill-rule="evenodd" clip-rule="evenodd" d="M17.8121 0.991211H25.5519V9.41H33.9224V17.1942H25.5519L25.5373 23.6409C25.0864 24.0906 24.0651 25.1407 23.6407 25.6082L17.8121 25.613V17.1942H9.44153V9.41H17.8121V0.991211Z" fill="#F54268"/>
<path fill-rule="evenodd" clip-rule="evenodd" d="M42.5923 17.6895C29.2646 23.5724 21.8356 31.0146 18.8492 43.8038H30.3774C33.0035 39.5365 35.1161 36.9277 38.6519 35.0966L38.5677 43.6749C40.8583 40.1541 43.8587 37.2205 46.9476 34.9196V43.8566L53.7625 43.899L53.9308 17.7423C50.0188 19.2234 46.3167 21.0008 42.6151 23.6663L42.5923 17.6895Z" fill="white"/>
<path fill-rule="evenodd" clip-rule="evenodd" d="M64.236 33.5066L60.9474 33.5082L60.9548 31.5047H64.2351V26.5054H55.2638V43.9154C61.4478 43.9164 67.2426 43.9955 73.4266 43.9965C77.5171 43.0832 79.7374 40.7267 80.1698 38.2868C80.2865 35.471 80.2865 34.8078 80.2865 31.992C79.3811 27.9216 75.0384 26.6123 72.5077 26.4961H66.2425V37.2002H70.99V31.0947C73.0331 31.0946 74.57 31.9755 74.6867 34.3823C74.6673 36.1695 74.862 38.1134 72.2937 38.6876H60.965V37.2198H64.236V33.5066Z" fill="white"/>
<path fill-rule="evenodd" clip-rule="evenodd" d="M127.045 43.9127L127.076 28.2516H116.181C116.09 31.8447 115.989 33.4372 114.397 33.4491C112.782 33.461 112.142 32.2797 112.197 28.2174L110.095 28.2126H108.398C108.39 31.8398 108.219 33.4739 106.128 33.371C104.707 33.3012 104.131 31.902 104.244 28.2308H95.7865C95.4517 28.0212 95.0316 27.833 94.7584 27.6284C89.9168 24.0041 94.7915 21.3854 97.1613 24.8279C97.4046 25.1814 97.8397 25.821 98.0633 26.2741H99.9892V18.6814L89.4844 18.6494C85.5241 18.7168 82.734 20.8432 81.0196 23.5588C79.0931 26.6102 78.7507 30.5717 80.8631 32.3991L87.502 37.3535C88.6175 38.5538 87.36 40.7211 85.3236 39.6902L79.8709 36.9976L79.8405 44.0004H90.1137C94.5861 43.9946 97.6407 41.4217 99.6975 38.6608C99.7394 38.6045 99.795 38.6416 99.8323 38.7408C100.121 39.509 100.953 43.6369 104.758 43.9126C107.834 44.1356 109.948 40.263 110.033 40.2158C110.066 40.1977 110.084 40.1932 110.131 40.2531C110.916 41.2559 115.135 48.2974 121.189 39.9206L121.208 43.8735L127.045 43.9127Z" fill="white"/>
<ellipse cx="123.825" cy="23.5244" rx="2.75166" ry="2.76752" fill="white"/>
<path fill-rule="evenodd" clip-rule="evenodd" d="M135.081 43.9228L136.638 43.8081C137.252 43.7629 139.105 43.1774 139.953 42.4051C141.236 41.2378 141.978 39.7633 141.909 38.753C141.711 35.8604 136.994 35.8389 135.589 34.2754C135.366 34.0286 135.197 33.8296 135.172 33.4889C135.036 31.6398 138.552 31.9867 139.438 33.7261L141.142 33.7546L141.153 28.3809C139.375 28.2224 133.93 28.153 132.188 28.4461C127.977 29.1551 125.275 34.124 128.247 36.1521C129.768 37.1902 131.183 38.0258 132.651 39.1981C132.84 39.4204 132.922 39.6902 132.916 39.9531C132.522 41.158 129.769 39.74 127.794 38.7995L127.813 43.9152L135.081 43.9228Z" fill="white"/>
<path fill-rule="evenodd" clip-rule="evenodd" d="M149.168 43.9228L150.724 43.8081C151.339 43.7629 153.191 43.1774 154.04 42.4051C155.323 41.2378 156.064 39.7633 155.995 38.753C155.798 35.8604 151.081 35.8389 149.675 34.2754C149.453 34.0286 149.283 33.8296 149.259 33.4889C149.122 31.6398 152.638 31.9867 153.524 33.7261L155.228 33.7546L155.24 28.3809C153.462 28.2224 148.016 28.153 146.274 28.4461C142.063 29.1551 139.362 34.124 142.333 36.1521C143.854 37.1902 145.27 38.0258 146.738 39.1981C146.926 39.4204 147.008 39.6902 147.003 39.9531C146.608 41.158 143.856 39.74 141.881 38.7995L141.9 43.9152L149.168 43.9228Z" fill="white"/>
</svg>
