<svg width="136" height="96" viewBox="0 0 136 96" fill="none" xmlns="http://www.w3.org/2000/svg">
<rect x="66" y="23" width="42" height="55" rx="8" fill="#F1F4FC"/>
<rect x="33" y="14" width="56" height="69" rx="5" fill="#4576E6"/>
<rect x="37" y="18" width="48" height="61" rx="3" fill="#F1F4FC"/>
<rect x="42" y="28" width="11" height="11" rx="5.5" fill="#D7E0F5"/>
<rect x="57.3999" y="28.875" width="22.5" height="3.00872" rx="1.50436" fill="#4576E6"/>
<rect x="51" y="47" width="29" height="3" rx="1.5" fill="#90B1FC"/>
<rect x="51" y="65" width="25" height="3" rx="1.5" fill="#90B1FC"/>
<rect x="57.3999" y="34.8926" width="16.5" height="3.00873" rx="1.50436" fill="#4576E6"/>
<rect x="51" y="56" width="21" height="3" rx="1.5" fill="#90B1FC"/>
<path d="M42 48.936L43.5 50.4404L46.5 47.4316" stroke="#FF9690" stroke-linecap="round"/>
<path d="M42 57.9624L43.5 59.4667L46.5 56.458" stroke="#FF9690" stroke-linecap="round"/>
<path d="M42 66.9882L43.5 68.4926L46.5 65.4839" stroke="#FF9690" stroke-linecap="round"/>
<rect x="98.0001" y="30.5215" width="5.99999" height="49.6439" fill="#FF718F"/>
<path d="M98 24C98 23.4477 98.4477 23 99 23H103C103.552 23 104 23.4477 104 24V29.0174H98V24Z" fill="#90B1FC"/>
<path d="M98.0001 80.1655H104L101 87.6873L98.0001 80.1655Z" fill="#F2D0B2"/>
<rect x="49" y="18" width="25" height="4" fill="#4576E6"/>
</svg>
