<svg width="209" height="187" viewBox="0 0 209 187" fill="none" xmlns="http://www.w3.org/2000/svg">
    <g clip-path="url(#clip0_3924_157561)">
        <path
            d="M10.6963 109.083C18.8757 98.1155 21.488 105.244 41.8047 91.2945C53.3902 83.3575 60.4902 71.0192 69.2214 60.3404C78.1923 49.373 89.49 41.6045 102.707 36.5537C128.204 26.837 160.778 26.9332 180.039 48.9882C185.916 55.7226 186.948 64.5013 186.924 73.1838C186.852 95.7921 190.881 117.775 203.81 137.04C251.797 208.456 -60.8582 205.29 10.6963 109.083Z"
            fill="#F0F5F5" />
        <path
            d="M194.983 74.4059C202.011 83.0403 176.945 83.7378 176.106 100.021C175.29 116.327 164.784 132.827 151.591 132.153C141.373 131.648 138.399 143.313 137.559 148.604C137.319 150.143 137.271 151.13 137.271 151.13C137.271 151.13 136.48 150.336 135.328 148.965C130.963 143.722 121.32 129.796 128.18 116.327C136.864 99.275 147.61 103.797 153.606 92.4925C159.603 81.2124 187.979 65.7715 194.983 74.4059Z"
            fill="#8EDFE8" />
        <path
            d="M176.825 81.2617C173.827 83.1377 171.116 85.4466 168.694 87.972C166.271 90.5215 164.136 93.3595 162.577 96.5102C161.786 98.0736 161.138 99.7091 160.682 101.393C160.586 101.826 160.442 102.234 160.37 102.667L160.107 103.966C159.915 104.856 159.579 105.746 159.147 106.54C158.26 108.175 156.964 109.498 155.597 110.652C154.206 111.807 152.743 112.817 151.256 113.779C148.281 115.703 145.259 117.531 142.62 119.768C139.982 121.981 137.727 124.674 136.456 127.801C135.161 130.928 134.849 134.391 135.137 137.806C135.424 141.222 136.288 144.613 137.367 147.908L137.607 148.629C137.367 150.169 137.319 151.155 137.319 151.155C137.319 151.155 136.528 150.361 135.376 148.99L135.257 148.605C134.201 145.166 133.386 141.606 133.194 137.975C133.098 136.147 133.146 134.319 133.41 132.491C133.673 130.663 134.177 128.883 134.921 127.176C135.664 125.492 136.648 123.905 137.823 122.486C138.998 121.067 140.318 119.816 141.733 118.71C144.563 116.449 147.658 114.693 150.656 112.865C152.143 111.951 153.63 110.989 154.973 109.931C156.317 108.849 157.564 107.622 158.404 106.155C158.835 105.433 159.147 104.64 159.339 103.798L159.651 102.499C159.747 102.066 159.891 101.633 160.011 101.2C160.538 99.4926 161.234 97.8331 162.074 96.2697C163.753 93.119 165.983 90.305 168.502 87.8037C170.997 85.3023 173.779 83.0656 176.825 81.2617Z"
            fill="white" />
        <path
            d="M190.21 116.277C195.727 123.084 176.01 123.613 175.362 136.432C174.714 149.251 166.463 162.239 156.077 161.71C148.041 161.301 145.691 170.489 145.043 174.65C144.851 175.852 144.803 176.646 144.803 176.646C144.803 176.646 144.179 176.021 143.292 174.938C139.862 170.826 132.282 159.882 137.679 149.276C144.515 135.855 152.959 139.415 157.66 130.54C162.409 121.617 184.717 109.495 190.21 116.277Z"
            fill="#8EDFE8" />
        <path
            d="M175.938 121.665C173.587 123.156 171.452 124.96 169.533 126.956C167.638 128.953 165.959 131.189 164.712 133.667C164.088 134.893 163.585 136.192 163.225 137.515C163.153 137.852 163.033 138.164 162.985 138.501L162.769 139.511C162.625 140.209 162.361 140.906 162.002 141.531C161.306 142.806 160.298 143.864 159.219 144.778C158.14 145.692 156.964 146.486 155.789 147.232C153.462 148.747 151.088 150.166 149.001 151.922C146.914 153.653 145.163 155.77 144.156 158.247C143.148 160.7 142.884 163.442 143.124 166.112C143.34 168.806 144.012 171.451 144.875 174.049L145.067 174.626C144.875 175.829 144.827 176.622 144.827 176.622C144.827 176.622 144.203 175.997 143.316 174.915L143.22 174.602C142.404 171.908 141.757 169.094 141.589 166.232C141.517 164.789 141.541 163.346 141.757 161.927C141.973 160.508 142.357 159.089 142.932 157.742C143.508 156.419 144.299 155.169 145.211 154.062C146.122 152.956 147.178 151.97 148.281 151.08C150.488 149.3 152.959 147.929 155.309 146.486C156.485 145.764 157.636 145.019 158.715 144.177C159.771 143.335 160.754 142.373 161.426 141.219C161.762 140.642 162.026 140.016 162.169 139.367L162.409 138.357C162.481 138.02 162.601 137.683 162.697 137.346C163.105 136 163.657 134.701 164.328 133.45C165.648 130.973 167.399 128.76 169.365 126.788C171.356 124.84 173.539 123.084 175.938 121.665Z"
            fill="white" />
        <path
            d="M51.2313 121.665C53.582 123.156 55.7168 124.96 57.6357 126.956C59.5307 128.953 61.2097 131.189 62.4571 133.667C63.0807 134.893 63.5844 136.192 63.9442 137.515C64.0162 137.852 64.1361 138.164 64.1841 138.501L64.4 139.511C64.5439 140.209 64.8077 140.906 65.1675 141.531C65.8632 142.806 66.8706 143.864 67.95 144.778C69.0294 145.692 70.2047 146.486 71.3801 147.232C73.7068 148.747 76.0814 150.166 78.1683 151.922C80.2551 153.653 82.0061 155.77 83.0136 158.247C84.021 160.7 84.2849 163.442 84.045 166.112C83.8291 168.806 83.1575 171.451 82.294 174.049L82.1021 174.626C82.294 175.829 82.3419 176.622 82.3419 176.622C82.3419 176.622 82.9656 175.997 83.8531 174.915L83.949 174.602C84.7646 171.908 85.4122 169.094 85.5801 166.232C85.6521 164.789 85.6281 163.346 85.4122 161.927C85.1964 160.508 84.8126 159.089 84.2369 157.742C83.6612 156.419 82.8697 155.169 81.9582 154.062C81.0467 152.956 79.9913 151.97 78.8879 151.08C76.6811 149.3 74.2345 147.929 71.8598 146.486C70.6845 145.764 69.5331 145.019 68.4537 144.177C67.3983 143.335 66.4148 142.373 65.7432 141.219C65.4074 140.642 65.1675 140.016 64.9996 139.367L64.7598 138.357C64.6878 138.02 64.5679 137.683 64.4719 137.346C64.0642 136 63.5125 134.701 62.8408 133.45C61.5216 130.973 59.7706 128.76 57.8037 126.788C55.7888 124.84 53.606 123.084 51.2313 121.665Z"
            fill="white" />
        <path
            d="M32.162 74.4059C25.134 83.0403 50.2 83.7378 51.0395 100.021C51.855 116.327 62.3612 132.827 75.5538 132.153C85.7721 131.648 88.7464 143.313 89.5859 148.604C89.8258 150.143 89.8738 151.13 89.8738 151.13C89.8738 151.13 90.6653 150.336 91.8167 148.965C96.1823 143.722 105.825 129.796 98.9647 116.327C90.2816 99.275 79.5356 103.797 73.5389 92.4925C67.5423 81.2124 39.1661 65.7715 32.162 74.4059Z"
            fill="#8EDFE8" />
        <path
            d="M50.3439 81.2617C53.3182 83.1377 56.0527 85.4466 58.4753 87.972C60.898 90.5215 63.0328 93.3595 64.5919 96.5102C65.3835 98.0736 66.0311 99.7091 66.4868 101.393C66.5828 101.826 66.7267 102.234 66.7987 102.667L67.0625 103.966C67.2544 104.856 67.5902 105.746 68.022 106.54C68.9095 108.175 70.2048 109.498 71.572 110.652C72.9632 111.807 74.4264 112.817 75.9136 113.779C78.8879 115.703 81.9102 117.531 84.5487 119.768C87.1873 121.981 89.442 124.674 90.7133 127.801C92.0086 130.928 92.3204 134.391 92.0326 137.806C91.7447 141.222 90.8812 144.613 89.8018 147.908L89.5619 148.629C89.8018 150.169 89.8498 151.155 89.8498 151.155C89.8498 151.155 90.6413 150.361 91.7927 148.99L91.9126 148.605C92.968 145.166 93.7836 141.606 93.9755 137.975C94.0714 136.147 94.0234 134.319 93.7596 132.491C93.4957 130.663 92.992 128.883 92.2484 127.176C91.5048 125.492 90.5214 123.905 89.3461 122.486C88.1707 121.067 86.8515 119.816 85.4362 118.71C82.6058 116.449 79.5116 114.693 76.5132 112.865C75.0261 111.951 73.5389 110.989 72.1956 109.931C70.8524 108.849 69.6051 107.622 68.7656 106.155C68.3338 105.433 68.022 104.64 67.8301 103.798L67.5183 102.499C67.4223 102.066 67.2784 101.633 67.1585 101.2C66.6308 99.4926 65.9351 97.8331 65.0956 96.2697C63.4166 93.119 61.1858 90.305 58.6672 87.8037C56.1486 85.3023 53.3662 83.0656 50.3439 81.2617Z"
            fill="white" />
        <path
            d="M152.359 43.1377H75.122C72.0277 43.1377 69.5331 45.6631 69.5331 48.7417V172.341C69.5331 175.444 72.0517 177.945 75.122 177.945H152.335C153.99 177.945 155.549 177.224 156.628 175.949C157.468 174.939 157.948 173.664 157.948 172.341V48.7417C157.948 45.6631 155.453 43.1377 152.359 43.1377ZM154.254 172.341C154.254 172.919 154.014 173.327 153.798 173.568C153.438 174.001 152.911 174.241 152.359 174.241H75.122C74.0666 174.241 73.227 173.4 73.227 172.341V48.7417C73.227 47.6834 74.0666 46.8416 75.122 46.8416H152.335C153.39 46.8416 154.23 47.6834 154.23 48.7417V172.341H154.254Z"
            fill="#28A9C6" />
        <path
            d="M154.254 48.7428V172.342C154.254 172.92 154.014 173.329 153.798 173.569C153.438 174.002 152.911 174.243 152.359 174.243H75.122C74.0666 174.243 73.2271 173.401 73.2271 172.342V48.7428C73.2271 47.6846 74.0666 46.8428 75.122 46.8428H152.335C153.39 46.8428 154.254 47.7086 154.254 48.7428Z"
            fill="#C1EFF4" />
        <path d="M131.203 52.7578H85.9399V58.0732H131.203V52.7578Z" fill="#D4D4D4" />
        <path d="M95.6305 75.2216H85.9399V65.5049H95.6305V75.2216ZM87.3072 73.8507H94.2393V66.8999H87.3072V73.8507Z"
            fill="#D4D4D4" />
        <path
            d="M144.179 67.5727H100.572C100.188 67.5727 99.8761 67.26 99.8761 66.8752C99.8761 66.4904 100.188 66.1777 100.572 66.1777H144.179C144.563 66.1777 144.875 66.4904 144.875 66.8752C144.875 67.26 144.563 67.5727 144.179 67.5727Z"
            fill="#D4D4D4" />
        <path
            d="M144.179 71.0112H100.572C100.188 71.0112 99.8761 70.6985 99.8761 70.3137C99.8761 69.9289 100.188 69.6162 100.572 69.6162H144.179C144.563 69.6162 144.875 69.9289 144.875 70.3137C144.875 70.7226 144.563 71.0112 144.179 71.0112Z"
            fill="#D4D4D4" />
        <path
            d="M123.551 74.476H100.572C100.188 74.476 99.8761 74.1634 99.8761 73.7785C99.8761 73.3937 100.188 73.0811 100.572 73.0811H123.551C123.935 73.0811 124.247 73.3937 124.247 73.7785C124.223 74.1634 123.935 74.476 123.551 74.476Z"
            fill="#D4D4D4" />
        <path
            d="M101.339 75.6329C101.267 75.6329 101.195 75.6088 101.123 75.5607C100.932 75.4405 100.884 75.1759 101.003 74.9835L113.405 55.7425C113.525 55.55 113.788 55.5019 113.98 55.6222C114.172 55.7425 114.22 56.007 114.1 56.1994L101.699 75.4405C101.603 75.5607 101.483 75.6329 101.339 75.6329Z"
            fill="#28A9C6" />
        <path
            d="M97.5255 77.8914C97.5255 77.8914 99.8522 71.2532 102.683 73.9469C105.585 76.6888 99.1326 81.451 99.1326 81.451L97.5255 77.8914Z"
            fill="#F2D0B2" />
        <path
            d="M32.5219 132.152C32.6658 132.128 32.7617 132.104 32.7617 132.104C32.7617 132.104 32.5458 132.248 32.5219 132.152Z"
            fill="#8EDFE8" />
        <path d="M95.6305 91.7226H85.9399V82.0059H95.6305V91.7226ZM87.3072 90.3517H94.2393V83.4008H87.3072V90.3517Z"
            fill="#D4D4D4" />
        <path
            d="M144.179 84.0737H100.572C100.188 84.0737 99.8761 83.761 99.8761 83.3762C99.8761 82.9914 100.188 82.6787 100.572 82.6787H144.179C144.563 82.6787 144.875 82.9914 144.875 83.3762C144.875 83.761 144.563 84.0737 144.179 84.0737Z"
            fill="#D4D4D4" />
        <path
            d="M144.179 87.5122H100.572C100.188 87.5122 99.8761 87.1995 99.8761 86.8147C99.8761 86.4299 100.188 86.1172 100.572 86.1172H144.179C144.563 86.1172 144.875 86.4299 144.875 86.8147C144.875 87.1995 144.563 87.5122 144.179 87.5122Z"
            fill="#D4D4D4" />
        <path
            d="M123.551 90.977H100.572C100.188 90.977 99.8761 90.6643 99.8761 90.2795C99.8761 89.8947 100.188 89.582 100.572 89.582H123.551C123.935 89.582 124.247 89.8947 124.247 90.2795C124.223 90.6643 123.935 90.977 123.551 90.977Z"
            fill="#D4D4D4" />
        <path
            d="M101.675 79.8876C101.675 79.8876 94.2873 93.4525 92.3924 95.6893C90.4975 97.9261 77.1849 101.221 77.1849 101.221L76.5133 100.139L72.6754 93.9336L87.4272 90.2297L97.4775 77.29C97.5015 77.29 100.356 77.29 101.675 79.8876Z"
            fill="white" />
        <path
            d="M56.6044 171.26L59.027 170.947L61.3297 173.16C61.3297 173.16 64.5679 175.084 65.4794 176.84C65.9112 177.706 65.3355 178.884 65.3355 178.884L54.5895 175.18C54.5895 175.18 55.5729 172.246 56.6044 171.26Z"
            fill="#28A9C6" />
        <path
            d="M72.3396 173.664L74.5464 172.582L77.4248 173.929C77.4248 173.929 81.1187 174.699 82.5339 176.069C83.2296 176.743 83.0616 178.066 83.0616 178.066L71.692 178.042C71.692 178.042 71.668 174.963 72.3396 173.664Z"
            fill="#28A9C6" />
        <path
            d="M79.4876 150.84C79.4636 150.912 79.4636 150.984 79.4396 151.056C79.3916 151.345 79.3197 151.705 79.2477 152.138C78.4082 157.67 77.3528 173.424 77.3528 173.424C77.3528 173.424 75.5538 174.987 71.8119 173.568L72.1717 153.678L72.2676 148.675L71.8359 145.163L69.701 127.75L70.0369 127.293L74.1865 121.713L74.5463 121.232L79.8714 125.008C79.8714 125.008 79.8714 125.417 79.8954 126.091C79.8954 126.379 79.9194 126.716 79.9194 127.101C79.9913 132.681 80.1832 147.857 79.4876 150.84Z"
            fill="#28A9C6" />
        <path
            d="M77.7845 127.268C77.7845 127.268 76.945 130.275 75.7936 134.195C74.6663 138.067 73.2271 142.806 72.0038 146.485C71.7879 147.159 71.572 147.784 71.3561 148.385C71.2122 148.818 71.0683 149.203 70.9244 149.564C70.8764 149.708 70.8284 149.829 70.7804 149.949C70.6605 150.262 70.5406 150.526 70.4446 150.791C70.2527 151.272 70.0848 151.632 69.9169 151.897C69.6531 152.354 69.2933 153.1 68.8615 154.038C68.7656 154.278 68.6456 154.519 68.5257 154.759C65.8632 160.796 61.3297 172.87 61.3297 172.87C61.3297 172.87 58.1875 173.928 55.9807 171.403L61.0419 155.745L61.1378 155.457L62.5291 151.151L63.6324 147.736L63.6804 147.52L67.2544 126.98L70.4446 124.623L73.7788 122.146L73.8267 122.194L75.7936 124.719L77.7845 127.268Z"
            fill="#28B7C6" />
        <path
            d="M80.9028 126.932C80.9028 126.932 80.543 126.98 79.9194 127.052C79.8234 127.052 79.7515 127.076 79.6555 127.076C78.5761 127.196 76.897 127.34 74.8822 127.364C74.7383 127.364 74.5943 127.364 74.4504 127.364C73.1072 127.388 71.644 127.34 70.0849 127.22C69.1734 127.148 68.2379 127.052 67.3024 126.907L64.9757 98.3105L67.4703 94.0294L70.5646 93.6445L72.1477 93.8129L72.7234 93.885L74.7622 95.737L77.8325 98.5269L79.2237 111.346L79.9913 118.297L80.9028 126.932Z"
            fill="#5CDEEC" />
        <path
            d="M92.4164 95.6899C90.5215 97.9267 77.2089 101.222 77.2089 101.222L76.5373 100.139L75.7937 94.9443C81.9822 98.6964 92.2005 95.738 92.4164 95.6899Z"
            fill="#D4D4D4" />
        <path
            d="M58.4513 128.881C58.4513 128.881 60.6581 134.966 57.3719 135.279C54.0378 135.591 55.453 127.727 55.453 127.727L58.4513 128.881Z"
            fill="#F2D0B2" />
        <path
            d="M66.1271 101.126C66.1271 101.126 65.6713 101.823 65.0237 102.882C63.4886 105.335 60.826 109.664 59.8906 111.636L59.2669 129.675C59.2669 129.675 56.9402 130.541 54.7814 129.675C54.7814 129.675 52.8145 114.619 53.3182 111.227C54.6375 102.353 61.6656 95.4258 61.6656 95.4258L66.1271 101.126Z"
            fill="white" />
        <g opacity="0.8">
            <path opacity="0.8"
                d="M79.9194 127.077C80.0154 132.705 80.2073 147.857 79.5117 150.839C79.4877 150.911 79.4877 150.984 79.4637 151.056C79.4157 151.344 79.3437 151.705 79.2718 152.138L74.1147 153.389C74.6664 144.947 74.6903 135.879 74.4265 127.413C74.3785 125.465 74.2826 123.541 74.2106 121.689C73.515 106.104 72.1238 93.8857 72.1238 93.8857L72.6995 93.9579L74.7383 95.8098L77.8086 98.5998L79.1998 111.419L79.9674 118.37L80.9029 126.98C80.9029 126.932 80.5431 127.004 79.9194 127.077Z"
                fill="#ECECEC" />
        </g>
        <path opacity="0.5"
            d="M70.9243 149.565C70.8764 149.709 70.8284 149.829 70.7804 149.95C70.6605 150.262 70.5406 150.527 70.4446 150.791C70.2527 151.273 70.0848 151.633 69.9169 151.898C69.6531 152.355 69.2933 153.1 68.8615 154.038C67.1824 154.688 64.6159 155 61.0419 155.746L61.1378 155.457L62.529 151.152L63.6324 147.737L63.6804 147.521L70.9243 149.565Z"
            fill="#28B7C6" />
        <path
            d="M63.3686 168.014C63.3206 168.014 63.2726 168.014 63.2247 167.99C63.0088 167.893 62.9128 167.653 62.9848 167.46C63.0328 167.364 66.9186 157.575 69.5571 151.731C72.1717 145.935 76.1535 131.552 76.2014 131.408C76.2734 131.191 76.4893 131.071 76.7051 131.119C76.921 131.191 77.0649 131.408 76.993 131.624C76.945 131.768 72.9393 146.223 70.3247 152.068C67.7102 157.888 63.8243 167.653 63.7764 167.749C63.6804 167.917 63.5365 168.014 63.3686 168.014Z"
            fill="#D4D4D4" />
        <path
            d="M84.7407 146.726L79.5835 147.712C79.5835 147.712 78.3123 102.88 72.7234 93.957C74.7143 94.2697 77.4008 95.2558 79.1758 98.2141C82.2221 103.385 84.7407 146.726 84.7407 146.726Z"
            fill="white" />
        <path
            d="M65.0237 102.881C63.4885 105.334 60.826 109.664 59.8905 111.636L59.2669 129.674C59.2669 129.674 58.7152 116.037 58.5473 111.131C58.3554 106.248 61.0419 100.861 61.0419 100.861L64.52 99.5381C64.496 99.5381 64.7358 101.077 65.0237 102.881Z"
            fill="#D4D4D4" />
        <path
            d="M71.3801 149.709C71.3801 149.709 66.5588 152.235 58.5233 150.647C58.5233 150.647 59.4348 144.707 60.2264 137.227C60.5142 134.485 60.802 131.527 60.9939 128.592C61.2098 125.682 61.3537 122.772 61.3777 120.078C61.3777 119.525 61.3777 118.948 61.3777 118.395V118.371C61.3777 115.677 61.3297 113.079 61.2578 110.674C61.2578 110.65 61.2578 110.65 61.2578 110.626C61.0179 102.208 60.6101 95.8345 61.8575 95.1851C63.8004 94.1509 67.4463 94.0547 67.4463 94.0547C67.4463 94.0547 69.1014 102.93 70.3007 122.147C70.7805 129.723 71.1643 138.862 71.3801 149.709Z"
            fill="white" />
        <path
            d="M67.4464 94.0784L67.2784 89.4846L69.1734 89.4606L71.0443 89.4365L72.1237 93.9822L72.1477 94.1025C72.1477 94.0784 73.3471 99.3217 67.4464 94.0784Z"
            fill="#F2D0B2" />
        <path
            d="M72.1237 93.9582C67.4703 93.8379 67.3264 89.7973 67.3264 89.7973L69.1734 89.4606L71.0443 89.4365L72.1237 93.9582Z"
            fill="#F2D0B2" />
        <path
            d="M71.3081 91.1426C65.9831 92.0325 66.223 85.5386 66.223 85.5386L66.4388 83.374L66.5348 82.412L66.7746 81.474L66.8706 81.1372L67.5422 81.0891L71.3561 80.8486L72.6753 82.5082C72.6753 82.5082 72.8672 82.8689 73.0831 83.4221C73.9706 85.5386 75.5057 90.4451 71.3081 91.1426Z"
            fill="#F2D0B2" />
        <path d="M95.6305 108.221H85.9399V98.5039H95.6305V108.221ZM87.3072 106.85H94.2393V99.8989H87.3072V106.85Z"
            fill="#D4D4D4" />
        <path
            d="M144.179 100.572H100.572C100.188 100.572 99.8761 100.259 99.8761 99.8742C99.8761 99.4894 100.188 99.1768 100.572 99.1768H144.179C144.563 99.1768 144.875 99.4894 144.875 99.8742C144.875 100.259 144.563 100.572 144.179 100.572Z"
            fill="#D4D4D4" />
        <path
            d="M144.179 104.01H100.572C100.188 104.01 99.8761 103.698 99.8761 103.313C99.8761 102.928 100.188 102.615 100.572 102.615H144.179C144.563 102.615 144.875 102.928 144.875 103.313C144.875 103.722 144.563 104.01 144.179 104.01Z"
            fill="#D4D4D4" />
        <path
            d="M123.551 107.475H100.572C100.188 107.475 99.8761 107.162 99.8761 106.778C99.8761 106.393 100.188 106.08 100.572 106.08H123.551C123.935 106.08 124.247 106.393 124.247 106.778C124.223 107.162 123.935 107.475 123.551 107.475Z"
            fill="#D4D4D4" />
        <path
            d="M73.1072 83.471C71.3322 84.6014 68.3818 84.0722 68.3818 84.0722C68.3578 85.3951 67.8781 86.3571 67.8781 86.3571L66.4629 83.3988L65.7913 82.0038L66.7987 81.4987L67.5663 81.138L71.3801 80.8975L72.6994 82.557C72.6994 82.557 72.8673 82.9178 73.1072 83.471Z"
            fill="#F2D0B2" />
        <path d="M95.6305 124.719H85.9399V115.002H95.6305V124.719ZM87.3072 123.348H94.2393V116.397H87.3072V123.348Z"
            fill="#D4D4D4" />
        <path
            d="M144.179 117.07H100.572C100.188 117.07 99.8761 116.757 99.8761 116.372C99.8761 115.987 100.188 115.675 100.572 115.675H144.179C144.563 115.675 144.875 115.987 144.875 116.372C144.875 116.757 144.563 117.07 144.179 117.07Z"
            fill="#D4D4D4" />
        <path
            d="M144.179 120.535H100.572C100.188 120.535 99.8761 120.222 99.8761 119.837C99.8761 119.452 100.188 119.14 100.572 119.14H144.179C144.563 119.14 144.875 119.452 144.875 119.837C144.875 120.222 144.563 120.535 144.179 120.535Z"
            fill="#D4D4D4" />
        <path
            d="M123.551 123.973H100.572C100.188 123.973 99.8761 123.66 99.8761 123.276C99.8761 122.891 100.188 122.578 100.572 122.578H123.551C123.935 122.578 124.247 122.891 124.247 123.276C124.223 123.66 123.935 123.973 123.551 123.973Z"
            fill="#D4D4D4" />
        <path d="M95.6305 141.22H85.9399V131.503H95.6305V141.22ZM87.3072 139.849H94.2393V132.898H87.3072V139.849Z"
            fill="#D4D4D4" />
        <path
            d="M144.179 133.571H100.572C100.188 133.571 99.8761 133.258 99.8761 132.873C99.8761 132.488 100.188 132.176 100.572 132.176H144.179C144.563 132.176 144.875 132.488 144.875 132.873C144.875 133.258 144.563 133.571 144.179 133.571Z"
            fill="#D4D4D4" />
        <path
            d="M144.179 137.036H100.572C100.188 137.036 99.8761 136.723 99.8761 136.338C99.8761 135.953 100.188 135.641 100.572 135.641H144.179C144.563 135.641 144.875 135.953 144.875 136.338C144.875 136.723 144.563 137.036 144.179 137.036Z"
            fill="#D4D4D4" />
        <path
            d="M123.551 140.474H100.572C100.188 140.474 99.8761 140.161 99.8761 139.777C99.8761 139.392 100.188 139.079 100.572 139.079H123.551C123.935 139.079 124.247 139.392 124.247 139.777C124.247 140.161 123.935 140.474 123.551 140.474Z"
            fill="#D4D4D4" />
        <path
            d="M67.8541 83.7361C67.8541 83.7361 70.6126 83.4475 72.5555 82.7019C74.4744 81.9563 73.6588 78.4929 71.1882 78.1081C68.6936 77.7233 63.5125 79.0461 63.2007 80.7297C62.601 84.121 65.6473 88.6907 67.3024 89.773C67.3264 89.7971 68.07 87.7287 67.8541 83.7361Z"
            fill="#28B7C6" />
        <path
            d="M66.343 86.5018C66.439 87.079 66.9667 87.4879 67.5423 87.3917C68.118 87.2955 68.5258 86.7663 68.4298 86.1891C68.3339 85.6119 67.8062 85.203 67.2305 85.2992C66.6548 85.3954 66.271 85.9245 66.343 86.5018Z"
            fill="#F2D0B2" />
        <path
            d="M90.1857 122.459L87.5711 119.213C87.3313 118.9 87.3792 118.443 87.6911 118.202C88.0029 117.962 88.4586 118.01 88.6985 118.323L90.2576 120.271L96.9738 113.079C97.2377 112.791 97.6934 112.767 98.0053 113.055C98.2931 113.32 98.3171 113.777 98.0293 114.09L90.1857 122.459Z"
            fill="#28A9C6" />
        <path d="M138.495 153.292H85.6041V166.063H138.495V153.292Z" fill="#D4D4D4" />
        <path
            d="M189.778 111.59V171.478C189.778 171.862 189.754 172.223 189.682 172.608C189.394 174.268 188.483 175.711 187.187 176.673C186.108 177.466 184.789 177.947 183.35 177.947H166.583C163.009 177.947 160.13 175.061 160.13 171.478V111.59H189.778Z"
            fill="#C9C9C9" />
        <path d="M193.184 104.014H156.7V111.59H193.184V104.014Z" fill="#41C0CD" />
        <path d="M189.778 116.039H169.365V163.54H189.778V116.039Z" fill="#F2D0B2" />
        <path d="M189.778 105.961H160.107V109.665H189.778V105.961Z" fill="white" />
        <g opacity="0.5">
            <path opacity="0.5"
                d="M189.682 172.609C189.394 174.268 188.483 175.711 187.187 176.673C186.108 177.467 184.789 177.948 183.35 177.948H166.583C163.009 177.948 160.13 175.062 160.13 171.478V155.532C161.546 166.476 167.638 179.511 189.682 172.609Z"
                fill="#C9C9C9" />
        </g>
        <path
            d="M25.9255 132.177C25.7336 132.129 25.6136 132.104 25.6136 132.104C25.6136 132.104 25.9015 132.297 25.9255 132.177Z"
            fill="#8EDFE8" />
        <path
            d="M41.2529 152.957H25.9015V144.972C25.9015 142.327 28.0603 140.162 30.6988 140.162H36.4556C37.6789 140.162 38.8303 140.619 39.7417 141.461C40.7012 142.375 41.2529 143.65 41.2529 144.972V152.957ZM27.4606 151.394H39.6698V144.972C39.6698 144.058 39.31 143.217 38.6384 142.615C38.0387 142.062 37.2471 141.75 36.4316 141.75H30.6748C28.8998 141.75 27.4366 143.193 27.4366 144.996V151.394H27.4606Z"
            fill="#28B7C6" />
        <path
            d="M50.7037 149.206V174.436C50.7037 176.312 49.1925 177.851 47.2976 177.851H19.8569C17.9859 177.851 16.4508 176.312 16.4508 174.436V149.206C16.4508 147.33 17.962 145.791 19.8569 145.791H47.3216C48.257 145.791 49.1206 146.176 49.7202 146.801C50.3199 147.427 50.7037 148.268 50.7037 149.206Z"
            fill="#28A9C6" />
        <path
            d="M50.7037 149.206V157.841H16.4508V149.206C16.4508 147.33 17.962 145.791 19.8569 145.791H47.3216C48.257 145.791 49.1206 146.176 49.7202 146.801C50.3199 147.427 50.7037 148.268 50.7037 149.206Z"
            fill="#5CDEEC" />
        <path d="M35.856 154.521H31.2745V161.159H35.856V154.521Z" fill="#8EDFE8" />
        <g opacity="0.5">
            <path opacity="0.5"
                d="M47.2976 177.851H19.8569C17.9859 177.851 16.4508 176.311 16.4508 174.435V157.84C16.4508 157.84 21.8478 176.528 47.2976 177.851Z"
                fill="#28B7C6" />
        </g>
        <path
            d="M138.543 103.242C136.576 102.112 135.16 99.923 135.616 97.2292C135.928 95.2811 137.103 92.8519 138.543 90.4708C136.12 89.3164 133.026 88.4265 129.212 87.8492C124.007 87.0555 120.625 84.8669 119.185 81.3554C117.242 76.5932 119.209 69.6665 124.63 62.3789L125.95 63.365C120.888 70.1956 118.969 76.5211 120.697 80.7541C121.896 83.7124 124.846 85.5644 129.452 86.2619C133.481 86.8631 136.792 87.8252 139.406 89.0999C142.308 84.6264 145.81 80.6098 146.05 80.3452L147.274 81.4275C147.226 81.4997 143.724 85.5163 140.845 89.8936C142.404 90.8556 143.652 91.938 144.539 93.1886C146.026 95.257 146.554 97.6381 146.098 100.308C145.571 103.434 142.956 104.421 140.629 104.036C139.91 103.867 139.214 103.627 138.543 103.242ZM139.982 91.2405C138.614 93.4772 137.511 95.7381 137.223 97.4938C136.768 100.188 138.806 102.04 140.917 102.4C142.404 102.641 144.131 102.16 144.515 100.019C144.899 97.8065 144.467 95.8343 143.244 94.1507C142.452 93.0443 141.373 92.0823 139.982 91.2405Z"
            fill="#41C0CD" />
        <path d="M124.89 60.6845L123.453 63.2129L125.975 64.6537L127.412 62.1254L124.89 60.6845Z" fill="#28B7C6" />
        <path
            d="M143.796 63.0774L150.752 45.1111C151.591 42.9706 153.894 41.7199 156.149 42.225L161.69 43.4756L161.258 45.3276L155.717 44.0769C154.374 43.7643 153.007 44.5098 152.527 45.7846L145.571 63.7509L143.796 63.0774Z"
            fill="#F0F5F5" />
        <path
            d="M163.369 74.2611L175.242 59.1088C176.657 57.3049 176.537 54.6593 174.954 52.9757L171.044 48.8389L169.653 50.1617L173.563 54.2985C174.498 55.2846 174.57 56.8479 173.731 57.9303L161.858 73.0826L163.369 74.2611Z"
            fill="#F0F5F5" />
        <path
            d="M161.234 46.7713L159.843 45.8093C159.579 45.6169 159.459 45.2802 159.579 44.9675L160.202 43.1636C160.298 42.875 160.586 42.6826 160.898 42.6826H162.673C162.937 42.6826 163.177 42.8269 163.297 43.0434C163.393 43.2117 163.441 43.4523 163.345 43.6687L162.337 46.4106C162.169 46.8675 161.642 47.0359 161.234 46.7713Z"
            fill="#28B7C6" />
        <path
            d="M148.257 78.0861L147.466 77.6291C142.932 75.0316 140.965 69.596 142.788 64.6896L144.971 58.8691L147.514 59.8312L145.331 65.6516C143.964 69.3074 145.427 73.348 148.809 75.2721L149.6 75.7291L148.257 78.0861Z"
            fill="#28B7C6" />
        <path
            d="M168.478 50.9071L170.013 51.6287C170.301 51.773 170.661 51.6768 170.876 51.4363L172.1 49.9932C172.292 49.7527 172.34 49.4159 172.172 49.1514L171.26 47.6362C171.116 47.3956 170.876 47.2754 170.637 47.2754C170.421 47.2754 170.229 47.3716 170.085 47.54L168.238 49.8008C167.926 50.1375 168.046 50.6907 168.478 50.9071Z"
            fill="#28B7C6" />
        <path
            d="M148.233 78.0608L149.025 78.5178C153.558 81.1153 159.243 80.033 162.505 75.9443L166.391 71.11L164.28 69.4023L160.394 74.2367C157.972 77.2671 153.75 78.0849 150.368 76.1367L149.576 75.6797L148.233 78.0608Z"
            fill="#28B7C6" />
        <path d="M147.514 84.7718L142.884 82.1261L145.643 75.2715L151.999 78.8792L147.514 84.7718Z" fill="#28A9C6" />
        <path
            d="M133.409 48.5977C129.644 46.4331 124.822 47.7559 122.663 51.556C120.505 55.3321 121.824 60.1664 125.614 62.331C129.38 64.4956 134.201 63.1728 136.36 59.3727C138.519 55.5966 137.199 50.7623 133.409 48.5977ZM126.549 60.6715C123.695 59.036 122.687 55.3802 124.318 52.494C125.95 49.6319 129.596 48.6218 132.474 50.2573C135.328 51.8927 136.336 55.5485 134.705 58.4347C133.074 61.2968 129.428 62.307 126.549 60.6715Z"
            fill="#4FB7C2" />
        <path
            d="M134.705 58.4336C133.073 61.2957 129.428 62.3059 126.549 60.6704C123.695 59.0349 122.687 55.3791 124.318 52.4929C125.949 49.6308 129.595 48.6207 132.474 50.2562C135.352 51.8917 136.336 55.5715 134.705 58.4336Z"
            fill="white" />
        <path
            d="M130.657 59.6136C132.932 58.9889 134.27 56.6338 133.647 54.3533C133.024 52.0729 130.676 50.7306 128.401 51.3553C126.127 51.9799 124.788 54.335 125.411 56.6155C126.034 58.896 128.383 60.2382 130.657 59.6136Z"
            fill="#C9C9C9" />
        <path
            d="M130.771 56.1986C130.363 56.8961 129.5 57.1366 128.78 56.7518C128.084 56.3429 127.844 55.4771 128.228 54.7556C128.636 54.0581 129.5 53.8176 130.219 54.2024C130.939 54.6112 131.179 55.5011 130.771 56.1986Z"
            fill="#41C0CD" />
        <path
            d="M146.554 135.013C149.552 138.645 138.95 139.006 138.615 145.885C138.303 152.787 133.889 159.786 128.324 159.546C124.007 159.353 122.759 164.308 122.424 166.545C122.328 167.194 122.304 167.627 122.304 167.627C122.304 167.627 121.968 167.29 121.488 166.713C119.641 164.5 115.515 158.632 118.394 152.932C122.04 145.692 126.573 147.592 129.092 142.782C131.61 137.972 143.556 131.382 146.554 135.013Z"
            fill="#4FB7C2" />
        <path
            d="M138.878 137.948C137.631 138.742 136.48 139.728 135.448 140.81C134.441 141.893 133.529 143.095 132.882 144.442C132.546 145.116 132.282 145.789 132.09 146.511C132.042 146.679 131.994 146.871 131.97 147.04L131.85 147.593C131.778 147.978 131.634 148.338 131.443 148.675C131.083 149.373 130.531 149.926 129.955 150.431C129.38 150.936 128.756 151.345 128.132 151.754C126.885 152.571 125.614 153.341 124.486 154.303C123.359 155.241 122.424 156.396 121.896 157.718C121.368 159.041 121.224 160.508 121.368 161.951C121.488 163.395 121.872 164.838 122.328 166.209L122.424 166.521C122.328 167.171 122.304 167.604 122.304 167.604C122.304 167.604 121.968 167.267 121.488 166.69L121.44 166.521C120.984 165.078 120.649 163.563 120.553 162.024C120.505 161.254 120.529 160.484 120.625 159.691C120.721 158.921 120.936 158.151 121.248 157.454C121.56 156.732 121.968 156.059 122.472 155.458C122.951 154.856 123.527 154.327 124.127 153.846C125.326 152.884 126.621 152.139 127.893 151.345C128.516 150.96 129.14 150.551 129.716 150.094C130.291 149.637 130.795 149.108 131.155 148.483C131.323 148.17 131.467 147.833 131.539 147.497L131.658 146.943C131.706 146.751 131.754 146.583 131.802 146.39C132.018 145.669 132.306 144.971 132.666 144.298C133.361 142.951 134.321 141.772 135.352 140.69C136.432 139.68 137.607 138.718 138.878 137.948Z"
            fill="white" />
        <path
            d="M101.867 131.647C97.9332 134.245 107.96 137.732 106.209 144.394C104.458 151.081 106.592 159.066 111.989 160.485C116.163 161.591 115.899 166.666 115.539 168.903C115.443 169.552 115.347 169.961 115.347 169.961C115.347 169.961 115.755 169.744 116.403 169.336C118.826 167.772 124.486 163.395 123.431 157.093C122.112 149.108 117.194 149.541 116.211 144.226C115.252 138.935 105.777 129.074 101.867 131.647Z"
            fill="#8EDFE8" />
        <path
            d="M108.319 136.745C109.279 137.9 110.094 139.15 110.742 140.497C111.39 141.844 111.893 143.263 112.133 144.73C112.253 145.452 112.301 146.197 112.277 146.943C112.253 147.135 112.277 147.304 112.253 147.496L112.205 148.049C112.157 148.434 112.181 148.843 112.253 149.204C112.397 149.973 112.757 150.671 113.165 151.32C113.572 151.97 114.052 152.571 114.508 153.148C115.467 154.303 116.451 155.433 117.218 156.66C118.01 157.886 118.562 159.257 118.682 160.7C118.802 162.119 118.49 163.562 117.938 164.909C117.386 166.256 116.619 167.507 115.755 168.685L115.563 168.95C115.467 169.599 115.371 170.008 115.371 170.008C115.371 170.008 115.779 169.792 116.427 169.383L116.523 169.238C117.386 167.988 118.154 166.665 118.706 165.222C118.969 164.5 119.185 163.755 119.305 162.985C119.425 162.215 119.449 161.422 119.377 160.652C119.281 159.882 119.089 159.113 118.802 158.391C118.514 157.67 118.13 156.996 117.698 156.371C116.859 155.096 115.827 153.99 114.844 152.86C114.364 152.306 113.884 151.729 113.477 151.128C113.069 150.527 112.733 149.877 112.565 149.156C112.493 148.795 112.469 148.458 112.493 148.097L112.541 147.544C112.565 147.352 112.565 147.159 112.565 146.967C112.565 146.197 112.493 145.452 112.373 144.706C112.085 143.215 111.558 141.796 110.862 140.473C110.142 139.102 109.303 137.851 108.319 136.745Z"
            fill="white" />
        <path
            d="M119.473 179.798C114.604 179.798 110.646 175.829 110.646 170.947V165.487H128.3V170.947C128.3 172.174 128.061 173.328 127.605 174.386C126.285 177.585 123.143 179.798 119.473 179.798Z"
            fill="#28B7C6" />
        <path
            d="M64.9038 40.8062C64.9038 42.5138 64.6159 44.1493 64.0642 45.6645C62.0734 51.3406 56.6764 55.4053 50.3439 55.4053C42.3084 55.4053 35.7841 48.8634 35.7841 40.8062C35.7841 37.4149 36.9354 34.2642 38.8783 31.7869C41.5408 28.3957 45.6905 26.207 50.3439 26.207C58.3794 26.207 64.9038 32.749 64.9038 40.8062Z"
            fill="#41C0CD" />
        <path
            d="M56.8682 37.3199H53.8219V34.2654C53.8219 33.8084 53.63 33.3995 53.3422 33.1109C53.0543 32.8223 52.6226 32.6299 52.1908 32.6299H48.5209C47.6094 32.6299 46.8658 33.3755 46.8658 34.2894V37.3439H43.8195C42.908 37.3439 42.1644 38.0895 42.1644 39.0035V42.6833C42.1644 43.5973 42.908 44.3429 43.8195 44.3429H46.8658V47.3974C46.8658 48.3114 47.6094 49.0569 48.5209 49.0569H52.1668C53.0783 49.0569 53.8219 48.3114 53.8219 47.3974V44.3429H56.8682C57.3239 44.3429 57.7317 44.1505 58.0195 43.8619C58.3074 43.5732 58.4993 43.1403 58.4993 42.7074V39.0275C58.4993 38.0655 57.7797 37.3199 56.8682 37.3199Z"
            fill="white" />
        <path opacity="0.7"
            d="M64.0642 45.6881C62.0733 51.3643 56.6764 55.4289 50.3439 55.4289C42.3084 55.4289 35.7841 48.887 35.7841 40.8298C35.7841 37.4386 36.9354 34.2878 38.8783 31.8105C38.3266 33.3258 38.0388 34.9853 38.0388 36.693C38.0388 44.7501 44.5631 51.2921 52.5986 51.2921C57.252 51.268 61.4017 49.0794 64.0642 45.6881Z"
            fill="#41C0CD" />
        <path
            d="M166.367 11.703C166.367 12.0397 166.343 12.4005 166.319 12.7372C166.223 13.7473 166.007 14.7335 165.647 15.6955C165.456 16.2246 165.216 16.7538 164.928 17.2829C164.616 17.8361 164.256 18.3892 163.872 18.9184L163.8 18.9905C163.537 19.3273 163.249 19.6399 162.937 19.9526L152.047 30.8959L147.49 35.4657L147.442 35.4176L147.394 35.4657L131.946 19.9766C131.634 19.664 131.347 19.3513 131.083 19.0146L131.011 18.9424C130.555 18.3652 130.147 17.7399 129.811 17.0905C129.548 16.5854 129.332 16.0563 129.14 15.5031C128.828 14.6132 128.636 13.6992 128.564 12.7612C128.3 9.85104 129.14 6.84462 131.035 4.43949C131.299 4.10277 131.61 3.76605 131.922 3.42934C132.786 2.56349 133.769 1.84195 134.801 1.31282C138.806 -0.779644 143.796 -0.370772 147.442 2.53944C152.023 -1.11636 158.715 -0.827747 162.961 3.42934C165.24 5.71421 166.367 8.69657 166.367 11.703Z"
            fill="#FF9690" />
        <path
            d="M129.14 15.4797C129.332 16.0088 129.548 16.538 129.811 17.0671H139.046L140.461 14.7101L144.611 23.128L147.514 13.0746L151.231 23.2002L154.709 14.1328L156.077 17.3076H164.928C165.216 16.8025 165.431 16.2734 165.647 15.7202H157.132L154.638 9.97196L151.279 18.7266L147.346 8.04785L144.227 18.7988L140.605 11.4391L138.159 15.4797H129.14Z"
            fill="white" />
        <path opacity="0.7"
            d="M150.704 32.2678L147.513 35.4666L147.465 35.4185L147.418 35.4666L131.97 19.9776C131.658 19.6649 131.37 19.3522 131.107 19.0155L131.035 18.9434C130.579 18.3661 130.171 17.7408 129.835 17.0914C129.572 16.5863 129.356 16.0572 129.164 15.504C128.852 14.6141 128.66 13.7002 128.588 12.7622C128.324 9.85197 129.164 6.84556 131.059 4.44043C130.819 5.66705 130.747 6.91771 130.843 8.14433C130.939 9.15449 131.155 10.1646 131.466 11.1507C131.658 11.752 131.898 12.3293 132.21 12.8824C132.57 13.5799 133.002 14.2774 133.505 14.9027L133.601 14.999C133.889 15.3597 134.201 15.7205 134.537 16.0572L150.704 32.2678Z"
            fill="#FF9690" />
        <path
            d="M71.3801 149.709C71.3801 149.709 66.5588 152.235 58.5233 150.647C58.5233 150.647 59.4348 144.707 60.2264 137.227C60.5142 134.485 60.802 131.527 60.9939 128.592C61.2098 125.682 61.3537 122.772 61.3777 120.078C61.3777 119.525 61.3777 118.948 61.3777 118.395C61.8335 129.458 63.7044 148.531 71.3801 149.709Z"
            fill="#D4D4D4" />
    </g>
    <defs>
        <clipPath id="clip0_3924_157561">
            <rect width="208.845" height="186.463" fill="white" />
        </clipPath>
    </defs>
</svg>