<svg width="209" height="187" viewBox="0 0 209 187" fill="none" xmlns="http://www.w3.org/2000/svg">
    <g clip-path="url(#clip0_5717_98492)">
        <path
            d="M10.6963 109.082C18.8757 98.1151 21.488 105.244 41.8047 91.2941C53.3902 83.3572 60.4902 71.0188 69.2214 60.3401C78.1923 49.3727 89.49 41.6041 102.707 36.5533C128.204 26.8366 160.778 26.9328 180.039 48.9878C185.916 55.7222 186.948 64.5009 186.924 73.1835C186.852 95.7917 190.881 117.775 203.81 137.04C251.797 208.456 -60.8582 205.289 10.6963 109.082Z"
            fill="#EFEFEF" />
        <path
            d="M194.983 74.4059C202.011 83.0403 176.945 83.7378 176.106 100.021C175.29 116.327 164.784 132.826 151.591 132.153C141.373 131.648 138.399 143.313 137.559 148.604C137.319 150.143 137.271 151.13 137.271 151.13C137.271 151.13 136.48 150.336 135.328 148.965C130.963 143.722 121.32 129.796 128.18 116.327C136.864 99.2749 147.61 103.797 153.606 92.4924C159.603 81.2124 187.979 65.7714 194.983 74.4059Z"
            fill="#E87780" />
        <path
            d="M176.825 81.2613C173.827 83.1373 171.116 85.4462 168.694 87.9716C166.271 90.521 164.136 93.3591 162.577 96.5098C161.786 98.0731 161.138 99.7086 160.682 101.392C160.586 101.825 160.442 102.234 160.37 102.667L160.107 103.966C159.915 104.856 159.579 105.746 159.147 106.539C158.26 108.175 156.964 109.498 155.597 110.652C154.206 111.806 152.743 112.817 151.255 113.779C148.281 115.703 145.259 117.531 142.62 119.767C139.982 121.98 137.727 124.674 136.456 127.801C135.16 130.927 134.849 134.391 135.136 137.806C135.424 141.221 136.288 144.612 137.367 147.907L137.607 148.629C137.367 150.168 137.319 151.154 137.319 151.154C137.319 151.154 136.528 150.361 135.376 148.99L135.256 148.605C134.201 145.166 133.385 141.606 133.194 137.974C133.098 136.146 133.146 134.318 133.409 132.491C133.673 130.663 134.177 128.883 134.921 127.175C135.664 125.492 136.648 123.904 137.823 122.485C138.998 121.066 140.318 119.816 141.733 118.709C144.563 116.448 147.657 114.693 150.656 112.865C152.143 111.951 153.63 110.989 154.973 109.93C156.317 108.848 157.564 107.622 158.403 106.154C158.835 105.433 159.147 104.639 159.339 103.797L159.651 102.499C159.747 102.066 159.891 101.633 160.011 101.2C160.538 99.4922 161.234 97.8326 162.073 96.2693C163.752 93.1186 165.983 90.3046 168.502 87.8032C170.996 85.3019 173.779 83.0651 176.825 81.2613Z"
            fill="white" />
        <path
            d="M190.21 116.277C195.727 123.084 176.01 123.613 175.362 136.432C174.714 149.252 166.463 162.239 156.077 161.71C148.041 161.301 145.691 170.489 145.043 174.65C144.851 175.852 144.803 176.646 144.803 176.646C144.803 176.646 144.179 176.021 143.292 174.938C139.862 170.826 132.282 159.882 137.679 149.276C144.515 135.855 152.959 139.415 157.66 130.54C162.409 121.617 184.717 109.495 190.21 116.277Z"
            fill="#E87780" />
        <path
            d="M175.938 121.665C173.587 123.156 171.452 124.96 169.533 126.956C167.638 128.953 165.959 131.189 164.712 133.667C164.088 134.893 163.585 136.192 163.225 137.515C163.153 137.852 163.033 138.164 162.985 138.501L162.769 139.511C162.625 140.209 162.361 140.906 162.001 141.532C161.306 142.806 160.298 143.865 159.219 144.778C158.14 145.692 156.964 146.486 155.789 147.232C153.462 148.747 151.088 150.166 149.001 151.922C146.914 153.653 145.163 155.77 144.155 158.247C143.148 160.7 142.884 163.442 143.124 166.112C143.34 168.806 144.012 171.451 144.875 174.049L145.067 174.626C144.875 175.829 144.827 176.622 144.827 176.622C144.827 176.622 144.203 175.997 143.316 174.915L143.22 174.602C142.404 171.908 141.757 169.094 141.589 166.232C141.517 164.789 141.541 163.346 141.757 161.927C141.973 160.508 142.356 159.089 142.932 157.742C143.508 156.419 144.299 155.169 145.211 154.062C146.122 152.956 147.178 151.97 148.281 151.08C150.488 149.3 152.959 147.929 155.309 146.486C156.485 145.765 157.636 145.019 158.715 144.177C159.771 143.335 160.754 142.373 161.426 141.219C161.762 140.642 162.025 140.016 162.169 139.367L162.409 138.357C162.481 138.02 162.601 137.683 162.697 137.347C163.105 136 163.657 134.701 164.328 133.45C165.647 130.973 167.398 128.76 169.365 126.788C171.356 124.84 173.539 123.084 175.938 121.665Z"
            fill="white" />
        <path
            d="M51.2314 121.665C53.5821 123.156 55.7169 124.96 57.6358 126.956C59.5307 128.953 61.2098 131.189 62.4571 133.667C63.0808 134.893 63.5845 136.192 63.9443 137.515C64.0162 137.852 64.1362 138.164 64.1841 138.501L64.4 139.511C64.5439 140.209 64.8078 140.906 65.1676 141.532C65.8632 142.806 66.8706 143.865 67.95 144.778C69.0294 145.692 70.2048 146.486 71.3801 147.232C73.7068 148.747 76.0815 150.166 78.1683 151.922C80.2552 153.653 82.0062 155.77 83.0136 158.247C84.0211 160.7 84.2849 163.442 84.0451 166.112C83.8292 168.806 83.1576 171.451 82.294 174.049L82.1021 174.626C82.294 175.829 82.342 176.622 82.342 176.622C82.342 176.622 82.9657 175.997 83.8532 174.915L83.9491 174.602C84.7647 171.908 85.4123 169.094 85.5802 166.232C85.6522 164.789 85.6282 163.346 85.4123 161.927C85.1964 160.508 84.8126 159.089 84.237 157.742C83.6613 156.419 82.8697 155.169 81.9582 154.062C81.0467 152.956 79.9913 151.97 78.8879 151.08C76.6812 149.3 74.2345 147.929 71.8599 146.486C70.6845 145.765 69.5332 145.019 68.4538 144.177C67.3984 143.335 66.4149 142.373 65.7433 141.219C65.4075 140.642 65.1676 140.016 64.9997 139.367L64.7598 138.357C64.6879 138.02 64.5679 137.683 64.472 137.347C64.0642 136 63.5125 134.701 62.8409 133.45C61.5216 130.973 59.7706 128.76 57.8037 126.788C55.7888 124.84 53.6061 123.084 51.2314 121.665Z"
            fill="white" />
        <path
            d="M32.162 74.4059C25.134 83.0403 50.2 83.7378 51.0395 100.021C51.855 116.327 62.3612 132.826 75.5538 132.153C85.7721 131.648 88.7464 143.313 89.5859 148.604C89.8258 150.143 89.8738 151.13 89.8738 151.13C89.8738 151.13 90.6653 150.336 91.8167 148.965C96.1823 143.722 105.825 129.796 98.9647 116.327C90.2816 99.2749 79.5356 103.797 73.5389 92.4924C67.5423 81.2124 39.1661 65.7714 32.162 74.4059Z"
            fill="#E87780" />
        <path
            d="M50.3439 81.2613C53.3182 83.1373 56.0527 85.4462 58.4753 87.9716C60.898 90.521 63.0328 93.3591 64.5919 96.5098C65.3835 98.0731 66.0311 99.7086 66.4868 101.392C66.5828 101.825 66.7267 102.234 66.7987 102.667L67.0625 103.966C67.2544 104.856 67.5902 105.746 68.022 106.539C68.9095 108.175 70.2048 109.498 71.572 110.652C72.9632 111.806 74.4264 112.817 75.9136 113.779C78.8879 115.703 81.9102 117.531 84.5487 119.767C87.1873 121.98 89.442 124.674 90.7133 127.801C92.0086 130.927 92.3204 134.391 92.0326 137.806C91.7447 141.221 90.8812 144.612 89.8018 147.907L89.5619 148.629C89.8018 150.168 89.8498 151.154 89.8498 151.154C89.8498 151.154 90.6413 150.361 91.7927 148.99L91.9126 148.605C92.968 145.166 93.7836 141.606 93.9755 137.974C94.0714 136.146 94.0234 134.318 93.7596 132.491C93.4957 130.663 92.992 128.883 92.2484 127.175C91.5048 125.492 90.5214 123.904 89.3461 122.485C88.1707 121.066 86.8515 119.816 85.4362 118.709C82.6058 116.448 79.5116 114.693 76.5132 112.865C75.0261 111.951 73.5389 110.989 72.1956 109.93C70.8524 108.848 69.6051 107.622 68.7656 106.154C68.3338 105.433 68.022 104.639 67.8301 103.797L67.5183 102.499C67.4223 102.066 67.2784 101.633 67.1585 101.2C66.6308 99.4922 65.9351 97.8326 65.0956 96.2693C63.4166 93.1186 61.1858 90.3046 58.6672 87.8032C56.1486 85.3019 53.3662 83.0651 50.3439 81.2613Z"
            fill="white" />
        <path
            d="M152.359 43.1373H75.122C72.0278 43.1373 69.5331 45.6627 69.5331 48.7413V172.341C69.5331 175.444 72.0517 177.945 75.122 177.945H152.335C153.99 177.945 155.549 177.223 156.629 175.949C157.468 174.938 157.948 173.664 157.948 172.341V48.7413C157.948 45.6627 155.453 43.1373 152.359 43.1373ZM154.254 172.341C154.254 172.918 154.014 173.327 153.798 173.568C153.438 174 152.911 174.241 152.359 174.241H75.122C74.0666 174.241 73.2271 173.399 73.2271 172.341V48.7413C73.2271 47.683 74.0666 46.8412 75.122 46.8412H152.335C153.39 46.8412 154.23 47.683 154.23 48.7413V172.341H154.254Z"
            fill="#484848" />
        <path
            d="M154.254 48.7421V172.342C154.254 172.919 154.014 173.328 153.798 173.568C153.438 174.001 152.911 174.242 152.359 174.242H75.122C74.0666 174.242 73.2271 173.4 73.2271 172.342V48.7421C73.2271 47.6838 74.0666 46.842 75.122 46.842H152.335C153.39 46.842 154.254 47.7079 154.254 48.7421Z"
            fill="#F8F8F8" />
        <path d="M131.203 52.7577H85.94V58.073H131.203V52.7577Z" fill="#FFC9AB" />
        <path d="M95.6306 75.2217H85.94V65.505H95.6306V75.2217ZM87.3072 73.8508H94.2394V66.9H87.3072V73.8508Z"
            fill="#FFC9AB" />
        <path
            d="M144.179 67.573H100.572C100.188 67.573 99.8762 67.2603 99.8762 66.8755C99.8762 66.4907 100.188 66.178 100.572 66.178H144.179C144.563 66.178 144.875 66.4907 144.875 66.8755C144.875 67.2603 144.563 67.573 144.179 67.573Z"
            fill="#FFC9AB" />
        <path
            d="M144.179 71.0117H100.572C100.188 71.0117 99.8762 70.6991 99.8762 70.3142C99.8762 69.9294 100.188 69.6168 100.572 69.6168H144.179C144.563 69.6168 144.875 69.9294 144.875 70.3142C144.875 70.7231 144.563 71.0117 144.179 71.0117Z"
            fill="#FFC9AB" />
        <path
            d="M123.551 74.4761H100.572C100.188 74.4761 99.8762 74.1635 99.8762 73.7787C99.8762 73.3938 100.188 73.0812 100.572 73.0812H123.551C123.935 73.0812 124.247 73.3938 124.247 73.7787C124.223 74.1635 123.935 74.4761 123.551 74.4761Z"
            fill="#FFC9AB" />
        <path
            d="M101.339 75.6327C101.267 75.6327 101.195 75.6087 101.123 75.5606C100.932 75.4403 100.884 75.1757 101.004 74.9833L113.405 55.7423C113.525 55.5499 113.788 55.5018 113.98 55.622C114.172 55.7423 114.22 56.0068 114.1 56.1993L101.699 75.4403C101.603 75.5606 101.483 75.6327 101.339 75.6327Z"
            fill="#484848" />
        <path
            d="M97.5255 77.8917C97.5255 77.8917 99.8522 71.2535 102.683 73.9472C105.585 76.6891 99.1326 81.4513 99.1326 81.4513L97.5255 77.8917Z"
            fill="#F2D0B2" />
        <path
            d="M32.5219 132.152C32.6658 132.128 32.7617 132.104 32.7617 132.104C32.7617 132.104 32.5458 132.248 32.5219 132.152Z"
            fill="#E87780" />
        <path d="M95.6306 91.7224H85.94V82.0056H95.6306V91.7224ZM87.3072 90.3514H94.2394V83.4006H87.3072V90.3514Z"
            fill="#FFC9AB" />
        <path
            d="M144.179 84.0736H100.572C100.188 84.0736 99.8762 83.761 99.8762 83.3761C99.8762 82.9913 100.188 82.6786 100.572 82.6786H144.179C144.563 82.6786 144.875 82.9913 144.875 83.3761C144.875 83.761 144.563 84.0736 144.179 84.0736Z"
            fill="#FFC9AB" />
        <path
            d="M144.179 87.5123H100.572C100.188 87.5123 99.8762 87.1997 99.8762 86.8149C99.8762 86.43 100.188 86.1174 100.572 86.1174H144.179C144.563 86.1174 144.875 86.43 144.875 86.8149C144.875 87.1997 144.563 87.5123 144.179 87.5123Z"
            fill="#FFC9AB" />
        <path
            d="M123.551 90.9768H100.572C100.188 90.9768 99.8762 90.6641 99.8762 90.2793C99.8762 89.8945 100.188 89.5818 100.572 89.5818H123.551C123.935 89.5818 124.247 89.8945 124.247 90.2793C124.223 90.6641 123.935 90.9768 123.551 90.9768Z"
            fill="#FFC9AB" />
        <path
            d="M101.675 79.8875C101.675 79.8875 94.2873 93.4524 92.3924 95.6892C90.4975 97.926 77.1849 101.221 77.1849 101.221L76.5133 100.139L72.6754 93.9334L87.4272 90.2295L97.4775 77.2899C97.5015 77.2899 100.356 77.2899 101.675 79.8875Z"
            fill="white" />
        <path
            d="M56.6044 171.26L59.027 170.947L61.3297 173.16C61.3297 173.16 64.5679 175.084 65.4794 176.84C65.9112 177.706 65.3355 178.884 65.3355 178.884L54.5895 175.18C54.5895 175.18 55.573 172.246 56.6044 171.26Z"
            fill="#484848" />
        <path
            d="M72.3396 173.664L74.5464 172.582L77.4248 173.929C77.4248 173.929 81.1187 174.699 82.5339 176.07C83.2295 176.743 83.0616 178.066 83.0616 178.066L71.692 178.042C71.692 178.042 71.668 174.963 72.3396 173.664Z"
            fill="#484848" />
        <path
            d="M79.4876 150.84C79.4636 150.912 79.4636 150.984 79.4396 151.056C79.3916 151.345 79.3197 151.705 79.2477 152.138C78.4082 157.67 77.3528 173.424 77.3528 173.424C77.3528 173.424 75.5538 174.987 71.8119 173.568L72.1717 153.678L72.2676 148.675L71.8359 145.163L69.701 127.75L70.0369 127.293L74.1865 121.713L74.5463 121.232L79.8714 125.008C79.8714 125.008 79.8714 125.417 79.8954 126.091C79.8954 126.379 79.9194 126.716 79.9194 127.101C79.9913 132.681 80.1832 147.857 79.4876 150.84Z"
            fill="#484848" />
        <path
            d="M77.7845 127.269C77.7845 127.269 76.945 130.275 75.7937 134.195C74.6663 138.068 73.2271 142.806 72.0038 146.486C71.7879 147.159 71.572 147.784 71.3561 148.386C71.2122 148.819 71.0683 149.203 70.9244 149.564C70.8764 149.709 70.8284 149.829 70.7805 149.949C70.6605 150.262 70.5406 150.526 70.4447 150.791C70.2528 151.272 70.0849 151.633 69.9169 151.897C69.6531 152.354 69.2933 153.1 68.8615 154.038C68.7656 154.278 68.6457 154.519 68.5257 154.759C65.8632 160.796 61.3298 172.87 61.3298 172.87C61.3298 172.87 58.1875 173.928 55.9807 171.403L61.0419 155.745L61.1379 155.457L62.5291 151.152L63.6325 147.736L63.6804 147.52L67.2544 126.98L70.4447 124.623L73.7788 122.146L73.8268 122.194L75.7937 124.719L77.7845 127.269Z"
            fill="#802121" />
        <path
            d="M80.9028 126.932C80.9028 126.932 80.543 126.98 79.9193 127.052C79.8234 127.052 79.7514 127.076 79.6555 127.076C78.5761 127.197 76.897 127.341 74.8821 127.365C74.7382 127.365 74.5943 127.365 74.4504 127.365C73.1071 127.389 71.644 127.341 70.0848 127.221C69.1733 127.148 68.2379 127.052 67.3024 126.908L64.9757 98.311L67.4703 94.0298L70.5646 93.645L72.1477 93.8134L72.7234 93.8855L74.7622 95.7375L77.8325 98.5274L79.2237 111.347L79.9913 118.298L80.9028 126.932Z"
            fill="#CE1F31" />
        <path
            d="M92.4164 95.6904C90.5214 97.9272 77.2089 101.222 77.2089 101.222L76.5373 100.14L75.7937 94.9448C81.9822 98.6968 92.2005 95.7385 92.4164 95.6904Z"
            fill="#FFC9AB" />
        <path
            d="M58.4513 128.881C58.4513 128.881 60.6581 134.966 57.3719 135.278C54.0378 135.591 55.453 127.726 55.453 127.726L58.4513 128.881Z"
            fill="#F2D0B2" />
        <path
            d="M66.127 101.126C66.127 101.126 65.6713 101.824 65.0237 102.882C63.4885 105.335 60.826 109.664 59.8905 111.637L59.2669 129.675C59.2669 129.675 56.9402 130.541 54.7814 129.675C54.7814 129.675 52.8145 114.619 53.3182 111.228C54.6375 102.353 61.6655 95.426 61.6655 95.426L66.127 101.126Z"
            fill="white" />
        <g opacity="0.8">
            <path opacity="0.8"
                d="M79.9194 127.077C80.0153 132.705 80.2072 147.857 79.5116 150.839C79.4876 150.912 79.4876 150.984 79.4636 151.056C79.4156 151.345 79.3437 151.705 79.2717 152.138L74.1146 153.389C74.6663 144.947 74.6903 135.88 74.4264 127.413C74.3785 125.465 74.2825 123.541 74.2105 121.689C73.5149 106.104 72.1237 93.8859 72.1237 93.8859L72.6994 93.9581L74.7383 95.81L77.8085 98.6L79.1998 111.419L79.9673 118.37L80.9028 126.981C80.9028 126.932 80.543 127.005 79.9194 127.077Z"
                fill="#ECECEC" />
        </g>
        <path opacity="0.5"
            d="M70.9244 149.564C70.8764 149.709 70.8284 149.829 70.7805 149.949C70.6605 150.262 70.5406 150.526 70.4446 150.791C70.2528 151.272 70.0848 151.633 69.9169 151.897C69.6531 152.354 69.2933 153.1 68.8615 154.038C67.1825 154.687 64.6159 155 61.0419 155.746L61.1378 155.457L62.5291 151.152L63.6324 147.737L63.6804 147.52L70.9244 149.564Z"
            fill="#802121" />
        <path
            d="M63.3686 168.014C63.3206 168.014 63.2726 168.014 63.2247 167.989C63.0088 167.893 62.9128 167.653 62.9848 167.46C63.0328 167.364 66.9186 157.575 69.5571 151.731C72.1717 145.934 76.1535 131.552 76.2014 131.407C76.2734 131.191 76.4893 131.071 76.7051 131.119C76.921 131.191 77.0649 131.407 76.993 131.624C76.945 131.768 72.9393 146.223 70.3247 152.068C67.7102 157.888 63.8243 167.653 63.7764 167.749C63.6804 167.917 63.5365 168.014 63.3686 168.014Z"
            fill="#FFC9AB" />
        <path
            d="M84.7407 146.726L79.5835 147.712C79.5835 147.712 78.3123 102.88 72.7234 93.9573C74.7143 94.2699 77.4008 95.256 79.1758 98.2144C82.2221 103.385 84.7407 146.726 84.7407 146.726Z"
            fill="white" />
        <path
            d="M65.0237 102.881C63.4885 105.334 60.826 109.663 59.8905 111.636L59.2669 129.674C59.2669 129.674 58.7152 116.037 58.5473 111.131C58.3554 106.248 61.0419 100.861 61.0419 100.861L64.52 99.5378C64.496 99.5378 64.7358 101.077 65.0237 102.881Z"
            fill="#FFC9AB" />
        <path
            d="M71.3801 149.709C71.3801 149.709 66.5588 152.234 58.5233 150.647C58.5233 150.647 59.4348 144.706 60.2264 137.226C60.5142 134.485 60.802 131.526 60.9939 128.592C61.2098 125.682 61.3537 122.772 61.3777 120.078C61.3777 119.525 61.3777 118.947 61.3777 118.394V118.37C61.3777 115.676 61.3297 113.079 61.2578 110.674C61.2578 110.65 61.2578 110.65 61.2578 110.626C61.0179 102.208 60.6101 95.8341 61.8575 95.1847C63.8004 94.1505 67.4463 94.0543 67.4463 94.0543C67.4463 94.0543 69.1014 102.929 70.3007 122.146C70.7805 129.722 71.1643 138.862 71.3801 149.709Z"
            fill="white" />
        <path
            d="M67.4464 94.0782L67.2784 89.4844L69.1734 89.4603L71.0443 89.4363L72.1237 93.982L72.1477 94.1022C72.1477 94.0782 73.3471 99.3214 67.4464 94.0782Z"
            fill="#F2D0B2" />
        <path
            d="M72.1237 93.9579C67.4703 93.8377 67.3264 89.797 67.3264 89.797L69.1733 89.4603L71.0443 89.4363L72.1237 93.9579Z"
            fill="#F2D0B2" />
        <path
            d="M71.3081 91.1431C65.9831 92.033 66.223 85.5391 66.223 85.5391L66.4389 83.3745L66.5348 82.4125L66.7747 81.4744L66.8706 81.1377L67.5422 81.0896L71.3561 80.8491L72.6754 82.5087C72.6754 82.5087 72.8673 82.8694 73.0831 83.4226C73.9706 85.5391 75.5058 90.4456 71.3081 91.1431Z"
            fill="#F2D0B2" />
        <path d="M95.6306 108.221H85.94V98.504H95.6306V108.221ZM87.3072 106.85H94.2394V99.899H87.3072V106.85Z"
            fill="#FFC9AB" />
        <path
            d="M144.179 100.572H100.572C100.188 100.572 99.8762 100.259 99.8762 99.8745C99.8762 99.4897 100.188 99.177 100.572 99.177H144.179C144.563 99.177 144.875 99.4897 144.875 99.8745C144.875 100.259 144.563 100.572 144.179 100.572Z"
            fill="#FFC9AB" />
        <path
            d="M144.179 104.011H100.572C100.188 104.011 99.8762 103.698 99.8762 103.313C99.8762 102.928 100.188 102.616 100.572 102.616H144.179C144.563 102.616 144.875 102.928 144.875 103.313C144.875 103.722 144.563 104.011 144.179 104.011Z"
            fill="#FFC9AB" />
        <path
            d="M123.551 107.475H100.572C100.188 107.475 99.8762 107.162 99.8762 106.778C99.8762 106.393 100.188 106.08 100.572 106.08H123.551C123.935 106.08 124.247 106.393 124.247 106.778C124.223 107.162 123.935 107.475 123.551 107.475Z"
            fill="#FFC9AB" />
        <path
            d="M73.1072 83.4711C71.3322 84.6015 68.3818 84.0724 68.3818 84.0724C68.3578 85.3952 67.8781 86.3572 67.8781 86.3572L66.4629 83.3989L65.7913 82.0039L66.7987 81.4989L67.5663 81.1381L71.3801 80.8976L72.6994 82.5571C72.6994 82.5571 72.8673 82.9179 73.1072 83.4711Z"
            fill="#F2D0B2" />
        <path d="M95.6306 124.719H85.94V115.002H95.6306V124.719ZM87.3072 123.348H94.2394V116.397H87.3072V123.348Z"
            fill="#FFC9AB" />
        <path
            d="M144.179 117.07H100.572C100.188 117.07 99.8762 116.758 99.8762 116.373C99.8762 115.988 100.188 115.675 100.572 115.675H144.179C144.563 115.675 144.875 115.988 144.875 116.373C144.875 116.758 144.563 117.07 144.179 117.07Z"
            fill="#FFC9AB" />
        <path
            d="M144.179 120.535H100.572C100.188 120.535 99.8762 120.222 99.8762 119.837C99.8762 119.452 100.188 119.14 100.572 119.14H144.179C144.563 119.14 144.875 119.452 144.875 119.837C144.875 120.222 144.563 120.535 144.179 120.535Z"
            fill="#FFC9AB" />
        <path
            d="M123.551 123.973H100.572C100.188 123.973 99.8762 123.661 99.8762 123.276C99.8762 122.891 100.188 122.578 100.572 122.578H123.551C123.935 122.578 124.247 122.891 124.247 123.276C124.223 123.661 123.935 123.973 123.551 123.973Z"
            fill="#FFC9AB" />
        <path d="M95.6306 141.22H85.94V131.503H95.6306V141.22ZM87.3072 139.849H94.2394V132.898H87.3072V139.849Z"
            fill="#FFC9AB" />
        <path
            d="M144.179 133.571H100.572C100.188 133.571 99.8762 133.258 99.8762 132.873C99.8762 132.489 100.188 132.176 100.572 132.176H144.179C144.563 132.176 144.875 132.489 144.875 132.873C144.875 133.258 144.563 133.571 144.179 133.571Z"
            fill="#FFC9AB" />
        <path
            d="M144.179 137.035H100.572C100.188 137.035 99.8762 136.723 99.8762 136.338C99.8762 135.953 100.188 135.64 100.572 135.64H144.179C144.563 135.64 144.875 135.953 144.875 136.338C144.875 136.723 144.563 137.035 144.179 137.035Z"
            fill="#FFC9AB" />
        <path
            d="M123.551 140.474H100.572C100.188 140.474 99.8762 140.161 99.8762 139.777C99.8762 139.392 100.188 139.079 100.572 139.079H123.551C123.935 139.079 124.247 139.392 124.247 139.777C124.247 140.161 123.935 140.474 123.551 140.474Z"
            fill="#FFC9AB" />
        <path
            d="M67.8541 83.7357C67.8541 83.7357 70.6125 83.447 72.5554 82.7014C74.4744 81.9558 73.6588 78.4925 71.1882 78.1076C68.6936 77.7228 63.5125 79.0456 63.2007 80.7292C62.601 84.1205 65.6473 88.6902 67.3024 89.7725C67.3264 89.7966 68.0699 87.7282 67.8541 83.7357Z"
            fill="#802121" />
        <path
            d="M66.3429 86.5014C66.4389 87.0786 66.9666 87.4875 67.5423 87.3913C68.1179 87.2951 68.5257 86.766 68.4298 86.1887C68.3338 85.6115 67.8061 85.2026 67.2304 85.2988C66.6548 85.395 66.271 85.9242 66.3429 86.5014Z"
            fill="#F2D0B2" />
        <path
            d="M90.1856 122.459L87.5711 119.212C87.3312 118.899 87.3792 118.443 87.691 118.202C88.0028 117.961 88.4586 118.01 88.6984 118.322L90.2576 120.27L96.9738 113.079C97.2376 112.79 97.6934 112.766 98.0052 113.055C98.2931 113.32 98.317 113.777 98.0292 114.089L90.1856 122.459Z"
            fill="#484848" />
        <path d="M138.495 153.292H85.6041V166.064H138.495V153.292Z" fill="#FFC9AB" />
        <path
            d="M189.778 111.589V171.477C189.778 171.862 189.754 172.223 189.682 172.607C189.394 174.267 188.483 175.71 187.187 176.672C186.108 177.466 184.789 177.947 183.35 177.947H166.583C163.009 177.947 160.131 175.061 160.131 171.477V111.589H189.778Z"
            fill="#F7BFBC" />
        <path d="M193.184 104.013H156.7V111.589H193.184V104.013Z" fill="#B00C2F" />
        <path d="M189.778 116.039H169.365V163.54H189.778V116.039Z" fill="#E87780" />
        <path d="M189.778 105.96H160.107V109.664H189.778V105.96Z" fill="white" />
        <g opacity="0.5">
            <path opacity="0.5"
                d="M189.682 172.608C189.394 174.268 188.483 175.711 187.187 176.673C186.108 177.467 184.789 177.948 183.35 177.948H166.583C163.009 177.948 160.131 175.061 160.131 171.478V155.532C161.546 166.475 167.638 179.511 189.682 172.608Z"
                fill="#F7BFBC" />
        </g>
        <path
            d="M25.9255 132.176C25.7336 132.128 25.6137 132.104 25.6137 132.104C25.6137 132.104 25.9015 132.296 25.9255 132.176Z"
            fill="#E87780" />
        <path
            d="M41.2529 152.957H25.9015V144.972C25.9015 142.326 28.0603 140.161 30.6988 140.161H36.4556C37.6789 140.161 38.8303 140.618 39.7418 141.46C40.7012 142.374 41.2529 143.649 41.2529 144.972V152.957ZM27.4606 151.393H39.6698V144.972C39.6698 144.058 39.31 143.216 38.6384 142.615C38.0387 142.061 37.2472 141.749 36.4316 141.749H30.6748C28.8998 141.749 27.4367 143.192 27.4367 144.996V151.393H27.4606Z"
            fill="#802121" />
        <path
            d="M50.7037 149.206V174.436C50.7037 176.312 49.1925 177.851 47.2976 177.851H19.8569C17.9859 177.851 16.4508 176.312 16.4508 174.436V149.206C16.4508 147.33 17.962 145.79 19.8569 145.79H47.3216C48.257 145.79 49.1206 146.175 49.7202 146.801C50.3199 147.426 50.7037 148.268 50.7037 149.206Z"
            fill="#484848" />
        <path
            d="M50.7037 149.206V157.84H16.4508V149.206C16.4508 147.33 17.962 145.79 19.8569 145.79H47.3216C48.257 145.79 49.1206 146.175 49.7202 146.801C50.3199 147.426 50.7037 148.268 50.7037 149.206Z"
            fill="#CE1F31" />
        <path d="M35.856 154.52H31.2745V161.158H35.856V154.52Z" fill="#E87780" />
        <g opacity="0.5">
            <path opacity="0.5"
                d="M47.2976 177.85H19.8569C17.9859 177.85 16.4508 176.31 16.4508 174.434V157.839C16.4508 157.839 21.8478 176.527 47.2976 177.85Z"
                fill="#802121" />
        </g>
        <path
            d="M138.543 103.242C136.576 102.111 135.16 99.9226 135.616 97.2289C135.928 95.2807 137.103 92.8515 138.543 90.4705C136.12 89.316 133.026 88.4261 129.212 87.8489C124.007 87.0552 120.625 84.8665 119.185 81.355C117.243 76.5929 119.209 69.6661 124.63 62.3785L125.95 63.3646C120.888 70.1952 118.97 76.5207 120.697 80.7537C121.896 83.712 124.846 85.564 129.452 86.2615C133.481 86.8628 136.792 87.8248 139.406 89.0995C142.308 84.626 145.811 80.6094 146.05 80.3449L147.274 81.4272C147.226 81.4993 143.724 85.5159 140.845 89.8932C142.404 90.8553 143.652 91.9376 144.539 93.1883C146.026 95.2567 146.554 97.6378 146.098 100.307C145.571 103.434 142.956 104.42 140.629 104.035C139.91 103.867 139.214 103.627 138.543 103.242ZM139.982 91.2401C138.615 93.4769 137.511 95.7377 137.223 97.4934C136.768 100.187 138.806 102.039 140.917 102.4C142.404 102.64 144.131 102.159 144.515 100.019C144.899 97.8061 144.467 95.8339 143.244 94.1503C142.452 93.044 141.373 92.0819 139.982 91.2401Z"
            fill="#B00C2F" />
        <path d="M124.89 60.6844L123.453 63.2128L125.975 64.6536L127.412 62.1252L124.89 60.6844Z" fill="#802121" />
        <path
            d="M143.796 63.077L150.752 45.1106C151.591 42.9701 153.894 41.7194 156.149 42.2245L161.69 43.4752L161.258 45.3271L155.717 44.0764C154.374 43.7638 153.007 44.5094 152.527 45.7841L145.571 63.7504L143.796 63.077Z"
            fill="#EFEFEF" />
        <path
            d="M163.369 74.2605L175.242 59.1082C176.657 57.3044 176.537 54.6587 174.954 52.9751L171.044 48.8383L169.653 50.1611L173.563 54.298C174.498 55.2841 174.57 56.8474 173.731 57.9297L161.858 73.082L163.369 74.2605Z"
            fill="#EFEFEF" />
        <path
            d="M161.234 46.7712L159.843 45.8091C159.579 45.6167 159.459 45.28 159.579 44.9673L160.203 43.1635C160.298 42.8748 160.586 42.6824 160.898 42.6824H162.673C162.937 42.6824 163.177 42.8267 163.297 43.0432C163.393 43.2116 163.441 43.4521 163.345 43.6685L162.337 46.4104C162.169 46.8674 161.642 47.0357 161.234 46.7712Z"
            fill="#802121" />
        <path
            d="M148.257 78.0855L147.466 77.6285C142.932 75.031 140.965 69.5954 142.788 64.6889L144.971 58.8685L147.514 59.8306L145.331 65.651C143.964 69.3068 145.427 73.3474 148.809 75.2715L149.6 75.7285L148.257 78.0855Z"
            fill="#802121" />
        <path
            d="M168.478 50.9065L170.013 51.6281C170.301 51.7724 170.661 51.6762 170.877 51.4356L172.1 49.9926C172.292 49.7521 172.34 49.4153 172.172 49.1508L171.26 47.6355C171.116 47.395 170.877 47.2748 170.637 47.2748C170.421 47.2748 170.229 47.371 170.085 47.5393L168.238 49.8002C167.926 50.1369 168.046 50.6901 168.478 50.9065Z"
            fill="#802121" />
        <path
            d="M148.233 78.0606L149.025 78.5176C153.558 81.1152 159.243 80.0328 162.505 75.9441L166.391 71.1098L164.28 69.4022L160.394 74.2365C157.972 77.267 153.75 78.0847 150.368 76.1365L149.576 75.6796L148.233 78.0606Z"
            fill="#802121" />
        <path d="M147.514 84.7718L142.884 82.1261L145.643 75.2715L151.999 78.8792L147.514 84.7718Z" fill="#484848" />
        <path
            d="M133.409 48.5976C129.644 46.433 124.822 47.7558 122.663 51.5559C120.505 55.332 121.824 60.1663 125.614 62.3309C129.38 64.4955 134.201 63.1727 136.36 59.3726C138.519 55.5965 137.199 50.7622 133.409 48.5976ZM126.549 60.6713C123.695 59.0359 122.687 55.3801 124.319 52.4939C125.95 49.6318 129.596 48.6216 132.474 50.2571C135.328 51.8926 136.336 55.5484 134.705 58.4346C133.074 61.2967 129.428 62.3068 126.549 60.6713Z"
            fill="#DB4141" />
        <path
            d="M134.705 58.4331C133.074 61.2952 129.428 62.3054 126.549 60.6699C123.695 59.0344 122.687 55.3786 124.319 52.4924C125.95 49.6303 129.596 48.6202 132.474 50.2557C135.352 51.8912 136.336 55.571 134.705 58.4331Z"
            fill="white" />
        <path
            d="M130.657 59.6128C132.932 58.9882 134.271 56.6331 133.648 54.3526C133.025 52.0721 130.676 50.7298 128.401 51.3545C126.127 51.9792 124.788 54.3343 125.411 56.6148C126.034 58.8952 128.383 60.2375 130.657 59.6128Z"
            fill="#F7BFBC" />
        <path
            d="M130.771 56.1983C130.363 56.8957 129.5 57.1363 128.78 56.7514C128.084 56.3426 127.845 55.4767 128.228 54.7552C128.636 54.0577 129.5 53.8172 130.219 54.202C130.939 54.6109 131.179 55.5008 130.771 56.1983Z"
            fill="#B00C2F" />
        <path
            d="M146.554 135.013C149.552 138.645 138.95 139.006 138.615 145.885C138.303 152.787 133.889 159.786 128.324 159.546C124.007 159.353 122.759 164.308 122.424 166.545C122.328 167.194 122.304 167.627 122.304 167.627C122.304 167.627 121.968 167.29 121.488 166.713C119.641 164.5 115.515 158.632 118.394 152.932C122.04 145.692 126.573 147.592 129.092 142.782C131.61 137.972 143.556 131.382 146.554 135.013Z"
            fill="#DB4141" />
        <path
            d="M138.878 137.948C137.631 138.742 136.48 139.728 135.448 140.81C134.441 141.893 133.529 143.095 132.882 144.442C132.546 145.116 132.282 145.789 132.09 146.511C132.042 146.679 131.994 146.871 131.97 147.04L131.85 147.593C131.778 147.978 131.634 148.338 131.443 148.675C131.083 149.373 130.531 149.926 129.955 150.431C129.38 150.936 128.756 151.345 128.132 151.754C126.885 152.571 125.614 153.341 124.486 154.303C123.359 155.241 122.424 156.396 121.896 157.718C121.368 159.041 121.224 160.508 121.368 161.951C121.488 163.395 121.872 164.838 122.328 166.209L122.424 166.521C122.328 167.171 122.304 167.604 122.304 167.604C122.304 167.604 121.968 167.267 121.488 166.69L121.44 166.521C120.984 165.078 120.649 163.563 120.553 162.024C120.505 161.254 120.529 160.484 120.625 159.691C120.721 158.921 120.936 158.151 121.248 157.454C121.56 156.732 121.968 156.059 122.472 155.458C122.951 154.856 123.527 154.327 124.127 153.846C125.326 152.884 126.621 152.139 127.893 151.345C128.516 150.96 129.14 150.551 129.716 150.094C130.291 149.637 130.795 149.108 131.155 148.483C131.323 148.17 131.467 147.833 131.539 147.497L131.658 146.943C131.706 146.751 131.754 146.583 131.802 146.39C132.018 145.669 132.306 144.971 132.666 144.298C133.361 142.951 134.321 141.772 135.352 140.69C136.432 139.68 137.607 138.718 138.878 137.948Z"
            fill="white" />
        <path
            d="M101.867 131.647C97.9332 134.245 107.96 137.732 106.209 144.394C104.458 151.08 106.592 159.066 111.989 160.485C116.163 161.591 115.899 166.666 115.539 168.903C115.443 169.552 115.347 169.961 115.347 169.961C115.347 169.961 115.755 169.744 116.403 169.335C118.826 167.772 124.486 163.395 123.431 157.093C122.112 149.108 117.194 149.541 116.211 144.226C115.252 138.935 105.777 129.074 101.867 131.647Z"
            fill="#E87780" />
        <path
            d="M108.319 136.745C109.279 137.9 110.094 139.151 110.742 140.497C111.39 141.844 111.893 143.263 112.133 144.731C112.253 145.452 112.301 146.198 112.277 146.943C112.253 147.136 112.277 147.304 112.253 147.496L112.205 148.05C112.157 148.434 112.181 148.843 112.253 149.204C112.397 149.974 112.757 150.671 113.165 151.321C113.572 151.97 114.052 152.571 114.508 153.148C115.467 154.303 116.451 155.433 117.218 156.66C118.01 157.887 118.562 159.258 118.682 160.701C118.802 162.12 118.49 163.563 117.938 164.91C117.386 166.256 116.619 167.507 115.755 168.686L115.563 168.95C115.467 169.6 115.371 170.008 115.371 170.008C115.371 170.008 115.779 169.792 116.427 169.383L116.523 169.239C117.386 167.988 118.154 166.665 118.706 165.222C118.969 164.501 119.185 163.755 119.305 162.985C119.425 162.216 119.449 161.422 119.377 160.653C119.281 159.883 119.089 159.113 118.802 158.392C118.514 157.67 118.13 156.997 117.698 156.371C116.859 155.097 115.827 153.99 114.844 152.86C114.364 152.307 113.884 151.729 113.477 151.128C113.069 150.527 112.733 149.878 112.565 149.156C112.493 148.795 112.469 148.458 112.493 148.098L112.541 147.545C112.565 147.352 112.565 147.16 112.565 146.967C112.565 146.198 112.493 145.452 112.373 144.706C112.085 143.215 111.558 141.796 110.862 140.473C110.142 139.103 109.303 137.852 108.319 136.745Z"
            fill="white" />
        <path
            d="M119.473 179.798C114.604 179.798 110.646 175.829 110.646 170.947V165.487H128.3V170.947C128.3 172.173 128.06 173.328 127.605 174.386C126.285 177.585 123.143 179.798 119.473 179.798Z"
            fill="#802121" />
        <path
            d="M64.9037 40.8061C64.9037 42.5137 64.6159 44.1492 64.0642 45.6644C62.0733 51.3405 56.6763 55.4052 50.3439 55.4052C42.3083 55.4052 35.784 48.8632 35.784 40.8061C35.784 37.4148 36.9354 34.2641 38.8783 31.7868C41.5408 28.3956 45.6905 26.2069 50.3439 26.2069C58.3794 26.2069 64.9037 32.7489 64.9037 40.8061Z"
            fill="#B00C2F" />
        <path
            d="M56.8682 37.3195H53.8219V34.2649C53.8219 33.808 53.63 33.3991 53.3422 33.1105C53.0543 32.8219 52.6226 32.6295 52.1908 32.6295H48.5209C47.6094 32.6295 46.8658 33.375 46.8658 34.289V37.3435H43.8195C42.908 37.3435 42.1644 38.0891 42.1644 39.0031V42.6829C42.1644 43.5969 42.908 44.3425 43.8195 44.3425H46.8658V47.397C46.8658 48.3109 47.6094 49.0565 48.5209 49.0565H52.1668C53.0783 49.0565 53.8219 48.3109 53.8219 47.397V44.3425H56.8682C57.3239 44.3425 57.7317 44.15 58.0195 43.8614C58.3074 43.5728 58.4993 43.1399 58.4993 42.707V39.0271C58.4993 38.0651 57.7797 37.3195 56.8682 37.3195Z"
            fill="white" />
        <path opacity="0.7"
            d="M64.0642 45.6878C62.0733 51.3639 56.6763 55.4286 50.3438 55.4286C42.3083 55.4286 35.784 48.8867 35.784 40.8295C35.784 37.4382 36.9354 34.2875 38.8783 31.8102C38.3266 33.3255 38.0387 34.985 38.0387 36.6927C38.0387 44.7498 44.5631 51.2918 52.5986 51.2918C57.252 51.2677 61.4017 49.0791 64.0642 45.6878Z"
            fill="#B00C2F" />
        <path
            d="M166.367 11.703C166.367 12.0397 166.343 12.4005 166.319 12.7372C166.223 13.7473 166.007 14.7335 165.647 15.6955C165.456 16.2246 165.216 16.7538 164.928 17.2829C164.616 17.8361 164.256 18.3892 163.872 18.9184L163.801 18.9905C163.537 19.3273 163.249 19.6399 162.937 19.9526L152.047 30.8959L147.49 35.4657L147.442 35.4176L147.394 35.4657L131.946 19.9766C131.634 19.664 131.347 19.3513 131.083 19.0146L131.011 18.9424C130.555 18.3652 130.147 17.7399 129.811 17.0905C129.548 16.5854 129.332 16.0563 129.14 15.5031C128.828 14.6132 128.636 13.6992 128.564 12.7612C128.3 9.85104 129.14 6.84462 131.035 4.43949C131.299 4.10277 131.61 3.76605 131.922 3.42934C132.786 2.56349 133.769 1.84195 134.801 1.31282C138.806 -0.779644 143.796 -0.370772 147.442 2.53944C152.023 -1.11636 158.715 -0.827747 162.961 3.42934C165.24 5.71421 166.367 8.69657 166.367 11.703Z"
            fill="#FF9690" />
        <path
            d="M129.14 15.4798C129.332 16.009 129.548 16.5381 129.811 17.0672H139.046L140.462 14.7102L144.611 23.1281L147.514 13.0747L151.232 23.2003L154.71 14.133L156.077 17.3077H164.928C165.216 16.8026 165.432 16.2735 165.647 15.7203H157.132L154.638 9.97208L151.279 18.7268L147.346 8.04797L144.227 18.7989L140.605 11.4392L138.159 15.4798H129.14Z"
            fill="white" />
        <path opacity="0.7"
            d="M150.704 32.2677L147.514 35.4665L147.466 35.4184L147.418 35.4665L131.97 19.9775C131.658 19.6648 131.371 19.3521 131.107 19.0154L131.035 18.9432C130.579 18.366 130.171 17.7407 129.835 17.0913C129.572 16.5862 129.356 16.0571 129.164 15.5039C128.852 14.614 128.66 13.7001 128.588 12.7621C128.324 9.85185 129.164 6.84544 131.059 4.44031C130.819 5.66692 130.747 6.91759 130.843 8.14421C130.939 9.15436 131.155 10.1645 131.467 11.1506C131.658 11.7519 131.898 12.3291 132.21 12.8823C132.57 13.5798 133.002 14.2773 133.505 14.9026L133.601 14.9988C133.889 15.3596 134.201 15.7204 134.537 16.0571L150.704 32.2677Z"
            fill="#FF9690" />
        <path
            d="M71.3801 149.71C71.3801 149.71 66.5588 152.235 58.5233 150.648C58.5233 150.648 59.4348 144.707 60.2264 137.227C60.5142 134.485 60.802 131.527 60.9939 128.593C61.2098 125.682 61.3537 122.772 61.3777 120.078C61.3777 119.525 61.3777 118.948 61.3777 118.395C61.8335 129.458 63.7044 148.531 71.3801 149.71Z"
            fill="#FFC9AB" />
    </g>
    <defs>
        <clipPath id="clip0_5717_98492">
            <rect width="208.845" height="186.463" fill="white" />
        </clipPath>
    </defs>
</svg>