<svg width="229" height="180" viewBox="0 0 229 180" fill="none" xmlns="http://www.w3.org/2000/svg">
    <g clip-path="url(#clip0_5567_274552)">
        <path
            d="M16.0973 109.091C24.2767 98.1238 26.889 105.253 47.2057 91.3028C58.7912 83.3658 65.8912 71.0275 74.6224 60.3487C83.5933 49.3813 94.891 41.6128 108.108 36.562C133.605 26.8453 166.179 26.9415 185.44 48.9965C191.317 55.7309 192.349 64.5096 192.325 73.1921C192.253 95.8004 196.282 117.783 209.211 137.048C257.198 208.465 -55.4572 205.298 16.0973 109.091Z"
            fill="#F0F3F5" />
        <path
            d="M200.384 74.4147C207.412 83.0491 182.346 83.7466 181.507 100.029C180.691 116.336 170.185 132.835 156.992 132.162C146.774 131.657 143.8 143.322 142.96 148.613C142.72 150.152 142.672 151.138 142.672 151.138C142.672 151.138 141.881 150.345 140.729 148.974C136.364 143.731 126.721 129.805 133.581 116.336C142.265 99.2838 153.011 103.805 159.007 92.5013C165.004 81.2212 193.38 65.7803 200.384 74.4147Z"
            fill="#FECB07" />
        <path
            d="M182.226 81.2703C179.228 83.1463 176.517 85.4552 174.095 87.9806C171.672 90.53 169.537 93.3681 167.978 96.5188C167.187 98.0821 166.539 99.7176 166.083 101.401C165.987 101.834 165.843 102.243 165.771 102.676L165.508 103.975C165.316 104.865 164.98 105.754 164.548 106.548C163.661 108.184 162.365 109.506 160.998 110.661C159.607 111.815 158.144 112.826 156.657 113.788C153.682 115.712 150.66 117.54 148.021 119.776C145.383 121.989 143.128 124.683 141.857 127.81C140.562 130.936 140.25 134.4 140.538 137.815C140.825 141.23 141.689 144.621 142.768 147.916L143.008 148.638C142.768 150.177 142.72 151.163 142.72 151.163C142.72 151.163 141.929 150.37 140.777 148.999L140.658 148.614C139.602 145.175 138.787 141.615 138.595 137.983C138.499 136.155 138.547 134.327 138.811 132.5C139.074 130.672 139.578 128.892 140.322 127.184C141.065 125.501 142.049 123.913 143.224 122.494C144.399 121.075 145.719 119.824 147.134 118.718C149.964 116.457 153.059 114.702 156.057 112.874C157.544 111.96 159.031 110.998 160.374 109.939C161.718 108.857 162.965 107.63 163.805 106.163C164.236 105.442 164.548 104.648 164.74 103.806L165.052 102.508C165.148 102.075 165.292 101.642 165.412 101.209C165.939 99.5011 166.635 97.8416 167.475 96.2783C169.154 93.1275 171.384 90.3136 173.903 87.8122C176.398 85.3109 179.18 83.0741 182.226 81.2703Z"
            fill="white" />
        <path
            d="M195.611 116.286C201.128 123.092 181.411 123.622 180.763 136.441C180.115 149.26 171.864 162.248 161.478 161.719C153.442 161.31 151.092 170.498 150.444 174.658C150.252 175.861 150.204 176.655 150.204 176.655C150.204 176.655 149.58 176.029 148.693 174.947C145.263 170.834 137.683 159.891 143.08 149.284C149.916 135.864 158.36 139.423 163.061 130.548C167.81 121.625 190.118 109.504 195.611 116.286Z"
            fill="#FECB07" />
        <path
            d="M181.339 121.674C178.988 123.165 176.853 124.969 174.934 126.965C173.039 128.961 171.36 131.198 170.113 133.675C169.489 134.902 168.986 136.201 168.626 137.524C168.554 137.86 168.434 138.173 168.386 138.51L168.17 139.52C168.026 140.217 167.762 140.915 167.403 141.54C166.707 142.815 165.699 143.873 164.62 144.787C163.541 145.701 162.365 146.495 161.19 147.24C158.863 148.756 156.489 150.175 154.402 151.93C152.315 153.662 150.564 155.779 149.557 158.256C148.549 160.709 148.285 163.451 148.525 166.121C148.741 168.814 149.413 171.46 150.276 174.058L150.468 174.635C150.276 175.837 150.228 176.631 150.228 176.631C150.228 176.631 149.604 176.006 148.717 174.923L148.621 174.611C147.805 171.917 147.158 169.103 146.99 166.241C146.918 164.798 146.942 163.355 147.158 161.936C147.374 160.517 147.758 159.098 148.333 157.751C148.909 156.428 149.7 155.177 150.612 154.071C151.523 152.965 152.579 151.978 153.682 151.089C155.889 149.309 158.36 147.938 160.71 146.495C161.886 145.773 163.037 145.028 164.116 144.186C165.172 143.344 166.155 142.382 166.827 141.228C167.163 140.65 167.427 140.025 167.57 139.376L167.81 138.365C167.882 138.029 168.002 137.692 168.098 137.355C168.506 136.008 169.058 134.71 169.729 133.459C171.049 130.982 172.8 128.769 174.766 126.797C176.757 124.849 178.94 123.093 181.339 121.674Z"
            fill="white" />
        <path
            d="M56.6323 121.674C58.983 123.165 61.1178 124.969 63.0367 126.965C64.9317 128.961 66.6107 131.198 67.8581 133.675C68.4817 134.902 68.9854 136.201 69.3452 137.524C69.4172 137.86 69.5371 138.173 69.5851 138.51L69.801 139.52C69.9449 140.217 70.2087 140.915 70.5685 141.54C71.2642 142.815 72.2716 143.873 73.351 144.787C74.4304 145.701 75.6057 146.495 76.7811 147.24C79.1078 148.756 81.4824 150.175 83.5693 151.93C85.6561 153.662 87.4071 155.779 88.4146 158.256C89.422 160.709 89.6859 163.451 89.446 166.121C89.2301 168.814 88.5585 171.46 87.695 174.058L87.5031 174.635C87.695 175.837 87.7429 176.631 87.7429 176.631C87.7429 176.631 88.3666 176.006 89.2541 174.923L89.35 174.611C90.1656 171.917 90.8132 169.103 90.9811 166.241C91.0531 164.798 91.0291 163.355 90.8132 161.936C90.5974 160.517 90.2136 159.098 89.6379 157.751C89.0622 156.428 88.2707 155.177 87.3592 154.071C86.4477 152.965 85.3923 151.978 84.2889 151.089C82.0821 149.309 79.6355 147.938 77.2608 146.495C76.0855 145.773 74.9341 145.028 73.8547 144.186C72.7993 143.344 71.8158 142.382 71.1442 141.228C70.8084 140.65 70.5685 140.025 70.4006 139.376L70.1608 138.365C70.0888 138.029 69.9689 137.692 69.8729 137.355C69.4652 136.008 68.9135 134.71 68.2418 133.459C66.9226 130.982 65.1716 128.769 63.2047 126.797C61.1898 124.849 59.007 123.093 56.6323 121.674Z"
            fill="white" />
        <path
            d="M37.5631 74.4147C30.535 83.0491 55.601 83.7466 56.4405 100.029C57.256 116.336 67.7622 132.835 80.9548 132.162C91.1731 131.657 94.1474 143.322 94.9869 148.613C95.2268 150.152 95.2748 151.138 95.2748 151.138C95.2748 151.138 96.0663 150.345 97.2177 148.974C101.583 143.731 111.226 129.805 104.366 116.336C95.6826 99.2838 84.9366 103.805 78.9399 92.5013C72.9433 81.2212 44.5671 65.7803 37.5631 74.4147Z"
            fill="#FECB07" />
        <path
            d="M55.7449 81.2703C58.7192 83.1463 61.4537 85.4552 63.8763 87.9806C66.299 90.53 68.4338 93.3681 69.9929 96.5188C70.7845 98.0821 71.4321 99.7176 71.8878 101.401C71.9838 101.834 72.1277 102.243 72.1997 102.676L72.4635 103.975C72.6554 104.865 72.9912 105.754 73.423 106.548C74.3105 108.184 75.6058 109.506 76.973 110.661C78.3642 111.815 79.8274 112.826 81.3146 113.788C84.2889 115.712 87.3112 117.54 89.9497 119.776C92.5883 121.989 94.843 124.683 96.1143 127.81C97.4096 130.936 97.7214 134.4 97.4336 137.815C97.1457 141.23 96.2822 144.621 95.2028 147.916L94.9629 148.638C95.2028 150.177 95.2508 151.163 95.2508 151.163C95.2508 151.163 96.0423 150.37 97.1937 148.999L97.3136 148.614C98.369 145.175 99.1846 141.615 99.3765 137.983C99.4724 136.155 99.4244 134.327 99.1606 132.5C98.8967 130.672 98.393 128.892 97.6494 127.184C96.9058 125.501 95.9224 123.913 94.7471 122.494C93.5717 121.075 92.2525 119.824 90.8372 118.718C88.0068 116.457 84.9126 114.702 81.9142 112.874C80.4271 111.96 78.9399 110.998 77.5966 109.939C76.2534 108.857 75.0061 107.63 74.1666 106.163C73.7348 105.442 73.423 104.648 73.2311 103.806L72.9193 102.508C72.8233 102.075 72.6794 101.642 72.5595 101.209C72.0318 99.5011 71.3362 97.8416 70.4966 96.2783C68.8176 93.1275 66.5868 90.3136 64.0682 87.8122C61.5496 85.3109 58.7672 83.0741 55.7449 81.2703Z"
            fill="white" />
        <path
            d="M157.76 43.1462H80.523C77.4287 43.1462 74.9341 45.6716 74.9341 48.7502V172.35C74.9341 175.452 77.4527 177.954 80.523 177.954H157.736C159.391 177.954 160.95 177.232 162.029 175.958C162.869 174.947 163.349 173.673 163.349 172.35V48.7502C163.349 45.6716 160.854 43.1462 157.76 43.1462ZM159.655 172.35C159.655 172.927 159.415 173.336 159.199 173.576C158.839 174.009 158.312 174.25 157.76 174.25H80.523C79.4676 174.25 78.628 173.408 78.628 172.35V48.7502C78.628 47.6919 79.4676 46.8501 80.523 46.8501H157.736C158.791 46.8501 159.631 47.6919 159.631 48.7502V172.35H159.655Z"
            fill="#303E47" />
        <path
            d="M159.655 48.7511V172.351C159.655 172.928 159.415 173.337 159.199 173.577C158.839 174.01 158.312 174.251 157.76 174.251H80.523C79.4676 174.251 78.6281 173.409 78.6281 172.351V48.7511C78.6281 47.6929 79.4676 46.8511 80.523 46.8511H157.736C158.791 46.8511 159.655 47.7169 159.655 48.7511Z"
            fill="#E3F8EF" />
        <path d="M136.604 52.7664H91.3409V58.0817H136.604V52.7664Z" fill="#FDFFAB" />
        <path d="M101.032 75.2306H91.3409V65.5139H101.032V75.2306ZM92.7082 73.8597H99.6403V66.9089H92.7082V73.8597Z"
            fill="#FDFFAB" />
        <path
            d="M149.58 67.582H105.973C105.589 67.582 105.277 67.2693 105.277 66.8845C105.277 66.4997 105.589 66.187 105.973 66.187H149.58C149.964 66.187 150.276 66.4997 150.276 66.8845C150.276 67.2693 149.964 67.582 149.58 67.582Z"
            fill="#FDFFAB" />
        <path
            d="M149.58 71.0207H105.973C105.589 71.0207 105.277 70.708 105.277 70.3232C105.277 69.9384 105.589 69.6257 105.973 69.6257H149.58C149.964 69.6257 150.276 69.9384 150.276 70.3232C150.276 70.7321 149.964 71.0207 149.58 71.0207Z"
            fill="#FDFFAB" />
        <path
            d="M128.952 74.4851H105.973C105.589 74.4851 105.277 74.1724 105.277 73.7876C105.277 73.4028 105.589 73.0901 105.973 73.0901H128.952C129.336 73.0901 129.648 73.4028 129.648 73.7876C129.624 74.1724 129.336 74.4851 128.952 74.4851Z"
            fill="#FDFFAB" />
        <path
            d="M106.74 75.6414C106.668 75.6414 106.596 75.6174 106.524 75.5693C106.333 75.449 106.285 75.1845 106.404 74.992L118.806 55.751C118.926 55.5586 119.189 55.5105 119.381 55.6307C119.573 55.751 119.621 56.0156 119.501 56.208L107.1 75.449C107.004 75.5693 106.884 75.6414 106.74 75.6414Z"
            fill="#303E47" />
        <path
            d="M102.927 77.9004C102.927 77.9004 105.253 71.2622 108.084 73.956C110.986 76.6978 104.534 81.46 104.534 81.46L102.927 77.9004Z"
            fill="#F2D0B2" />
        <path
            d="M37.9229 132.161C38.0668 132.137 38.1627 132.113 38.1627 132.113C38.1627 132.113 37.9468 132.257 37.9229 132.161Z"
            fill="#FECB07" />
        <path d="M101.032 91.7311H91.3409V82.0144H101.032V91.7311ZM92.7082 90.3602H99.6403V83.4094H92.7082V90.3602Z"
            fill="#FDFFAB" />
        <path
            d="M149.58 84.0825H105.973C105.589 84.0825 105.277 83.7698 105.277 83.385C105.277 83.0002 105.589 82.6875 105.973 82.6875H149.58C149.964 82.6875 150.276 83.0002 150.276 83.385C150.276 83.7698 149.964 84.0825 149.58 84.0825Z"
            fill="#FDFFAB" />
        <path
            d="M149.58 87.5212H105.973C105.589 87.5212 105.277 87.2085 105.277 86.8237C105.277 86.4389 105.589 86.1262 105.973 86.1262H149.58C149.964 86.1262 150.276 86.4389 150.276 86.8237C150.276 87.2085 149.964 87.5212 149.58 87.5212Z"
            fill="#FDFFAB" />
        <path
            d="M128.952 90.9855H105.973C105.589 90.9855 105.277 90.6729 105.277 90.2881C105.277 89.9032 105.589 89.5906 105.973 89.5906H128.952C129.336 89.5906 129.648 89.9032 129.648 90.2881C129.624 90.6729 129.336 90.9855 128.952 90.9855Z"
            fill="#FDFFAB" />
        <path
            d="M107.076 79.8964C107.076 79.8964 99.6883 93.4613 97.7934 95.6981C95.8985 97.9349 82.5859 101.23 82.5859 101.23L81.9143 100.148L78.0764 93.9423L92.8282 90.2384L102.879 77.2988C102.903 77.2988 105.757 77.2988 107.076 79.8964Z"
            fill="white" />
        <path
            d="M62.0054 171.269L64.428 170.956L66.7307 173.169C66.7307 173.169 69.9689 175.093 70.8804 176.849C71.3122 177.714 70.7365 178.893 70.7365 178.893L59.9905 175.189C59.9905 175.189 60.9739 172.255 62.0054 171.269Z"
            fill="#303E47" />
        <path
            d="M77.7406 173.673L79.9474 172.591L82.8258 173.938C82.8258 173.938 86.5197 174.707 87.9349 176.078C88.6306 176.752 88.4627 178.075 88.4627 178.075L77.093 178.05C77.093 178.05 77.069 174.972 77.7406 173.673Z"
            fill="#303E47" />
        <path
            d="M84.8886 150.848C84.8646 150.921 84.8646 150.993 84.8406 151.065C84.7927 151.353 84.7207 151.714 84.6487 152.147C83.8092 157.679 82.7538 173.433 82.7538 173.433C82.7538 173.433 80.9548 174.996 77.2129 173.577L77.5727 153.686L77.6686 148.684L77.2369 145.172L75.1021 127.759L75.4379 127.302L79.5875 121.722L79.9473 121.241L85.2724 125.017C85.2724 125.017 85.2724 125.426 85.2964 126.1C85.2964 126.388 85.3204 126.725 85.3204 127.11C85.3923 132.69 85.5842 147.866 84.8886 150.848Z"
            fill="#303E47" />
        <path
            d="M83.1855 127.277C83.1855 127.277 82.346 130.284 81.1946 134.204C80.0673 138.077 78.6281 142.815 77.4048 146.494C77.1889 147.168 76.973 147.793 76.7571 148.395C76.6132 148.827 76.4693 149.212 76.3254 149.573C76.2774 149.717 76.2294 149.838 76.1814 149.958C76.0615 150.271 75.9416 150.535 75.8456 150.8C75.6537 151.281 75.4858 151.641 75.3179 151.906C75.0541 152.363 74.6943 153.109 74.2625 154.047C74.1666 154.287 74.0466 154.528 73.9267 154.768C71.2642 160.805 66.7307 172.879 66.7307 172.879C66.7307 172.879 63.5885 173.937 61.3817 171.412L66.4429 155.754L66.5388 155.466L67.9301 151.16L69.0334 147.745L69.0814 147.529L72.6554 126.989L75.8456 124.632L79.1798 122.155L79.2277 122.203L81.1946 124.728L83.1855 127.277Z"
            fill="#445A68" />
        <path
            d="M86.3038 126.941C86.3038 126.941 85.944 126.989 85.3204 127.061C85.2244 127.061 85.1525 127.085 85.0565 127.085C83.9771 127.205 82.298 127.35 80.2832 127.374C80.1393 127.374 79.9953 127.374 79.8514 127.374C78.5082 127.398 77.045 127.35 75.4859 127.229C74.5744 127.157 73.6389 127.061 72.7034 126.917L70.3767 98.3198L72.8713 94.0386L75.9656 93.6538L77.5487 93.8222L78.1244 93.8943L80.1632 95.7463L83.2335 98.5362L84.6247 111.356L85.3923 118.306L86.3038 126.941Z"
            fill="#439654" />
        <path
            d="M97.8174 95.6992C95.9225 97.936 82.6099 101.231 82.6099 101.231L81.9383 100.149L81.1947 94.9536C87.3832 98.7056 97.6015 95.7473 97.8174 95.6992Z"
            fill="#FDFFAB" />
        <path
            d="M63.8523 128.89C63.8523 128.89 66.0591 134.975 62.7729 135.287C59.4388 135.6 60.854 127.735 60.854 127.735L63.8523 128.89Z"
            fill="#F2D0B2" />
        <path
            d="M71.5281 101.135C71.5281 101.135 71.0723 101.832 70.4247 102.891C68.8896 105.344 66.227 109.673 65.2916 111.645L64.6679 129.684C64.6679 129.684 62.3412 130.55 60.1824 129.684C60.1824 129.684 58.2155 114.628 58.7192 111.237C60.0385 102.362 67.0666 95.4348 67.0666 95.4348L71.5281 101.135Z"
            fill="white" />
        <g opacity="0.8">
            <path opacity="0.8"
                d="M85.3203 127.086C85.4163 132.714 85.6081 147.866 84.9125 150.848C84.8885 150.92 84.8885 150.993 84.8646 151.065C84.8166 151.353 84.7446 151.714 84.6727 152.147L79.5155 153.398C80.0672 144.956 80.0912 135.888 79.8274 127.422C79.7794 125.474 79.6834 123.55 79.6115 121.698C78.9159 106.113 77.5247 93.8948 77.5247 93.8948L78.1003 93.9669L80.1392 95.8189L83.2095 98.6088L84.6007 111.428L85.3683 118.379L86.3037 126.989C86.3037 126.941 85.944 127.013 85.3203 127.086Z"
                fill="#ECECEC" />
        </g>
        <path opacity="0.5"
            d="M76.3253 149.573C76.2774 149.717 76.2294 149.838 76.1814 149.958C76.0615 150.271 75.9416 150.535 75.8456 150.8C75.6537 151.281 75.4858 151.642 75.3179 151.906C75.0541 152.363 74.6943 153.109 74.2625 154.047C72.5834 154.696 70.0169 155.009 66.4429 155.754L66.5388 155.466L67.93 151.161L69.0334 147.745L69.0814 147.529L76.3253 149.573Z"
            fill="#445A68" />
        <path
            d="M68.7696 168.022C68.7216 168.022 68.6736 168.022 68.6257 167.998C68.4098 167.902 68.3138 167.662 68.3858 167.469C68.4338 167.373 72.3196 157.584 74.9581 151.74C77.5727 145.943 81.5545 131.561 81.6024 131.416C81.6744 131.2 81.8903 131.08 82.1061 131.128C82.322 131.2 82.466 131.416 82.394 131.633C82.346 131.777 78.3403 146.232 75.7257 152.076C73.1112 157.897 69.2253 167.662 69.1774 167.758C69.0814 167.926 68.9375 168.022 68.7696 168.022Z"
            fill="#FDFFAB" />
        <path
            d="M90.1417 146.735L84.9845 147.721C84.9845 147.721 83.7133 102.889 78.1244 93.9661C80.1153 94.2787 82.8018 95.2648 84.5768 98.2231C87.6231 103.394 90.1417 146.735 90.1417 146.735Z"
            fill="white" />
        <path
            d="M70.4247 102.89C68.8895 105.343 66.227 109.672 65.2915 111.644L64.6679 129.683C64.6679 129.683 64.1162 116.046 63.9483 111.139C63.7564 106.257 66.4429 100.869 66.4429 100.869L69.921 99.5466C69.897 99.5466 70.1368 101.086 70.4247 102.89Z"
            fill="#FDFFAB" />
        <path
            d="M76.7811 149.718C76.7811 149.718 71.9598 152.243 63.9243 150.656C63.9243 150.656 64.8358 144.715 65.6274 137.235C65.9152 134.493 66.203 131.535 66.3949 128.601C66.6108 125.69 66.7547 122.78 66.7787 120.087C66.7787 119.533 66.7787 118.956 66.7787 118.403V118.379C66.7787 115.685 66.7307 113.088 66.6588 110.682C66.6588 110.658 66.6588 110.658 66.6588 110.634C66.4189 102.216 66.0111 95.8428 67.2585 95.1934C69.2014 94.1592 72.8473 94.063 72.8473 94.063C72.8473 94.063 74.5024 102.938 75.7017 122.155C76.1815 129.731 76.5653 138.871 76.7811 149.718Z"
            fill="white" />
        <path
            d="M72.8474 94.087L72.6794 89.4932L74.5744 89.4691L76.4453 89.4451L77.5247 93.9908L77.5487 94.111C77.5487 94.087 78.7481 99.3302 72.8474 94.087Z"
            fill="#F2D0B2" />
        <path
            d="M77.5247 93.9667C72.8713 93.8464 72.7274 89.8058 72.7274 89.8058L74.5744 89.4691L76.4453 89.4451L77.5247 93.9667Z"
            fill="#F2D0B2" />
        <path
            d="M76.7091 91.1519C71.3841 92.0418 71.624 85.5479 71.624 85.5479L71.8398 83.3833L71.9358 82.4212L72.1756 81.4832L72.2716 81.1465L72.9432 81.0984L76.7571 80.8579L78.0763 82.5174C78.0763 82.5174 78.2682 82.8782 78.4841 83.4314C79.3716 85.5479 80.9067 90.4544 76.7091 91.1519Z"
            fill="#F2D0B2" />
        <path d="M101.032 108.229H91.3409V98.5127H101.032V108.229ZM92.7082 106.858H99.6403V99.9077H92.7082V106.858Z"
            fill="#FDFFAB" />
        <path
            d="M149.58 100.581H105.973C105.589 100.581 105.277 100.268 105.277 99.8833C105.277 99.4985 105.589 99.1858 105.973 99.1858H149.58C149.964 99.1858 150.276 99.4985 150.276 99.8833C150.276 100.268 149.964 100.581 149.58 100.581Z"
            fill="#FDFFAB" />
        <path
            d="M149.58 104.019H105.973C105.589 104.019 105.277 103.707 105.277 103.322C105.277 102.937 105.589 102.625 105.973 102.625H149.58C149.964 102.625 150.276 102.937 150.276 103.322C150.276 103.731 149.964 104.019 149.58 104.019Z"
            fill="#FDFFAB" />
        <path
            d="M128.952 107.484H105.973C105.589 107.484 105.277 107.171 105.277 106.786C105.277 106.402 105.589 106.089 105.973 106.089H128.952C129.336 106.089 129.648 106.402 129.648 106.786C129.624 107.171 129.336 107.484 128.952 107.484Z"
            fill="#FDFFAB" />
        <path
            d="M78.5082 83.48C76.7332 84.6104 73.7828 84.0813 73.7828 84.0813C73.7588 85.4041 73.2791 86.3661 73.2791 86.3661L71.8639 83.4078L71.1923 82.0129L72.1997 81.5078L72.9673 81.147L76.7811 80.9065L78.1004 82.566C78.1004 82.566 78.2683 82.9268 78.5082 83.48Z"
            fill="#F2D0B2" />
        <path d="M101.032 124.728H91.3409V115.011H101.032V124.728ZM92.7082 123.357H99.6403V116.406H92.7082V123.357Z"
            fill="#FDFFAB" />
        <path
            d="M149.58 117.079H105.973C105.589 117.079 105.277 116.767 105.277 116.382C105.277 115.997 105.589 115.684 105.973 115.684H149.58C149.964 115.684 150.276 115.997 150.276 116.382C150.276 116.767 149.964 117.079 149.58 117.079Z"
            fill="#FDFFAB" />
        <path
            d="M149.58 120.544H105.973C105.589 120.544 105.277 120.231 105.277 119.846C105.277 119.461 105.589 119.149 105.973 119.149H149.58C149.964 119.149 150.276 119.461 150.276 119.846C150.276 120.231 149.964 120.544 149.58 120.544Z"
            fill="#FDFFAB" />
        <path
            d="M128.952 123.982H105.973C105.589 123.982 105.277 123.67 105.277 123.285C105.277 122.9 105.589 122.587 105.973 122.587H128.952C129.336 122.587 129.648 122.9 129.648 123.285C129.624 123.67 129.336 123.982 128.952 123.982Z"
            fill="#FDFFAB" />
        <path d="M101.032 141.228H91.3409V131.512H101.032V141.228ZM92.7082 139.858H99.6403V132.907H92.7082V139.858Z"
            fill="#FDFFAB" />
        <path
            d="M149.58 133.58H105.973C105.589 133.58 105.277 133.267 105.277 132.882C105.277 132.497 105.589 132.185 105.973 132.185H149.58C149.964 132.185 150.276 132.497 150.276 132.882C150.276 133.267 149.964 133.58 149.58 133.58Z"
            fill="#FDFFAB" />
        <path
            d="M149.58 137.044H105.973C105.589 137.044 105.277 136.731 105.277 136.347C105.277 135.962 105.589 135.649 105.973 135.649H149.58C149.964 135.649 150.276 135.962 150.276 136.347C150.276 136.731 149.964 137.044 149.58 137.044Z"
            fill="#FDFFAB" />
        <path
            d="M128.952 140.483H105.973C105.589 140.483 105.277 140.17 105.277 139.785C105.277 139.401 105.589 139.088 105.973 139.088H128.952C129.336 139.088 129.648 139.401 129.648 139.785C129.648 140.17 129.336 140.483 128.952 140.483Z"
            fill="#FDFFAB" />
        <path
            d="M73.2551 83.7444C73.2551 83.7444 76.0136 83.4558 77.9565 82.7102C79.8754 81.9646 79.0598 78.5012 76.5892 78.1164C74.0946 77.7316 68.9135 79.0544 68.6017 80.738C68.002 84.1293 71.0483 88.699 72.7034 89.7813C72.7274 89.8054 73.471 87.737 73.2551 83.7444Z"
            fill="#445A68" />
        <path
            d="M71.744 86.5101C71.84 87.0873 72.3677 87.4962 72.9433 87.4C73.519 87.3038 73.9268 86.7746 73.8308 86.1974C73.7349 85.6202 73.2072 85.2113 72.6315 85.3075C72.0558 85.4037 71.672 85.9328 71.744 86.5101Z"
            fill="#F2D0B2" />
        <path
            d="M95.5867 122.468L92.9721 119.221C92.7323 118.908 92.7802 118.451 93.0921 118.211C93.4039 117.97 93.8596 118.018 94.0995 118.331L95.6586 120.279L102.375 113.088C102.639 112.799 103.094 112.775 103.406 113.064C103.694 113.328 103.718 113.785 103.43 114.098L95.5867 122.468Z"
            fill="#303E47" />
        <path d="M143.896 153.301H91.0051V166.073H143.896V153.301Z" fill="#FDFFAB" />
        <path
            d="M195.179 111.598V171.486C195.179 171.871 195.155 172.231 195.083 172.616C194.795 174.276 193.884 175.719 192.588 176.681C191.509 177.475 190.19 177.956 188.751 177.956H171.984C168.41 177.956 165.531 175.07 165.531 171.486V111.598H195.179Z"
            fill="#F7EABC" />
        <path d="M198.585 104.022H162.101V111.598H198.585V104.022Z" fill="#49A65C" />
        <path d="M195.179 116.048H174.766V163.549H195.179V116.048Z" fill="#FFE7CE" />
        <path d="M195.179 105.969H165.508V109.673H195.179V105.969Z" fill="white" />
        <g opacity="0.5">
            <path opacity="0.5"
                d="M195.083 172.617C194.795 174.276 193.884 175.72 192.588 176.682C191.509 177.475 190.19 177.956 188.751 177.956H171.984C168.41 177.956 165.531 175.07 165.531 171.487V155.541C166.947 166.484 173.039 179.52 195.083 172.617Z"
                fill="#F7EABC" />
        </g>
        <path
            d="M31.3265 132.185C31.1346 132.137 31.0146 132.113 31.0146 132.113C31.0146 132.113 31.3025 132.305 31.3265 132.185Z"
            fill="#FECB07" />
        <path
            d="M46.6539 152.965H31.3025V144.98C31.3025 142.335 33.4613 140.17 36.0998 140.17H41.8566C43.0799 140.17 44.2313 140.627 45.1427 141.469C46.1022 142.383 46.6539 143.658 46.6539 144.98V152.965ZM32.8616 151.402H45.0708V144.98C45.0708 144.066 44.711 143.225 44.0394 142.623C43.4397 142.07 42.6481 141.758 41.8326 141.758H36.0758C34.3008 141.758 32.8376 143.201 32.8376 145.004V151.402H32.8616Z"
            fill="#445A68" />
        <path
            d="M56.1047 149.215V174.444C56.1047 176.32 54.5935 177.86 52.6986 177.86H25.2579C23.3869 177.86 21.8518 176.32 21.8518 174.444V149.215C21.8518 147.339 23.363 145.799 25.2579 145.799H52.7226C53.658 145.799 54.5216 146.184 55.1212 146.809C55.7209 147.435 56.1047 148.277 56.1047 149.215Z"
            fill="#303E47" />
        <path
            d="M56.1047 149.215V157.849H21.8518V149.215C21.8518 147.339 23.363 145.799 25.2579 145.799H52.7226C53.658 145.799 54.5216 146.184 55.1212 146.809C55.7209 147.435 56.1047 148.277 56.1047 149.215Z"
            fill="#439654" />
        <path d="M41.257 154.529H36.6755V161.167H41.257V154.529Z" fill="#FECB07" />
        <g opacity="0.5">
            <path opacity="0.5"
                d="M52.6986 177.859H25.2579C23.3869 177.859 21.8518 176.319 21.8518 174.443V157.848C21.8518 157.848 27.2488 176.536 52.6986 177.859Z"
                fill="#445A68" />
        </g>
        <path
            d="M143.944 103.251C141.977 102.12 140.561 99.9315 141.017 97.2378C141.329 95.2896 142.504 92.8605 143.944 90.4794C141.521 89.3249 138.427 88.435 134.613 87.8578C129.408 87.0641 126.026 84.8754 124.586 81.3639C122.643 76.6018 124.61 69.675 130.031 62.3875L131.351 63.3736C126.289 70.2041 124.37 76.5296 126.098 80.7626C127.297 83.721 130.247 85.5729 134.853 86.2704C138.882 86.8717 142.193 87.8337 144.807 89.1084C147.709 84.6349 151.211 80.6183 151.451 80.3538L152.675 81.4361C152.627 81.5082 149.125 85.5248 146.246 89.9021C147.805 90.8642 149.053 91.9465 149.94 93.1972C151.427 95.2656 151.955 97.6467 151.499 100.316C150.972 103.443 148.357 104.429 146.03 104.044C145.311 103.876 144.615 103.635 143.944 103.251ZM145.383 91.249C144.015 93.4858 142.912 95.7466 142.624 97.5024C142.169 100.196 144.207 102.048 146.318 102.409C147.805 102.649 149.532 102.168 149.916 100.028C150.3 97.815 149.868 95.8428 148.645 94.1592C147.853 93.0529 146.774 92.0908 145.383 91.249Z"
            fill="#49A65C" />
        <path d="M130.291 60.6931L128.854 63.2214L131.376 64.6623L132.813 62.1339L130.291 60.6931Z" fill="#445A68" />
        <path
            d="M149.197 63.0857L156.153 45.1194C156.992 42.9789 159.295 41.7282 161.55 42.2333L167.091 43.4839L166.659 45.3359L161.118 44.0852C159.775 43.7726 158.408 44.5181 157.928 45.7929L150.972 63.7592L149.197 63.0857Z"
            fill="#F0F3F5" />
        <path
            d="M168.77 74.2694L180.643 59.1171C182.058 57.3132 181.938 54.6676 180.355 52.984L176.445 48.8472L175.054 50.17L178.964 54.3068C179.899 55.2929 179.971 56.8562 179.132 57.9386L167.259 73.0909L168.77 74.2694Z"
            fill="#F0F3F5" />
        <path
            d="M166.635 46.7799L165.244 45.8178C164.98 45.6254 164.86 45.2887 164.98 44.976L165.603 43.1722C165.699 42.8836 165.987 42.6912 166.299 42.6912H168.074C168.338 42.6912 168.578 42.8355 168.698 43.0519C168.794 43.2203 168.842 43.4608 168.746 43.6773L167.738 46.4191C167.57 46.8761 167.043 47.0445 166.635 46.7799Z"
            fill="#445A68" />
        <path
            d="M153.658 78.0944L152.867 77.6374C148.333 75.0399 146.366 69.6043 148.189 64.6979L150.372 58.8774L152.915 59.8395L150.732 65.6599C149.365 69.3157 150.828 73.3563 154.21 75.2804L155.001 75.7374L153.658 78.0944Z"
            fill="#445A68" />
        <path
            d="M173.879 50.9154L175.414 51.637C175.702 51.7813 176.062 51.6851 176.278 51.4446L177.501 50.0015C177.693 49.761 177.741 49.4242 177.573 49.1597L176.661 47.6445C176.517 47.4039 176.278 47.2837 176.038 47.2837C175.822 47.2837 175.63 47.3799 175.486 47.5483L173.639 49.8091C173.327 50.1458 173.447 50.699 173.879 50.9154Z"
            fill="#445A68" />
        <path
            d="M153.634 78.0694L154.426 78.5263C158.959 81.1239 164.644 80.0416 167.906 75.9528L171.792 71.1185L169.681 69.4109L165.795 74.2452C163.373 77.2757 159.151 78.0934 155.769 76.1453L154.977 75.6883L153.634 78.0694Z"
            fill="#445A68" />
        <path d="M152.915 84.7805L148.285 82.1349L151.044 75.2803L157.4 78.888L152.915 84.7805Z" fill="#303E47" />
        <path
            d="M138.81 48.6063C135.045 46.4416 130.223 47.7645 128.064 51.5646C125.906 55.3406 127.225 60.1749 131.015 62.3396C134.781 64.5042 139.602 63.1813 141.761 59.3812C143.92 55.6052 142.6 50.7709 138.81 48.6063ZM131.95 60.68C129.096 59.0445 128.088 55.3887 129.719 52.5026C131.351 49.6405 134.997 48.6303 137.875 50.2658C140.729 51.9013 141.737 55.5571 140.106 58.4432C138.475 61.3053 134.829 62.3155 131.95 60.68Z"
            fill="#2C7B3C" />
        <path
            d="M140.106 58.4419C138.474 61.304 134.829 62.3142 131.95 60.6787C129.096 59.0432 128.088 55.3874 129.719 52.5012C131.35 49.6391 134.996 48.629 137.875 50.2645C140.753 51.9 141.737 55.5798 140.106 58.4419Z"
            fill="white" />
        <path
            d="M136.058 59.6216C138.333 58.9969 139.671 56.6419 139.048 54.3614C138.425 52.0809 136.077 50.7386 133.802 51.3633C131.528 51.988 130.189 54.3431 130.812 56.6235C131.435 58.904 133.784 60.2463 136.058 59.6216Z"
            fill="#F7EABC" />
        <path
            d="M136.172 56.2069C135.764 56.9044 134.901 57.1449 134.181 56.7601C133.485 56.3512 133.246 55.4854 133.629 54.7639C134.037 54.0664 134.901 53.8259 135.62 54.2107C136.34 54.6195 136.58 55.5094 136.172 56.2069Z"
            fill="#49A65C" />
        <path
            d="M151.955 135.022C154.953 138.654 144.351 139.015 144.016 145.894C143.704 152.796 139.29 159.795 133.725 159.555C129.408 159.362 128.16 164.317 127.825 166.554C127.729 167.203 127.705 167.636 127.705 167.636C127.705 167.636 127.369 167.299 126.889 166.722C125.042 164.509 120.916 158.641 123.795 152.941C127.441 145.701 131.974 147.601 134.493 142.791C137.011 137.981 148.957 131.391 151.955 135.022Z"
            fill="#2C7B3C" />
        <path
            d="M144.279 137.957C143.032 138.751 141.881 139.737 140.849 140.819C139.842 141.901 138.93 143.104 138.283 144.451C137.947 145.124 137.683 145.798 137.491 146.519C137.443 146.688 137.395 146.88 137.371 147.048L137.251 147.602C137.179 147.986 137.035 148.347 136.844 148.684C136.484 149.381 135.932 149.935 135.356 150.44C134.781 150.945 134.157 151.354 133.533 151.762C132.286 152.58 131.015 153.35 129.887 154.312C128.76 155.25 127.825 156.404 127.297 157.727C126.769 159.05 126.625 160.517 126.769 161.96C126.889 163.403 127.273 164.846 127.729 166.217L127.825 166.53C127.729 167.179 127.705 167.612 127.705 167.612C127.705 167.612 127.369 167.276 126.889 166.698L126.841 166.53C126.385 165.087 126.05 163.572 125.954 162.032C125.906 161.263 125.93 160.493 126.026 159.699C126.122 158.93 126.337 158.16 126.649 157.463C126.961 156.741 127.369 156.068 127.873 155.466C128.352 154.865 128.928 154.336 129.528 153.855C130.727 152.893 132.022 152.147 133.294 151.354C133.917 150.969 134.541 150.56 135.117 150.103C135.692 149.646 136.196 149.117 136.556 148.492C136.724 148.179 136.868 147.842 136.94 147.505L137.059 146.952C137.107 146.76 137.155 146.591 137.203 146.399C137.419 145.678 137.707 144.98 138.067 144.307C138.762 142.96 139.722 141.781 140.753 140.699C141.833 139.689 143.008 138.727 144.279 137.957Z"
            fill="white" />
        <path
            d="M107.268 131.656C103.334 134.253 113.361 137.741 111.61 144.403C109.859 151.089 111.993 159.074 117.39 160.493C121.564 161.6 121.3 166.674 120.94 168.911C120.844 169.561 120.748 169.969 120.748 169.969C120.748 169.969 121.156 169.753 121.804 169.344C124.227 167.781 129.887 163.403 128.832 157.102C127.513 149.117 122.595 149.55 121.612 144.235C120.653 138.943 111.178 129.082 107.268 131.656Z"
            fill="#FECB07" />
        <path
            d="M113.72 136.754C114.68 137.909 115.495 139.16 116.143 140.506C116.791 141.853 117.294 143.272 117.534 144.739C117.654 145.461 117.702 146.207 117.678 146.952C117.654 147.145 117.678 147.313 117.654 147.505L117.606 148.059C117.558 148.443 117.582 148.852 117.654 149.213C117.798 149.983 118.158 150.68 118.566 151.33C118.973 151.979 119.453 152.58 119.909 153.157C120.868 154.312 121.852 155.442 122.619 156.669C123.411 157.896 123.963 159.266 124.083 160.71C124.203 162.129 123.891 163.572 123.339 164.918C122.787 166.265 122.02 167.516 121.156 168.695L120.964 168.959C120.868 169.609 120.772 170.017 120.772 170.017C120.772 170.017 121.18 169.801 121.828 169.392L121.924 169.248C122.787 167.997 123.555 166.674 124.107 165.231C124.37 164.51 124.586 163.764 124.706 162.994C124.826 162.225 124.85 161.431 124.778 160.661C124.682 159.892 124.49 159.122 124.203 158.401C123.915 157.679 123.531 157.006 123.099 156.38C122.26 155.106 121.228 153.999 120.245 152.869C119.765 152.316 119.285 151.738 118.878 151.137C118.47 150.536 118.134 149.886 117.966 149.165C117.894 148.804 117.87 148.467 117.894 148.107L117.942 147.553C117.966 147.361 117.966 147.169 117.966 146.976C117.966 146.207 117.894 145.461 117.774 144.715C117.486 143.224 116.959 141.805 116.263 140.482C115.543 139.111 114.704 137.861 113.72 136.754Z"
            fill="white" />
        <path
            d="M124.874 179.806C120.005 179.806 116.047 175.838 116.047 170.956V165.496H133.701V170.956C133.701 172.182 133.461 173.337 133.006 174.395C131.686 177.594 128.544 179.806 124.874 179.806Z"
            fill="#445A68" />
        <path
            d="M70.3048 40.815C70.3048 42.5226 70.0169 44.1581 69.4652 45.6733C67.4744 51.3494 62.0774 55.4141 55.7449 55.4141C47.7094 55.4141 41.1851 48.8722 41.1851 40.815C41.1851 37.4237 42.3364 34.273 44.2793 31.7957C46.9418 28.4045 51.0915 26.2158 55.7449 26.2158C63.7804 26.2158 70.3048 32.7578 70.3048 40.815Z"
            fill="#49A65C" />
        <path
            d="M62.2692 37.3284H59.2229V34.2739C59.2229 33.8169 59.031 33.4081 58.7432 33.1195C58.4553 32.8308 58.0236 32.6384 57.5918 32.6384H53.9219C53.0104 32.6384 52.2668 33.384 52.2668 34.298V37.3525H49.2205C48.309 37.3525 47.5654 38.0981 47.5654 39.012V42.6919C47.5654 43.6058 48.309 44.3514 49.2205 44.3514H52.2668V47.4059C52.2668 48.3199 53.0104 49.0655 53.9219 49.0655H57.5678C58.4793 49.0655 59.2229 48.3199 59.2229 47.4059V44.3514H62.2692C62.7249 44.3514 63.1327 44.159 63.4206 43.8704C63.7084 43.5818 63.9003 43.1489 63.9003 42.7159V39.0361C63.9003 38.074 63.1807 37.3284 62.2692 37.3284Z"
            fill="white" />
        <path opacity="0.7"
            d="M69.4652 45.6967C67.4743 51.3728 62.0774 55.4375 55.7449 55.4375C47.7094 55.4375 41.1851 48.8955 41.1851 40.8383C41.1851 37.4471 42.3364 34.2964 44.2793 31.8191C43.7276 33.3343 43.4398 34.9939 43.4398 36.7015C43.4398 44.7587 49.9641 51.3006 57.9996 51.3006C62.653 51.2766 66.8027 49.0879 69.4652 45.6967Z"
            fill="#49A65C" />
        <path
            d="M171.768 11.7118C171.768 12.0485 171.744 12.4093 171.72 12.746C171.624 13.7561 171.408 14.7422 171.048 15.7043C170.857 16.2334 170.617 16.7626 170.329 17.2917C170.017 17.8449 169.657 18.398 169.273 18.9272L169.201 18.9993C168.938 19.336 168.65 19.6487 168.338 19.9614L157.448 30.9047L152.891 35.4745L152.843 35.4264L152.795 35.4745L137.347 19.9854C137.035 19.6728 136.748 19.3601 136.484 19.0234L136.412 18.9512C135.956 18.374 135.548 17.7487 135.212 17.0993C134.949 16.5942 134.733 16.0651 134.541 15.5119C134.229 14.622 134.037 13.708 133.965 12.77C133.701 9.85982 134.541 6.85341 136.436 4.44828C136.7 4.11156 137.011 3.77484 137.323 3.43812C138.187 2.57228 139.17 1.85074 140.202 1.32161C144.207 -0.770855 149.197 -0.361983 152.843 2.54823C157.424 -1.10757 164.116 -0.818958 168.362 3.43812C170.641 5.723 171.768 8.70536 171.768 11.7118Z"
            fill="#FF9690" />
        <path
            d="M134.541 15.4887C134.733 16.0179 134.949 16.547 135.212 17.0761H144.447L145.862 14.7191L150.012 23.137L152.915 13.0836L156.632 23.2092L160.11 14.1419L161.478 17.3166H170.329C170.617 16.8116 170.832 16.2824 171.048 15.7292H162.533L160.039 9.98099L156.68 18.7357L152.747 8.05688L149.628 18.8078L146.006 11.4481L143.56 15.4887H134.541Z"
            fill="white" />
        <path opacity="0.7"
            d="M156.105 32.2766L152.914 35.4754L152.866 35.4273L152.819 35.4754L137.371 19.9864C137.059 19.6737 136.771 19.361 136.508 19.0243L136.436 18.9522C135.98 18.3749 135.572 17.7496 135.236 17.1002C134.973 16.5951 134.757 16.066 134.565 15.5128C134.253 14.6229 134.061 13.709 133.989 12.771C133.725 9.86076 134.565 6.85435 136.46 4.44922C136.22 5.67584 136.148 6.9265 136.244 8.15312C136.34 9.16328 136.556 10.1734 136.867 11.1595C137.059 11.7608 137.299 12.338 137.611 12.8912C137.971 13.5887 138.403 14.2862 138.906 14.9115L139.002 15.0077C139.29 15.3685 139.602 15.7293 139.938 16.066L156.105 32.2766Z"
            fill="#FF9690" />
        <path
            d="M76.7811 149.718C76.7811 149.718 71.9598 152.244 63.9243 150.656C63.9243 150.656 64.8358 144.716 65.6274 137.236C65.9152 134.494 66.203 131.536 66.3949 128.601C66.6108 125.691 66.7547 122.781 66.7787 120.087C66.7787 119.534 66.7787 118.957 66.7787 118.404C67.2345 129.467 69.1054 148.54 76.7811 149.718Z"
            fill="#FDFFAB" />
    </g>
    <defs>
        <clipPath id="clip0_5567_274552">
            <rect width="229" height="180" fill="white" />
        </clipPath>
    </defs>
</svg>