<svg width="209" height="187" viewBox="0 0 209 187" fill="none" xmlns="http://www.w3.org/2000/svg">
    <g clip-path="url(#clip0_4017_44785)">
        <path
            d="M10.6963 109.081C18.8757 98.1135 21.488 105.242 41.8047 91.2925C53.3902 83.3556 60.4902 71.0173 69.2214 60.3385C78.1923 49.3711 89.49 41.6025 102.707 36.5517C128.204 26.835 160.778 26.9312 180.039 48.9863C185.916 55.7206 186.948 64.4994 186.924 73.1819C186.852 95.7901 190.881 117.773 203.81 137.038C251.797 208.454 -60.8582 205.288 10.6963 109.081Z"
            fill="#F1F4FC" />
        <path
            d="M194.983 74.4049C202.011 83.0394 176.945 83.7369 176.106 100.02C175.29 116.326 164.784 132.826 151.591 132.152C141.373 131.647 138.399 143.312 137.559 148.603C137.319 150.143 137.271 151.129 137.271 151.129C137.271 151.129 136.48 150.335 135.328 148.964C130.963 143.721 121.32 129.795 128.18 116.326C136.864 99.274 147.61 103.796 153.606 92.4915C159.603 81.2115 187.979 65.7705 194.983 74.4049Z"
            fill="#90B1FC" />
        <path
            d="M176.825 81.2617C173.827 83.1377 171.116 85.4466 168.694 87.972C166.271 90.5215 164.136 93.3595 162.577 96.5102C161.786 98.0736 161.138 99.7091 160.682 101.393C160.586 101.826 160.442 102.234 160.37 102.667L160.107 103.966C159.915 104.856 159.579 105.746 159.147 106.54C158.26 108.175 156.964 109.498 155.597 110.652C154.206 111.807 152.743 112.817 151.256 113.779C148.281 115.703 145.259 117.531 142.62 119.768C139.982 121.981 137.727 124.674 136.456 127.801C135.161 130.928 134.849 134.391 135.137 137.806C135.424 141.222 136.288 144.613 137.367 147.908L137.607 148.629C137.367 150.169 137.319 151.155 137.319 151.155C137.319 151.155 136.528 150.361 135.376 148.99L135.257 148.605C134.201 145.166 133.386 141.606 133.194 137.975C133.098 136.147 133.146 134.319 133.41 132.491C133.673 130.663 134.177 128.883 134.921 127.176C135.664 125.492 136.648 123.905 137.823 122.486C138.998 121.067 140.318 119.816 141.733 118.71C144.563 116.449 147.658 114.693 150.656 112.865C152.143 111.951 153.63 110.989 154.973 109.931C156.317 108.849 157.564 107.622 158.404 106.155C158.835 105.433 159.147 104.64 159.339 103.798L159.651 102.499C159.747 102.066 159.891 101.633 160.011 101.2C160.538 99.4926 161.234 97.8331 162.074 96.2697C163.753 93.119 165.983 90.305 168.502 87.8037C170.997 85.3023 173.779 83.0656 176.825 81.2617Z"
            fill="white" />
        <path
            d="M190.21 116.279C195.727 123.086 176.01 123.615 175.362 136.434C174.714 149.253 166.463 162.241 156.077 161.712C148.041 161.303 145.691 170.491 145.043 174.652C144.851 175.854 144.803 176.648 144.803 176.648C144.803 176.648 144.179 176.023 143.292 174.94C139.862 170.827 132.282 159.884 137.679 149.278C144.515 135.857 152.959 139.416 157.66 130.542C162.409 121.619 184.717 109.497 190.21 116.279Z"
            fill="#90B1FC" />
        <path
            d="M175.938 121.668C173.587 123.159 171.452 124.963 169.533 126.959C167.638 128.956 165.959 131.192 164.712 133.67C164.088 134.896 163.585 136.195 163.225 137.518C163.153 137.855 163.033 138.167 162.985 138.504L162.769 139.514C162.625 140.212 162.361 140.909 162.002 141.534C161.306 142.809 160.298 143.867 159.219 144.781C158.14 145.695 156.964 146.489 155.789 147.235C153.462 148.75 151.088 150.169 149.001 151.925C146.914 153.656 145.163 155.773 144.156 158.25C143.148 160.703 142.884 163.445 143.124 166.115C143.34 168.809 144.012 171.454 144.875 174.052L145.067 174.629C144.875 175.832 144.827 176.625 144.827 176.625C144.827 176.625 144.203 176 143.316 174.918L143.22 174.605C142.404 171.911 141.757 169.097 141.589 166.235C141.517 164.792 141.541 163.349 141.757 161.93C141.973 160.511 142.357 159.092 142.932 157.745C143.508 156.422 144.299 155.171 145.211 154.065C146.122 152.959 147.178 151.973 148.281 151.083C150.488 149.303 152.959 147.932 155.309 146.489C156.485 145.767 157.636 145.022 158.715 144.18C159.771 143.338 160.754 142.376 161.426 141.222C161.762 140.644 162.026 140.019 162.169 139.37L162.409 138.36C162.481 138.023 162.601 137.686 162.697 137.349C163.105 136.003 163.657 134.704 164.328 133.453C165.648 130.976 167.399 128.763 169.365 126.791C171.356 124.843 173.539 123.087 175.938 121.668Z"
            fill="white" />
        <path
            d="M51.2313 121.664C53.582 123.155 55.7168 124.959 57.6357 126.955C59.5307 128.952 61.2097 131.188 62.4571 133.666C63.0807 134.892 63.5844 136.191 63.9442 137.514C64.0162 137.851 64.1361 138.163 64.1841 138.5L64.4 139.51C64.5439 140.208 64.8077 140.905 65.1675 141.53C65.8632 142.805 66.8706 143.863 67.95 144.777C69.0294 145.691 70.2047 146.485 71.3801 147.231C73.7068 148.746 76.0814 150.165 78.1683 151.921C80.2551 153.652 82.0061 155.769 83.0136 158.246C84.021 160.699 84.2849 163.441 84.045 166.111C83.8291 168.805 83.1575 171.45 82.294 174.048L82.1021 174.625C82.294 175.828 82.3419 176.621 82.3419 176.621C82.3419 176.621 82.9656 175.996 83.8531 174.914L83.949 174.601C84.7646 171.907 85.4122 169.093 85.5801 166.231C85.6521 164.788 85.6281 163.345 85.4122 161.926C85.1964 160.507 84.8126 159.088 84.2369 157.741C83.6612 156.418 82.8697 155.168 81.9582 154.061C81.0467 152.955 79.9913 151.969 78.8879 151.079C76.6811 149.299 74.2345 147.928 71.8598 146.485C70.6845 145.763 69.5331 145.018 68.4537 144.176C67.3983 143.334 66.4148 142.372 65.7432 141.218C65.4074 140.641 65.1675 140.015 64.9996 139.366L64.7598 138.356C64.6878 138.019 64.5679 137.682 64.4719 137.346C64.0642 135.999 63.5125 134.7 62.8408 133.449C61.5216 130.972 59.7706 128.759 57.8037 126.787C55.7888 124.839 53.606 123.083 51.2313 121.664Z"
            fill="white" />
        <path
            d="M32.162 74.4049C25.134 83.0394 50.2 83.7369 51.0395 100.02C51.855 116.326 62.3612 132.826 75.5538 132.152C85.7721 131.647 88.7464 143.312 89.5859 148.603C89.8258 150.143 89.8738 151.129 89.8738 151.129C89.8738 151.129 90.6653 150.335 91.8167 148.964C96.1823 143.721 105.825 129.795 98.9647 116.326C90.2816 99.274 79.5356 103.796 73.5389 92.4915C67.5423 81.2115 39.1661 65.7705 32.162 74.4049Z"
            fill="#90B1FC" />
        <path
            d="M50.3439 81.2617C53.3182 83.1377 56.0527 85.4466 58.4753 87.972C60.898 90.5215 63.0328 93.3595 64.5919 96.5102C65.3835 98.0736 66.0311 99.7091 66.4868 101.393C66.5828 101.826 66.7267 102.234 66.7987 102.667L67.0625 103.966C67.2544 104.856 67.5902 105.746 68.022 106.54C68.9095 108.175 70.2048 109.498 71.572 110.652C72.9632 111.807 74.4264 112.817 75.9136 113.779C78.8879 115.703 81.9102 117.531 84.5487 119.768C87.1873 121.981 89.442 124.674 90.7133 127.801C92.0086 130.928 92.3204 134.391 92.0326 137.806C91.7447 141.222 90.8812 144.613 89.8018 147.908L89.5619 148.629C89.8018 150.169 89.8498 151.155 89.8498 151.155C89.8498 151.155 90.6413 150.361 91.7927 148.99L91.9126 148.605C92.968 145.166 93.7836 141.606 93.9755 137.975C94.0714 136.147 94.0234 134.319 93.7596 132.491C93.4957 130.663 92.992 128.883 92.2484 127.176C91.5048 125.492 90.5214 123.905 89.3461 122.486C88.1707 121.067 86.8515 119.816 85.4362 118.71C82.6058 116.449 79.5116 114.693 76.5132 112.865C75.0261 111.951 73.5389 110.989 72.1956 109.931C70.8524 108.849 69.6051 107.622 68.7656 106.155C68.3338 105.433 68.022 104.64 67.8301 103.798L67.5183 102.499C67.4223 102.066 67.2784 101.633 67.1585 101.2C66.6308 99.4926 65.9351 97.8331 65.0956 96.2697C63.4166 93.119 61.1858 90.305 58.6672 87.8037C56.1486 85.3023 53.3662 83.0656 50.3439 81.2617Z"
            fill="white" />
        <path
            d="M152.359 43.1367H75.122C72.0277 43.1367 69.5331 45.6621 69.5331 48.7407V172.34C69.5331 175.443 72.0517 177.944 75.122 177.944H152.335C153.99 177.944 155.549 177.223 156.628 175.948C157.468 174.938 157.948 173.663 157.948 172.34V48.7407C157.948 45.6621 155.453 43.1367 152.359 43.1367ZM154.254 172.34C154.254 172.918 154.014 173.326 153.798 173.567C153.438 174 152.911 174.24 152.359 174.24H75.122C74.0666 174.24 73.227 173.399 73.227 172.34V48.7407C73.227 47.6824 74.0666 46.8406 75.122 46.8406H152.335C153.39 46.8406 154.23 47.6824 154.23 48.7407V172.34H154.254Z"
            fill="#4576E6" />
        <path
            d="M154.254 48.7399V172.34C154.254 172.917 154.014 173.326 153.798 173.566C153.438 173.999 152.911 174.24 152.359 174.24H75.122C74.0666 174.24 73.2271 173.398 73.2271 172.34V48.7399C73.2271 47.6816 74.0666 46.8398 75.122 46.8398H152.335C153.39 46.8398 154.254 47.7057 154.254 48.7399Z"
            fill="#E3E9F8" />
        <path d="M131.203 52.7578H85.9399V58.0732H131.203V52.7578Z" fill="#8DAAEC" />
        <path d="M95.6305 75.2206H85.9399V65.5039H95.6305V75.2206ZM87.3072 73.8497H94.2393V66.8989H87.3072V73.8497Z"
            fill="#8DAAEC" />
        <path
            d="M144.179 67.5707H100.572C100.188 67.5707 99.8761 67.2581 99.8761 66.8733C99.8761 66.4884 100.188 66.1758 100.572 66.1758H144.179C144.563 66.1758 144.875 66.4884 144.875 66.8733C144.875 67.2581 144.563 67.5707 144.179 67.5707Z"
            fill="#8DAAEC" />
        <path
            d="M144.179 71.0122H100.572C100.188 71.0122 99.8761 70.6995 99.8761 70.3147C99.8761 69.9299 100.188 69.6172 100.572 69.6172H144.179C144.563 69.6172 144.875 69.9299 144.875 70.3147C144.875 70.7235 144.563 71.0122 144.179 71.0122Z"
            fill="#8DAAEC" />
        <path
            d="M123.551 74.4731H100.572C100.188 74.4731 99.8761 74.1604 99.8761 73.7756C99.8761 73.3908 100.188 73.0781 100.572 73.0781H123.551C123.935 73.0781 124.247 73.3908 124.247 73.7756C124.223 74.1604 123.935 74.4731 123.551 74.4731Z"
            fill="#8DAAEC" />
        <path
            d="M101.339 75.6309C101.267 75.6309 101.195 75.6069 101.123 75.5588C100.932 75.4385 100.884 75.174 101.003 74.9815L113.405 55.7405C113.525 55.5481 113.788 55.5 113.98 55.6203C114.172 55.7405 114.22 56.0051 114.1 56.1975L101.699 75.4385C101.603 75.5588 101.483 75.6309 101.339 75.6309Z"
            fill="#4576E6" />
        <path
            d="M97.5255 77.8923C97.5255 77.8923 99.8522 71.2542 102.683 73.9479C105.585 76.6898 99.1326 81.4519 99.1326 81.4519L97.5255 77.8923Z"
            fill="#F2D0B2" />
        <path
            d="M32.5219 132.154C32.6658 132.13 32.7617 132.105 32.7617 132.105C32.7617 132.105 32.5458 132.25 32.5219 132.154Z"
            fill="#90B1FC" />
        <path d="M95.6305 91.7206H85.9399V82.0039H95.6305V91.7206ZM87.3072 90.3497H94.2393V83.3989H87.3072V90.3497Z"
            fill="#8DAAEC" />
        <path
            d="M144.179 84.0708H100.572C100.188 84.0708 99.8761 83.7581 99.8761 83.3733C99.8761 82.9885 100.188 82.6758 100.572 82.6758H144.179C144.563 82.6758 144.875 82.9885 144.875 83.3733C144.875 83.7581 144.563 84.0708 144.179 84.0708Z"
            fill="#8DAAEC" />
        <path
            d="M144.179 87.5122H100.572C100.188 87.5122 99.8761 87.1995 99.8761 86.8147C99.8761 86.4299 100.188 86.1172 100.572 86.1172H144.179C144.563 86.1172 144.875 86.4299 144.875 86.8147C144.875 87.1995 144.563 87.5122 144.179 87.5122Z"
            fill="#8DAAEC" />
        <path
            d="M123.551 90.9731H100.572C100.188 90.9731 99.8761 90.6604 99.8761 90.2756C99.8761 89.8908 100.188 89.5781 100.572 89.5781H123.551C123.935 89.5781 124.247 89.8908 124.247 90.2756C124.223 90.6604 123.935 90.9731 123.551 90.9731Z"
            fill="#8DAAEC" />
        <path
            d="M101.675 79.8866C101.675 79.8866 94.2873 93.4515 92.3924 95.6883C90.4975 97.9251 77.1849 101.22 77.1849 101.22L76.5133 100.138L72.6754 93.9326L87.4272 90.2287L97.4775 77.2891C97.5015 77.2891 100.356 77.2891 101.675 79.8866Z"
            fill="white" />
        <path
            d="M56.6044 171.258L59.027 170.945L61.3297 173.158C61.3297 173.158 64.5679 175.082 65.4794 176.838C65.9112 177.704 65.3355 178.882 65.3355 178.882L54.5895 175.178C54.5895 175.178 55.5729 172.244 56.6044 171.258Z"
            fill="#4576E6" />
        <path
            d="M72.3396 173.664L74.5464 172.582L77.4248 173.929C77.4248 173.929 81.1187 174.699 82.5339 176.069C83.2296 176.743 83.0616 178.066 83.0616 178.066L71.692 178.042C71.692 178.042 71.668 174.963 72.3396 173.664Z"
            fill="#4576E6" />
        <path
            d="M79.4876 150.842C79.4636 150.914 79.4636 150.986 79.4396 151.058C79.3916 151.347 79.3197 151.707 79.2477 152.14C78.4082 157.672 77.3528 173.426 77.3528 173.426C77.3528 173.426 75.5538 174.989 71.8119 173.57L72.1717 153.68L72.2676 148.677L71.8359 145.165L69.701 127.752L70.0369 127.295L74.1865 121.715L74.5463 121.234L79.8714 125.01C79.8714 125.01 79.8714 125.419 79.8954 126.093C79.8954 126.381 79.9194 126.718 79.9194 127.103C79.9913 132.683 80.1832 147.859 79.4876 150.842Z"
            fill="#4576E6" />
        <path
            d="M77.7845 127.267C77.7845 127.267 76.945 130.274 75.7936 134.194C74.6663 138.067 73.2271 142.805 72.0038 146.484C71.7879 147.158 71.572 147.783 71.3561 148.385C71.2122 148.817 71.0683 149.202 70.9244 149.563C70.8764 149.707 70.8284 149.828 70.7804 149.948C70.6605 150.261 70.5406 150.525 70.4446 150.79C70.2527 151.271 70.0848 151.631 69.9169 151.896C69.6531 152.353 69.2933 153.099 68.8615 154.037C68.7656 154.277 68.6456 154.518 68.5257 154.758C65.8632 160.795 61.3297 172.869 61.3297 172.869C61.3297 172.869 58.1875 173.927 55.9807 171.402L61.0419 155.744L61.1378 155.456L62.5291 151.15L63.6324 147.735L63.6804 147.519L67.2544 126.979L70.4446 124.622L73.7788 122.145L73.8267 122.193L75.7936 124.718L77.7845 127.267Z"
            fill="#5587FA" />
        <path
            d="M80.9028 126.932C80.9028 126.932 80.543 126.98 79.9194 127.052C79.8234 127.052 79.7515 127.076 79.6555 127.076C78.5761 127.196 76.897 127.34 74.8822 127.364C74.7383 127.364 74.5943 127.364 74.4504 127.364C73.1072 127.388 71.644 127.34 70.0849 127.22C69.1734 127.148 68.2379 127.052 67.3024 126.907L64.9757 98.3105L67.4703 94.0294L70.5646 93.6445L72.1477 93.8129L72.7234 93.885L74.7622 95.737L77.8325 98.5269L79.2237 111.346L79.9913 118.297L80.9028 126.932Z"
            fill="#86AAFC" />
        <path
            d="M92.4164 95.6909C90.5215 97.9277 77.2089 101.223 77.2089 101.223L76.5373 100.14L75.7937 94.9453C81.9822 98.6973 92.2005 95.739 92.4164 95.6909Z"
            fill="#8DAAEC" />
        <path
            d="M58.4513 128.881C58.4513 128.881 60.6581 134.966 57.3719 135.279C54.0378 135.591 55.453 127.727 55.453 127.727L58.4513 128.881Z"
            fill="#F2D0B2" />
        <path
            d="M66.1271 101.126C66.1271 101.126 65.6713 101.823 65.0237 102.882C63.4886 105.335 60.826 109.664 59.8906 111.636L59.2669 129.675C59.2669 129.675 56.9402 130.541 54.7814 129.675C54.7814 129.675 52.8145 114.619 53.3182 111.227C54.6375 102.353 61.6656 95.4258 61.6656 95.4258L66.1271 101.126Z"
            fill="white" />
        <g opacity="0.8">
            <path opacity="0.8"
                d="M79.9194 127.078C80.0154 132.706 80.2073 147.858 79.5117 150.84C79.4877 150.912 79.4877 150.985 79.4637 151.057C79.4157 151.345 79.3437 151.706 79.2718 152.139L74.1147 153.39C74.6664 144.948 74.6903 135.88 74.4265 127.414C74.3785 125.466 74.2826 123.542 74.2106 121.69C73.515 106.105 72.1238 93.8867 72.1238 93.8867L72.6995 93.9589L74.7383 95.8108L77.8086 98.6008L79.1998 111.42L79.9674 118.371L80.9029 126.981C80.9029 126.933 80.5431 127.005 79.9194 127.078Z"
                fill="#ECECEC" />
        </g>
        <path opacity="0.5"
            d="M70.9243 149.564C70.8764 149.708 70.8284 149.828 70.7804 149.949C70.6605 150.261 70.5406 150.526 70.4446 150.791C70.2527 151.272 70.0848 151.632 69.9169 151.897C69.6531 152.354 69.2933 153.099 68.8615 154.037C67.1824 154.687 64.6159 154.999 61.0419 155.745L61.1378 155.456L62.529 151.151L63.6324 147.736L63.6804 147.52L70.9243 149.564Z"
            fill="#5587FA" />
        <path
            d="M63.3686 168.015C63.3206 168.015 63.2726 168.015 63.2247 167.991C63.0088 167.894 62.9128 167.654 62.9848 167.461C63.0328 167.365 66.9186 157.576 69.5571 151.732C72.1717 145.935 76.1535 131.553 76.2014 131.409C76.2734 131.192 76.4893 131.072 76.7051 131.12C76.921 131.192 77.0649 131.409 76.993 131.625C76.945 131.769 72.9393 146.224 70.3247 152.069C67.7102 157.889 63.8243 167.654 63.7764 167.75C63.6804 167.918 63.5365 168.015 63.3686 168.015Z"
            fill="#8DAAEC" />
        <path
            d="M84.7407 146.726L79.5835 147.712C79.5835 147.712 78.3123 102.88 72.7234 93.957C74.7143 94.2697 77.4008 95.2558 79.1758 98.2141C82.2221 103.385 84.7407 146.726 84.7407 146.726Z"
            fill="white" />
        <path
            d="M65.0237 102.882C63.4885 105.335 60.826 109.665 59.8905 111.637L59.2669 129.675C59.2669 129.675 58.7152 116.038 58.5473 111.132C58.3554 106.249 61.0419 100.862 61.0419 100.862L64.52 99.5391C64.496 99.5391 64.7358 101.078 65.0237 102.882Z"
            fill="#8DAAEC" />
        <path
            d="M71.3801 149.709C71.3801 149.709 66.5588 152.235 58.5233 150.647C58.5233 150.647 59.4348 144.707 60.2264 137.227C60.5142 134.485 60.802 131.527 60.9939 128.592C61.2098 125.682 61.3537 122.772 61.3777 120.078C61.3777 119.525 61.3777 118.948 61.3777 118.395V118.371C61.3777 115.677 61.3297 113.079 61.2578 110.674C61.2578 110.65 61.2578 110.65 61.2578 110.626C61.0179 102.208 60.6101 95.8345 61.8575 95.1851C63.8004 94.1509 67.4463 94.0547 67.4463 94.0547C67.4463 94.0547 69.1014 102.93 70.3007 122.147C70.7805 129.723 71.1643 138.862 71.3801 149.709Z"
            fill="white" />
        <path
            d="M67.4464 94.0794L67.2784 89.4856L69.1734 89.4616L71.0443 89.4375L72.1237 93.9832L72.1477 94.1035C72.1477 94.0794 73.3471 99.3226 67.4464 94.0794Z"
            fill="#F2D0B2" />
        <path
            d="M72.1237 93.9591C67.4703 93.8389 67.3264 89.7983 67.3264 89.7983L69.1734 89.4616L71.0443 89.4375L72.1237 93.9591Z"
            fill="#F2D0B2" />
        <path
            d="M71.3081 91.1416C65.9831 92.0315 66.223 85.5377 66.223 85.5377L66.4388 83.373L66.5348 82.411L66.7746 81.473L66.8706 81.1363L67.5422 81.0882L71.3561 80.8477L72.6753 82.5072C72.6753 82.5072 72.8672 82.868 73.0831 83.4211C73.9706 85.5377 75.5057 90.4441 71.3081 91.1416Z"
            fill="#F2D0B2" />
        <path d="M95.6305 108.221H85.9399V98.5039H95.6305V108.221ZM87.3072 106.85H94.2393V99.8989H87.3072V106.85Z"
            fill="#8DAAEC" />
        <path
            d="M144.179 100.571H100.572C100.188 100.571 99.8761 100.258 99.8761 99.8733C99.8761 99.4884 100.188 99.1758 100.572 99.1758H144.179C144.563 99.1758 144.875 99.4884 144.875 99.8733C144.875 100.258 144.563 100.571 144.179 100.571Z"
            fill="#8DAAEC" />
        <path
            d="M144.179 104.012H100.572C100.188 104.012 99.8761 103.699 99.8761 103.315C99.8761 102.93 100.188 102.617 100.572 102.617H144.179C144.563 102.617 144.875 102.93 144.875 103.315C144.875 103.724 144.563 104.012 144.179 104.012Z"
            fill="#8DAAEC" />
        <path
            d="M123.551 107.473H100.572C100.188 107.473 99.8761 107.16 99.8761 106.776C99.8761 106.391 100.188 106.078 100.572 106.078H123.551C123.935 106.078 124.247 106.391 124.247 106.776C124.223 107.16 123.935 107.473 123.551 107.473Z"
            fill="#8DAAEC" />
        <path
            d="M73.1072 83.4719C71.3322 84.6023 68.3818 84.0732 68.3818 84.0732C68.3578 85.396 67.8781 86.3581 67.8781 86.3581L66.4629 83.3998L65.7913 82.0048L66.7987 81.4997L67.5663 81.139L71.3801 80.8984L72.6994 82.558C72.6994 82.558 72.8673 82.9188 73.1072 83.4719Z"
            fill="#F2D0B2" />
        <path d="M95.6305 124.721H85.9399V115.004H95.6305V124.721ZM87.3072 123.35H94.2393V116.399H87.3072V123.35Z"
            fill="#8DAAEC" />
        <path
            d="M144.179 117.071H100.572C100.188 117.071 99.8761 116.758 99.8761 116.373C99.8761 115.988 100.188 115.676 100.572 115.676H144.179C144.563 115.676 144.875 115.988 144.875 116.373C144.875 116.758 144.563 117.071 144.179 117.071Z"
            fill="#8DAAEC" />
        <path
            d="M144.179 120.536H100.572C100.188 120.536 99.8761 120.223 99.8761 119.838C99.8761 119.453 100.188 119.141 100.572 119.141H144.179C144.563 119.141 144.875 119.453 144.875 119.838C144.875 120.223 144.563 120.536 144.179 120.536Z"
            fill="#8DAAEC" />
        <path
            d="M123.551 123.973H100.572C100.188 123.973 99.8761 123.66 99.8761 123.276C99.8761 122.891 100.188 122.578 100.572 122.578H123.551C123.935 122.578 124.247 122.891 124.247 123.276C124.223 123.66 123.935 123.973 123.551 123.973Z"
            fill="#8DAAEC" />
        <path d="M95.6305 141.221H85.9399V131.504H95.6305V141.221ZM87.3072 139.85H94.2393V132.899H87.3072V139.85Z"
            fill="#8DAAEC" />
        <path
            d="M144.179 133.571H100.572C100.188 133.571 99.8761 133.258 99.8761 132.873C99.8761 132.488 100.188 132.176 100.572 132.176H144.179C144.563 132.176 144.875 132.488 144.875 132.873C144.875 133.258 144.563 133.571 144.179 133.571Z"
            fill="#8DAAEC" />
        <path
            d="M144.179 137.036H100.572C100.188 137.036 99.8761 136.723 99.8761 136.338C99.8761 135.953 100.188 135.641 100.572 135.641H144.179C144.563 135.641 144.875 135.953 144.875 136.338C144.875 136.723 144.563 137.036 144.179 137.036Z"
            fill="#8DAAEC" />
        <path
            d="M123.551 140.473H100.572C100.188 140.473 99.8761 140.16 99.8761 139.776C99.8761 139.391 100.188 139.078 100.572 139.078H123.551C123.935 139.078 124.247 139.391 124.247 139.776C124.247 140.16 123.935 140.473 123.551 140.473Z"
            fill="#8DAAEC" />
        <path
            d="M67.8541 83.7342C67.8541 83.7342 70.6126 83.4456 72.5555 82.7C74.4744 81.9544 73.6588 78.491 71.1882 78.1062C68.6936 77.7213 63.5125 79.0442 63.2007 80.7278C62.601 84.119 65.6473 88.6888 67.3024 89.7711C67.3264 89.7951 68.07 87.7267 67.8541 83.7342Z"
            fill="#5587FA" />
        <path
            d="M66.343 86.5018C66.439 87.079 66.9667 87.4879 67.5423 87.3917C68.118 87.2955 68.5258 86.7663 68.4298 86.1891C68.3339 85.6119 67.8062 85.203 67.2305 85.2992C66.6548 85.3954 66.271 85.9245 66.343 86.5018Z"
            fill="#F2D0B2" />
        <path
            d="M90.1857 122.46L87.5711 119.214C87.3313 118.901 87.3792 118.444 87.6911 118.203C88.0029 117.963 88.4586 118.011 88.6985 118.324L90.2576 120.272L96.9738 113.08C97.2377 112.792 97.6934 112.768 98.0053 113.056C98.2931 113.321 98.3171 113.778 98.0293 114.091L90.1857 122.46Z"
            fill="#4576E6" />
        <path d="M138.495 153.293H85.6041V166.064H138.495V153.293Z" fill="#8DAAEC" />
        <path
            d="M189.778 111.586V171.474C189.778 171.859 189.754 172.219 189.682 172.604C189.394 174.264 188.483 175.707 187.187 176.669C186.108 177.462 184.789 177.944 183.35 177.944H166.583C163.009 177.944 160.13 175.057 160.13 171.474V111.586H189.778Z"
            fill="#BCCBF7" />
        <path d="M193.184 104.012H156.7V111.588H193.184V104.012Z" fill="#144BCA" />
        <path d="M189.778 116.039H169.365V163.54H189.778V116.039Z" fill="#FFE7CE" />
        <path d="M189.778 105.957H160.107V109.661H189.778V105.957Z" fill="white" />
        <g opacity="0.5">
            <path opacity="0.5"
                d="M189.682 172.608C189.394 174.267 188.483 175.71 187.187 176.672C186.108 177.466 184.789 177.947 183.35 177.947H166.583C163.009 177.947 160.13 175.061 160.13 171.477V155.531C161.546 166.475 167.638 179.51 189.682 172.608Z"
                fill="#BCCBF7" />
        </g>
        <path
            d="M25.9255 132.178C25.7336 132.13 25.6136 132.105 25.6136 132.105C25.6136 132.105 25.9015 132.298 25.9255 132.178Z"
            fill="#90B1FC" />
        <path
            d="M41.2529 152.959H25.9015V144.974C25.9015 142.329 28.0603 140.164 30.6988 140.164H36.4556C37.6789 140.164 38.8303 140.621 39.7417 141.463C40.7012 142.377 41.2529 143.652 41.2529 144.974V152.959ZM27.4606 151.396H39.6698V144.974C39.6698 144.06 39.31 143.219 38.6384 142.617C38.0387 142.064 37.2471 141.751 36.4316 141.751H30.6748C28.8998 141.751 27.4366 143.195 27.4366 144.998V151.396H27.4606Z"
            fill="#5587FA" />
        <path
            d="M50.7037 149.208V174.438C50.7037 176.314 49.1925 177.853 47.2976 177.853H19.8569C17.9859 177.853 16.4508 176.314 16.4508 174.438V149.208C16.4508 147.332 17.962 145.793 19.8569 145.793H47.3216C48.257 145.793 49.1206 146.178 49.7202 146.803C50.3199 147.428 50.7037 148.27 50.7037 149.208Z"
            fill="#4576E6" />
        <path
            d="M50.7037 149.208V157.843H16.4508V149.208C16.4508 147.332 17.962 145.793 19.8569 145.793H47.3216C48.257 145.793 49.1206 146.178 49.7202 146.803C50.3199 147.428 50.7037 148.27 50.7037 149.208Z"
            fill="#86AAFC" />
        <path d="M35.856 154.523H31.2745V161.162H35.856V154.523Z" fill="#90B1FC" />
        <g opacity="0.5">
            <path opacity="0.5"
                d="M47.2976 177.851H19.8569C17.9859 177.851 16.4508 176.311 16.4508 174.435V157.84C16.4508 157.84 21.8478 176.528 47.2976 177.851Z"
                fill="#5587FA" />
        </g>
        <path
            d="M138.543 103.242C136.576 102.112 135.16 99.923 135.616 97.2292C135.928 95.2811 137.103 92.8519 138.543 90.4708C136.12 89.3164 133.026 88.4265 129.212 87.8492C124.007 87.0555 120.625 84.8669 119.185 81.3554C117.242 76.5932 119.209 69.6665 124.63 62.3789L125.95 63.365C120.888 70.1956 118.969 76.5211 120.697 80.7541C121.896 83.7124 124.846 85.5644 129.452 86.2619C133.481 86.8631 136.792 87.8252 139.406 89.0999C142.308 84.6264 145.81 80.6098 146.05 80.3452L147.274 81.4275C147.226 81.4997 143.724 85.5163 140.845 89.8936C142.404 90.8556 143.652 91.938 144.539 93.1886C146.026 95.257 146.554 97.6381 146.098 100.308C145.571 103.434 142.956 104.421 140.629 104.036C139.91 103.867 139.214 103.627 138.543 103.242ZM139.982 91.2405C138.614 93.4772 137.511 95.7381 137.223 97.4938C136.768 100.188 138.806 102.04 140.917 102.4C142.404 102.641 144.131 102.16 144.515 100.019C144.899 97.8065 144.467 95.8343 143.244 94.1507C142.452 93.0443 141.373 92.0823 139.982 91.2405Z"
            fill="#144BCA" />
        <path d="M124.89 60.6865L123.453 63.2148L125.975 64.6557L127.412 62.1273L124.89 60.6865Z" fill="#5587FA" />
        <path
            d="M143.796 63.0774L150.752 45.1111C151.591 42.9706 153.894 41.7199 156.149 42.225L161.69 43.4756L161.258 45.3276L155.717 44.0769C154.374 43.7643 153.007 44.5098 152.527 45.7846L145.571 63.7509L143.796 63.0774Z"
            fill="#F1F4FC" />
        <path
            d="M163.369 74.2621L175.242 59.1097C176.657 57.3059 176.537 54.6603 174.954 52.9767L171.044 48.8398L169.653 50.1627L173.563 54.2995C174.498 55.2856 174.57 56.8489 173.731 57.9312L161.858 73.0836L163.369 74.2621Z"
            fill="#F1F4FC" />
        <path
            d="M161.234 46.7723L159.843 45.8103C159.579 45.6179 159.459 45.2811 159.579 44.9685L160.202 43.1646C160.298 42.876 160.586 42.6836 160.898 42.6836H162.673C162.937 42.6836 163.177 42.8279 163.297 43.0444C163.393 43.2127 163.441 43.4532 163.345 43.6697L162.337 46.4115C162.169 46.8685 161.642 47.0369 161.234 46.7723Z"
            fill="#5587FA" />
        <path
            d="M148.257 78.0842L147.466 77.6272C142.932 75.0296 140.965 69.5941 142.788 64.6876L144.971 58.8672L147.514 59.8292L145.331 65.6497C143.964 69.3054 145.427 73.3461 148.809 75.2702L149.6 75.7271L148.257 78.0842Z"
            fill="#5587FA" />
        <path
            d="M168.478 50.9052L170.013 51.6267C170.301 51.771 170.661 51.6748 170.876 51.4343L172.1 49.9912C172.292 49.7507 172.34 49.414 172.172 49.1494L171.26 47.6342C171.116 47.3937 170.876 47.2734 170.637 47.2734C170.421 47.2734 170.229 47.3696 170.085 47.538L168.238 49.7988C167.926 50.1355 168.046 50.6887 168.478 50.9052Z"
            fill="#5587FA" />
        <path
            d="M148.233 78.0608L149.025 78.5178C153.558 81.1153 159.243 80.033 162.505 75.9443L166.391 71.11L164.28 69.4023L160.394 74.2367C157.972 77.2671 153.75 78.0849 150.368 76.1367L149.576 75.6797L148.233 78.0608Z"
            fill="#5587FA" />
        <path d="M147.514 84.7737L142.884 82.1281L145.643 75.2734L151.999 78.8811L147.514 84.7737Z" fill="#4576E6" />
        <path
            d="M133.409 48.5987C129.644 46.4341 124.822 47.7569 122.663 51.557C120.505 55.3331 121.824 60.1674 125.614 62.332C129.38 64.4966 134.201 63.1738 136.36 59.3737C138.519 55.5976 137.199 50.7633 133.409 48.5987ZM126.549 60.6724C123.695 59.037 122.687 55.3812 124.318 52.495C125.95 49.6329 129.596 48.6227 132.474 50.2582C135.328 51.8937 136.336 55.5495 134.705 58.4357C133.074 61.2978 129.428 62.3079 126.549 60.6724Z"
            fill="#6695FF" />
        <path
            d="M134.705 58.4336C133.073 61.2957 129.428 62.3059 126.549 60.6704C123.695 59.0349 122.687 55.3791 124.318 52.4929C125.949 49.6308 129.595 48.6207 132.474 50.2562C135.352 51.8917 136.336 55.5715 134.705 58.4336Z"
            fill="white" />
        <path
            d="M130.657 59.6116C132.932 58.9869 134.27 56.6319 133.647 54.3514C133.024 52.0709 130.676 50.7286 128.401 51.3533C126.127 51.978 124.788 54.3331 125.411 56.6135C126.034 58.894 128.383 60.2363 130.657 59.6116Z"
            fill="#BCCBF7" />
        <path
            d="M130.771 56.1986C130.363 56.8961 129.5 57.1366 128.78 56.7518C128.084 56.3429 127.844 55.4771 128.228 54.7556C128.636 54.0581 129.5 53.8176 130.219 54.2024C130.939 54.6112 131.179 55.5011 130.771 56.1986Z"
            fill="#144BCA" />
        <path
            d="M146.554 135.013C149.552 138.645 138.95 139.006 138.615 145.885C138.303 152.787 133.889 159.786 128.324 159.546C124.007 159.353 122.759 164.308 122.424 166.545C122.328 167.194 122.304 167.627 122.304 167.627C122.304 167.627 121.968 167.29 121.488 166.713C119.641 164.5 115.515 158.632 118.394 152.932C122.04 145.692 126.573 147.592 129.092 142.782C131.61 137.972 143.556 131.382 146.554 135.013Z"
            fill="#6695FF" />
        <path
            d="M138.878 137.949C137.631 138.743 136.48 139.729 135.448 140.811C134.441 141.894 133.529 143.096 132.882 144.443C132.546 145.117 132.282 145.79 132.09 146.511C132.042 146.68 131.994 146.872 131.97 147.041L131.85 147.594C131.778 147.979 131.634 148.339 131.443 148.676C131.083 149.374 130.531 149.927 129.955 150.432C129.38 150.937 128.756 151.346 128.132 151.755C126.885 152.572 125.614 153.342 124.486 154.304C123.359 155.242 122.424 156.397 121.896 157.719C121.368 159.042 121.224 160.509 121.368 161.952C121.488 163.396 121.872 164.839 122.328 166.209L122.424 166.522C122.328 167.172 122.304 167.604 122.304 167.604C122.304 167.604 121.968 167.268 121.488 166.691L121.44 166.522C120.984 165.079 120.649 163.564 120.553 162.025C120.505 161.255 120.529 160.485 120.625 159.692C120.721 158.922 120.936 158.152 121.248 157.455C121.56 156.733 121.968 156.06 122.472 155.459C122.951 154.857 123.527 154.328 124.127 153.847C125.326 152.885 126.621 152.139 127.893 151.346C128.516 150.961 129.14 150.552 129.716 150.095C130.291 149.638 130.795 149.109 131.155 148.484C131.323 148.171 131.467 147.834 131.539 147.498L131.658 146.944C131.706 146.752 131.754 146.584 131.802 146.391C132.018 145.67 132.306 144.972 132.666 144.299C133.361 142.952 134.321 141.773 135.352 140.691C136.432 139.681 137.607 138.719 138.878 137.949Z"
            fill="white" />
        <path
            d="M101.867 131.647C97.9332 134.245 107.96 137.732 106.209 144.394C104.458 151.081 106.592 159.066 111.989 160.485C116.163 161.591 115.899 166.666 115.539 168.903C115.443 169.552 115.347 169.961 115.347 169.961C115.347 169.961 115.755 169.744 116.403 169.336C118.826 167.772 124.486 163.395 123.431 157.093C122.112 149.108 117.194 149.541 116.211 144.226C115.252 138.935 105.777 129.074 101.867 131.647Z"
            fill="#90B1FC" />
        <path
            d="M108.319 136.746C109.279 137.901 110.094 139.151 110.742 140.498C111.39 141.845 111.893 143.264 112.133 144.731C112.253 145.453 112.301 146.198 112.277 146.944C112.253 147.136 112.277 147.305 112.253 147.497L112.205 148.05C112.157 148.435 112.181 148.844 112.253 149.205C112.397 149.974 112.757 150.672 113.165 151.321C113.572 151.971 114.052 152.572 114.508 153.149C115.467 154.304 116.451 155.434 117.218 156.661C118.01 157.887 118.562 159.258 118.682 160.701C118.802 162.12 118.49 163.563 117.938 164.91C117.386 166.257 116.619 167.508 115.755 168.686L115.563 168.951C115.467 169.6 115.371 170.009 115.371 170.009C115.371 170.009 115.779 169.793 116.427 169.384L116.523 169.239C117.386 167.989 118.154 166.666 118.706 165.223C118.969 164.501 119.185 163.756 119.305 162.986C119.425 162.216 119.449 161.423 119.377 160.653C119.281 159.883 119.089 159.114 118.802 158.392C118.514 157.671 118.13 156.997 117.698 156.372C116.859 155.097 115.827 153.991 114.844 152.86C114.364 152.307 113.884 151.73 113.477 151.129C113.069 150.528 112.733 149.878 112.565 149.157C112.493 148.796 112.469 148.459 112.493 148.098L112.541 147.545C112.565 147.353 112.565 147.16 112.565 146.968C112.565 146.198 112.493 145.453 112.373 144.707C112.085 143.216 111.558 141.797 110.862 140.474C110.142 139.103 109.303 137.852 108.319 136.746Z"
            fill="white" />
        <path
            d="M119.473 179.799C114.604 179.799 110.646 175.83 110.646 170.948V165.488H128.3V170.948C128.3 172.175 128.061 173.329 127.605 174.387C126.285 177.586 123.143 179.799 119.473 179.799Z"
            fill="#5587FA" />
        <path
            d="M64.9038 40.8062C64.9038 42.5138 64.6159 44.1493 64.0642 45.6645C62.0734 51.3406 56.6764 55.4053 50.3439 55.4053C42.3084 55.4053 35.7841 48.8634 35.7841 40.8062C35.7841 37.4149 36.9354 34.2642 38.8783 31.7869C41.5408 28.3957 45.6905 26.207 50.3439 26.207C58.3794 26.207 64.9038 32.749 64.9038 40.8062Z"
            fill="#144BCA" />
        <path
            d="M56.8682 37.3189H53.8219V34.2644C53.8219 33.8074 53.63 33.3985 53.3422 33.1099C53.0543 32.8213 52.6226 32.6289 52.1908 32.6289H48.5209C47.6094 32.6289 46.8658 33.3745 46.8658 34.2885V37.343H43.8195C42.908 37.343 42.1644 38.0886 42.1644 39.0025V42.6824C42.1644 43.5963 42.908 44.3419 43.8195 44.3419H46.8658V47.3964C46.8658 48.3104 47.6094 49.056 48.5209 49.056H52.1668C53.0783 49.056 53.8219 48.3104 53.8219 47.3964V44.3419H56.8682C57.3239 44.3419 57.7317 44.1495 58.0195 43.8609C58.3074 43.5723 58.4993 43.1393 58.4993 42.7064V39.0266C58.4993 38.0645 57.7797 37.3189 56.8682 37.3189Z"
            fill="white" />
        <path opacity="0.7"
            d="M64.0642 45.6862C62.0733 51.3623 56.6764 55.427 50.3439 55.427C42.3084 55.427 35.7841 48.885 35.7841 40.8278C35.7841 37.4366 36.9354 34.2859 38.8783 31.8086C38.3266 33.3238 38.0388 34.9834 38.0388 36.691C38.0388 44.7482 44.5631 51.2901 52.5986 51.2901C57.252 51.2661 61.4017 49.0774 64.0642 45.6862Z"
            fill="#144BCA" />
        <path
            d="M166.367 11.703C166.367 12.0397 166.343 12.4005 166.319 12.7372C166.223 13.7473 166.007 14.7335 165.647 15.6955C165.456 16.2246 165.216 16.7538 164.928 17.2829C164.616 17.8361 164.256 18.3892 163.872 18.9184L163.8 18.9905C163.537 19.3273 163.249 19.6399 162.937 19.9526L152.047 30.8959L147.49 35.4657L147.442 35.4176L147.394 35.4657L131.946 19.9766C131.634 19.664 131.347 19.3513 131.083 19.0146L131.011 18.9424C130.555 18.3652 130.147 17.7399 129.811 17.0905C129.548 16.5854 129.332 16.0563 129.14 15.5031C128.828 14.6132 128.636 13.6992 128.564 12.7612C128.3 9.85104 129.14 6.84462 131.035 4.43949C131.299 4.10277 131.61 3.76605 131.922 3.42934C132.786 2.56349 133.769 1.84195 134.801 1.31282C138.806 -0.779644 143.796 -0.370772 147.442 2.53944C152.023 -1.11636 158.715 -0.827747 162.961 3.42934C165.24 5.71421 166.367 8.69657 166.367 11.703Z"
            fill="#FF718F" />
        <path
            d="M129.14 15.4787C129.332 16.0079 129.548 16.537 129.811 17.0661H139.046L140.461 14.7091L144.611 23.127L147.514 13.0736L151.231 23.1992L154.709 14.1319L156.077 17.3066H164.928C165.216 16.8015 165.431 16.2724 165.647 15.7192H157.132L154.638 9.97098L151.279 18.7257L147.346 8.04688L144.227 18.7978L140.605 11.4381L138.159 15.4787H129.14Z"
            fill="white" />
        <path opacity="0.7"
            d="M150.704 32.2688L147.513 35.4676L147.465 35.4195L147.418 35.4676L131.97 19.9786C131.658 19.6659 131.37 19.3532 131.107 19.0165L131.035 18.9443C130.579 18.3671 130.171 17.7418 129.835 17.0924C129.572 16.5873 129.356 16.0582 129.164 15.505C128.852 14.6151 128.66 13.7012 128.588 12.7632C128.324 9.85295 129.164 6.84654 131.059 4.44141C130.819 5.66802 130.747 6.91869 130.843 8.14531C130.939 9.15546 131.155 10.1656 131.466 11.1517C131.658 11.753 131.898 12.3302 132.21 12.8834C132.57 13.5809 133.002 14.2784 133.505 14.9037L133.601 14.9999C133.889 15.3607 134.201 15.7215 134.537 16.0582L150.704 32.2688Z"
            fill="#FF718F" />
        <path
            d="M71.3801 149.709C71.3801 149.709 66.5588 152.235 58.5233 150.647C58.5233 150.647 59.4348 144.707 60.2264 137.227C60.5142 134.485 60.802 131.527 60.9939 128.592C61.2098 125.682 61.3537 122.772 61.3777 120.078C61.3777 119.525 61.3777 118.948 61.3777 118.395C61.8335 129.458 63.7044 148.531 71.3801 149.709Z"
            fill="#8DAAEC" />
    </g>
    <defs>
        <clipPath id="clip0_4017_44785">
            <rect width="208.845" height="186.463" fill="white" />
        </clipPath>
    </defs>
</svg>