<svg width="268" height="269" viewBox="0 0 268 269" fill="none" xmlns="http://www.w3.org/2000/svg">
<path fill-rule="evenodd" clip-rule="evenodd" d="M0 0H268V279.426C207.026 279.426 57.4286 279.426 0 279.426V0Z" fill="url(#paint0_linear)"/>
<mask id="mask0" mask-type="alpha" maskUnits="userSpaceOnUse" x="0" y="0" width="268" height="280">
<path fill-rule="evenodd" clip-rule="evenodd" d="M0 0H268V279.426C207.026 279.426 57.4286 279.426 0 279.426V0Z" fill="#E61565"/>
</mask>
<g mask="url(#mask0)">
<path opacity="0.05" fill-rule="evenodd" clip-rule="evenodd" d="M2.53357 335.977C59.0965 374.788 220.654 374.473 258.29 268.73C295.926 162.986 235.157 66.7876 160.152 80.8033C85.1471 94.8189 92.3556 156.593 66.8706 182.011C41.3857 207.428 21.843 195.5 -3.85886 215.691C-29.5607 235.883 -54.0294 297.167 2.53357 335.977Z" fill="white"/>
<path opacity="0.03" fill-rule="evenodd" clip-rule="evenodd" d="M71.8234 384.814C159.803 379.422 323.069 251.352 277.428 114.42C231.788 -22.5127 60.695 -73.5376 -4.12036 -0.0225119C-68.9357 73.4926 22.0522 127.646 19.1908 175.049C16.3294 222.451 -19.8683 227.171 -29.8933 267.959C-39.9182 308.746 -16.1562 390.207 71.8234 384.814Z" fill="white"/>
<path opacity="0.07" fill-rule="evenodd" clip-rule="evenodd" d="M-136.949 -15.7271C-121.584 22.3333 -70.1264 26.8087 -29.0297 45.8343C12.0669 64.8599 46.2971 142.547 -17.615 189.925C-81.5271 237.304 -189.169 168.496 -181.624 45.8343C-174.078 -76.8276 -152.314 -53.7876 -136.949 -15.7271Z" fill="white"/>
<path opacity="0.05" fill-rule="evenodd" clip-rule="evenodd" d="M-92.7648 248.113C-68.0995 164.049 58.8789 262.609 97.2046 179.617C135.53 96.625 193.006 136.617 177.638 218.058C162.835 296.503 92.9626 302.844 87.8421 303.204C87.6249 303.22 87.5808 303.218 87.3651 303.248C80.5503 304.187 -117.005 330.729 -92.7648 248.113Z" fill="white"/>
<path opacity="0.05" fill-rule="evenodd" clip-rule="evenodd" d="M3.50913 41.9637C16.3447 110.23 73.7022 84.4388 94.7065 104.111C115.711 123.784 95.5883 183.609 168.648 171.146C241.709 158.684 232.954 53.5678 173.392 -2.85575C113.83 -59.2793 -9.32645 -26.3031 3.50913 41.9637Z" fill="white"/>
</g>
<defs>
<linearGradient id="paint0_linear" x1="134" y1="0" x2="134" y2="279.426" gradientUnits="userSpaceOnUse">
<stop stop-color="#E31363"/>
<stop offset="1" stop-color="#C2024C"/>
</linearGradient>
</defs>
</svg>
