<svg width="268" height="258" viewBox="0 0 268 258" fill="none" xmlns="http://www.w3.org/2000/svg">
<path fill-rule="evenodd" clip-rule="evenodd" d="M0 0H268V258C207.026 258 57.4286 258 0 258V0Z" fill="url(#paint0_linear)"/>
<mask id="mask0" mask-type="alpha" maskUnits="userSpaceOnUse" x="0" y="0" width="268" height="258">
<path fill-rule="evenodd" clip-rule="evenodd" d="M0 0H268V258C207.026 258 57.4286 258 0 258V0Z" fill="#6B74FF"/>
</mask>
<g mask="url(#mask0)">
<g filter="url(#filter0_d)">
<path opacity="0.03" fill-rule="evenodd" clip-rule="evenodd" d="M2.53357 335.977C59.0965 374.788 220.654 374.473 258.29 268.73C295.926 162.986 235.157 66.7876 160.152 80.8033C85.1471 94.8189 92.3556 156.593 66.8706 182.011C41.3857 207.428 21.843 195.5 -3.85886 215.691C-29.5607 235.883 -54.0294 297.167 2.53357 335.977Z" fill="url(#paint1_linear)"/>
<path opacity="0.07" fill-rule="evenodd" clip-rule="evenodd" d="M71.8237 384.814C159.803 379.422 323.069 251.352 277.429 114.42C231.788 -22.5127 60.6952 -73.5376 -4.12012 -0.0225119C-68.9355 73.4926 22.0525 127.646 19.191 175.049C16.3296 222.451 -19.8681 227.171 -29.893 267.959C-39.918 308.746 -16.156 390.207 71.8237 384.814Z" fill="url(#paint2_linear)"/>
<path opacity="0.05" fill-rule="evenodd" clip-rule="evenodd" d="M-152.949 -15.7274C-137.584 22.3331 -86.1264 26.8085 -45.0297 45.8341C-3.93312 64.8597 30.2971 142.547 -33.615 189.925C-97.5271 237.304 -205.169 168.496 -197.624 45.8341C-190.078 -76.8279 -168.314 -53.7878 -152.949 -15.7274Z" fill="url(#paint3_linear)"/>
<path opacity="0.02" fill-rule="evenodd" clip-rule="evenodd" d="M-92.7648 248.113C-68.0995 164.049 58.8789 262.609 97.2046 179.617C135.53 96.6247 193.006 136.616 177.638 218.057C162.835 296.502 92.9626 302.844 87.8421 303.204C87.6249 303.219 87.5808 303.218 87.3651 303.248C80.5503 304.187 -117.005 330.728 -92.7648 248.113Z" fill="url(#paint4_linear)"/>
<path opacity="0.03" fill-rule="evenodd" clip-rule="evenodd" d="M3.50913 41.9641C16.3447 110.231 73.7022 84.4392 94.7065 104.112C115.711 123.784 95.5883 183.609 168.648 171.147C241.709 158.684 232.954 53.5683 173.392 -2.85526C113.83 -59.2788 -9.32645 -26.3026 3.50913 41.9641Z" fill="url(#paint5_linear)"/>
</g>
</g>
<defs>
<filter id="filter0_d" x="-218" y="-117" width="597.095" height="578" filterUnits="userSpaceOnUse" color-interpolation-filters="sRGB">
<feFlood flood-opacity="0" result="BackgroundImageFix"/>
<feColorMatrix in="SourceAlpha" type="matrix" values="0 0 0 0 0 0 0 0 0 0 0 0 0 0 0 0 0 0 127 0"/>
<feOffset dy="5"/>
<feGaussianBlur stdDeviation="10"/>
<feColorMatrix type="matrix" values="0 0 0 0 0.435294 0 0 0 0 0.4 0 0 0 0 1 0 0 0 0.4 0"/>
<feBlend mode="normal" in2="BackgroundImageFix" result="effect1_dropShadow"/>
<feBlend mode="normal" in="SourceGraphic" in2="effect1_dropShadow" result="shape"/>
</filter>
<linearGradient id="paint0_linear" x1="-116.369" y1="109.099" x2="100.304" y2="375.226" gradientUnits="userSpaceOnUse">
<stop stop-color="#7385FF"/>
<stop offset="1" stop-color="#584CFF"/>
</linearGradient>
<linearGradient id="paint1_linear" x1="298.087" y1="187.665" x2="113.689" y2="416.547" gradientUnits="userSpaceOnUse">
<stop stop-color="white"/>
<stop offset="1" stop-color="#D6DEEE"/>
</linearGradient>
<linearGradient id="paint2_linear" x1="243.254" y1="-8.0004" x2="224.798" y2="381.569" gradientUnits="userSpaceOnUse">
<stop stop-color="white"/>
<stop offset="1" stop-color="#D6DEEE"/>
</linearGradient>
<linearGradient id="paint3_linear" x1="-216.764" y1="50.8758" x2="-48.2623" y2="205.476" gradientUnits="userSpaceOnUse">
<stop stop-color="white"/>
<stop offset="1" stop-color="#D6DEEE"/>
</linearGradient>
<linearGradient id="paint4_linear" x1="-121.296" y1="202.101" x2="-20.0727" y2="383.991" gradientUnits="userSpaceOnUse">
<stop stop-color="white"/>
<stop offset="1" stop-color="#D6DEEE"/>
</linearGradient>
<linearGradient id="paint5_linear" x1="-17.9114" y1="47.3838" x2="116.847" y2="213.239" gradientUnits="userSpaceOnUse">
<stop stop-color="white"/>
<stop offset="1" stop-color="#D6DEEE"/>
</linearGradient>
</defs>
</svg>
