<svg width="121" height="40" viewBox="0 0 121 40" fill="none" xmlns="http://www.w3.org/2000/svg">
<g clip-path="url(#clip0_5851_59)">
<path d="M114.207 0.400024H5.94079C2.92163 0.400024 0.474121 2.84753 0.474121 5.86669V34.1334C0.474121 37.1525 2.92163 39.6 5.94079 39.6H114.207C117.227 39.6 119.674 37.1525 119.674 34.1334V5.86669C119.674 2.84753 117.227 0.400024 114.207 0.400024Z" fill="black"/>
<path d="M26.6368 24.7436L28.8064 25.2856C29.7887 25.5309 30.7408 24.7919 30.7408 23.7841V13.3316C30.7408 12.4444 30.1345 11.6708 29.2697 11.4548L23.0495 9.90093C22.0672 9.65556 21.1151 10.3947 21.1151 11.4024V13.2867L17.1959 12.3076C16.2136 12.0623 15.2613 12.8013 15.2613 13.8091V15.6933L11.342 14.7143C10.3597 14.4689 9.40747 15.208 9.40747 16.2157V26.6683C9.40747 27.5555 10.0138 28.3291 10.8786 28.5451L17.0988 30.0989C18.0811 30.3443 19.0333 29.6052 19.0333 28.5975L19.0349 18.1589C19.0349 17.2772 18.4768 16.7672 18.2744 16.6105C18.2357 16.5807 18.2251 16.5249 18.2528 16.4847C18.28 16.4451 18.3291 16.4264 18.3751 16.4403C19.1947 16.6877 19.9789 17.528 20.0572 18.5845L20.3277 26.5671C20.3367 26.8292 20.5061 27.0565 20.7501 27.1421L22.9527 27.6923C23.9349 27.9377 24.8872 27.1985 24.8872 26.1908L24.8888 15.7547C24.8888 14.8728 24.3317 14.3616 24.1293 14.2049C24.0908 14.1751 24.0801 14.1193 24.1077 14.0791C24.1351 14.0395 24.1841 14.0208 24.2301 14.0347C25.0497 14.2821 25.834 15.1224 25.9123 16.1789L26.1828 24.1609C26.1921 24.4337 26.3761 24.6684 26.6368 24.7436Z" fill="white"/>
<path d="M52.2442 32.6667H50.0095L46.4638 27.7172H44.5984V32.6667H42.6963V19.6468H47.2763C48.1627 19.6468 48.9568 19.8192 49.6587 20.1639C50.3604 20.5087 50.9022 20.9888 51.2838 21.6044C51.6778 22.2078 51.8748 22.9034 51.8748 23.6912C51.8748 24.6763 51.5731 25.5196 50.9699 26.2214C50.3666 26.9108 49.5602 27.3664 48.5506 27.588L52.2442 32.6667ZM44.5984 21.4012V25.9814H47.2763C48.0643 25.9814 48.6983 25.772 49.1784 25.3534C49.671 24.9224 49.9172 24.3684 49.9172 23.6912C49.9172 23.0142 49.671 22.4663 49.1784 22.0476C48.6983 21.6167 48.0643 21.4012 47.2763 21.4012H44.5984ZM57.2915 32.8514C56.6144 32.8514 56.005 32.6852 55.4632 32.3527C54.9215 32.008 54.4967 31.5402 54.189 30.9492C53.8811 30.3459 53.7272 29.6687 53.7272 28.9178V23.1188H55.5371V28.77C55.5371 29.4964 55.7402 30.0874 56.1466 30.5428C56.5528 30.9984 57.076 31.2262 57.7163 31.2262C58.3811 31.2262 58.9352 30.9923 59.3784 30.5244C59.8216 30.0566 60.0432 29.4718 60.0432 28.77V23.1188H61.8531V32.6667H60.5603L60.1356 31.2262C59.8278 31.7434 59.4215 32.1435 58.9167 32.4266C58.4242 32.7098 57.8826 32.8514 57.2915 32.8514ZM68.6002 32.8514C67.4059 32.8514 66.3655 32.5436 65.479 31.928C64.6048 31.3 64.0078 30.4506 63.6876 29.3794L65.5159 29.0839C65.873 29.7734 66.2978 30.2843 66.7903 30.6167C67.2827 30.9368 67.886 31.097 68.6002 31.097C69.3266 31.097 69.9175 30.9368 70.373 30.6167C70.8286 30.2843 71.0563 29.835 71.0563 29.2686C71.0563 28.85 70.9271 28.4991 70.6686 28.2159C70.4223 27.9327 70.1083 27.705 69.7267 27.5326C69.345 27.3603 68.8463 27.1694 68.2307 26.9602C67.4059 26.6892 66.7287 26.4184 66.1992 26.1475C65.6699 25.8767 65.2204 25.495 64.8511 25.0026C64.494 24.4978 64.3155 23.8575 64.3155 23.0819C64.3155 22.3555 64.494 21.7214 64.8511 21.1796C65.2204 20.6256 65.7252 20.2008 66.3655 19.9054C67.0058 19.6099 67.7198 19.4622 68.5078 19.4622C69.6035 19.4622 70.5454 19.7515 71.3334 20.3302C72.1214 20.8964 72.6815 21.6783 73.0139 22.6755L71.2226 22.9711C70.9763 22.4047 70.6254 21.9738 70.1699 21.6783C69.7143 21.3704 69.1787 21.2166 68.5632 21.2166C67.8983 21.2166 67.3504 21.3767 66.9195 21.6967C66.4886 22.0046 66.2731 22.4294 66.2731 22.9711C66.2731 23.3774 66.3963 23.722 66.6426 24.0052C66.9011 24.2884 67.215 24.5162 67.5844 24.6886C67.966 24.861 68.4708 25.0579 69.0987 25.2795C69.899 25.5504 70.5639 25.8274 71.0932 26.1106C71.635 26.3815 72.0906 26.7692 72.4599 27.274C72.8292 27.7788 73.0139 28.413 73.0139 29.1763C73.0139 29.915 72.817 30.5614 72.423 31.1154C72.0412 31.6694 71.5119 32.1003 70.8347 32.4082C70.1699 32.7036 69.425 32.8514 68.6002 32.8514ZM80.659 31.0784L80.4927 32.6667H78.8122C77.8148 32.6667 77.0576 32.4204 76.5406 31.928C76.0235 31.4355 75.765 30.7276 75.765 29.8042V24.7255H74.1212V23.1188H75.765L76.2636 20.3486H77.5748V23.1188H80.4927V24.7255H77.5748V29.8042C77.5748 30.6536 77.9872 31.0784 78.8122 31.0784H80.659ZM86.6944 32.8514C85.7219 32.8514 84.8539 32.642 84.0906 32.2235C83.3271 31.8048 82.73 31.22 82.2991 30.469C81.8682 29.718 81.6527 28.8623 81.6527 27.902C81.6527 26.9416 81.8682 26.0859 82.2991 25.335C82.73 24.5839 83.3271 23.9991 84.0906 23.5804C84.8539 23.1495 85.7219 22.9342 86.6944 22.9342C87.6671 22.9342 88.5351 23.1495 89.2984 23.5804C90.0618 23.9991 90.659 24.5839 91.0899 25.335C91.5207 26.0859 91.7362 26.9416 91.7362 27.902C91.7362 28.8623 91.5207 29.718 91.0899 30.469C90.659 31.22 90.0618 31.8048 89.2984 32.2235C88.5351 32.642 87.6671 32.8514 86.6944 32.8514ZM86.6944 31.1892C87.6302 31.1892 88.3874 30.8876 88.966 30.2843C89.557 29.6811 89.8524 28.887 89.8524 27.902C89.8524 26.917 89.557 26.1228 88.966 25.5196C88.3874 24.904 87.6302 24.5962 86.6944 24.5962C85.7588 24.5962 85.0016 24.904 84.423 25.5196C83.8443 26.1228 83.555 26.917 83.555 27.902C83.555 28.8746 83.8443 29.6687 84.423 30.2843C85.0016 30.8876 85.7588 31.1892 86.6944 31.1892ZM93.6771 32.6667V23.1188H94.9883L95.3762 24.4854C95.6594 24.0052 96.0102 23.6606 96.4288 23.4512C96.8474 23.2296 97.346 23.1188 97.9247 23.1188H98.3679L98.5156 24.8548H97.4815C96.8166 24.8548 96.318 25.0456 95.9856 25.4272C95.6531 25.809 95.4869 26.326 95.4869 26.9786V32.6667H93.6771ZM108.863 27.8282C108.863 28.0743 108.856 28.2652 108.844 28.4006H100.958C101.057 29.2502 101.389 29.9272 101.956 30.432C102.522 30.9368 103.242 31.1892 104.116 31.1892C104.72 31.1892 105.255 31.0723 105.723 30.8384C106.203 30.5922 106.566 30.272 106.813 29.878L108.512 30.1551C108.142 31.0168 107.545 31.6818 106.72 32.1496C105.908 32.6175 105.003 32.8514 104.005 32.8514C103.057 32.8514 102.208 32.642 101.457 32.2235C100.706 31.7926 100.121 31.2016 99.7026 30.4506C99.2839 29.6995 99.0746 28.85 99.0746 27.902C99.0746 26.9416 99.2839 26.0859 99.7026 25.335C100.121 24.5839 100.7 23.9991 101.439 23.5804C102.177 23.1495 103.021 22.9342 103.969 22.9342C104.904 22.9342 105.741 23.1495 106.48 23.5804C107.231 23.9991 107.816 24.5839 108.235 25.335C108.653 26.0736 108.863 26.9047 108.863 27.8282ZM103.969 24.5408C103.242 24.5408 102.614 24.7563 102.085 25.1872C101.568 25.6182 101.223 26.1968 101.051 26.9232H106.887C106.726 26.2091 106.382 25.6366 105.852 25.2056C105.335 24.7624 104.707 24.5408 103.969 24.5408Z" fill="white"/>
<path d="M42.668 15.8012V13.4477H42.8232C43.0244 13.4477 43.1852 13.3988 43.306 13.3011C43.4266 13.2034 43.5272 13.008 43.6077 12.7149C43.6938 12.416 43.76 11.9763 43.806 11.3959L44.056 8.18884H47.8837V13.4477H48.7717V15.8012H47.8837V14.2667H43.556V15.8012H42.668ZM46.9957 13.4477V9.00783H44.8749L44.694 11.439C44.6249 12.4103 44.4468 13.0798 44.1594 13.4477H46.9957ZM51.5944 14.3529C51.1404 14.3529 50.7352 14.2552 50.3788 14.0597C50.0225 13.8644 49.7437 13.5913 49.5425 13.2407C49.3414 12.8902 49.2408 12.4907 49.2408 12.0424C49.2408 11.5941 49.3414 11.1947 49.5425 10.8441C49.7437 10.4935 50.0225 10.2205 50.3788 10.0251C50.7352 9.82396 51.1404 9.72338 51.5944 9.72338C52.0484 9.72338 52.4536 9.82396 52.81 10.0251C53.1662 10.2205 53.445 10.4935 53.6461 10.8441C53.8473 11.1947 53.9478 11.5941 53.9478 12.0424C53.9478 12.4907 53.8473 12.8902 53.6461 13.2407C53.445 13.5913 53.1662 13.8644 52.81 14.0597C52.4536 14.2552 52.0484 14.3529 51.5944 14.3529ZM51.5944 13.5769C52.0312 13.5769 52.3846 13.4361 52.6548 13.1546C52.9306 12.8729 53.0685 12.5022 53.0685 12.0424C53.0685 11.5826 52.9306 11.2119 52.6548 10.9303C52.3846 10.6429 52.0312 10.4993 51.5944 10.4993C51.1576 10.4993 50.8041 10.6429 50.534 10.9303C50.2638 11.2119 50.1288 11.5826 50.1288 12.0424C50.1288 12.4965 50.2638 12.8672 50.534 13.1546C50.8041 13.4361 51.1576 13.5769 51.5944 13.5769ZM56.9057 14.3529C56.4632 14.3529 56.0637 14.2552 55.7074 14.0597C55.3568 13.8587 55.0838 13.5827 54.8884 13.2321C54.693 12.8815 54.5953 12.485 54.5953 12.0424C54.5953 11.5941 54.693 11.1947 54.8884 10.8441C55.0838 10.4935 55.3568 10.2205 55.7074 10.0251C56.058 9.82396 56.4574 9.72338 56.9057 9.72338C57.3828 9.72338 57.8081 9.83832 58.1816 10.0682C58.5609 10.2981 58.831 10.6286 58.992 11.0596L58.1989 11.1889C58.0954 10.982 57.9316 10.8154 57.7074 10.6889C57.489 10.5625 57.239 10.4993 56.9574 10.4993C56.5206 10.4993 56.1644 10.6429 55.8884 10.9303C55.6184 11.2177 55.4833 11.5884 55.4833 12.0424C55.4833 12.4965 55.6184 12.8672 55.8884 13.1546C56.1644 13.4361 56.5206 13.5769 56.9574 13.5769C57.2505 13.5769 57.5092 13.5109 57.7333 13.3787C57.9632 13.2465 58.1298 13.0712 58.2333 12.8528L59.0265 12.9821C58.8656 13.4189 58.5897 13.758 58.1989 13.9995C57.8138 14.2351 57.3828 14.3529 56.9057 14.3529ZM61.6349 14.2667H60.7901V10.5855H59.2469V9.80959H63.1781V10.5855H61.6349V14.2667ZM67.1694 9.80959H68.0401L66.178 14.9391C66.0401 15.3241 65.859 15.6029 65.6349 15.7753C65.4108 15.9477 65.1118 16.034 64.7384 16.034H64.0745L63.9969 15.2581H64.7901C64.9568 15.2581 65.086 15.2207 65.178 15.146C65.27 15.0771 65.3476 14.9535 65.4108 14.7753L65.5056 14.5167L63.5228 9.80959H64.428L65.8418 13.2494H65.9625L67.1694 9.80959ZM69.649 14.2667H68.8041V9.80959H72.5974V14.2667H71.7525V10.5855H69.649V14.2667ZM76.7544 11.6286V9.80959H77.5993V14.2667H76.7544V12.4045H74.6077V14.2667H73.7629V9.80959H74.6077V11.6286H76.7544ZM80.8586 14.3529C80.4046 14.3529 79.9994 14.2552 79.6432 14.0597C79.2868 13.8644 79.008 13.5913 78.8069 13.2407C78.6057 12.8902 78.5052 12.4907 78.5052 12.0424C78.5052 11.5941 78.6057 11.1947 78.8069 10.8441C79.008 10.4935 79.2868 10.2205 79.6432 10.0251C79.9994 9.82396 80.4046 9.72338 80.8586 9.72338C81.3128 9.72338 81.7178 9.82396 82.0742 10.0251C82.4306 10.2205 82.7093 10.4935 82.9105 10.8441C83.1116 11.1947 83.2122 11.5941 83.2122 12.0424C83.2122 12.4907 83.1116 12.8902 82.9105 13.2407C82.7093 13.5913 82.4306 13.8644 82.0742 14.0597C81.7178 14.2552 81.3128 14.3529 80.8586 14.3529ZM80.8586 13.5769C81.2954 13.5769 81.6489 13.4361 81.919 13.1546C82.1949 12.8729 82.3329 12.5022 82.3329 12.0424C82.3329 11.5826 82.1949 11.2119 81.919 10.9303C81.6489 10.6429 81.2954 10.4993 80.8586 10.4993C80.4218 10.4993 80.0684 10.6429 79.7982 10.9303C79.5281 11.2119 79.393 11.5826 79.393 12.0424C79.393 12.4965 79.5281 12.8672 79.7982 13.1546C80.0684 13.4361 80.4218 13.5769 80.8586 13.5769ZM89.1462 11.9304C89.3762 12.0166 89.5601 12.1574 89.6981 12.3528C89.8417 12.5425 89.9136 12.7666 89.9136 13.0252C89.9136 13.2609 89.8446 13.4735 89.7066 13.6632C89.5745 13.8528 89.3877 14.0023 89.1462 14.1115C88.9049 14.2149 88.629 14.2667 88.3186 14.2667H86.1893V9.80959H88.241C88.5342 9.80959 88.7957 9.86131 89.0256 9.96476C89.2554 10.0682 89.4337 10.209 89.5601 10.3872C89.6922 10.5654 89.7584 10.7694 89.7584 10.9993C89.7584 11.2177 89.7038 11.4073 89.5946 11.5683C89.4912 11.7235 89.3417 11.8441 89.1462 11.9304ZM87.0341 10.5251V11.62H88.241C88.4365 11.62 88.5974 11.5711 88.7238 11.4734C88.8504 11.37 88.9136 11.2378 88.9136 11.0769C88.9136 10.9159 88.8504 10.7838 88.7238 10.6803C88.5974 10.5769 88.4365 10.5251 88.241 10.5251H87.0341ZM88.3186 13.5511C88.5428 13.5511 88.7238 13.4936 88.8618 13.3787C88.9997 13.2637 89.0688 13.1143 89.0688 12.9304C89.0688 12.7465 88.9997 12.5971 88.8618 12.4821C88.7238 12.3672 88.5428 12.3097 88.3186 12.3097H87.0341V13.5511H88.3186Z" fill="white"/>
<path d="M114.207 0.400024H5.94079C2.92163 0.400024 0.474121 2.84753 0.474121 5.86669V34.1334C0.474121 37.1525 2.92163 39.6 5.94079 39.6H114.207C117.227 39.6 119.674 37.1525 119.674 34.1334V5.86669C119.674 2.84753 117.227 0.400024 114.207 0.400024Z" stroke="#ABABAB"/>
</g>
<defs>
<clipPath id="clip0_5851_59">
<rect width="120.133" height="40" fill="white"/>
</clipPath>
</defs>
</svg>
