<svg width="24" height="24" viewBox="0 0 24 24" fill="none" xmlns="http://www.w3.org/2000/svg">
<path fill-rule="evenodd" clip-rule="evenodd" d="M2.54648 21.4535C4.09296 23 6.58197 23 11.56 23H12.44C17.418 23 19.907 23 21.4536 21.4535C23 19.907 23 17.418 23 12.4399V11.5599C23 6.58189 23 4.09286 21.4536 2.54639C19.907 1 17.418 1 12.44 1V1L11.56 1V1C6.58197 1 4.09296 1 2.54648 2.54639C1 4.09286 1 6.58189 1 11.5599L1 12.4399C1 17.418 1 19.907 2.54648 21.4535ZM17.9852 15.6229L16.4982 15.2514C16.3195 15.1999 16.1934 15.039 16.187 14.852L16.0015 9.38088C15.9479 8.65677 15.4103 8.08081 14.8486 7.91119C14.8171 7.90167 14.7834 7.91451 14.7647 7.94165C14.7457 7.96921 14.753 8.00741 14.7795 8.02788C14.9183 8.13527 15.3 8.48568 15.3 9.09009L15.2989 16.2433C15.2989 16.9341 14.6462 17.4407 13.973 17.2725L12.4633 16.8954C12.2961 16.8367 12.1799 16.6809 12.1738 16.5012L11.9883 11.0298C11.9347 10.3056 11.3971 9.72968 10.8354 9.56007C10.8038 9.55055 10.7702 9.56338 10.7515 9.59053C10.7325 9.61809 10.7398 9.65629 10.7663 9.67675C10.905 9.78415 11.2877 10.1337 11.2877 10.7381L11.2865 17.8929C11.2865 18.5837 10.6339 19.0903 9.96056 18.9221L5.69708 17.857C5.10434 17.7089 4.68873 17.1788 4.68873 16.5706V9.40613C4.68873 8.71538 5.34142 8.20884 6.01468 8.37698L8.70112 9.0481V7.75654C8.70112 7.06585 9.35379 6.55925 10.027 6.72743L12.7134 7.39851V6.10696C12.7134 5.41623 13.3661 4.90964 14.0393 5.07782L18.3028 6.14287C18.8956 6.29094 19.3112 6.82116 19.3112 7.42926V14.5938C19.3112 15.2845 18.6585 15.7911 17.9852 15.6229Z" fill="#B2B6C2"/>
</svg>
