<svg width="136" height="96" viewBox="0 0 136 96" fill="none" xmlns="http://www.w3.org/2000/svg">
<g clip-path="url(#clip0_3129_816)">
<path d="M34 39H102V72C102 75.3137 99.3137 78 96 78H40C36.6863 78 34 75.3137 34 72V39Z" fill="#EDF1FC"/>
<path d="M102.038 34.8643H34.0001V37.3619H102.038V34.8643Z" fill="#BCCBF7"/>
<path d="M40.9945 22.8564H38.7463H38.2189C37.1087 22.8564 36.017 23.3097 35.2306 24.096C34.4534 24.8823 34.0001 25.9647 34.0001 27.0748V31.9776H102.038V27.0748C102.038 25.9647 101.585 24.8823 100.799 24.096C100.012 23.3097 98.9297 22.8564 97.8195 22.8564H90.6585V28.3791C90.6585 29.4059 89.8259 30.2477 88.7897 30.2477H84.8576C83.8307 30.2477 82.9887 29.4152 82.9887 28.3791V22.8564H53.0497V28.3791C53.0497 29.4059 52.217 30.2477 51.1808 30.2477H47.2487C46.2125 30.2477 45.3799 29.4152 45.3799 28.3791V22.8564H40.9945Z" fill="#144BCA"/>
<path d="M102.038 31.978H34.0001V34.8642H102.038V31.978Z" fill="#6695FF"/>
<path d="M47.2488 26.4133C47.2488 27.4991 48.129 28.3793 49.2148 28.3793C50.3006 28.3793 51.1808 27.4991 51.1808 26.4133V22.8566V19.966C51.1808 18.8802 50.3006 18 49.2148 18C48.129 18 47.2488 18.8802 47.2488 19.966V22.8566V26.4133Z" fill="#F1F4FC"/>
<path d="M84.8576 26.4086C84.8576 27.497 85.7399 28.3793 86.8283 28.3793C87.9166 28.3793 88.7989 27.497 88.7989 26.4086V22.8566V19.9706C88.7989 18.8823 87.9166 18 86.8283 18C85.7399 18 84.8576 18.8823 84.8576 19.9706V22.8566V26.4086Z" fill="#F1F4FC"/>
<path d="M56.2939 41.7188H54.5516C52.3425 41.7188 50.5516 43.5096 50.5516 45.7187V46.3867C50.5516 48.5958 52.3425 50.3867 54.5516 50.3867H56.2939C58.503 50.3867 60.2939 48.5958 60.2939 46.3867V45.7188C60.2939 43.5096 58.503 41.7188 56.2939 41.7188Z" fill="#8DAAEC"/>
<path d="M68.8949 41.7188H67.1527C64.9436 41.7188 63.1527 43.5096 63.1527 45.7187V46.3867C63.1527 48.5958 64.9436 50.3867 67.1527 50.3867H68.8949C71.1041 50.3867 72.8949 48.5958 72.8949 46.3867V45.7188C72.8949 43.5096 71.1041 41.7188 68.8949 41.7188Z" fill="#8DAAEC"/>
<path d="M81.4867 41.7188H79.7445C77.5354 41.7188 75.7445 43.5096 75.7445 45.7187V46.3867C75.7445 48.5958 77.5354 50.3867 79.7445 50.3867H81.4867C83.6959 50.3867 85.4867 48.5958 85.4867 46.3867V45.7188C85.4867 43.5096 83.6959 41.7188 81.4867 41.7188Z" fill="#8DAAEC"/>
<path d="M94.0877 41.7188H92.3455C90.1364 41.7188 88.3455 43.5096 88.3455 45.7187V46.3867C88.3455 48.5958 90.1364 50.3867 92.3455 50.3867H94.0877C96.2969 50.3867 98.0877 48.5958 98.0877 46.3867V45.7188C98.0877 43.5096 96.2969 41.7188 94.0877 41.7188Z" fill="#8DAAEC"/>
<path d="M43.7021 52.7827H41.9598C39.7507 52.7827 37.9598 54.5736 37.9598 56.7827V57.4414C37.9598 59.6505 39.7507 61.4414 41.9598 61.4414H43.7021C45.9112 61.4414 47.7021 59.6505 47.7021 57.4414V56.7827C47.7021 54.5736 45.9112 52.7827 43.7021 52.7827Z" fill="#8DAAEC"/>
<path d="M56.2939 52.7827H54.5516C52.3425 52.7827 50.5516 54.5736 50.5516 56.7827V57.4414C50.5516 59.6505 52.3425 61.4414 54.5516 61.4414H56.2939C58.503 61.4414 60.2939 59.6505 60.2939 57.4414V56.7827C60.2939 54.5736 58.503 52.7827 56.2939 52.7827Z" fill="#5587FA"/>
<path d="M68.8949 52.7827H67.1527C64.9436 52.7827 63.1527 54.5736 63.1527 56.7827V57.4414C63.1527 59.6505 64.9436 61.4414 67.1527 61.4414H68.8949C71.1041 61.4414 72.8949 59.6505 72.8949 57.4414V56.7827C72.8949 54.5736 71.1041 52.7827 68.8949 52.7827Z" fill="#8DAAEC"/>
<path d="M81.4867 52.7827H79.7445C77.5354 52.7827 75.7445 54.5736 75.7445 56.7827V57.4414C75.7445 59.6505 77.5354 61.4414 79.7445 61.4414H81.4867C83.6959 61.4414 85.4867 59.6505 85.4867 57.4414V56.7827C85.4867 54.5736 83.6959 52.7827 81.4867 52.7827Z" fill="#D7E0F5"/>
<path d="M94.0877 52.7827H92.3455C90.1364 52.7827 88.3455 54.5736 88.3455 56.7827V57.4414C88.3455 59.6505 90.1364 61.4414 92.3455 61.4414H94.0877C96.2969 61.4414 98.0877 59.6505 98.0877 57.4414V56.7827C98.0877 54.5736 96.2969 52.7827 94.0877 52.7827Z" fill="#8DAAEC"/>
<path d="M43.7021 63.8374H41.9598C39.7507 63.8374 37.9598 65.6283 37.9598 67.8374V68.496C37.9598 70.7052 39.7507 72.496 41.9598 72.496H43.7021C45.9112 72.496 47.7021 70.7052 47.7021 68.496V67.8374C47.7021 65.6283 45.9112 63.8374 43.7021 63.8374Z" fill="#8DAAEC"/>
<path d="M56.2939 63.8374H54.5516C52.3425 63.8374 50.5516 65.6283 50.5516 67.8374V68.496C50.5516 70.7052 52.3425 72.496 54.5516 72.496H56.2939C58.503 72.496 60.2939 70.7052 60.2939 68.496V67.8374C60.2939 65.6283 58.503 63.8374 56.2939 63.8374Z" fill="#D7E0F5"/>
<path d="M68.8949 63.8374H67.1527C64.9436 63.8374 63.1527 65.6283 63.1527 67.8374V68.496C63.1527 70.7052 64.9436 72.496 67.1527 72.496H68.8949C71.1041 72.496 72.8949 70.7052 72.8949 68.496V67.8374C72.8949 65.6283 71.1041 63.8374 68.8949 63.8374Z" fill="#8DAAEC"/>
<path d="M81.4867 63.8374H79.7445C77.5354 63.8374 75.7445 65.6283 75.7445 67.8374V68.496C75.7445 70.7052 77.5354 72.496 79.7445 72.496H81.4867C83.6959 72.496 85.4867 70.7052 85.4867 68.496V67.8374C85.4867 65.6283 83.6959 63.8374 81.4867 63.8374Z" fill="#8DAAEC"/>
</g>
<circle cx="99" cy="73" r="12" fill="#F1F4FC" stroke="#BCCBF7" stroke-width="4"/>
<path d="M94.5 73L97.1464 75.6464C97.3417 75.8417 97.6583 75.8417 97.8536 75.6464L103.5 70" stroke="#4DAE00" stroke-width="3" stroke-linecap="round"/>
<defs>
<clipPath id="clip0_3129_816">
<rect width="68.0383" height="60" fill="white" transform="translate(34 18)"/>
</clipPath>
</defs>
</svg>
