<svg width="136" height="96" viewBox="0 0 136 96" fill="none" xmlns="http://www.w3.org/2000/svg">
    <g clip-path="url(#clip0_5347_1741)">
        <path d="M34 39H102V72C102 75.3137 99.3137 78 96 78H40C36.6863 78 34 75.3137 34 72V39Z" fill="#F9F9F9" />
        <path d="M102.038 34.864H34.0001V37.3617H102.038V34.864Z" fill="#C9DDEF" />
        <path
            d="M38.7463 23.0001H40.9945H45.2363V28.3792C45.2363 29.4946 46.1333 30.3914 47.2487 30.3914H51.1808C52.2967 30.3914 53.1932 29.4849 53.1932 28.3792V23.0001H82.8452V28.3792C82.8452 29.4951 83.7519 30.3914 84.8576 30.3914H88.7897C89.9056 30.3914 90.8021 29.4849 90.8021 28.3792V23.0001H97.8195C98.8912 23.0001 99.9373 23.4379 100.697 24.1977C101.457 24.9574 101.895 26.0033 101.895 27.0749V31.8342H34.1436V27.0749C34.1436 26.0034 34.5815 24.9573 35.3324 24.1974C36.0919 23.4381 37.147 23.0001 38.2189 23.0001H38.7463Z"
            fill="#004D8F" stroke="#004D8F" stroke-width="0.287081" />
        <path d="M102.038 31.9778H34.0001V34.864H102.038V31.9778Z" fill="#2F77B5" />
        <path
            d="M47.2488 26.4133C47.2488 27.4991 48.129 28.3793 49.2148 28.3793C50.3006 28.3793 51.1808 27.4991 51.1808 26.4133V22.8566V19.966C51.1808 18.8802 50.3006 18 49.2148 18C48.129 18 47.2488 18.8802 47.2488 19.966V22.8566V26.4133Z"
            fill="#F9F9F9" />
        <path
            d="M84.8576 26.4086C84.8576 27.497 85.7399 28.3793 86.8283 28.3793C87.9166 28.3793 88.7989 27.497 88.7989 26.4086V22.8566V19.9706C88.7989 18.8823 87.9166 18 86.8283 18C85.7399 18 84.8576 18.8823 84.8576 19.9706V22.8566V26.4086Z"
            fill="#F9F9F9" />
        <path
            d="M56.2939 41.7188H54.5516C52.3425 41.7188 50.5516 43.5096 50.5516 45.7187V46.3867C50.5516 48.5958 52.3425 50.3867 54.5516 50.3867H56.2939C58.503 50.3867 60.2939 48.5958 60.2939 46.3867V45.7188C60.2939 43.5096 58.503 41.7188 56.2939 41.7188Z"
            fill="#80C0FC" />
        <path
            d="M68.8949 41.7188H67.1527C64.9436 41.7188 63.1527 43.5096 63.1527 45.7187V46.3867C63.1527 48.5958 64.9436 50.3867 67.1527 50.3867H68.8949C71.1041 50.3867 72.8949 48.5958 72.8949 46.3867V45.7188C72.8949 43.5096 71.1041 41.7188 68.8949 41.7188Z"
            fill="#80C0FC" />
        <path
            d="M81.4867 41.7188H79.7445C77.5354 41.7188 75.7445 43.5096 75.7445 45.7187V46.3867C75.7445 48.5958 77.5354 50.3867 79.7445 50.3867H81.4867C83.6959 50.3867 85.4867 48.5958 85.4867 46.3867V45.7188C85.4867 43.5096 83.6959 41.7188 81.4867 41.7188Z"
            fill="#80C0FC" />
        <path
            d="M94.0877 41.7188H92.3455C90.1364 41.7188 88.3455 43.5096 88.3455 45.7187V46.3867C88.3455 48.5958 90.1364 50.3867 92.3455 50.3867H94.0877C96.2969 50.3867 98.0877 48.5958 98.0877 46.3867V45.7188C98.0877 43.5096 96.2969 41.7188 94.0877 41.7188Z"
            fill="#80C0FC" />
        <path
            d="M43.7021 52.7826H41.9598C39.7507 52.7826 37.9598 54.5735 37.9598 56.7826V57.4412C37.9598 59.6504 39.7507 61.4412 41.9598 61.4412H43.7021C45.9112 61.4412 47.7021 59.6504 47.7021 57.4412V56.7826C47.7021 54.5735 45.9112 52.7826 43.7021 52.7826Z"
            fill="#80C0FC" />
        <path
            d="M56.2939 52.7826H54.5516C52.3425 52.7826 50.5516 54.5735 50.5516 56.7826V57.4412C50.5516 59.6504 52.3425 61.4412 54.5516 61.4412H56.2939C58.503 61.4412 60.2939 59.6504 60.2939 57.4412V56.7826C60.2939 54.5735 58.503 52.7826 56.2939 52.7826Z"
            fill="#1560A0" />
        <path
            d="M68.8949 52.7826H67.1527C64.9436 52.7826 63.1527 54.5735 63.1527 56.7826V57.4412C63.1527 59.6504 64.9436 61.4412 67.1527 61.4412H68.8949C71.1041 61.4412 72.8949 59.6504 72.8949 57.4412V56.7826C72.8949 54.5735 71.1041 52.7826 68.8949 52.7826Z"
            fill="#80C0FC" />
        <path
            d="M81.4867 52.7826H79.7445C77.5354 52.7826 75.7445 54.5735 75.7445 56.7826V57.4412C75.7445 59.6504 77.5354 61.4412 79.7445 61.4412H81.4867C83.6959 61.4412 85.4867 59.6504 85.4867 57.4412V56.7826C85.4867 54.5735 83.6959 52.7826 81.4867 52.7826Z"
            fill="#E0EFFC" />
        <path
            d="M94.0877 52.7826H92.3455C90.1364 52.7826 88.3455 54.5735 88.3455 56.7826V57.4412C88.3455 59.6504 90.1364 61.4412 92.3455 61.4412H94.0877C96.2969 61.4412 98.0877 59.6504 98.0877 57.4412V56.7826C98.0877 54.5735 96.2969 52.7826 94.0877 52.7826Z"
            fill="#80C0FC" />
        <path
            d="M43.7021 63.8372H41.9598C39.7507 63.8372 37.9598 65.628 37.9598 67.8372V68.4958C37.9598 70.7049 39.7507 72.4958 41.9598 72.4958H43.7021C45.9112 72.4958 47.7021 70.7049 47.7021 68.4958V67.8372C47.7021 65.628 45.9112 63.8372 43.7021 63.8372Z"
            fill="#80C0FC" />
        <path
            d="M56.2939 63.8372H54.5516C52.3425 63.8372 50.5516 65.628 50.5516 67.8372V68.4958C50.5516 70.7049 52.3425 72.4958 54.5516 72.4958H56.2939C58.503 72.4958 60.2939 70.7049 60.2939 68.4958V67.8372C60.2939 65.628 58.503 63.8372 56.2939 63.8372Z"
            fill="#E0EFFC" />
        <path
            d="M68.8949 63.8372H67.1527C64.9436 63.8372 63.1527 65.628 63.1527 67.8372V68.4958C63.1527 70.7049 64.9436 72.4958 67.1527 72.4958H68.8949C71.1041 72.4958 72.8949 70.7049 72.8949 68.4958V67.8372C72.8949 65.628 71.1041 63.8372 68.8949 63.8372Z"
            fill="#80C0FC" />
        <path
            d="M81.4867 63.8372H79.7445C77.5354 63.8372 75.7445 65.628 75.7445 67.8372V68.4958C75.7445 70.7049 77.5354 72.4958 79.7445 72.4958H81.4867C83.6959 72.4958 85.4867 70.7049 85.4867 68.4958V67.8372C85.4867 65.628 83.6959 63.8372 81.4867 63.8372Z"
            fill="#80C0FC" />
    </g>
    <circle cx="99" cy="73" r="12" fill="#F9F9F9" stroke="#C9DDEF" stroke-width="4" />
    <path d="M94.5 73L97.1464 75.6464C97.3417 75.8417 97.6583 75.8417 97.8536 75.6464L103.5 70" stroke="#4DAE00"
        stroke-width="3" stroke-linecap="round" />
    <defs>
        <clipPath id="clip0_5347_1741">
            <rect width="68.0383" height="60" fill="white" transform="translate(34 18)" />
        </clipPath>
    </defs>
</svg>