<svg width="24" height="24" viewBox="0 0 24 24" fill="none" xmlns="http://www.w3.org/2000/svg">
<g id="icons / calendar - active">
<g id="Group 64">
<rect id="Rectangle 4" x="1" y="8" width="22" height="13" stroke="#6157FF" stroke-width="1.5" stroke-linecap="round" stroke-linejoin="round"/>
<path id="Subtract" fill-rule="evenodd" clip-rule="evenodd" d="M6 3.25H1C0.585786 3.25 0.25 3.58579 0.25 4V8C0.25 8.41421 0.585786 8.75 1 8.75H23C23.4142 8.75 23.75 8.41421 23.75 8V4C23.75 3.58579 23.4142 3.25 23 3.25H18V4.75H22.25V7.25H1.75V4.75H6V3.25ZM8 4.75V3.25H16V4.75H8Z" fill="#6157FF"/>
<rect id="Rectangle 12" x="6" y="2" width="2" height="4" rx="1" stroke="#6157FF" stroke-width="1.5" stroke-linecap="round" stroke-linejoin="round"/>
<rect id="Rectangle 13" x="16" y="2" width="2" height="4" rx="1" stroke="#6157FF" stroke-width="1.5" stroke-linecap="round" stroke-linejoin="round"/>
<g id="Group 65">
<rect id="Rectangle 14" x="5" y="11" width="2" height="2" rx="1" fill="#6157FF"/>
<rect id="Rectangle 18" x="5" y="15" width="2" height="2" rx="1" fill="#6157FF"/>
<rect id="Rectangle 15" x="9" y="11" width="2" height="2" rx="1" fill="#6157FF"/>
<rect id="Rectangle 19" x="9" y="15" width="2" height="2" rx="1" fill="#6157FF"/>
<rect id="Rectangle 16" x="13" y="11" width="2" height="2" rx="1" fill="#6157FF"/>
<rect id="Rectangle 20" x="13" y="15" width="2" height="2" rx="1" fill="#6157FF"/>
<rect id="Rectangle 17" x="17" y="11" width="2" height="2" rx="1" fill="#6157FF"/>
<rect id="Rectangle 21" x="17" y="15" width="2" height="2" rx="1" fill="#6157FF"/>
</g>
</g>
</g>
</svg>
