<svg id="svg" version="1.1" xmlns="http://www.w3.org/2000/svg" xmlns:xlink="http://www.w3.org/1999/xlink" width="32" height="32" viewBox="0, 0, 400,400"><g id="svgg"><path id="path0" d="M111.000 25.426 C 99.291 27.730,92.084 37.317,91.701 51.100 L 91.509 58.000 53.827 58.000 C 11.995 58.000,13.500 57.909,10.725 60.608 C 7.737 63.514,7.983 49.644,8.097 209.011 L 8.200 352.200 9.061 353.800 C 10.142 355.808,11.397 356.989,13.293 357.781 C 15.558 358.727,384.442 358.727,386.707 357.781 C 388.603 356.989,389.858 355.808,390.939 353.800 L 391.800 352.200 391.905 209.600 C 392.020 54.243,392.175 64.020,389.551 61.039 C 386.740 57.846,388.938 58.000,346.127 58.000 L 308.400 58.000 308.400 52.264 C 308.400 33.702,295.124 21.951,278.083 25.429 C 265.762 27.944,258.593 37.370,258.102 51.700 L 257.887 58.000 199.997 58.000 L 142.107 58.000 141.891 51.900 C 141.226 33.152,128.251 22.032,111.000 25.426 M120.378 42.901 C 121.315 43.396,122.648 44.584,123.341 45.540 L 124.600 47.278 124.715 65.639 C 124.838 85.177,124.755 86.242,122.939 88.399 C 119.203 92.839,112.485 92.184,109.571 87.095 L 108.600 85.400 108.475 68.000 C 108.406 58.430,108.458 49.860,108.591 48.955 C 109.384 43.556,115.589 40.368,120.378 42.901 M287.171 43.023 C 291.574 45.419,291.693 46.116,291.527 68.400 L 291.400 85.400 290.429 87.095 C 287.665 91.921,281.733 92.838,277.793 89.049 C 275.169 86.526,275.154 86.391,275.285 65.701 L 275.400 47.400 276.364 46.000 C 279.101 42.027,283.245 40.886,287.171 43.023 M91.600 80.980 C 91.600 97.617,101.499 108.420,116.720 108.394 C 131.661 108.369,141.285 98.086,141.890 81.500 L 142.119 75.200 200.000 75.200 L 257.881 75.200 258.107 81.500 C 258.703 98.109,268.307 108.369,283.280 108.394 C 298.416 108.420,308.400 97.578,308.400 81.116 L 308.400 75.200 341.600 75.200 L 374.800 75.200 374.800 100.000 L 374.800 124.800 200.000 124.800 L 25.200 124.800 25.200 100.000 L 25.200 75.200 58.400 75.200 L 91.600 75.200 91.600 80.980 M374.800 241.800 L 374.800 341.600 200.000 341.600 L 25.200 341.600 25.200 241.800 L 25.200 142.000 200.000 142.000 L 374.800 142.000 374.800 241.800 M94.995 183.894 C 78.940 189.653,79.453 211.905,95.740 216.242 C 110.041 220.050,121.732 204.776,114.578 191.630 C 111.044 185.137,101.757 181.468,94.995 183.894 M161.467 184.006 C 149.395 188.279,145.973 203.157,155.009 212.081 C 165.530 222.472,183.530 214.676,183.364 199.800 C 183.238 188.465,171.924 180.305,161.467 184.006 M228.400 183.927 C 209.989 190.039,214.050 216.558,233.400 216.575 C 238.407 216.580,241.682 215.387,244.438 212.554 C 245.407 211.558,246.507 210.435,246.882 210.058 C 250.066 206.863,250.945 197.790,248.555 192.800 C 245.028 185.436,235.925 181.429,228.400 183.927 M294.995 183.894 C 278.940 189.653,279.453 211.905,295.740 216.242 C 310.041 220.050,321.732 204.776,314.578 191.630 C 311.044 185.137,301.757 181.468,294.995 183.894 M94.914 250.559 C 76.794 256.455,80.961 283.348,100.000 283.377 C 117.800 283.405,123.258 259.377,107.242 251.493 C 104.189 249.989,98.086 249.527,94.914 250.559 M161.800 250.561 C 145.556 255.712,146.174 278.705,162.672 283.002 C 176.184 286.521,187.776 272.238,181.827 259.400 C 178.491 252.203,169.348 248.167,161.800 250.561 M227.715 250.778 C 212.434 256.372,213.080 277.977,228.672 282.793 C 242.314 287.007,254.620 272.558,248.508 259.504 C 244.970 251.948,235.441 247.950,227.715 250.778 M294.914 250.559 C 276.794 256.455,280.961 283.348,300.000 283.377 C 317.800 283.405,323.258 259.377,307.242 251.493 C 304.189 249.989,298.086 249.527,294.914 250.559 " stroke="none"  fill-rule="evenodd"></path><path id="path1" d="" stroke="none"  fill-rule="evenodd"></path></g></svg>