<svg width="24" height="24" viewBox="0 0 24 24" fill="none" xmlns="http://www.w3.org/2000/svg">
<rect x="1" y="8" width="22" height="13" stroke="#353638" stroke-linecap="round" stroke-linejoin="round"/>
<path fill-rule="evenodd" clip-rule="evenodd" d="M6 3.5H1C0.723858 3.5 0.5 3.72386 0.5 4V8C0.5 8.27614 0.723858 8.5 1 8.5H23C23.2761 8.5 23.5 8.27614 23.5 8V4C23.5 3.72386 23.2761 3.5 23 3.5H18V4.5H22.5V7.5H1.5V4.5H6V3.5ZM8 4.5V3.5H16V4.5H8Z" fill="#353638"/>
<rect x="6" y="2" width="2" height="4" rx="1" stroke="#353638" stroke-linecap="round" stroke-linejoin="round"/>
<rect x="16" y="2" width="2" height="4" rx="1" stroke="#353638" stroke-linecap="round" stroke-linejoin="round"/>
<rect x="5" y="11" width="2" height="2" rx="1" fill="#353638"/>
<rect x="5" y="15" width="2" height="2" rx="1" fill="#353638"/>
<rect x="9" y="11" width="2" height="2" rx="1" fill="#353638"/>
<rect x="9" y="15" width="2" height="2" rx="1" fill="#353638"/>
<rect x="13" y="11" width="2" height="2" rx="1" fill="#353638"/>
<rect x="13" y="15" width="2" height="2" rx="1" fill="#353638"/>
<rect x="17" y="11" width="2" height="2" rx="1" fill="#353638"/>
<rect x="17" y="15" width="2" height="2" rx="1" fill="#353638"/>
</svg>
