<svg id="svg" version="1.1" xmlns="http://www.w3.org/2000/svg" xmlns:xlink="http://www.w3.org/1999/xlink" width="24" height="24" viewBox="0, 0, 400,400"><g id="svgg"><path id="path0" d="M194.600 8.252 C 125.780 11.486,69.885 64.212,63.839 131.600 L 63.391 136.600 60.995 136.852 C 54.670 137.519,51.794 138.159,46.740 140.022 C 24.975 148.047,10.474 167.127,8.409 190.456 C 7.894 196.270,7.889 239.902,8.402 246.094 C 10.587 272.464,28.473 292.876,54.800 299.045 C 59.693 300.192,109.616 300.384,112.143 299.266 C 114.028 298.433,115.621 296.603,116.345 294.440 C 117.139 292.067,116.980 143.606,116.181 141.693 C 114.145 136.820,113.360 136.622,95.486 136.478 L 80.372 136.356 80.578 135.078 C 80.691 134.375,80.974 132.090,81.207 130.000 C 89.227 57.996,163.010 9.607,233.600 30.057 C 279.423 43.333,315.137 85.883,318.995 131.800 C 319.142 133.560,319.348 135.305,319.452 135.678 C 319.626 136.305,318.505 136.365,304.520 136.478 C 286.639 136.622,285.855 136.820,283.819 141.693 C 283.020 143.606,282.861 292.067,283.655 294.440 C 285.438 299.766,286.248 299.981,304.554 299.991 L 319.707 300.000 319.466 302.700 C 319.333 304.185,319.123 306.258,318.999 307.307 C 318.705 309.792,316.916 316.674,316.177 318.161 C 315.860 318.800,315.600 319.467,315.600 319.643 C 315.600 321.056,310.940 329.319,307.955 333.200 C 303.062 339.561,299.590 342.704,291.576 348.031 C 284.674 352.618,272.664 356.166,264.200 356.118 C 262.660 356.109,257.409 356.079,252.531 356.051 L 243.662 356.000 243.192 354.575 C 241.064 348.128,232.930 341.050,225.196 338.916 C 221.258 337.830,178.766 337.826,174.800 338.912 C 146.808 346.576,149.158 387.440,177.830 391.595 C 183.211 392.375,222.357 391.950,225.325 391.079 C 233.331 388.731,241.314 381.653,243.252 375.183 L 243.727 373.600 254.363 373.558 C 266.125 373.511,267.951 373.455,270.000 373.083 C 270.770 372.943,272.210 372.746,273.200 372.645 C 276.282 372.329,285.967 369.790,288.651 368.594 C 298.172 364.352,301.454 362.510,307.000 358.294 C 312.180 354.357,319.603 346.892,322.000 343.210 C 322.330 342.703,322.970 341.819,323.421 341.244 C 326.956 336.751,333.221 323.471,334.200 318.398 C 334.264 318.068,334.526 317.016,334.784 316.061 C 335.487 313.450,336.330 307.847,336.634 303.772 L 336.904 300.145 340.792 299.660 C 368.216 296.237,389.281 274.068,391.590 246.198 C 392.676 233.090,391.977 189.787,390.567 182.856 C 385.521 158.036,363.442 138.650,338.005 136.707 L 336.611 136.600 336.139 131.400 C 329.684 60.251,266.060 4.894,194.600 8.252 M100.000 218.400 L 100.000 283.200 82.900 283.197 C 61.039 283.193,56.599 282.682,49.610 279.371 C 37.505 273.635,29.767 264.080,26.148 250.400 C 25.111 246.477,24.817 194.580,25.799 188.695 C 28.323 173.573,38.416 161.262,52.503 156.124 C 58.900 153.790,60.105 153.685,80.900 153.641 L 100.000 153.600 100.000 218.400 M341.256 154.391 C 358.698 158.076,371.276 171.173,374.201 188.695 C 375.114 194.166,374.879 246.369,373.924 250.200 C 370.570 263.654,362.531 273.618,350.390 279.371 C 343.401 282.682,338.961 283.193,317.100 283.197 L 300.000 283.200 300.000 218.400 L 300.000 153.600 318.756 153.600 C 335.912 153.600,337.831 153.667,341.256 154.391 M222.200 356.155 C 229.977 359.838,229.990 370.233,222.222 373.851 L 220.200 374.792 200.000 374.792 L 179.800 374.792 177.778 373.851 C 170.010 370.233,170.023 359.838,177.800 356.155 L 179.800 355.208 200.000 355.208 L 220.200 355.208 222.200 356.155 " stroke="none" fill-rule="evenodd"></path><path id="path1" d="" stroke="none" fill-rule="evenodd"></path></g></svg>