<svg id="svg" version="1.1" xmlns="http://www.w3.org/2000/svg" xmlns:xlink="http://www.w3.org/1999/xlink" width="24" height="24" viewBox="0, 0, 400,400"><g id="svgg"><path id="path0" d="M134.776 8.546 C 132.165 9.250,130.619 10.505,129.434 12.881 L 128.400 14.957 128.400 29.079 L 128.400 43.200 104.900 43.209 C 77.137 43.219,77.386 43.172,75.416 48.756 C 74.650 50.926,74.462 366.565,75.224 369.311 C 75.770 371.277,77.780 373.538,79.797 374.454 C 81.700 375.319,333.016 375.635,336.108 374.777 C 337.761 374.318,339.989 372.314,341.093 370.294 C 341.766 369.063,341.800 361.238,341.800 209.200 L 341.800 49.400 340.800 47.615 C 340.241 46.617,339.007 45.294,338.000 44.615 L 336.200 43.400 312.300 43.288 L 288.400 43.176 288.400 29.661 C 288.400 12.012,287.676 9.740,281.639 8.446 C 278.506 7.774,137.281 7.870,134.776 8.546 M271.200 51.600 L 271.200 78.000 208.400 78.000 L 145.600 78.000 145.600 51.600 L 145.600 25.200 208.400 25.200 L 271.200 25.200 271.200 51.600 M128.400 74.213 C 128.400 89.735,128.411 89.818,130.769 92.503 C 133.348 95.441,127.079 95.232,209.029 95.110 L 282.659 95.000 284.307 93.909 C 285.214 93.309,286.461 91.959,287.078 90.909 L 288.200 89.000 288.323 74.500 L 288.446 60.000 306.623 60.000 L 324.800 60.000 324.800 209.000 L 324.800 358.000 208.400 358.000 L 92.000 358.000 92.000 209.000 L 92.000 60.000 110.200 60.000 L 128.400 60.000 128.400 74.213 M126.600 139.071 C 117.553 141.124,115.973 152.307,124.200 156.054 C 126.491 157.097,289.823 157.219,292.313 156.179 C 299.517 153.170,299.379 142.024,292.108 139.523 C 290.641 139.019,128.777 138.576,126.600 139.071 M123.600 192.527 C 117.452 195.533,117.429 205.066,123.563 208.277 L 125.326 209.200 190.363 209.191 C 252.406 209.183,255.474 209.149,257.003 208.454 C 263.791 205.371,263.607 195.101,256.713 192.221 C 255.388 191.668,248.129 191.603,190.313 191.624 L 125.400 191.647 123.600 192.527 M124.200 244.746 C 117.242 247.935,117.126 257.386,124.000 261.053 C 125.673 261.946,286.449 262.457,290.671 261.584 C 298.780 259.906,300.312 248.912,293.000 244.864 C 291.038 243.778,126.563 243.663,124.200 244.746 M124.800 297.058 C 118.526 299.217,116.835 307.381,121.728 311.891 C 124.665 314.598,118.901 314.438,209.200 314.314 L 291.400 314.200 293.000 313.339 C 299.918 309.616,299.125 299.620,291.701 296.971 C 289.268 296.103,127.330 296.187,124.800 297.058 " stroke="none"  fill-rule="evenodd"></path><path id="path1" d="" stroke="none" fill-rule="evenodd"></path></g></svg>